G04 #@! TF.GenerationSoftware,KiCad,Pcbnew,(6.0.4-103-ge02229a234)*
G04 #@! TF.CreationDate,2022-04-10T23:24:48+02:00*
G04 #@! TF.ProjectId,CANduino128 - v1.1 - 6.0.4,43414e64-7569-46e6-9f31-3238202d2076,rev?*
G04 #@! TF.SameCoordinates,Original*
G04 #@! TF.FileFunction,Legend,Top*
G04 #@! TF.FilePolarity,Positive*
%FSLAX46Y46*%
G04 Gerber Fmt 4.6, Leading zero omitted, Abs format (unit mm)*
G04 Created by KiCad (PCBNEW (6.0.4-103-ge02229a234)) date 2022-04-10 23:24:48*
%MOMM*%
%LPD*%
G01*
G04 APERTURE LIST*
G04 Aperture macros list*
%AMRoundRect*
0 Rectangle with rounded corners*
0 $1 Rounding radius*
0 $2 $3 $4 $5 $6 $7 $8 $9 X,Y pos of 4 corners*
0 Add a 4 corners polygon primitive as box body*
4,1,4,$2,$3,$4,$5,$6,$7,$8,$9,$2,$3,0*
0 Add four circle primitives for the rounded corners*
1,1,$1+$1,$2,$3*
1,1,$1+$1,$4,$5*
1,1,$1+$1,$6,$7*
1,1,$1+$1,$8,$9*
0 Add four rect primitives between the rounded corners*
20,1,$1+$1,$2,$3,$4,$5,0*
20,1,$1+$1,$4,$5,$6,$7,0*
20,1,$1+$1,$6,$7,$8,$9,0*
20,1,$1+$1,$8,$9,$2,$3,0*%
G04 Aperture macros list end*
%ADD10C,0.150000*%
%ADD11C,0.120000*%
%ADD12RoundRect,0.250000X1.100000X-0.412500X1.100000X0.412500X-1.100000X0.412500X-1.100000X-0.412500X0*%
%ADD13RoundRect,0.250001X-0.462499X-1.074999X0.462499X-1.074999X0.462499X1.074999X-0.462499X1.074999X0*%
%ADD14RoundRect,0.250000X-1.075000X0.400000X-1.075000X-0.400000X1.075000X-0.400000X1.075000X0.400000X0*%
%ADD15RoundRect,0.250000X-0.550000X-0.550000X0.550000X-0.550000X0.550000X0.550000X-0.550000X0.550000X0*%
%ADD16C,0.800000*%
%ADD17C,6.400000*%
%ADD18R,2.400000X1.600000*%
%ADD19O,2.400000X1.600000*%
%ADD20R,1.600000X2.400000*%
%ADD21O,1.600000X2.400000*%
%ADD22C,1.600000*%
%ADD23R,1.600000X1.600000*%
%ADD24R,0.600000X1.500000*%
%ADD25RoundRect,0.250000X0.412500X1.100000X-0.412500X1.100000X-0.412500X-1.100000X0.412500X-1.100000X0*%
%ADD26RoundRect,0.250001X-1.074999X0.462499X-1.074999X-0.462499X1.074999X-0.462499X1.074999X0.462499X0*%
%ADD27R,2.600000X2.600000*%
%ADD28C,2.600000*%
%ADD29RoundRect,0.250000X1.075000X-0.400000X1.075000X0.400000X-1.075000X0.400000X-1.075000X-0.400000X0*%
%ADD30R,2.200000X2.200000*%
%ADD31C,2.200000*%
%ADD32R,1.700000X1.700000*%
%ADD33O,1.700000X1.700000*%
G04 APERTURE END LIST*
D10*
X163157142Y-62825238D02*
X163204761Y-62872857D01*
X163252380Y-63015714D01*
X163252380Y-63110952D01*
X163204761Y-63253809D01*
X163109523Y-63349047D01*
X163014285Y-63396666D01*
X162823809Y-63444285D01*
X162680952Y-63444285D01*
X162490476Y-63396666D01*
X162395238Y-63349047D01*
X162300000Y-63253809D01*
X162252380Y-63110952D01*
X162252380Y-63015714D01*
X162300000Y-62872857D01*
X162347619Y-62825238D01*
X162966666Y-62444285D02*
X162966666Y-61968095D01*
X163252380Y-62539523D02*
X162252380Y-62206190D01*
X163252380Y-61872857D01*
X162252380Y-61063333D02*
X162252380Y-61539523D01*
X162728571Y-61587142D01*
X162680952Y-61539523D01*
X162633333Y-61444285D01*
X162633333Y-61206190D01*
X162680952Y-61110952D01*
X162728571Y-61063333D01*
X162823809Y-61015714D01*
X163061904Y-61015714D01*
X163157142Y-61063333D01*
X163204761Y-61110952D01*
X163252380Y-61206190D01*
X163252380Y-61444285D01*
X163204761Y-61539523D01*
X163157142Y-61587142D01*
X171902380Y-100845714D02*
X171426190Y-101179047D01*
X171902380Y-101417142D02*
X170902380Y-101417142D01*
X170902380Y-101036190D01*
X170950000Y-100940952D01*
X170997619Y-100893333D01*
X171092857Y-100845714D01*
X171235714Y-100845714D01*
X171330952Y-100893333D01*
X171378571Y-100940952D01*
X171426190Y-101036190D01*
X171426190Y-101417142D01*
X171997619Y-100655238D02*
X171997619Y-99893333D01*
X170902380Y-99798095D02*
X170902380Y-99226666D01*
X171902380Y-99512380D02*
X170902380Y-99512380D01*
X170902380Y-98988571D02*
X171902380Y-98321904D01*
X170902380Y-98321904D02*
X171902380Y-98988571D01*
X171997619Y-98179047D02*
X171997619Y-97417142D01*
X171902380Y-96655238D02*
X171902380Y-97226666D01*
X171902380Y-96940952D02*
X170902380Y-96940952D01*
X171045238Y-97036190D01*
X171140476Y-97131428D01*
X171188095Y-97226666D01*
X137757142Y-64206190D02*
X137804761Y-64253809D01*
X137852380Y-64396666D01*
X137852380Y-64491904D01*
X137804761Y-64634761D01*
X137709523Y-64730000D01*
X137614285Y-64777619D01*
X137423809Y-64825238D01*
X137280952Y-64825238D01*
X137090476Y-64777619D01*
X136995238Y-64730000D01*
X136900000Y-64634761D01*
X136852380Y-64491904D01*
X136852380Y-64396666D01*
X136900000Y-64253809D01*
X136947619Y-64206190D01*
X137566666Y-63825238D02*
X137566666Y-63349047D01*
X137852380Y-63920476D02*
X136852380Y-63587142D01*
X137852380Y-63253809D01*
X137852380Y-62349047D02*
X137376190Y-62682380D01*
X137852380Y-62920476D02*
X136852380Y-62920476D01*
X136852380Y-62539523D01*
X136900000Y-62444285D01*
X136947619Y-62396666D01*
X137042857Y-62349047D01*
X137185714Y-62349047D01*
X137280952Y-62396666D01*
X137328571Y-62444285D01*
X137376190Y-62539523D01*
X137376190Y-62920476D01*
X137328571Y-61920476D02*
X137328571Y-61587142D01*
X137852380Y-61444285D02*
X137852380Y-61920476D01*
X136852380Y-61920476D01*
X136852380Y-61444285D01*
X137328571Y-60682380D02*
X137328571Y-61015714D01*
X137852380Y-61015714D02*
X136852380Y-61015714D01*
X136852380Y-60539523D01*
X137852380Y-59634761D02*
X137852380Y-60206190D01*
X137852380Y-59920476D02*
X136852380Y-59920476D01*
X136995238Y-60015714D01*
X137090476Y-60110952D01*
X137138095Y-60206190D01*
X168237142Y-62825238D02*
X168284761Y-62872857D01*
X168332380Y-63015714D01*
X168332380Y-63110952D01*
X168284761Y-63253809D01*
X168189523Y-63349047D01*
X168094285Y-63396666D01*
X167903809Y-63444285D01*
X167760952Y-63444285D01*
X167570476Y-63396666D01*
X167475238Y-63349047D01*
X167380000Y-63253809D01*
X167332380Y-63110952D01*
X167332380Y-63015714D01*
X167380000Y-62872857D01*
X167427619Y-62825238D01*
X168046666Y-62444285D02*
X168046666Y-61968095D01*
X168332380Y-62539523D02*
X167332380Y-62206190D01*
X168332380Y-61872857D01*
X167332380Y-61110952D02*
X167332380Y-61301428D01*
X167380000Y-61396666D01*
X167427619Y-61444285D01*
X167570476Y-61539523D01*
X167760952Y-61587142D01*
X168141904Y-61587142D01*
X168237142Y-61539523D01*
X168284761Y-61491904D01*
X168332380Y-61396666D01*
X168332380Y-61206190D01*
X168284761Y-61110952D01*
X168237142Y-61063333D01*
X168141904Y-61015714D01*
X167903809Y-61015714D01*
X167808571Y-61063333D01*
X167760952Y-61110952D01*
X167713333Y-61206190D01*
X167713333Y-61396666D01*
X167760952Y-61491904D01*
X167808571Y-61539523D01*
X167903809Y-61587142D01*
X151986309Y-95607142D02*
X151938690Y-95654761D01*
X151795833Y-95702380D01*
X151700595Y-95702380D01*
X151557738Y-95654761D01*
X151462500Y-95559523D01*
X151414880Y-95464285D01*
X151367261Y-95273809D01*
X151367261Y-95130952D01*
X151414880Y-94940476D01*
X151462500Y-94845238D01*
X151557738Y-94750000D01*
X151700595Y-94702380D01*
X151795833Y-94702380D01*
X151938690Y-94750000D01*
X151986309Y-94797619D01*
X152176785Y-95797619D02*
X152938690Y-95797619D01*
X153129166Y-94797619D02*
X153176785Y-94750000D01*
X153272023Y-94702380D01*
X153510119Y-94702380D01*
X153605357Y-94750000D01*
X153652976Y-94797619D01*
X153700595Y-94892857D01*
X153700595Y-94988095D01*
X153652976Y-95130952D01*
X153081547Y-95702380D01*
X153700595Y-95702380D01*
X154605357Y-94702380D02*
X154129166Y-94702380D01*
X154081547Y-95178571D01*
X154129166Y-95130952D01*
X154224404Y-95083333D01*
X154462500Y-95083333D01*
X154557738Y-95130952D01*
X154605357Y-95178571D01*
X154652976Y-95273809D01*
X154652976Y-95511904D01*
X154605357Y-95607142D01*
X154557738Y-95654761D01*
X154462500Y-95702380D01*
X154224404Y-95702380D01*
X154129166Y-95654761D01*
X154081547Y-95607142D01*
X155557738Y-94702380D02*
X155081547Y-94702380D01*
X155033928Y-95178571D01*
X155081547Y-95130952D01*
X155176785Y-95083333D01*
X155414880Y-95083333D01*
X155510119Y-95130952D01*
X155557738Y-95178571D01*
X155605357Y-95273809D01*
X155605357Y-95511904D01*
X155557738Y-95607142D01*
X155510119Y-95654761D01*
X155414880Y-95702380D01*
X155176785Y-95702380D01*
X155081547Y-95654761D01*
X155033928Y-95607142D01*
X156557738Y-95702380D02*
X155986309Y-95702380D01*
X156272023Y-95702380D02*
X156272023Y-94702380D01*
X156176785Y-94845238D01*
X156081547Y-94940476D01*
X155986309Y-94988095D01*
X147917142Y-62825238D02*
X147964761Y-62872857D01*
X148012380Y-63015714D01*
X148012380Y-63110952D01*
X147964761Y-63253809D01*
X147869523Y-63349047D01*
X147774285Y-63396666D01*
X147583809Y-63444285D01*
X147440952Y-63444285D01*
X147250476Y-63396666D01*
X147155238Y-63349047D01*
X147060000Y-63253809D01*
X147012380Y-63110952D01*
X147012380Y-63015714D01*
X147060000Y-62872857D01*
X147107619Y-62825238D01*
X147726666Y-62444285D02*
X147726666Y-61968095D01*
X148012380Y-62539523D02*
X147012380Y-62206190D01*
X148012380Y-61872857D01*
X147107619Y-61587142D02*
X147060000Y-61539523D01*
X147012380Y-61444285D01*
X147012380Y-61206190D01*
X147060000Y-61110952D01*
X147107619Y-61063333D01*
X147202857Y-61015714D01*
X147298095Y-61015714D01*
X147440952Y-61063333D01*
X148012380Y-61634761D01*
X148012380Y-61015714D01*
X158077142Y-62825238D02*
X158124761Y-62872857D01*
X158172380Y-63015714D01*
X158172380Y-63110952D01*
X158124761Y-63253809D01*
X158029523Y-63349047D01*
X157934285Y-63396666D01*
X157743809Y-63444285D01*
X157600952Y-63444285D01*
X157410476Y-63396666D01*
X157315238Y-63349047D01*
X157220000Y-63253809D01*
X157172380Y-63110952D01*
X157172380Y-63015714D01*
X157220000Y-62872857D01*
X157267619Y-62825238D01*
X157886666Y-62444285D02*
X157886666Y-61968095D01*
X158172380Y-62539523D02*
X157172380Y-62206190D01*
X158172380Y-61872857D01*
X157505714Y-61110952D02*
X158172380Y-61110952D01*
X157124761Y-61349047D02*
X157839047Y-61587142D01*
X157839047Y-60968095D01*
X142629285Y-89352380D02*
X142295952Y-88876190D01*
X142057857Y-89352380D02*
X142057857Y-88352380D01*
X142438809Y-88352380D01*
X142534047Y-88400000D01*
X142581666Y-88447619D01*
X142629285Y-88542857D01*
X142629285Y-88685714D01*
X142581666Y-88780952D01*
X142534047Y-88828571D01*
X142438809Y-88876190D01*
X142057857Y-88876190D01*
X142819761Y-89447619D02*
X143581666Y-89447619D01*
X144295952Y-89352380D02*
X143819761Y-89352380D01*
X143819761Y-88352380D01*
X144629285Y-88828571D02*
X144962619Y-88828571D01*
X145105476Y-89352380D02*
X144629285Y-89352380D01*
X144629285Y-88352380D01*
X145105476Y-88352380D01*
X145534047Y-89352380D02*
X145534047Y-88352380D01*
X145772142Y-88352380D01*
X145915000Y-88400000D01*
X146010238Y-88495238D01*
X146057857Y-88590476D01*
X146105476Y-88780952D01*
X146105476Y-88923809D01*
X146057857Y-89114285D01*
X146010238Y-89209523D01*
X145915000Y-89304761D01*
X145772142Y-89352380D01*
X145534047Y-89352380D01*
X146295952Y-89447619D02*
X147057857Y-89447619D01*
X147295952Y-89352380D02*
X147295952Y-88352380D01*
X147534047Y-88352380D01*
X147676904Y-88400000D01*
X147772142Y-88495238D01*
X147819761Y-88590476D01*
X147867380Y-88780952D01*
X147867380Y-88923809D01*
X147819761Y-89114285D01*
X147772142Y-89209523D01*
X147676904Y-89304761D01*
X147534047Y-89352380D01*
X147295952Y-89352380D01*
X148343571Y-89352380D02*
X148534047Y-89352380D01*
X148629285Y-89304761D01*
X148676904Y-89257142D01*
X148772142Y-89114285D01*
X148819761Y-88923809D01*
X148819761Y-88542857D01*
X148772142Y-88447619D01*
X148724523Y-88400000D01*
X148629285Y-88352380D01*
X148438809Y-88352380D01*
X148343571Y-88400000D01*
X148295952Y-88447619D01*
X148248333Y-88542857D01*
X148248333Y-88780952D01*
X148295952Y-88876190D01*
X148343571Y-88923809D01*
X148438809Y-88971428D01*
X148629285Y-88971428D01*
X148724523Y-88923809D01*
X148772142Y-88876190D01*
X148819761Y-88780952D01*
X152997142Y-62825238D02*
X153044761Y-62872857D01*
X153092380Y-63015714D01*
X153092380Y-63110952D01*
X153044761Y-63253809D01*
X152949523Y-63349047D01*
X152854285Y-63396666D01*
X152663809Y-63444285D01*
X152520952Y-63444285D01*
X152330476Y-63396666D01*
X152235238Y-63349047D01*
X152140000Y-63253809D01*
X152092380Y-63110952D01*
X152092380Y-63015714D01*
X152140000Y-62872857D01*
X152187619Y-62825238D01*
X152806666Y-62444285D02*
X152806666Y-61968095D01*
X153092380Y-62539523D02*
X152092380Y-62206190D01*
X153092380Y-61872857D01*
X152092380Y-61634761D02*
X152092380Y-61015714D01*
X152473333Y-61349047D01*
X152473333Y-61206190D01*
X152520952Y-61110952D01*
X152568571Y-61063333D01*
X152663809Y-61015714D01*
X152901904Y-61015714D01*
X152997142Y-61063333D01*
X153044761Y-61110952D01*
X153092380Y-61206190D01*
X153092380Y-61491904D01*
X153044761Y-61587142D01*
X152997142Y-61634761D01*
X178397142Y-62825238D02*
X178444761Y-62872857D01*
X178492380Y-63015714D01*
X178492380Y-63110952D01*
X178444761Y-63253809D01*
X178349523Y-63349047D01*
X178254285Y-63396666D01*
X178063809Y-63444285D01*
X177920952Y-63444285D01*
X177730476Y-63396666D01*
X177635238Y-63349047D01*
X177540000Y-63253809D01*
X177492380Y-63110952D01*
X177492380Y-63015714D01*
X177540000Y-62872857D01*
X177587619Y-62825238D01*
X178206666Y-62444285D02*
X178206666Y-61968095D01*
X178492380Y-62539523D02*
X177492380Y-62206190D01*
X178492380Y-61872857D01*
X177920952Y-61396666D02*
X177873333Y-61491904D01*
X177825714Y-61539523D01*
X177730476Y-61587142D01*
X177682857Y-61587142D01*
X177587619Y-61539523D01*
X177540000Y-61491904D01*
X177492380Y-61396666D01*
X177492380Y-61206190D01*
X177540000Y-61110952D01*
X177587619Y-61063333D01*
X177682857Y-61015714D01*
X177730476Y-61015714D01*
X177825714Y-61063333D01*
X177873333Y-61110952D01*
X177920952Y-61206190D01*
X177920952Y-61396666D01*
X177968571Y-61491904D01*
X178016190Y-61539523D01*
X178111428Y-61587142D01*
X178301904Y-61587142D01*
X178397142Y-61539523D01*
X178444761Y-61491904D01*
X178492380Y-61396666D01*
X178492380Y-61206190D01*
X178444761Y-61110952D01*
X178397142Y-61063333D01*
X178301904Y-61015714D01*
X178111428Y-61015714D01*
X178016190Y-61063333D01*
X177968571Y-61110952D01*
X177920952Y-61206190D01*
X142837142Y-62825238D02*
X142884761Y-62872857D01*
X142932380Y-63015714D01*
X142932380Y-63110952D01*
X142884761Y-63253809D01*
X142789523Y-63349047D01*
X142694285Y-63396666D01*
X142503809Y-63444285D01*
X142360952Y-63444285D01*
X142170476Y-63396666D01*
X142075238Y-63349047D01*
X141980000Y-63253809D01*
X141932380Y-63110952D01*
X141932380Y-63015714D01*
X141980000Y-62872857D01*
X142027619Y-62825238D01*
X142646666Y-62444285D02*
X142646666Y-61968095D01*
X142932380Y-62539523D02*
X141932380Y-62206190D01*
X142932380Y-61872857D01*
X142932380Y-61015714D02*
X142932380Y-61587142D01*
X142932380Y-61301428D02*
X141932380Y-61301428D01*
X142075238Y-61396666D01*
X142170476Y-61491904D01*
X142218095Y-61587142D01*
X168092380Y-101060000D02*
X167616190Y-101393333D01*
X168092380Y-101631428D02*
X167092380Y-101631428D01*
X167092380Y-101250476D01*
X167140000Y-101155238D01*
X167187619Y-101107619D01*
X167282857Y-101060000D01*
X167425714Y-101060000D01*
X167520952Y-101107619D01*
X167568571Y-101155238D01*
X167616190Y-101250476D01*
X167616190Y-101631428D01*
X168044761Y-100679047D02*
X168092380Y-100536190D01*
X168092380Y-100298095D01*
X168044761Y-100202857D01*
X167997142Y-100155238D01*
X167901904Y-100107619D01*
X167806666Y-100107619D01*
X167711428Y-100155238D01*
X167663809Y-100202857D01*
X167616190Y-100298095D01*
X167568571Y-100488571D01*
X167520952Y-100583809D01*
X167473333Y-100631428D01*
X167378095Y-100679047D01*
X167282857Y-100679047D01*
X167187619Y-100631428D01*
X167140000Y-100583809D01*
X167092380Y-100488571D01*
X167092380Y-100250476D01*
X167140000Y-100107619D01*
X168187619Y-99917142D02*
X168187619Y-99155238D01*
X168092380Y-98917142D02*
X167092380Y-98917142D01*
X168092380Y-98345714D02*
X167520952Y-98774285D01*
X167092380Y-98345714D02*
X167663809Y-98917142D01*
X168092380Y-97393333D02*
X168092380Y-97964761D01*
X168092380Y-97679047D02*
X167092380Y-97679047D01*
X167235238Y-97774285D01*
X167330476Y-97869523D01*
X167378095Y-97964761D01*
X167092380Y-96774285D02*
X167092380Y-96679047D01*
X167140000Y-96583809D01*
X167187619Y-96536190D01*
X167282857Y-96488571D01*
X167473333Y-96440952D01*
X167711428Y-96440952D01*
X167901904Y-96488571D01*
X167997142Y-96536190D01*
X168044761Y-96583809D01*
X168092380Y-96679047D01*
X168092380Y-96774285D01*
X168044761Y-96869523D01*
X167997142Y-96917142D01*
X167901904Y-96964761D01*
X167711428Y-97012380D01*
X167473333Y-97012380D01*
X167282857Y-96964761D01*
X167187619Y-96917142D01*
X167140000Y-96869523D01*
X167092380Y-96774285D01*
X173317142Y-62825238D02*
X173364761Y-62872857D01*
X173412380Y-63015714D01*
X173412380Y-63110952D01*
X173364761Y-63253809D01*
X173269523Y-63349047D01*
X173174285Y-63396666D01*
X172983809Y-63444285D01*
X172840952Y-63444285D01*
X172650476Y-63396666D01*
X172555238Y-63349047D01*
X172460000Y-63253809D01*
X172412380Y-63110952D01*
X172412380Y-63015714D01*
X172460000Y-62872857D01*
X172507619Y-62825238D01*
X173126666Y-62444285D02*
X173126666Y-61968095D01*
X173412380Y-62539523D02*
X172412380Y-62206190D01*
X173412380Y-61872857D01*
X172412380Y-61634761D02*
X172412380Y-60968095D01*
X173412380Y-61396666D01*
X159982142Y-90400000D02*
X160029761Y-90447619D01*
X160077380Y-90590476D01*
X160077380Y-90685714D01*
X160029761Y-90828571D01*
X159934523Y-90923809D01*
X159839285Y-90971428D01*
X159648809Y-91019047D01*
X159505952Y-91019047D01*
X159315476Y-90971428D01*
X159220238Y-90923809D01*
X159125000Y-90828571D01*
X159077380Y-90685714D01*
X159077380Y-90590476D01*
X159125000Y-90447619D01*
X159172619Y-90400000D01*
X160172619Y-90209523D02*
X160172619Y-89447619D01*
X160077380Y-88685714D02*
X160077380Y-89257142D01*
X160077380Y-88971428D02*
X159077380Y-88971428D01*
X159220238Y-89066666D01*
X159315476Y-89161904D01*
X159363095Y-89257142D01*
X159077380Y-88066666D02*
X159077380Y-87971428D01*
X159125000Y-87876190D01*
X159172619Y-87828571D01*
X159267857Y-87780952D01*
X159458333Y-87733333D01*
X159696428Y-87733333D01*
X159886904Y-87780952D01*
X159982142Y-87828571D01*
X160029761Y-87876190D01*
X160077380Y-87971428D01*
X160077380Y-88066666D01*
X160029761Y-88161904D01*
X159982142Y-88209523D01*
X159886904Y-88257142D01*
X159696428Y-88304761D01*
X159458333Y-88304761D01*
X159267857Y-88257142D01*
X159172619Y-88209523D01*
X159125000Y-88161904D01*
X159077380Y-88066666D01*
X159077380Y-87114285D02*
X159077380Y-87019047D01*
X159125000Y-86923809D01*
X159172619Y-86876190D01*
X159267857Y-86828571D01*
X159458333Y-86780952D01*
X159696428Y-86780952D01*
X159886904Y-86828571D01*
X159982142Y-86876190D01*
X160029761Y-86923809D01*
X160077380Y-87019047D01*
X160077380Y-87114285D01*
X160029761Y-87209523D01*
X159982142Y-87257142D01*
X159886904Y-87304761D01*
X159696428Y-87352380D01*
X159458333Y-87352380D01*
X159267857Y-87304761D01*
X159172619Y-87257142D01*
X159125000Y-87209523D01*
X159077380Y-87114285D01*
X175712380Y-100964761D02*
X175236190Y-101298095D01*
X175712380Y-101536190D02*
X174712380Y-101536190D01*
X174712380Y-101155238D01*
X174760000Y-101060000D01*
X174807619Y-101012380D01*
X174902857Y-100964761D01*
X175045714Y-100964761D01*
X175140952Y-101012380D01*
X175188571Y-101060000D01*
X175236190Y-101155238D01*
X175236190Y-101536190D01*
X175807619Y-100774285D02*
X175807619Y-100012380D01*
X175712380Y-99202857D02*
X175236190Y-99536190D01*
X175712380Y-99774285D02*
X174712380Y-99774285D01*
X174712380Y-99393333D01*
X174760000Y-99298095D01*
X174807619Y-99250476D01*
X174902857Y-99202857D01*
X175045714Y-99202857D01*
X175140952Y-99250476D01*
X175188571Y-99298095D01*
X175236190Y-99393333D01*
X175236190Y-99774285D01*
X174712380Y-98869523D02*
X175712380Y-98202857D01*
X174712380Y-98202857D02*
X175712380Y-98869523D01*
X175807619Y-98060000D02*
X175807619Y-97298095D01*
X175712380Y-96536190D02*
X175712380Y-97107619D01*
X175712380Y-96821904D02*
X174712380Y-96821904D01*
X174855238Y-96917142D01*
X174950476Y-97012380D01*
X174998095Y-97107619D01*
G36*
X149860000Y-132080154D02*
G01*
X148752057Y-131341526D01*
X148752057Y-130547776D01*
X149280562Y-130547776D01*
X149886988Y-130236626D01*
X150439438Y-130539838D01*
X150439438Y-130349338D01*
X149931438Y-130077876D01*
X149931438Y-130074701D01*
X150439438Y-130074701D01*
X150439438Y-129896901D01*
X149280562Y-129896901D01*
X149280562Y-130074701D01*
X149836187Y-130074701D01*
X149836187Y-130077876D01*
X149280562Y-130355688D01*
X149280562Y-130547776D01*
X148752057Y-130547776D01*
X148752057Y-129703226D01*
X149280562Y-129703226D01*
X149418675Y-129703226D01*
X149418675Y-129333338D01*
X150439438Y-129333338D01*
X150439438Y-129155538D01*
X149280562Y-129155538D01*
X149280562Y-129703226D01*
X148752057Y-129703226D01*
X148752057Y-128684051D01*
X149264687Y-128684051D01*
X149274609Y-128790016D01*
X149304375Y-128885663D01*
X149450425Y-128885663D01*
X149413516Y-128795176D01*
X149401212Y-128711038D01*
X149414398Y-128633427D01*
X149453953Y-128569927D01*
X149519878Y-128520538D01*
X149612174Y-128485261D01*
X149730839Y-128464094D01*
X149875875Y-128457038D01*
X150010239Y-128463432D01*
X150120174Y-128482615D01*
X150205678Y-128514585D01*
X150266753Y-128559344D01*
X150303398Y-128616891D01*
X150315613Y-128687226D01*
X150309263Y-128723738D01*
X150061613Y-128723738D01*
X150061613Y-128893601D01*
X150420388Y-128893601D01*
X150446581Y-128792398D01*
X150455313Y-128679288D01*
X150446259Y-128586271D01*
X150419098Y-128505656D01*
X150373829Y-128437443D01*
X150310453Y-128381632D01*
X150228970Y-128338224D01*
X150129379Y-128307218D01*
X150011681Y-128288615D01*
X149875875Y-128282413D01*
X149732628Y-128288689D01*
X149608480Y-128307516D01*
X149503433Y-128338894D01*
X149417484Y-128382823D01*
X149350636Y-128439303D01*
X149302887Y-128508334D01*
X149274237Y-128589917D01*
X149264687Y-128684051D01*
X148752057Y-128684051D01*
X148752057Y-127790288D01*
X149264687Y-127790288D01*
X149277387Y-127913161D01*
X149315487Y-128008728D01*
X149378987Y-128076991D01*
X149467887Y-128117948D01*
X149582187Y-128131601D01*
X149704822Y-128114535D01*
X149802850Y-128063338D01*
X149859471Y-128005306D01*
X149915033Y-127922227D01*
X149969538Y-127814101D01*
X150016986Y-127743545D01*
X150081015Y-127701212D01*
X150161625Y-127687101D01*
X150226713Y-127698213D01*
X150275925Y-127731551D01*
X150306881Y-127784335D01*
X150317200Y-127853788D01*
X150300134Y-127977216D01*
X150248938Y-128099851D01*
X150407688Y-128099851D01*
X150434146Y-128014479D01*
X150450021Y-127925579D01*
X150455313Y-127833151D01*
X150446493Y-127738342D01*
X150420035Y-127659231D01*
X150375938Y-127595820D01*
X150280688Y-127533312D01*
X150153688Y-127512476D01*
X150040975Y-127528946D01*
X149947313Y-127578357D01*
X149892279Y-127632949D01*
X149839362Y-127708885D01*
X149788562Y-127806163D01*
X149747684Y-127874227D01*
X149701250Y-127919670D01*
X149644894Y-127945268D01*
X149574250Y-127953801D01*
X149500233Y-127942688D01*
X149446456Y-127909351D01*
X149413714Y-127856170D01*
X149402800Y-127785526D01*
X149414265Y-127692569D01*
X149448661Y-127604198D01*
X149505987Y-127520413D01*
X149340887Y-127520413D01*
X149298554Y-127601905D01*
X149273154Y-127691863D01*
X149264687Y-127790288D01*
X148752057Y-127790288D01*
X148752057Y-126999846D01*
X150967943Y-126999846D01*
X150967943Y-131341526D01*
X149860000Y-132080154D01*
G37*
G36*
X157951488Y-87959627D02*
G01*
X157914181Y-88075514D01*
X157808613Y-88116789D01*
X157736778Y-88103891D01*
X157686375Y-88065195D01*
X157656609Y-87997925D01*
X157646688Y-87899302D01*
X157646688Y-87854852D01*
X157930850Y-87854852D01*
X157951488Y-87959627D01*
G37*
G36*
X157820320Y-88617844D02*
G01*
X157887194Y-88654158D01*
X157925889Y-88715078D01*
X157938788Y-88801002D01*
X157926088Y-88889902D01*
X157503813Y-88889902D01*
X157503813Y-88823227D01*
X157516909Y-88725595D01*
X157556200Y-88658127D01*
X157624066Y-88618836D01*
X157722888Y-88605739D01*
X157820320Y-88617844D01*
G37*
G36*
X157480000Y-84843056D02*
G01*
X158587943Y-85581684D01*
X158587943Y-90416944D01*
X156372057Y-90416944D01*
X156372057Y-89647139D01*
X157186312Y-89647139D01*
X157514925Y-89647139D01*
X157514925Y-89904314D01*
X157646688Y-89904314D01*
X157646688Y-89647139D01*
X157980062Y-89647139D01*
X157980062Y-89477277D01*
X157646688Y-89477277D01*
X157646688Y-89221689D01*
X157514925Y-89221689D01*
X157514925Y-89477277D01*
X157186312Y-89477277D01*
X157186312Y-89647139D01*
X156372057Y-89647139D01*
X156372057Y-88810527D01*
X156884687Y-88810527D01*
X156892625Y-88941495D01*
X156916437Y-89067702D01*
X158043563Y-89067702D01*
X158061201Y-88980213D01*
X158071785Y-88891313D01*
X158075313Y-88801002D01*
X158065611Y-88688466D01*
X158036507Y-88596391D01*
X157988000Y-88524777D01*
X157920090Y-88473624D01*
X157832778Y-88442932D01*
X157726063Y-88432702D01*
X157619700Y-88447981D01*
X157529213Y-88493820D01*
X157462934Y-88562678D01*
X157429200Y-88647014D01*
X157427612Y-88647014D01*
X157395069Y-88572600D01*
X157338712Y-88514458D01*
X157263306Y-88476953D01*
X157173612Y-88464452D01*
X157069599Y-88478295D01*
X156988700Y-88519824D01*
X156930915Y-88589039D01*
X156896244Y-88685940D01*
X156884687Y-88810527D01*
X156372057Y-88810527D01*
X156372057Y-87978677D01*
X157218062Y-87978677D01*
X157223707Y-88064049D01*
X157240640Y-88152949D01*
X157268862Y-88245377D01*
X157405387Y-88245377D01*
X157373637Y-88153302D01*
X157354587Y-88067577D01*
X157348237Y-87988202D01*
X157377606Y-87879458D01*
X157500638Y-87854852D01*
X157527625Y-87854852D01*
X157527625Y-87899302D01*
X157535651Y-88017570D01*
X157559728Y-88114143D01*
X157599856Y-88189020D01*
X157688161Y-88261053D01*
X157808613Y-88285064D01*
X157921325Y-88263831D01*
X158005463Y-88200133D01*
X158044268Y-88135663D01*
X158067551Y-88055494D01*
X158075313Y-87959627D01*
X158069668Y-87863142D01*
X158052735Y-87770538D01*
X158024513Y-87681814D01*
X157532388Y-87681814D01*
X157421262Y-87688605D01*
X157337654Y-87708978D01*
X157281562Y-87742933D01*
X157233937Y-87832428D01*
X157218062Y-87978677D01*
X156372057Y-87978677D01*
X156372057Y-87327802D01*
X156964062Y-87327802D01*
X157265687Y-87327802D01*
X157265687Y-87491314D01*
X157394275Y-87491314D01*
X157394275Y-87327802D01*
X157821313Y-87327802D01*
X157944344Y-87313713D01*
X158021338Y-87271445D01*
X158061819Y-87193063D01*
X158075313Y-87070627D01*
X158070550Y-86982917D01*
X158056263Y-86903939D01*
X157911800Y-86903939D01*
X157929659Y-86971805D01*
X157935613Y-87038877D01*
X157909419Y-87134127D01*
X157789563Y-87154764D01*
X157394275Y-87154764D01*
X157394275Y-86888064D01*
X157265687Y-86888064D01*
X157265687Y-87154764D01*
X156964062Y-87154764D01*
X156964062Y-87327802D01*
X156372057Y-87327802D01*
X156372057Y-86534052D01*
X156964062Y-86534052D01*
X157265687Y-86534052D01*
X157265687Y-86697564D01*
X157394275Y-86697564D01*
X157394275Y-86534052D01*
X157821313Y-86534052D01*
X157944344Y-86519963D01*
X158021338Y-86477695D01*
X158061819Y-86399313D01*
X158075313Y-86276877D01*
X158070550Y-86189167D01*
X158056263Y-86110189D01*
X157911800Y-86110189D01*
X157929659Y-86178055D01*
X157935613Y-86245127D01*
X157909419Y-86340377D01*
X157789563Y-86361014D01*
X157394275Y-86361014D01*
X157394275Y-86094314D01*
X157265687Y-86094314D01*
X157265687Y-86361014D01*
X156964062Y-86361014D01*
X156964062Y-86534052D01*
X156372057Y-86534052D01*
X156372057Y-85581684D01*
X157480000Y-84843056D01*
G37*
G36*
X157268267Y-88647014D02*
G01*
X157325219Y-88685114D01*
X157357961Y-88750202D01*
X157368875Y-88843864D01*
X157368875Y-88889902D01*
X157033912Y-88889902D01*
X157021212Y-88810527D01*
X157039381Y-88712631D01*
X157093885Y-88653893D01*
X157184725Y-88634314D01*
X157268267Y-88647014D01*
G37*
G36*
X154940000Y-85169221D02*
G01*
X156047943Y-85907849D01*
X156047943Y-90090779D01*
X153832057Y-90090779D01*
X153832057Y-89149524D01*
X154344687Y-89149524D01*
X154360386Y-89280493D01*
X154407482Y-89387649D01*
X154485975Y-89470993D01*
X154566838Y-89517874D01*
X154668141Y-89551360D01*
X154789882Y-89571452D01*
X154932062Y-89578149D01*
X155073449Y-89571948D01*
X155195984Y-89553344D01*
X155299668Y-89522339D01*
X155384500Y-89478930D01*
X155450480Y-89423120D01*
X155497609Y-89354907D01*
X155525887Y-89274292D01*
X155535313Y-89181274D01*
X155529139Y-89086377D01*
X155510618Y-88996419D01*
X155479750Y-88911399D01*
X154828875Y-88911399D01*
X154828875Y-89281287D01*
X154963813Y-89281287D01*
X154963813Y-89081262D01*
X155379738Y-89081262D01*
X155398788Y-89176512D01*
X155371800Y-89273349D01*
X155290838Y-89344787D01*
X155202996Y-89377419D01*
X155083404Y-89396998D01*
X154932062Y-89403524D01*
X154784160Y-89396645D01*
X154668537Y-89376007D01*
X154585194Y-89341612D01*
X154509589Y-89262634D01*
X154484387Y-89149524D01*
X154493912Y-89052290D01*
X154522487Y-88951087D01*
X154379612Y-88951087D01*
X154353419Y-89048321D01*
X154344687Y-89149524D01*
X153832057Y-89149524D01*
X153832057Y-88141462D01*
X154360562Y-88141462D01*
X154360562Y-88308149D01*
X155201938Y-88308149D01*
X155201938Y-88312912D01*
X154360562Y-88560562D01*
X154360562Y-88744712D01*
X155519438Y-88744712D01*
X155519438Y-88570087D01*
X154678062Y-88570087D01*
X154678062Y-88566912D01*
X155519438Y-88319262D01*
X155519438Y-88141462D01*
X154360562Y-88141462D01*
X153832057Y-88141462D01*
X153832057Y-87714424D01*
X154344687Y-87714424D01*
X154352625Y-87839440D01*
X154376437Y-87963662D01*
X155503563Y-87963662D01*
X155527375Y-87844202D01*
X155535313Y-87714424D01*
X155521620Y-87582662D01*
X155480544Y-87479474D01*
X155405733Y-87401091D01*
X155290838Y-87343743D01*
X155190119Y-87317726D01*
X155067882Y-87302115D01*
X154924125Y-87296912D01*
X154775743Y-87303014D01*
X154651273Y-87321319D01*
X154550715Y-87351829D01*
X154474069Y-87394543D01*
X154402190Y-87473477D01*
X154359063Y-87580104D01*
X154344687Y-87714424D01*
X153832057Y-87714424D01*
X153832057Y-85907849D01*
X154940000Y-85169221D01*
G37*
G36*
X155086226Y-87476387D02*
G01*
X155210581Y-87495702D01*
X155297188Y-87527893D01*
X155373388Y-87603498D01*
X155398788Y-87714424D01*
X155384500Y-87785862D01*
X154497087Y-87785862D01*
X154482800Y-87714424D01*
X154507406Y-87604490D01*
X154581225Y-87528687D01*
X154663069Y-87496055D01*
X154777369Y-87476476D01*
X154924125Y-87469949D01*
X155086226Y-87476387D01*
G37*
G36*
X153531755Y-126919875D02*
G01*
X153531755Y-131405621D01*
X152400000Y-132160125D01*
X151268245Y-131405621D01*
X151268245Y-129288425D01*
X151796750Y-129288425D01*
X151796750Y-129440825D01*
X153019125Y-129950413D01*
X153019125Y-129798013D01*
X151796750Y-129288425D01*
X151268245Y-129288425D01*
X151268245Y-128753438D01*
X151780875Y-128753438D01*
X151789929Y-128846455D01*
X151817090Y-128927071D01*
X151862358Y-128995284D01*
X151925734Y-129051094D01*
X152007218Y-129094502D01*
X152106809Y-129125508D01*
X152224507Y-129144112D01*
X152360312Y-129150313D01*
X152503560Y-129144037D01*
X152627707Y-129125211D01*
X152732755Y-129093833D01*
X152818703Y-129049903D01*
X152885552Y-128993423D01*
X152933301Y-128924392D01*
X152961950Y-128842809D01*
X152971500Y-128748675D01*
X152961578Y-128642710D01*
X152931813Y-128547063D01*
X152785763Y-128547063D01*
X152822672Y-128637550D01*
X152834975Y-128721688D01*
X152821790Y-128799299D01*
X152782235Y-128862799D01*
X152716309Y-128912188D01*
X152624014Y-128947466D01*
X152505348Y-128968632D01*
X152360312Y-128975688D01*
X152225948Y-128969294D01*
X152116014Y-128950111D01*
X152030509Y-128918141D01*
X151969435Y-128873382D01*
X151932790Y-128815835D01*
X151920575Y-128745500D01*
X151926925Y-128708988D01*
X152174575Y-128708988D01*
X152174575Y-128539125D01*
X151815800Y-128539125D01*
X151789606Y-128640328D01*
X151780875Y-128753438D01*
X151268245Y-128753438D01*
X151268245Y-128012075D01*
X151780875Y-128012075D01*
X151789694Y-128106884D01*
X151816153Y-128185995D01*
X151860250Y-128249407D01*
X151955500Y-128311914D01*
X152082500Y-128332750D01*
X152195212Y-128316280D01*
X152288875Y-128266869D01*
X152343908Y-128212277D01*
X152396825Y-128136341D01*
X152447625Y-128039063D01*
X152488503Y-127970999D01*
X152534938Y-127925557D01*
X152591294Y-127899958D01*
X152661938Y-127891425D01*
X152735955Y-127902538D01*
X152789731Y-127935875D01*
X152822473Y-127989057D01*
X152833388Y-128059700D01*
X152821922Y-128152657D01*
X152787526Y-128241028D01*
X152730200Y-128324813D01*
X152895300Y-128324813D01*
X152937633Y-128243321D01*
X152963033Y-128153363D01*
X152971500Y-128054938D01*
X152958800Y-127932065D01*
X152920700Y-127836498D01*
X152857200Y-127768235D01*
X152768300Y-127727278D01*
X152654000Y-127713625D01*
X152531366Y-127730691D01*
X152433338Y-127781888D01*
X152376717Y-127839920D01*
X152321154Y-127922999D01*
X152266650Y-128031125D01*
X152219201Y-128101681D01*
X152155172Y-128144014D01*
X152074562Y-128158125D01*
X152009475Y-128147013D01*
X151960262Y-128113675D01*
X151929306Y-128060891D01*
X151918987Y-127991438D01*
X151936053Y-127868010D01*
X151987250Y-127745375D01*
X151828500Y-127745375D01*
X151802042Y-127830748D01*
X151786167Y-127919648D01*
X151780875Y-128012075D01*
X151268245Y-128012075D01*
X151268245Y-126919875D01*
X153531755Y-126919875D01*
G37*
G36*
X148427943Y-126731558D02*
G01*
X148427943Y-131609813D01*
X147320000Y-132348442D01*
X146212057Y-131609813D01*
X146212057Y-129823876D01*
X146724687Y-129823876D01*
X146733741Y-129916893D01*
X146760902Y-129997509D01*
X146806171Y-130065722D01*
X146869547Y-130121532D01*
X146951030Y-130164940D01*
X147050621Y-130195946D01*
X147168319Y-130214550D01*
X147304125Y-130220751D01*
X147447372Y-130214475D01*
X147571520Y-130195649D01*
X147676567Y-130164271D01*
X147762516Y-130120341D01*
X147829364Y-130063861D01*
X147877113Y-129994830D01*
X147905763Y-129913247D01*
X147915313Y-129819113D01*
X147905391Y-129713148D01*
X147875625Y-129617501D01*
X147729575Y-129617501D01*
X147766484Y-129707988D01*
X147778788Y-129792126D01*
X147765602Y-129869737D01*
X147726047Y-129933237D01*
X147660122Y-129982626D01*
X147567826Y-130017904D01*
X147449161Y-130039070D01*
X147304125Y-130046126D01*
X147169761Y-130039732D01*
X147059826Y-130020549D01*
X146974322Y-129988579D01*
X146913247Y-129943820D01*
X146876602Y-129886273D01*
X146864387Y-129815938D01*
X146870737Y-129779426D01*
X147118387Y-129779426D01*
X147118387Y-129609563D01*
X146759612Y-129609563D01*
X146733419Y-129710766D01*
X146724687Y-129823876D01*
X146212057Y-129823876D01*
X146212057Y-129101563D01*
X146724687Y-129101563D01*
X146738181Y-129211895D01*
X146778662Y-129298413D01*
X146852084Y-129364096D01*
X146964400Y-129411920D01*
X147062472Y-129433527D01*
X147181006Y-129446492D01*
X147320000Y-129450813D01*
X147458994Y-129446492D01*
X147577528Y-129433527D01*
X147675600Y-129411920D01*
X147787916Y-129364096D01*
X147861338Y-129298413D01*
X147901819Y-129211895D01*
X147915313Y-129101563D01*
X147901819Y-128991232D01*
X147861338Y-128904713D01*
X147787916Y-128839031D01*
X147675600Y-128791207D01*
X147577528Y-128769599D01*
X147458994Y-128756635D01*
X147320000Y-128752313D01*
X147181006Y-128756635D01*
X147062472Y-128769599D01*
X146964400Y-128791207D01*
X146852084Y-128839031D01*
X146778662Y-128904713D01*
X146738181Y-128991232D01*
X146724687Y-129101563D01*
X146212057Y-129101563D01*
X146212057Y-128336388D01*
X146724687Y-128336388D01*
X146728215Y-128427758D01*
X146738799Y-128517716D01*
X146756437Y-128606263D01*
X147899438Y-128606263D01*
X147899438Y-128428463D01*
X147502563Y-128428463D01*
X147510500Y-128336388D01*
X147499917Y-128223235D01*
X147468167Y-128131424D01*
X147415250Y-128060957D01*
X147339226Y-128011127D01*
X147238156Y-127981229D01*
X147112037Y-127971263D01*
X146988124Y-127980965D01*
X146889435Y-128010069D01*
X146815969Y-128058576D01*
X146765257Y-128128249D01*
X146734830Y-128220854D01*
X146724687Y-128336388D01*
X146212057Y-128336388D01*
X146212057Y-127783938D01*
X146740562Y-127783938D01*
X146878675Y-127783938D01*
X146878675Y-127606138D01*
X147761325Y-127606138D01*
X147761325Y-127783938D01*
X147899438Y-127783938D01*
X147899438Y-127244188D01*
X147761325Y-127244188D01*
X147761325Y-127421988D01*
X146878675Y-127421988D01*
X146878675Y-127244188D01*
X146740562Y-127244188D01*
X146740562Y-127783938D01*
X146212057Y-127783938D01*
X146212057Y-126731558D01*
X148427943Y-126731558D01*
G37*
G36*
X147476369Y-128925351D02*
G01*
X147596225Y-128939638D01*
X147679569Y-128963451D01*
X147752792Y-129019410D01*
X147777200Y-129101563D01*
X147752792Y-129183716D01*
X147679569Y-129239676D01*
X147596225Y-129263488D01*
X147476369Y-129277776D01*
X147320000Y-129282538D01*
X147163631Y-129277776D01*
X147043775Y-129263488D01*
X146960431Y-129239676D01*
X146887208Y-129183716D01*
X146862800Y-129101563D01*
X146887208Y-129019410D01*
X146960431Y-128963451D01*
X147043775Y-128939638D01*
X147163631Y-128925351D01*
X147320000Y-128920588D01*
X147476369Y-128925351D01*
G37*
G36*
X147234077Y-128156009D02*
G01*
X147314444Y-128191132D01*
X147359092Y-128250862D01*
X147373975Y-128336388D01*
X147362863Y-128428463D01*
X146875500Y-128428463D01*
X146862800Y-128336388D01*
X146877484Y-128250862D01*
X146921537Y-128191132D01*
X146998531Y-128156009D01*
X147112037Y-128144301D01*
X147234077Y-128156009D01*
G37*
G36*
X143672057Y-127233715D02*
G01*
X144780000Y-126495087D01*
X145887943Y-127233715D01*
X145887943Y-131314913D01*
X143672057Y-131314913D01*
X143672057Y-130405408D01*
X144184687Y-130405408D01*
X144193741Y-130498426D01*
X144220902Y-130579041D01*
X144266171Y-130647254D01*
X144329547Y-130703064D01*
X144411030Y-130746472D01*
X144510621Y-130777478D01*
X144628319Y-130796082D01*
X144764125Y-130802283D01*
X144907372Y-130796007D01*
X145031520Y-130777181D01*
X145136567Y-130745803D01*
X145222516Y-130701874D01*
X145289364Y-130645393D01*
X145337113Y-130576362D01*
X145365763Y-130494779D01*
X145375313Y-130400645D01*
X145365391Y-130294680D01*
X145335625Y-130199033D01*
X145189575Y-130199033D01*
X145226484Y-130289520D01*
X145238788Y-130373658D01*
X145225602Y-130451269D01*
X145186047Y-130514769D01*
X145120122Y-130564158D01*
X145027826Y-130599436D01*
X144909161Y-130620602D01*
X144764125Y-130627658D01*
X144629761Y-130621264D01*
X144519826Y-130602082D01*
X144434322Y-130570111D01*
X144373247Y-130525352D01*
X144336602Y-130467806D01*
X144324387Y-130397470D01*
X144330737Y-130360958D01*
X144578387Y-130360958D01*
X144578387Y-130191095D01*
X144219612Y-130191095D01*
X144193419Y-130292299D01*
X144184687Y-130405408D01*
X143672057Y-130405408D01*
X143672057Y-129952970D01*
X144200562Y-129952970D01*
X144338675Y-129952970D01*
X144338675Y-129775170D01*
X145221325Y-129775170D01*
X145221325Y-129952970D01*
X145359438Y-129952970D01*
X145359438Y-129413220D01*
X145221325Y-129413220D01*
X145221325Y-129591020D01*
X144338675Y-129591020D01*
X144338675Y-129413220D01*
X144200562Y-129413220D01*
X144200562Y-129952970D01*
X143672057Y-129952970D01*
X143672057Y-128917920D01*
X144184687Y-128917920D01*
X144188215Y-129009290D01*
X144198799Y-129099248D01*
X144216437Y-129187795D01*
X145359438Y-129187795D01*
X145359438Y-129009995D01*
X144962563Y-129009995D01*
X144970500Y-128917920D01*
X144959917Y-128804767D01*
X144928167Y-128712957D01*
X144875250Y-128642489D01*
X144799226Y-128592659D01*
X144698156Y-128562761D01*
X144572037Y-128552795D01*
X144448124Y-128562497D01*
X144349435Y-128591601D01*
X144275969Y-128640108D01*
X144225257Y-128709782D01*
X144194830Y-128802386D01*
X144184687Y-128917920D01*
X143672057Y-128917920D01*
X143672057Y-128095595D01*
X144184687Y-128095595D01*
X144198181Y-128205927D01*
X144238662Y-128292445D01*
X144312084Y-128358128D01*
X144424400Y-128405952D01*
X144522472Y-128427559D01*
X144641006Y-128440524D01*
X144780000Y-128444845D01*
X144918994Y-128440524D01*
X145037528Y-128427559D01*
X145135600Y-128405952D01*
X145247916Y-128358128D01*
X145321338Y-128292445D01*
X145361819Y-128205927D01*
X145375313Y-128095595D01*
X145361819Y-127985264D01*
X145321338Y-127898745D01*
X145247916Y-127833063D01*
X145135600Y-127785239D01*
X145037528Y-127763632D01*
X144918994Y-127750667D01*
X144780000Y-127746345D01*
X144641006Y-127750667D01*
X144522472Y-127763632D01*
X144424400Y-127785239D01*
X144312084Y-127833063D01*
X144238662Y-127898745D01*
X144198181Y-127985264D01*
X144184687Y-128095595D01*
X143672057Y-128095595D01*
X143672057Y-127233715D01*
G37*
G36*
X144936369Y-127919383D02*
G01*
X145056225Y-127933670D01*
X145139569Y-127957483D01*
X145212792Y-128013442D01*
X145237200Y-128095595D01*
X145212792Y-128177749D01*
X145139569Y-128233708D01*
X145056225Y-128257520D01*
X144936369Y-128271808D01*
X144780000Y-128276570D01*
X144623631Y-128271808D01*
X144503775Y-128257520D01*
X144420431Y-128233708D01*
X144347208Y-128177749D01*
X144322800Y-128095595D01*
X144347208Y-128013442D01*
X144420431Y-127957483D01*
X144503775Y-127933670D01*
X144623631Y-127919383D01*
X144780000Y-127914620D01*
X144936369Y-127919383D01*
G37*
G36*
X144694077Y-128737541D02*
G01*
X144774444Y-128772664D01*
X144819092Y-128832394D01*
X144833975Y-128917920D01*
X144822863Y-129009995D01*
X144335500Y-129009995D01*
X144322800Y-128917920D01*
X144337484Y-128832394D01*
X144381537Y-128772664D01*
X144458531Y-128737541D01*
X144572037Y-128725833D01*
X144694077Y-128737541D01*
G37*
G36*
X155078245Y-128932869D02*
G01*
X155078245Y-127758252D01*
X155606750Y-127758252D01*
X155606750Y-127910652D01*
X156829125Y-128420239D01*
X156829125Y-128267839D01*
X155606750Y-127758252D01*
X155078245Y-127758252D01*
X155078245Y-127331214D01*
X155590875Y-127331214D01*
X155594403Y-127422584D01*
X155604986Y-127512542D01*
X155622625Y-127601089D01*
X156765625Y-127601089D01*
X156765625Y-127423289D01*
X156284613Y-127423289D01*
X156284613Y-127361377D01*
X156315569Y-127265333D01*
X156360217Y-127234972D01*
X156432250Y-127208977D01*
X156765625Y-127116902D01*
X156765625Y-126934339D01*
X156441775Y-127032764D01*
X156317156Y-127083564D01*
X156238575Y-127143889D01*
X156235400Y-127143889D01*
X156189958Y-127066102D01*
X156125069Y-127010539D01*
X156040733Y-126977202D01*
X155936950Y-126966089D01*
X155828030Y-126975879D01*
X155740453Y-127005248D01*
X155674219Y-127054195D01*
X155627917Y-127124134D01*
X155600135Y-127216473D01*
X155590875Y-127331214D01*
X155078245Y-127331214D01*
X155078245Y-126775589D01*
X155606750Y-126775589D01*
X156765625Y-126775589D01*
X156765625Y-126219964D01*
X156627513Y-126219964D01*
X156627513Y-126597789D01*
X156210000Y-126597789D01*
X156210000Y-126235839D01*
X156075062Y-126235839D01*
X156075062Y-126597789D01*
X155744862Y-126597789D01*
X155744862Y-126219964D01*
X155606750Y-126219964D01*
X155606750Y-126775589D01*
X155078245Y-126775589D01*
X155078245Y-125688152D01*
X155590875Y-125688152D01*
X155599694Y-125782961D01*
X155626153Y-125862071D01*
X155670250Y-125925483D01*
X155765500Y-125987991D01*
X155892500Y-126008827D01*
X156005212Y-125992356D01*
X156098875Y-125942945D01*
X156153908Y-125888353D01*
X156206825Y-125812418D01*
X156257625Y-125715139D01*
X156298503Y-125647075D01*
X156344938Y-125601633D01*
X156401294Y-125576035D01*
X156471938Y-125567502D01*
X156545955Y-125578614D01*
X156599731Y-125611952D01*
X156632473Y-125665133D01*
X156643388Y-125735777D01*
X156631922Y-125828734D01*
X156597526Y-125917105D01*
X156540200Y-126000889D01*
X156705300Y-126000889D01*
X156747633Y-125919398D01*
X156773033Y-125829439D01*
X156781500Y-125731014D01*
X156768800Y-125608142D01*
X156730700Y-125512574D01*
X156667200Y-125444312D01*
X156578300Y-125403354D01*
X156464000Y-125389702D01*
X156341366Y-125406767D01*
X156243338Y-125457964D01*
X156186717Y-125515996D01*
X156131154Y-125599075D01*
X156076650Y-125707202D01*
X156029201Y-125777757D01*
X155965172Y-125820091D01*
X155884562Y-125834202D01*
X155819475Y-125823089D01*
X155770262Y-125789752D01*
X155739306Y-125736967D01*
X155728987Y-125667514D01*
X155746053Y-125544086D01*
X155797250Y-125421452D01*
X155638500Y-125421452D01*
X155612042Y-125506824D01*
X155596167Y-125595724D01*
X155590875Y-125688152D01*
X155078245Y-125688152D01*
X155078245Y-125188089D01*
X155606750Y-125188089D01*
X156765625Y-125188089D01*
X156765625Y-124632464D01*
X156627513Y-124632464D01*
X156627513Y-125010289D01*
X156210000Y-125010289D01*
X156210000Y-124648339D01*
X156075062Y-124648339D01*
X156075062Y-125010289D01*
X155744862Y-125010289D01*
X155744862Y-124632464D01*
X155606750Y-124632464D01*
X155606750Y-125188089D01*
X155078245Y-125188089D01*
X155078245Y-124445139D01*
X155606750Y-124445139D01*
X155744862Y-124445139D01*
X155744862Y-124208602D01*
X156765625Y-124208602D01*
X156765625Y-124030802D01*
X155744862Y-124030802D01*
X155744862Y-123794264D01*
X155606750Y-123794264D01*
X155606750Y-124445139D01*
X155078245Y-124445139D01*
X155078245Y-123281634D01*
X156210000Y-122527131D01*
X157341755Y-123281634D01*
X157341755Y-128932869D01*
X155078245Y-128932869D01*
G37*
G36*
X156034581Y-127151827D02*
G01*
X156098875Y-127189927D01*
X156134594Y-127258189D01*
X156146500Y-127361377D01*
X156146500Y-127423289D01*
X155741687Y-127423289D01*
X155728987Y-127331214D01*
X155741489Y-127246680D01*
X155778994Y-127186752D01*
X155843486Y-127151033D01*
X155936950Y-127139127D01*
X156034581Y-127151827D01*
G37*
G36*
X147320000Y-102309965D02*
G01*
X146037432Y-101454920D01*
X146037432Y-100621615D01*
X146565937Y-100621615D01*
X146574757Y-100716424D01*
X146601215Y-100795534D01*
X146645312Y-100858946D01*
X146740562Y-100921454D01*
X146867562Y-100942290D01*
X146980275Y-100925820D01*
X147073937Y-100876409D01*
X147128971Y-100821816D01*
X147181887Y-100745881D01*
X147232687Y-100648602D01*
X147273566Y-100580538D01*
X147320000Y-100535096D01*
X147376356Y-100509498D01*
X147447000Y-100500965D01*
X147521017Y-100512077D01*
X147574794Y-100545415D01*
X147607536Y-100598596D01*
X147618450Y-100669240D01*
X147606985Y-100762197D01*
X147572589Y-100850568D01*
X147515263Y-100934352D01*
X147680363Y-100934352D01*
X147722696Y-100852861D01*
X147748096Y-100762902D01*
X147756563Y-100664477D01*
X147743863Y-100541605D01*
X147705763Y-100446037D01*
X147642263Y-100377775D01*
X147553363Y-100336817D01*
X147439063Y-100323165D01*
X147316428Y-100340231D01*
X147218400Y-100391427D01*
X147161779Y-100449459D01*
X147106217Y-100532539D01*
X147051712Y-100640665D01*
X147004264Y-100711220D01*
X146940235Y-100753554D01*
X146859625Y-100767665D01*
X146794537Y-100756552D01*
X146745325Y-100723215D01*
X146714369Y-100670431D01*
X146704050Y-100600977D01*
X146721116Y-100477549D01*
X146772312Y-100354915D01*
X146613562Y-100354915D01*
X146587104Y-100440287D01*
X146571229Y-100529187D01*
X146565937Y-100621615D01*
X146037432Y-100621615D01*
X146037432Y-99489727D01*
X146915187Y-99489727D01*
X146915187Y-99670702D01*
X147518438Y-99835802D01*
X147518438Y-99838977D01*
X146915187Y-100015190D01*
X146915187Y-100188227D01*
X147724813Y-99913590D01*
X148089938Y-100043765D01*
X148089938Y-99869140D01*
X146915187Y-99489727D01*
X146037432Y-99489727D01*
X146037432Y-99046815D01*
X146899312Y-99046815D01*
X146914195Y-99176196D01*
X146958844Y-99269065D01*
X147031273Y-99325024D01*
X147129500Y-99343677D01*
X147220980Y-99327802D01*
X147292219Y-99280177D01*
X147347583Y-99194849D01*
X147391438Y-99065865D01*
X147439063Y-98961090D01*
X147518438Y-98932515D01*
X147601781Y-98969027D01*
X147627975Y-99089677D01*
X147612497Y-99209137D01*
X147566063Y-99335740D01*
X147705763Y-99335740D01*
X147733985Y-99251073D01*
X147750918Y-99160057D01*
X147756563Y-99062690D01*
X147741084Y-98933110D01*
X147694650Y-98836471D01*
X147619641Y-98776345D01*
X147518438Y-98756302D01*
X147416838Y-98771582D01*
X147343813Y-98817421D01*
X147289837Y-98905329D01*
X147245387Y-99046815D01*
X147200937Y-99141271D01*
X147129500Y-99169052D01*
X147052109Y-99134524D01*
X147026312Y-99030940D01*
X147036234Y-98910290D01*
X147066000Y-98783290D01*
X146934237Y-98783290D01*
X146914835Y-98866193D01*
X146903193Y-98954034D01*
X146899312Y-99046815D01*
X146037432Y-99046815D01*
X146037432Y-98187977D01*
X146565937Y-98187977D01*
X146574991Y-98280995D01*
X146602152Y-98361610D01*
X146647421Y-98429823D01*
X146710797Y-98485634D01*
X146792280Y-98529042D01*
X146891871Y-98560048D01*
X147009569Y-98578651D01*
X147145375Y-98584852D01*
X147288622Y-98578577D01*
X147412770Y-98559750D01*
X147517817Y-98528372D01*
X147603766Y-98484443D01*
X147670614Y-98427963D01*
X147718363Y-98358931D01*
X147747013Y-98277349D01*
X147756563Y-98183215D01*
X147746641Y-98077249D01*
X147716875Y-97981602D01*
X147570825Y-97981602D01*
X147607734Y-98072090D01*
X147620038Y-98156227D01*
X147606852Y-98233839D01*
X147567297Y-98297339D01*
X147501372Y-98346727D01*
X147409076Y-98382005D01*
X147290411Y-98403172D01*
X147145375Y-98410227D01*
X147011011Y-98403833D01*
X146901076Y-98384651D01*
X146815572Y-98352681D01*
X146754497Y-98307922D01*
X146717852Y-98250375D01*
X146705637Y-98180040D01*
X146711987Y-98143527D01*
X146959637Y-98143527D01*
X146959637Y-97973665D01*
X146600862Y-97973665D01*
X146574669Y-98074868D01*
X146565937Y-98187977D01*
X146037432Y-98187977D01*
X146037432Y-97775227D01*
X146581812Y-97775227D01*
X146710400Y-97775227D01*
X146710400Y-97562502D01*
X147740688Y-97562502D01*
X147740688Y-97171977D01*
X147612100Y-97171977D01*
X147612100Y-97384702D01*
X146581812Y-97384702D01*
X146581812Y-97775227D01*
X146037432Y-97775227D01*
X146037432Y-96965602D01*
X146550062Y-96965602D01*
X147740688Y-96965602D01*
X147740688Y-96790977D01*
X147380325Y-96790977D01*
X147740688Y-96527452D01*
X147740688Y-96322665D01*
X147312062Y-96652865D01*
X146915187Y-96322665D01*
X146915187Y-96524277D01*
X147248562Y-96790977D01*
X146550062Y-96790977D01*
X146550062Y-96965602D01*
X146037432Y-96965602D01*
X146037432Y-95810035D01*
X148602568Y-95810035D01*
X148602568Y-101454920D01*
X147320000Y-102309965D01*
G37*
D11*
X163740000Y-62941252D02*
X163740000Y-61518748D01*
X166460000Y-62941252D02*
X166460000Y-61518748D01*
X177880000Y-117795000D02*
X177880000Y-120965000D01*
X177880000Y-120965000D02*
X181940000Y-120965000D01*
X181940000Y-117795000D02*
X177880000Y-117795000D01*
X170095000Y-104686263D02*
X170095000Y-106133737D01*
X172805000Y-104686263D02*
X172805000Y-106133737D01*
X138340000Y-62941252D02*
X138340000Y-61518748D01*
X141060000Y-62941252D02*
X141060000Y-61518748D01*
X168820000Y-62941252D02*
X168820000Y-61518748D01*
X171540000Y-62941252D02*
X171540000Y-61518748D01*
X138176000Y-70104000D02*
X141224000Y-70104000D01*
X141224000Y-70104000D02*
X141224000Y-110236000D01*
X141224000Y-110236000D02*
X138176000Y-110236000D01*
X138176000Y-110236000D02*
X138176000Y-70104000D01*
X184404000Y-110236000D02*
X181356000Y-110236000D01*
X181356000Y-110236000D02*
X181356000Y-70104000D01*
X181356000Y-70104000D02*
X184404000Y-70104000D01*
X184404000Y-70104000D02*
X184404000Y-110236000D01*
X141224000Y-70104000D02*
X143256000Y-70104000D01*
X143256000Y-70104000D02*
X143256000Y-74676000D01*
X143256000Y-74676000D02*
X141224000Y-74676000D01*
X141224000Y-74676000D02*
X141224000Y-70104000D01*
X181356000Y-70104000D02*
X141224000Y-70104000D01*
X141224000Y-70104000D02*
X141224000Y-67056000D01*
X141224000Y-67056000D02*
X181356000Y-67056000D01*
X181356000Y-67056000D02*
X181356000Y-70104000D01*
X141224000Y-110236000D02*
X181356000Y-110236000D01*
X181356000Y-110236000D02*
X181356000Y-113284000D01*
X181356000Y-113284000D02*
X141224000Y-113284000D01*
X141224000Y-113284000D02*
X141224000Y-110236000D01*
X179250000Y-91900000D02*
X179250000Y-85900000D01*
X166190000Y-93900000D02*
X166190000Y-88900000D01*
X160731252Y-96610000D02*
X159308748Y-96610000D01*
X160731252Y-93890000D02*
X159308748Y-93890000D01*
X148500000Y-62941252D02*
X148500000Y-61518748D01*
X151220000Y-62941252D02*
X151220000Y-61518748D01*
X154880000Y-100620000D02*
X154880000Y-105120000D01*
X165160000Y-100620000D02*
X154880000Y-100620000D01*
X165160000Y-105120000D02*
X165160000Y-103870000D01*
X165160000Y-101870000D02*
X165160000Y-100620000D01*
X154820000Y-108120000D02*
X165220000Y-108120000D01*
X154880000Y-105120000D02*
X165160000Y-105120000D01*
X165220000Y-108120000D02*
X165220000Y-97620000D01*
X154820000Y-97620000D02*
X154820000Y-108120000D01*
X165220000Y-97620000D02*
X154820000Y-97620000D01*
X165160000Y-101870000D02*
G75*
G03*
X165160000Y-103870000I0J-1000000D01*
G01*
X141285000Y-119460000D02*
X138115000Y-119460000D01*
X138115000Y-119460000D02*
X138115000Y-123520000D01*
X141285000Y-123520000D02*
X141285000Y-119460000D01*
X163825000Y-54409000D02*
X163872000Y-54363000D01*
X171214000Y-52101000D02*
X171249000Y-52066000D01*
X176294000Y-52101000D02*
X176329000Y-52066000D01*
X155974000Y-52101000D02*
X156009000Y-52066000D01*
X188020000Y-58601000D02*
X188020000Y-48680000D01*
X150894000Y-52101000D02*
X150929000Y-52066000D01*
X171407000Y-52317000D02*
X171454000Y-52271000D01*
X140927000Y-52317000D02*
X140974000Y-52271000D01*
X188020000Y-55641000D02*
X137100000Y-55641000D01*
X188020000Y-48680000D02*
X137100000Y-48680000D01*
X158745000Y-54409000D02*
X158792000Y-54363000D01*
X168905000Y-54409000D02*
X168952000Y-54363000D01*
X153665000Y-54409000D02*
X153712000Y-54363000D01*
X169110000Y-54615000D02*
X169145000Y-54579000D01*
X181567000Y-52317000D02*
X181614000Y-52271000D01*
X179270000Y-54615000D02*
X179305000Y-54579000D01*
X148585000Y-54409000D02*
X148632000Y-54363000D01*
X138630000Y-54615000D02*
X138665000Y-54579000D01*
X158950000Y-54615000D02*
X158985000Y-54579000D01*
X161247000Y-52317000D02*
X161294000Y-52271000D01*
X166134000Y-52101000D02*
X166169000Y-52066000D01*
X145814000Y-52101000D02*
X145849000Y-52066000D01*
X188020000Y-49240000D02*
X137100000Y-49240000D01*
X188020000Y-58601000D02*
X137100000Y-58601000D01*
X143505000Y-54409000D02*
X143552000Y-54363000D01*
X153870000Y-54615000D02*
X153905000Y-54579000D01*
X166327000Y-52317000D02*
X166374000Y-52271000D01*
X143710000Y-54615000D02*
X143745000Y-54579000D01*
X174190000Y-54615000D02*
X174225000Y-54579000D01*
X173985000Y-54409000D02*
X174032000Y-54363000D01*
X188260000Y-48440000D02*
X187760000Y-48440000D01*
X181374000Y-52101000D02*
X181409000Y-52066000D01*
X179065000Y-54409000D02*
X179112000Y-54363000D01*
X161054000Y-52101000D02*
X161089000Y-52066000D01*
X164030000Y-54615000D02*
X164065000Y-54579000D01*
X140734000Y-52101000D02*
X140769000Y-52066000D01*
X138425000Y-54409000D02*
X138472000Y-54363000D01*
X137100000Y-58601000D02*
X137100000Y-48680000D01*
X146007000Y-52317000D02*
X146054000Y-52271000D01*
X188260000Y-49180000D02*
X188260000Y-48440000D01*
X148790000Y-54615000D02*
X148825000Y-54579000D01*
X156167000Y-52317000D02*
X156214000Y-52271000D01*
X188020000Y-50740000D02*
X137100000Y-50740000D01*
X151087000Y-52317000D02*
X151134000Y-52271000D01*
X176487000Y-52317000D02*
X176534000Y-52271000D01*
X186104000Y-51805000D02*
G75*
G03*
X185391195Y-51659747I-683999J-1535001D01*
G01*
X183884999Y-52656000D02*
G75*
G03*
X183884573Y-54023042I1535001J-684000D01*
G01*
X185420000Y-51660000D02*
G75*
G03*
X184736682Y-51805244I0J-1680000D01*
G01*
X184736000Y-54875000D02*
G75*
G03*
X186103042Y-54875427I684001J1534993D01*
G01*
X186955000Y-54024000D02*
G75*
G03*
X186955427Y-52656958I-1534993J684001D01*
G01*
X166780000Y-53340000D02*
G75*
G03*
X166780000Y-53340000I-1680000J0D01*
G01*
X182020000Y-53340000D02*
G75*
G03*
X182020000Y-53340000I-1680000J0D01*
G01*
X141380000Y-53340000D02*
G75*
G03*
X141380000Y-53340000I-1680000J0D01*
G01*
X161700000Y-53340000D02*
G75*
G03*
X161700000Y-53340000I-1680000J0D01*
G01*
X151540000Y-53340000D02*
G75*
G03*
X151540000Y-53340000I-1680000J0D01*
G01*
X146460000Y-53340000D02*
G75*
G03*
X146460000Y-53340000I-1680000J0D01*
G01*
X171860000Y-53340000D02*
G75*
G03*
X171860000Y-53340000I-1680000J0D01*
G01*
X176940000Y-53340000D02*
G75*
G03*
X176940000Y-53340000I-1680000J0D01*
G01*
X156620000Y-53340000D02*
G75*
G03*
X156620000Y-53340000I-1680000J0D01*
G01*
X158660000Y-62941252D02*
X158660000Y-61518748D01*
X161380000Y-62941252D02*
X161380000Y-61518748D01*
X146135000Y-93433737D02*
X146135000Y-91986263D01*
X143425000Y-93433737D02*
X143425000Y-91986263D01*
X163350000Y-125080000D02*
X164120000Y-125080000D01*
X159230000Y-124520000D02*
X163350000Y-124520000D01*
X164120000Y-118760000D02*
X164120000Y-125080000D01*
X158460000Y-124520000D02*
X159230000Y-124520000D01*
X158460000Y-119220000D02*
X164120000Y-119220000D01*
X158460000Y-118760000D02*
X164120000Y-118760000D01*
X159230000Y-125080000D02*
X163350000Y-125080000D01*
X158220000Y-125320000D02*
X158720000Y-125320000D01*
X163350000Y-124520000D02*
X164120000Y-124520000D01*
X158460000Y-125080000D02*
X159230000Y-125080000D01*
X158460000Y-118760000D02*
X158460000Y-125080000D01*
X158220000Y-124580000D02*
X158220000Y-125320000D01*
X153580000Y-62941252D02*
X153580000Y-61518748D01*
X156300000Y-62941252D02*
X156300000Y-61518748D01*
X178980000Y-62941252D02*
X178980000Y-61518748D01*
X181700000Y-62941252D02*
X181700000Y-61518748D01*
X128301000Y-113266000D02*
X128266000Y-113231000D01*
X128301000Y-118346000D02*
X128266000Y-118311000D01*
X130609000Y-100335000D02*
X130563000Y-100288000D01*
X130609000Y-105415000D02*
X130563000Y-105368000D01*
X134801000Y-121980000D02*
X124880000Y-121980000D01*
X124640000Y-91140000D02*
X124640000Y-91640000D01*
X134801000Y-91380000D02*
X124880000Y-91380000D01*
X128517000Y-97833000D02*
X128471000Y-97786000D01*
X130815000Y-120450000D02*
X130779000Y-120415000D01*
X124880000Y-91380000D02*
X124880000Y-121980000D01*
X125440000Y-91380000D02*
X125440000Y-121980000D01*
X128517000Y-102913000D02*
X128471000Y-102866000D01*
X128301000Y-108186000D02*
X128266000Y-108151000D01*
X131841000Y-91380000D02*
X131841000Y-121980000D01*
X126940000Y-91380000D02*
X126940000Y-121980000D01*
X130609000Y-120655000D02*
X130563000Y-120608000D01*
X130609000Y-115575000D02*
X130563000Y-115528000D01*
X128301000Y-103106000D02*
X128266000Y-103071000D01*
X130815000Y-105210000D02*
X130779000Y-105175000D01*
X130815000Y-100130000D02*
X130779000Y-100095000D01*
X128301000Y-98026000D02*
X128266000Y-97991000D01*
X128517000Y-118153000D02*
X128471000Y-118106000D01*
X130815000Y-115370000D02*
X130779000Y-115335000D01*
X130815000Y-110290000D02*
X130779000Y-110255000D01*
X130609000Y-110495000D02*
X130563000Y-110448000D01*
X125380000Y-91140000D02*
X124640000Y-91140000D01*
X128517000Y-107993000D02*
X128471000Y-107946000D01*
X134801000Y-91380000D02*
X134801000Y-121980000D01*
X128517000Y-113073000D02*
X128471000Y-113026000D01*
X128856000Y-95515001D02*
G75*
G03*
X130223042Y-95515427I684000J1535001D01*
G01*
X128005000Y-93296000D02*
G75*
G03*
X127859747Y-94008805I1535001J-683999D01*
G01*
X131075000Y-94664000D02*
G75*
G03*
X131075427Y-93296958I-1534993J684001D01*
G01*
X127860000Y-93980000D02*
G75*
G03*
X128005244Y-94663318I1680000J0D01*
G01*
X130224000Y-92445000D02*
G75*
G03*
X128856958Y-92444573I-684001J-1534993D01*
G01*
X131220000Y-104140000D02*
G75*
G03*
X131220000Y-104140000I-1680000J0D01*
G01*
X131220000Y-99060000D02*
G75*
G03*
X131220000Y-99060000I-1680000J0D01*
G01*
X131220000Y-114300000D02*
G75*
G03*
X131220000Y-114300000I-1680000J0D01*
G01*
X131220000Y-119380000D02*
G75*
G03*
X131220000Y-119380000I-1680000J0D01*
G01*
X131220000Y-109220000D02*
G75*
G03*
X131220000Y-109220000I-1680000J0D01*
G01*
X143420000Y-62941252D02*
X143420000Y-61518748D01*
X146140000Y-62941252D02*
X146140000Y-61518748D01*
X143220000Y-119220000D02*
X153960000Y-119220000D01*
X153960000Y-118760000D02*
X153960000Y-125080000D01*
X143220000Y-124520000D02*
X153960000Y-124520000D01*
X143220000Y-125080000D02*
X153960000Y-125080000D01*
X142980000Y-124580000D02*
X142980000Y-125320000D01*
X143220000Y-118760000D02*
X143220000Y-125080000D01*
X142980000Y-125320000D02*
X143480000Y-125320000D01*
X143220000Y-118760000D02*
X153960000Y-118760000D01*
X166285000Y-104686263D02*
X166285000Y-106133737D01*
X168995000Y-104686263D02*
X168995000Y-106133737D01*
X194370000Y-73600000D02*
X194370000Y-74930000D01*
X191770000Y-76200000D02*
X194370000Y-76200000D01*
X194370000Y-76200000D02*
X194370000Y-106740000D01*
X189170000Y-73600000D02*
X189170000Y-106740000D01*
X189170000Y-106740000D02*
X194370000Y-106740000D01*
X191770000Y-73600000D02*
X191770000Y-76200000D01*
X193040000Y-73600000D02*
X194370000Y-73600000D01*
X189170000Y-73600000D02*
X191770000Y-73600000D01*
X173900000Y-62941252D02*
X173900000Y-61518748D01*
X176620000Y-62941252D02*
X176620000Y-61518748D01*
X160565000Y-89611252D02*
X160565000Y-88188748D01*
X163285000Y-89611252D02*
X163285000Y-88188748D01*
X173510000Y-125080000D02*
X174280000Y-125080000D01*
X169390000Y-124520000D02*
X173510000Y-124520000D01*
X174280000Y-118760000D02*
X174280000Y-125080000D01*
X168620000Y-124520000D02*
X169390000Y-124520000D01*
X168620000Y-119220000D02*
X174280000Y-119220000D01*
X168620000Y-118760000D02*
X174280000Y-118760000D01*
X169390000Y-125080000D02*
X173510000Y-125080000D01*
X168380000Y-125320000D02*
X168880000Y-125320000D01*
X173510000Y-124520000D02*
X174280000Y-124520000D01*
X168620000Y-125080000D02*
X169390000Y-125080000D01*
X168620000Y-118760000D02*
X168620000Y-125080000D01*
X168380000Y-124580000D02*
X168380000Y-125320000D01*
X173905000Y-104686263D02*
X173905000Y-106133737D01*
X176615000Y-104686263D02*
X176615000Y-106133737D01*
X128301000Y-80246000D02*
X128266000Y-80211000D01*
X128301000Y-85326000D02*
X128266000Y-85291000D01*
X130609000Y-67315000D02*
X130563000Y-67268000D01*
X130609000Y-72395000D02*
X130563000Y-72348000D01*
X134801000Y-88960000D02*
X124880000Y-88960000D01*
X124640000Y-58120000D02*
X124640000Y-58620000D01*
X134801000Y-58360000D02*
X124880000Y-58360000D01*
X128517000Y-64813000D02*
X128471000Y-64766000D01*
X130815000Y-87430000D02*
X130779000Y-87395000D01*
X124880000Y-58360000D02*
X124880000Y-88960000D01*
X125440000Y-58360000D02*
X125440000Y-88960000D01*
X128517000Y-69893000D02*
X128471000Y-69846000D01*
X128301000Y-75166000D02*
X128266000Y-75131000D01*
X131841000Y-58360000D02*
X131841000Y-88960000D01*
X126940000Y-58360000D02*
X126940000Y-88960000D01*
X130609000Y-87635000D02*
X130563000Y-87588000D01*
X130609000Y-82555000D02*
X130563000Y-82508000D01*
X128301000Y-70086000D02*
X128266000Y-70051000D01*
X130815000Y-72190000D02*
X130779000Y-72155000D01*
X130815000Y-67110000D02*
X130779000Y-67075000D01*
X128301000Y-65006000D02*
X128266000Y-64971000D01*
X128517000Y-85133000D02*
X128471000Y-85086000D01*
X130815000Y-82350000D02*
X130779000Y-82315000D01*
X130815000Y-77270000D02*
X130779000Y-77235000D01*
X130609000Y-77475000D02*
X130563000Y-77428000D01*
X125380000Y-58120000D02*
X124640000Y-58120000D01*
X128517000Y-74973000D02*
X128471000Y-74926000D01*
X134801000Y-58360000D02*
X134801000Y-88960000D01*
X128517000Y-80053000D02*
X128471000Y-80006000D01*
X128856000Y-62495001D02*
G75*
G03*
X130223042Y-62495427I684000J1535001D01*
G01*
X128005000Y-60276000D02*
G75*
G03*
X127859747Y-60988805I1535001J-683999D01*
G01*
X131075000Y-61644000D02*
G75*
G03*
X131075427Y-60276958I-1534993J684001D01*
G01*
X127860000Y-60960000D02*
G75*
G03*
X128005244Y-61643318I1680000J0D01*
G01*
X130224000Y-59425000D02*
G75*
G03*
X128856958Y-59424573I-684001J-1534993D01*
G01*
X131220000Y-71120000D02*
G75*
G03*
X131220000Y-71120000I-1680000J0D01*
G01*
X131220000Y-66040000D02*
G75*
G03*
X131220000Y-66040000I-1680000J0D01*
G01*
X131220000Y-81280000D02*
G75*
G03*
X131220000Y-81280000I-1680000J0D01*
G01*
X131220000Y-86360000D02*
G75*
G03*
X131220000Y-86360000I-1680000J0D01*
G01*
X131220000Y-76200000D02*
G75*
G03*
X131220000Y-76200000I-1680000J0D01*
G01*
X158270000Y-84440000D02*
X159040000Y-84440000D01*
X154150000Y-83880000D02*
X158270000Y-83880000D01*
X159040000Y-78120000D02*
X159040000Y-84440000D01*
X153380000Y-83880000D02*
X154150000Y-83880000D01*
X153380000Y-78580000D02*
X159040000Y-78580000D01*
X153380000Y-78120000D02*
X159040000Y-78120000D01*
X154150000Y-84440000D02*
X158270000Y-84440000D01*
X153140000Y-84680000D02*
X153640000Y-84680000D01*
X158270000Y-83880000D02*
X159040000Y-83880000D01*
X153380000Y-84440000D02*
X154150000Y-84440000D01*
X153380000Y-78120000D02*
X153380000Y-84440000D01*
X153140000Y-83940000D02*
X153140000Y-84680000D01*
X177880000Y-122875000D02*
X177880000Y-126045000D01*
X177880000Y-126045000D02*
X181940000Y-126045000D01*
X181940000Y-122875000D02*
X177880000Y-122875000D01*
G36*
X187562728Y-124027406D02*
G01*
X187638531Y-124101225D01*
X187671163Y-124183069D01*
X187690742Y-124297369D01*
X187697269Y-124444125D01*
X187690831Y-124606226D01*
X187671516Y-124730581D01*
X187639325Y-124817188D01*
X187563720Y-124893388D01*
X187452794Y-124918788D01*
X187381356Y-124904500D01*
X187381356Y-124017087D01*
X187452794Y-124002800D01*
X187562728Y-124027406D01*
G37*
G36*
X184506923Y-123352057D02*
G01*
X190748311Y-123352057D01*
X191413077Y-125567943D01*
X185171689Y-125567943D01*
X185013137Y-125039438D01*
X185684319Y-125039438D01*
X186232006Y-125039438D01*
X186449494Y-125039438D01*
X187005119Y-125039438D01*
X187005119Y-125023563D01*
X187203556Y-125023563D01*
X187323016Y-125047375D01*
X187452794Y-125055313D01*
X187584556Y-125041620D01*
X187687744Y-125000544D01*
X187766127Y-124925733D01*
X187823475Y-124810838D01*
X187849492Y-124710119D01*
X187865103Y-124587882D01*
X187870306Y-124444125D01*
X187864204Y-124295743D01*
X187845898Y-124171273D01*
X187815389Y-124070715D01*
X187786388Y-124018675D01*
X188779944Y-124018675D01*
X189016481Y-124018675D01*
X189016481Y-125039438D01*
X189194281Y-125039438D01*
X189560994Y-125039438D01*
X189748319Y-125039438D01*
X189892781Y-124575888D01*
X189895956Y-124575888D01*
X190042006Y-125039438D01*
X190235681Y-125039438D01*
X190010256Y-124448887D01*
X190232506Y-123880562D01*
X190048356Y-123880562D01*
X189902306Y-124325062D01*
X189899131Y-124325062D01*
X189754669Y-123880562D01*
X189565756Y-123880562D01*
X189788006Y-124448887D01*
X189560994Y-125039438D01*
X189194281Y-125039438D01*
X189194281Y-124018675D01*
X189430819Y-124018675D01*
X189430819Y-123880562D01*
X188779944Y-123880562D01*
X188779944Y-124018675D01*
X187786388Y-124018675D01*
X187772675Y-123994069D01*
X187693741Y-123922190D01*
X187587114Y-123879063D01*
X187452794Y-123864687D01*
X187327778Y-123872625D01*
X187203556Y-123896437D01*
X187203556Y-125023563D01*
X187005119Y-125023563D01*
X187005119Y-124901325D01*
X186627294Y-124901325D01*
X186627294Y-124483813D01*
X186989244Y-124483813D01*
X186989244Y-124348875D01*
X186627294Y-124348875D01*
X186627294Y-124018675D01*
X187005119Y-124018675D01*
X187005119Y-123880562D01*
X186449494Y-123880562D01*
X186449494Y-125039438D01*
X186232006Y-125039438D01*
X186232006Y-124901325D01*
X185862119Y-124901325D01*
X185862119Y-123880562D01*
X185684319Y-123880562D01*
X185684319Y-125039438D01*
X185013137Y-125039438D01*
X184506923Y-123352057D01*
G37*
G36*
X170319700Y-129410619D02*
G01*
X169775187Y-129302669D01*
X169775187Y-129301081D01*
X170319700Y-129193131D01*
X170319700Y-129410619D01*
G37*
G36*
X170180000Y-126141648D02*
G01*
X171287943Y-126880276D01*
X171287943Y-130929724D01*
X170180000Y-131668352D01*
X169072057Y-130929724D01*
X169072057Y-130020219D01*
X169584687Y-130020219D01*
X169593741Y-130113236D01*
X169620902Y-130193852D01*
X169666171Y-130262064D01*
X169729547Y-130317875D01*
X169811030Y-130361283D01*
X169910621Y-130392289D01*
X170028319Y-130410893D01*
X170164125Y-130417094D01*
X170307372Y-130410818D01*
X170431520Y-130391991D01*
X170536567Y-130360613D01*
X170622516Y-130316684D01*
X170689364Y-130260204D01*
X170737113Y-130191173D01*
X170765763Y-130109590D01*
X170775313Y-130015456D01*
X170765391Y-129909491D01*
X170735625Y-129813844D01*
X170589575Y-129813844D01*
X170626484Y-129904331D01*
X170638788Y-129988469D01*
X170625602Y-130066080D01*
X170586047Y-130129580D01*
X170520122Y-130178969D01*
X170427826Y-130214247D01*
X170309161Y-130235413D01*
X170164125Y-130242469D01*
X170029761Y-130236075D01*
X169919826Y-130216892D01*
X169834322Y-130184922D01*
X169773247Y-130140163D01*
X169736602Y-130082616D01*
X169724387Y-130012281D01*
X169730737Y-129975769D01*
X169978387Y-129975769D01*
X169978387Y-129805906D01*
X169619612Y-129805906D01*
X169593419Y-129907109D01*
X169584687Y-130020219D01*
X169072057Y-130020219D01*
X169072057Y-129402681D01*
X169600562Y-129402681D01*
X170759438Y-129675731D01*
X170759438Y-129497931D01*
X170454638Y-129437606D01*
X170454638Y-129166144D01*
X170759438Y-129105819D01*
X170759438Y-128921669D01*
X169600562Y-129196306D01*
X169600562Y-129402681D01*
X169072057Y-129402681D01*
X169072057Y-128805781D01*
X169600562Y-128805781D01*
X170759438Y-128805781D01*
X170759438Y-128631156D01*
X169918062Y-128631156D01*
X169918062Y-128627981D01*
X170759438Y-128380331D01*
X170759438Y-128202531D01*
X169600562Y-128202531D01*
X169600562Y-128369219D01*
X170441938Y-128369219D01*
X170441938Y-128373981D01*
X169600562Y-128621631D01*
X169600562Y-128805781D01*
X169072057Y-128805781D01*
X169072057Y-127392906D01*
X169600562Y-127392906D01*
X169600562Y-127572294D01*
X170068875Y-127572294D01*
X170068875Y-127854869D01*
X169600562Y-127854869D01*
X169600562Y-128027906D01*
X170759438Y-128027906D01*
X170759438Y-127854869D01*
X170203813Y-127854869D01*
X170203813Y-127572294D01*
X170759438Y-127572294D01*
X170759438Y-127392906D01*
X169600562Y-127392906D01*
X169072057Y-127392906D01*
X169072057Y-126880276D01*
X170180000Y-126141648D01*
G37*
G36*
X172720000Y-126149585D02*
G01*
X173827943Y-126888214D01*
X173827943Y-130921786D01*
X172720000Y-131660415D01*
X171612057Y-130921786D01*
X171612057Y-130012281D01*
X172124687Y-130012281D01*
X172133741Y-130105299D01*
X172160902Y-130185914D01*
X172206171Y-130254127D01*
X172269547Y-130309938D01*
X172351030Y-130353346D01*
X172450621Y-130384352D01*
X172568319Y-130402955D01*
X172704125Y-130409156D01*
X172847372Y-130402881D01*
X172971520Y-130384054D01*
X173076567Y-130352676D01*
X173162516Y-130308747D01*
X173229364Y-130252267D01*
X173277113Y-130183235D01*
X173305763Y-130101653D01*
X173315313Y-130007519D01*
X173305391Y-129901553D01*
X173275625Y-129805906D01*
X173129575Y-129805906D01*
X173166484Y-129896394D01*
X173178788Y-129980531D01*
X173165602Y-130058142D01*
X173126047Y-130121642D01*
X173060122Y-130171031D01*
X172967826Y-130206309D01*
X172849161Y-130227476D01*
X172704125Y-130234531D01*
X172569761Y-130228137D01*
X172459826Y-130208955D01*
X172374322Y-130176984D01*
X172313247Y-130132226D01*
X172276602Y-130074679D01*
X172264387Y-130004344D01*
X172270737Y-129967831D01*
X172518387Y-129967831D01*
X172518387Y-129797969D01*
X172159612Y-129797969D01*
X172133419Y-129899172D01*
X172124687Y-130012281D01*
X171612057Y-130012281D01*
X171612057Y-129394744D01*
X172140562Y-129394744D01*
X173299438Y-129667794D01*
X173299438Y-129489994D01*
X172994638Y-129429669D01*
X172994638Y-129158206D01*
X173299438Y-129097881D01*
X173299438Y-128913731D01*
X172140562Y-129188369D01*
X172140562Y-129394744D01*
X171612057Y-129394744D01*
X171612057Y-128797844D01*
X172140562Y-128797844D01*
X173299438Y-128797844D01*
X173299438Y-128623219D01*
X172458062Y-128623219D01*
X172458062Y-128620044D01*
X173299438Y-128372394D01*
X173299438Y-128194594D01*
X172140562Y-128194594D01*
X172140562Y-128361281D01*
X172981938Y-128361281D01*
X172981938Y-128366044D01*
X172140562Y-128613694D01*
X172140562Y-128797844D01*
X171612057Y-128797844D01*
X171612057Y-127948531D01*
X172140562Y-127948531D01*
X173299438Y-127948531D01*
X173299438Y-127400844D01*
X173161325Y-127400844D01*
X173161325Y-127770731D01*
X172140562Y-127770731D01*
X172140562Y-127948531D01*
X171612057Y-127948531D01*
X171612057Y-126888214D01*
X172720000Y-126149585D01*
G37*
G36*
X172859700Y-129402681D02*
G01*
X172315187Y-129294731D01*
X172315187Y-129293144D01*
X172859700Y-129185194D01*
X172859700Y-129402681D01*
G37*
G36*
X162560000Y-126558366D02*
G01*
X163667943Y-127296995D01*
X163667943Y-130513005D01*
X162560000Y-131251634D01*
X161452057Y-130513005D01*
X161452057Y-129679700D01*
X161964687Y-129679700D01*
X161973507Y-129774509D01*
X161999965Y-129853619D01*
X162044062Y-129917031D01*
X162139312Y-129979539D01*
X162266312Y-130000375D01*
X162379025Y-129983905D01*
X162472687Y-129934494D01*
X162527721Y-129879901D01*
X162580638Y-129803966D01*
X162631438Y-129706688D01*
X162672316Y-129638623D01*
X162718750Y-129593181D01*
X162775106Y-129567583D01*
X162845750Y-129559050D01*
X162919767Y-129570163D01*
X162973544Y-129603500D01*
X163006286Y-129656681D01*
X163017200Y-129727325D01*
X163005735Y-129820282D01*
X162971339Y-129908653D01*
X162914013Y-129992438D01*
X163079113Y-129992438D01*
X163121446Y-129910946D01*
X163146846Y-129820988D01*
X163155313Y-129722563D01*
X163142613Y-129599690D01*
X163104513Y-129504123D01*
X163041013Y-129435860D01*
X162952113Y-129394903D01*
X162837813Y-129381250D01*
X162715178Y-129398316D01*
X162617150Y-129449513D01*
X162560529Y-129507544D01*
X162504967Y-129590624D01*
X162450462Y-129698750D01*
X162403014Y-129769306D01*
X162338985Y-129811639D01*
X162258375Y-129825750D01*
X162193287Y-129814638D01*
X162144075Y-129781300D01*
X162113119Y-129728516D01*
X162102800Y-129659063D01*
X162119866Y-129535634D01*
X162171062Y-129413000D01*
X162012312Y-129413000D01*
X161985854Y-129498372D01*
X161969979Y-129587272D01*
X161964687Y-129679700D01*
X161452057Y-129679700D01*
X161452057Y-128833562D01*
X161964687Y-128833562D01*
X161973741Y-128926580D01*
X162000902Y-129007195D01*
X162046171Y-129075408D01*
X162109547Y-129131219D01*
X162191030Y-129174627D01*
X162290621Y-129205633D01*
X162408319Y-129224236D01*
X162544125Y-129230438D01*
X162687372Y-129224162D01*
X162811520Y-129205335D01*
X162916567Y-129173957D01*
X163002516Y-129130028D01*
X163069364Y-129073548D01*
X163117113Y-129004516D01*
X163145763Y-128922934D01*
X163155313Y-128828800D01*
X163145391Y-128722834D01*
X163115625Y-128627187D01*
X162969575Y-128627187D01*
X163006484Y-128717675D01*
X163018788Y-128801812D01*
X163005602Y-128879424D01*
X162966047Y-128942924D01*
X162900122Y-128992313D01*
X162807826Y-129027590D01*
X162689161Y-129048757D01*
X162544125Y-129055813D01*
X162409761Y-129049418D01*
X162299826Y-129030236D01*
X162214322Y-128998266D01*
X162153247Y-128953507D01*
X162116602Y-128895960D01*
X162104387Y-128825625D01*
X162110737Y-128789112D01*
X162358387Y-128789112D01*
X162358387Y-128619250D01*
X161999612Y-128619250D01*
X161973419Y-128720453D01*
X161964687Y-128833562D01*
X161452057Y-128833562D01*
X161452057Y-128357312D01*
X161980562Y-128357312D01*
X163139438Y-128357312D01*
X163139438Y-127809625D01*
X163001325Y-127809625D01*
X163001325Y-128179512D01*
X161980562Y-128179512D01*
X161980562Y-128357312D01*
X161452057Y-128357312D01*
X161452057Y-127296995D01*
X162560000Y-126558366D01*
G37*
G36*
X139846226Y-129158294D02*
G01*
X139970581Y-129177609D01*
X140057188Y-129209800D01*
X140133388Y-129285405D01*
X140158788Y-129396331D01*
X140144500Y-129467769D01*
X139257087Y-129467769D01*
X139242800Y-129396331D01*
X139267406Y-129286397D01*
X139341225Y-129210594D01*
X139423069Y-129177962D01*
X139537369Y-129158383D01*
X139684125Y-129151856D01*
X139846226Y-129158294D01*
G37*
G36*
X139645849Y-126838869D02*
G01*
X139730515Y-126886494D01*
X139758738Y-126965869D01*
X139744847Y-127025995D01*
X139703175Y-127066675D01*
X139624197Y-127089892D01*
X139498387Y-127097631D01*
X139373967Y-127089694D01*
X139295981Y-127065881D01*
X139254905Y-127023416D01*
X139241212Y-126959519D01*
X139255897Y-126898797D01*
X139299950Y-126856331D01*
X139380516Y-126831328D01*
X139504737Y-126822994D01*
X139645849Y-126838869D01*
G37*
G36*
X138592057Y-132342202D02*
G01*
X138592057Y-131164806D01*
X139120562Y-131164806D01*
X140279438Y-131164806D01*
X140279438Y-130617119D01*
X140141325Y-130617119D01*
X140141325Y-130987006D01*
X139120562Y-130987006D01*
X139120562Y-131164806D01*
X138592057Y-131164806D01*
X138592057Y-130399631D01*
X139120562Y-130399631D01*
X140279438Y-130399631D01*
X140279438Y-129844006D01*
X140141325Y-129844006D01*
X140141325Y-130221831D01*
X139723813Y-130221831D01*
X139723813Y-129859881D01*
X139588875Y-129859881D01*
X139588875Y-130221831D01*
X139258675Y-130221831D01*
X139258675Y-129844006D01*
X139120562Y-129844006D01*
X139120562Y-130399631D01*
X138592057Y-130399631D01*
X138592057Y-129396331D01*
X139104687Y-129396331D01*
X139112625Y-129521347D01*
X139136437Y-129645569D01*
X140263563Y-129645569D01*
X140287375Y-129526109D01*
X140295313Y-129396331D01*
X140281620Y-129264569D01*
X140240544Y-129161381D01*
X140165733Y-129082998D01*
X140050838Y-129025650D01*
X139950119Y-128999633D01*
X139827882Y-128984022D01*
X139684125Y-128978819D01*
X139535743Y-128984921D01*
X139411273Y-129003227D01*
X139310715Y-129033736D01*
X139234069Y-129076450D01*
X139162190Y-129155384D01*
X139119063Y-129262011D01*
X139104687Y-129396331D01*
X138592057Y-129396331D01*
X138592057Y-127808831D01*
X139104687Y-127808831D01*
X139112625Y-127933847D01*
X139136437Y-128058069D01*
X140263563Y-128058069D01*
X140287375Y-127938609D01*
X140295313Y-127808831D01*
X140281620Y-127677069D01*
X140240544Y-127573881D01*
X140165733Y-127495498D01*
X140050838Y-127438150D01*
X139950119Y-127412133D01*
X139827882Y-127396522D01*
X139684125Y-127391319D01*
X139535743Y-127397421D01*
X139411273Y-127415727D01*
X139310715Y-127446236D01*
X139234069Y-127488950D01*
X139162190Y-127567884D01*
X139119063Y-127674511D01*
X139104687Y-127808831D01*
X138592057Y-127808831D01*
X138592057Y-126959519D01*
X139104687Y-126959519D01*
X139115183Y-127056268D01*
X139146668Y-127134849D01*
X139199144Y-127195262D01*
X139274374Y-127238037D01*
X139374122Y-127263701D01*
X139498387Y-127272256D01*
X139626005Y-127264583D01*
X139727340Y-127241565D01*
X139802394Y-127203200D01*
X139872045Y-127117277D01*
X139895263Y-126997619D01*
X139878197Y-126909116D01*
X139827000Y-126827756D01*
X139827000Y-126822994D01*
X139942182Y-126832431D01*
X140029494Y-126850158D01*
X140088938Y-126876175D01*
X140140134Y-126935508D01*
X140157200Y-127023019D01*
X140146088Y-127113506D01*
X140112750Y-127200819D01*
X140263563Y-127200819D01*
X140287375Y-127103584D01*
X140295313Y-127002381D01*
X140280827Y-126888280D01*
X140237369Y-126799975D01*
X140157200Y-126733498D01*
X140032581Y-126684881D01*
X139952264Y-126667518D01*
X139858155Y-126655116D01*
X139750254Y-126647674D01*
X139628562Y-126645194D01*
X139488366Y-126649559D01*
X139372578Y-126662656D01*
X139281198Y-126684484D01*
X139214225Y-126715044D01*
X139153371Y-126773252D01*
X139116858Y-126854744D01*
X139104687Y-126959519D01*
X138592057Y-126959519D01*
X138592057Y-126132564D01*
X140807943Y-125467798D01*
X140807943Y-131677436D01*
X138592057Y-132342202D01*
G37*
G36*
X139846226Y-127570794D02*
G01*
X139970581Y-127590109D01*
X140057188Y-127622300D01*
X140133388Y-127697905D01*
X140158788Y-127808831D01*
X140144500Y-127880269D01*
X139257087Y-127880269D01*
X139242800Y-127808831D01*
X139267406Y-127698897D01*
X139341225Y-127623094D01*
X139423069Y-127590462D01*
X139537369Y-127570883D01*
X139684125Y-127564356D01*
X139846226Y-127570794D01*
G37*
G36*
X184506923Y-118272057D02*
G01*
X190748311Y-118272057D01*
X191413077Y-120487943D01*
X185171689Y-120487943D01*
X185013137Y-119959438D01*
X185684319Y-119959438D01*
X186232006Y-119959438D01*
X186449494Y-119959438D01*
X187005119Y-119959438D01*
X187005119Y-119943563D01*
X187203556Y-119943563D01*
X187323016Y-119967375D01*
X187452794Y-119975313D01*
X187584556Y-119961620D01*
X187590037Y-119959438D01*
X188798994Y-119959438D01*
X188976794Y-119959438D01*
X188976794Y-119478425D01*
X189038706Y-119478425D01*
X189134750Y-119509381D01*
X189165111Y-119554030D01*
X189191106Y-119626063D01*
X189283181Y-119959438D01*
X189465744Y-119959438D01*
X189560994Y-119959438D01*
X189748319Y-119959438D01*
X189892781Y-119495888D01*
X189895956Y-119495888D01*
X190042006Y-119959438D01*
X190235681Y-119959438D01*
X190010256Y-119368887D01*
X190232506Y-118800562D01*
X190048356Y-118800562D01*
X189902306Y-119245062D01*
X189899131Y-119245062D01*
X189754669Y-118800562D01*
X189565756Y-118800562D01*
X189788006Y-119368887D01*
X189560994Y-119959438D01*
X189465744Y-119959438D01*
X189367319Y-119635588D01*
X189316519Y-119510969D01*
X189256194Y-119432388D01*
X189256194Y-119429213D01*
X189333981Y-119383770D01*
X189389544Y-119318881D01*
X189422881Y-119234545D01*
X189433994Y-119130762D01*
X189424204Y-119021842D01*
X189394835Y-118934265D01*
X189345888Y-118868031D01*
X189275949Y-118821729D01*
X189183610Y-118793948D01*
X189068869Y-118784687D01*
X188977499Y-118788215D01*
X188887541Y-118798799D01*
X188798994Y-118816437D01*
X188798994Y-119959438D01*
X187590037Y-119959438D01*
X187687744Y-119920544D01*
X187766127Y-119845733D01*
X187823475Y-119730838D01*
X187849492Y-119630119D01*
X187865103Y-119507882D01*
X187870306Y-119364125D01*
X187864204Y-119215743D01*
X187845898Y-119091273D01*
X187815389Y-118990715D01*
X187772675Y-118914069D01*
X187693741Y-118842190D01*
X187587114Y-118799063D01*
X187452794Y-118784687D01*
X187327778Y-118792625D01*
X187203556Y-118816437D01*
X187203556Y-119943563D01*
X187005119Y-119943563D01*
X187005119Y-119821325D01*
X186627294Y-119821325D01*
X186627294Y-119403813D01*
X186989244Y-119403813D01*
X186989244Y-119268875D01*
X186627294Y-119268875D01*
X186627294Y-118938675D01*
X187005119Y-118938675D01*
X187005119Y-118800562D01*
X186449494Y-118800562D01*
X186449494Y-119959438D01*
X186232006Y-119959438D01*
X186232006Y-119821325D01*
X185862119Y-119821325D01*
X185862119Y-118800562D01*
X185684319Y-118800562D01*
X185684319Y-119959438D01*
X185013137Y-119959438D01*
X184506923Y-118272057D01*
G37*
G36*
X187562728Y-118947406D02*
G01*
X187638531Y-119021225D01*
X187671163Y-119103069D01*
X187690742Y-119217369D01*
X187697269Y-119364125D01*
X187690831Y-119526226D01*
X187671516Y-119650581D01*
X187639325Y-119737188D01*
X187563720Y-119813388D01*
X187452794Y-119838788D01*
X187381356Y-119824500D01*
X187381356Y-118937087D01*
X187452794Y-118922800D01*
X187562728Y-118947406D01*
G37*
G36*
X189153403Y-118935302D02*
G01*
X189213331Y-118972806D01*
X189249050Y-119037298D01*
X189260956Y-119130762D01*
X189248256Y-119228394D01*
X189210156Y-119292687D01*
X189141894Y-119328406D01*
X189038706Y-119340312D01*
X188976794Y-119340312D01*
X188976794Y-118935500D01*
X189068869Y-118922800D01*
X189153403Y-118935302D01*
G37*
G36*
X187854828Y-113867406D02*
G01*
X187930631Y-113941225D01*
X187963263Y-114023069D01*
X187982842Y-114137369D01*
X187989369Y-114284125D01*
X187982931Y-114446226D01*
X187963616Y-114570581D01*
X187931425Y-114657188D01*
X187855820Y-114733388D01*
X187744894Y-114758788D01*
X187673456Y-114744500D01*
X187673456Y-113857087D01*
X187744894Y-113842800D01*
X187854828Y-113867406D01*
G37*
G36*
X190945602Y-114300000D02*
G01*
X190206974Y-115407943D01*
X186983026Y-115407943D01*
X186620106Y-114863563D01*
X187495656Y-114863563D01*
X187615116Y-114887375D01*
X187744894Y-114895313D01*
X187876656Y-114881620D01*
X187882137Y-114879438D01*
X188317981Y-114879438D01*
X188889481Y-114879438D01*
X188889481Y-114847688D01*
X189122844Y-114847688D01*
X189231984Y-114883406D01*
X189349856Y-114895313D01*
X189458688Y-114885435D01*
X189546001Y-114855801D01*
X189611794Y-114806413D01*
X189657655Y-114734093D01*
X189685172Y-114635668D01*
X189694344Y-114511138D01*
X189684184Y-114376835D01*
X189653704Y-114272377D01*
X189602904Y-114197765D01*
X189531784Y-114152997D01*
X189440344Y-114138075D01*
X189364938Y-114147997D01*
X189300644Y-114177762D01*
X189297469Y-114177762D01*
X189308581Y-113857087D01*
X189662594Y-113857087D01*
X189662594Y-113720562D01*
X189146656Y-113720562D01*
X189130781Y-114336513D01*
X189276831Y-114336513D01*
X189331997Y-114288887D01*
X189392719Y-114273012D01*
X189486381Y-114327781D01*
X189509003Y-114401005D01*
X189516544Y-114511138D01*
X189505828Y-114627223D01*
X189473681Y-114702431D01*
X189418119Y-114743508D01*
X189337156Y-114757200D01*
X189231191Y-114742119D01*
X189122844Y-114696875D01*
X189122844Y-114847688D01*
X188889481Y-114847688D01*
X188889481Y-114741325D01*
X188502131Y-114741325D01*
X188502131Y-114738150D01*
X188595248Y-114627223D01*
X188674573Y-114523044D01*
X188740107Y-114425611D01*
X188791850Y-114334925D01*
X188841680Y-114221683D01*
X188871578Y-114114792D01*
X188881544Y-114014250D01*
X188863486Y-113880305D01*
X188809313Y-113783269D01*
X188721008Y-113724333D01*
X188600556Y-113704687D01*
X188500015Y-113713860D01*
X188405823Y-113741376D01*
X188317981Y-113787237D01*
X188317981Y-113936462D01*
X188407410Y-113884428D01*
X188489431Y-113853207D01*
X188564044Y-113842800D01*
X188668025Y-113885662D01*
X188693623Y-113941225D01*
X188702156Y-114022187D01*
X188694316Y-114109176D01*
X188670795Y-114201413D01*
X188631593Y-114298898D01*
X188576711Y-114401632D01*
X188506149Y-114509615D01*
X188419905Y-114622846D01*
X188317981Y-114741325D01*
X188317981Y-114879438D01*
X187882137Y-114879438D01*
X187979844Y-114840544D01*
X188058227Y-114765733D01*
X188115575Y-114650838D01*
X188141592Y-114550119D01*
X188157203Y-114427882D01*
X188162406Y-114284125D01*
X188156304Y-114135743D01*
X188137998Y-114011273D01*
X188107489Y-113910715D01*
X188064775Y-113834069D01*
X187985841Y-113762190D01*
X187879214Y-113719063D01*
X187744894Y-113704687D01*
X187619878Y-113712625D01*
X187495656Y-113736437D01*
X187495656Y-114863563D01*
X186620106Y-114863563D01*
X186244398Y-114300000D01*
X186983026Y-113192057D01*
X190206974Y-113192057D01*
X190945602Y-114300000D01*
G37*
G36*
X160020000Y-126521060D02*
G01*
X161127943Y-127259689D01*
X161127943Y-130550311D01*
X160020000Y-131288940D01*
X158912057Y-130550311D01*
X158912057Y-129717006D01*
X159424687Y-129717006D01*
X159433507Y-129811815D01*
X159459965Y-129890926D01*
X159504062Y-129954338D01*
X159599312Y-130016845D01*
X159726312Y-130037681D01*
X159839025Y-130021211D01*
X159932687Y-129971800D01*
X159987721Y-129917208D01*
X160040638Y-129841272D01*
X160091438Y-129743994D01*
X160132316Y-129675930D01*
X160178750Y-129630488D01*
X160235106Y-129604889D01*
X160305750Y-129596356D01*
X160379767Y-129607469D01*
X160433544Y-129640806D01*
X160466286Y-129693988D01*
X160477200Y-129764631D01*
X160465735Y-129857588D01*
X160431339Y-129945959D01*
X160374013Y-130029744D01*
X160539113Y-130029744D01*
X160581446Y-129948252D01*
X160606846Y-129858294D01*
X160615313Y-129759869D01*
X160602613Y-129636996D01*
X160564513Y-129541429D01*
X160501013Y-129473166D01*
X160412113Y-129432209D01*
X160297813Y-129418556D01*
X160175178Y-129435622D01*
X160077150Y-129486819D01*
X160020529Y-129544851D01*
X159964967Y-129627930D01*
X159910462Y-129736056D01*
X159863014Y-129806612D01*
X159798985Y-129848945D01*
X159718375Y-129863056D01*
X159653287Y-129851944D01*
X159604075Y-129818606D01*
X159573119Y-129765822D01*
X159562800Y-129696369D01*
X159579866Y-129572941D01*
X159631062Y-129450306D01*
X159472312Y-129450306D01*
X159445854Y-129535678D01*
X159429979Y-129624578D01*
X159424687Y-129717006D01*
X158912057Y-129717006D01*
X158912057Y-129007394D01*
X159424687Y-129007394D01*
X159432625Y-129132409D01*
X159456437Y-129256631D01*
X160583563Y-129256631D01*
X160607375Y-129137172D01*
X160615313Y-129007394D01*
X160601620Y-128875631D01*
X160560544Y-128772444D01*
X160485733Y-128694061D01*
X160370838Y-128636712D01*
X160270119Y-128610695D01*
X160147882Y-128595085D01*
X160004125Y-128589881D01*
X159855743Y-128595983D01*
X159731273Y-128614289D01*
X159630715Y-128644799D01*
X159554069Y-128687512D01*
X159482190Y-128766447D01*
X159439063Y-128873074D01*
X159424687Y-129007394D01*
X158912057Y-129007394D01*
X158912057Y-128253331D01*
X159440562Y-128253331D01*
X160599438Y-128526381D01*
X160599438Y-128348581D01*
X160294638Y-128288256D01*
X160294638Y-128016794D01*
X160599438Y-127956469D01*
X160599438Y-127772319D01*
X159440562Y-128046956D01*
X159440562Y-128253331D01*
X158912057Y-128253331D01*
X158912057Y-127259689D01*
X160020000Y-126521060D01*
G37*
G36*
X160159700Y-128261269D02*
G01*
X159615187Y-128153319D01*
X159615187Y-128151731D01*
X160159700Y-128043781D01*
X160159700Y-128261269D01*
G37*
G36*
X160166226Y-128769357D02*
G01*
X160290581Y-128788672D01*
X160377188Y-128820862D01*
X160453388Y-128896467D01*
X160478788Y-129007394D01*
X160464500Y-129078831D01*
X159577087Y-129078831D01*
X159562800Y-129007394D01*
X159587406Y-128897459D01*
X159661225Y-128821656D01*
X159743069Y-128789024D01*
X159857369Y-128769445D01*
X160004125Y-128762919D01*
X160166226Y-128769357D01*
G37*
%LPC*%
D12*
X165100000Y-63792500D03*
X165100000Y-60667500D03*
D13*
X178852500Y-119380000D03*
X181827500Y-119380000D03*
D14*
X171450000Y-103860000D03*
X171450000Y-106960000D03*
D12*
X139700000Y-63792500D03*
X139700000Y-60667500D03*
X170180000Y-63792500D03*
X170180000Y-60667500D03*
D15*
X193040000Y-114300000D03*
D16*
X127000000Y-48400000D03*
X128697056Y-52497056D03*
X128697056Y-49102944D03*
X129400000Y-50800000D03*
D17*
X127000000Y-50800000D03*
D16*
X127000000Y-53200000D03*
X125302944Y-49102944D03*
X125302944Y-52497056D03*
X124600000Y-50800000D03*
D18*
X139700000Y-71120000D03*
D19*
X139700000Y-73660000D03*
X139700000Y-76200000D03*
X139700000Y-78740000D03*
X139700000Y-81280000D03*
X139700000Y-83820000D03*
X139700000Y-86360000D03*
X139700000Y-88900000D03*
X139700000Y-91440000D03*
X139700000Y-93980000D03*
X139700000Y-96520000D03*
X139700000Y-99060000D03*
X139700000Y-101600000D03*
X139700000Y-104140000D03*
X139700000Y-106680000D03*
X139700000Y-109220000D03*
D20*
X142240000Y-111760000D03*
D21*
X144780000Y-111760000D03*
X147320000Y-111760000D03*
X149860000Y-111760000D03*
X152400000Y-111760000D03*
X154940000Y-111760000D03*
X157480000Y-111760000D03*
X160020000Y-111760000D03*
X162560000Y-111760000D03*
X165100000Y-111760000D03*
X167640000Y-111760000D03*
X170180000Y-111760000D03*
X172720000Y-111760000D03*
X175260000Y-111760000D03*
X177800000Y-111760000D03*
X180340000Y-111760000D03*
D18*
X182880000Y-109220000D03*
D19*
X182880000Y-106680000D03*
X182880000Y-104140000D03*
X182880000Y-101600000D03*
X182880000Y-99060000D03*
X182880000Y-96520000D03*
X182880000Y-93980000D03*
X182880000Y-91440000D03*
X182880000Y-88900000D03*
X182880000Y-86360000D03*
X182880000Y-83820000D03*
X182880000Y-81280000D03*
X182880000Y-78740000D03*
X182880000Y-76200000D03*
X182880000Y-73660000D03*
X182880000Y-71120000D03*
D20*
X180340000Y-68580000D03*
D21*
X177800000Y-68580000D03*
X175260000Y-68580000D03*
X172720000Y-68580000D03*
X170180000Y-68580000D03*
X167640000Y-68580000D03*
X165100000Y-68580000D03*
X162560000Y-68580000D03*
X160020000Y-68580000D03*
X157480000Y-68580000D03*
X154940000Y-68580000D03*
X152400000Y-68580000D03*
X149860000Y-68580000D03*
X147320000Y-68580000D03*
X144780000Y-68580000D03*
X142240000Y-68580000D03*
D22*
X142240000Y-71120000D03*
D23*
X142240000Y-73660000D03*
D16*
X193040000Y-127140000D03*
X194737056Y-131237056D03*
X194737056Y-127842944D03*
X195440000Y-129540000D03*
D17*
X193040000Y-129540000D03*
D16*
X193040000Y-131940000D03*
X191342944Y-127842944D03*
X191342944Y-131237056D03*
X190640000Y-129540000D03*
D24*
X167005000Y-93650000D03*
X168275000Y-93650000D03*
X169545000Y-93650000D03*
X170815000Y-93650000D03*
X172085000Y-93650000D03*
X173355000Y-93650000D03*
X174625000Y-93650000D03*
X175895000Y-93650000D03*
X177165000Y-93650000D03*
X178435000Y-93650000D03*
X178435000Y-84150000D03*
X177165000Y-84150000D03*
X175895000Y-84150000D03*
X174625000Y-84150000D03*
X173355000Y-84150000D03*
X172085000Y-84150000D03*
X170815000Y-84150000D03*
X169545000Y-84150000D03*
X168275000Y-84150000D03*
X167005000Y-84150000D03*
D25*
X161582500Y-95250000D03*
X158457500Y-95250000D03*
D12*
X149860000Y-63792500D03*
X149860000Y-60667500D03*
D20*
X163830000Y-99060000D03*
D21*
X161290000Y-99060000D03*
X158750000Y-99060000D03*
X156210000Y-99060000D03*
X156210000Y-106680000D03*
X158750000Y-106680000D03*
X161290000Y-106680000D03*
X163830000Y-106680000D03*
D15*
X156210000Y-120650000D03*
D26*
X139700000Y-120432500D03*
X139700000Y-123407500D03*
D27*
X185420000Y-53340000D03*
D28*
X180340000Y-53340000D03*
X175260000Y-53340000D03*
X170180000Y-53340000D03*
X165100000Y-53340000D03*
X160020000Y-53340000D03*
X154940000Y-53340000D03*
X149860000Y-53340000D03*
X144780000Y-53340000D03*
X139700000Y-53340000D03*
D12*
X160020000Y-63792500D03*
X160020000Y-60667500D03*
D29*
X144780000Y-94260000D03*
X144780000Y-91160000D03*
D16*
X146050000Y-77610000D03*
X147747056Y-81707056D03*
X147747056Y-78312944D03*
X148450000Y-80010000D03*
D17*
X146050000Y-80010000D03*
D16*
X146050000Y-82410000D03*
X144352944Y-78312944D03*
X144352944Y-81707056D03*
X143650000Y-80010000D03*
D30*
X160020000Y-121920000D03*
D31*
X162560000Y-121920000D03*
D12*
X154940000Y-63792500D03*
X154940000Y-60667500D03*
D16*
X193040000Y-48400000D03*
X194737056Y-52497056D03*
X194737056Y-49102944D03*
X195440000Y-50800000D03*
D17*
X193040000Y-50800000D03*
D16*
X193040000Y-53200000D03*
X191342944Y-49102944D03*
X191342944Y-52497056D03*
X190640000Y-50800000D03*
D15*
X147320000Y-104140000D03*
D12*
X180340000Y-63792500D03*
X180340000Y-60667500D03*
D27*
X129540000Y-93980000D03*
D28*
X129540000Y-99060000D03*
X129540000Y-104140000D03*
X129540000Y-109220000D03*
X129540000Y-114300000D03*
X129540000Y-119380000D03*
D12*
X144780000Y-63792500D03*
X144780000Y-60667500D03*
D30*
X144780000Y-121920000D03*
D31*
X147320000Y-121920000D03*
X149860000Y-121920000D03*
X152400000Y-121920000D03*
D14*
X167640000Y-103860000D03*
X167640000Y-106960000D03*
D32*
X193040000Y-74930000D03*
D33*
X190500000Y-74930000D03*
X193040000Y-77470000D03*
X190500000Y-77470000D03*
X193040000Y-80010000D03*
X190500000Y-80010000D03*
X193040000Y-82550000D03*
X190500000Y-82550000D03*
X193040000Y-85090000D03*
X190500000Y-85090000D03*
X193040000Y-87630000D03*
X190500000Y-87630000D03*
X193040000Y-90170000D03*
X190500000Y-90170000D03*
X193040000Y-92710000D03*
X190500000Y-92710000D03*
X193040000Y-95250000D03*
X190500000Y-95250000D03*
X193040000Y-97790000D03*
X190500000Y-97790000D03*
X193040000Y-100330000D03*
X190500000Y-100330000D03*
X193040000Y-102870000D03*
X190500000Y-102870000D03*
X193040000Y-105410000D03*
X190500000Y-105410000D03*
D12*
X175260000Y-63792500D03*
X175260000Y-60667500D03*
X161925000Y-90462500D03*
X161925000Y-87337500D03*
D30*
X170180000Y-121920000D03*
D31*
X172720000Y-121920000D03*
D14*
X175260000Y-103860000D03*
X175260000Y-106960000D03*
D27*
X129540000Y-60960000D03*
D28*
X129540000Y-66040000D03*
X129540000Y-71120000D03*
X129540000Y-76200000D03*
X129540000Y-81280000D03*
X129540000Y-86360000D03*
D30*
X154940000Y-81280000D03*
D31*
X157480000Y-81280000D03*
D16*
X127000000Y-127140000D03*
X128697056Y-131237056D03*
X128697056Y-127842944D03*
X129400000Y-129540000D03*
D17*
X127000000Y-129540000D03*
D16*
X127000000Y-131940000D03*
X125302944Y-127842944D03*
X125302944Y-131237056D03*
X124600000Y-129540000D03*
D13*
X178852500Y-124460000D03*
X181827500Y-124460000D03*
M02*
