M48
; DRILL file {KiCad (6.0.4-103-ge02229a234)} date Sun Apr 10 23:24:56 2022
; FORMAT={-:-/ absolute / metric / decimal}
; #@! TF.CreationDate,2022-04-10T23:24:56+02:00
; #@! TF.GenerationSoftware,Kicad,Pcbnew,(6.0.4-103-ge02229a234)
; #@! TF.FileFunction,Plated,1,2,PTH
FMAT,2
METRIC
; #@! TA.AperFunction,Plated,PTH,ComponentDrill
T1C0.500
; #@! TA.AperFunction,Plated,PTH,ComponentDrill
T2C0.600
; #@! TA.AperFunction,Plated,PTH,ComponentDrill
T3C0.800
; #@! TA.AperFunction,Plated,PTH,ComponentDrill
T4C1.000
; #@! TA.AperFunction,Plated,PTH,ComponentDrill
T5C1.100
; #@! TA.AperFunction,Plated,PTH,ComponentDrill
T6C1.300
; #@! TA.AperFunction,Plated,PTH,ComponentDrill
T7C3.200
%
G90
G05
T1
X124.6Y-50.8
X124.6Y-129.54
X125.303Y-49.103
X125.303Y-52.497
X125.303Y-127.843
X125.303Y-131.237
X127.0Y-48.4
X127.0Y-53.2
X127.0Y-127.14
X127.0Y-131.94
X128.697Y-49.103
X128.697Y-52.497
X128.697Y-127.843
X128.697Y-131.237
X129.4Y-50.8
X129.4Y-129.54
X143.65Y-80.01
X144.353Y-78.313
X144.353Y-81.707
X146.05Y-77.61
X146.05Y-82.41
X147.747Y-78.313
X147.747Y-81.707
X148.45Y-80.01
X190.64Y-50.8
X190.64Y-129.54
X191.343Y-49.103
X191.343Y-52.497
X191.343Y-127.843
X191.343Y-131.237
X193.04Y-48.4
X193.04Y-53.2
X193.04Y-127.14
X193.04Y-131.94
X194.737Y-49.103
X194.737Y-52.497
X194.737Y-127.843
X194.737Y-131.237
X195.44Y-50.8
X195.44Y-129.54
T2
X147.32Y-104.14
X156.21Y-120.65
X193.04Y-114.3
T3
X139.7Y-71.12
X139.7Y-73.66
X139.7Y-76.2
X139.7Y-78.74
X139.7Y-81.28
X139.7Y-83.82
X139.7Y-86.36
X139.7Y-88.9
X139.7Y-91.44
X139.7Y-93.98
X139.7Y-96.52
X139.7Y-99.06
X139.7Y-101.6
X139.7Y-104.14
X139.7Y-106.68
X139.7Y-109.22
X142.24Y-68.58
X142.24Y-71.12
X142.24Y-73.66
X142.24Y-111.76
X144.78Y-68.58
X144.78Y-111.76
X147.32Y-68.58
X147.32Y-111.76
X149.86Y-68.58
X149.86Y-111.76
X152.4Y-68.58
X152.4Y-111.76
X154.94Y-68.58
X154.94Y-111.76
X156.21Y-99.06
X156.21Y-106.68
X157.48Y-68.58
X157.48Y-111.76
X158.75Y-99.06
X158.75Y-106.68
X160.02Y-68.58
X160.02Y-111.76
X161.29Y-99.06
X161.29Y-106.68
X162.56Y-68.58
X162.56Y-111.76
X163.83Y-99.06
X163.83Y-106.68
X165.1Y-68.58
X165.1Y-111.76
X167.64Y-68.58
X167.64Y-111.76
X170.18Y-68.58
X170.18Y-111.76
X172.72Y-68.58
X172.72Y-111.76
X175.26Y-68.58
X175.26Y-111.76
X177.8Y-68.58
X177.8Y-111.76
X180.34Y-68.58
X180.34Y-111.76
X182.88Y-71.12
X182.88Y-73.66
X182.88Y-76.2
X182.88Y-78.74
X182.88Y-81.28
X182.88Y-83.82
X182.88Y-86.36
X182.88Y-88.9
X182.88Y-91.44
X182.88Y-93.98
X182.88Y-96.52
X182.88Y-99.06
X182.88Y-101.6
X182.88Y-104.14
X182.88Y-106.68
X182.88Y-109.22
T4
X190.5Y-74.93
X190.5Y-77.47
X190.5Y-80.01
X190.5Y-82.55
X190.5Y-85.09
X190.5Y-87.63
X190.5Y-90.17
X190.5Y-92.71
X190.5Y-95.25
X190.5Y-97.79
X190.5Y-100.33
X190.5Y-102.87
X190.5Y-105.41
X193.04Y-74.93
X193.04Y-77.47
X193.04Y-80.01
X193.04Y-82.55
X193.04Y-85.09
X193.04Y-87.63
X193.04Y-90.17
X193.04Y-92.71
X193.04Y-95.25
X193.04Y-97.79
X193.04Y-100.33
X193.04Y-102.87
X193.04Y-105.41
T5
X144.78Y-121.92
X147.32Y-121.92
X149.86Y-121.92
X152.4Y-121.92
X154.94Y-81.28
X157.48Y-81.28
X160.02Y-121.92
X162.56Y-121.92
X170.18Y-121.92
X172.72Y-121.92
T6
X129.54Y-60.96
X129.54Y-66.04
X129.54Y-71.12
X129.54Y-76.2
X129.54Y-81.28
X129.54Y-86.36
X129.54Y-93.98
X129.54Y-99.06
X129.54Y-104.14
X129.54Y-109.22
X129.54Y-114.3
X129.54Y-119.38
X139.7Y-53.34
X144.78Y-53.34
X149.86Y-53.34
X154.94Y-53.34
X160.02Y-53.34
X165.1Y-53.34
X170.18Y-53.34
X175.26Y-53.34
X180.34Y-53.34
X185.42Y-53.34
T7
X127.0Y-50.8
X127.0Y-129.54
X146.05Y-80.01
X193.04Y-50.8
X193.04Y-129.54
T0
M30
