%FSLAX45Y45*%
G04 Gerber Fmt 4.5, Leading zero omitted, Abs format (unit mm)*
G04 Created by KiCad (PCBNEW (6.0.4-103-ge02229a234)) date 2022-04-10 23:24:57*
%MOMM*%
%LPD*%
G01*
G04 APERTURE LIST*
%TA.AperFunction,Profile*%
%ADD10C,0.100000*%
%TD*%
%ADD11C,0.200000*%
G04 APERTURE END LIST*
D10*
X12192000Y-12954000D02*
X12192000Y-5080000D01*
X12700000Y-4572000D02*
G75*
G03*
X12192000Y-5080000I0J-508000D01*
G01*
X19812000Y-5080000D02*
X19812000Y-12954000D01*
X12192000Y-12954000D02*
G75*
G03*
X12700000Y-13462000I508000J0D01*
G01*
X19304000Y-13462000D02*
X12700000Y-13462000D01*
X19812000Y-5080000D02*
G75*
G03*
X19304000Y-4572000I-508000J0D01*
G01*
X12700000Y-4572000D02*
X19304000Y-4572000D01*
X19304000Y-13462000D02*
G75*
G03*
X19812000Y-12954000I0J508000D01*
G01*
D11*
X12444619Y-13777476D02*
X12444619Y-13577476D01*
X12492238Y-13577476D01*
X12520809Y-13587000D01*
X12539857Y-13606048D01*
X12549381Y-13625095D01*
X12558905Y-13663190D01*
X12558905Y-13691762D01*
X12549381Y-13729857D01*
X12539857Y-13748905D01*
X12520809Y-13767952D01*
X12492238Y-13777476D01*
X12444619Y-13777476D01*
X12644619Y-13777476D02*
X12644619Y-13644143D01*
X12644619Y-13682238D02*
X12654143Y-13663190D01*
X12663667Y-13653667D01*
X12682714Y-13644143D01*
X12701762Y-13644143D01*
X12768428Y-13777476D02*
X12768428Y-13644143D01*
X12768428Y-13577476D02*
X12758905Y-13587000D01*
X12768428Y-13596524D01*
X12777952Y-13587000D01*
X12768428Y-13577476D01*
X12768428Y-13596524D01*
X12892238Y-13777476D02*
X12873190Y-13767952D01*
X12863667Y-13748905D01*
X12863667Y-13577476D01*
X12997000Y-13777476D02*
X12977952Y-13767952D01*
X12968428Y-13748905D01*
X12968428Y-13577476D01*
X13225571Y-13777476D02*
X13225571Y-13577476D01*
X13292238Y-13720333D01*
X13358905Y-13577476D01*
X13358905Y-13777476D01*
X13539857Y-13777476D02*
X13539857Y-13672714D01*
X13530333Y-13653667D01*
X13511286Y-13644143D01*
X13473190Y-13644143D01*
X13454143Y-13653667D01*
X13539857Y-13767952D02*
X13520809Y-13777476D01*
X13473190Y-13777476D01*
X13454143Y-13767952D01*
X13444619Y-13748905D01*
X13444619Y-13729857D01*
X13454143Y-13710809D01*
X13473190Y-13701286D01*
X13520809Y-13701286D01*
X13539857Y-13691762D01*
X13635095Y-13644143D02*
X13635095Y-13844143D01*
X13635095Y-13653667D02*
X13654143Y-13644143D01*
X13692238Y-13644143D01*
X13711286Y-13653667D01*
X13720809Y-13663190D01*
X13730333Y-13682238D01*
X13730333Y-13739381D01*
X13720809Y-13758428D01*
X13711286Y-13767952D01*
X13692238Y-13777476D01*
X13654143Y-13777476D01*
X13635095Y-13767952D01*
X13816048Y-13758428D02*
X13825571Y-13767952D01*
X13816048Y-13777476D01*
X13806524Y-13767952D01*
X13816048Y-13758428D01*
X13816048Y-13777476D01*
X13816048Y-13653667D02*
X13825571Y-13663190D01*
X13816048Y-13672714D01*
X13806524Y-13663190D01*
X13816048Y-13653667D01*
X13816048Y-13672714D01*
M02*
