G04 #@! TF.GenerationSoftware,KiCad,Pcbnew,(6.0.4-163-g7b7e4e1ae5)*
G04 #@! TF.CreationDate,2022-06-12T18:41:20+02:00*
G04 #@! TF.ProjectId,CANduino128 - v2.0,43414e64-7569-46e6-9f31-3238202d2076,rev?*
G04 #@! TF.SameCoordinates,Original*
G04 #@! TF.FileFunction,Legend,Top*
G04 #@! TF.FilePolarity,Positive*
%FSLAX46Y46*%
G04 Gerber Fmt 4.6, Leading zero omitted, Abs format (unit mm)*
G04 Created by KiCad (PCBNEW (6.0.4-163-g7b7e4e1ae5)) date 2022-06-12 18:41:20*
%MOMM*%
%LPD*%
G01*
G04 APERTURE LIST*
G04 Aperture macros list*
%AMRoundRect*
0 Rectangle with rounded corners*
0 $1 Rounding radius*
0 $2 $3 $4 $5 $6 $7 $8 $9 X,Y pos of 4 corners*
0 Add a 4 corners polygon primitive as box body*
4,1,4,$2,$3,$4,$5,$6,$7,$8,$9,$2,$3,0*
0 Add four circle primitives for the rounded corners*
1,1,$1+$1,$2,$3*
1,1,$1+$1,$4,$5*
1,1,$1+$1,$6,$7*
1,1,$1+$1,$8,$9*
0 Add four rect primitives between the rounded corners*
20,1,$1+$1,$2,$3,$4,$5,0*
20,1,$1+$1,$4,$5,$6,$7,0*
20,1,$1+$1,$6,$7,$8,$9,0*
20,1,$1+$1,$8,$9,$2,$3,0*%
G04 Aperture macros list end*
%ADD10C,1.000000*%
%ADD11C,0.150000*%
%ADD12C,0.120000*%
%ADD13RoundRect,0.250000X1.100000X-0.412500X1.100000X0.412500X-1.100000X0.412500X-1.100000X-0.412500X0*%
%ADD14RoundRect,0.250001X1.074999X-0.462499X1.074999X0.462499X-1.074999X0.462499X-1.074999X-0.462499X0*%
%ADD15R,1.700000X1.700000*%
%ADD16O,1.700000X1.700000*%
%ADD17RoundRect,0.250000X-1.075000X0.400000X-1.075000X-0.400000X1.075000X-0.400000X1.075000X0.400000X0*%
%ADD18RoundRect,0.250001X-0.799999X-0.799999X0.799999X-0.799999X0.799999X0.799999X-0.799999X0.799999X0*%
%ADD19C,0.800000*%
%ADD20C,6.400000*%
%ADD21R,2.400000X1.600000*%
%ADD22O,2.400000X1.600000*%
%ADD23R,1.600000X2.400000*%
%ADD24O,1.600000X2.400000*%
%ADD25C,1.600000*%
%ADD26R,1.600000X1.600000*%
%ADD27R,0.600000X1.500000*%
%ADD28RoundRect,0.250000X0.412500X1.100000X-0.412500X1.100000X-0.412500X-1.100000X0.412500X-1.100000X0*%
%ADD29RoundRect,0.250001X-1.074999X0.462499X-1.074999X-0.462499X1.074999X-0.462499X1.074999X0.462499X0*%
%ADD30R,2.600000X2.600000*%
%ADD31C,2.600000*%
%ADD32C,1.500000*%
%ADD33RoundRect,0.250000X-0.550000X0.550000X-0.550000X-0.550000X0.550000X-0.550000X0.550000X0.550000X0*%
%ADD34RoundRect,0.250000X1.075000X-0.400000X1.075000X0.400000X-1.075000X0.400000X-1.075000X-0.400000X0*%
%ADD35RoundRect,0.250000X-0.550000X-0.550000X0.550000X-0.550000X0.550000X0.550000X-0.550000X0.550000X0*%
%ADD36R,2.200000X2.200000*%
%ADD37C,2.200000*%
G04 APERTURE END LIST*
D10*
X146050000Y-74930000D02*
X146050000Y-80010000D01*
X144780000Y-73660000D02*
X146050000Y-74930000D01*
X144145000Y-73660000D02*
X144780000Y-73660000D01*
X147320000Y-71120000D02*
X148590000Y-72390000D01*
X148590000Y-72390000D02*
X148590000Y-75565000D01*
X144145000Y-71120000D02*
X147320000Y-71120000D01*
X146050000Y-80010000D02*
X146685000Y-80010000D01*
D11*
X163157142Y-62825238D02*
X163204761Y-62872857D01*
X163252380Y-63015714D01*
X163252380Y-63110952D01*
X163204761Y-63253809D01*
X163109523Y-63349047D01*
X163014285Y-63396666D01*
X162823809Y-63444285D01*
X162680952Y-63444285D01*
X162490476Y-63396666D01*
X162395238Y-63349047D01*
X162300000Y-63253809D01*
X162252380Y-63110952D01*
X162252380Y-63015714D01*
X162300000Y-62872857D01*
X162347619Y-62825238D01*
X162966666Y-62444285D02*
X162966666Y-61968095D01*
X163252380Y-62539523D02*
X162252380Y-62206190D01*
X163252380Y-61872857D01*
X162252380Y-61063333D02*
X162252380Y-61539523D01*
X162728571Y-61587142D01*
X162680952Y-61539523D01*
X162633333Y-61444285D01*
X162633333Y-61206190D01*
X162680952Y-61110952D01*
X162728571Y-61063333D01*
X162823809Y-61015714D01*
X163061904Y-61015714D01*
X163157142Y-61063333D01*
X163204761Y-61110952D01*
X163252380Y-61206190D01*
X163252380Y-61444285D01*
X163204761Y-61539523D01*
X163157142Y-61587142D01*
X171902380Y-100845714D02*
X171426190Y-101179047D01*
X171902380Y-101417142D02*
X170902380Y-101417142D01*
X170902380Y-101036190D01*
X170950000Y-100940952D01*
X170997619Y-100893333D01*
X171092857Y-100845714D01*
X171235714Y-100845714D01*
X171330952Y-100893333D01*
X171378571Y-100940952D01*
X171426190Y-101036190D01*
X171426190Y-101417142D01*
X171997619Y-100655238D02*
X171997619Y-99893333D01*
X170902380Y-99798095D02*
X170902380Y-99226666D01*
X171902380Y-99512380D02*
X170902380Y-99512380D01*
X170902380Y-98988571D02*
X171902380Y-98321904D01*
X170902380Y-98321904D02*
X171902380Y-98988571D01*
X171997619Y-98179047D02*
X171997619Y-97417142D01*
X171902380Y-96655238D02*
X171902380Y-97226666D01*
X171902380Y-96940952D02*
X170902380Y-96940952D01*
X171045238Y-97036190D01*
X171140476Y-97131428D01*
X171188095Y-97226666D01*
X137757142Y-64206190D02*
X137804761Y-64253809D01*
X137852380Y-64396666D01*
X137852380Y-64491904D01*
X137804761Y-64634761D01*
X137709523Y-64730000D01*
X137614285Y-64777619D01*
X137423809Y-64825238D01*
X137280952Y-64825238D01*
X137090476Y-64777619D01*
X136995238Y-64730000D01*
X136900000Y-64634761D01*
X136852380Y-64491904D01*
X136852380Y-64396666D01*
X136900000Y-64253809D01*
X136947619Y-64206190D01*
X137566666Y-63825238D02*
X137566666Y-63349047D01*
X137852380Y-63920476D02*
X136852380Y-63587142D01*
X137852380Y-63253809D01*
X137852380Y-62349047D02*
X137376190Y-62682380D01*
X137852380Y-62920476D02*
X136852380Y-62920476D01*
X136852380Y-62539523D01*
X136900000Y-62444285D01*
X136947619Y-62396666D01*
X137042857Y-62349047D01*
X137185714Y-62349047D01*
X137280952Y-62396666D01*
X137328571Y-62444285D01*
X137376190Y-62539523D01*
X137376190Y-62920476D01*
X137328571Y-61920476D02*
X137328571Y-61587142D01*
X137852380Y-61444285D02*
X137852380Y-61920476D01*
X136852380Y-61920476D01*
X136852380Y-61444285D01*
X137328571Y-60682380D02*
X137328571Y-61015714D01*
X137852380Y-61015714D02*
X136852380Y-61015714D01*
X136852380Y-60539523D01*
X137852380Y-59634761D02*
X137852380Y-60206190D01*
X137852380Y-59920476D02*
X136852380Y-59920476D01*
X136995238Y-60015714D01*
X137090476Y-60110952D01*
X137138095Y-60206190D01*
X168237142Y-62825238D02*
X168284761Y-62872857D01*
X168332380Y-63015714D01*
X168332380Y-63110952D01*
X168284761Y-63253809D01*
X168189523Y-63349047D01*
X168094285Y-63396666D01*
X167903809Y-63444285D01*
X167760952Y-63444285D01*
X167570476Y-63396666D01*
X167475238Y-63349047D01*
X167380000Y-63253809D01*
X167332380Y-63110952D01*
X167332380Y-63015714D01*
X167380000Y-62872857D01*
X167427619Y-62825238D01*
X168046666Y-62444285D02*
X168046666Y-61968095D01*
X168332380Y-62539523D02*
X167332380Y-62206190D01*
X168332380Y-61872857D01*
X167332380Y-61110952D02*
X167332380Y-61301428D01*
X167380000Y-61396666D01*
X167427619Y-61444285D01*
X167570476Y-61539523D01*
X167760952Y-61587142D01*
X168141904Y-61587142D01*
X168237142Y-61539523D01*
X168284761Y-61491904D01*
X168332380Y-61396666D01*
X168332380Y-61206190D01*
X168284761Y-61110952D01*
X168237142Y-61063333D01*
X168141904Y-61015714D01*
X167903809Y-61015714D01*
X167808571Y-61063333D01*
X167760952Y-61110952D01*
X167713333Y-61206190D01*
X167713333Y-61396666D01*
X167760952Y-61491904D01*
X167808571Y-61539523D01*
X167903809Y-61587142D01*
X150716309Y-95607142D02*
X150668690Y-95654761D01*
X150525833Y-95702380D01*
X150430595Y-95702380D01*
X150287738Y-95654761D01*
X150192500Y-95559523D01*
X150144880Y-95464285D01*
X150097261Y-95273809D01*
X150097261Y-95130952D01*
X150144880Y-94940476D01*
X150192500Y-94845238D01*
X150287738Y-94750000D01*
X150430595Y-94702380D01*
X150525833Y-94702380D01*
X150668690Y-94750000D01*
X150716309Y-94797619D01*
X150906785Y-95797619D02*
X151668690Y-95797619D01*
X151859166Y-94797619D02*
X151906785Y-94750000D01*
X152002023Y-94702380D01*
X152240119Y-94702380D01*
X152335357Y-94750000D01*
X152382976Y-94797619D01*
X152430595Y-94892857D01*
X152430595Y-94988095D01*
X152382976Y-95130952D01*
X151811547Y-95702380D01*
X152430595Y-95702380D01*
X153335357Y-94702380D02*
X152859166Y-94702380D01*
X152811547Y-95178571D01*
X152859166Y-95130952D01*
X152954404Y-95083333D01*
X153192500Y-95083333D01*
X153287738Y-95130952D01*
X153335357Y-95178571D01*
X153382976Y-95273809D01*
X153382976Y-95511904D01*
X153335357Y-95607142D01*
X153287738Y-95654761D01*
X153192500Y-95702380D01*
X152954404Y-95702380D01*
X152859166Y-95654761D01*
X152811547Y-95607142D01*
X154287738Y-94702380D02*
X153811547Y-94702380D01*
X153763928Y-95178571D01*
X153811547Y-95130952D01*
X153906785Y-95083333D01*
X154144880Y-95083333D01*
X154240119Y-95130952D01*
X154287738Y-95178571D01*
X154335357Y-95273809D01*
X154335357Y-95511904D01*
X154287738Y-95607142D01*
X154240119Y-95654761D01*
X154144880Y-95702380D01*
X153906785Y-95702380D01*
X153811547Y-95654761D01*
X153763928Y-95607142D01*
X155287738Y-95702380D02*
X154716309Y-95702380D01*
X155002023Y-95702380D02*
X155002023Y-94702380D01*
X154906785Y-94845238D01*
X154811547Y-94940476D01*
X154716309Y-94988095D01*
X147917142Y-62825238D02*
X147964761Y-62872857D01*
X148012380Y-63015714D01*
X148012380Y-63110952D01*
X147964761Y-63253809D01*
X147869523Y-63349047D01*
X147774285Y-63396666D01*
X147583809Y-63444285D01*
X147440952Y-63444285D01*
X147250476Y-63396666D01*
X147155238Y-63349047D01*
X147060000Y-63253809D01*
X147012380Y-63110952D01*
X147012380Y-63015714D01*
X147060000Y-62872857D01*
X147107619Y-62825238D01*
X147726666Y-62444285D02*
X147726666Y-61968095D01*
X148012380Y-62539523D02*
X147012380Y-62206190D01*
X148012380Y-61872857D01*
X147107619Y-61587142D02*
X147060000Y-61539523D01*
X147012380Y-61444285D01*
X147012380Y-61206190D01*
X147060000Y-61110952D01*
X147107619Y-61063333D01*
X147202857Y-61015714D01*
X147298095Y-61015714D01*
X147440952Y-61063333D01*
X148012380Y-61634761D01*
X148012380Y-61015714D01*
X158077142Y-62825238D02*
X158124761Y-62872857D01*
X158172380Y-63015714D01*
X158172380Y-63110952D01*
X158124761Y-63253809D01*
X158029523Y-63349047D01*
X157934285Y-63396666D01*
X157743809Y-63444285D01*
X157600952Y-63444285D01*
X157410476Y-63396666D01*
X157315238Y-63349047D01*
X157220000Y-63253809D01*
X157172380Y-63110952D01*
X157172380Y-63015714D01*
X157220000Y-62872857D01*
X157267619Y-62825238D01*
X157886666Y-62444285D02*
X157886666Y-61968095D01*
X158172380Y-62539523D02*
X157172380Y-62206190D01*
X158172380Y-61872857D01*
X157505714Y-61110952D02*
X158172380Y-61110952D01*
X157124761Y-61349047D02*
X157839047Y-61587142D01*
X157839047Y-60968095D01*
X142629285Y-89352380D02*
X142295952Y-88876190D01*
X142057857Y-89352380D02*
X142057857Y-88352380D01*
X142438809Y-88352380D01*
X142534047Y-88400000D01*
X142581666Y-88447619D01*
X142629285Y-88542857D01*
X142629285Y-88685714D01*
X142581666Y-88780952D01*
X142534047Y-88828571D01*
X142438809Y-88876190D01*
X142057857Y-88876190D01*
X142819761Y-89447619D02*
X143581666Y-89447619D01*
X144295952Y-89352380D02*
X143819761Y-89352380D01*
X143819761Y-88352380D01*
X144629285Y-88828571D02*
X144962619Y-88828571D01*
X145105476Y-89352380D02*
X144629285Y-89352380D01*
X144629285Y-88352380D01*
X145105476Y-88352380D01*
X145534047Y-89352380D02*
X145534047Y-88352380D01*
X145772142Y-88352380D01*
X145915000Y-88400000D01*
X146010238Y-88495238D01*
X146057857Y-88590476D01*
X146105476Y-88780952D01*
X146105476Y-88923809D01*
X146057857Y-89114285D01*
X146010238Y-89209523D01*
X145915000Y-89304761D01*
X145772142Y-89352380D01*
X145534047Y-89352380D01*
X146295952Y-89447619D02*
X147057857Y-89447619D01*
X147295952Y-89352380D02*
X147295952Y-88352380D01*
X147534047Y-88352380D01*
X147676904Y-88400000D01*
X147772142Y-88495238D01*
X147819761Y-88590476D01*
X147867380Y-88780952D01*
X147867380Y-88923809D01*
X147819761Y-89114285D01*
X147772142Y-89209523D01*
X147676904Y-89304761D01*
X147534047Y-89352380D01*
X147295952Y-89352380D01*
X148343571Y-89352380D02*
X148534047Y-89352380D01*
X148629285Y-89304761D01*
X148676904Y-89257142D01*
X148772142Y-89114285D01*
X148819761Y-88923809D01*
X148819761Y-88542857D01*
X148772142Y-88447619D01*
X148724523Y-88400000D01*
X148629285Y-88352380D01*
X148438809Y-88352380D01*
X148343571Y-88400000D01*
X148295952Y-88447619D01*
X148248333Y-88542857D01*
X148248333Y-88780952D01*
X148295952Y-88876190D01*
X148343571Y-88923809D01*
X148438809Y-88971428D01*
X148629285Y-88971428D01*
X148724523Y-88923809D01*
X148772142Y-88876190D01*
X148819761Y-88780952D01*
X152997142Y-62825238D02*
X153044761Y-62872857D01*
X153092380Y-63015714D01*
X153092380Y-63110952D01*
X153044761Y-63253809D01*
X152949523Y-63349047D01*
X152854285Y-63396666D01*
X152663809Y-63444285D01*
X152520952Y-63444285D01*
X152330476Y-63396666D01*
X152235238Y-63349047D01*
X152140000Y-63253809D01*
X152092380Y-63110952D01*
X152092380Y-63015714D01*
X152140000Y-62872857D01*
X152187619Y-62825238D01*
X152806666Y-62444285D02*
X152806666Y-61968095D01*
X153092380Y-62539523D02*
X152092380Y-62206190D01*
X153092380Y-61872857D01*
X152092380Y-61634761D02*
X152092380Y-61015714D01*
X152473333Y-61349047D01*
X152473333Y-61206190D01*
X152520952Y-61110952D01*
X152568571Y-61063333D01*
X152663809Y-61015714D01*
X152901904Y-61015714D01*
X152997142Y-61063333D01*
X153044761Y-61110952D01*
X153092380Y-61206190D01*
X153092380Y-61491904D01*
X153044761Y-61587142D01*
X152997142Y-61634761D01*
X178397142Y-62825238D02*
X178444761Y-62872857D01*
X178492380Y-63015714D01*
X178492380Y-63110952D01*
X178444761Y-63253809D01*
X178349523Y-63349047D01*
X178254285Y-63396666D01*
X178063809Y-63444285D01*
X177920952Y-63444285D01*
X177730476Y-63396666D01*
X177635238Y-63349047D01*
X177540000Y-63253809D01*
X177492380Y-63110952D01*
X177492380Y-63015714D01*
X177540000Y-62872857D01*
X177587619Y-62825238D01*
X178206666Y-62444285D02*
X178206666Y-61968095D01*
X178492380Y-62539523D02*
X177492380Y-62206190D01*
X178492380Y-61872857D01*
X177920952Y-61396666D02*
X177873333Y-61491904D01*
X177825714Y-61539523D01*
X177730476Y-61587142D01*
X177682857Y-61587142D01*
X177587619Y-61539523D01*
X177540000Y-61491904D01*
X177492380Y-61396666D01*
X177492380Y-61206190D01*
X177540000Y-61110952D01*
X177587619Y-61063333D01*
X177682857Y-61015714D01*
X177730476Y-61015714D01*
X177825714Y-61063333D01*
X177873333Y-61110952D01*
X177920952Y-61206190D01*
X177920952Y-61396666D01*
X177968571Y-61491904D01*
X178016190Y-61539523D01*
X178111428Y-61587142D01*
X178301904Y-61587142D01*
X178397142Y-61539523D01*
X178444761Y-61491904D01*
X178492380Y-61396666D01*
X178492380Y-61206190D01*
X178444761Y-61110952D01*
X178397142Y-61063333D01*
X178301904Y-61015714D01*
X178111428Y-61015714D01*
X178016190Y-61063333D01*
X177968571Y-61110952D01*
X177920952Y-61206190D01*
X142837142Y-62825238D02*
X142884761Y-62872857D01*
X142932380Y-63015714D01*
X142932380Y-63110952D01*
X142884761Y-63253809D01*
X142789523Y-63349047D01*
X142694285Y-63396666D01*
X142503809Y-63444285D01*
X142360952Y-63444285D01*
X142170476Y-63396666D01*
X142075238Y-63349047D01*
X141980000Y-63253809D01*
X141932380Y-63110952D01*
X141932380Y-63015714D01*
X141980000Y-62872857D01*
X142027619Y-62825238D01*
X142646666Y-62444285D02*
X142646666Y-61968095D01*
X142932380Y-62539523D02*
X141932380Y-62206190D01*
X142932380Y-61872857D01*
X142932380Y-61015714D02*
X142932380Y-61587142D01*
X142932380Y-61301428D02*
X141932380Y-61301428D01*
X142075238Y-61396666D01*
X142170476Y-61491904D01*
X142218095Y-61587142D01*
X168092380Y-101060000D02*
X167616190Y-101393333D01*
X168092380Y-101631428D02*
X167092380Y-101631428D01*
X167092380Y-101250476D01*
X167140000Y-101155238D01*
X167187619Y-101107619D01*
X167282857Y-101060000D01*
X167425714Y-101060000D01*
X167520952Y-101107619D01*
X167568571Y-101155238D01*
X167616190Y-101250476D01*
X167616190Y-101631428D01*
X168044761Y-100679047D02*
X168092380Y-100536190D01*
X168092380Y-100298095D01*
X168044761Y-100202857D01*
X167997142Y-100155238D01*
X167901904Y-100107619D01*
X167806666Y-100107619D01*
X167711428Y-100155238D01*
X167663809Y-100202857D01*
X167616190Y-100298095D01*
X167568571Y-100488571D01*
X167520952Y-100583809D01*
X167473333Y-100631428D01*
X167378095Y-100679047D01*
X167282857Y-100679047D01*
X167187619Y-100631428D01*
X167140000Y-100583809D01*
X167092380Y-100488571D01*
X167092380Y-100250476D01*
X167140000Y-100107619D01*
X168187619Y-99917142D02*
X168187619Y-99155238D01*
X168092380Y-98917142D02*
X167092380Y-98917142D01*
X168092380Y-98345714D02*
X167520952Y-98774285D01*
X167092380Y-98345714D02*
X167663809Y-98917142D01*
X168092380Y-97393333D02*
X168092380Y-97964761D01*
X168092380Y-97679047D02*
X167092380Y-97679047D01*
X167235238Y-97774285D01*
X167330476Y-97869523D01*
X167378095Y-97964761D01*
X167092380Y-96774285D02*
X167092380Y-96679047D01*
X167140000Y-96583809D01*
X167187619Y-96536190D01*
X167282857Y-96488571D01*
X167473333Y-96440952D01*
X167711428Y-96440952D01*
X167901904Y-96488571D01*
X167997142Y-96536190D01*
X168044761Y-96583809D01*
X168092380Y-96679047D01*
X168092380Y-96774285D01*
X168044761Y-96869523D01*
X167997142Y-96917142D01*
X167901904Y-96964761D01*
X167711428Y-97012380D01*
X167473333Y-97012380D01*
X167282857Y-96964761D01*
X167187619Y-96917142D01*
X167140000Y-96869523D01*
X167092380Y-96774285D01*
X173317142Y-62825238D02*
X173364761Y-62872857D01*
X173412380Y-63015714D01*
X173412380Y-63110952D01*
X173364761Y-63253809D01*
X173269523Y-63349047D01*
X173174285Y-63396666D01*
X172983809Y-63444285D01*
X172840952Y-63444285D01*
X172650476Y-63396666D01*
X172555238Y-63349047D01*
X172460000Y-63253809D01*
X172412380Y-63110952D01*
X172412380Y-63015714D01*
X172460000Y-62872857D01*
X172507619Y-62825238D01*
X173126666Y-62444285D02*
X173126666Y-61968095D01*
X173412380Y-62539523D02*
X172412380Y-62206190D01*
X173412380Y-61872857D01*
X172412380Y-61634761D02*
X172412380Y-60968095D01*
X173412380Y-61396666D01*
X159982142Y-90400000D02*
X160029761Y-90447619D01*
X160077380Y-90590476D01*
X160077380Y-90685714D01*
X160029761Y-90828571D01*
X159934523Y-90923809D01*
X159839285Y-90971428D01*
X159648809Y-91019047D01*
X159505952Y-91019047D01*
X159315476Y-90971428D01*
X159220238Y-90923809D01*
X159125000Y-90828571D01*
X159077380Y-90685714D01*
X159077380Y-90590476D01*
X159125000Y-90447619D01*
X159172619Y-90400000D01*
X160172619Y-90209523D02*
X160172619Y-89447619D01*
X160077380Y-88685714D02*
X160077380Y-89257142D01*
X160077380Y-88971428D02*
X159077380Y-88971428D01*
X159220238Y-89066666D01*
X159315476Y-89161904D01*
X159363095Y-89257142D01*
X159077380Y-88066666D02*
X159077380Y-87971428D01*
X159125000Y-87876190D01*
X159172619Y-87828571D01*
X159267857Y-87780952D01*
X159458333Y-87733333D01*
X159696428Y-87733333D01*
X159886904Y-87780952D01*
X159982142Y-87828571D01*
X160029761Y-87876190D01*
X160077380Y-87971428D01*
X160077380Y-88066666D01*
X160029761Y-88161904D01*
X159982142Y-88209523D01*
X159886904Y-88257142D01*
X159696428Y-88304761D01*
X159458333Y-88304761D01*
X159267857Y-88257142D01*
X159172619Y-88209523D01*
X159125000Y-88161904D01*
X159077380Y-88066666D01*
X159077380Y-87114285D02*
X159077380Y-87019047D01*
X159125000Y-86923809D01*
X159172619Y-86876190D01*
X159267857Y-86828571D01*
X159458333Y-86780952D01*
X159696428Y-86780952D01*
X159886904Y-86828571D01*
X159982142Y-86876190D01*
X160029761Y-86923809D01*
X160077380Y-87019047D01*
X160077380Y-87114285D01*
X160029761Y-87209523D01*
X159982142Y-87257142D01*
X159886904Y-87304761D01*
X159696428Y-87352380D01*
X159458333Y-87352380D01*
X159267857Y-87304761D01*
X159172619Y-87257142D01*
X159125000Y-87209523D01*
X159077380Y-87114285D01*
X175712380Y-100964761D02*
X175236190Y-101298095D01*
X175712380Y-101536190D02*
X174712380Y-101536190D01*
X174712380Y-101155238D01*
X174760000Y-101060000D01*
X174807619Y-101012380D01*
X174902857Y-100964761D01*
X175045714Y-100964761D01*
X175140952Y-101012380D01*
X175188571Y-101060000D01*
X175236190Y-101155238D01*
X175236190Y-101536190D01*
X175807619Y-100774285D02*
X175807619Y-100012380D01*
X175712380Y-99202857D02*
X175236190Y-99536190D01*
X175712380Y-99774285D02*
X174712380Y-99774285D01*
X174712380Y-99393333D01*
X174760000Y-99298095D01*
X174807619Y-99250476D01*
X174902857Y-99202857D01*
X175045714Y-99202857D01*
X175140952Y-99250476D01*
X175188571Y-99298095D01*
X175236190Y-99393333D01*
X175236190Y-99774285D01*
X174712380Y-98869523D02*
X175712380Y-98202857D01*
X174712380Y-98202857D02*
X175712380Y-98869523D01*
X175807619Y-98060000D02*
X175807619Y-97298095D01*
X175712380Y-96536190D02*
X175712380Y-97107619D01*
X175712380Y-96821904D02*
X174712380Y-96821904D01*
X174855238Y-96917142D01*
X174950476Y-97012380D01*
X174998095Y-97107619D01*
D12*
X166460000Y-62941252D02*
X166460000Y-61518748D01*
X163740000Y-62941252D02*
X163740000Y-61518748D01*
X178755000Y-124380000D02*
X181925000Y-124380000D01*
X181925000Y-124380000D02*
X181925000Y-120320000D01*
X178755000Y-120320000D02*
X178755000Y-124380000D01*
X161230000Y-79950000D02*
X162560000Y-79950000D01*
X161230000Y-81280000D02*
X161230000Y-79950000D01*
X161230000Y-85150000D02*
X163890000Y-85150000D01*
X161230000Y-82550000D02*
X163890000Y-82550000D01*
X163890000Y-82550000D02*
X163890000Y-85150000D01*
X161230000Y-82550000D02*
X161230000Y-85150000D01*
X172805000Y-104686263D02*
X172805000Y-106133737D01*
X170095000Y-104686263D02*
X170095000Y-106133737D01*
G36*
X144936369Y-127919383D02*
G01*
X145056225Y-127933670D01*
X145139569Y-127957483D01*
X145212792Y-128013442D01*
X145237200Y-128095595D01*
X145212792Y-128177749D01*
X145139569Y-128233708D01*
X145056225Y-128257520D01*
X144936369Y-128271808D01*
X144780000Y-128276570D01*
X144623631Y-128271808D01*
X144503775Y-128257520D01*
X144420431Y-128233708D01*
X144347208Y-128177749D01*
X144322800Y-128095595D01*
X144347208Y-128013442D01*
X144420431Y-127957483D01*
X144503775Y-127933670D01*
X144623631Y-127919383D01*
X144780000Y-127914620D01*
X144936369Y-127919383D01*
G37*
G36*
X144694077Y-128737541D02*
G01*
X144774444Y-128772664D01*
X144819092Y-128832394D01*
X144833975Y-128917920D01*
X144822863Y-129009995D01*
X144335500Y-129009995D01*
X144322800Y-128917920D01*
X144337484Y-128832394D01*
X144381537Y-128772664D01*
X144458531Y-128737541D01*
X144572037Y-128725833D01*
X144694077Y-128737541D01*
G37*
G36*
X143672057Y-127233715D02*
G01*
X144780000Y-126495087D01*
X145887943Y-127233715D01*
X145887943Y-131314913D01*
X143672057Y-131314913D01*
X143672057Y-130405408D01*
X144184687Y-130405408D01*
X144193741Y-130498426D01*
X144220902Y-130579041D01*
X144266171Y-130647254D01*
X144329547Y-130703064D01*
X144411030Y-130746472D01*
X144510621Y-130777478D01*
X144628319Y-130796082D01*
X144764125Y-130802283D01*
X144907372Y-130796007D01*
X145031520Y-130777181D01*
X145136567Y-130745803D01*
X145222516Y-130701874D01*
X145289364Y-130645393D01*
X145337113Y-130576362D01*
X145365763Y-130494779D01*
X145375313Y-130400645D01*
X145365391Y-130294680D01*
X145335625Y-130199033D01*
X145189575Y-130199033D01*
X145226484Y-130289520D01*
X145238788Y-130373658D01*
X145225602Y-130451269D01*
X145186047Y-130514769D01*
X145120122Y-130564158D01*
X145027826Y-130599436D01*
X144909161Y-130620602D01*
X144764125Y-130627658D01*
X144629761Y-130621264D01*
X144519826Y-130602082D01*
X144434322Y-130570111D01*
X144373247Y-130525352D01*
X144336602Y-130467806D01*
X144324387Y-130397470D01*
X144330737Y-130360958D01*
X144578387Y-130360958D01*
X144578387Y-130191095D01*
X144219612Y-130191095D01*
X144193419Y-130292299D01*
X144184687Y-130405408D01*
X143672057Y-130405408D01*
X143672057Y-129952970D01*
X144200562Y-129952970D01*
X144338675Y-129952970D01*
X144338675Y-129775170D01*
X145221325Y-129775170D01*
X145221325Y-129952970D01*
X145359438Y-129952970D01*
X145359438Y-129413220D01*
X145221325Y-129413220D01*
X145221325Y-129591020D01*
X144338675Y-129591020D01*
X144338675Y-129413220D01*
X144200562Y-129413220D01*
X144200562Y-129952970D01*
X143672057Y-129952970D01*
X143672057Y-128917920D01*
X144184687Y-128917920D01*
X144188215Y-129009290D01*
X144198799Y-129099248D01*
X144216437Y-129187795D01*
X145359438Y-129187795D01*
X145359438Y-129009995D01*
X144962563Y-129009995D01*
X144970500Y-128917920D01*
X144959917Y-128804767D01*
X144928167Y-128712957D01*
X144875250Y-128642489D01*
X144799226Y-128592659D01*
X144698156Y-128562761D01*
X144572037Y-128552795D01*
X144448124Y-128562497D01*
X144349435Y-128591601D01*
X144275969Y-128640108D01*
X144225257Y-128709782D01*
X144194830Y-128802386D01*
X144184687Y-128917920D01*
X143672057Y-128917920D01*
X143672057Y-128095595D01*
X144184687Y-128095595D01*
X144198181Y-128205927D01*
X144238662Y-128292445D01*
X144312084Y-128358128D01*
X144424400Y-128405952D01*
X144522472Y-128427559D01*
X144641006Y-128440524D01*
X144780000Y-128444845D01*
X144918994Y-128440524D01*
X145037528Y-128427559D01*
X145135600Y-128405952D01*
X145247916Y-128358128D01*
X145321338Y-128292445D01*
X145361819Y-128205927D01*
X145375313Y-128095595D01*
X145361819Y-127985264D01*
X145321338Y-127898745D01*
X145247916Y-127833063D01*
X145135600Y-127785239D01*
X145037528Y-127763632D01*
X144918994Y-127750667D01*
X144780000Y-127746345D01*
X144641006Y-127750667D01*
X144522472Y-127763632D01*
X144424400Y-127785239D01*
X144312084Y-127833063D01*
X144238662Y-127898745D01*
X144198181Y-127985264D01*
X144184687Y-128095595D01*
X143672057Y-128095595D01*
X143672057Y-127233715D01*
G37*
X141060000Y-62941252D02*
X141060000Y-61518748D01*
X138340000Y-62941252D02*
X138340000Y-61518748D01*
X168820000Y-62941252D02*
X168820000Y-61518748D01*
X171540000Y-62941252D02*
X171540000Y-61518748D01*
G36*
X157480000Y-126784585D02*
G01*
X158587943Y-127523214D01*
X158587943Y-131556786D01*
X157480000Y-132295415D01*
X156372057Y-131556786D01*
X156372057Y-130647281D01*
X156884687Y-130647281D01*
X156893741Y-130740299D01*
X156920902Y-130820914D01*
X156966171Y-130889127D01*
X157029547Y-130944938D01*
X157111030Y-130988346D01*
X157210621Y-131019352D01*
X157328319Y-131037955D01*
X157464125Y-131044156D01*
X157607372Y-131037881D01*
X157731520Y-131019054D01*
X157836567Y-130987676D01*
X157922516Y-130943747D01*
X157989364Y-130887267D01*
X158037113Y-130818235D01*
X158065763Y-130736653D01*
X158075313Y-130642519D01*
X158065391Y-130536553D01*
X158035625Y-130440906D01*
X157889575Y-130440906D01*
X157926484Y-130531394D01*
X157938788Y-130615531D01*
X157925602Y-130693142D01*
X157886047Y-130756642D01*
X157820122Y-130806031D01*
X157727826Y-130841309D01*
X157609161Y-130862476D01*
X157464125Y-130869531D01*
X157329761Y-130863137D01*
X157219826Y-130843955D01*
X157134322Y-130811984D01*
X157073247Y-130767226D01*
X157036602Y-130709679D01*
X157024387Y-130639344D01*
X157030737Y-130602831D01*
X157278387Y-130602831D01*
X157278387Y-130432969D01*
X156919612Y-130432969D01*
X156893419Y-130534172D01*
X156884687Y-130647281D01*
X156372057Y-130647281D01*
X156372057Y-130029744D01*
X156900562Y-130029744D01*
X158059438Y-130302794D01*
X158059438Y-130124994D01*
X157754638Y-130064669D01*
X157754638Y-129793206D01*
X158059438Y-129732881D01*
X158059438Y-129548731D01*
X156900562Y-129823369D01*
X156900562Y-130029744D01*
X156372057Y-130029744D01*
X156372057Y-129432844D01*
X156900562Y-129432844D01*
X158059438Y-129432844D01*
X158059438Y-129258219D01*
X157218062Y-129258219D01*
X157218062Y-129255044D01*
X158059438Y-129007394D01*
X158059438Y-128829594D01*
X156900562Y-128829594D01*
X156900562Y-128996281D01*
X157741938Y-128996281D01*
X157741938Y-129001044D01*
X156900562Y-129248694D01*
X156900562Y-129432844D01*
X156372057Y-129432844D01*
X156372057Y-128583531D01*
X156900562Y-128583531D01*
X158059438Y-128583531D01*
X158059438Y-128035844D01*
X157921325Y-128035844D01*
X157921325Y-128405731D01*
X156900562Y-128405731D01*
X156900562Y-128583531D01*
X156372057Y-128583531D01*
X156372057Y-127523214D01*
X157480000Y-126784585D01*
G37*
G36*
X157619700Y-130037681D02*
G01*
X157075187Y-129929731D01*
X157075187Y-129928144D01*
X157619700Y-129820194D01*
X157619700Y-130037681D01*
G37*
X141224000Y-110236000D02*
X181356000Y-110236000D01*
X181356000Y-110236000D02*
X181356000Y-113284000D01*
X181356000Y-113284000D02*
X141224000Y-113284000D01*
X141224000Y-113284000D02*
X141224000Y-110236000D01*
X184404000Y-110236000D02*
X181356000Y-110236000D01*
X181356000Y-110236000D02*
X181356000Y-70104000D01*
X181356000Y-70104000D02*
X184404000Y-70104000D01*
X184404000Y-70104000D02*
X184404000Y-110236000D01*
X141224000Y-70104000D02*
X143256000Y-70104000D01*
X143256000Y-70104000D02*
X143256000Y-74676000D01*
X143256000Y-74676000D02*
X141224000Y-74676000D01*
X141224000Y-74676000D02*
X141224000Y-70104000D01*
X138176000Y-70104000D02*
X141224000Y-70104000D01*
X141224000Y-70104000D02*
X141224000Y-110236000D01*
X141224000Y-110236000D02*
X138176000Y-110236000D01*
X138176000Y-110236000D02*
X138176000Y-70104000D01*
X181356000Y-70104000D02*
X141224000Y-70104000D01*
X141224000Y-70104000D02*
X141224000Y-67056000D01*
X141224000Y-67056000D02*
X181356000Y-67056000D01*
X181356000Y-67056000D02*
X181356000Y-70104000D01*
G36*
X175406226Y-129174169D02*
G01*
X175530581Y-129193484D01*
X175617188Y-129225675D01*
X175693388Y-129301280D01*
X175718788Y-129412206D01*
X175704500Y-129483644D01*
X174817087Y-129483644D01*
X174802800Y-129412206D01*
X174827406Y-129302272D01*
X174901225Y-129226469D01*
X174983069Y-129193837D01*
X175097369Y-129174258D01*
X175244125Y-129167731D01*
X175406226Y-129174169D01*
G37*
G36*
X176367943Y-125451923D02*
G01*
X176367943Y-131693311D01*
X174152057Y-132358077D01*
X174152057Y-131180681D01*
X174680562Y-131180681D01*
X175839438Y-131180681D01*
X175839438Y-130632994D01*
X175701325Y-130632994D01*
X175701325Y-131002881D01*
X174680562Y-131002881D01*
X174680562Y-131180681D01*
X174152057Y-131180681D01*
X174152057Y-130415506D01*
X174680562Y-130415506D01*
X175839438Y-130415506D01*
X175839438Y-129859881D01*
X175701325Y-129859881D01*
X175701325Y-130237706D01*
X175283813Y-130237706D01*
X175283813Y-129875756D01*
X175148875Y-129875756D01*
X175148875Y-130237706D01*
X174818675Y-130237706D01*
X174818675Y-129859881D01*
X174680562Y-129859881D01*
X174680562Y-130415506D01*
X174152057Y-130415506D01*
X174152057Y-129412206D01*
X174664687Y-129412206D01*
X174672625Y-129537222D01*
X174696437Y-129661444D01*
X175823563Y-129661444D01*
X175847375Y-129541984D01*
X175855313Y-129412206D01*
X175841620Y-129280444D01*
X175800544Y-129177256D01*
X175725733Y-129098873D01*
X175610838Y-129041525D01*
X175510119Y-129015508D01*
X175387882Y-128999897D01*
X175244125Y-128994694D01*
X175095743Y-129000796D01*
X174971273Y-129019102D01*
X174870715Y-129049611D01*
X174794069Y-129092325D01*
X174722190Y-129171259D01*
X174679063Y-129277886D01*
X174664687Y-129412206D01*
X174152057Y-129412206D01*
X174152057Y-128085056D01*
X174680562Y-128085056D01*
X174818675Y-128085056D01*
X174818675Y-127848519D01*
X175839438Y-127848519D01*
X175839438Y-127670719D01*
X174818675Y-127670719D01*
X174818675Y-127434181D01*
X174680562Y-127434181D01*
X174680562Y-128085056D01*
X174152057Y-128085056D01*
X174152057Y-127299244D01*
X174680562Y-127299244D01*
X175248887Y-127076994D01*
X175839438Y-127304006D01*
X175839438Y-127116681D01*
X175375888Y-126972219D01*
X175375888Y-126969044D01*
X175839438Y-126822994D01*
X175839438Y-126629319D01*
X175248887Y-126854744D01*
X174680562Y-126632494D01*
X174680562Y-126816644D01*
X175125062Y-126962694D01*
X175125062Y-126965869D01*
X174680562Y-127110331D01*
X174680562Y-127299244D01*
X174152057Y-127299244D01*
X174152057Y-126116689D01*
X176367943Y-125451923D01*
G37*
G36*
X155079700Y-130045619D02*
G01*
X154535187Y-129937669D01*
X154535187Y-129936081D01*
X155079700Y-129828131D01*
X155079700Y-130045619D01*
G37*
G36*
X154940000Y-126776648D02*
G01*
X156047943Y-127515276D01*
X156047943Y-131564724D01*
X154940000Y-132303352D01*
X153832057Y-131564724D01*
X153832057Y-130655219D01*
X154344687Y-130655219D01*
X154353741Y-130748236D01*
X154380902Y-130828852D01*
X154426171Y-130897064D01*
X154489547Y-130952875D01*
X154571030Y-130996283D01*
X154670621Y-131027289D01*
X154788319Y-131045893D01*
X154924125Y-131052094D01*
X155067372Y-131045818D01*
X155191520Y-131026991D01*
X155296567Y-130995613D01*
X155382516Y-130951684D01*
X155449364Y-130895204D01*
X155497113Y-130826173D01*
X155525763Y-130744590D01*
X155535313Y-130650456D01*
X155525391Y-130544491D01*
X155495625Y-130448844D01*
X155349575Y-130448844D01*
X155386484Y-130539331D01*
X155398788Y-130623469D01*
X155385602Y-130701080D01*
X155346047Y-130764580D01*
X155280122Y-130813969D01*
X155187826Y-130849247D01*
X155069161Y-130870413D01*
X154924125Y-130877469D01*
X154789761Y-130871075D01*
X154679826Y-130851892D01*
X154594322Y-130819922D01*
X154533247Y-130775163D01*
X154496602Y-130717616D01*
X154484387Y-130647281D01*
X154490737Y-130610769D01*
X154738387Y-130610769D01*
X154738387Y-130440906D01*
X154379612Y-130440906D01*
X154353419Y-130542109D01*
X154344687Y-130655219D01*
X153832057Y-130655219D01*
X153832057Y-130037681D01*
X154360562Y-130037681D01*
X155519438Y-130310731D01*
X155519438Y-130132931D01*
X155214638Y-130072606D01*
X155214638Y-129801144D01*
X155519438Y-129740819D01*
X155519438Y-129556669D01*
X154360562Y-129831306D01*
X154360562Y-130037681D01*
X153832057Y-130037681D01*
X153832057Y-129440781D01*
X154360562Y-129440781D01*
X155519438Y-129440781D01*
X155519438Y-129266156D01*
X154678062Y-129266156D01*
X154678062Y-129262981D01*
X155519438Y-129015331D01*
X155519438Y-128837531D01*
X154360562Y-128837531D01*
X154360562Y-129004219D01*
X155201938Y-129004219D01*
X155201938Y-129008981D01*
X154360562Y-129256631D01*
X154360562Y-129440781D01*
X153832057Y-129440781D01*
X153832057Y-128027906D01*
X154360562Y-128027906D01*
X154360562Y-128207294D01*
X154828875Y-128207294D01*
X154828875Y-128489869D01*
X154360562Y-128489869D01*
X154360562Y-128662906D01*
X155519438Y-128662906D01*
X155519438Y-128489869D01*
X154963813Y-128489869D01*
X154963813Y-128207294D01*
X155519438Y-128207294D01*
X155519438Y-128027906D01*
X154360562Y-128027906D01*
X153832057Y-128027906D01*
X153832057Y-127515276D01*
X154940000Y-126776648D01*
G37*
X166190000Y-93900000D02*
X166190000Y-88900000D01*
X179250000Y-91900000D02*
X179250000Y-85900000D01*
X159461252Y-93890000D02*
X158038748Y-93890000D01*
X159461252Y-96610000D02*
X158038748Y-96610000D01*
X151220000Y-62941252D02*
X151220000Y-61518748D01*
X148500000Y-62941252D02*
X148500000Y-61518748D01*
G36*
X149860000Y-132080154D02*
G01*
X148752057Y-131341526D01*
X148752057Y-130547776D01*
X149280562Y-130547776D01*
X149886988Y-130236626D01*
X150439438Y-130539838D01*
X150439438Y-130349338D01*
X149931438Y-130077876D01*
X149931438Y-130074701D01*
X150439438Y-130074701D01*
X150439438Y-129896901D01*
X149280562Y-129896901D01*
X149280562Y-130074701D01*
X149836187Y-130074701D01*
X149836187Y-130077876D01*
X149280562Y-130355688D01*
X149280562Y-130547776D01*
X148752057Y-130547776D01*
X148752057Y-129703226D01*
X149280562Y-129703226D01*
X149418675Y-129703226D01*
X149418675Y-129333338D01*
X150439438Y-129333338D01*
X150439438Y-129155538D01*
X149280562Y-129155538D01*
X149280562Y-129703226D01*
X148752057Y-129703226D01*
X148752057Y-128684051D01*
X149264687Y-128684051D01*
X149274609Y-128790016D01*
X149304375Y-128885663D01*
X149450425Y-128885663D01*
X149413516Y-128795176D01*
X149401212Y-128711038D01*
X149414398Y-128633427D01*
X149453953Y-128569927D01*
X149519878Y-128520538D01*
X149612174Y-128485261D01*
X149730839Y-128464094D01*
X149875875Y-128457038D01*
X150010239Y-128463432D01*
X150120174Y-128482615D01*
X150205678Y-128514585D01*
X150266753Y-128559344D01*
X150303398Y-128616891D01*
X150315613Y-128687226D01*
X150309263Y-128723738D01*
X150061613Y-128723738D01*
X150061613Y-128893601D01*
X150420388Y-128893601D01*
X150446581Y-128792398D01*
X150455313Y-128679288D01*
X150446259Y-128586271D01*
X150419098Y-128505656D01*
X150373829Y-128437443D01*
X150310453Y-128381632D01*
X150228970Y-128338224D01*
X150129379Y-128307218D01*
X150011681Y-128288615D01*
X149875875Y-128282413D01*
X149732628Y-128288689D01*
X149608480Y-128307516D01*
X149503433Y-128338894D01*
X149417484Y-128382823D01*
X149350636Y-128439303D01*
X149302887Y-128508334D01*
X149274237Y-128589917D01*
X149264687Y-128684051D01*
X148752057Y-128684051D01*
X148752057Y-127790288D01*
X149264687Y-127790288D01*
X149277387Y-127913161D01*
X149315487Y-128008728D01*
X149378987Y-128076991D01*
X149467887Y-128117948D01*
X149582187Y-128131601D01*
X149704822Y-128114535D01*
X149802850Y-128063338D01*
X149859471Y-128005306D01*
X149915033Y-127922227D01*
X149969538Y-127814101D01*
X150016986Y-127743545D01*
X150081015Y-127701212D01*
X150161625Y-127687101D01*
X150226713Y-127698213D01*
X150275925Y-127731551D01*
X150306881Y-127784335D01*
X150317200Y-127853788D01*
X150300134Y-127977216D01*
X150248938Y-128099851D01*
X150407688Y-128099851D01*
X150434146Y-128014479D01*
X150450021Y-127925579D01*
X150455313Y-127833151D01*
X150446493Y-127738342D01*
X150420035Y-127659231D01*
X150375938Y-127595820D01*
X150280688Y-127533312D01*
X150153688Y-127512476D01*
X150040975Y-127528946D01*
X149947313Y-127578357D01*
X149892279Y-127632949D01*
X149839362Y-127708885D01*
X149788562Y-127806163D01*
X149747684Y-127874227D01*
X149701250Y-127919670D01*
X149644894Y-127945268D01*
X149574250Y-127953801D01*
X149500233Y-127942688D01*
X149446456Y-127909351D01*
X149413714Y-127856170D01*
X149402800Y-127785526D01*
X149414265Y-127692569D01*
X149448661Y-127604198D01*
X149505987Y-127520413D01*
X149340887Y-127520413D01*
X149298554Y-127601905D01*
X149273154Y-127691863D01*
X149264687Y-127790288D01*
X148752057Y-127790288D01*
X148752057Y-126999846D01*
X150967943Y-126999846D01*
X150967943Y-131341526D01*
X149860000Y-132080154D01*
G37*
X163890000Y-100620000D02*
X153610000Y-100620000D01*
X163890000Y-101870000D02*
X163890000Y-100620000D01*
X153610000Y-105120000D02*
X163890000Y-105120000D01*
X153610000Y-100620000D02*
X153610000Y-105120000D01*
X163950000Y-108120000D02*
X163950000Y-97620000D01*
X163890000Y-105120000D02*
X163890000Y-103870000D01*
X153550000Y-108120000D02*
X163950000Y-108120000D01*
X163950000Y-97620000D02*
X153550000Y-97620000D01*
X153550000Y-97620000D02*
X153550000Y-108120000D01*
X163890000Y-101870000D02*
G75*
G03*
X163890000Y-103870000I0J-1000000D01*
G01*
G36*
X152690998Y-77029381D02*
G01*
X152749735Y-77083885D01*
X152769314Y-77174725D01*
X152756614Y-77258267D01*
X152718514Y-77315219D01*
X152653427Y-77347961D01*
X152559764Y-77358875D01*
X152513727Y-77358875D01*
X152513727Y-77023912D01*
X152593102Y-77011212D01*
X152690998Y-77029381D01*
G37*
G36*
X153548777Y-77920850D02*
G01*
X153444002Y-77941488D01*
X153328114Y-77904181D01*
X153286839Y-77798613D01*
X153299738Y-77726778D01*
X153338433Y-77676375D01*
X153405703Y-77646609D01*
X153504327Y-77636688D01*
X153548777Y-77636688D01*
X153548777Y-77920850D01*
G37*
G36*
X152678033Y-77506909D02*
G01*
X152745502Y-77546200D01*
X152784792Y-77614066D01*
X152797889Y-77712888D01*
X152785785Y-77810320D01*
X152749470Y-77877194D01*
X152688550Y-77915889D01*
X152602627Y-77928788D01*
X152513727Y-77916088D01*
X152513727Y-77493813D01*
X152580402Y-77493813D01*
X152678033Y-77506909D01*
G37*
G36*
X155821944Y-78577943D02*
G01*
X150986684Y-78577943D01*
X150623764Y-78033563D01*
X152335927Y-78033563D01*
X152423416Y-78051201D01*
X152512316Y-78061785D01*
X152602627Y-78065313D01*
X152715163Y-78055611D01*
X152807238Y-78026507D01*
X152878852Y-77978000D01*
X152930005Y-77910090D01*
X152960696Y-77822778D01*
X152963013Y-77798613D01*
X153118564Y-77798613D01*
X153139797Y-77911325D01*
X153203495Y-77995463D01*
X153267966Y-78034268D01*
X153348134Y-78057551D01*
X153444002Y-78065313D01*
X153540486Y-78059668D01*
X153633091Y-78042735D01*
X153721814Y-78014513D01*
X153721814Y-77522388D01*
X153715023Y-77411262D01*
X153708447Y-77384275D01*
X153912314Y-77384275D01*
X154075827Y-77384275D01*
X154075827Y-77811313D01*
X154089916Y-77934344D01*
X154132183Y-78011338D01*
X154210566Y-78051819D01*
X154333002Y-78065313D01*
X154420711Y-78060550D01*
X154499689Y-78046263D01*
X154499689Y-77901800D01*
X154431824Y-77919659D01*
X154364752Y-77925613D01*
X154269502Y-77899419D01*
X154248864Y-77779563D01*
X154248864Y-77384275D01*
X154515564Y-77384275D01*
X154706064Y-77384275D01*
X154869577Y-77384275D01*
X154869577Y-77811313D01*
X154883666Y-77934344D01*
X154925933Y-78011338D01*
X155004316Y-78051819D01*
X155126752Y-78065313D01*
X155214461Y-78060550D01*
X155293439Y-78046263D01*
X155293439Y-77901800D01*
X155225574Y-77919659D01*
X155158502Y-77925613D01*
X155063252Y-77899419D01*
X155042614Y-77779563D01*
X155042614Y-77384275D01*
X155309314Y-77384275D01*
X155309314Y-77255687D01*
X155042614Y-77255687D01*
X155042614Y-76954062D01*
X154869577Y-76954062D01*
X154869577Y-77255687D01*
X154706064Y-77255687D01*
X154706064Y-77384275D01*
X154515564Y-77384275D01*
X154515564Y-77255687D01*
X154248864Y-77255687D01*
X154248864Y-76954062D01*
X154075827Y-76954062D01*
X154075827Y-77255687D01*
X153912314Y-77255687D01*
X153912314Y-77384275D01*
X153708447Y-77384275D01*
X153694650Y-77327654D01*
X153660695Y-77271562D01*
X153571200Y-77223937D01*
X153424952Y-77208062D01*
X153339580Y-77213707D01*
X153250680Y-77230640D01*
X153158252Y-77258862D01*
X153158252Y-77395387D01*
X153250327Y-77363637D01*
X153336052Y-77344587D01*
X153415427Y-77338237D01*
X153524170Y-77367606D01*
X153548777Y-77490638D01*
X153548777Y-77517625D01*
X153504327Y-77517625D01*
X153386058Y-77525651D01*
X153289485Y-77549728D01*
X153214608Y-77589856D01*
X153142575Y-77678161D01*
X153118564Y-77798613D01*
X152963013Y-77798613D01*
X152970927Y-77716063D01*
X152955647Y-77609700D01*
X152909808Y-77519213D01*
X152840950Y-77452934D01*
X152756614Y-77419200D01*
X152756614Y-77417612D01*
X152831028Y-77385069D01*
X152889170Y-77328712D01*
X152926675Y-77253306D01*
X152939177Y-77163612D01*
X152925334Y-77059599D01*
X152883805Y-76978700D01*
X152814590Y-76920915D01*
X152717689Y-76886244D01*
X152593102Y-76874687D01*
X152462133Y-76882625D01*
X152335927Y-76906437D01*
X152335927Y-78033563D01*
X150623764Y-78033563D01*
X150359181Y-77636688D01*
X151499314Y-77636688D01*
X151756489Y-77636688D01*
X151756489Y-77970062D01*
X151926352Y-77970062D01*
X151926352Y-77636688D01*
X152181939Y-77636688D01*
X152181939Y-77504925D01*
X151926352Y-77504925D01*
X151926352Y-77176312D01*
X151756489Y-77176312D01*
X151756489Y-77504925D01*
X151499314Y-77504925D01*
X151499314Y-77636688D01*
X150359181Y-77636688D01*
X150248056Y-77470000D01*
X150986684Y-76362057D01*
X155821944Y-76362057D01*
X155821944Y-78577943D01*
G37*
G36*
X160159700Y-130479580D02*
G01*
X159615187Y-130371630D01*
X159615187Y-130370042D01*
X160159700Y-130262092D01*
X160159700Y-130479580D01*
G37*
G36*
X161127943Y-126342687D02*
G01*
X161127943Y-131998685D01*
X160020000Y-132737313D01*
X158912057Y-131998685D01*
X158912057Y-131089180D01*
X159424687Y-131089180D01*
X159433741Y-131182197D01*
X159460902Y-131262812D01*
X159506171Y-131331025D01*
X159569547Y-131386836D01*
X159651030Y-131430244D01*
X159750621Y-131461250D01*
X159868319Y-131479853D01*
X160004125Y-131486055D01*
X160147372Y-131479779D01*
X160271520Y-131460952D01*
X160376567Y-131429574D01*
X160462516Y-131385645D01*
X160529364Y-131329165D01*
X160577113Y-131260133D01*
X160605763Y-131178551D01*
X160615313Y-131084417D01*
X160605391Y-130978451D01*
X160575625Y-130882805D01*
X160429575Y-130882805D01*
X160466484Y-130973292D01*
X160478788Y-131057430D01*
X160465602Y-131135041D01*
X160426047Y-131198541D01*
X160360122Y-131247930D01*
X160267826Y-131283207D01*
X160149161Y-131304374D01*
X160004125Y-131311430D01*
X159869761Y-131305035D01*
X159759826Y-131285853D01*
X159674322Y-131253883D01*
X159613247Y-131209124D01*
X159576602Y-131151577D01*
X159564387Y-131081242D01*
X159570737Y-131044730D01*
X159818387Y-131044730D01*
X159818387Y-130874867D01*
X159459612Y-130874867D01*
X159433419Y-130976070D01*
X159424687Y-131089180D01*
X158912057Y-131089180D01*
X158912057Y-130471642D01*
X159440562Y-130471642D01*
X160599438Y-130744692D01*
X160599438Y-130566892D01*
X160294638Y-130506567D01*
X160294638Y-130235105D01*
X160599438Y-130174780D01*
X160599438Y-129990630D01*
X159440562Y-130265267D01*
X159440562Y-130471642D01*
X158912057Y-130471642D01*
X158912057Y-129438180D01*
X159440562Y-129438180D01*
X160281938Y-129438180D01*
X160281938Y-129442942D01*
X159440562Y-129690592D01*
X159440562Y-129874742D01*
X160599438Y-129874742D01*
X160599438Y-129700117D01*
X159758062Y-129700117D01*
X159758062Y-129696942D01*
X160599438Y-129449292D01*
X160599438Y-129271492D01*
X159440562Y-129271492D01*
X159440562Y-129438180D01*
X158912057Y-129438180D01*
X158912057Y-128022130D01*
X159424687Y-128022130D01*
X159428215Y-128113499D01*
X159438799Y-128203457D01*
X159456437Y-128292005D01*
X160599438Y-128292005D01*
X160599438Y-128114205D01*
X160118425Y-128114205D01*
X160118425Y-128052292D01*
X160149381Y-127956248D01*
X160194030Y-127925887D01*
X160266063Y-127899892D01*
X160599438Y-127807817D01*
X160599438Y-127625255D01*
X160275588Y-127723680D01*
X160150969Y-127774480D01*
X160072388Y-127834805D01*
X160069213Y-127834805D01*
X160023770Y-127757017D01*
X159958881Y-127701455D01*
X159874545Y-127668117D01*
X159770762Y-127657005D01*
X159661842Y-127666794D01*
X159574265Y-127696163D01*
X159508031Y-127745111D01*
X159461729Y-127815049D01*
X159433948Y-127907389D01*
X159424687Y-128022130D01*
X158912057Y-128022130D01*
X158912057Y-127525242D01*
X159440562Y-127525242D01*
X160008887Y-127302992D01*
X160599438Y-127530005D01*
X160599438Y-127342680D01*
X160135888Y-127198217D01*
X160135888Y-127195042D01*
X160599438Y-127048992D01*
X160599438Y-126855317D01*
X160008887Y-127080742D01*
X159440562Y-126858492D01*
X159440562Y-127042642D01*
X159885062Y-127188692D01*
X159885062Y-127191867D01*
X159440562Y-127336330D01*
X159440562Y-127525242D01*
X158912057Y-127525242D01*
X158912057Y-126342687D01*
X161127943Y-126342687D01*
G37*
G36*
X159868394Y-127842742D02*
G01*
X159932687Y-127880842D01*
X159968406Y-127949105D01*
X159980312Y-128052292D01*
X159980312Y-128114205D01*
X159575500Y-128114205D01*
X159562800Y-128022130D01*
X159575302Y-127937595D01*
X159612806Y-127877667D01*
X159677298Y-127841948D01*
X159770762Y-127830042D01*
X159868394Y-127842742D01*
G37*
X138115000Y-119460000D02*
X138115000Y-123520000D01*
X141285000Y-123520000D02*
X141285000Y-119460000D01*
X141285000Y-119460000D02*
X138115000Y-119460000D01*
G36*
X169136272Y-126842414D02*
G01*
X169217658Y-126870460D01*
X169296953Y-126932611D01*
X169323385Y-127018097D01*
X169296953Y-127102394D01*
X169217658Y-127164782D01*
X169136272Y-127193357D01*
X169033084Y-127210502D01*
X168908095Y-127216217D01*
X168784164Y-127210502D01*
X168681612Y-127193357D01*
X168600437Y-127164782D01*
X168521142Y-127102394D01*
X168494710Y-127018097D01*
X168495299Y-127016192D01*
X168761410Y-127016192D01*
X168799510Y-127094297D01*
X168889045Y-127122872D01*
X168977628Y-127094297D01*
X169014775Y-127016192D01*
X168977628Y-126940945D01*
X168889045Y-126911417D01*
X168799510Y-126940945D01*
X168761410Y-127016192D01*
X168495299Y-127016192D01*
X168521142Y-126932611D01*
X168600437Y-126870460D01*
X168681612Y-126842414D01*
X168784164Y-126825587D01*
X168908095Y-126819977D01*
X169033084Y-126825587D01*
X169136272Y-126842414D01*
G37*
G36*
X168825227Y-130742373D02*
G01*
X168860232Y-130812381D01*
X168871900Y-130915727D01*
X168871900Y-130967163D01*
X168517570Y-130967163D01*
X168512807Y-130929062D01*
X168511855Y-130896678D01*
X168522809Y-130812381D01*
X168555670Y-130746183D01*
X168611867Y-130703320D01*
X168692830Y-130689033D01*
X168825227Y-130742373D01*
G37*
G36*
X170037945Y-125419125D02*
G01*
X170037945Y-131714108D01*
X167782055Y-132390875D01*
X167782055Y-130896678D01*
X168308020Y-130896678D01*
X168309925Y-130963352D01*
X168314687Y-131043363D01*
X168324212Y-131126230D01*
X168338500Y-131201478D01*
X169500550Y-131201478D01*
X169500550Y-130967163D01*
X169066210Y-130967163D01*
X169066210Y-130845243D01*
X169174081Y-130780711D01*
X169280523Y-130720465D01*
X169388393Y-130665934D01*
X169500550Y-130618548D01*
X169500550Y-130372803D01*
X169375773Y-130427095D01*
X169244328Y-130492818D01*
X169118598Y-130563303D01*
X169009060Y-130631883D01*
X168955244Y-130548539D01*
X168881425Y-130492818D01*
X168792842Y-130461385D01*
X168694735Y-130450908D01*
X168602104Y-130458766D01*
X168522332Y-130482340D01*
X168401365Y-130572828D01*
X168359931Y-130637598D01*
X168330880Y-130713798D01*
X168313735Y-130800475D01*
X168308020Y-130896678D01*
X167782055Y-130896678D01*
X167782055Y-128919288D01*
X168321355Y-128919288D01*
X168395650Y-129001203D01*
X168464230Y-129102168D01*
X168523285Y-129208848D01*
X168567100Y-129307908D01*
X168761410Y-129231708D01*
X168714737Y-129115503D01*
X168647110Y-128993583D01*
X169306240Y-128993583D01*
X169306240Y-129241233D01*
X169500550Y-129241233D01*
X169500550Y-128524952D01*
X169306240Y-128524952D01*
X169306240Y-128759267D01*
X168321355Y-128759267D01*
X168321355Y-128919288D01*
X167782055Y-128919288D01*
X167782055Y-127989647D01*
X168294685Y-127989647D01*
X168304210Y-128088946D01*
X168332785Y-128188720D01*
X168381362Y-128282779D01*
X168450895Y-128364932D01*
X168614725Y-128248727D01*
X168525190Y-128128712D01*
X168498520Y-128012507D01*
X168537572Y-127902017D01*
X168649015Y-127858202D01*
X168749980Y-127893445D01*
X168852850Y-127982980D01*
X168907381Y-128039177D01*
X168964293Y-128099185D01*
X169024776Y-128159192D01*
X169090023Y-128215390D01*
X169160746Y-128264920D01*
X169237660Y-128304925D01*
X169321480Y-128331357D01*
X169412920Y-128340167D01*
X169452925Y-128341120D01*
X169500550Y-128336357D01*
X169500550Y-127566737D01*
X169306240Y-127566737D01*
X169306240Y-128073467D01*
X169243375Y-128053465D01*
X169175748Y-128004887D01*
X169110978Y-127943927D01*
X169056685Y-127886777D01*
X168961435Y-127789622D01*
X168858565Y-127703897D01*
X168749027Y-127642937D01*
X168631870Y-127620077D01*
X168484232Y-127650557D01*
X168378505Y-127732472D01*
X168315640Y-127850582D01*
X168294685Y-127989647D01*
X167782055Y-127989647D01*
X167782055Y-127018097D01*
X168294685Y-127018097D01*
X168311618Y-127138959D01*
X168362418Y-127239924D01*
X168447085Y-127320992D01*
X168533048Y-127367665D01*
X168638537Y-127401002D01*
X168763553Y-127421005D01*
X168908095Y-127427672D01*
X169054304Y-127421124D01*
X169180510Y-127401479D01*
X169286714Y-127368737D01*
X169372915Y-127322897D01*
X169457582Y-127242464D01*
X169508382Y-127140864D01*
X169525315Y-127018097D01*
X169508382Y-126895331D01*
X169457582Y-126793731D01*
X169372915Y-126713297D01*
X169286714Y-126667458D01*
X169180510Y-126634716D01*
X169054304Y-126615071D01*
X168908095Y-126608522D01*
X168762779Y-126615071D01*
X168637347Y-126634716D01*
X168531798Y-126667458D01*
X168446132Y-126713297D01*
X168361995Y-126793731D01*
X168311512Y-126895331D01*
X168294685Y-127018097D01*
X167782055Y-127018097D01*
X167782055Y-126095892D01*
X170037945Y-125419125D01*
G37*
X146007000Y-52317000D02*
X146054000Y-52271000D01*
X173985000Y-54409000D02*
X174032000Y-54363000D01*
X164030000Y-54615000D02*
X164065000Y-54579000D01*
X145814000Y-52101000D02*
X145849000Y-52066000D01*
X143710000Y-54615000D02*
X143745000Y-54579000D01*
X148790000Y-54615000D02*
X148825000Y-54579000D01*
X188020000Y-48680000D02*
X137100000Y-48680000D01*
X176294000Y-52101000D02*
X176329000Y-52066000D01*
X143505000Y-54409000D02*
X143552000Y-54363000D01*
X188020000Y-49240000D02*
X137100000Y-49240000D01*
X158745000Y-54409000D02*
X158792000Y-54363000D01*
X188020000Y-55641000D02*
X137100000Y-55641000D01*
X166134000Y-52101000D02*
X166169000Y-52066000D01*
X181567000Y-52317000D02*
X181614000Y-52271000D01*
X158950000Y-54615000D02*
X158985000Y-54579000D01*
X163825000Y-54409000D02*
X163872000Y-54363000D01*
X188020000Y-50740000D02*
X137100000Y-50740000D01*
X153870000Y-54615000D02*
X153905000Y-54579000D01*
X168905000Y-54409000D02*
X168952000Y-54363000D01*
X181374000Y-52101000D02*
X181409000Y-52066000D01*
X138425000Y-54409000D02*
X138472000Y-54363000D01*
X166327000Y-52317000D02*
X166374000Y-52271000D01*
X188260000Y-49180000D02*
X188260000Y-48440000D01*
X179270000Y-54615000D02*
X179305000Y-54579000D01*
X140927000Y-52317000D02*
X140974000Y-52271000D01*
X179065000Y-54409000D02*
X179112000Y-54363000D01*
X153665000Y-54409000D02*
X153712000Y-54363000D01*
X176487000Y-52317000D02*
X176534000Y-52271000D01*
X161247000Y-52317000D02*
X161294000Y-52271000D01*
X155974000Y-52101000D02*
X156009000Y-52066000D01*
X161054000Y-52101000D02*
X161089000Y-52066000D01*
X174190000Y-54615000D02*
X174225000Y-54579000D01*
X188260000Y-48440000D02*
X187760000Y-48440000D01*
X169110000Y-54615000D02*
X169145000Y-54579000D01*
X188020000Y-58601000D02*
X137100000Y-58601000D01*
X138630000Y-54615000D02*
X138665000Y-54579000D01*
X140734000Y-52101000D02*
X140769000Y-52066000D01*
X188020000Y-58601000D02*
X188020000Y-48680000D01*
X171407000Y-52317000D02*
X171454000Y-52271000D01*
X151087000Y-52317000D02*
X151134000Y-52271000D01*
X156167000Y-52317000D02*
X156214000Y-52271000D01*
X171214000Y-52101000D02*
X171249000Y-52066000D01*
X150894000Y-52101000D02*
X150929000Y-52066000D01*
X148585000Y-54409000D02*
X148632000Y-54363000D01*
X137100000Y-58601000D02*
X137100000Y-48680000D01*
X183884999Y-52656000D02*
G75*
G03*
X183884573Y-54023042I1535001J-684000D01*
G01*
X186955000Y-54024000D02*
G75*
G03*
X186955427Y-52656958I-1534993J684001D01*
G01*
X186104000Y-51805000D02*
G75*
G03*
X185391195Y-51659747I-683999J-1535001D01*
G01*
X185420000Y-51660000D02*
G75*
G03*
X184736682Y-51805244I0J-1680000D01*
G01*
X184736000Y-54875000D02*
G75*
G03*
X186103042Y-54875427I684001J1534993D01*
G01*
X176940000Y-53340000D02*
G75*
G03*
X176940000Y-53340000I-1680000J0D01*
G01*
X171860000Y-53340000D02*
G75*
G03*
X171860000Y-53340000I-1680000J0D01*
G01*
X166780000Y-53340000D02*
G75*
G03*
X166780000Y-53340000I-1680000J0D01*
G01*
X141380000Y-53340000D02*
G75*
G03*
X141380000Y-53340000I-1680000J0D01*
G01*
X182020000Y-53340000D02*
G75*
G03*
X182020000Y-53340000I-1680000J0D01*
G01*
X156620000Y-53340000D02*
G75*
G03*
X156620000Y-53340000I-1680000J0D01*
G01*
X151540000Y-53340000D02*
G75*
G03*
X151540000Y-53340000I-1680000J0D01*
G01*
X146460000Y-53340000D02*
G75*
G03*
X146460000Y-53340000I-1680000J0D01*
G01*
X161700000Y-53340000D02*
G75*
G03*
X161700000Y-53340000I-1680000J0D01*
G01*
X161380000Y-62941252D02*
X161380000Y-61518748D01*
X158660000Y-62941252D02*
X158660000Y-61518748D01*
G36*
X163667943Y-126342687D02*
G01*
X163667943Y-131998685D01*
X162560000Y-132737313D01*
X161452057Y-131998685D01*
X161452057Y-131089180D01*
X161964687Y-131089180D01*
X161973741Y-131182197D01*
X162000902Y-131262812D01*
X162046171Y-131331025D01*
X162109547Y-131386836D01*
X162191030Y-131430244D01*
X162290621Y-131461250D01*
X162408319Y-131479853D01*
X162544125Y-131486055D01*
X162687372Y-131479779D01*
X162811520Y-131460952D01*
X162916567Y-131429574D01*
X163002516Y-131385645D01*
X163069364Y-131329165D01*
X163117113Y-131260133D01*
X163145763Y-131178551D01*
X163155313Y-131084417D01*
X163145391Y-130978451D01*
X163115625Y-130882805D01*
X162969575Y-130882805D01*
X163006484Y-130973292D01*
X163018788Y-131057430D01*
X163005602Y-131135041D01*
X162966047Y-131198541D01*
X162900122Y-131247930D01*
X162807826Y-131283207D01*
X162689161Y-131304374D01*
X162544125Y-131311430D01*
X162409761Y-131305035D01*
X162299826Y-131285853D01*
X162214322Y-131253883D01*
X162153247Y-131209124D01*
X162116602Y-131151577D01*
X162104387Y-131081242D01*
X162110737Y-131044730D01*
X162358387Y-131044730D01*
X162358387Y-130874867D01*
X161999612Y-130874867D01*
X161973419Y-130976070D01*
X161964687Y-131089180D01*
X161452057Y-131089180D01*
X161452057Y-130471642D01*
X161980562Y-130471642D01*
X163139438Y-130744692D01*
X163139438Y-130566892D01*
X162834638Y-130506567D01*
X162834638Y-130235105D01*
X163139438Y-130174780D01*
X163139438Y-129990630D01*
X161980562Y-130265267D01*
X161980562Y-130471642D01*
X161452057Y-130471642D01*
X161452057Y-129874742D01*
X161980562Y-129874742D01*
X163139438Y-129874742D01*
X163139438Y-129700117D01*
X162298062Y-129700117D01*
X162298062Y-129696942D01*
X163139438Y-129449292D01*
X163139438Y-129271492D01*
X161980562Y-129271492D01*
X161980562Y-129438180D01*
X162821938Y-129438180D01*
X162821938Y-129442942D01*
X161980562Y-129690592D01*
X161980562Y-129874742D01*
X161452057Y-129874742D01*
X161452057Y-128311055D01*
X161980562Y-128311055D01*
X162118675Y-128311055D01*
X162118675Y-128074517D01*
X163139438Y-128074517D01*
X163139438Y-127896717D01*
X162118675Y-127896717D01*
X162118675Y-127660180D01*
X161980562Y-127660180D01*
X161980562Y-128311055D01*
X161452057Y-128311055D01*
X161452057Y-127525242D01*
X161980562Y-127525242D01*
X162548887Y-127302992D01*
X163139438Y-127530005D01*
X163139438Y-127342680D01*
X162675888Y-127198217D01*
X162675888Y-127195042D01*
X163139438Y-127048992D01*
X163139438Y-126855317D01*
X162548887Y-127080742D01*
X161980562Y-126858492D01*
X161980562Y-127042642D01*
X162425062Y-127188692D01*
X162425062Y-127191867D01*
X161980562Y-127336330D01*
X161980562Y-127525242D01*
X161452057Y-127525242D01*
X161452057Y-126342687D01*
X163667943Y-126342687D01*
G37*
G36*
X162699700Y-130479580D02*
G01*
X162155187Y-130371630D01*
X162155187Y-130370042D01*
X162699700Y-130262092D01*
X162699700Y-130479580D01*
G37*
X156150000Y-82550000D02*
X158810000Y-82550000D01*
X156150000Y-82550000D02*
X156150000Y-85150000D01*
X156150000Y-79950000D02*
X157480000Y-79950000D01*
X156150000Y-85150000D02*
X158810000Y-85150000D01*
X158810000Y-82550000D02*
X158810000Y-85150000D01*
X156150000Y-81280000D02*
X156150000Y-79950000D01*
X189170000Y-72330000D02*
X190500000Y-72330000D01*
X189170000Y-108010000D02*
X194370000Y-108010000D01*
X191770000Y-74930000D02*
X191770000Y-72330000D01*
X189170000Y-74930000D02*
X191770000Y-74930000D01*
X189170000Y-73660000D02*
X189170000Y-72330000D01*
X194370000Y-72330000D02*
X194370000Y-108010000D01*
X189170000Y-74930000D02*
X189170000Y-108010000D01*
X191770000Y-72330000D02*
X194370000Y-72330000D01*
X147530000Y-80620000D02*
X143200000Y-80620000D01*
X147530000Y-79400000D02*
X143200000Y-79400000D01*
X143425000Y-93433737D02*
X143425000Y-91986263D01*
X146135000Y-93433737D02*
X146135000Y-91986263D01*
X156300000Y-62941252D02*
X156300000Y-61518748D01*
X153580000Y-62941252D02*
X153580000Y-61518748D01*
G36*
X150228939Y-80010000D02*
G01*
X150234231Y-80002062D01*
X152170761Y-80002062D01*
X152176962Y-80143449D01*
X152195565Y-80265984D01*
X152226571Y-80369668D01*
X152269979Y-80454500D01*
X152325790Y-80520480D01*
X152394003Y-80567609D01*
X152474618Y-80595887D01*
X152567636Y-80605313D01*
X152662533Y-80599139D01*
X152709652Y-80589438D01*
X153004198Y-80589438D01*
X153178823Y-80589438D01*
X153178823Y-79748062D01*
X153181998Y-79748062D01*
X153429648Y-80589438D01*
X153607448Y-80589438D01*
X153607448Y-80573563D01*
X153785248Y-80573563D01*
X153904707Y-80597375D01*
X154034486Y-80605313D01*
X154166248Y-80591620D01*
X154269436Y-80550544D01*
X154347818Y-80475733D01*
X154405167Y-80360838D01*
X154431184Y-80260119D01*
X154446795Y-80137882D01*
X154451998Y-79994125D01*
X154445896Y-79845743D01*
X154427590Y-79721273D01*
X154397081Y-79620715D01*
X154354367Y-79544069D01*
X154275433Y-79472190D01*
X154168806Y-79429063D01*
X154034486Y-79414687D01*
X153909470Y-79422625D01*
X153785248Y-79446437D01*
X153785248Y-80573563D01*
X153607448Y-80573563D01*
X153607448Y-79430562D01*
X153440761Y-79430562D01*
X153440761Y-80271938D01*
X153435998Y-80271938D01*
X153188348Y-79430562D01*
X153004198Y-79430562D01*
X153004198Y-80589438D01*
X152709652Y-80589438D01*
X152752491Y-80580618D01*
X152837511Y-80549750D01*
X152837511Y-79898875D01*
X152467623Y-79898875D01*
X152467623Y-80033813D01*
X152667648Y-80033813D01*
X152667648Y-80449738D01*
X152572398Y-80468788D01*
X152475561Y-80441800D01*
X152404123Y-80360838D01*
X152371491Y-80272996D01*
X152351912Y-80153404D01*
X152345386Y-80002062D01*
X152352265Y-79854160D01*
X152372902Y-79738537D01*
X152407298Y-79655194D01*
X152486276Y-79579589D01*
X152599386Y-79554387D01*
X152696620Y-79563912D01*
X152797823Y-79592487D01*
X152797823Y-79449612D01*
X152700589Y-79423419D01*
X152599386Y-79414687D01*
X152468417Y-79430386D01*
X152361261Y-79477482D01*
X152277917Y-79555975D01*
X152231036Y-79636838D01*
X152197550Y-79738141D01*
X152177458Y-79859882D01*
X152170761Y-80002062D01*
X150234231Y-80002062D01*
X150967568Y-78902057D01*
X155841061Y-78902057D01*
X155841061Y-81117943D01*
X150967568Y-81117943D01*
X150346414Y-80186213D01*
X151480198Y-80186213D01*
X151956448Y-80186213D01*
X151956448Y-80054450D01*
X151480198Y-80054450D01*
X151480198Y-80186213D01*
X150346414Y-80186213D01*
X150228939Y-80010000D01*
G37*
G36*
X154144420Y-79577406D02*
G01*
X154220223Y-79651225D01*
X154252855Y-79733069D01*
X154272434Y-79847369D01*
X154278961Y-79994125D01*
X154272522Y-80156226D01*
X154253208Y-80280581D01*
X154221017Y-80367188D01*
X154145412Y-80443388D01*
X154034486Y-80468788D01*
X153963048Y-80454500D01*
X153963048Y-79567087D01*
X154034486Y-79552800D01*
X154144420Y-79577406D01*
G37*
X178980000Y-62941252D02*
X178980000Y-61518748D01*
X181700000Y-62941252D02*
X181700000Y-61518748D01*
X130609000Y-100335000D02*
X130563000Y-100288000D01*
X130609000Y-110495000D02*
X130563000Y-110448000D01*
X128301000Y-108186000D02*
X128266000Y-108151000D01*
X128301000Y-98026000D02*
X128266000Y-97991000D01*
X131841000Y-91380000D02*
X131841000Y-121980000D01*
X124640000Y-91140000D02*
X124640000Y-91640000D01*
X128301000Y-118346000D02*
X128266000Y-118311000D01*
X130815000Y-115370000D02*
X130779000Y-115335000D01*
X128517000Y-107993000D02*
X128471000Y-107946000D01*
X128517000Y-102913000D02*
X128471000Y-102866000D01*
X125440000Y-91380000D02*
X125440000Y-121980000D01*
X130609000Y-120655000D02*
X130563000Y-120608000D01*
X124880000Y-91380000D02*
X124880000Y-121980000D01*
X126940000Y-91380000D02*
X126940000Y-121980000D01*
X130609000Y-115575000D02*
X130563000Y-115528000D01*
X128517000Y-113073000D02*
X128471000Y-113026000D01*
X128301000Y-113266000D02*
X128266000Y-113231000D01*
X130609000Y-105415000D02*
X130563000Y-105368000D01*
X128517000Y-118153000D02*
X128471000Y-118106000D01*
X134801000Y-121980000D02*
X124880000Y-121980000D01*
X130815000Y-120450000D02*
X130779000Y-120415000D01*
X128517000Y-97833000D02*
X128471000Y-97786000D01*
X130815000Y-105210000D02*
X130779000Y-105175000D01*
X128301000Y-103106000D02*
X128266000Y-103071000D01*
X125380000Y-91140000D02*
X124640000Y-91140000D01*
X134801000Y-91380000D02*
X134801000Y-121980000D01*
X130815000Y-100130000D02*
X130779000Y-100095000D01*
X130815000Y-110290000D02*
X130779000Y-110255000D01*
X134801000Y-91380000D02*
X124880000Y-91380000D01*
X127860000Y-93980000D02*
G75*
G03*
X128005244Y-94663318I1680000J0D01*
G01*
X131075000Y-94664000D02*
G75*
G03*
X131075427Y-93296958I-1534993J684001D01*
G01*
X128005000Y-93296000D02*
G75*
G03*
X127859747Y-94008805I1535001J-683999D01*
G01*
X130224000Y-92445000D02*
G75*
G03*
X128856958Y-92444573I-684001J-1534993D01*
G01*
X128856000Y-95515001D02*
G75*
G03*
X130223042Y-95515427I684000J1535001D01*
G01*
X131220000Y-109220000D02*
G75*
G03*
X131220000Y-109220000I-1680000J0D01*
G01*
X131220000Y-99060000D02*
G75*
G03*
X131220000Y-99060000I-1680000J0D01*
G01*
X131220000Y-114300000D02*
G75*
G03*
X131220000Y-114300000I-1680000J0D01*
G01*
X131220000Y-104140000D02*
G75*
G03*
X131220000Y-104140000I-1680000J0D01*
G01*
X131220000Y-119380000D02*
G75*
G03*
X131220000Y-119380000I-1680000J0D01*
G01*
G36*
X139846226Y-129158294D02*
G01*
X139970581Y-129177609D01*
X140057188Y-129209800D01*
X140133388Y-129285405D01*
X140158788Y-129396331D01*
X140144500Y-129467769D01*
X139257087Y-129467769D01*
X139242800Y-129396331D01*
X139267406Y-129286397D01*
X139341225Y-129210594D01*
X139423069Y-129177962D01*
X139537369Y-129158383D01*
X139684125Y-129151856D01*
X139846226Y-129158294D01*
G37*
G36*
X139645849Y-126838869D02*
G01*
X139730515Y-126886494D01*
X139758738Y-126965869D01*
X139744847Y-127025995D01*
X139703175Y-127066675D01*
X139624197Y-127089892D01*
X139498387Y-127097631D01*
X139373967Y-127089694D01*
X139295981Y-127065881D01*
X139254905Y-127023416D01*
X139241212Y-126959519D01*
X139255897Y-126898797D01*
X139299950Y-126856331D01*
X139380516Y-126831328D01*
X139504737Y-126822994D01*
X139645849Y-126838869D01*
G37*
G36*
X138592057Y-132342202D02*
G01*
X138592057Y-131164806D01*
X139120562Y-131164806D01*
X140279438Y-131164806D01*
X140279438Y-130617119D01*
X140141325Y-130617119D01*
X140141325Y-130987006D01*
X139120562Y-130987006D01*
X139120562Y-131164806D01*
X138592057Y-131164806D01*
X138592057Y-130399631D01*
X139120562Y-130399631D01*
X140279438Y-130399631D01*
X140279438Y-129844006D01*
X140141325Y-129844006D01*
X140141325Y-130221831D01*
X139723813Y-130221831D01*
X139723813Y-129859881D01*
X139588875Y-129859881D01*
X139588875Y-130221831D01*
X139258675Y-130221831D01*
X139258675Y-129844006D01*
X139120562Y-129844006D01*
X139120562Y-130399631D01*
X138592057Y-130399631D01*
X138592057Y-129396331D01*
X139104687Y-129396331D01*
X139112625Y-129521347D01*
X139136437Y-129645569D01*
X140263563Y-129645569D01*
X140287375Y-129526109D01*
X140295313Y-129396331D01*
X140281620Y-129264569D01*
X140240544Y-129161381D01*
X140165733Y-129082998D01*
X140050838Y-129025650D01*
X139950119Y-128999633D01*
X139827882Y-128984022D01*
X139684125Y-128978819D01*
X139535743Y-128984921D01*
X139411273Y-129003227D01*
X139310715Y-129033736D01*
X139234069Y-129076450D01*
X139162190Y-129155384D01*
X139119063Y-129262011D01*
X139104687Y-129396331D01*
X138592057Y-129396331D01*
X138592057Y-127808831D01*
X139104687Y-127808831D01*
X139112625Y-127933847D01*
X139136437Y-128058069D01*
X140263563Y-128058069D01*
X140287375Y-127938609D01*
X140295313Y-127808831D01*
X140281620Y-127677069D01*
X140240544Y-127573881D01*
X140165733Y-127495498D01*
X140050838Y-127438150D01*
X139950119Y-127412133D01*
X139827882Y-127396522D01*
X139684125Y-127391319D01*
X139535743Y-127397421D01*
X139411273Y-127415727D01*
X139310715Y-127446236D01*
X139234069Y-127488950D01*
X139162190Y-127567884D01*
X139119063Y-127674511D01*
X139104687Y-127808831D01*
X138592057Y-127808831D01*
X138592057Y-126959519D01*
X139104687Y-126959519D01*
X139115183Y-127056268D01*
X139146668Y-127134849D01*
X139199144Y-127195262D01*
X139274374Y-127238037D01*
X139374122Y-127263701D01*
X139498387Y-127272256D01*
X139626005Y-127264583D01*
X139727340Y-127241565D01*
X139802394Y-127203200D01*
X139872045Y-127117277D01*
X139895263Y-126997619D01*
X139878197Y-126909116D01*
X139827000Y-126827756D01*
X139827000Y-126822994D01*
X139942182Y-126832431D01*
X140029494Y-126850158D01*
X140088938Y-126876175D01*
X140140134Y-126935508D01*
X140157200Y-127023019D01*
X140146088Y-127113506D01*
X140112750Y-127200819D01*
X140263563Y-127200819D01*
X140287375Y-127103584D01*
X140295313Y-127002381D01*
X140280827Y-126888280D01*
X140237369Y-126799975D01*
X140157200Y-126733498D01*
X140032581Y-126684881D01*
X139952264Y-126667518D01*
X139858155Y-126655116D01*
X139750254Y-126647674D01*
X139628562Y-126645194D01*
X139488366Y-126649559D01*
X139372578Y-126662656D01*
X139281198Y-126684484D01*
X139214225Y-126715044D01*
X139153371Y-126773252D01*
X139116858Y-126854744D01*
X139104687Y-126959519D01*
X138592057Y-126959519D01*
X138592057Y-126132564D01*
X140807943Y-125467798D01*
X140807943Y-131677436D01*
X138592057Y-132342202D01*
G37*
G36*
X139846226Y-127570794D02*
G01*
X139970581Y-127590109D01*
X140057188Y-127622300D01*
X140133388Y-127697905D01*
X140158788Y-127808831D01*
X140144500Y-127880269D01*
X139257087Y-127880269D01*
X139242800Y-127808831D01*
X139267406Y-127698897D01*
X139341225Y-127623094D01*
X139423069Y-127590462D01*
X139537369Y-127570883D01*
X139684125Y-127564356D01*
X139846226Y-127570794D01*
G37*
G36*
X143583157Y-107390759D02*
G01*
X143583157Y-106401879D01*
X144362487Y-106401879D01*
X144714912Y-106401879D01*
X144642681Y-106467760D01*
X144550606Y-106538404D01*
X144452181Y-106604285D01*
X144362487Y-106654291D01*
X144362487Y-106878129D01*
X144464087Y-106818598D01*
X144521237Y-106779505D01*
X144578387Y-106736841D01*
X144634545Y-106691994D01*
X144688719Y-106646354D01*
X144780000Y-106560629D01*
X144856200Y-106631273D01*
X144941925Y-106709060D01*
X145029238Y-106784466D01*
X145108613Y-106849554D01*
X145108613Y-106614604D01*
X145037969Y-106570154D01*
X144960975Y-106516973D01*
X144883981Y-106459823D01*
X144813338Y-106401879D01*
X145464213Y-106401879D01*
X145430875Y-106205029D01*
X144362487Y-106205029D01*
X144362487Y-106401879D01*
X143583157Y-106401879D01*
X143583157Y-105833554D01*
X144345025Y-105833554D01*
X144351375Y-105921660D01*
X144366456Y-105987541D01*
X144383125Y-106031198D01*
X144394237Y-106052629D01*
X144551400Y-106027229D01*
X144530762Y-105974841D01*
X144514887Y-105876416D01*
X144541875Y-105800216D01*
X144645062Y-105770054D01*
X145454688Y-105770054D01*
X145454688Y-105368416D01*
X145292763Y-105368416D01*
X145292763Y-105574791D01*
X144659350Y-105574791D01*
X144523817Y-105590269D01*
X144425194Y-105636704D01*
X144365067Y-105716873D01*
X144345025Y-105833554D01*
X143583157Y-105833554D01*
X143583157Y-104987416D01*
X144341850Y-104987416D01*
X144347208Y-105074134D01*
X144363281Y-105150135D01*
X144410112Y-105262054D01*
X144564100Y-105212841D01*
X144529175Y-105132673D01*
X144511712Y-105006466D01*
X144534136Y-104893159D01*
X144601406Y-104816760D01*
X144669933Y-104784569D01*
X144755923Y-104765255D01*
X144859375Y-104758816D01*
X144948275Y-104764174D01*
X145021300Y-104780248D01*
X145125281Y-104835810D01*
X145180844Y-104913598D01*
X145197513Y-105003291D01*
X145180844Y-105121560D01*
X145140363Y-105209666D01*
X145295938Y-105260466D01*
X145314988Y-105227923D01*
X145338800Y-105174741D01*
X145358644Y-105100923D01*
X145367375Y-105006466D01*
X145358842Y-104913399D01*
X145333244Y-104827873D01*
X145291175Y-104751673D01*
X145233231Y-104686585D01*
X145160008Y-104633602D01*
X145072100Y-104593716D01*
X144970103Y-104568713D01*
X144854613Y-104560379D01*
X144738626Y-104567225D01*
X144636728Y-104587763D01*
X144548920Y-104621994D01*
X144475200Y-104669916D01*
X144401117Y-104753877D01*
X144356667Y-104859711D01*
X144341850Y-104987416D01*
X143583157Y-104987416D01*
X143583157Y-104084129D01*
X144345025Y-104084129D01*
X144349391Y-104171838D01*
X144362487Y-104244466D01*
X144410112Y-104350035D01*
X144481550Y-104407979D01*
X144568862Y-104425441D01*
X144668081Y-104401629D01*
X144734756Y-104340510D01*
X144778412Y-104257166D01*
X144810163Y-104168266D01*
X144830006Y-104111910D01*
X144851438Y-104065873D01*
X144876044Y-104034123D01*
X144907000Y-104022216D01*
X144945894Y-104048410D01*
X144964150Y-104149216D01*
X144945894Y-104277804D01*
X144919700Y-104361941D01*
X145084800Y-104392104D01*
X145116550Y-104283360D01*
X145124884Y-104218074D01*
X145127663Y-104147629D01*
X145123098Y-104069444D01*
X145109406Y-104003166D01*
X145058606Y-103903948D01*
X144983994Y-103846798D01*
X144894300Y-103828541D01*
X144796669Y-103852354D01*
X144732375Y-103912679D01*
X144690306Y-103993641D01*
X144660937Y-104080954D01*
X144641887Y-104138898D01*
X144622044Y-104188110D01*
X144597437Y-104221448D01*
X144562512Y-104233354D01*
X144520444Y-104195254D01*
X144510125Y-104085716D01*
X144529175Y-103957923D01*
X144570450Y-103839654D01*
X144406937Y-103809491D01*
X144367250Y-103919029D01*
X144350581Y-103994435D01*
X144345025Y-104084129D01*
X143583157Y-104084129D01*
X143583157Y-103118929D01*
X144095787Y-103118929D01*
X144110075Y-103221323D01*
X144153731Y-103300698D01*
X144229137Y-103365785D01*
X144338675Y-103425316D01*
X144427178Y-103463615D01*
X144518062Y-103499135D01*
X144611130Y-103532274D01*
X144706181Y-103563429D01*
X144803416Y-103592996D01*
X144903031Y-103621373D01*
X145004830Y-103649749D01*
X145108613Y-103679316D01*
X145108613Y-103479291D01*
X144981613Y-103451510D01*
X144915136Y-103436230D01*
X144849056Y-103420554D01*
X144783572Y-103404282D01*
X144718881Y-103387216D01*
X144599025Y-103353879D01*
X144718881Y-103307048D01*
X144783770Y-103284624D01*
X144849850Y-103263391D01*
X144916525Y-103243349D01*
X144983200Y-103224498D01*
X145108613Y-103191954D01*
X145108613Y-102988754D01*
X145002200Y-103018123D01*
X144900452Y-103049079D01*
X144803366Y-103081623D01*
X144710944Y-103115754D01*
X144595321Y-103162320D01*
X144488694Y-103208887D01*
X144391062Y-103255454D01*
X144300575Y-103199891D01*
X144262475Y-103107816D01*
X144268031Y-103054635D01*
X144287875Y-102998279D01*
X144124362Y-102961766D01*
X144103725Y-103029235D01*
X144095787Y-103118929D01*
X143583157Y-103118929D01*
X143583157Y-102504566D01*
X144341850Y-102504566D01*
X144350228Y-102615956D01*
X144375364Y-102706708D01*
X144417256Y-102776823D01*
X144508339Y-102844093D01*
X144630775Y-102866516D01*
X144704792Y-102859769D01*
X144764919Y-102839529D01*
X144853819Y-102770473D01*
X144910969Y-102678398D01*
X144949863Y-102582354D01*
X144973675Y-102521235D01*
X145003044Y-102465673D01*
X145041144Y-102425191D01*
X145091150Y-102409316D01*
X145153768Y-102426602D01*
X145191339Y-102478461D01*
X145203863Y-102564891D01*
X145187988Y-102676810D01*
X145149888Y-102764916D01*
X145300700Y-102822066D01*
X145346738Y-102708560D01*
X145362216Y-102635337D01*
X145367375Y-102550604D01*
X145358732Y-102453325D01*
X145332803Y-102371040D01*
X145289588Y-102303748D01*
X145196719Y-102236477D01*
X145073688Y-102214054D01*
X144957006Y-102239454D01*
X144878425Y-102303748D01*
X144826038Y-102390266D01*
X144789525Y-102482341D01*
X144761744Y-102549016D01*
X144728406Y-102609341D01*
X144686337Y-102653791D01*
X144632362Y-102671254D01*
X144585531Y-102664110D01*
X144544256Y-102637916D01*
X144515681Y-102586323D01*
X144505362Y-102504566D01*
X144510919Y-102425390D01*
X144527588Y-102359310D01*
X144575212Y-102256916D01*
X144416462Y-102199766D01*
X144368044Y-102309304D01*
X144348398Y-102394632D01*
X144341850Y-102504566D01*
X143583157Y-102504566D01*
X143583157Y-101687136D01*
X144780000Y-100889241D01*
X145976843Y-101687136D01*
X145976843Y-107390759D01*
X143583157Y-107390759D01*
G37*
X147530000Y-78080000D02*
X143200000Y-78080000D01*
X147530000Y-76860000D02*
X143200000Y-76860000D01*
X143420000Y-62941252D02*
X143420000Y-61518748D01*
X146140000Y-62941252D02*
X146140000Y-61518748D01*
X166285000Y-104686263D02*
X166285000Y-106133737D01*
X168995000Y-104686263D02*
X168995000Y-106133737D01*
X143220000Y-125080000D02*
X164121000Y-125080000D01*
X142980000Y-125320000D02*
X143480000Y-125320000D01*
X143220000Y-119220000D02*
X164121000Y-119220000D01*
X164121000Y-118760000D02*
X164121000Y-125080000D01*
X143220000Y-118760000D02*
X143220000Y-125080000D01*
X143220000Y-124520000D02*
X164121000Y-124520000D01*
X143220000Y-118760000D02*
X164121000Y-118760000D01*
X142980000Y-124580000D02*
X142980000Y-125320000D01*
X166310000Y-123250000D02*
X166310000Y-121920000D01*
X171510000Y-123250000D02*
X171510000Y-120590000D01*
X167640000Y-123250000D02*
X166310000Y-123250000D01*
X168910000Y-120590000D02*
X171510000Y-120590000D01*
X168910000Y-123250000D02*
X168910000Y-120590000D01*
X168910000Y-123250000D02*
X171510000Y-123250000D01*
X173900000Y-62941252D02*
X173900000Y-61518748D01*
X176620000Y-62941252D02*
X176620000Y-61518748D01*
X163285000Y-89611252D02*
X163285000Y-88188748D01*
X160565000Y-89611252D02*
X160565000Y-88188748D01*
X173905000Y-104686263D02*
X173905000Y-106133737D01*
X176615000Y-104686263D02*
X176615000Y-106133737D01*
X128517000Y-74973000D02*
X128471000Y-74926000D01*
X124880000Y-58360000D02*
X124880000Y-88960000D01*
X130609000Y-72395000D02*
X130563000Y-72348000D01*
X125380000Y-58120000D02*
X124640000Y-58120000D01*
X130815000Y-77270000D02*
X130779000Y-77235000D01*
X130609000Y-82555000D02*
X130563000Y-82508000D01*
X126940000Y-58360000D02*
X126940000Y-88960000D01*
X131841000Y-58360000D02*
X131841000Y-88960000D01*
X130815000Y-72190000D02*
X130779000Y-72155000D01*
X130815000Y-87430000D02*
X130779000Y-87395000D01*
X128301000Y-70086000D02*
X128266000Y-70051000D01*
X130815000Y-67110000D02*
X130779000Y-67075000D01*
X134801000Y-88960000D02*
X124880000Y-88960000D01*
X130815000Y-82350000D02*
X130779000Y-82315000D01*
X128301000Y-65006000D02*
X128266000Y-64971000D01*
X130609000Y-87635000D02*
X130563000Y-87588000D01*
X128517000Y-80053000D02*
X128471000Y-80006000D01*
X128517000Y-85133000D02*
X128471000Y-85086000D01*
X128301000Y-80246000D02*
X128266000Y-80211000D01*
X134801000Y-58360000D02*
X134801000Y-88960000D01*
X130609000Y-77475000D02*
X130563000Y-77428000D01*
X128517000Y-64813000D02*
X128471000Y-64766000D01*
X130609000Y-67315000D02*
X130563000Y-67268000D01*
X125440000Y-58360000D02*
X125440000Y-88960000D01*
X128301000Y-75166000D02*
X128266000Y-75131000D01*
X128517000Y-69893000D02*
X128471000Y-69846000D01*
X128301000Y-85326000D02*
X128266000Y-85291000D01*
X124640000Y-58120000D02*
X124640000Y-58620000D01*
X134801000Y-58360000D02*
X124880000Y-58360000D01*
X127860000Y-60960000D02*
G75*
G03*
X128005244Y-61643318I1680000J0D01*
G01*
X130224000Y-59425000D02*
G75*
G03*
X128856958Y-59424573I-684001J-1534993D01*
G01*
X131075000Y-61644000D02*
G75*
G03*
X131075427Y-60276958I-1534993J684001D01*
G01*
X128005000Y-60276000D02*
G75*
G03*
X127859747Y-60988805I1535001J-683999D01*
G01*
X128856000Y-62495001D02*
G75*
G03*
X130223042Y-62495427I684000J1535001D01*
G01*
X131220000Y-86360000D02*
G75*
G03*
X131220000Y-86360000I-1680000J0D01*
G01*
X131220000Y-81280000D02*
G75*
G03*
X131220000Y-81280000I-1680000J0D01*
G01*
X131220000Y-76200000D02*
G75*
G03*
X131220000Y-76200000I-1680000J0D01*
G01*
X131220000Y-66040000D02*
G75*
G03*
X131220000Y-66040000I-1680000J0D01*
G01*
X131220000Y-71120000D02*
G75*
G03*
X131220000Y-71120000I-1680000J0D01*
G01*
G36*
X148427943Y-126731558D02*
G01*
X148427943Y-131609813D01*
X147320000Y-132348442D01*
X146212057Y-131609813D01*
X146212057Y-129823876D01*
X146724687Y-129823876D01*
X146733741Y-129916893D01*
X146760902Y-129997509D01*
X146806171Y-130065722D01*
X146869547Y-130121532D01*
X146951030Y-130164940D01*
X147050621Y-130195946D01*
X147168319Y-130214550D01*
X147304125Y-130220751D01*
X147447372Y-130214475D01*
X147571520Y-130195649D01*
X147676567Y-130164271D01*
X147762516Y-130120341D01*
X147829364Y-130063861D01*
X147877113Y-129994830D01*
X147905763Y-129913247D01*
X147915313Y-129819113D01*
X147905391Y-129713148D01*
X147875625Y-129617501D01*
X147729575Y-129617501D01*
X147766484Y-129707988D01*
X147778788Y-129792126D01*
X147765602Y-129869737D01*
X147726047Y-129933237D01*
X147660122Y-129982626D01*
X147567826Y-130017904D01*
X147449161Y-130039070D01*
X147304125Y-130046126D01*
X147169761Y-130039732D01*
X147059826Y-130020549D01*
X146974322Y-129988579D01*
X146913247Y-129943820D01*
X146876602Y-129886273D01*
X146864387Y-129815938D01*
X146870737Y-129779426D01*
X147118387Y-129779426D01*
X147118387Y-129609563D01*
X146759612Y-129609563D01*
X146733419Y-129710766D01*
X146724687Y-129823876D01*
X146212057Y-129823876D01*
X146212057Y-129101563D01*
X146724687Y-129101563D01*
X146738181Y-129211895D01*
X146778662Y-129298413D01*
X146852084Y-129364096D01*
X146964400Y-129411920D01*
X147062472Y-129433527D01*
X147181006Y-129446492D01*
X147320000Y-129450813D01*
X147458994Y-129446492D01*
X147577528Y-129433527D01*
X147675600Y-129411920D01*
X147787916Y-129364096D01*
X147861338Y-129298413D01*
X147901819Y-129211895D01*
X147915313Y-129101563D01*
X147901819Y-128991232D01*
X147861338Y-128904713D01*
X147787916Y-128839031D01*
X147675600Y-128791207D01*
X147577528Y-128769599D01*
X147458994Y-128756635D01*
X147320000Y-128752313D01*
X147181006Y-128756635D01*
X147062472Y-128769599D01*
X146964400Y-128791207D01*
X146852084Y-128839031D01*
X146778662Y-128904713D01*
X146738181Y-128991232D01*
X146724687Y-129101563D01*
X146212057Y-129101563D01*
X146212057Y-128336388D01*
X146724687Y-128336388D01*
X146728215Y-128427758D01*
X146738799Y-128517716D01*
X146756437Y-128606263D01*
X147899438Y-128606263D01*
X147899438Y-128428463D01*
X147502563Y-128428463D01*
X147510500Y-128336388D01*
X147499917Y-128223235D01*
X147468167Y-128131424D01*
X147415250Y-128060957D01*
X147339226Y-128011127D01*
X147238156Y-127981229D01*
X147112037Y-127971263D01*
X146988124Y-127980965D01*
X146889435Y-128010069D01*
X146815969Y-128058576D01*
X146765257Y-128128249D01*
X146734830Y-128220854D01*
X146724687Y-128336388D01*
X146212057Y-128336388D01*
X146212057Y-127783938D01*
X146740562Y-127783938D01*
X146878675Y-127783938D01*
X146878675Y-127606138D01*
X147761325Y-127606138D01*
X147761325Y-127783938D01*
X147899438Y-127783938D01*
X147899438Y-127244188D01*
X147761325Y-127244188D01*
X147761325Y-127421988D01*
X146878675Y-127421988D01*
X146878675Y-127244188D01*
X146740562Y-127244188D01*
X146740562Y-127783938D01*
X146212057Y-127783938D01*
X146212057Y-126731558D01*
X148427943Y-126731558D01*
G37*
G36*
X147476369Y-128925351D02*
G01*
X147596225Y-128939638D01*
X147679569Y-128963451D01*
X147752792Y-129019410D01*
X147777200Y-129101563D01*
X147752792Y-129183716D01*
X147679569Y-129239676D01*
X147596225Y-129263488D01*
X147476369Y-129277776D01*
X147320000Y-129282538D01*
X147163631Y-129277776D01*
X147043775Y-129263488D01*
X146960431Y-129239676D01*
X146887208Y-129183716D01*
X146862800Y-129101563D01*
X146887208Y-129019410D01*
X146960431Y-128963451D01*
X147043775Y-128939638D01*
X147163631Y-128925351D01*
X147320000Y-128920588D01*
X147476369Y-128925351D01*
G37*
G36*
X147234077Y-128156009D02*
G01*
X147314444Y-128191132D01*
X147359092Y-128250862D01*
X147373975Y-128336388D01*
X147362863Y-128428463D01*
X146875500Y-128428463D01*
X146862800Y-128336388D01*
X146877484Y-128250862D01*
X146921537Y-128191132D01*
X146998531Y-128156009D01*
X147112037Y-128144301D01*
X147234077Y-128156009D01*
G37*
G36*
X153531755Y-126919875D02*
G01*
X153531755Y-131405621D01*
X152400000Y-132160125D01*
X151268245Y-131405621D01*
X151268245Y-129288425D01*
X151796750Y-129288425D01*
X151796750Y-129440825D01*
X153019125Y-129950413D01*
X153019125Y-129798013D01*
X151796750Y-129288425D01*
X151268245Y-129288425D01*
X151268245Y-128753438D01*
X151780875Y-128753438D01*
X151789929Y-128846455D01*
X151817090Y-128927071D01*
X151862358Y-128995284D01*
X151925734Y-129051094D01*
X152007218Y-129094502D01*
X152106809Y-129125508D01*
X152224507Y-129144112D01*
X152360312Y-129150313D01*
X152503560Y-129144037D01*
X152627707Y-129125211D01*
X152732755Y-129093833D01*
X152818703Y-129049903D01*
X152885552Y-128993423D01*
X152933301Y-128924392D01*
X152961950Y-128842809D01*
X152971500Y-128748675D01*
X152961578Y-128642710D01*
X152931813Y-128547063D01*
X152785763Y-128547063D01*
X152822672Y-128637550D01*
X152834975Y-128721688D01*
X152821790Y-128799299D01*
X152782235Y-128862799D01*
X152716309Y-128912188D01*
X152624014Y-128947466D01*
X152505348Y-128968632D01*
X152360312Y-128975688D01*
X152225948Y-128969294D01*
X152116014Y-128950111D01*
X152030509Y-128918141D01*
X151969435Y-128873382D01*
X151932790Y-128815835D01*
X151920575Y-128745500D01*
X151926925Y-128708988D01*
X152174575Y-128708988D01*
X152174575Y-128539125D01*
X151815800Y-128539125D01*
X151789606Y-128640328D01*
X151780875Y-128753438D01*
X151268245Y-128753438D01*
X151268245Y-128012075D01*
X151780875Y-128012075D01*
X151789694Y-128106884D01*
X151816153Y-128185995D01*
X151860250Y-128249407D01*
X151955500Y-128311914D01*
X152082500Y-128332750D01*
X152195212Y-128316280D01*
X152288875Y-128266869D01*
X152343908Y-128212277D01*
X152396825Y-128136341D01*
X152447625Y-128039063D01*
X152488503Y-127970999D01*
X152534938Y-127925557D01*
X152591294Y-127899958D01*
X152661938Y-127891425D01*
X152735955Y-127902538D01*
X152789731Y-127935875D01*
X152822473Y-127989057D01*
X152833388Y-128059700D01*
X152821922Y-128152657D01*
X152787526Y-128241028D01*
X152730200Y-128324813D01*
X152895300Y-128324813D01*
X152937633Y-128243321D01*
X152963033Y-128153363D01*
X152971500Y-128054938D01*
X152958800Y-127932065D01*
X152920700Y-127836498D01*
X152857200Y-127768235D01*
X152768300Y-127727278D01*
X152654000Y-127713625D01*
X152531366Y-127730691D01*
X152433338Y-127781888D01*
X152376717Y-127839920D01*
X152321154Y-127922999D01*
X152266650Y-128031125D01*
X152219201Y-128101681D01*
X152155172Y-128144014D01*
X152074562Y-128158125D01*
X152009475Y-128147013D01*
X151960262Y-128113675D01*
X151929306Y-128060891D01*
X151918987Y-127991438D01*
X151936053Y-127868010D01*
X151987250Y-127745375D01*
X151828500Y-127745375D01*
X151802042Y-127830748D01*
X151786167Y-127919648D01*
X151780875Y-128012075D01*
X151268245Y-128012075D01*
X151268245Y-126919875D01*
X153531755Y-126919875D01*
G37*
G36*
X181447943Y-125451923D02*
G01*
X181447943Y-131693311D01*
X179232057Y-132358077D01*
X179232057Y-131180681D01*
X179760562Y-131180681D01*
X180919438Y-131180681D01*
X180919438Y-130632994D01*
X180781325Y-130632994D01*
X180781325Y-131002881D01*
X179760562Y-131002881D01*
X179760562Y-131180681D01*
X179232057Y-131180681D01*
X179232057Y-130415506D01*
X179760562Y-130415506D01*
X180919438Y-130415506D01*
X180919438Y-129859881D01*
X180781325Y-129859881D01*
X180781325Y-130237706D01*
X180363813Y-130237706D01*
X180363813Y-129875756D01*
X180228875Y-129875756D01*
X180228875Y-130237706D01*
X179898675Y-130237706D01*
X179898675Y-129859881D01*
X179760562Y-129859881D01*
X179760562Y-130415506D01*
X179232057Y-130415506D01*
X179232057Y-129412206D01*
X179744687Y-129412206D01*
X179752625Y-129537222D01*
X179776437Y-129661444D01*
X180903563Y-129661444D01*
X180927375Y-129541984D01*
X180935313Y-129412206D01*
X180921620Y-129280444D01*
X180880544Y-129177256D01*
X180805733Y-129098873D01*
X180690838Y-129041525D01*
X180590119Y-129015508D01*
X180467882Y-128999897D01*
X180324125Y-128994694D01*
X180175743Y-129000796D01*
X180051273Y-129019102D01*
X179950715Y-129049611D01*
X179874069Y-129092325D01*
X179802190Y-129171259D01*
X179759063Y-129277886D01*
X179744687Y-129412206D01*
X179232057Y-129412206D01*
X179232057Y-127796131D01*
X179744687Y-127796131D01*
X179748215Y-127887501D01*
X179758799Y-127977459D01*
X179776437Y-128066006D01*
X180919438Y-128066006D01*
X180919438Y-127888206D01*
X180438425Y-127888206D01*
X180438425Y-127826294D01*
X180469381Y-127730250D01*
X180514030Y-127699889D01*
X180586063Y-127673894D01*
X180919438Y-127581819D01*
X180919438Y-127399256D01*
X180595588Y-127497681D01*
X180470969Y-127548481D01*
X180392388Y-127608806D01*
X180389213Y-127608806D01*
X180343770Y-127531019D01*
X180278881Y-127475456D01*
X180194545Y-127442119D01*
X180090762Y-127431006D01*
X179981842Y-127440796D01*
X179894265Y-127470165D01*
X179828031Y-127519112D01*
X179781729Y-127589051D01*
X179753948Y-127681390D01*
X179744687Y-127796131D01*
X179232057Y-127796131D01*
X179232057Y-127299244D01*
X179760562Y-127299244D01*
X180328887Y-127076994D01*
X180919438Y-127304006D01*
X180919438Y-127116681D01*
X180455888Y-126972219D01*
X180455888Y-126969044D01*
X180919438Y-126822994D01*
X180919438Y-126629319D01*
X180328887Y-126854744D01*
X179760562Y-126632494D01*
X179760562Y-126816644D01*
X180205062Y-126962694D01*
X180205062Y-126965869D01*
X179760562Y-127110331D01*
X179760562Y-127299244D01*
X179232057Y-127299244D01*
X179232057Y-126116689D01*
X181447943Y-125451923D01*
G37*
G36*
X180486226Y-129174169D02*
G01*
X180610581Y-129193484D01*
X180697188Y-129225675D01*
X180773388Y-129301280D01*
X180798788Y-129412206D01*
X180784500Y-129483644D01*
X179897087Y-129483644D01*
X179882800Y-129412206D01*
X179907406Y-129302272D01*
X179981225Y-129226469D01*
X180063069Y-129193837D01*
X180177369Y-129174258D01*
X180324125Y-129167731D01*
X180486226Y-129174169D01*
G37*
G36*
X180188394Y-127616744D02*
G01*
X180252687Y-127654844D01*
X180288406Y-127723106D01*
X180300312Y-127826294D01*
X180300312Y-127888206D01*
X179895500Y-127888206D01*
X179882800Y-127796131D01*
X179895302Y-127711597D01*
X179932806Y-127651669D01*
X179997298Y-127615950D01*
X180090762Y-127604044D01*
X180188394Y-127616744D01*
G37*
X173675000Y-124380000D02*
X176845000Y-124380000D01*
X173675000Y-120320000D02*
X173675000Y-124380000D01*
X176845000Y-124380000D02*
X176845000Y-120320000D01*
%LPC*%
D13*
X165100000Y-63792500D03*
X165100000Y-60667500D03*
D14*
X180340000Y-123407500D03*
X180340000Y-120432500D03*
D15*
X162560000Y-81280000D03*
D16*
X162560000Y-83820000D03*
D17*
X171450000Y-103860000D03*
X171450000Y-106960000D03*
D13*
X139700000Y-63792500D03*
X139700000Y-60667500D03*
X170180000Y-63792500D03*
X170180000Y-60667500D03*
D18*
X190500000Y-114300000D03*
D19*
X125302944Y-52497056D03*
X127000000Y-53200000D03*
X124600000Y-50800000D03*
X129400000Y-50800000D03*
X128697056Y-49102944D03*
X127000000Y-48400000D03*
D20*
X127000000Y-50800000D03*
D19*
X125302944Y-49102944D03*
X128697056Y-52497056D03*
D18*
X134620000Y-53340000D03*
D21*
X139700000Y-71120000D03*
D22*
X139700000Y-73660000D03*
X139700000Y-76200000D03*
X139700000Y-78740000D03*
X139700000Y-81280000D03*
X139700000Y-83820000D03*
X139700000Y-86360000D03*
X139700000Y-88900000D03*
X139700000Y-91440000D03*
X139700000Y-93980000D03*
X139700000Y-96520000D03*
X139700000Y-99060000D03*
X139700000Y-101600000D03*
X139700000Y-104140000D03*
X139700000Y-106680000D03*
X139700000Y-109220000D03*
D23*
X142240000Y-111760000D03*
D24*
X144780000Y-111760000D03*
X147320000Y-111760000D03*
X149860000Y-111760000D03*
X152400000Y-111760000D03*
X154940000Y-111760000D03*
X157480000Y-111760000D03*
X160020000Y-111760000D03*
X162560000Y-111760000D03*
X165100000Y-111760000D03*
X167640000Y-111760000D03*
X170180000Y-111760000D03*
X172720000Y-111760000D03*
X175260000Y-111760000D03*
X177800000Y-111760000D03*
X180340000Y-111760000D03*
D21*
X182880000Y-109220000D03*
D22*
X182880000Y-106680000D03*
X182880000Y-104140000D03*
X182880000Y-101600000D03*
X182880000Y-99060000D03*
X182880000Y-96520000D03*
X182880000Y-93980000D03*
X182880000Y-91440000D03*
X182880000Y-88900000D03*
X182880000Y-86360000D03*
X182880000Y-83820000D03*
X182880000Y-81280000D03*
X182880000Y-78740000D03*
X182880000Y-76200000D03*
X182880000Y-73660000D03*
X182880000Y-71120000D03*
D23*
X180340000Y-68580000D03*
D24*
X177800000Y-68580000D03*
X175260000Y-68580000D03*
X172720000Y-68580000D03*
X170180000Y-68580000D03*
X167640000Y-68580000D03*
X165100000Y-68580000D03*
X162560000Y-68580000D03*
X160020000Y-68580000D03*
X157480000Y-68580000D03*
X154940000Y-68580000D03*
X152400000Y-68580000D03*
X149860000Y-68580000D03*
X147320000Y-68580000D03*
X144780000Y-68580000D03*
X142240000Y-68580000D03*
D25*
X142240000Y-71120000D03*
D26*
X142240000Y-73660000D03*
D19*
X194737056Y-127842944D03*
X193040000Y-131940000D03*
X191342944Y-131237056D03*
X190640000Y-129540000D03*
X194737056Y-131237056D03*
X193040000Y-127140000D03*
X191342944Y-127842944D03*
X195440000Y-129540000D03*
D20*
X193040000Y-129540000D03*
D27*
X167005000Y-93650000D03*
X168275000Y-93650000D03*
X169545000Y-93650000D03*
X170815000Y-93650000D03*
X172085000Y-93650000D03*
X173355000Y-93650000D03*
X174625000Y-93650000D03*
X175895000Y-93650000D03*
X177165000Y-93650000D03*
X178435000Y-93650000D03*
X178435000Y-84150000D03*
X177165000Y-84150000D03*
X175895000Y-84150000D03*
X174625000Y-84150000D03*
X173355000Y-84150000D03*
X172085000Y-84150000D03*
X170815000Y-84150000D03*
X169545000Y-84150000D03*
X168275000Y-84150000D03*
X167005000Y-84150000D03*
D28*
X160312500Y-95250000D03*
X157187500Y-95250000D03*
D13*
X149860000Y-63792500D03*
X149860000Y-60667500D03*
D23*
X162560000Y-99060000D03*
D24*
X160020000Y-99060000D03*
X157480000Y-99060000D03*
X154940000Y-99060000D03*
X154940000Y-106680000D03*
X157480000Y-106680000D03*
X160020000Y-106680000D03*
X162560000Y-106680000D03*
D29*
X139700000Y-120432500D03*
X139700000Y-123407500D03*
D30*
X185420000Y-53340000D03*
D31*
X180340000Y-53340000D03*
X175260000Y-53340000D03*
X170180000Y-53340000D03*
X165100000Y-53340000D03*
X160020000Y-53340000D03*
X154940000Y-53340000D03*
X149860000Y-53340000D03*
X144780000Y-53340000D03*
X139700000Y-53340000D03*
D13*
X160020000Y-63792500D03*
X160020000Y-60667500D03*
D18*
X190500000Y-119380000D03*
D15*
X157480000Y-81280000D03*
D16*
X157480000Y-83820000D03*
D15*
X190500000Y-73660000D03*
D16*
X193040000Y-73660000D03*
X190500000Y-76200000D03*
X193040000Y-76200000D03*
X190500000Y-78740000D03*
X193040000Y-78740000D03*
X190500000Y-81280000D03*
X193040000Y-81280000D03*
X190500000Y-83820000D03*
X193040000Y-83820000D03*
X190500000Y-86360000D03*
X193040000Y-86360000D03*
X190500000Y-88900000D03*
X193040000Y-88900000D03*
X190500000Y-91440000D03*
X193040000Y-91440000D03*
X190500000Y-93980000D03*
X193040000Y-93980000D03*
X190500000Y-96520000D03*
X193040000Y-96520000D03*
X190500000Y-99060000D03*
X193040000Y-99060000D03*
X190500000Y-101600000D03*
X193040000Y-101600000D03*
X190500000Y-104140000D03*
X193040000Y-104140000D03*
X190500000Y-106680000D03*
X193040000Y-106680000D03*
D32*
X136590000Y-80010000D03*
X142590000Y-80010000D03*
D33*
X148590000Y-80010000D03*
D34*
X144780000Y-94260000D03*
X144780000Y-91160000D03*
D13*
X154940000Y-63792500D03*
X154940000Y-60667500D03*
D19*
X193040000Y-48400000D03*
X194737056Y-52497056D03*
D20*
X193040000Y-50800000D03*
D19*
X191342944Y-52497056D03*
X190640000Y-50800000D03*
X191342944Y-49102944D03*
X194737056Y-49102944D03*
X195440000Y-50800000D03*
X193040000Y-53200000D03*
D35*
X144780000Y-99060000D03*
D13*
X180340000Y-63792500D03*
X180340000Y-60667500D03*
D30*
X129540000Y-93980000D03*
D31*
X129540000Y-99060000D03*
X129540000Y-104140000D03*
X129540000Y-109220000D03*
X129540000Y-114300000D03*
X129540000Y-119380000D03*
D32*
X136590000Y-77470000D03*
X142590000Y-77470000D03*
D33*
X148590000Y-77470000D03*
D13*
X144780000Y-63792500D03*
X144780000Y-60667500D03*
D17*
X167640000Y-103860000D03*
X167640000Y-106960000D03*
D36*
X144780000Y-121920000D03*
D37*
X147320000Y-121920000D03*
X149860000Y-121920000D03*
X152400000Y-121920000D03*
X154940000Y-121920000D03*
X157480000Y-121920000D03*
X160020000Y-121920000D03*
X162560000Y-121920000D03*
D15*
X167640000Y-121920000D03*
D16*
X170180000Y-121920000D03*
D13*
X175260000Y-63792500D03*
X175260000Y-60667500D03*
X161925000Y-90462500D03*
X161925000Y-87337500D03*
D17*
X175260000Y-103860000D03*
X175260000Y-106960000D03*
D30*
X129540000Y-60960000D03*
D31*
X129540000Y-66040000D03*
X129540000Y-71120000D03*
X129540000Y-76200000D03*
X129540000Y-81280000D03*
X129540000Y-86360000D03*
D19*
X129400000Y-129540000D03*
X125302944Y-127842944D03*
X125302944Y-131237056D03*
X128697056Y-127842944D03*
X128697056Y-131237056D03*
X124600000Y-129540000D03*
X127000000Y-131940000D03*
D20*
X127000000Y-129540000D03*
D19*
X127000000Y-127140000D03*
D14*
X175260000Y-123407500D03*
X175260000Y-120432500D03*
M02*
