G04 #@! TF.GenerationSoftware,KiCad,Pcbnew,(6.0.4-163-g7b7e4e1ae5)*
G04 #@! TF.CreationDate,2022-06-12T18:41:20+02:00*
G04 #@! TF.ProjectId,CANduino128 - v2.0,43414e64-7569-46e6-9f31-3238202d2076,rev?*
G04 #@! TF.SameCoordinates,Original*
G04 #@! TF.FileFunction,Soldermask,Bot*
G04 #@! TF.FilePolarity,Negative*
%FSLAX46Y46*%
G04 Gerber Fmt 4.6, Leading zero omitted, Abs format (unit mm)*
G04 Created by KiCad (PCBNEW (6.0.4-163-g7b7e4e1ae5)) date 2022-06-12 18:41:20*
%MOMM*%
%LPD*%
G01*
G04 APERTURE LIST*
G04 Aperture macros list*
%AMRoundRect*
0 Rectangle with rounded corners*
0 $1 Rounding radius*
0 $2 $3 $4 $5 $6 $7 $8 $9 X,Y pos of 4 corners*
0 Add a 4 corners polygon primitive as box body*
4,1,4,$2,$3,$4,$5,$6,$7,$8,$9,$2,$3,0*
0 Add four circle primitives for the rounded corners*
1,1,$1+$1,$2,$3*
1,1,$1+$1,$4,$5*
1,1,$1+$1,$6,$7*
1,1,$1+$1,$8,$9*
0 Add four rect primitives between the rounded corners*
20,1,$1+$1,$2,$3,$4,$5,0*
20,1,$1+$1,$4,$5,$6,$7,0*
20,1,$1+$1,$6,$7,$8,$9,0*
20,1,$1+$1,$8,$9,$2,$3,0*%
%AMFreePoly0*
4,1,22,0.500000,-0.750000,0.000000,-0.750000,0.000000,-0.745033,-0.079941,-0.743568,-0.215256,-0.701293,-0.333266,-0.622738,-0.424486,-0.514219,-0.481581,-0.384460,-0.499164,-0.250000,-0.500000,-0.250000,-0.500000,0.250000,-0.499164,0.250000,-0.499963,0.256109,-0.478152,0.396186,-0.417904,0.524511,-0.324060,0.630769,-0.204165,0.706417,-0.067858,0.745374,0.000000,0.744959,0.000000,0.750000,
0.500000,0.750000,0.500000,-0.750000,0.500000,-0.750000,$1*%
%AMFreePoly1*
4,1,20,0.000000,0.744959,0.073905,0.744508,0.209726,0.703889,0.328688,0.626782,0.421226,0.519385,0.479903,0.390333,0.500000,0.250000,0.500000,-0.250000,0.499851,-0.262216,0.476331,-0.402017,0.414519,-0.529596,0.319384,-0.634700,0.198574,-0.708877,0.061801,-0.746166,0.000000,-0.745033,0.000000,-0.750000,-0.500000,-0.750000,-0.500000,0.750000,0.000000,0.750000,0.000000,0.744959,
0.000000,0.744959,$1*%
G04 Aperture macros list end*
%ADD10R,1.700000X1.700000*%
%ADD11O,1.700000X1.700000*%
%ADD12RoundRect,0.250001X-0.799999X-0.799999X0.799999X-0.799999X0.799999X0.799999X-0.799999X0.799999X0*%
%ADD13C,0.800000*%
%ADD14C,6.400000*%
%ADD15R,2.400000X1.600000*%
%ADD16O,2.400000X1.600000*%
%ADD17R,1.600000X2.400000*%
%ADD18O,1.600000X2.400000*%
%ADD19C,1.600000*%
%ADD20R,1.600000X1.600000*%
%ADD21R,2.600000X2.600000*%
%ADD22C,2.600000*%
%ADD23C,1.500000*%
%ADD24RoundRect,0.250000X-0.550000X0.550000X-0.550000X-0.550000X0.550000X-0.550000X0.550000X0.550000X0*%
%ADD25RoundRect,0.250000X-0.550000X-0.550000X0.550000X-0.550000X0.550000X0.550000X-0.550000X0.550000X0*%
%ADD26R,2.200000X2.200000*%
%ADD27C,2.200000*%
%ADD28RoundRect,0.250000X-1.075000X0.400000X-1.075000X-0.400000X1.075000X-0.400000X1.075000X0.400000X0*%
%ADD29FreePoly0,90.000000*%
%ADD30FreePoly1,90.000000*%
%ADD31C,1.000000*%
%ADD32RoundRect,0.250000X1.075000X-0.400000X1.075000X0.400000X-1.075000X0.400000X-1.075000X-0.400000X0*%
%ADD33RoundRect,0.250000X-0.400000X-1.075000X0.400000X-1.075000X0.400000X1.075000X-0.400000X1.075000X0*%
G04 APERTURE END LIST*
D10*
X162560000Y-81280000D03*
D11*
X162560000Y-83820000D03*
D12*
X190500000Y-114300000D03*
D13*
X125302944Y-52497056D03*
X127000000Y-53200000D03*
X124600000Y-50800000D03*
X129400000Y-50800000D03*
X128697056Y-49102944D03*
X127000000Y-48400000D03*
D14*
X127000000Y-50800000D03*
D13*
X125302944Y-49102944D03*
X128697056Y-52497056D03*
D12*
X134620000Y-53340000D03*
D15*
X139700000Y-71120000D03*
D16*
X139700000Y-73660000D03*
X139700000Y-76200000D03*
X139700000Y-78740000D03*
X139700000Y-81280000D03*
X139700000Y-83820000D03*
X139700000Y-86360000D03*
X139700000Y-88900000D03*
X139700000Y-91440000D03*
X139700000Y-93980000D03*
X139700000Y-96520000D03*
X139700000Y-99060000D03*
X139700000Y-101600000D03*
X139700000Y-104140000D03*
X139700000Y-106680000D03*
X139700000Y-109220000D03*
D17*
X142240000Y-111760000D03*
D18*
X144780000Y-111760000D03*
X147320000Y-111760000D03*
X149860000Y-111760000D03*
X152400000Y-111760000D03*
X154940000Y-111760000D03*
X157480000Y-111760000D03*
X160020000Y-111760000D03*
X162560000Y-111760000D03*
X165100000Y-111760000D03*
X167640000Y-111760000D03*
X170180000Y-111760000D03*
X172720000Y-111760000D03*
X175260000Y-111760000D03*
X177800000Y-111760000D03*
X180340000Y-111760000D03*
D15*
X182880000Y-109220000D03*
D16*
X182880000Y-106680000D03*
X182880000Y-104140000D03*
X182880000Y-101600000D03*
X182880000Y-99060000D03*
X182880000Y-96520000D03*
X182880000Y-93980000D03*
X182880000Y-91440000D03*
X182880000Y-88900000D03*
X182880000Y-86360000D03*
X182880000Y-83820000D03*
X182880000Y-81280000D03*
X182880000Y-78740000D03*
X182880000Y-76200000D03*
X182880000Y-73660000D03*
X182880000Y-71120000D03*
D17*
X180340000Y-68580000D03*
D18*
X177800000Y-68580000D03*
X175260000Y-68580000D03*
X172720000Y-68580000D03*
X170180000Y-68580000D03*
X167640000Y-68580000D03*
X165100000Y-68580000D03*
X162560000Y-68580000D03*
X160020000Y-68580000D03*
X157480000Y-68580000D03*
X154940000Y-68580000D03*
X152400000Y-68580000D03*
X149860000Y-68580000D03*
X147320000Y-68580000D03*
X144780000Y-68580000D03*
X142240000Y-68580000D03*
D19*
X142240000Y-71120000D03*
D20*
X142240000Y-73660000D03*
D13*
X194737056Y-127842944D03*
X193040000Y-131940000D03*
X191342944Y-131237056D03*
X190640000Y-129540000D03*
X194737056Y-131237056D03*
X193040000Y-127140000D03*
X191342944Y-127842944D03*
X195440000Y-129540000D03*
D14*
X193040000Y-129540000D03*
D17*
X162560000Y-99060000D03*
D18*
X160020000Y-99060000D03*
X157480000Y-99060000D03*
X154940000Y-99060000D03*
X154940000Y-106680000D03*
X157480000Y-106680000D03*
X160020000Y-106680000D03*
X162560000Y-106680000D03*
D21*
X185420000Y-53340000D03*
D22*
X180340000Y-53340000D03*
X175260000Y-53340000D03*
X170180000Y-53340000D03*
X165100000Y-53340000D03*
X160020000Y-53340000D03*
X154940000Y-53340000D03*
X149860000Y-53340000D03*
X144780000Y-53340000D03*
X139700000Y-53340000D03*
D12*
X190500000Y-119380000D03*
D10*
X157480000Y-81280000D03*
D11*
X157480000Y-83820000D03*
D10*
X190500000Y-73660000D03*
D11*
X193040000Y-73660000D03*
X190500000Y-76200000D03*
X193040000Y-76200000D03*
X190500000Y-78740000D03*
X193040000Y-78740000D03*
X190500000Y-81280000D03*
X193040000Y-81280000D03*
X190500000Y-83820000D03*
X193040000Y-83820000D03*
X190500000Y-86360000D03*
X193040000Y-86360000D03*
X190500000Y-88900000D03*
X193040000Y-88900000D03*
X190500000Y-91440000D03*
X193040000Y-91440000D03*
X190500000Y-93980000D03*
X193040000Y-93980000D03*
X190500000Y-96520000D03*
X193040000Y-96520000D03*
X190500000Y-99060000D03*
X193040000Y-99060000D03*
X190500000Y-101600000D03*
X193040000Y-101600000D03*
X190500000Y-104140000D03*
X193040000Y-104140000D03*
X190500000Y-106680000D03*
X193040000Y-106680000D03*
D23*
X136590000Y-80010000D03*
X142590000Y-80010000D03*
D24*
X148590000Y-80010000D03*
D13*
X193040000Y-48400000D03*
X194737056Y-52497056D03*
D14*
X193040000Y-50800000D03*
D13*
X191342944Y-52497056D03*
X190640000Y-50800000D03*
X191342944Y-49102944D03*
X194737056Y-49102944D03*
X195440000Y-50800000D03*
X193040000Y-53200000D03*
D25*
X144780000Y-99060000D03*
D21*
X129540000Y-93980000D03*
D22*
X129540000Y-99060000D03*
X129540000Y-104140000D03*
X129540000Y-109220000D03*
X129540000Y-114300000D03*
X129540000Y-119380000D03*
D23*
X136590000Y-77470000D03*
X142590000Y-77470000D03*
D24*
X148590000Y-77470000D03*
D26*
X144780000Y-121920000D03*
D27*
X147320000Y-121920000D03*
X149860000Y-121920000D03*
X152400000Y-121920000D03*
X154940000Y-121920000D03*
X157480000Y-121920000D03*
X160020000Y-121920000D03*
X162560000Y-121920000D03*
D10*
X167640000Y-121920000D03*
D11*
X170180000Y-121920000D03*
D21*
X129540000Y-60960000D03*
D22*
X129540000Y-66040000D03*
X129540000Y-71120000D03*
X129540000Y-76200000D03*
X129540000Y-81280000D03*
X129540000Y-86360000D03*
D13*
X129400000Y-129540000D03*
X125302944Y-127842944D03*
X125302944Y-131237056D03*
X128697056Y-127842944D03*
X128697056Y-131237056D03*
X124600000Y-129540000D03*
X127000000Y-131940000D03*
D14*
X127000000Y-129540000D03*
D13*
X127000000Y-127140000D03*
D28*
X165100000Y-60680000D03*
X165100000Y-63780000D03*
D29*
X177800000Y-58435000D03*
D30*
X177800000Y-57135000D03*
D31*
X147320000Y-99060000D03*
D32*
X165100000Y-77750000D03*
X165100000Y-74650000D03*
D28*
X175260000Y-60680000D03*
X175260000Y-63780000D03*
D29*
X152400000Y-58435000D03*
D30*
X152400000Y-57135000D03*
D29*
X167640000Y-58435000D03*
D30*
X167640000Y-57135000D03*
D28*
X149860000Y-60680000D03*
X149860000Y-63780000D03*
D33*
X166090000Y-102870000D03*
X169190000Y-102870000D03*
D29*
X172720000Y-58435000D03*
D30*
X172720000Y-57135000D03*
D28*
X144780000Y-60680000D03*
X144780000Y-63780000D03*
D29*
X182880000Y-58435000D03*
D30*
X182880000Y-57135000D03*
D29*
X162560000Y-58435000D03*
D30*
X162560000Y-57135000D03*
D32*
X160020000Y-77750000D03*
X160020000Y-74650000D03*
D29*
X147320000Y-58435000D03*
D30*
X147320000Y-57135000D03*
D29*
X157480000Y-58435000D03*
D30*
X157480000Y-57135000D03*
D28*
X180340000Y-60680000D03*
X180340000Y-63780000D03*
X154940000Y-60680000D03*
X154940000Y-63780000D03*
X160020000Y-60680000D03*
X160020000Y-63780000D03*
X170180000Y-60680000D03*
X170180000Y-63780000D03*
M02*
