G04 #@! TF.GenerationSoftware,KiCad,Pcbnew,(6.0.4-103-ge02229a234)*
G04 #@! TF.CreationDate,2022-04-10T23:24:48+02:00*
G04 #@! TF.ProjectId,CANduino128 - v1.1 - 6.0.4,43414e64-7569-46e6-9f31-3238202d2076,rev?*
G04 #@! TF.SameCoordinates,Original*
G04 #@! TF.FileFunction,Soldermask,Bot*
G04 #@! TF.FilePolarity,Negative*
%FSLAX46Y46*%
G04 Gerber Fmt 4.6, Leading zero omitted, Abs format (unit mm)*
G04 Created by KiCad (PCBNEW (6.0.4-103-ge02229a234)) date 2022-04-10 23:24:48*
%MOMM*%
%LPD*%
G01*
G04 APERTURE LIST*
G04 Aperture macros list*
%AMRoundRect*
0 Rectangle with rounded corners*
0 $1 Rounding radius*
0 $2 $3 $4 $5 $6 $7 $8 $9 X,Y pos of 4 corners*
0 Add a 4 corners polygon primitive as box body*
4,1,4,$2,$3,$4,$5,$6,$7,$8,$9,$2,$3,0*
0 Add four circle primitives for the rounded corners*
1,1,$1+$1,$2,$3*
1,1,$1+$1,$4,$5*
1,1,$1+$1,$6,$7*
1,1,$1+$1,$8,$9*
0 Add four rect primitives between the rounded corners*
20,1,$1+$1,$2,$3,$4,$5,0*
20,1,$1+$1,$4,$5,$6,$7,0*
20,1,$1+$1,$6,$7,$8,$9,0*
20,1,$1+$1,$8,$9,$2,$3,0*%
%AMFreePoly0*
4,1,22,0.500000,-0.750000,0.000000,-0.750000,0.000000,-0.745033,-0.079941,-0.743568,-0.215256,-0.701293,-0.333266,-0.622738,-0.424486,-0.514219,-0.481581,-0.384460,-0.499164,-0.250000,-0.500000,-0.250000,-0.500000,0.250000,-0.499164,0.250000,-0.499963,0.256109,-0.478152,0.396186,-0.417904,0.524511,-0.324060,0.630769,-0.204165,0.706417,-0.067858,0.745374,0.000000,0.744959,0.000000,0.750000,
0.500000,0.750000,0.500000,-0.750000,0.500000,-0.750000,$1*%
%AMFreePoly1*
4,1,20,0.000000,0.744959,0.073905,0.744508,0.209726,0.703889,0.328688,0.626782,0.421226,0.519385,0.479903,0.390333,0.500000,0.250000,0.500000,-0.250000,0.499851,-0.262216,0.476331,-0.402017,0.414519,-0.529596,0.319384,-0.634700,0.198574,-0.708877,0.061801,-0.746166,0.000000,-0.745033,0.000000,-0.750000,-0.500000,-0.750000,-0.500000,0.750000,0.000000,0.750000,0.000000,0.744959,
0.000000,0.744959,$1*%
G04 Aperture macros list end*
%ADD10RoundRect,0.250000X-0.550000X-0.550000X0.550000X-0.550000X0.550000X0.550000X-0.550000X0.550000X0*%
%ADD11C,0.800000*%
%ADD12C,6.400000*%
%ADD13R,2.400000X1.600000*%
%ADD14O,2.400000X1.600000*%
%ADD15R,1.600000X2.400000*%
%ADD16O,1.600000X2.400000*%
%ADD17C,1.600000*%
%ADD18R,1.600000X1.600000*%
%ADD19R,2.600000X2.600000*%
%ADD20C,2.600000*%
%ADD21R,2.200000X2.200000*%
%ADD22C,2.200000*%
%ADD23R,1.700000X1.700000*%
%ADD24O,1.700000X1.700000*%
%ADD25FreePoly0,270.000000*%
%ADD26FreePoly1,270.000000*%
%ADD27RoundRect,0.250000X-1.075000X0.400000X-1.075000X-0.400000X1.075000X-0.400000X1.075000X0.400000X0*%
%ADD28RoundRect,0.250000X1.075000X-0.400000X1.075000X0.400000X-1.075000X0.400000X-1.075000X-0.400000X0*%
%ADD29FreePoly0,90.000000*%
%ADD30FreePoly1,90.000000*%
%ADD31RoundRect,0.250000X0.400000X1.075000X-0.400000X1.075000X-0.400000X-1.075000X0.400000X-1.075000X0*%
G04 APERTURE END LIST*
D10*
X193040000Y-114300000D03*
D11*
X127000000Y-48400000D03*
X128697056Y-52497056D03*
X128697056Y-49102944D03*
X129400000Y-50800000D03*
D12*
X127000000Y-50800000D03*
D11*
X127000000Y-53200000D03*
X125302944Y-49102944D03*
X125302944Y-52497056D03*
X124600000Y-50800000D03*
D13*
X139700000Y-71120000D03*
D14*
X139700000Y-73660000D03*
X139700000Y-76200000D03*
X139700000Y-78740000D03*
X139700000Y-81280000D03*
X139700000Y-83820000D03*
X139700000Y-86360000D03*
X139700000Y-88900000D03*
X139700000Y-91440000D03*
X139700000Y-93980000D03*
X139700000Y-96520000D03*
X139700000Y-99060000D03*
X139700000Y-101600000D03*
X139700000Y-104140000D03*
X139700000Y-106680000D03*
X139700000Y-109220000D03*
D15*
X142240000Y-111760000D03*
D16*
X144780000Y-111760000D03*
X147320000Y-111760000D03*
X149860000Y-111760000D03*
X152400000Y-111760000D03*
X154940000Y-111760000D03*
X157480000Y-111760000D03*
X160020000Y-111760000D03*
X162560000Y-111760000D03*
X165100000Y-111760000D03*
X167640000Y-111760000D03*
X170180000Y-111760000D03*
X172720000Y-111760000D03*
X175260000Y-111760000D03*
X177800000Y-111760000D03*
X180340000Y-111760000D03*
D13*
X182880000Y-109220000D03*
D14*
X182880000Y-106680000D03*
X182880000Y-104140000D03*
X182880000Y-101600000D03*
X182880000Y-99060000D03*
X182880000Y-96520000D03*
X182880000Y-93980000D03*
X182880000Y-91440000D03*
X182880000Y-88900000D03*
X182880000Y-86360000D03*
X182880000Y-83820000D03*
X182880000Y-81280000D03*
X182880000Y-78740000D03*
X182880000Y-76200000D03*
X182880000Y-73660000D03*
X182880000Y-71120000D03*
D15*
X180340000Y-68580000D03*
D16*
X177800000Y-68580000D03*
X175260000Y-68580000D03*
X172720000Y-68580000D03*
X170180000Y-68580000D03*
X167640000Y-68580000D03*
X165100000Y-68580000D03*
X162560000Y-68580000D03*
X160020000Y-68580000D03*
X157480000Y-68580000D03*
X154940000Y-68580000D03*
X152400000Y-68580000D03*
X149860000Y-68580000D03*
X147320000Y-68580000D03*
X144780000Y-68580000D03*
X142240000Y-68580000D03*
D17*
X142240000Y-71120000D03*
D18*
X142240000Y-73660000D03*
D11*
X193040000Y-127140000D03*
X194737056Y-131237056D03*
X194737056Y-127842944D03*
X195440000Y-129540000D03*
D12*
X193040000Y-129540000D03*
D11*
X193040000Y-131940000D03*
X191342944Y-127842944D03*
X191342944Y-131237056D03*
X190640000Y-129540000D03*
D15*
X163830000Y-99060000D03*
D16*
X161290000Y-99060000D03*
X158750000Y-99060000D03*
X156210000Y-99060000D03*
X156210000Y-106680000D03*
X158750000Y-106680000D03*
X161290000Y-106680000D03*
X163830000Y-106680000D03*
D10*
X156210000Y-120650000D03*
D19*
X185420000Y-53340000D03*
D20*
X180340000Y-53340000D03*
X175260000Y-53340000D03*
X170180000Y-53340000D03*
X165100000Y-53340000D03*
X160020000Y-53340000D03*
X154940000Y-53340000D03*
X149860000Y-53340000D03*
X144780000Y-53340000D03*
X139700000Y-53340000D03*
D11*
X146050000Y-77610000D03*
X147747056Y-81707056D03*
X147747056Y-78312944D03*
X148450000Y-80010000D03*
D12*
X146050000Y-80010000D03*
D11*
X146050000Y-82410000D03*
X144352944Y-78312944D03*
X144352944Y-81707056D03*
X143650000Y-80010000D03*
D21*
X160020000Y-121920000D03*
D22*
X162560000Y-121920000D03*
D11*
X193040000Y-48400000D03*
X194737056Y-52497056D03*
X194737056Y-49102944D03*
X195440000Y-50800000D03*
D12*
X193040000Y-50800000D03*
D11*
X193040000Y-53200000D03*
X191342944Y-49102944D03*
X191342944Y-52497056D03*
X190640000Y-50800000D03*
D10*
X147320000Y-104140000D03*
D19*
X129540000Y-93980000D03*
D20*
X129540000Y-99060000D03*
X129540000Y-104140000D03*
X129540000Y-109220000D03*
X129540000Y-114300000D03*
X129540000Y-119380000D03*
D21*
X144780000Y-121920000D03*
D22*
X147320000Y-121920000D03*
X149860000Y-121920000D03*
X152400000Y-121920000D03*
D23*
X193040000Y-74930000D03*
D24*
X190500000Y-74930000D03*
X193040000Y-77470000D03*
X190500000Y-77470000D03*
X193040000Y-80010000D03*
X190500000Y-80010000D03*
X193040000Y-82550000D03*
X190500000Y-82550000D03*
X193040000Y-85090000D03*
X190500000Y-85090000D03*
X193040000Y-87630000D03*
X190500000Y-87630000D03*
X193040000Y-90170000D03*
X190500000Y-90170000D03*
X193040000Y-92710000D03*
X190500000Y-92710000D03*
X193040000Y-95250000D03*
X190500000Y-95250000D03*
X193040000Y-97790000D03*
X190500000Y-97790000D03*
X193040000Y-100330000D03*
X190500000Y-100330000D03*
X193040000Y-102870000D03*
X190500000Y-102870000D03*
X193040000Y-105410000D03*
X190500000Y-105410000D03*
D21*
X170180000Y-121920000D03*
D22*
X172720000Y-121920000D03*
D19*
X129540000Y-60960000D03*
D20*
X129540000Y-66040000D03*
X129540000Y-71120000D03*
X129540000Y-76200000D03*
X129540000Y-81280000D03*
X129540000Y-86360000D03*
D21*
X154940000Y-81280000D03*
D22*
X157480000Y-81280000D03*
D11*
X127000000Y-127140000D03*
X128697056Y-131237056D03*
X128697056Y-127842944D03*
X129400000Y-129540000D03*
D12*
X127000000Y-129540000D03*
D11*
X127000000Y-131940000D03*
X125302944Y-127842944D03*
X125302944Y-131237056D03*
X124600000Y-129540000D03*
D25*
X167005000Y-82535000D03*
D26*
X167005000Y-83835000D03*
D27*
X165100000Y-60680000D03*
X165100000Y-63780000D03*
D28*
X167005000Y-78385000D03*
X167005000Y-75285000D03*
D29*
X177800000Y-58435000D03*
D30*
X177800000Y-57135000D03*
D25*
X172720000Y-82535000D03*
D26*
X172720000Y-83835000D03*
D27*
X175260000Y-60680000D03*
X175260000Y-63780000D03*
D29*
X152400000Y-58435000D03*
D30*
X152400000Y-57135000D03*
D29*
X167640000Y-58435000D03*
D30*
X167640000Y-57135000D03*
D27*
X149860000Y-60680000D03*
X149860000Y-63780000D03*
D31*
X160300000Y-102870000D03*
X157200000Y-102870000D03*
D29*
X172720000Y-58435000D03*
D30*
X172720000Y-57135000D03*
D27*
X144780000Y-60680000D03*
X144780000Y-63780000D03*
D29*
X182880000Y-58435000D03*
D30*
X182880000Y-57135000D03*
D29*
X162560000Y-58435000D03*
D30*
X162560000Y-57135000D03*
D29*
X147320000Y-58435000D03*
D30*
X147320000Y-57135000D03*
D28*
X172720000Y-78385000D03*
X172720000Y-75285000D03*
D29*
X157480000Y-58435000D03*
D30*
X157480000Y-57135000D03*
D27*
X180340000Y-60680000D03*
X180340000Y-63780000D03*
D25*
X168910000Y-102855000D03*
D26*
X168910000Y-104155000D03*
D27*
X154940000Y-60680000D03*
X154940000Y-63780000D03*
X160020000Y-60680000D03*
X160020000Y-63780000D03*
X170180000Y-60680000D03*
X170180000Y-63780000D03*
M02*
