%FSLAX45Y45*%
G04 Gerber Fmt 4.5, Leading zero omitted, Abs format (unit mm)*
G04 Created by KiCad (PCBNEW (6.0.4-163-g7b7e4e1ae5)) date 2022-06-12 18:41:13*
%MOMM*%
%LPD*%
G01*
G04 APERTURE LIST*
%TA.AperFunction,Profile*%
%ADD10C,0.100000*%
%TD*%
%ADD11C,0.200000*%
%ADD12C,0.050000*%
%ADD13C,0.060000*%
%ADD14C,0.080000*%
%ADD15C,0.100000*%
%ADD16C,0.110000*%
%ADD17C,0.130000*%
%ADD18C,0.320000*%
G04 APERTURE END LIST*
D10*
X12192000Y-12954000D02*
X12192000Y-5080000D01*
X12700000Y-4572000D02*
G75*
G03*
X12192000Y-5080000I0J-508000D01*
G01*
X19812000Y-5080000D02*
X19812000Y-12954000D01*
X12192000Y-12954000D02*
G75*
G03*
X12700000Y-13462000I508000J0D01*
G01*
X19304000Y-13462000D02*
X12700000Y-13462000D01*
X19812000Y-5080000D02*
G75*
G03*
X19304000Y-4572000I-508000J0D01*
G01*
X12700000Y-4572000D02*
X19304000Y-4572000D01*
X19304000Y-13462000D02*
G75*
G03*
X19812000Y-12954000I0J508000D01*
G01*
D11*
D12*
X12435000Y-5055000D02*
X12485000Y-5105000D01*
X12485000Y-5055000D02*
X12435000Y-5105000D01*
X12435000Y-12929000D02*
X12485000Y-12979000D01*
X12485000Y-12929000D02*
X12435000Y-12979000D01*
X12505294Y-4885294D02*
X12555294Y-4935294D01*
X12555294Y-4885294D02*
X12505294Y-4935294D01*
X12505294Y-5224706D02*
X12555294Y-5274706D01*
X12555294Y-5224706D02*
X12505294Y-5274706D01*
X12505294Y-12759294D02*
X12555294Y-12809294D01*
X12555294Y-12759294D02*
X12505294Y-12809294D01*
X12505294Y-13098706D02*
X12555294Y-13148706D01*
X12555294Y-13098706D02*
X12505294Y-13148706D01*
X12675000Y-4815000D02*
X12725000Y-4865000D01*
X12725000Y-4815000D02*
X12675000Y-4865000D01*
X12675000Y-5295000D02*
X12725000Y-5345000D01*
X12725000Y-5295000D02*
X12675000Y-5345000D01*
X12675000Y-12689000D02*
X12725000Y-12739000D01*
X12725000Y-12689000D02*
X12675000Y-12739000D01*
X12675000Y-13169000D02*
X12725000Y-13219000D01*
X12725000Y-13169000D02*
X12675000Y-13219000D01*
X12844706Y-4885294D02*
X12894706Y-4935294D01*
X12894706Y-4885294D02*
X12844706Y-4935294D01*
X12844706Y-5224706D02*
X12894706Y-5274706D01*
X12894706Y-5224706D02*
X12844706Y-5274706D01*
X12844706Y-12759294D02*
X12894706Y-12809294D01*
X12894706Y-12759294D02*
X12844706Y-12809294D01*
X12844706Y-13098706D02*
X12894706Y-13148706D01*
X12894706Y-13098706D02*
X12844706Y-13148706D01*
X12915000Y-5055000D02*
X12965000Y-5105000D01*
X12965000Y-5055000D02*
X12915000Y-5105000D01*
X12915000Y-12929000D02*
X12965000Y-12979000D01*
X12965000Y-12929000D02*
X12915000Y-12979000D01*
X19039000Y-5055000D02*
X19089000Y-5105000D01*
X19089000Y-5055000D02*
X19039000Y-5105000D01*
X19039000Y-12929000D02*
X19089000Y-12979000D01*
X19089000Y-12929000D02*
X19039000Y-12979000D01*
X19109294Y-4885294D02*
X19159294Y-4935294D01*
X19159294Y-4885294D02*
X19109294Y-4935294D01*
X19109294Y-5224706D02*
X19159294Y-5274706D01*
X19159294Y-5224706D02*
X19109294Y-5274706D01*
X19109294Y-12759294D02*
X19159294Y-12809294D01*
X19159294Y-12759294D02*
X19109294Y-12809294D01*
X19109294Y-13098706D02*
X19159294Y-13148706D01*
X19159294Y-13098706D02*
X19109294Y-13148706D01*
X19279000Y-4815000D02*
X19329000Y-4865000D01*
X19329000Y-4815000D02*
X19279000Y-4865000D01*
X19279000Y-5295000D02*
X19329000Y-5345000D01*
X19329000Y-5295000D02*
X19279000Y-5345000D01*
X19279000Y-12689000D02*
X19329000Y-12739000D01*
X19329000Y-12689000D02*
X19279000Y-12739000D01*
X19279000Y-13169000D02*
X19329000Y-13219000D01*
X19329000Y-13169000D02*
X19279000Y-13219000D01*
X19448706Y-4885294D02*
X19498706Y-4935294D01*
X19498706Y-4885294D02*
X19448706Y-4935294D01*
X19448706Y-5224706D02*
X19498706Y-5274706D01*
X19498706Y-5224706D02*
X19448706Y-5274706D01*
X19448706Y-12759294D02*
X19498706Y-12809294D01*
X19498706Y-12759294D02*
X19448706Y-12809294D01*
X19448706Y-13098706D02*
X19498706Y-13148706D01*
X19498706Y-13098706D02*
X19448706Y-13148706D01*
X19519000Y-5055000D02*
X19569000Y-5105000D01*
X19569000Y-5055000D02*
X19519000Y-5105000D01*
X19519000Y-12929000D02*
X19569000Y-12979000D01*
X19569000Y-12929000D02*
X19519000Y-12979000D01*
D13*
X14508000Y-9906000D02*
G75*
G03*
X14508000Y-9906000I-30000J0D01*
G01*
X14889000Y-7747000D02*
G75*
G03*
X14889000Y-7747000I-30000J0D01*
G01*
X14889000Y-8001000D02*
G75*
G03*
X14889000Y-8001000I-30000J0D01*
G01*
D14*
X13970000Y-7072000D02*
X13970000Y-7152000D01*
X13930000Y-7112000D02*
X14010000Y-7112000D01*
X13970000Y-7326000D02*
X13970000Y-7406000D01*
X13930000Y-7366000D02*
X14010000Y-7366000D01*
X13970000Y-7580000D02*
X13970000Y-7660000D01*
X13930000Y-7620000D02*
X14010000Y-7620000D01*
X13970000Y-7834000D02*
X13970000Y-7914000D01*
X13930000Y-7874000D02*
X14010000Y-7874000D01*
X13970000Y-8088000D02*
X13970000Y-8168000D01*
X13930000Y-8128000D02*
X14010000Y-8128000D01*
X13970000Y-8342000D02*
X13970000Y-8422000D01*
X13930000Y-8382000D02*
X14010000Y-8382000D01*
X13970000Y-8596000D02*
X13970000Y-8676000D01*
X13930000Y-8636000D02*
X14010000Y-8636000D01*
X13970000Y-8850000D02*
X13970000Y-8930000D01*
X13930000Y-8890000D02*
X14010000Y-8890000D01*
X13970000Y-9104000D02*
X13970000Y-9184000D01*
X13930000Y-9144000D02*
X14010000Y-9144000D01*
X13970000Y-9358000D02*
X13970000Y-9438000D01*
X13930000Y-9398000D02*
X14010000Y-9398000D01*
X13970000Y-9612000D02*
X13970000Y-9692000D01*
X13930000Y-9652000D02*
X14010000Y-9652000D01*
X13970000Y-9866000D02*
X13970000Y-9946000D01*
X13930000Y-9906000D02*
X14010000Y-9906000D01*
X13970000Y-10120000D02*
X13970000Y-10200000D01*
X13930000Y-10160000D02*
X14010000Y-10160000D01*
X13970000Y-10374000D02*
X13970000Y-10454000D01*
X13930000Y-10414000D02*
X14010000Y-10414000D01*
X13970000Y-10628000D02*
X13970000Y-10708000D01*
X13930000Y-10668000D02*
X14010000Y-10668000D01*
X13970000Y-10882000D02*
X13970000Y-10962000D01*
X13930000Y-10922000D02*
X14010000Y-10922000D01*
X14224000Y-6818000D02*
X14224000Y-6898000D01*
X14184000Y-6858000D02*
X14264000Y-6858000D01*
X14224000Y-7072000D02*
X14224000Y-7152000D01*
X14184000Y-7112000D02*
X14264000Y-7112000D01*
X14224000Y-7326000D02*
X14224000Y-7406000D01*
X14184000Y-7366000D02*
X14264000Y-7366000D01*
X14224000Y-11136000D02*
X14224000Y-11216000D01*
X14184000Y-11176000D02*
X14264000Y-11176000D01*
X14478000Y-6818000D02*
X14478000Y-6898000D01*
X14438000Y-6858000D02*
X14518000Y-6858000D01*
X14478000Y-11136000D02*
X14478000Y-11216000D01*
X14438000Y-11176000D02*
X14518000Y-11176000D01*
X14732000Y-6818000D02*
X14732000Y-6898000D01*
X14692000Y-6858000D02*
X14772000Y-6858000D01*
X14732000Y-11136000D02*
X14732000Y-11216000D01*
X14692000Y-11176000D02*
X14772000Y-11176000D01*
X14986000Y-6818000D02*
X14986000Y-6898000D01*
X14946000Y-6858000D02*
X15026000Y-6858000D01*
X14986000Y-11136000D02*
X14986000Y-11216000D01*
X14946000Y-11176000D02*
X15026000Y-11176000D01*
X15240000Y-6818000D02*
X15240000Y-6898000D01*
X15200000Y-6858000D02*
X15280000Y-6858000D01*
X15240000Y-11136000D02*
X15240000Y-11216000D01*
X15200000Y-11176000D02*
X15280000Y-11176000D01*
X15494000Y-6818000D02*
X15494000Y-6898000D01*
X15454000Y-6858000D02*
X15534000Y-6858000D01*
X15494000Y-9866000D02*
X15494000Y-9946000D01*
X15454000Y-9906000D02*
X15534000Y-9906000D01*
X15494000Y-10628000D02*
X15494000Y-10708000D01*
X15454000Y-10668000D02*
X15534000Y-10668000D01*
X15494000Y-11136000D02*
X15494000Y-11216000D01*
X15454000Y-11176000D02*
X15534000Y-11176000D01*
X15748000Y-6818000D02*
X15748000Y-6898000D01*
X15708000Y-6858000D02*
X15788000Y-6858000D01*
X15748000Y-9866000D02*
X15748000Y-9946000D01*
X15708000Y-9906000D02*
X15788000Y-9906000D01*
X15748000Y-10628000D02*
X15748000Y-10708000D01*
X15708000Y-10668000D02*
X15788000Y-10668000D01*
X15748000Y-11136000D02*
X15748000Y-11216000D01*
X15708000Y-11176000D02*
X15788000Y-11176000D01*
X16002000Y-6818000D02*
X16002000Y-6898000D01*
X15962000Y-6858000D02*
X16042000Y-6858000D01*
X16002000Y-9866000D02*
X16002000Y-9946000D01*
X15962000Y-9906000D02*
X16042000Y-9906000D01*
X16002000Y-10628000D02*
X16002000Y-10708000D01*
X15962000Y-10668000D02*
X16042000Y-10668000D01*
X16002000Y-11136000D02*
X16002000Y-11216000D01*
X15962000Y-11176000D02*
X16042000Y-11176000D01*
X16256000Y-6818000D02*
X16256000Y-6898000D01*
X16216000Y-6858000D02*
X16296000Y-6858000D01*
X16256000Y-9866000D02*
X16256000Y-9946000D01*
X16216000Y-9906000D02*
X16296000Y-9906000D01*
X16256000Y-10628000D02*
X16256000Y-10708000D01*
X16216000Y-10668000D02*
X16296000Y-10668000D01*
X16256000Y-11136000D02*
X16256000Y-11216000D01*
X16216000Y-11176000D02*
X16296000Y-11176000D01*
X16510000Y-6818000D02*
X16510000Y-6898000D01*
X16470000Y-6858000D02*
X16550000Y-6858000D01*
X16510000Y-11136000D02*
X16510000Y-11216000D01*
X16470000Y-11176000D02*
X16550000Y-11176000D01*
X16764000Y-6818000D02*
X16764000Y-6898000D01*
X16724000Y-6858000D02*
X16804000Y-6858000D01*
X16764000Y-11136000D02*
X16764000Y-11216000D01*
X16724000Y-11176000D02*
X16804000Y-11176000D01*
X17018000Y-6818000D02*
X17018000Y-6898000D01*
X16978000Y-6858000D02*
X17058000Y-6858000D01*
X17018000Y-11136000D02*
X17018000Y-11216000D01*
X16978000Y-11176000D02*
X17058000Y-11176000D01*
X17272000Y-6818000D02*
X17272000Y-6898000D01*
X17232000Y-6858000D02*
X17312000Y-6858000D01*
X17272000Y-11136000D02*
X17272000Y-11216000D01*
X17232000Y-11176000D02*
X17312000Y-11176000D01*
X17526000Y-6818000D02*
X17526000Y-6898000D01*
X17486000Y-6858000D02*
X17566000Y-6858000D01*
X17526000Y-11136000D02*
X17526000Y-11216000D01*
X17486000Y-11176000D02*
X17566000Y-11176000D01*
X17780000Y-6818000D02*
X17780000Y-6898000D01*
X17740000Y-6858000D02*
X17820000Y-6858000D01*
X17780000Y-11136000D02*
X17780000Y-11216000D01*
X17740000Y-11176000D02*
X17820000Y-11176000D01*
X18034000Y-6818000D02*
X18034000Y-6898000D01*
X17994000Y-6858000D02*
X18074000Y-6858000D01*
X18034000Y-11136000D02*
X18034000Y-11216000D01*
X17994000Y-11176000D02*
X18074000Y-11176000D01*
X18288000Y-7072000D02*
X18288000Y-7152000D01*
X18248000Y-7112000D02*
X18328000Y-7112000D01*
X18288000Y-7326000D02*
X18288000Y-7406000D01*
X18248000Y-7366000D02*
X18328000Y-7366000D01*
X18288000Y-7580000D02*
X18288000Y-7660000D01*
X18248000Y-7620000D02*
X18328000Y-7620000D01*
X18288000Y-7834000D02*
X18288000Y-7914000D01*
X18248000Y-7874000D02*
X18328000Y-7874000D01*
X18288000Y-8088000D02*
X18288000Y-8168000D01*
X18248000Y-8128000D02*
X18328000Y-8128000D01*
X18288000Y-8342000D02*
X18288000Y-8422000D01*
X18248000Y-8382000D02*
X18328000Y-8382000D01*
X18288000Y-8596000D02*
X18288000Y-8676000D01*
X18248000Y-8636000D02*
X18328000Y-8636000D01*
X18288000Y-8850000D02*
X18288000Y-8930000D01*
X18248000Y-8890000D02*
X18328000Y-8890000D01*
X18288000Y-9104000D02*
X18288000Y-9184000D01*
X18248000Y-9144000D02*
X18328000Y-9144000D01*
X18288000Y-9358000D02*
X18288000Y-9438000D01*
X18248000Y-9398000D02*
X18328000Y-9398000D01*
X18288000Y-9612000D02*
X18288000Y-9692000D01*
X18248000Y-9652000D02*
X18328000Y-9652000D01*
X18288000Y-9866000D02*
X18288000Y-9946000D01*
X18248000Y-9906000D02*
X18328000Y-9906000D01*
X18288000Y-10120000D02*
X18288000Y-10200000D01*
X18248000Y-10160000D02*
X18328000Y-10160000D01*
X18288000Y-10374000D02*
X18288000Y-10454000D01*
X18248000Y-10414000D02*
X18328000Y-10414000D01*
X18288000Y-10628000D02*
X18288000Y-10708000D01*
X18248000Y-10668000D02*
X18328000Y-10668000D01*
X18288000Y-10882000D02*
X18288000Y-10962000D01*
X18248000Y-10922000D02*
X18328000Y-10922000D01*
D15*
X15783356Y-8163356D02*
X15783356Y-8092644D01*
X15712644Y-8092644D01*
X15712644Y-8163356D01*
X15783356Y-8163356D01*
X15783356Y-8417356D02*
X15783356Y-8346644D01*
X15712644Y-8346644D01*
X15712644Y-8417356D01*
X15783356Y-8417356D01*
X16291356Y-8163356D02*
X16291356Y-8092644D01*
X16220644Y-8092644D01*
X16220644Y-8163356D01*
X16291356Y-8163356D01*
X16291356Y-8417356D02*
X16291356Y-8346644D01*
X16220644Y-8346644D01*
X16220644Y-8417356D01*
X16291356Y-8417356D01*
X16799356Y-12227356D02*
X16799356Y-12156644D01*
X16728644Y-12156644D01*
X16728644Y-12227356D01*
X16799356Y-12227356D01*
X17053356Y-12227356D02*
X17053356Y-12156644D01*
X16982644Y-12156644D01*
X16982644Y-12227356D01*
X17053356Y-12227356D01*
X19085356Y-7401356D02*
X19085356Y-7330644D01*
X19014644Y-7330644D01*
X19014644Y-7401356D01*
X19085356Y-7401356D01*
X19085356Y-7655356D02*
X19085356Y-7584644D01*
X19014644Y-7584644D01*
X19014644Y-7655356D01*
X19085356Y-7655356D01*
X19085356Y-7909356D02*
X19085356Y-7838644D01*
X19014644Y-7838644D01*
X19014644Y-7909356D01*
X19085356Y-7909356D01*
X19085356Y-8163356D02*
X19085356Y-8092644D01*
X19014644Y-8092644D01*
X19014644Y-8163356D01*
X19085356Y-8163356D01*
X19085356Y-8417356D02*
X19085356Y-8346644D01*
X19014644Y-8346644D01*
X19014644Y-8417356D01*
X19085356Y-8417356D01*
X19085356Y-8671356D02*
X19085356Y-8600644D01*
X19014644Y-8600644D01*
X19014644Y-8671356D01*
X19085356Y-8671356D01*
X19085356Y-8925356D02*
X19085356Y-8854644D01*
X19014644Y-8854644D01*
X19014644Y-8925356D01*
X19085356Y-8925356D01*
X19085356Y-9179356D02*
X19085356Y-9108644D01*
X19014644Y-9108644D01*
X19014644Y-9179356D01*
X19085356Y-9179356D01*
X19085356Y-9433356D02*
X19085356Y-9362644D01*
X19014644Y-9362644D01*
X19014644Y-9433356D01*
X19085356Y-9433356D01*
X19085356Y-9687356D02*
X19085356Y-9616644D01*
X19014644Y-9616644D01*
X19014644Y-9687356D01*
X19085356Y-9687356D01*
X19085356Y-9941356D02*
X19085356Y-9870644D01*
X19014644Y-9870644D01*
X19014644Y-9941356D01*
X19085356Y-9941356D01*
X19085356Y-10195356D02*
X19085356Y-10124644D01*
X19014644Y-10124644D01*
X19014644Y-10195356D01*
X19085356Y-10195356D01*
X19085356Y-10449356D02*
X19085356Y-10378644D01*
X19014644Y-10378644D01*
X19014644Y-10449356D01*
X19085356Y-10449356D01*
X19085356Y-10703356D02*
X19085356Y-10632644D01*
X19014644Y-10632644D01*
X19014644Y-10703356D01*
X19085356Y-10703356D01*
X19339356Y-7401356D02*
X19339356Y-7330644D01*
X19268644Y-7330644D01*
X19268644Y-7401356D01*
X19339356Y-7401356D01*
X19339356Y-7655356D02*
X19339356Y-7584644D01*
X19268644Y-7584644D01*
X19268644Y-7655356D01*
X19339356Y-7655356D01*
X19339356Y-7909356D02*
X19339356Y-7838644D01*
X19268644Y-7838644D01*
X19268644Y-7909356D01*
X19339356Y-7909356D01*
X19339356Y-8163356D02*
X19339356Y-8092644D01*
X19268644Y-8092644D01*
X19268644Y-8163356D01*
X19339356Y-8163356D01*
X19339356Y-8417356D02*
X19339356Y-8346644D01*
X19268644Y-8346644D01*
X19268644Y-8417356D01*
X19339356Y-8417356D01*
X19339356Y-8671356D02*
X19339356Y-8600644D01*
X19268644Y-8600644D01*
X19268644Y-8671356D01*
X19339356Y-8671356D01*
X19339356Y-8925356D02*
X19339356Y-8854644D01*
X19268644Y-8854644D01*
X19268644Y-8925356D01*
X19339356Y-8925356D01*
X19339356Y-9179356D02*
X19339356Y-9108644D01*
X19268644Y-9108644D01*
X19268644Y-9179356D01*
X19339356Y-9179356D01*
X19339356Y-9433356D02*
X19339356Y-9362644D01*
X19268644Y-9362644D01*
X19268644Y-9433356D01*
X19339356Y-9433356D01*
X19339356Y-9687356D02*
X19339356Y-9616644D01*
X19268644Y-9616644D01*
X19268644Y-9687356D01*
X19339356Y-9687356D01*
X19339356Y-9941356D02*
X19339356Y-9870644D01*
X19268644Y-9870644D01*
X19268644Y-9941356D01*
X19339356Y-9941356D01*
X19339356Y-10195356D02*
X19339356Y-10124644D01*
X19268644Y-10124644D01*
X19268644Y-10195356D01*
X19339356Y-10195356D01*
X19339356Y-10449356D02*
X19339356Y-10378644D01*
X19268644Y-10378644D01*
X19268644Y-10449356D01*
X19339356Y-10449356D01*
X19339356Y-10703356D02*
X19339356Y-10632644D01*
X19268644Y-10632644D01*
X19268644Y-10703356D01*
X19339356Y-10703356D01*
D16*
X13462000Y-5389000D02*
X13517000Y-5334000D01*
X13462000Y-5279000D01*
X13407000Y-5334000D01*
X13462000Y-5389000D01*
X14478000Y-12247000D02*
X14533000Y-12192000D01*
X14478000Y-12137000D01*
X14423000Y-12192000D01*
X14478000Y-12247000D01*
X14732000Y-12247000D02*
X14787000Y-12192000D01*
X14732000Y-12137000D01*
X14677000Y-12192000D01*
X14732000Y-12247000D01*
X14986000Y-12247000D02*
X15041000Y-12192000D01*
X14986000Y-12137000D01*
X14931000Y-12192000D01*
X14986000Y-12247000D01*
X15240000Y-12247000D02*
X15295000Y-12192000D01*
X15240000Y-12137000D01*
X15185000Y-12192000D01*
X15240000Y-12247000D01*
X15494000Y-12247000D02*
X15549000Y-12192000D01*
X15494000Y-12137000D01*
X15439000Y-12192000D01*
X15494000Y-12247000D01*
X15748000Y-12247000D02*
X15803000Y-12192000D01*
X15748000Y-12137000D01*
X15693000Y-12192000D01*
X15748000Y-12247000D01*
X16002000Y-12247000D02*
X16057000Y-12192000D01*
X16002000Y-12137000D01*
X15947000Y-12192000D01*
X16002000Y-12247000D01*
X16256000Y-12247000D02*
X16311000Y-12192000D01*
X16256000Y-12137000D01*
X16201000Y-12192000D01*
X16256000Y-12247000D01*
X19050000Y-11485000D02*
X19105000Y-11430000D01*
X19050000Y-11375000D01*
X18995000Y-11430000D01*
X19050000Y-11485000D01*
X19050000Y-11993000D02*
X19105000Y-11938000D01*
X19050000Y-11883000D01*
X18995000Y-11938000D01*
X19050000Y-11993000D01*
D17*
X12889000Y-6031000D02*
X13019000Y-6161000D01*
X13019000Y-6031000D02*
X12889000Y-6161000D01*
X13019000Y-6096000D02*
G75*
G03*
X13019000Y-6096000I-65000J0D01*
G01*
X12889000Y-6539000D02*
X13019000Y-6669000D01*
X13019000Y-6539000D02*
X12889000Y-6669000D01*
X13019000Y-6604000D02*
G75*
G03*
X13019000Y-6604000I-65000J0D01*
G01*
X12889000Y-7047000D02*
X13019000Y-7177000D01*
X13019000Y-7047000D02*
X12889000Y-7177000D01*
X13019000Y-7112000D02*
G75*
G03*
X13019000Y-7112000I-65000J0D01*
G01*
X12889000Y-7555000D02*
X13019000Y-7685000D01*
X13019000Y-7555000D02*
X12889000Y-7685000D01*
X13019000Y-7620000D02*
G75*
G03*
X13019000Y-7620000I-65000J0D01*
G01*
X12889000Y-8063000D02*
X13019000Y-8193000D01*
X13019000Y-8063000D02*
X12889000Y-8193000D01*
X13019000Y-8128000D02*
G75*
G03*
X13019000Y-8128000I-65000J0D01*
G01*
X12889000Y-8571000D02*
X13019000Y-8701000D01*
X13019000Y-8571000D02*
X12889000Y-8701000D01*
X13019000Y-8636000D02*
G75*
G03*
X13019000Y-8636000I-65000J0D01*
G01*
X12889000Y-9333000D02*
X13019000Y-9463000D01*
X13019000Y-9333000D02*
X12889000Y-9463000D01*
X13019000Y-9398000D02*
G75*
G03*
X13019000Y-9398000I-65000J0D01*
G01*
X12889000Y-9841000D02*
X13019000Y-9971000D01*
X13019000Y-9841000D02*
X12889000Y-9971000D01*
X13019000Y-9906000D02*
G75*
G03*
X13019000Y-9906000I-65000J0D01*
G01*
X12889000Y-10349000D02*
X13019000Y-10479000D01*
X13019000Y-10349000D02*
X12889000Y-10479000D01*
X13019000Y-10414000D02*
G75*
G03*
X13019000Y-10414000I-65000J0D01*
G01*
X12889000Y-10857000D02*
X13019000Y-10987000D01*
X13019000Y-10857000D02*
X12889000Y-10987000D01*
X13019000Y-10922000D02*
G75*
G03*
X13019000Y-10922000I-65000J0D01*
G01*
X12889000Y-11365000D02*
X13019000Y-11495000D01*
X13019000Y-11365000D02*
X12889000Y-11495000D01*
X13019000Y-11430000D02*
G75*
G03*
X13019000Y-11430000I-65000J0D01*
G01*
X12889000Y-11873000D02*
X13019000Y-12003000D01*
X13019000Y-11873000D02*
X12889000Y-12003000D01*
X13019000Y-11938000D02*
G75*
G03*
X13019000Y-11938000I-65000J0D01*
G01*
X13905000Y-5269000D02*
X14035000Y-5399000D01*
X14035000Y-5269000D02*
X13905000Y-5399000D01*
X14035000Y-5334000D02*
G75*
G03*
X14035000Y-5334000I-65000J0D01*
G01*
X14413000Y-5269000D02*
X14543000Y-5399000D01*
X14543000Y-5269000D02*
X14413000Y-5399000D01*
X14543000Y-5334000D02*
G75*
G03*
X14543000Y-5334000I-65000J0D01*
G01*
X14921000Y-5269000D02*
X15051000Y-5399000D01*
X15051000Y-5269000D02*
X14921000Y-5399000D01*
X15051000Y-5334000D02*
G75*
G03*
X15051000Y-5334000I-65000J0D01*
G01*
X15429000Y-5269000D02*
X15559000Y-5399000D01*
X15559000Y-5269000D02*
X15429000Y-5399000D01*
X15559000Y-5334000D02*
G75*
G03*
X15559000Y-5334000I-65000J0D01*
G01*
X15937000Y-5269000D02*
X16067000Y-5399000D01*
X16067000Y-5269000D02*
X15937000Y-5399000D01*
X16067000Y-5334000D02*
G75*
G03*
X16067000Y-5334000I-65000J0D01*
G01*
X16445000Y-5269000D02*
X16575000Y-5399000D01*
X16575000Y-5269000D02*
X16445000Y-5399000D01*
X16575000Y-5334000D02*
G75*
G03*
X16575000Y-5334000I-65000J0D01*
G01*
X16953000Y-5269000D02*
X17083000Y-5399000D01*
X17083000Y-5269000D02*
X16953000Y-5399000D01*
X17083000Y-5334000D02*
G75*
G03*
X17083000Y-5334000I-65000J0D01*
G01*
X17461000Y-5269000D02*
X17591000Y-5399000D01*
X17591000Y-5269000D02*
X17461000Y-5399000D01*
X17591000Y-5334000D02*
G75*
G03*
X17591000Y-5334000I-65000J0D01*
G01*
X17969000Y-5269000D02*
X18099000Y-5399000D01*
X18099000Y-5269000D02*
X17969000Y-5399000D01*
X18099000Y-5334000D02*
G75*
G03*
X18099000Y-5334000I-65000J0D01*
G01*
X18477000Y-5269000D02*
X18607000Y-5399000D01*
X18607000Y-5269000D02*
X18477000Y-5399000D01*
X18607000Y-5334000D02*
G75*
G03*
X18607000Y-5334000I-65000J0D01*
G01*
D18*
X12540000Y-4920000D02*
X12860000Y-5240000D01*
X12860000Y-4920000D02*
X12540000Y-5240000D01*
X12700000Y-4920000D02*
X12700000Y-5240000D01*
X12540000Y-5080000D02*
X12860000Y-5080000D01*
X12540000Y-12794000D02*
X12860000Y-13114000D01*
X12860000Y-12794000D02*
X12540000Y-13114000D01*
X12700000Y-12794000D02*
X12700000Y-13114000D01*
X12540000Y-12954000D02*
X12860000Y-12954000D01*
X19144000Y-4920000D02*
X19464000Y-5240000D01*
X19464000Y-4920000D02*
X19144000Y-5240000D01*
X19304000Y-4920000D02*
X19304000Y-5240000D01*
X19144000Y-5080000D02*
X19464000Y-5080000D01*
X19144000Y-12794000D02*
X19464000Y-13114000D01*
X19464000Y-12794000D02*
X19144000Y-13114000D01*
X19304000Y-12794000D02*
X19304000Y-13114000D01*
X19144000Y-12954000D02*
X19464000Y-12954000D01*
D11*
X12444619Y-13777476D02*
X12444619Y-13577476D01*
X12492238Y-13577476D01*
X12520809Y-13587000D01*
X12539857Y-13606048D01*
X12549381Y-13625095D01*
X12558905Y-13663190D01*
X12558905Y-13691762D01*
X12549381Y-13729857D01*
X12539857Y-13748905D01*
X12520809Y-13767952D01*
X12492238Y-13777476D01*
X12444619Y-13777476D01*
X12644619Y-13777476D02*
X12644619Y-13644143D01*
X12644619Y-13682238D02*
X12654143Y-13663190D01*
X12663667Y-13653667D01*
X12682714Y-13644143D01*
X12701762Y-13644143D01*
X12768428Y-13777476D02*
X12768428Y-13644143D01*
X12768428Y-13577476D02*
X12758905Y-13587000D01*
X12768428Y-13596524D01*
X12777952Y-13587000D01*
X12768428Y-13577476D01*
X12768428Y-13596524D01*
X12892238Y-13777476D02*
X12873190Y-13767952D01*
X12863667Y-13748905D01*
X12863667Y-13577476D01*
X12997000Y-13777476D02*
X12977952Y-13767952D01*
X12968428Y-13748905D01*
X12968428Y-13577476D01*
X13225571Y-13777476D02*
X13225571Y-13577476D01*
X13292238Y-13720333D01*
X13358905Y-13577476D01*
X13358905Y-13777476D01*
X13539857Y-13777476D02*
X13539857Y-13672714D01*
X13530333Y-13653667D01*
X13511286Y-13644143D01*
X13473190Y-13644143D01*
X13454143Y-13653667D01*
X13539857Y-13767952D02*
X13520809Y-13777476D01*
X13473190Y-13777476D01*
X13454143Y-13767952D01*
X13444619Y-13748905D01*
X13444619Y-13729857D01*
X13454143Y-13710809D01*
X13473190Y-13701286D01*
X13520809Y-13701286D01*
X13539857Y-13691762D01*
X13635095Y-13644143D02*
X13635095Y-13844143D01*
X13635095Y-13653667D02*
X13654143Y-13644143D01*
X13692238Y-13644143D01*
X13711286Y-13653667D01*
X13720809Y-13663190D01*
X13730333Y-13682238D01*
X13730333Y-13739381D01*
X13720809Y-13758428D01*
X13711286Y-13767952D01*
X13692238Y-13777476D01*
X13654143Y-13777476D01*
X13635095Y-13767952D01*
X13816048Y-13758428D02*
X13825571Y-13767952D01*
X13816048Y-13777476D01*
X13806524Y-13767952D01*
X13816048Y-13758428D01*
X13816048Y-13777476D01*
X13816048Y-13653667D02*
X13825571Y-13663190D01*
X13816048Y-13672714D01*
X13806524Y-13663190D01*
X13816048Y-13653667D01*
X13816048Y-13672714D01*
D12*
X12137000Y-14082000D02*
X12187000Y-14132000D01*
X12187000Y-14082000D02*
X12137000Y-14132000D01*
D11*
X12482714Y-13997476D02*
X12501762Y-13997476D01*
X12520809Y-14007000D01*
X12530333Y-14016524D01*
X12539857Y-14035571D01*
X12549381Y-14073667D01*
X12549381Y-14121286D01*
X12539857Y-14159381D01*
X12530333Y-14178428D01*
X12520809Y-14187952D01*
X12501762Y-14197476D01*
X12482714Y-14197476D01*
X12463667Y-14187952D01*
X12454143Y-14178428D01*
X12444619Y-14159381D01*
X12435095Y-14121286D01*
X12435095Y-14073667D01*
X12444619Y-14035571D01*
X12454143Y-14016524D01*
X12463667Y-14007000D01*
X12482714Y-13997476D01*
X12635095Y-14178428D02*
X12644619Y-14187952D01*
X12635095Y-14197476D01*
X12625571Y-14187952D01*
X12635095Y-14178428D01*
X12635095Y-14197476D01*
X12825571Y-13997476D02*
X12730333Y-13997476D01*
X12720809Y-14092714D01*
X12730333Y-14083190D01*
X12749381Y-14073667D01*
X12797000Y-14073667D01*
X12816048Y-14083190D01*
X12825571Y-14092714D01*
X12835095Y-14111762D01*
X12835095Y-14159381D01*
X12825571Y-14178428D01*
X12816048Y-14187952D01*
X12797000Y-14197476D01*
X12749381Y-14197476D01*
X12730333Y-14187952D01*
X12720809Y-14178428D01*
X12958905Y-13997476D02*
X12977952Y-13997476D01*
X12997000Y-14007000D01*
X13006524Y-14016524D01*
X13016048Y-14035571D01*
X13025571Y-14073667D01*
X13025571Y-14121286D01*
X13016048Y-14159381D01*
X13006524Y-14178428D01*
X12997000Y-14187952D01*
X12977952Y-14197476D01*
X12958905Y-14197476D01*
X12939857Y-14187952D01*
X12930333Y-14178428D01*
X12920809Y-14159381D01*
X12911286Y-14121286D01*
X12911286Y-14073667D01*
X12920809Y-14035571D01*
X12930333Y-14016524D01*
X12939857Y-14007000D01*
X12958905Y-13997476D01*
X13149381Y-13997476D02*
X13168428Y-13997476D01*
X13187476Y-14007000D01*
X13197000Y-14016524D01*
X13206524Y-14035571D01*
X13216048Y-14073667D01*
X13216048Y-14121286D01*
X13206524Y-14159381D01*
X13197000Y-14178428D01*
X13187476Y-14187952D01*
X13168428Y-14197476D01*
X13149381Y-14197476D01*
X13130333Y-14187952D01*
X13120809Y-14178428D01*
X13111286Y-14159381D01*
X13101762Y-14121286D01*
X13101762Y-14073667D01*
X13111286Y-14035571D01*
X13120809Y-14016524D01*
X13130333Y-14007000D01*
X13149381Y-13997476D01*
X13301762Y-14197476D02*
X13301762Y-14064143D01*
X13301762Y-14083190D02*
X13311286Y-14073667D01*
X13330333Y-14064143D01*
X13358905Y-14064143D01*
X13377952Y-14073667D01*
X13387476Y-14092714D01*
X13387476Y-14197476D01*
X13387476Y-14092714D02*
X13397000Y-14073667D01*
X13416048Y-14064143D01*
X13444619Y-14064143D01*
X13463667Y-14073667D01*
X13473190Y-14092714D01*
X13473190Y-14197476D01*
X13568428Y-14197476D02*
X13568428Y-14064143D01*
X13568428Y-14083190D02*
X13577952Y-14073667D01*
X13597000Y-14064143D01*
X13625571Y-14064143D01*
X13644619Y-14073667D01*
X13654143Y-14092714D01*
X13654143Y-14197476D01*
X13654143Y-14092714D02*
X13663667Y-14073667D01*
X13682714Y-14064143D01*
X13711286Y-14064143D01*
X13730333Y-14073667D01*
X13739857Y-14092714D01*
X13739857Y-14197476D01*
X14130333Y-13987952D02*
X13958905Y-14245095D01*
X14387476Y-13997476D02*
X14406524Y-13997476D01*
X14425571Y-14007000D01*
X14435095Y-14016524D01*
X14444619Y-14035571D01*
X14454143Y-14073667D01*
X14454143Y-14121286D01*
X14444619Y-14159381D01*
X14435095Y-14178428D01*
X14425571Y-14187952D01*
X14406524Y-14197476D01*
X14387476Y-14197476D01*
X14368428Y-14187952D01*
X14358905Y-14178428D01*
X14349381Y-14159381D01*
X14339857Y-14121286D01*
X14339857Y-14073667D01*
X14349381Y-14035571D01*
X14358905Y-14016524D01*
X14368428Y-14007000D01*
X14387476Y-13997476D01*
X14539857Y-14178428D02*
X14549381Y-14187952D01*
X14539857Y-14197476D01*
X14530333Y-14187952D01*
X14539857Y-14178428D01*
X14539857Y-14197476D01*
X14673190Y-13997476D02*
X14692238Y-13997476D01*
X14711286Y-14007000D01*
X14720809Y-14016524D01*
X14730333Y-14035571D01*
X14739857Y-14073667D01*
X14739857Y-14121286D01*
X14730333Y-14159381D01*
X14720809Y-14178428D01*
X14711286Y-14187952D01*
X14692238Y-14197476D01*
X14673190Y-14197476D01*
X14654143Y-14187952D01*
X14644619Y-14178428D01*
X14635095Y-14159381D01*
X14625571Y-14121286D01*
X14625571Y-14073667D01*
X14635095Y-14035571D01*
X14644619Y-14016524D01*
X14654143Y-14007000D01*
X14673190Y-13997476D01*
X14930333Y-14197476D02*
X14816048Y-14197476D01*
X14873190Y-14197476D02*
X14873190Y-13997476D01*
X14854143Y-14026048D01*
X14835095Y-14045095D01*
X14816048Y-14054619D01*
X15025571Y-14197476D02*
X15063667Y-14197476D01*
X15082714Y-14187952D01*
X15092238Y-14178428D01*
X15111286Y-14149857D01*
X15120809Y-14111762D01*
X15120809Y-14035571D01*
X15111286Y-14016524D01*
X15101762Y-14007000D01*
X15082714Y-13997476D01*
X15044619Y-13997476D01*
X15025571Y-14007000D01*
X15016048Y-14016524D01*
X15006524Y-14035571D01*
X15006524Y-14083190D01*
X15016048Y-14102238D01*
X15025571Y-14111762D01*
X15044619Y-14121286D01*
X15082714Y-14121286D01*
X15101762Y-14111762D01*
X15111286Y-14102238D01*
X15120809Y-14083190D01*
X15187476Y-13997476D02*
X15320809Y-13997476D01*
X15235095Y-14197476D01*
X15387476Y-13997476D02*
X15387476Y-14035571D01*
X15463667Y-13997476D02*
X15463667Y-14035571D01*
X15758905Y-14273667D02*
X15749381Y-14264143D01*
X15730333Y-14235571D01*
X15720809Y-14216524D01*
X15711286Y-14187952D01*
X15701762Y-14140333D01*
X15701762Y-14102238D01*
X15711286Y-14054619D01*
X15720809Y-14026048D01*
X15730333Y-14007000D01*
X15749381Y-13978428D01*
X15758905Y-13968905D01*
X15816048Y-13997476D02*
X15939857Y-13997476D01*
X15873190Y-14073667D01*
X15901762Y-14073667D01*
X15920809Y-14083190D01*
X15930333Y-14092714D01*
X15939857Y-14111762D01*
X15939857Y-14159381D01*
X15930333Y-14178428D01*
X15920809Y-14187952D01*
X15901762Y-14197476D01*
X15844619Y-14197476D01*
X15825571Y-14187952D01*
X15816048Y-14178428D01*
X16016048Y-14016524D02*
X16025571Y-14007000D01*
X16044619Y-13997476D01*
X16092238Y-13997476D01*
X16111286Y-14007000D01*
X16120809Y-14016524D01*
X16130333Y-14035571D01*
X16130333Y-14054619D01*
X16120809Y-14083190D01*
X16006524Y-14197476D01*
X16130333Y-14197476D01*
X16368428Y-14197476D02*
X16368428Y-13997476D01*
X16454143Y-14197476D02*
X16454143Y-14092714D01*
X16444619Y-14073667D01*
X16425571Y-14064143D01*
X16397000Y-14064143D01*
X16377952Y-14073667D01*
X16368428Y-14083190D01*
X16577952Y-14197476D02*
X16558905Y-14187952D01*
X16549381Y-14178428D01*
X16539857Y-14159381D01*
X16539857Y-14102238D01*
X16549381Y-14083190D01*
X16558905Y-14073667D01*
X16577952Y-14064143D01*
X16606524Y-14064143D01*
X16625571Y-14073667D01*
X16635095Y-14083190D01*
X16644619Y-14102238D01*
X16644619Y-14159381D01*
X16635095Y-14178428D01*
X16625571Y-14187952D01*
X16606524Y-14197476D01*
X16577952Y-14197476D01*
X16758905Y-14197476D02*
X16739857Y-14187952D01*
X16730333Y-14168905D01*
X16730333Y-13997476D01*
X16911286Y-14187952D02*
X16892238Y-14197476D01*
X16854143Y-14197476D01*
X16835095Y-14187952D01*
X16825571Y-14168905D01*
X16825571Y-14092714D01*
X16835095Y-14073667D01*
X16854143Y-14064143D01*
X16892238Y-14064143D01*
X16911286Y-14073667D01*
X16920810Y-14092714D01*
X16920810Y-14111762D01*
X16825571Y-14130809D01*
X16997000Y-14187952D02*
X17016048Y-14197476D01*
X17054143Y-14197476D01*
X17073190Y-14187952D01*
X17082714Y-14168905D01*
X17082714Y-14159381D01*
X17073190Y-14140333D01*
X17054143Y-14130809D01*
X17025571Y-14130809D01*
X17006524Y-14121286D01*
X16997000Y-14102238D01*
X16997000Y-14092714D01*
X17006524Y-14073667D01*
X17025571Y-14064143D01*
X17054143Y-14064143D01*
X17073190Y-14073667D01*
X17149381Y-14273667D02*
X17158905Y-14264143D01*
X17177952Y-14235571D01*
X17187476Y-14216524D01*
X17197000Y-14187952D01*
X17206524Y-14140333D01*
X17206524Y-14102238D01*
X17197000Y-14054619D01*
X17187476Y-14026048D01*
X17177952Y-14007000D01*
X17158905Y-13978428D01*
X17149381Y-13968905D01*
D13*
X12187000Y-14371000D02*
G75*
G03*
X12187000Y-14371000I-30000J0D01*
G01*
D11*
X12482714Y-14261476D02*
X12501762Y-14261476D01*
X12520809Y-14271000D01*
X12530333Y-14280524D01*
X12539857Y-14299571D01*
X12549381Y-14337667D01*
X12549381Y-14385286D01*
X12539857Y-14423381D01*
X12530333Y-14442428D01*
X12520809Y-14451952D01*
X12501762Y-14461476D01*
X12482714Y-14461476D01*
X12463667Y-14451952D01*
X12454143Y-14442428D01*
X12444619Y-14423381D01*
X12435095Y-14385286D01*
X12435095Y-14337667D01*
X12444619Y-14299571D01*
X12454143Y-14280524D01*
X12463667Y-14271000D01*
X12482714Y-14261476D01*
X12635095Y-14442428D02*
X12644619Y-14451952D01*
X12635095Y-14461476D01*
X12625571Y-14451952D01*
X12635095Y-14442428D01*
X12635095Y-14461476D01*
X12816048Y-14261476D02*
X12777952Y-14261476D01*
X12758905Y-14271000D01*
X12749381Y-14280524D01*
X12730333Y-14309095D01*
X12720809Y-14347190D01*
X12720809Y-14423381D01*
X12730333Y-14442428D01*
X12739857Y-14451952D01*
X12758905Y-14461476D01*
X12797000Y-14461476D01*
X12816048Y-14451952D01*
X12825571Y-14442428D01*
X12835095Y-14423381D01*
X12835095Y-14375762D01*
X12825571Y-14356714D01*
X12816048Y-14347190D01*
X12797000Y-14337667D01*
X12758905Y-14337667D01*
X12739857Y-14347190D01*
X12730333Y-14356714D01*
X12720809Y-14375762D01*
X12958905Y-14261476D02*
X12977952Y-14261476D01*
X12997000Y-14271000D01*
X13006524Y-14280524D01*
X13016048Y-14299571D01*
X13025571Y-14337667D01*
X13025571Y-14385286D01*
X13016048Y-14423381D01*
X13006524Y-14442428D01*
X12997000Y-14451952D01*
X12977952Y-14461476D01*
X12958905Y-14461476D01*
X12939857Y-14451952D01*
X12930333Y-14442428D01*
X12920809Y-14423381D01*
X12911286Y-14385286D01*
X12911286Y-14337667D01*
X12920809Y-14299571D01*
X12930333Y-14280524D01*
X12939857Y-14271000D01*
X12958905Y-14261476D01*
X13149381Y-14261476D02*
X13168428Y-14261476D01*
X13187476Y-14271000D01*
X13197000Y-14280524D01*
X13206524Y-14299571D01*
X13216048Y-14337667D01*
X13216048Y-14385286D01*
X13206524Y-14423381D01*
X13197000Y-14442428D01*
X13187476Y-14451952D01*
X13168428Y-14461476D01*
X13149381Y-14461476D01*
X13130333Y-14451952D01*
X13120809Y-14442428D01*
X13111286Y-14423381D01*
X13101762Y-14385286D01*
X13101762Y-14337667D01*
X13111286Y-14299571D01*
X13120809Y-14280524D01*
X13130333Y-14271000D01*
X13149381Y-14261476D01*
X13301762Y-14461476D02*
X13301762Y-14328143D01*
X13301762Y-14347190D02*
X13311286Y-14337667D01*
X13330333Y-14328143D01*
X13358905Y-14328143D01*
X13377952Y-14337667D01*
X13387476Y-14356714D01*
X13387476Y-14461476D01*
X13387476Y-14356714D02*
X13397000Y-14337667D01*
X13416048Y-14328143D01*
X13444619Y-14328143D01*
X13463667Y-14337667D01*
X13473190Y-14356714D01*
X13473190Y-14461476D01*
X13568428Y-14461476D02*
X13568428Y-14328143D01*
X13568428Y-14347190D02*
X13577952Y-14337667D01*
X13597000Y-14328143D01*
X13625571Y-14328143D01*
X13644619Y-14337667D01*
X13654143Y-14356714D01*
X13654143Y-14461476D01*
X13654143Y-14356714D02*
X13663667Y-14337667D01*
X13682714Y-14328143D01*
X13711286Y-14328143D01*
X13730333Y-14337667D01*
X13739857Y-14356714D01*
X13739857Y-14461476D01*
X14130333Y-14251952D02*
X13958905Y-14509095D01*
X14387476Y-14261476D02*
X14406524Y-14261476D01*
X14425571Y-14271000D01*
X14435095Y-14280524D01*
X14444619Y-14299571D01*
X14454143Y-14337667D01*
X14454143Y-14385286D01*
X14444619Y-14423381D01*
X14435095Y-14442428D01*
X14425571Y-14451952D01*
X14406524Y-14461476D01*
X14387476Y-14461476D01*
X14368428Y-14451952D01*
X14358905Y-14442428D01*
X14349381Y-14423381D01*
X14339857Y-14385286D01*
X14339857Y-14337667D01*
X14349381Y-14299571D01*
X14358905Y-14280524D01*
X14368428Y-14271000D01*
X14387476Y-14261476D01*
X14539857Y-14442428D02*
X14549381Y-14451952D01*
X14539857Y-14461476D01*
X14530333Y-14451952D01*
X14539857Y-14442428D01*
X14539857Y-14461476D01*
X14673190Y-14261476D02*
X14692238Y-14261476D01*
X14711286Y-14271000D01*
X14720809Y-14280524D01*
X14730333Y-14299571D01*
X14739857Y-14337667D01*
X14739857Y-14385286D01*
X14730333Y-14423381D01*
X14720809Y-14442428D01*
X14711286Y-14451952D01*
X14692238Y-14461476D01*
X14673190Y-14461476D01*
X14654143Y-14451952D01*
X14644619Y-14442428D01*
X14635095Y-14423381D01*
X14625571Y-14385286D01*
X14625571Y-14337667D01*
X14635095Y-14299571D01*
X14644619Y-14280524D01*
X14654143Y-14271000D01*
X14673190Y-14261476D01*
X14816048Y-14280524D02*
X14825571Y-14271000D01*
X14844619Y-14261476D01*
X14892238Y-14261476D01*
X14911286Y-14271000D01*
X14920809Y-14280524D01*
X14930333Y-14299571D01*
X14930333Y-14318619D01*
X14920809Y-14347190D01*
X14806524Y-14461476D01*
X14930333Y-14461476D01*
X14997000Y-14261476D02*
X15120809Y-14261476D01*
X15054143Y-14337667D01*
X15082714Y-14337667D01*
X15101762Y-14347190D01*
X15111286Y-14356714D01*
X15120809Y-14375762D01*
X15120809Y-14423381D01*
X15111286Y-14442428D01*
X15101762Y-14451952D01*
X15082714Y-14461476D01*
X15025571Y-14461476D01*
X15006524Y-14451952D01*
X14997000Y-14442428D01*
X15292238Y-14261476D02*
X15254143Y-14261476D01*
X15235095Y-14271000D01*
X15225571Y-14280524D01*
X15206524Y-14309095D01*
X15197000Y-14347190D01*
X15197000Y-14423381D01*
X15206524Y-14442428D01*
X15216048Y-14451952D01*
X15235095Y-14461476D01*
X15273190Y-14461476D01*
X15292238Y-14451952D01*
X15301762Y-14442428D01*
X15311286Y-14423381D01*
X15311286Y-14375762D01*
X15301762Y-14356714D01*
X15292238Y-14347190D01*
X15273190Y-14337667D01*
X15235095Y-14337667D01*
X15216048Y-14347190D01*
X15206524Y-14356714D01*
X15197000Y-14375762D01*
X15387476Y-14261476D02*
X15387476Y-14299571D01*
X15463667Y-14261476D02*
X15463667Y-14299571D01*
X15758905Y-14537667D02*
X15749381Y-14528143D01*
X15730333Y-14499571D01*
X15720809Y-14480524D01*
X15711286Y-14451952D01*
X15701762Y-14404333D01*
X15701762Y-14366238D01*
X15711286Y-14318619D01*
X15720809Y-14290048D01*
X15730333Y-14271000D01*
X15749381Y-14242428D01*
X15758905Y-14232905D01*
X15816048Y-14261476D02*
X15939857Y-14261476D01*
X15873190Y-14337667D01*
X15901762Y-14337667D01*
X15920809Y-14347190D01*
X15930333Y-14356714D01*
X15939857Y-14375762D01*
X15939857Y-14423381D01*
X15930333Y-14442428D01*
X15920809Y-14451952D01*
X15901762Y-14461476D01*
X15844619Y-14461476D01*
X15825571Y-14451952D01*
X15816048Y-14442428D01*
X16177952Y-14461476D02*
X16177952Y-14261476D01*
X16263667Y-14461476D02*
X16263667Y-14356714D01*
X16254143Y-14337667D01*
X16235095Y-14328143D01*
X16206524Y-14328143D01*
X16187476Y-14337667D01*
X16177952Y-14347190D01*
X16387476Y-14461476D02*
X16368428Y-14451952D01*
X16358905Y-14442428D01*
X16349381Y-14423381D01*
X16349381Y-14366238D01*
X16358905Y-14347190D01*
X16368428Y-14337667D01*
X16387476Y-14328143D01*
X16416048Y-14328143D01*
X16435095Y-14337667D01*
X16444619Y-14347190D01*
X16454143Y-14366238D01*
X16454143Y-14423381D01*
X16444619Y-14442428D01*
X16435095Y-14451952D01*
X16416048Y-14461476D01*
X16387476Y-14461476D01*
X16568428Y-14461476D02*
X16549381Y-14451952D01*
X16539857Y-14432905D01*
X16539857Y-14261476D01*
X16720809Y-14451952D02*
X16701762Y-14461476D01*
X16663667Y-14461476D01*
X16644619Y-14451952D01*
X16635095Y-14432905D01*
X16635095Y-14356714D01*
X16644619Y-14337667D01*
X16663667Y-14328143D01*
X16701762Y-14328143D01*
X16720809Y-14337667D01*
X16730333Y-14356714D01*
X16730333Y-14375762D01*
X16635095Y-14394809D01*
X16806524Y-14451952D02*
X16825571Y-14461476D01*
X16863667Y-14461476D01*
X16882714Y-14451952D01*
X16892238Y-14432905D01*
X16892238Y-14423381D01*
X16882714Y-14404333D01*
X16863667Y-14394809D01*
X16835095Y-14394809D01*
X16816048Y-14385286D01*
X16806524Y-14366238D01*
X16806524Y-14356714D01*
X16816048Y-14337667D01*
X16835095Y-14328143D01*
X16863667Y-14328143D01*
X16882714Y-14337667D01*
X16958905Y-14537667D02*
X16968429Y-14528143D01*
X16987476Y-14499571D01*
X16997000Y-14480524D01*
X17006524Y-14451952D01*
X17016048Y-14404333D01*
X17016048Y-14366238D01*
X17006524Y-14318619D01*
X16997000Y-14290048D01*
X16987476Y-14271000D01*
X16968429Y-14242428D01*
X16958905Y-14232905D01*
D14*
X12147000Y-14595000D02*
X12147000Y-14675000D01*
X12107000Y-14635000D02*
X12187000Y-14635000D01*
D11*
X12482714Y-14525476D02*
X12501762Y-14525476D01*
X12520809Y-14535000D01*
X12530333Y-14544524D01*
X12539857Y-14563571D01*
X12549381Y-14601667D01*
X12549381Y-14649286D01*
X12539857Y-14687381D01*
X12530333Y-14706428D01*
X12520809Y-14715952D01*
X12501762Y-14725476D01*
X12482714Y-14725476D01*
X12463667Y-14715952D01*
X12454143Y-14706428D01*
X12444619Y-14687381D01*
X12435095Y-14649286D01*
X12435095Y-14601667D01*
X12444619Y-14563571D01*
X12454143Y-14544524D01*
X12463667Y-14535000D01*
X12482714Y-14525476D01*
X12635095Y-14706428D02*
X12644619Y-14715952D01*
X12635095Y-14725476D01*
X12625571Y-14715952D01*
X12635095Y-14706428D01*
X12635095Y-14725476D01*
X12758905Y-14611190D02*
X12739857Y-14601667D01*
X12730333Y-14592143D01*
X12720809Y-14573095D01*
X12720809Y-14563571D01*
X12730333Y-14544524D01*
X12739857Y-14535000D01*
X12758905Y-14525476D01*
X12797000Y-14525476D01*
X12816048Y-14535000D01*
X12825571Y-14544524D01*
X12835095Y-14563571D01*
X12835095Y-14573095D01*
X12825571Y-14592143D01*
X12816048Y-14601667D01*
X12797000Y-14611190D01*
X12758905Y-14611190D01*
X12739857Y-14620714D01*
X12730333Y-14630238D01*
X12720809Y-14649286D01*
X12720809Y-14687381D01*
X12730333Y-14706428D01*
X12739857Y-14715952D01*
X12758905Y-14725476D01*
X12797000Y-14725476D01*
X12816048Y-14715952D01*
X12825571Y-14706428D01*
X12835095Y-14687381D01*
X12835095Y-14649286D01*
X12825571Y-14630238D01*
X12816048Y-14620714D01*
X12797000Y-14611190D01*
X12958905Y-14525476D02*
X12977952Y-14525476D01*
X12997000Y-14535000D01*
X13006524Y-14544524D01*
X13016048Y-14563571D01*
X13025571Y-14601667D01*
X13025571Y-14649286D01*
X13016048Y-14687381D01*
X13006524Y-14706428D01*
X12997000Y-14715952D01*
X12977952Y-14725476D01*
X12958905Y-14725476D01*
X12939857Y-14715952D01*
X12930333Y-14706428D01*
X12920809Y-14687381D01*
X12911286Y-14649286D01*
X12911286Y-14601667D01*
X12920809Y-14563571D01*
X12930333Y-14544524D01*
X12939857Y-14535000D01*
X12958905Y-14525476D01*
X13149381Y-14525476D02*
X13168428Y-14525476D01*
X13187476Y-14535000D01*
X13197000Y-14544524D01*
X13206524Y-14563571D01*
X13216048Y-14601667D01*
X13216048Y-14649286D01*
X13206524Y-14687381D01*
X13197000Y-14706428D01*
X13187476Y-14715952D01*
X13168428Y-14725476D01*
X13149381Y-14725476D01*
X13130333Y-14715952D01*
X13120809Y-14706428D01*
X13111286Y-14687381D01*
X13101762Y-14649286D01*
X13101762Y-14601667D01*
X13111286Y-14563571D01*
X13120809Y-14544524D01*
X13130333Y-14535000D01*
X13149381Y-14525476D01*
X13301762Y-14725476D02*
X13301762Y-14592143D01*
X13301762Y-14611190D02*
X13311286Y-14601667D01*
X13330333Y-14592143D01*
X13358905Y-14592143D01*
X13377952Y-14601667D01*
X13387476Y-14620714D01*
X13387476Y-14725476D01*
X13387476Y-14620714D02*
X13397000Y-14601667D01*
X13416048Y-14592143D01*
X13444619Y-14592143D01*
X13463667Y-14601667D01*
X13473190Y-14620714D01*
X13473190Y-14725476D01*
X13568428Y-14725476D02*
X13568428Y-14592143D01*
X13568428Y-14611190D02*
X13577952Y-14601667D01*
X13597000Y-14592143D01*
X13625571Y-14592143D01*
X13644619Y-14601667D01*
X13654143Y-14620714D01*
X13654143Y-14725476D01*
X13654143Y-14620714D02*
X13663667Y-14601667D01*
X13682714Y-14592143D01*
X13711286Y-14592143D01*
X13730333Y-14601667D01*
X13739857Y-14620714D01*
X13739857Y-14725476D01*
X14130333Y-14515952D02*
X13958905Y-14773095D01*
X14387476Y-14525476D02*
X14406524Y-14525476D01*
X14425571Y-14535000D01*
X14435095Y-14544524D01*
X14444619Y-14563571D01*
X14454143Y-14601667D01*
X14454143Y-14649286D01*
X14444619Y-14687381D01*
X14435095Y-14706428D01*
X14425571Y-14715952D01*
X14406524Y-14725476D01*
X14387476Y-14725476D01*
X14368428Y-14715952D01*
X14358905Y-14706428D01*
X14349381Y-14687381D01*
X14339857Y-14649286D01*
X14339857Y-14601667D01*
X14349381Y-14563571D01*
X14358905Y-14544524D01*
X14368428Y-14535000D01*
X14387476Y-14525476D01*
X14539857Y-14706428D02*
X14549381Y-14715952D01*
X14539857Y-14725476D01*
X14530333Y-14715952D01*
X14539857Y-14706428D01*
X14539857Y-14725476D01*
X14673190Y-14525476D02*
X14692238Y-14525476D01*
X14711286Y-14535000D01*
X14720809Y-14544524D01*
X14730333Y-14563571D01*
X14739857Y-14601667D01*
X14739857Y-14649286D01*
X14730333Y-14687381D01*
X14720809Y-14706428D01*
X14711286Y-14715952D01*
X14692238Y-14725476D01*
X14673190Y-14725476D01*
X14654143Y-14715952D01*
X14644619Y-14706428D01*
X14635095Y-14687381D01*
X14625571Y-14649286D01*
X14625571Y-14601667D01*
X14635095Y-14563571D01*
X14644619Y-14544524D01*
X14654143Y-14535000D01*
X14673190Y-14525476D01*
X14806524Y-14525476D02*
X14930333Y-14525476D01*
X14863667Y-14601667D01*
X14892238Y-14601667D01*
X14911286Y-14611190D01*
X14920809Y-14620714D01*
X14930333Y-14639762D01*
X14930333Y-14687381D01*
X14920809Y-14706428D01*
X14911286Y-14715952D01*
X14892238Y-14725476D01*
X14835095Y-14725476D01*
X14816048Y-14715952D01*
X14806524Y-14706428D01*
X15120809Y-14725476D02*
X15006524Y-14725476D01*
X15063667Y-14725476D02*
X15063667Y-14525476D01*
X15044619Y-14554048D01*
X15025571Y-14573095D01*
X15006524Y-14582619D01*
X15301762Y-14525476D02*
X15206524Y-14525476D01*
X15197000Y-14620714D01*
X15206524Y-14611190D01*
X15225571Y-14601667D01*
X15273190Y-14601667D01*
X15292238Y-14611190D01*
X15301762Y-14620714D01*
X15311286Y-14639762D01*
X15311286Y-14687381D01*
X15301762Y-14706428D01*
X15292238Y-14715952D01*
X15273190Y-14725476D01*
X15225571Y-14725476D01*
X15206524Y-14715952D01*
X15197000Y-14706428D01*
X15387476Y-14525476D02*
X15387476Y-14563571D01*
X15463667Y-14525476D02*
X15463667Y-14563571D01*
X15758905Y-14801667D02*
X15749381Y-14792143D01*
X15730333Y-14763571D01*
X15720809Y-14744524D01*
X15711286Y-14715952D01*
X15701762Y-14668333D01*
X15701762Y-14630238D01*
X15711286Y-14582619D01*
X15720809Y-14554048D01*
X15730333Y-14535000D01*
X15749381Y-14506428D01*
X15758905Y-14496905D01*
X15816048Y-14525476D02*
X15949381Y-14525476D01*
X15863667Y-14725476D01*
X16111286Y-14592143D02*
X16111286Y-14725476D01*
X16063667Y-14515952D02*
X16016048Y-14658809D01*
X16139857Y-14658809D01*
X16368428Y-14725476D02*
X16368428Y-14525476D01*
X16454143Y-14725476D02*
X16454143Y-14620714D01*
X16444619Y-14601667D01*
X16425571Y-14592143D01*
X16397000Y-14592143D01*
X16377952Y-14601667D01*
X16368428Y-14611190D01*
X16577952Y-14725476D02*
X16558905Y-14715952D01*
X16549381Y-14706428D01*
X16539857Y-14687381D01*
X16539857Y-14630238D01*
X16549381Y-14611190D01*
X16558905Y-14601667D01*
X16577952Y-14592143D01*
X16606524Y-14592143D01*
X16625571Y-14601667D01*
X16635095Y-14611190D01*
X16644619Y-14630238D01*
X16644619Y-14687381D01*
X16635095Y-14706428D01*
X16625571Y-14715952D01*
X16606524Y-14725476D01*
X16577952Y-14725476D01*
X16758905Y-14725476D02*
X16739857Y-14715952D01*
X16730333Y-14696905D01*
X16730333Y-14525476D01*
X16911286Y-14715952D02*
X16892238Y-14725476D01*
X16854143Y-14725476D01*
X16835095Y-14715952D01*
X16825571Y-14696905D01*
X16825571Y-14620714D01*
X16835095Y-14601667D01*
X16854143Y-14592143D01*
X16892238Y-14592143D01*
X16911286Y-14601667D01*
X16920810Y-14620714D01*
X16920810Y-14639762D01*
X16825571Y-14658809D01*
X16997000Y-14715952D02*
X17016048Y-14725476D01*
X17054143Y-14725476D01*
X17073190Y-14715952D01*
X17082714Y-14696905D01*
X17082714Y-14687381D01*
X17073190Y-14668333D01*
X17054143Y-14658809D01*
X17025571Y-14658809D01*
X17006524Y-14649286D01*
X16997000Y-14630238D01*
X16997000Y-14620714D01*
X17006524Y-14601667D01*
X17025571Y-14592143D01*
X17054143Y-14592143D01*
X17073190Y-14601667D01*
X17149381Y-14801667D02*
X17158905Y-14792143D01*
X17177952Y-14763571D01*
X17187476Y-14744524D01*
X17197000Y-14715952D01*
X17206524Y-14668333D01*
X17206524Y-14630238D01*
X17197000Y-14582619D01*
X17187476Y-14554048D01*
X17177952Y-14535000D01*
X17158905Y-14506428D01*
X17149381Y-14496905D01*
D15*
X12172356Y-14934356D02*
X12172356Y-14863644D01*
X12101644Y-14863644D01*
X12101644Y-14934356D01*
X12172356Y-14934356D01*
D11*
X12549381Y-14989476D02*
X12435095Y-14989476D01*
X12492238Y-14989476D02*
X12492238Y-14789476D01*
X12473190Y-14818048D01*
X12454143Y-14837095D01*
X12435095Y-14846619D01*
X12635095Y-14970428D02*
X12644619Y-14979952D01*
X12635095Y-14989476D01*
X12625571Y-14979952D01*
X12635095Y-14970428D01*
X12635095Y-14989476D01*
X12768428Y-14789476D02*
X12787476Y-14789476D01*
X12806524Y-14799000D01*
X12816048Y-14808524D01*
X12825571Y-14827571D01*
X12835095Y-14865667D01*
X12835095Y-14913286D01*
X12825571Y-14951381D01*
X12816048Y-14970428D01*
X12806524Y-14979952D01*
X12787476Y-14989476D01*
X12768428Y-14989476D01*
X12749381Y-14979952D01*
X12739857Y-14970428D01*
X12730333Y-14951381D01*
X12720809Y-14913286D01*
X12720809Y-14865667D01*
X12730333Y-14827571D01*
X12739857Y-14808524D01*
X12749381Y-14799000D01*
X12768428Y-14789476D01*
X12958905Y-14789476D02*
X12977952Y-14789476D01*
X12997000Y-14799000D01*
X13006524Y-14808524D01*
X13016048Y-14827571D01*
X13025571Y-14865667D01*
X13025571Y-14913286D01*
X13016048Y-14951381D01*
X13006524Y-14970428D01*
X12997000Y-14979952D01*
X12977952Y-14989476D01*
X12958905Y-14989476D01*
X12939857Y-14979952D01*
X12930333Y-14970428D01*
X12920809Y-14951381D01*
X12911286Y-14913286D01*
X12911286Y-14865667D01*
X12920809Y-14827571D01*
X12930333Y-14808524D01*
X12939857Y-14799000D01*
X12958905Y-14789476D01*
X13149381Y-14789476D02*
X13168428Y-14789476D01*
X13187476Y-14799000D01*
X13197000Y-14808524D01*
X13206524Y-14827571D01*
X13216048Y-14865667D01*
X13216048Y-14913286D01*
X13206524Y-14951381D01*
X13197000Y-14970428D01*
X13187476Y-14979952D01*
X13168428Y-14989476D01*
X13149381Y-14989476D01*
X13130333Y-14979952D01*
X13120809Y-14970428D01*
X13111286Y-14951381D01*
X13101762Y-14913286D01*
X13101762Y-14865667D01*
X13111286Y-14827571D01*
X13120809Y-14808524D01*
X13130333Y-14799000D01*
X13149381Y-14789476D01*
X13301762Y-14989476D02*
X13301762Y-14856143D01*
X13301762Y-14875190D02*
X13311286Y-14865667D01*
X13330333Y-14856143D01*
X13358905Y-14856143D01*
X13377952Y-14865667D01*
X13387476Y-14884714D01*
X13387476Y-14989476D01*
X13387476Y-14884714D02*
X13397000Y-14865667D01*
X13416048Y-14856143D01*
X13444619Y-14856143D01*
X13463667Y-14865667D01*
X13473190Y-14884714D01*
X13473190Y-14989476D01*
X13568428Y-14989476D02*
X13568428Y-14856143D01*
X13568428Y-14875190D02*
X13577952Y-14865667D01*
X13597000Y-14856143D01*
X13625571Y-14856143D01*
X13644619Y-14865667D01*
X13654143Y-14884714D01*
X13654143Y-14989476D01*
X13654143Y-14884714D02*
X13663667Y-14865667D01*
X13682714Y-14856143D01*
X13711286Y-14856143D01*
X13730333Y-14865667D01*
X13739857Y-14884714D01*
X13739857Y-14989476D01*
X14130333Y-14779952D02*
X13958905Y-15037095D01*
X14387476Y-14789476D02*
X14406524Y-14789476D01*
X14425571Y-14799000D01*
X14435095Y-14808524D01*
X14444619Y-14827571D01*
X14454143Y-14865667D01*
X14454143Y-14913286D01*
X14444619Y-14951381D01*
X14435095Y-14970428D01*
X14425571Y-14979952D01*
X14406524Y-14989476D01*
X14387476Y-14989476D01*
X14368428Y-14979952D01*
X14358905Y-14970428D01*
X14349381Y-14951381D01*
X14339857Y-14913286D01*
X14339857Y-14865667D01*
X14349381Y-14827571D01*
X14358905Y-14808524D01*
X14368428Y-14799000D01*
X14387476Y-14789476D01*
X14539857Y-14970428D02*
X14549381Y-14979952D01*
X14539857Y-14989476D01*
X14530333Y-14979952D01*
X14539857Y-14970428D01*
X14539857Y-14989476D01*
X14673190Y-14789476D02*
X14692238Y-14789476D01*
X14711286Y-14799000D01*
X14720809Y-14808524D01*
X14730333Y-14827571D01*
X14739857Y-14865667D01*
X14739857Y-14913286D01*
X14730333Y-14951381D01*
X14720809Y-14970428D01*
X14711286Y-14979952D01*
X14692238Y-14989476D01*
X14673190Y-14989476D01*
X14654143Y-14979952D01*
X14644619Y-14970428D01*
X14635095Y-14951381D01*
X14625571Y-14913286D01*
X14625571Y-14865667D01*
X14635095Y-14827571D01*
X14644619Y-14808524D01*
X14654143Y-14799000D01*
X14673190Y-14789476D01*
X14806524Y-14789476D02*
X14930333Y-14789476D01*
X14863667Y-14865667D01*
X14892238Y-14865667D01*
X14911286Y-14875190D01*
X14920809Y-14884714D01*
X14930333Y-14903762D01*
X14930333Y-14951381D01*
X14920809Y-14970428D01*
X14911286Y-14979952D01*
X14892238Y-14989476D01*
X14835095Y-14989476D01*
X14816048Y-14979952D01*
X14806524Y-14970428D01*
X15025571Y-14989476D02*
X15063667Y-14989476D01*
X15082714Y-14979952D01*
X15092238Y-14970428D01*
X15111286Y-14941857D01*
X15120809Y-14903762D01*
X15120809Y-14827571D01*
X15111286Y-14808524D01*
X15101762Y-14799000D01*
X15082714Y-14789476D01*
X15044619Y-14789476D01*
X15025571Y-14799000D01*
X15016048Y-14808524D01*
X15006524Y-14827571D01*
X15006524Y-14875190D01*
X15016048Y-14894238D01*
X15025571Y-14903762D01*
X15044619Y-14913286D01*
X15082714Y-14913286D01*
X15101762Y-14903762D01*
X15111286Y-14894238D01*
X15120809Y-14875190D01*
X15292238Y-14856143D02*
X15292238Y-14989476D01*
X15244619Y-14779952D02*
X15197000Y-14922809D01*
X15320809Y-14922809D01*
X15387476Y-14789476D02*
X15387476Y-14827571D01*
X15463667Y-14789476D02*
X15463667Y-14827571D01*
X15758905Y-15065667D02*
X15749381Y-15056143D01*
X15730333Y-15027571D01*
X15720809Y-15008524D01*
X15711286Y-14979952D01*
X15701762Y-14932333D01*
X15701762Y-14894238D01*
X15711286Y-14846619D01*
X15720809Y-14818048D01*
X15730333Y-14799000D01*
X15749381Y-14770428D01*
X15758905Y-14760905D01*
X15816048Y-14789476D02*
X15939857Y-14789476D01*
X15873190Y-14865667D01*
X15901762Y-14865667D01*
X15920809Y-14875190D01*
X15930333Y-14884714D01*
X15939857Y-14903762D01*
X15939857Y-14951381D01*
X15930333Y-14970428D01*
X15920809Y-14979952D01*
X15901762Y-14989476D01*
X15844619Y-14989476D01*
X15825571Y-14979952D01*
X15816048Y-14970428D01*
X16111286Y-14856143D02*
X16111286Y-14989476D01*
X16063667Y-14779952D02*
X16016048Y-14922809D01*
X16139857Y-14922809D01*
X16368428Y-14989476D02*
X16368428Y-14789476D01*
X16454143Y-14989476D02*
X16454143Y-14884714D01*
X16444619Y-14865667D01*
X16425571Y-14856143D01*
X16397000Y-14856143D01*
X16377952Y-14865667D01*
X16368428Y-14875190D01*
X16577952Y-14989476D02*
X16558905Y-14979952D01*
X16549381Y-14970428D01*
X16539857Y-14951381D01*
X16539857Y-14894238D01*
X16549381Y-14875190D01*
X16558905Y-14865667D01*
X16577952Y-14856143D01*
X16606524Y-14856143D01*
X16625571Y-14865667D01*
X16635095Y-14875190D01*
X16644619Y-14894238D01*
X16644619Y-14951381D01*
X16635095Y-14970428D01*
X16625571Y-14979952D01*
X16606524Y-14989476D01*
X16577952Y-14989476D01*
X16758905Y-14989476D02*
X16739857Y-14979952D01*
X16730333Y-14960905D01*
X16730333Y-14789476D01*
X16911286Y-14979952D02*
X16892238Y-14989476D01*
X16854143Y-14989476D01*
X16835095Y-14979952D01*
X16825571Y-14960905D01*
X16825571Y-14884714D01*
X16835095Y-14865667D01*
X16854143Y-14856143D01*
X16892238Y-14856143D01*
X16911286Y-14865667D01*
X16920810Y-14884714D01*
X16920810Y-14903762D01*
X16825571Y-14922809D01*
X16997000Y-14979952D02*
X17016048Y-14989476D01*
X17054143Y-14989476D01*
X17073190Y-14979952D01*
X17082714Y-14960905D01*
X17082714Y-14951381D01*
X17073190Y-14932333D01*
X17054143Y-14922809D01*
X17025571Y-14922809D01*
X17006524Y-14913286D01*
X16997000Y-14894238D01*
X16997000Y-14884714D01*
X17006524Y-14865667D01*
X17025571Y-14856143D01*
X17054143Y-14856143D01*
X17073190Y-14865667D01*
X17149381Y-15065667D02*
X17158905Y-15056143D01*
X17177952Y-15027571D01*
X17187476Y-15008524D01*
X17197000Y-14979952D01*
X17206524Y-14932333D01*
X17206524Y-14894238D01*
X17197000Y-14846619D01*
X17187476Y-14818048D01*
X17177952Y-14799000D01*
X17158905Y-14770428D01*
X17149381Y-14760905D01*
D16*
X12132000Y-15218000D02*
X12187000Y-15163000D01*
X12132000Y-15108000D01*
X12077000Y-15163000D01*
X12132000Y-15218000D01*
D11*
X12549381Y-15253476D02*
X12435095Y-15253476D01*
X12492238Y-15253476D02*
X12492238Y-15053476D01*
X12473190Y-15082048D01*
X12454143Y-15101095D01*
X12435095Y-15110619D01*
X12635095Y-15234428D02*
X12644619Y-15243952D01*
X12635095Y-15253476D01*
X12625571Y-15243952D01*
X12635095Y-15234428D01*
X12635095Y-15253476D01*
X12835095Y-15253476D02*
X12720809Y-15253476D01*
X12777952Y-15253476D02*
X12777952Y-15053476D01*
X12758905Y-15082048D01*
X12739857Y-15101095D01*
X12720809Y-15110619D01*
X12958905Y-15053476D02*
X12977952Y-15053476D01*
X12997000Y-15063000D01*
X13006524Y-15072524D01*
X13016048Y-15091571D01*
X13025571Y-15129667D01*
X13025571Y-15177286D01*
X13016048Y-15215381D01*
X13006524Y-15234428D01*
X12997000Y-15243952D01*
X12977952Y-15253476D01*
X12958905Y-15253476D01*
X12939857Y-15243952D01*
X12930333Y-15234428D01*
X12920809Y-15215381D01*
X12911286Y-15177286D01*
X12911286Y-15129667D01*
X12920809Y-15091571D01*
X12930333Y-15072524D01*
X12939857Y-15063000D01*
X12958905Y-15053476D01*
X13149381Y-15053476D02*
X13168428Y-15053476D01*
X13187476Y-15063000D01*
X13197000Y-15072524D01*
X13206524Y-15091571D01*
X13216048Y-15129667D01*
X13216048Y-15177286D01*
X13206524Y-15215381D01*
X13197000Y-15234428D01*
X13187476Y-15243952D01*
X13168428Y-15253476D01*
X13149381Y-15253476D01*
X13130333Y-15243952D01*
X13120809Y-15234428D01*
X13111286Y-15215381D01*
X13101762Y-15177286D01*
X13101762Y-15129667D01*
X13111286Y-15091571D01*
X13120809Y-15072524D01*
X13130333Y-15063000D01*
X13149381Y-15053476D01*
X13301762Y-15253476D02*
X13301762Y-15120143D01*
X13301762Y-15139190D02*
X13311286Y-15129667D01*
X13330333Y-15120143D01*
X13358905Y-15120143D01*
X13377952Y-15129667D01*
X13387476Y-15148714D01*
X13387476Y-15253476D01*
X13387476Y-15148714D02*
X13397000Y-15129667D01*
X13416048Y-15120143D01*
X13444619Y-15120143D01*
X13463667Y-15129667D01*
X13473190Y-15148714D01*
X13473190Y-15253476D01*
X13568428Y-15253476D02*
X13568428Y-15120143D01*
X13568428Y-15139190D02*
X13577952Y-15129667D01*
X13597000Y-15120143D01*
X13625571Y-15120143D01*
X13644619Y-15129667D01*
X13654143Y-15148714D01*
X13654143Y-15253476D01*
X13654143Y-15148714D02*
X13663667Y-15129667D01*
X13682714Y-15120143D01*
X13711286Y-15120143D01*
X13730333Y-15129667D01*
X13739857Y-15148714D01*
X13739857Y-15253476D01*
X14130333Y-15043952D02*
X13958905Y-15301095D01*
X14387476Y-15053476D02*
X14406524Y-15053476D01*
X14425571Y-15063000D01*
X14435095Y-15072524D01*
X14444619Y-15091571D01*
X14454143Y-15129667D01*
X14454143Y-15177286D01*
X14444619Y-15215381D01*
X14435095Y-15234428D01*
X14425571Y-15243952D01*
X14406524Y-15253476D01*
X14387476Y-15253476D01*
X14368428Y-15243952D01*
X14358905Y-15234428D01*
X14349381Y-15215381D01*
X14339857Y-15177286D01*
X14339857Y-15129667D01*
X14349381Y-15091571D01*
X14358905Y-15072524D01*
X14368428Y-15063000D01*
X14387476Y-15053476D01*
X14539857Y-15234428D02*
X14549381Y-15243952D01*
X14539857Y-15253476D01*
X14530333Y-15243952D01*
X14539857Y-15234428D01*
X14539857Y-15253476D01*
X14673190Y-15053476D02*
X14692238Y-15053476D01*
X14711286Y-15063000D01*
X14720809Y-15072524D01*
X14730333Y-15091571D01*
X14739857Y-15129667D01*
X14739857Y-15177286D01*
X14730333Y-15215381D01*
X14720809Y-15234428D01*
X14711286Y-15243952D01*
X14692238Y-15253476D01*
X14673190Y-15253476D01*
X14654143Y-15243952D01*
X14644619Y-15234428D01*
X14635095Y-15215381D01*
X14625571Y-15177286D01*
X14625571Y-15129667D01*
X14635095Y-15091571D01*
X14644619Y-15072524D01*
X14654143Y-15063000D01*
X14673190Y-15053476D01*
X14911286Y-15120143D02*
X14911286Y-15253476D01*
X14863667Y-15043952D02*
X14816048Y-15186809D01*
X14939857Y-15186809D01*
X14997000Y-15053476D02*
X15120809Y-15053476D01*
X15054143Y-15129667D01*
X15082714Y-15129667D01*
X15101762Y-15139190D01*
X15111286Y-15148714D01*
X15120809Y-15167762D01*
X15120809Y-15215381D01*
X15111286Y-15234428D01*
X15101762Y-15243952D01*
X15082714Y-15253476D01*
X15025571Y-15253476D01*
X15006524Y-15243952D01*
X14997000Y-15234428D01*
X15187476Y-15053476D02*
X15311286Y-15053476D01*
X15244619Y-15129667D01*
X15273190Y-15129667D01*
X15292238Y-15139190D01*
X15301762Y-15148714D01*
X15311286Y-15167762D01*
X15311286Y-15215381D01*
X15301762Y-15234428D01*
X15292238Y-15243952D01*
X15273190Y-15253476D01*
X15216048Y-15253476D01*
X15197000Y-15243952D01*
X15187476Y-15234428D01*
X15387476Y-15053476D02*
X15387476Y-15091571D01*
X15463667Y-15053476D02*
X15463667Y-15091571D01*
X15758905Y-15329667D02*
X15749381Y-15320143D01*
X15730333Y-15291571D01*
X15720809Y-15272524D01*
X15711286Y-15243952D01*
X15701762Y-15196333D01*
X15701762Y-15158238D01*
X15711286Y-15110619D01*
X15720809Y-15082048D01*
X15730333Y-15063000D01*
X15749381Y-15034428D01*
X15758905Y-15024905D01*
X15939857Y-15253476D02*
X15825571Y-15253476D01*
X15882714Y-15253476D02*
X15882714Y-15053476D01*
X15863667Y-15082048D01*
X15844619Y-15101095D01*
X15825571Y-15110619D01*
X16130333Y-15253476D02*
X16016048Y-15253476D01*
X16073190Y-15253476D02*
X16073190Y-15053476D01*
X16054143Y-15082048D01*
X16035095Y-15101095D01*
X16016048Y-15110619D01*
X16368428Y-15253476D02*
X16368428Y-15053476D01*
X16454143Y-15253476D02*
X16454143Y-15148714D01*
X16444619Y-15129667D01*
X16425571Y-15120143D01*
X16397000Y-15120143D01*
X16377952Y-15129667D01*
X16368428Y-15139190D01*
X16577952Y-15253476D02*
X16558905Y-15243952D01*
X16549381Y-15234428D01*
X16539857Y-15215381D01*
X16539857Y-15158238D01*
X16549381Y-15139190D01*
X16558905Y-15129667D01*
X16577952Y-15120143D01*
X16606524Y-15120143D01*
X16625571Y-15129667D01*
X16635095Y-15139190D01*
X16644619Y-15158238D01*
X16644619Y-15215381D01*
X16635095Y-15234428D01*
X16625571Y-15243952D01*
X16606524Y-15253476D01*
X16577952Y-15253476D01*
X16758905Y-15253476D02*
X16739857Y-15243952D01*
X16730333Y-15224905D01*
X16730333Y-15053476D01*
X16911286Y-15243952D02*
X16892238Y-15253476D01*
X16854143Y-15253476D01*
X16835095Y-15243952D01*
X16825571Y-15224905D01*
X16825571Y-15148714D01*
X16835095Y-15129667D01*
X16854143Y-15120143D01*
X16892238Y-15120143D01*
X16911286Y-15129667D01*
X16920810Y-15148714D01*
X16920810Y-15167762D01*
X16825571Y-15186809D01*
X16997000Y-15243952D02*
X17016048Y-15253476D01*
X17054143Y-15253476D01*
X17073190Y-15243952D01*
X17082714Y-15224905D01*
X17082714Y-15215381D01*
X17073190Y-15196333D01*
X17054143Y-15186809D01*
X17025571Y-15186809D01*
X17006524Y-15177286D01*
X16997000Y-15158238D01*
X16997000Y-15148714D01*
X17006524Y-15129667D01*
X17025571Y-15120143D01*
X17054143Y-15120143D01*
X17073190Y-15129667D01*
X17149381Y-15329667D02*
X17158905Y-15320143D01*
X17177952Y-15291571D01*
X17187476Y-15272524D01*
X17197000Y-15243952D01*
X17206524Y-15196333D01*
X17206524Y-15158238D01*
X17197000Y-15110619D01*
X17187476Y-15082048D01*
X17177952Y-15063000D01*
X17158905Y-15034428D01*
X17149381Y-15024905D01*
D17*
X12057000Y-15362000D02*
X12187000Y-15492000D01*
X12187000Y-15362000D02*
X12057000Y-15492000D01*
X12187000Y-15427000D02*
G75*
G03*
X12187000Y-15427000I-65000J0D01*
G01*
D11*
X12549381Y-15517476D02*
X12435095Y-15517476D01*
X12492238Y-15517476D02*
X12492238Y-15317476D01*
X12473190Y-15346048D01*
X12454143Y-15365095D01*
X12435095Y-15374619D01*
X12635095Y-15498428D02*
X12644619Y-15507952D01*
X12635095Y-15517476D01*
X12625571Y-15507952D01*
X12635095Y-15498428D01*
X12635095Y-15517476D01*
X12711286Y-15317476D02*
X12835095Y-15317476D01*
X12768428Y-15393667D01*
X12797000Y-15393667D01*
X12816048Y-15403190D01*
X12825571Y-15412714D01*
X12835095Y-15431762D01*
X12835095Y-15479381D01*
X12825571Y-15498428D01*
X12816048Y-15507952D01*
X12797000Y-15517476D01*
X12739857Y-15517476D01*
X12720809Y-15507952D01*
X12711286Y-15498428D01*
X12958905Y-15317476D02*
X12977952Y-15317476D01*
X12997000Y-15327000D01*
X13006524Y-15336524D01*
X13016048Y-15355571D01*
X13025571Y-15393667D01*
X13025571Y-15441286D01*
X13016048Y-15479381D01*
X13006524Y-15498428D01*
X12997000Y-15507952D01*
X12977952Y-15517476D01*
X12958905Y-15517476D01*
X12939857Y-15507952D01*
X12930333Y-15498428D01*
X12920809Y-15479381D01*
X12911286Y-15441286D01*
X12911286Y-15393667D01*
X12920809Y-15355571D01*
X12930333Y-15336524D01*
X12939857Y-15327000D01*
X12958905Y-15317476D01*
X13149381Y-15317476D02*
X13168428Y-15317476D01*
X13187476Y-15327000D01*
X13197000Y-15336524D01*
X13206524Y-15355571D01*
X13216048Y-15393667D01*
X13216048Y-15441286D01*
X13206524Y-15479381D01*
X13197000Y-15498428D01*
X13187476Y-15507952D01*
X13168428Y-15517476D01*
X13149381Y-15517476D01*
X13130333Y-15507952D01*
X13120809Y-15498428D01*
X13111286Y-15479381D01*
X13101762Y-15441286D01*
X13101762Y-15393667D01*
X13111286Y-15355571D01*
X13120809Y-15336524D01*
X13130333Y-15327000D01*
X13149381Y-15317476D01*
X13301762Y-15517476D02*
X13301762Y-15384143D01*
X13301762Y-15403190D02*
X13311286Y-15393667D01*
X13330333Y-15384143D01*
X13358905Y-15384143D01*
X13377952Y-15393667D01*
X13387476Y-15412714D01*
X13387476Y-15517476D01*
X13387476Y-15412714D02*
X13397000Y-15393667D01*
X13416048Y-15384143D01*
X13444619Y-15384143D01*
X13463667Y-15393667D01*
X13473190Y-15412714D01*
X13473190Y-15517476D01*
X13568428Y-15517476D02*
X13568428Y-15384143D01*
X13568428Y-15403190D02*
X13577952Y-15393667D01*
X13597000Y-15384143D01*
X13625571Y-15384143D01*
X13644619Y-15393667D01*
X13654143Y-15412714D01*
X13654143Y-15517476D01*
X13654143Y-15412714D02*
X13663667Y-15393667D01*
X13682714Y-15384143D01*
X13711286Y-15384143D01*
X13730333Y-15393667D01*
X13739857Y-15412714D01*
X13739857Y-15517476D01*
X14130333Y-15307952D02*
X13958905Y-15565095D01*
X14387476Y-15317476D02*
X14406524Y-15317476D01*
X14425571Y-15327000D01*
X14435095Y-15336524D01*
X14444619Y-15355571D01*
X14454143Y-15393667D01*
X14454143Y-15441286D01*
X14444619Y-15479381D01*
X14435095Y-15498428D01*
X14425571Y-15507952D01*
X14406524Y-15517476D01*
X14387476Y-15517476D01*
X14368428Y-15507952D01*
X14358905Y-15498428D01*
X14349381Y-15479381D01*
X14339857Y-15441286D01*
X14339857Y-15393667D01*
X14349381Y-15355571D01*
X14358905Y-15336524D01*
X14368428Y-15327000D01*
X14387476Y-15317476D01*
X14539857Y-15498428D02*
X14549381Y-15507952D01*
X14539857Y-15517476D01*
X14530333Y-15507952D01*
X14539857Y-15498428D01*
X14539857Y-15517476D01*
X14673190Y-15317476D02*
X14692238Y-15317476D01*
X14711286Y-15327000D01*
X14720809Y-15336524D01*
X14730333Y-15355571D01*
X14739857Y-15393667D01*
X14739857Y-15441286D01*
X14730333Y-15479381D01*
X14720809Y-15498428D01*
X14711286Y-15507952D01*
X14692238Y-15517476D01*
X14673190Y-15517476D01*
X14654143Y-15507952D01*
X14644619Y-15498428D01*
X14635095Y-15479381D01*
X14625571Y-15441286D01*
X14625571Y-15393667D01*
X14635095Y-15355571D01*
X14644619Y-15336524D01*
X14654143Y-15327000D01*
X14673190Y-15317476D01*
X14920809Y-15317476D02*
X14825571Y-15317476D01*
X14816048Y-15412714D01*
X14825571Y-15403190D01*
X14844619Y-15393667D01*
X14892238Y-15393667D01*
X14911286Y-15403190D01*
X14920809Y-15412714D01*
X14930333Y-15431762D01*
X14930333Y-15479381D01*
X14920809Y-15498428D01*
X14911286Y-15507952D01*
X14892238Y-15517476D01*
X14844619Y-15517476D01*
X14825571Y-15507952D01*
X14816048Y-15498428D01*
X15120809Y-15517476D02*
X15006524Y-15517476D01*
X15063667Y-15517476D02*
X15063667Y-15317476D01*
X15044619Y-15346048D01*
X15025571Y-15365095D01*
X15006524Y-15374619D01*
X15197000Y-15336524D02*
X15206524Y-15327000D01*
X15225571Y-15317476D01*
X15273190Y-15317476D01*
X15292238Y-15327000D01*
X15301762Y-15336524D01*
X15311286Y-15355571D01*
X15311286Y-15374619D01*
X15301762Y-15403190D01*
X15187476Y-15517476D01*
X15311286Y-15517476D01*
X15387476Y-15317476D02*
X15387476Y-15355571D01*
X15463667Y-15317476D02*
X15463667Y-15355571D01*
X15758905Y-15593667D02*
X15749381Y-15584143D01*
X15730333Y-15555571D01*
X15720809Y-15536524D01*
X15711286Y-15507952D01*
X15701762Y-15460333D01*
X15701762Y-15422238D01*
X15711286Y-15374619D01*
X15720809Y-15346048D01*
X15730333Y-15327000D01*
X15749381Y-15298428D01*
X15758905Y-15288905D01*
X15825571Y-15336524D02*
X15835095Y-15327000D01*
X15854143Y-15317476D01*
X15901762Y-15317476D01*
X15920809Y-15327000D01*
X15930333Y-15336524D01*
X15939857Y-15355571D01*
X15939857Y-15374619D01*
X15930333Y-15403190D01*
X15816048Y-15517476D01*
X15939857Y-15517476D01*
X16016048Y-15336524D02*
X16025571Y-15327000D01*
X16044619Y-15317476D01*
X16092238Y-15317476D01*
X16111286Y-15327000D01*
X16120809Y-15336524D01*
X16130333Y-15355571D01*
X16130333Y-15374619D01*
X16120809Y-15403190D01*
X16006524Y-15517476D01*
X16130333Y-15517476D01*
X16368428Y-15517476D02*
X16368428Y-15317476D01*
X16454143Y-15517476D02*
X16454143Y-15412714D01*
X16444619Y-15393667D01*
X16425571Y-15384143D01*
X16397000Y-15384143D01*
X16377952Y-15393667D01*
X16368428Y-15403190D01*
X16577952Y-15517476D02*
X16558905Y-15507952D01*
X16549381Y-15498428D01*
X16539857Y-15479381D01*
X16539857Y-15422238D01*
X16549381Y-15403190D01*
X16558905Y-15393667D01*
X16577952Y-15384143D01*
X16606524Y-15384143D01*
X16625571Y-15393667D01*
X16635095Y-15403190D01*
X16644619Y-15422238D01*
X16644619Y-15479381D01*
X16635095Y-15498428D01*
X16625571Y-15507952D01*
X16606524Y-15517476D01*
X16577952Y-15517476D01*
X16758905Y-15517476D02*
X16739857Y-15507952D01*
X16730333Y-15488905D01*
X16730333Y-15317476D01*
X16911286Y-15507952D02*
X16892238Y-15517476D01*
X16854143Y-15517476D01*
X16835095Y-15507952D01*
X16825571Y-15488905D01*
X16825571Y-15412714D01*
X16835095Y-15393667D01*
X16854143Y-15384143D01*
X16892238Y-15384143D01*
X16911286Y-15393667D01*
X16920810Y-15412714D01*
X16920810Y-15431762D01*
X16825571Y-15450809D01*
X16997000Y-15507952D02*
X17016048Y-15517476D01*
X17054143Y-15517476D01*
X17073190Y-15507952D01*
X17082714Y-15488905D01*
X17082714Y-15479381D01*
X17073190Y-15460333D01*
X17054143Y-15450809D01*
X17025571Y-15450809D01*
X17006524Y-15441286D01*
X16997000Y-15422238D01*
X16997000Y-15412714D01*
X17006524Y-15393667D01*
X17025571Y-15384143D01*
X17054143Y-15384143D01*
X17073190Y-15393667D01*
X17149381Y-15593667D02*
X17158905Y-15584143D01*
X17177952Y-15555571D01*
X17187476Y-15536524D01*
X17197000Y-15507952D01*
X17206524Y-15460333D01*
X17206524Y-15422238D01*
X17197000Y-15374619D01*
X17187476Y-15346048D01*
X17177952Y-15327000D01*
X17158905Y-15298428D01*
X17149381Y-15288905D01*
X11987000Y-15591000D02*
X12187000Y-15791000D01*
X12187000Y-15591000D02*
X11987000Y-15791000D01*
X12087000Y-15591000D02*
X12087000Y-15791000D01*
X11987000Y-15691000D02*
X12187000Y-15691000D01*
X12425571Y-15581476D02*
X12549381Y-15581476D01*
X12482714Y-15657667D01*
X12511286Y-15657667D01*
X12530333Y-15667190D01*
X12539857Y-15676714D01*
X12549381Y-15695762D01*
X12549381Y-15743381D01*
X12539857Y-15762428D01*
X12530333Y-15771952D01*
X12511286Y-15781476D01*
X12454143Y-15781476D01*
X12435095Y-15771952D01*
X12425571Y-15762428D01*
X12635095Y-15762428D02*
X12644619Y-15771952D01*
X12635095Y-15781476D01*
X12625571Y-15771952D01*
X12635095Y-15762428D01*
X12635095Y-15781476D01*
X12720809Y-15600524D02*
X12730333Y-15591000D01*
X12749381Y-15581476D01*
X12797000Y-15581476D01*
X12816048Y-15591000D01*
X12825571Y-15600524D01*
X12835095Y-15619571D01*
X12835095Y-15638619D01*
X12825571Y-15667190D01*
X12711286Y-15781476D01*
X12835095Y-15781476D01*
X12958905Y-15581476D02*
X12977952Y-15581476D01*
X12997000Y-15591000D01*
X13006524Y-15600524D01*
X13016048Y-15619571D01*
X13025571Y-15657667D01*
X13025571Y-15705286D01*
X13016048Y-15743381D01*
X13006524Y-15762428D01*
X12997000Y-15771952D01*
X12977952Y-15781476D01*
X12958905Y-15781476D01*
X12939857Y-15771952D01*
X12930333Y-15762428D01*
X12920809Y-15743381D01*
X12911286Y-15705286D01*
X12911286Y-15657667D01*
X12920809Y-15619571D01*
X12930333Y-15600524D01*
X12939857Y-15591000D01*
X12958905Y-15581476D01*
X13149381Y-15581476D02*
X13168428Y-15581476D01*
X13187476Y-15591000D01*
X13197000Y-15600524D01*
X13206524Y-15619571D01*
X13216048Y-15657667D01*
X13216048Y-15705286D01*
X13206524Y-15743381D01*
X13197000Y-15762428D01*
X13187476Y-15771952D01*
X13168428Y-15781476D01*
X13149381Y-15781476D01*
X13130333Y-15771952D01*
X13120809Y-15762428D01*
X13111286Y-15743381D01*
X13101762Y-15705286D01*
X13101762Y-15657667D01*
X13111286Y-15619571D01*
X13120809Y-15600524D01*
X13130333Y-15591000D01*
X13149381Y-15581476D01*
X13301762Y-15781476D02*
X13301762Y-15648143D01*
X13301762Y-15667190D02*
X13311286Y-15657667D01*
X13330333Y-15648143D01*
X13358905Y-15648143D01*
X13377952Y-15657667D01*
X13387476Y-15676714D01*
X13387476Y-15781476D01*
X13387476Y-15676714D02*
X13397000Y-15657667D01*
X13416048Y-15648143D01*
X13444619Y-15648143D01*
X13463667Y-15657667D01*
X13473190Y-15676714D01*
X13473190Y-15781476D01*
X13568428Y-15781476D02*
X13568428Y-15648143D01*
X13568428Y-15667190D02*
X13577952Y-15657667D01*
X13597000Y-15648143D01*
X13625571Y-15648143D01*
X13644619Y-15657667D01*
X13654143Y-15676714D01*
X13654143Y-15781476D01*
X13654143Y-15676714D02*
X13663667Y-15657667D01*
X13682714Y-15648143D01*
X13711286Y-15648143D01*
X13730333Y-15657667D01*
X13739857Y-15676714D01*
X13739857Y-15781476D01*
X14130333Y-15571952D02*
X13958905Y-15829095D01*
X14387476Y-15581476D02*
X14406524Y-15581476D01*
X14425571Y-15591000D01*
X14435095Y-15600524D01*
X14444619Y-15619571D01*
X14454143Y-15657667D01*
X14454143Y-15705286D01*
X14444619Y-15743381D01*
X14435095Y-15762428D01*
X14425571Y-15771952D01*
X14406524Y-15781476D01*
X14387476Y-15781476D01*
X14368428Y-15771952D01*
X14358905Y-15762428D01*
X14349381Y-15743381D01*
X14339857Y-15705286D01*
X14339857Y-15657667D01*
X14349381Y-15619571D01*
X14358905Y-15600524D01*
X14368428Y-15591000D01*
X14387476Y-15581476D01*
X14539857Y-15762428D02*
X14549381Y-15771952D01*
X14539857Y-15781476D01*
X14530333Y-15771952D01*
X14539857Y-15762428D01*
X14539857Y-15781476D01*
X14739857Y-15781476D02*
X14625571Y-15781476D01*
X14682714Y-15781476D02*
X14682714Y-15581476D01*
X14663667Y-15610048D01*
X14644619Y-15629095D01*
X14625571Y-15638619D01*
X14816048Y-15600524D02*
X14825571Y-15591000D01*
X14844619Y-15581476D01*
X14892238Y-15581476D01*
X14911286Y-15591000D01*
X14920809Y-15600524D01*
X14930333Y-15619571D01*
X14930333Y-15638619D01*
X14920809Y-15667190D01*
X14806524Y-15781476D01*
X14930333Y-15781476D01*
X15101762Y-15581476D02*
X15063667Y-15581476D01*
X15044619Y-15591000D01*
X15035095Y-15600524D01*
X15016048Y-15629095D01*
X15006524Y-15667190D01*
X15006524Y-15743381D01*
X15016048Y-15762428D01*
X15025571Y-15771952D01*
X15044619Y-15781476D01*
X15082714Y-15781476D01*
X15101762Y-15771952D01*
X15111286Y-15762428D01*
X15120809Y-15743381D01*
X15120809Y-15695762D01*
X15111286Y-15676714D01*
X15101762Y-15667190D01*
X15082714Y-15657667D01*
X15044619Y-15657667D01*
X15025571Y-15667190D01*
X15016048Y-15676714D01*
X15006524Y-15695762D01*
X15244619Y-15581476D02*
X15263667Y-15581476D01*
X15282714Y-15591000D01*
X15292238Y-15600524D01*
X15301762Y-15619571D01*
X15311286Y-15657667D01*
X15311286Y-15705286D01*
X15301762Y-15743381D01*
X15292238Y-15762428D01*
X15282714Y-15771952D01*
X15263667Y-15781476D01*
X15244619Y-15781476D01*
X15225571Y-15771952D01*
X15216048Y-15762428D01*
X15206524Y-15743381D01*
X15197000Y-15705286D01*
X15197000Y-15657667D01*
X15206524Y-15619571D01*
X15216048Y-15600524D01*
X15225571Y-15591000D01*
X15244619Y-15581476D01*
X15387476Y-15581476D02*
X15387476Y-15619571D01*
X15463667Y-15581476D02*
X15463667Y-15619571D01*
X15758905Y-15857667D02*
X15749381Y-15848143D01*
X15730333Y-15819571D01*
X15720809Y-15800524D01*
X15711286Y-15771952D01*
X15701762Y-15724333D01*
X15701762Y-15686238D01*
X15711286Y-15638619D01*
X15720809Y-15610048D01*
X15730333Y-15591000D01*
X15749381Y-15562428D01*
X15758905Y-15552905D01*
X15920809Y-15648143D02*
X15920809Y-15781476D01*
X15873190Y-15571952D02*
X15825571Y-15714809D01*
X15949381Y-15714809D01*
X16177952Y-15781476D02*
X16177952Y-15581476D01*
X16263667Y-15781476D02*
X16263667Y-15676714D01*
X16254143Y-15657667D01*
X16235095Y-15648143D01*
X16206524Y-15648143D01*
X16187476Y-15657667D01*
X16177952Y-15667190D01*
X16387476Y-15781476D02*
X16368428Y-15771952D01*
X16358905Y-15762428D01*
X16349381Y-15743381D01*
X16349381Y-15686238D01*
X16358905Y-15667190D01*
X16368428Y-15657667D01*
X16387476Y-15648143D01*
X16416048Y-15648143D01*
X16435095Y-15657667D01*
X16444619Y-15667190D01*
X16454143Y-15686238D01*
X16454143Y-15743381D01*
X16444619Y-15762428D01*
X16435095Y-15771952D01*
X16416048Y-15781476D01*
X16387476Y-15781476D01*
X16568428Y-15781476D02*
X16549381Y-15771952D01*
X16539857Y-15752905D01*
X16539857Y-15581476D01*
X16720809Y-15771952D02*
X16701762Y-15781476D01*
X16663667Y-15781476D01*
X16644619Y-15771952D01*
X16635095Y-15752905D01*
X16635095Y-15676714D01*
X16644619Y-15657667D01*
X16663667Y-15648143D01*
X16701762Y-15648143D01*
X16720809Y-15657667D01*
X16730333Y-15676714D01*
X16730333Y-15695762D01*
X16635095Y-15714809D01*
X16806524Y-15771952D02*
X16825571Y-15781476D01*
X16863667Y-15781476D01*
X16882714Y-15771952D01*
X16892238Y-15752905D01*
X16892238Y-15743381D01*
X16882714Y-15724333D01*
X16863667Y-15714809D01*
X16835095Y-15714809D01*
X16816048Y-15705286D01*
X16806524Y-15686238D01*
X16806524Y-15676714D01*
X16816048Y-15657667D01*
X16835095Y-15648143D01*
X16863667Y-15648143D01*
X16882714Y-15657667D01*
X16958905Y-15857667D02*
X16968429Y-15848143D01*
X16987476Y-15819571D01*
X16997000Y-15800524D01*
X17006524Y-15771952D01*
X17016048Y-15724333D01*
X17016048Y-15686238D01*
X17006524Y-15638619D01*
X16997000Y-15610048D01*
X16987476Y-15591000D01*
X16968429Y-15562428D01*
X16958905Y-15552905D01*
M02*
