G04 #@! TF.GenerationSoftware,KiCad,Pcbnew,(6.0.4-163-g7b7e4e1ae5)*
G04 #@! TF.CreationDate,2022-06-12T18:41:20+02:00*
G04 #@! TF.ProjectId,CANduino128 - v2.0,43414e64-7569-46e6-9f31-3238202d2076,rev?*
G04 #@! TF.SameCoordinates,Original*
G04 #@! TF.FileFunction,Paste,Top*
G04 #@! TF.FilePolarity,Positive*
%FSLAX46Y46*%
G04 Gerber Fmt 4.6, Leading zero omitted, Abs format (unit mm)*
G04 Created by KiCad (PCBNEW (6.0.4-163-g7b7e4e1ae5)) date 2022-06-12 18:41:20*
%MOMM*%
%LPD*%
G01*
G04 APERTURE LIST*
G04 Aperture macros list*
%AMRoundRect*
0 Rectangle with rounded corners*
0 $1 Rounding radius*
0 $2 $3 $4 $5 $6 $7 $8 $9 X,Y pos of 4 corners*
0 Add a 4 corners polygon primitive as box body*
4,1,4,$2,$3,$4,$5,$6,$7,$8,$9,$2,$3,0*
0 Add four circle primitives for the rounded corners*
1,1,$1+$1,$2,$3*
1,1,$1+$1,$4,$5*
1,1,$1+$1,$6,$7*
1,1,$1+$1,$8,$9*
0 Add four rect primitives between the rounded corners*
20,1,$1+$1,$2,$3,$4,$5,0*
20,1,$1+$1,$4,$5,$6,$7,0*
20,1,$1+$1,$6,$7,$8,$9,0*
20,1,$1+$1,$8,$9,$2,$3,0*%
G04 Aperture macros list end*
%ADD10RoundRect,0.250000X1.100000X-0.412500X1.100000X0.412500X-1.100000X0.412500X-1.100000X-0.412500X0*%
%ADD11RoundRect,0.250001X1.074999X-0.462499X1.074999X0.462499X-1.074999X0.462499X-1.074999X-0.462499X0*%
%ADD12RoundRect,0.250000X-1.075000X0.400000X-1.075000X-0.400000X1.075000X-0.400000X1.075000X0.400000X0*%
%ADD13R,0.600000X1.500000*%
%ADD14RoundRect,0.250000X0.412500X1.100000X-0.412500X1.100000X-0.412500X-1.100000X0.412500X-1.100000X0*%
%ADD15RoundRect,0.250001X-1.074999X0.462499X-1.074999X-0.462499X1.074999X-0.462499X1.074999X0.462499X0*%
%ADD16RoundRect,0.250000X1.075000X-0.400000X1.075000X0.400000X-1.075000X0.400000X-1.075000X-0.400000X0*%
G04 APERTURE END LIST*
D10*
X165100000Y-63792500D03*
X165100000Y-60667500D03*
D11*
X180340000Y-123407500D03*
X180340000Y-120432500D03*
D12*
X171450000Y-103860000D03*
X171450000Y-106960000D03*
D10*
X139700000Y-63792500D03*
X139700000Y-60667500D03*
X170180000Y-63792500D03*
X170180000Y-60667500D03*
D13*
X167005000Y-93650000D03*
X168275000Y-93650000D03*
X169545000Y-93650000D03*
X170815000Y-93650000D03*
X172085000Y-93650000D03*
X173355000Y-93650000D03*
X174625000Y-93650000D03*
X175895000Y-93650000D03*
X177165000Y-93650000D03*
X178435000Y-93650000D03*
X178435000Y-84150000D03*
X177165000Y-84150000D03*
X175895000Y-84150000D03*
X174625000Y-84150000D03*
X173355000Y-84150000D03*
X172085000Y-84150000D03*
X170815000Y-84150000D03*
X169545000Y-84150000D03*
X168275000Y-84150000D03*
X167005000Y-84150000D03*
D14*
X160312500Y-95250000D03*
X157187500Y-95250000D03*
D10*
X149860000Y-63792500D03*
X149860000Y-60667500D03*
D15*
X139700000Y-120432500D03*
X139700000Y-123407500D03*
D10*
X160020000Y-63792500D03*
X160020000Y-60667500D03*
D16*
X144780000Y-94260000D03*
X144780000Y-91160000D03*
D10*
X154940000Y-63792500D03*
X154940000Y-60667500D03*
X180340000Y-63792500D03*
X180340000Y-60667500D03*
X144780000Y-63792500D03*
X144780000Y-60667500D03*
D12*
X167640000Y-103860000D03*
X167640000Y-106960000D03*
D10*
X175260000Y-63792500D03*
X175260000Y-60667500D03*
X161925000Y-90462500D03*
X161925000Y-87337500D03*
D12*
X175260000Y-103860000D03*
X175260000Y-106960000D03*
D11*
X175260000Y-123407500D03*
X175260000Y-120432500D03*
M02*
