G04 #@! TF.GenerationSoftware,KiCad,Pcbnew,(6.0.4-163-g7b7e4e1ae5)*
G04 #@! TF.CreationDate,2022-06-12T18:41:20+02:00*
G04 #@! TF.ProjectId,CANduino128 - v2.0,43414e64-7569-46e6-9f31-3238202d2076,rev?*
G04 #@! TF.SameCoordinates,Original*
G04 #@! TF.FileFunction,Soldermask,Top*
G04 #@! TF.FilePolarity,Negative*
%FSLAX46Y46*%
G04 Gerber Fmt 4.6, Leading zero omitted, Abs format (unit mm)*
G04 Created by KiCad (PCBNEW (6.0.4-163-g7b7e4e1ae5)) date 2022-06-12 18:41:20*
%MOMM*%
%LPD*%
G01*
G04 APERTURE LIST*
G04 Aperture macros list*
%AMRoundRect*
0 Rectangle with rounded corners*
0 $1 Rounding radius*
0 $2 $3 $4 $5 $6 $7 $8 $9 X,Y pos of 4 corners*
0 Add a 4 corners polygon primitive as box body*
4,1,4,$2,$3,$4,$5,$6,$7,$8,$9,$2,$3,0*
0 Add four circle primitives for the rounded corners*
1,1,$1+$1,$2,$3*
1,1,$1+$1,$4,$5*
1,1,$1+$1,$6,$7*
1,1,$1+$1,$8,$9*
0 Add four rect primitives between the rounded corners*
20,1,$1+$1,$2,$3,$4,$5,0*
20,1,$1+$1,$4,$5,$6,$7,0*
20,1,$1+$1,$6,$7,$8,$9,0*
20,1,$1+$1,$8,$9,$2,$3,0*%
G04 Aperture macros list end*
%ADD10RoundRect,0.250000X1.100000X-0.412500X1.100000X0.412500X-1.100000X0.412500X-1.100000X-0.412500X0*%
%ADD11RoundRect,0.250001X1.074999X-0.462499X1.074999X0.462499X-1.074999X0.462499X-1.074999X-0.462499X0*%
%ADD12R,1.700000X1.700000*%
%ADD13O,1.700000X1.700000*%
%ADD14RoundRect,0.250000X-1.075000X0.400000X-1.075000X-0.400000X1.075000X-0.400000X1.075000X0.400000X0*%
%ADD15RoundRect,0.250001X-0.799999X-0.799999X0.799999X-0.799999X0.799999X0.799999X-0.799999X0.799999X0*%
%ADD16C,0.800000*%
%ADD17C,6.400000*%
%ADD18R,2.400000X1.600000*%
%ADD19O,2.400000X1.600000*%
%ADD20R,1.600000X2.400000*%
%ADD21O,1.600000X2.400000*%
%ADD22C,1.600000*%
%ADD23R,1.600000X1.600000*%
%ADD24R,0.600000X1.500000*%
%ADD25RoundRect,0.250000X0.412500X1.100000X-0.412500X1.100000X-0.412500X-1.100000X0.412500X-1.100000X0*%
%ADD26RoundRect,0.250001X-1.074999X0.462499X-1.074999X-0.462499X1.074999X-0.462499X1.074999X0.462499X0*%
%ADD27R,2.600000X2.600000*%
%ADD28C,2.600000*%
%ADD29C,1.500000*%
%ADD30RoundRect,0.250000X-0.550000X0.550000X-0.550000X-0.550000X0.550000X-0.550000X0.550000X0.550000X0*%
%ADD31RoundRect,0.250000X1.075000X-0.400000X1.075000X0.400000X-1.075000X0.400000X-1.075000X-0.400000X0*%
%ADD32RoundRect,0.250000X-0.550000X-0.550000X0.550000X-0.550000X0.550000X0.550000X-0.550000X0.550000X0*%
%ADD33R,2.200000X2.200000*%
%ADD34C,2.200000*%
G04 APERTURE END LIST*
D10*
X165100000Y-63792500D03*
X165100000Y-60667500D03*
D11*
X180340000Y-123407500D03*
X180340000Y-120432500D03*
D12*
X162560000Y-81280000D03*
D13*
X162560000Y-83820000D03*
D14*
X171450000Y-103860000D03*
X171450000Y-106960000D03*
D10*
X139700000Y-63792500D03*
X139700000Y-60667500D03*
X170180000Y-63792500D03*
X170180000Y-60667500D03*
D15*
X190500000Y-114300000D03*
D16*
X125302944Y-52497056D03*
X127000000Y-53200000D03*
X124600000Y-50800000D03*
X129400000Y-50800000D03*
X128697056Y-49102944D03*
X127000000Y-48400000D03*
D17*
X127000000Y-50800000D03*
D16*
X125302944Y-49102944D03*
X128697056Y-52497056D03*
D15*
X134620000Y-53340000D03*
D18*
X139700000Y-71120000D03*
D19*
X139700000Y-73660000D03*
X139700000Y-76200000D03*
X139700000Y-78740000D03*
X139700000Y-81280000D03*
X139700000Y-83820000D03*
X139700000Y-86360000D03*
X139700000Y-88900000D03*
X139700000Y-91440000D03*
X139700000Y-93980000D03*
X139700000Y-96520000D03*
X139700000Y-99060000D03*
X139700000Y-101600000D03*
X139700000Y-104140000D03*
X139700000Y-106680000D03*
X139700000Y-109220000D03*
D20*
X142240000Y-111760000D03*
D21*
X144780000Y-111760000D03*
X147320000Y-111760000D03*
X149860000Y-111760000D03*
X152400000Y-111760000D03*
X154940000Y-111760000D03*
X157480000Y-111760000D03*
X160020000Y-111760000D03*
X162560000Y-111760000D03*
X165100000Y-111760000D03*
X167640000Y-111760000D03*
X170180000Y-111760000D03*
X172720000Y-111760000D03*
X175260000Y-111760000D03*
X177800000Y-111760000D03*
X180340000Y-111760000D03*
D18*
X182880000Y-109220000D03*
D19*
X182880000Y-106680000D03*
X182880000Y-104140000D03*
X182880000Y-101600000D03*
X182880000Y-99060000D03*
X182880000Y-96520000D03*
X182880000Y-93980000D03*
X182880000Y-91440000D03*
X182880000Y-88900000D03*
X182880000Y-86360000D03*
X182880000Y-83820000D03*
X182880000Y-81280000D03*
X182880000Y-78740000D03*
X182880000Y-76200000D03*
X182880000Y-73660000D03*
X182880000Y-71120000D03*
D20*
X180340000Y-68580000D03*
D21*
X177800000Y-68580000D03*
X175260000Y-68580000D03*
X172720000Y-68580000D03*
X170180000Y-68580000D03*
X167640000Y-68580000D03*
X165100000Y-68580000D03*
X162560000Y-68580000D03*
X160020000Y-68580000D03*
X157480000Y-68580000D03*
X154940000Y-68580000D03*
X152400000Y-68580000D03*
X149860000Y-68580000D03*
X147320000Y-68580000D03*
X144780000Y-68580000D03*
X142240000Y-68580000D03*
D22*
X142240000Y-71120000D03*
D23*
X142240000Y-73660000D03*
D16*
X194737056Y-127842944D03*
X193040000Y-131940000D03*
X191342944Y-131237056D03*
X190640000Y-129540000D03*
X194737056Y-131237056D03*
X193040000Y-127140000D03*
X191342944Y-127842944D03*
X195440000Y-129540000D03*
D17*
X193040000Y-129540000D03*
D24*
X167005000Y-93650000D03*
X168275000Y-93650000D03*
X169545000Y-93650000D03*
X170815000Y-93650000D03*
X172085000Y-93650000D03*
X173355000Y-93650000D03*
X174625000Y-93650000D03*
X175895000Y-93650000D03*
X177165000Y-93650000D03*
X178435000Y-93650000D03*
X178435000Y-84150000D03*
X177165000Y-84150000D03*
X175895000Y-84150000D03*
X174625000Y-84150000D03*
X173355000Y-84150000D03*
X172085000Y-84150000D03*
X170815000Y-84150000D03*
X169545000Y-84150000D03*
X168275000Y-84150000D03*
X167005000Y-84150000D03*
D25*
X160312500Y-95250000D03*
X157187500Y-95250000D03*
D10*
X149860000Y-63792500D03*
X149860000Y-60667500D03*
D20*
X162560000Y-99060000D03*
D21*
X160020000Y-99060000D03*
X157480000Y-99060000D03*
X154940000Y-99060000D03*
X154940000Y-106680000D03*
X157480000Y-106680000D03*
X160020000Y-106680000D03*
X162560000Y-106680000D03*
D26*
X139700000Y-120432500D03*
X139700000Y-123407500D03*
D27*
X185420000Y-53340000D03*
D28*
X180340000Y-53340000D03*
X175260000Y-53340000D03*
X170180000Y-53340000D03*
X165100000Y-53340000D03*
X160020000Y-53340000D03*
X154940000Y-53340000D03*
X149860000Y-53340000D03*
X144780000Y-53340000D03*
X139700000Y-53340000D03*
D10*
X160020000Y-63792500D03*
X160020000Y-60667500D03*
D15*
X190500000Y-119380000D03*
D12*
X157480000Y-81280000D03*
D13*
X157480000Y-83820000D03*
D12*
X190500000Y-73660000D03*
D13*
X193040000Y-73660000D03*
X190500000Y-76200000D03*
X193040000Y-76200000D03*
X190500000Y-78740000D03*
X193040000Y-78740000D03*
X190500000Y-81280000D03*
X193040000Y-81280000D03*
X190500000Y-83820000D03*
X193040000Y-83820000D03*
X190500000Y-86360000D03*
X193040000Y-86360000D03*
X190500000Y-88900000D03*
X193040000Y-88900000D03*
X190500000Y-91440000D03*
X193040000Y-91440000D03*
X190500000Y-93980000D03*
X193040000Y-93980000D03*
X190500000Y-96520000D03*
X193040000Y-96520000D03*
X190500000Y-99060000D03*
X193040000Y-99060000D03*
X190500000Y-101600000D03*
X193040000Y-101600000D03*
X190500000Y-104140000D03*
X193040000Y-104140000D03*
X190500000Y-106680000D03*
X193040000Y-106680000D03*
D29*
X136590000Y-80010000D03*
X142590000Y-80010000D03*
D30*
X148590000Y-80010000D03*
D31*
X144780000Y-94260000D03*
X144780000Y-91160000D03*
D10*
X154940000Y-63792500D03*
X154940000Y-60667500D03*
D16*
X193040000Y-48400000D03*
X194737056Y-52497056D03*
D17*
X193040000Y-50800000D03*
D16*
X191342944Y-52497056D03*
X190640000Y-50800000D03*
X191342944Y-49102944D03*
X194737056Y-49102944D03*
X195440000Y-50800000D03*
X193040000Y-53200000D03*
D32*
X144780000Y-99060000D03*
D10*
X180340000Y-63792500D03*
X180340000Y-60667500D03*
D27*
X129540000Y-93980000D03*
D28*
X129540000Y-99060000D03*
X129540000Y-104140000D03*
X129540000Y-109220000D03*
X129540000Y-114300000D03*
X129540000Y-119380000D03*
D29*
X136590000Y-77470000D03*
X142590000Y-77470000D03*
D30*
X148590000Y-77470000D03*
D10*
X144780000Y-63792500D03*
X144780000Y-60667500D03*
D14*
X167640000Y-103860000D03*
X167640000Y-106960000D03*
D33*
X144780000Y-121920000D03*
D34*
X147320000Y-121920000D03*
X149860000Y-121920000D03*
X152400000Y-121920000D03*
X154940000Y-121920000D03*
X157480000Y-121920000D03*
X160020000Y-121920000D03*
X162560000Y-121920000D03*
D12*
X167640000Y-121920000D03*
D13*
X170180000Y-121920000D03*
D10*
X175260000Y-63792500D03*
X175260000Y-60667500D03*
X161925000Y-90462500D03*
X161925000Y-87337500D03*
D14*
X175260000Y-103860000D03*
X175260000Y-106960000D03*
D27*
X129540000Y-60960000D03*
D28*
X129540000Y-66040000D03*
X129540000Y-71120000D03*
X129540000Y-76200000D03*
X129540000Y-81280000D03*
X129540000Y-86360000D03*
D16*
X129400000Y-129540000D03*
X125302944Y-127842944D03*
X125302944Y-131237056D03*
X128697056Y-127842944D03*
X128697056Y-131237056D03*
X124600000Y-129540000D03*
X127000000Y-131940000D03*
D17*
X127000000Y-129540000D03*
D16*
X127000000Y-127140000D03*
D11*
X175260000Y-123407500D03*
X175260000Y-120432500D03*
M02*
