%TF.GenerationSoftware,KiCad,Pcbnew,(6.0.9)*%
%TF.CreationDate,2022-11-27T13:00:17+01:00*%
%TF.ProjectId,CANduino128,43414e64-7569-46e6-9f31-32382e6b6963,rev?*%
%TF.SameCoordinates,Original*%
%TF.FileFunction,Drillmap*%
%TF.FilePolarity,Positive*%
%FSLAX45Y45*%
G04 Gerber Fmt 4.5, Leading zero omitted, Abs format (unit mm)*
G04 Created by KiCad (PCBNEW (6.0.9)) date 2022-11-27 13:00:17*
%MOMM*%
%LPD*%
G01*
G04 APERTURE LIST*
%ADD10C,0.100000*%
%ADD11C,0.200000*%
G04 APERTURE END LIST*
D10*
X15968980Y-13366750D02*
G75*
G03*
X16064230Y-13462000I95250J0D01*
G01*
X19748500Y-4540250D02*
G75*
G03*
X19653250Y-4445000I-95250J0D01*
G01*
X16064230Y-13462000D02*
X19653250Y-13462000D01*
X15968980Y-13366750D02*
G75*
G03*
X15873730Y-13271500I-95250J0D01*
G01*
X10160000Y-13366750D02*
X10160000Y-9950450D01*
X19748500Y-9950450D02*
G75*
G03*
X19653250Y-9855200I-95250J0D01*
G01*
X10255250Y-9855200D02*
G75*
G03*
X10350500Y-9759950I0J95250D01*
G01*
X10255250Y-4445000D02*
X13844270Y-4445000D01*
X16064230Y-4445000D02*
G75*
G03*
X15968980Y-4540250I0J-95250D01*
G01*
X10350500Y-7918450D02*
G75*
G03*
X10255250Y-7823200I-95250J0D01*
G01*
X15873730Y-4635500D02*
G75*
G03*
X15968980Y-4540250I0J95250D01*
G01*
X19558000Y-9759950D02*
G75*
G03*
X19653250Y-9855200I95250J0D01*
G01*
X13844270Y-13462000D02*
G75*
G03*
X13939520Y-13366750I0J95250D01*
G01*
X14034770Y-4635500D02*
X15873730Y-4635500D01*
X10160000Y-7727950D02*
G75*
G03*
X10255250Y-7823200I95250J0D01*
G01*
X10255250Y-9855200D02*
G75*
G03*
X10160000Y-9950450I0J-95250D01*
G01*
X13939520Y-4540250D02*
G75*
G03*
X14034770Y-4635500I95250J0D01*
G01*
X19748500Y-7727950D02*
X19748500Y-4540250D01*
X10160000Y-7727950D02*
X10160000Y-4540250D01*
X16064230Y-4445000D02*
X19653250Y-4445000D01*
X19558000Y-9759950D02*
X19558000Y-7918450D01*
X19748500Y-13366750D02*
X19748500Y-9950450D01*
X10255250Y-4445000D02*
G75*
G03*
X10160000Y-4540250I0J-95250D01*
G01*
X14034770Y-13271500D02*
G75*
G03*
X13939520Y-13366750I0J-95250D01*
G01*
X10160000Y-13366750D02*
G75*
G03*
X10255250Y-13462000I95250J0D01*
G01*
X10255250Y-13462000D02*
X13844270Y-13462000D01*
X19653250Y-13462000D02*
G75*
G03*
X19748500Y-13366750I0J95250D01*
G01*
X19653250Y-7823200D02*
G75*
G03*
X19558000Y-7918450I0J-95250D01*
G01*
X10350500Y-9759950D02*
X10350500Y-7918450D01*
X14034770Y-13271500D02*
X15873730Y-13271500D01*
X19653250Y-7823200D02*
G75*
G03*
X19748500Y-7727950I0J95250D01*
G01*
X13939520Y-4540250D02*
G75*
G03*
X13844270Y-4445000I-95250J0D01*
G01*
D11*
X10412619Y-13777476D02*
X10412619Y-13577476D01*
X10460238Y-13577476D01*
X10488809Y-13587000D01*
X10507857Y-13606048D01*
X10517381Y-13625095D01*
X10526905Y-13663190D01*
X10526905Y-13691762D01*
X10517381Y-13729857D01*
X10507857Y-13748905D01*
X10488809Y-13767952D01*
X10460238Y-13777476D01*
X10412619Y-13777476D01*
X10612619Y-13777476D02*
X10612619Y-13644143D01*
X10612619Y-13682238D02*
X10622143Y-13663190D01*
X10631667Y-13653667D01*
X10650714Y-13644143D01*
X10669762Y-13644143D01*
X10736428Y-13777476D02*
X10736428Y-13644143D01*
X10736428Y-13577476D02*
X10726905Y-13587000D01*
X10736428Y-13596524D01*
X10745952Y-13587000D01*
X10736428Y-13577476D01*
X10736428Y-13596524D01*
X10860238Y-13777476D02*
X10841190Y-13767952D01*
X10831667Y-13748905D01*
X10831667Y-13577476D01*
X10965000Y-13777476D02*
X10945952Y-13767952D01*
X10936428Y-13748905D01*
X10936428Y-13577476D01*
X11193571Y-13777476D02*
X11193571Y-13577476D01*
X11260238Y-13720333D01*
X11326905Y-13577476D01*
X11326905Y-13777476D01*
X11507857Y-13777476D02*
X11507857Y-13672714D01*
X11498333Y-13653667D01*
X11479286Y-13644143D01*
X11441190Y-13644143D01*
X11422143Y-13653667D01*
X11507857Y-13767952D02*
X11488809Y-13777476D01*
X11441190Y-13777476D01*
X11422143Y-13767952D01*
X11412619Y-13748905D01*
X11412619Y-13729857D01*
X11422143Y-13710809D01*
X11441190Y-13701286D01*
X11488809Y-13701286D01*
X11507857Y-13691762D01*
X11603095Y-13644143D02*
X11603095Y-13844143D01*
X11603095Y-13653667D02*
X11622143Y-13644143D01*
X11660238Y-13644143D01*
X11679286Y-13653667D01*
X11688809Y-13663190D01*
X11698333Y-13682238D01*
X11698333Y-13739381D01*
X11688809Y-13758428D01*
X11679286Y-13767952D01*
X11660238Y-13777476D01*
X11622143Y-13777476D01*
X11603095Y-13767952D01*
X11784047Y-13758428D02*
X11793571Y-13767952D01*
X11784047Y-13777476D01*
X11774524Y-13767952D01*
X11784047Y-13758428D01*
X11784047Y-13777476D01*
X11784047Y-13653667D02*
X11793571Y-13663190D01*
X11784047Y-13672714D01*
X11774524Y-13663190D01*
X11784047Y-13653667D01*
X11784047Y-13672714D01*
M02*
