G04 #@! TF.GenerationSoftware,KiCad,Pcbnew,(6.0.9)*
G04 #@! TF.CreationDate,2022-11-27T13:00:04+01:00*
G04 #@! TF.ProjectId,CANduino128,43414e64-7569-46e6-9f31-32382e6b6963,rev?*
G04 #@! TF.SameCoordinates,Original*
G04 #@! TF.FileFunction,Legend,Bot*
G04 #@! TF.FilePolarity,Positive*
%FSLAX46Y46*%
G04 Gerber Fmt 4.6, Leading zero omitted, Abs format (unit mm)*
G04 Created by KiCad (PCBNEW (6.0.9)) date 2022-11-27 13:00:04*
%MOMM*%
%LPD*%
G01*
G04 APERTURE LIST*
G04 Aperture macros list*
%AMRoundRect*
0 Rectangle with rounded corners*
0 $1 Rounding radius*
0 $2 $3 $4 $5 $6 $7 $8 $9 X,Y pos of 4 corners*
0 Add a 4 corners polygon primitive as box body*
4,1,4,$2,$3,$4,$5,$6,$7,$8,$9,$2,$3,0*
0 Add four circle primitives for the rounded corners*
1,1,$1+$1,$2,$3*
1,1,$1+$1,$4,$5*
1,1,$1+$1,$6,$7*
1,1,$1+$1,$8,$9*
0 Add four rect primitives between the rounded corners*
20,1,$1+$1,$2,$3,$4,$5,0*
20,1,$1+$1,$4,$5,$6,$7,0*
20,1,$1+$1,$6,$7,$8,$9,0*
20,1,$1+$1,$8,$9,$2,$3,0*%
%AMFreePoly0*
4,1,22,0.550000,-0.750000,0.000000,-0.750000,0.000000,-0.745033,-0.079941,-0.743568,-0.215256,-0.701293,-0.333266,-0.622738,-0.424486,-0.514219,-0.481581,-0.384460,-0.499164,-0.250000,-0.500000,-0.250000,-0.500000,0.250000,-0.499164,0.250000,-0.499963,0.256109,-0.478152,0.396186,-0.417904,0.524511,-0.324060,0.630769,-0.204165,0.706417,-0.067858,0.745374,0.000000,0.744959,0.000000,0.750000,
0.550000,0.750000,0.550000,-0.750000,0.550000,-0.750000,$1*%
%AMFreePoly1*
4,1,20,0.000000,0.744959,0.073905,0.744508,0.209726,0.703889,0.328688,0.626782,0.421226,0.519385,0.479903,0.390333,0.500000,0.250000,0.500000,-0.250000,0.499851,-0.262216,0.476331,-0.402017,0.414519,-0.529596,0.319384,-0.634700,0.198574,-0.708877,0.061801,-0.746166,0.000000,-0.745033,0.000000,-0.750000,-0.550000,-0.750000,-0.550000,0.750000,0.000000,0.750000,0.000000,0.744959,
0.000000,0.744959,$1*%
G04 Aperture macros list end*
%ADD10C,0.150000*%
%ADD11C,0.120000*%
%ADD12R,1.700000X1.700000*%
%ADD13O,1.700000X1.700000*%
%ADD14R,2.100000X2.100000*%
%ADD15C,2.100000*%
%ADD16C,7.000000*%
%ADD17RoundRect,0.250000X-0.550000X0.550000X-0.550000X-0.550000X0.550000X-0.550000X0.550000X0.550000X0*%
%ADD18R,2.600000X2.600000*%
%ADD19C,2.600000*%
%ADD20C,1.700000*%
%ADD21C,0.800000*%
%ADD22C,6.400000*%
%ADD23R,1.600000X1.600000*%
%ADD24O,1.600000X1.600000*%
%ADD25R,1.600000X2.400000*%
%ADD26O,1.600000X2.400000*%
%ADD27R,2.400000X1.600000*%
%ADD28O,2.400000X1.600000*%
%ADD29C,1.600000*%
%ADD30RoundRect,0.250000X-0.400000X-1.075000X0.400000X-1.075000X0.400000X1.075000X-0.400000X1.075000X0*%
%ADD31FreePoly0,270.000000*%
%ADD32R,1.500000X1.000000*%
%ADD33FreePoly1,270.000000*%
%ADD34C,1.000000*%
%ADD35RoundRect,0.250000X1.075000X-0.400000X1.075000X0.400000X-1.075000X0.400000X-1.075000X-0.400000X0*%
G04 APERTURE END LIST*
D10*
X148590000Y-55880000D02*
X118110000Y-55880000D01*
X181610000Y-55880000D02*
X151130000Y-55880000D01*
X180242380Y-91892380D02*
X180575714Y-91416190D01*
X180813809Y-91892380D02*
X180813809Y-90892380D01*
X180432857Y-90892380D01*
X180337619Y-90940000D01*
X180290000Y-90987619D01*
X180242380Y-91082857D01*
X180242380Y-91225714D01*
X180290000Y-91320952D01*
X180337619Y-91368571D01*
X180432857Y-91416190D01*
X180813809Y-91416190D01*
X179290000Y-91892380D02*
X179861428Y-91892380D01*
X179575714Y-91892380D02*
X179575714Y-90892380D01*
X179670952Y-91035238D01*
X179766190Y-91130476D01*
X179861428Y-91178095D01*
X179099523Y-91987619D02*
X178337619Y-91987619D01*
X178147142Y-91606666D02*
X177670952Y-91606666D01*
X178242380Y-91892380D02*
X177909047Y-90892380D01*
X177575714Y-91892380D01*
X176766190Y-90892380D02*
X177242380Y-90892380D01*
X177290000Y-91368571D01*
X177242380Y-91320952D01*
X177147142Y-91273333D01*
X176909047Y-91273333D01*
X176813809Y-91320952D01*
X176766190Y-91368571D01*
X176718571Y-91463809D01*
X176718571Y-91701904D01*
X176766190Y-91797142D01*
X176813809Y-91844761D01*
X176909047Y-91892380D01*
X177147142Y-91892380D01*
X177242380Y-91844761D01*
X177290000Y-91797142D01*
X181802380Y-102878095D02*
X182516666Y-102878095D01*
X182659523Y-102830476D01*
X182754761Y-102735238D01*
X182802380Y-102592380D01*
X182802380Y-102497142D01*
X182802380Y-103354285D02*
X181802380Y-103354285D01*
X181802380Y-103735238D01*
X181850000Y-103830476D01*
X181897619Y-103878095D01*
X181992857Y-103925714D01*
X182135714Y-103925714D01*
X182230952Y-103878095D01*
X182278571Y-103830476D01*
X182326190Y-103735238D01*
X182326190Y-103354285D01*
X182516666Y-104306666D02*
X182516666Y-104782857D01*
X182802380Y-104211428D02*
X181802380Y-104544761D01*
X182802380Y-104878095D01*
X181802380Y-105116190D02*
X181802380Y-105782857D01*
X182802380Y-105354285D01*
X180242380Y-102052380D02*
X180575714Y-101576190D01*
X180813809Y-102052380D02*
X180813809Y-101052380D01*
X180432857Y-101052380D01*
X180337619Y-101100000D01*
X180290000Y-101147619D01*
X180242380Y-101242857D01*
X180242380Y-101385714D01*
X180290000Y-101480952D01*
X180337619Y-101528571D01*
X180432857Y-101576190D01*
X180813809Y-101576190D01*
X179290000Y-102052380D02*
X179861428Y-102052380D01*
X179575714Y-102052380D02*
X179575714Y-101052380D01*
X179670952Y-101195238D01*
X179766190Y-101290476D01*
X179861428Y-101338095D01*
X179099523Y-102147619D02*
X178337619Y-102147619D01*
X178147142Y-101766666D02*
X177670952Y-101766666D01*
X178242380Y-102052380D02*
X177909047Y-101052380D01*
X177575714Y-102052380D01*
X177337619Y-101052380D02*
X176670952Y-101052380D01*
X177099523Y-102052380D01*
X181802380Y-77478095D02*
X182516666Y-77478095D01*
X182659523Y-77430476D01*
X182754761Y-77335238D01*
X182802380Y-77192380D01*
X182802380Y-77097142D01*
X182802380Y-77954285D02*
X181802380Y-77954285D01*
X181802380Y-78335238D01*
X181850000Y-78430476D01*
X181897619Y-78478095D01*
X181992857Y-78525714D01*
X182135714Y-78525714D01*
X182230952Y-78478095D01*
X182278571Y-78430476D01*
X182326190Y-78335238D01*
X182326190Y-77954285D01*
X182516666Y-78906666D02*
X182516666Y-79382857D01*
X182802380Y-78811428D02*
X181802380Y-79144761D01*
X182802380Y-79478095D01*
X181897619Y-79763809D02*
X181850000Y-79811428D01*
X181802380Y-79906666D01*
X181802380Y-80144761D01*
X181850000Y-80240000D01*
X181897619Y-80287619D01*
X181992857Y-80335238D01*
X182088095Y-80335238D01*
X182230952Y-80287619D01*
X182802380Y-79716190D01*
X182802380Y-80335238D01*
X181802380Y-92718095D02*
X182516666Y-92718095D01*
X182659523Y-92670476D01*
X182754761Y-92575238D01*
X182802380Y-92432380D01*
X182802380Y-92337142D01*
X182802380Y-93194285D02*
X181802380Y-93194285D01*
X181802380Y-93575238D01*
X181850000Y-93670476D01*
X181897619Y-93718095D01*
X181992857Y-93765714D01*
X182135714Y-93765714D01*
X182230952Y-93718095D01*
X182278571Y-93670476D01*
X182326190Y-93575238D01*
X182326190Y-93194285D01*
X182516666Y-94146666D02*
X182516666Y-94622857D01*
X182802380Y-94051428D02*
X181802380Y-94384761D01*
X182802380Y-94718095D01*
X181802380Y-95527619D02*
X181802380Y-95051428D01*
X182278571Y-95003809D01*
X182230952Y-95051428D01*
X182183333Y-95146666D01*
X182183333Y-95384761D01*
X182230952Y-95480000D01*
X182278571Y-95527619D01*
X182373809Y-95575238D01*
X182611904Y-95575238D01*
X182707142Y-95527619D01*
X182754761Y-95480000D01*
X182802380Y-95384761D01*
X182802380Y-95146666D01*
X182754761Y-95051428D01*
X182707142Y-95003809D01*
X180242380Y-76652380D02*
X180575714Y-76176190D01*
X180813809Y-76652380D02*
X180813809Y-75652380D01*
X180432857Y-75652380D01*
X180337619Y-75700000D01*
X180290000Y-75747619D01*
X180242380Y-75842857D01*
X180242380Y-75985714D01*
X180290000Y-76080952D01*
X180337619Y-76128571D01*
X180432857Y-76176190D01*
X180813809Y-76176190D01*
X179290000Y-76652380D02*
X179861428Y-76652380D01*
X179575714Y-76652380D02*
X179575714Y-75652380D01*
X179670952Y-75795238D01*
X179766190Y-75890476D01*
X179861428Y-75938095D01*
X179099523Y-76747619D02*
X178337619Y-76747619D01*
X178147142Y-76366666D02*
X177670952Y-76366666D01*
X178242380Y-76652380D02*
X177909047Y-75652380D01*
X177575714Y-76652380D01*
X177290000Y-75747619D02*
X177242380Y-75700000D01*
X177147142Y-75652380D01*
X176909047Y-75652380D01*
X176813809Y-75700000D01*
X176766190Y-75747619D01*
X176718571Y-75842857D01*
X176718571Y-75938095D01*
X176766190Y-76080952D01*
X177337619Y-76652380D01*
X176718571Y-76652380D01*
X110720000Y-56332380D02*
X111053333Y-55856190D01*
X111291428Y-56332380D02*
X111291428Y-55332380D01*
X110910476Y-55332380D01*
X110815238Y-55380000D01*
X110767619Y-55427619D01*
X110720000Y-55522857D01*
X110720000Y-55665714D01*
X110767619Y-55760952D01*
X110815238Y-55808571D01*
X110910476Y-55856190D01*
X111291428Y-55856190D01*
X110529523Y-56427619D02*
X109767619Y-56427619D01*
X109005714Y-56332380D02*
X109577142Y-56332380D01*
X109291428Y-56332380D02*
X109291428Y-55332380D01*
X109386666Y-55475238D01*
X109481904Y-55570476D01*
X109577142Y-55618095D01*
X108053333Y-56332380D02*
X108624761Y-56332380D01*
X108339047Y-56332380D02*
X108339047Y-55332380D01*
X108434285Y-55475238D01*
X108529523Y-55570476D01*
X108624761Y-55618095D01*
X107434285Y-55332380D02*
X107339047Y-55332380D01*
X107243809Y-55380000D01*
X107196190Y-55427619D01*
X107148571Y-55522857D01*
X107100952Y-55713333D01*
X107100952Y-55951428D01*
X107148571Y-56141904D01*
X107196190Y-56237142D01*
X107243809Y-56284761D01*
X107339047Y-56332380D01*
X107434285Y-56332380D01*
X107529523Y-56284761D01*
X107577142Y-56237142D01*
X107624761Y-56141904D01*
X107672380Y-55951428D01*
X107672380Y-55713333D01*
X107624761Y-55522857D01*
X107577142Y-55427619D01*
X107529523Y-55380000D01*
X107434285Y-55332380D01*
X181802380Y-97798095D02*
X182516666Y-97798095D01*
X182659523Y-97750476D01*
X182754761Y-97655238D01*
X182802380Y-97512380D01*
X182802380Y-97417142D01*
X182802380Y-98274285D02*
X181802380Y-98274285D01*
X181802380Y-98655238D01*
X181850000Y-98750476D01*
X181897619Y-98798095D01*
X181992857Y-98845714D01*
X182135714Y-98845714D01*
X182230952Y-98798095D01*
X182278571Y-98750476D01*
X182326190Y-98655238D01*
X182326190Y-98274285D01*
X182516666Y-99226666D02*
X182516666Y-99702857D01*
X182802380Y-99131428D02*
X181802380Y-99464761D01*
X182802380Y-99798095D01*
X181802380Y-100560000D02*
X181802380Y-100369523D01*
X181850000Y-100274285D01*
X181897619Y-100226666D01*
X182040476Y-100131428D01*
X182230952Y-100083809D01*
X182611904Y-100083809D01*
X182707142Y-100131428D01*
X182754761Y-100179047D01*
X182802380Y-100274285D01*
X182802380Y-100464761D01*
X182754761Y-100560000D01*
X182707142Y-100607619D01*
X182611904Y-100655238D01*
X182373809Y-100655238D01*
X182278571Y-100607619D01*
X182230952Y-100560000D01*
X182183333Y-100464761D01*
X182183333Y-100274285D01*
X182230952Y-100179047D01*
X182278571Y-100131428D01*
X182373809Y-100083809D01*
X180242380Y-71572380D02*
X180575714Y-71096190D01*
X180813809Y-71572380D02*
X180813809Y-70572380D01*
X180432857Y-70572380D01*
X180337619Y-70620000D01*
X180290000Y-70667619D01*
X180242380Y-70762857D01*
X180242380Y-70905714D01*
X180290000Y-71000952D01*
X180337619Y-71048571D01*
X180432857Y-71096190D01*
X180813809Y-71096190D01*
X179290000Y-71572380D02*
X179861428Y-71572380D01*
X179575714Y-71572380D02*
X179575714Y-70572380D01*
X179670952Y-70715238D01*
X179766190Y-70810476D01*
X179861428Y-70858095D01*
X179099523Y-71667619D02*
X178337619Y-71667619D01*
X178147142Y-71286666D02*
X177670952Y-71286666D01*
X178242380Y-71572380D02*
X177909047Y-70572380D01*
X177575714Y-71572380D01*
X176718571Y-71572380D02*
X177290000Y-71572380D01*
X177004285Y-71572380D02*
X177004285Y-70572380D01*
X177099523Y-70715238D01*
X177194761Y-70810476D01*
X177290000Y-70858095D01*
X181802380Y-107958095D02*
X182516666Y-107958095D01*
X182659523Y-107910476D01*
X182754761Y-107815238D01*
X182802380Y-107672380D01*
X182802380Y-107577142D01*
X182802380Y-108434285D02*
X181802380Y-108434285D01*
X181802380Y-108815238D01*
X181850000Y-108910476D01*
X181897619Y-108958095D01*
X181992857Y-109005714D01*
X182135714Y-109005714D01*
X182230952Y-108958095D01*
X182278571Y-108910476D01*
X182326190Y-108815238D01*
X182326190Y-108434285D01*
X182516666Y-109386666D02*
X182516666Y-109862857D01*
X182802380Y-109291428D02*
X181802380Y-109624761D01*
X182802380Y-109958095D01*
X182230952Y-110434285D02*
X182183333Y-110339047D01*
X182135714Y-110291428D01*
X182040476Y-110243809D01*
X181992857Y-110243809D01*
X181897619Y-110291428D01*
X181850000Y-110339047D01*
X181802380Y-110434285D01*
X181802380Y-110624761D01*
X181850000Y-110720000D01*
X181897619Y-110767619D01*
X181992857Y-110815238D01*
X182040476Y-110815238D01*
X182135714Y-110767619D01*
X182183333Y-110720000D01*
X182230952Y-110624761D01*
X182230952Y-110434285D01*
X182278571Y-110339047D01*
X182326190Y-110291428D01*
X182421428Y-110243809D01*
X182611904Y-110243809D01*
X182707142Y-110291428D01*
X182754761Y-110339047D01*
X182802380Y-110434285D01*
X182802380Y-110624761D01*
X182754761Y-110720000D01*
X182707142Y-110767619D01*
X182611904Y-110815238D01*
X182421428Y-110815238D01*
X182326190Y-110767619D01*
X182278571Y-110720000D01*
X182230952Y-110624761D01*
X181802380Y-87638095D02*
X182516666Y-87638095D01*
X182659523Y-87590476D01*
X182754761Y-87495238D01*
X182802380Y-87352380D01*
X182802380Y-87257142D01*
X182802380Y-88114285D02*
X181802380Y-88114285D01*
X181802380Y-88495238D01*
X181850000Y-88590476D01*
X181897619Y-88638095D01*
X181992857Y-88685714D01*
X182135714Y-88685714D01*
X182230952Y-88638095D01*
X182278571Y-88590476D01*
X182326190Y-88495238D01*
X182326190Y-88114285D01*
X182516666Y-89066666D02*
X182516666Y-89542857D01*
X182802380Y-88971428D02*
X181802380Y-89304761D01*
X182802380Y-89638095D01*
X182135714Y-90400000D02*
X182802380Y-90400000D01*
X181754761Y-90161904D02*
X182469047Y-89923809D01*
X182469047Y-90542857D01*
X181802380Y-72398095D02*
X182516666Y-72398095D01*
X182659523Y-72350476D01*
X182754761Y-72255238D01*
X182802380Y-72112380D01*
X182802380Y-72017142D01*
X182802380Y-72874285D02*
X181802380Y-72874285D01*
X181802380Y-73255238D01*
X181850000Y-73350476D01*
X181897619Y-73398095D01*
X181992857Y-73445714D01*
X182135714Y-73445714D01*
X182230952Y-73398095D01*
X182278571Y-73350476D01*
X182326190Y-73255238D01*
X182326190Y-72874285D01*
X182516666Y-73826666D02*
X182516666Y-74302857D01*
X182802380Y-73731428D02*
X181802380Y-74064761D01*
X182802380Y-74398095D01*
X182802380Y-75255238D02*
X182802380Y-74683809D01*
X182802380Y-74969523D02*
X181802380Y-74969523D01*
X181945238Y-74874285D01*
X182040476Y-74779047D01*
X182088095Y-74683809D01*
X181802380Y-82558095D02*
X182516666Y-82558095D01*
X182659523Y-82510476D01*
X182754761Y-82415238D01*
X182802380Y-82272380D01*
X182802380Y-82177142D01*
X182802380Y-83034285D02*
X181802380Y-83034285D01*
X181802380Y-83415238D01*
X181850000Y-83510476D01*
X181897619Y-83558095D01*
X181992857Y-83605714D01*
X182135714Y-83605714D01*
X182230952Y-83558095D01*
X182278571Y-83510476D01*
X182326190Y-83415238D01*
X182326190Y-83034285D01*
X182516666Y-83986666D02*
X182516666Y-84462857D01*
X182802380Y-83891428D02*
X181802380Y-84224761D01*
X182802380Y-84558095D01*
X181802380Y-84796190D02*
X181802380Y-85415238D01*
X182183333Y-85081904D01*
X182183333Y-85224761D01*
X182230952Y-85320000D01*
X182278571Y-85367619D01*
X182373809Y-85415238D01*
X182611904Y-85415238D01*
X182707142Y-85367619D01*
X182754761Y-85320000D01*
X182802380Y-85224761D01*
X182802380Y-84939047D01*
X182754761Y-84843809D01*
X182707142Y-84796190D01*
X180242380Y-107132380D02*
X180575714Y-106656190D01*
X180813809Y-107132380D02*
X180813809Y-106132380D01*
X180432857Y-106132380D01*
X180337619Y-106180000D01*
X180290000Y-106227619D01*
X180242380Y-106322857D01*
X180242380Y-106465714D01*
X180290000Y-106560952D01*
X180337619Y-106608571D01*
X180432857Y-106656190D01*
X180813809Y-106656190D01*
X179290000Y-107132380D02*
X179861428Y-107132380D01*
X179575714Y-107132380D02*
X179575714Y-106132380D01*
X179670952Y-106275238D01*
X179766190Y-106370476D01*
X179861428Y-106418095D01*
X179099523Y-107227619D02*
X178337619Y-107227619D01*
X178147142Y-106846666D02*
X177670952Y-106846666D01*
X178242380Y-107132380D02*
X177909047Y-106132380D01*
X177575714Y-107132380D01*
X177099523Y-106560952D02*
X177194761Y-106513333D01*
X177242380Y-106465714D01*
X177290000Y-106370476D01*
X177290000Y-106322857D01*
X177242380Y-106227619D01*
X177194761Y-106180000D01*
X177099523Y-106132380D01*
X176909047Y-106132380D01*
X176813809Y-106180000D01*
X176766190Y-106227619D01*
X176718571Y-106322857D01*
X176718571Y-106370476D01*
X176766190Y-106465714D01*
X176813809Y-106513333D01*
X176909047Y-106560952D01*
X177099523Y-106560952D01*
X177194761Y-106608571D01*
X177242380Y-106656190D01*
X177290000Y-106751428D01*
X177290000Y-106941904D01*
X177242380Y-107037142D01*
X177194761Y-107084761D01*
X177099523Y-107132380D01*
X176909047Y-107132380D01*
X176813809Y-107084761D01*
X176766190Y-107037142D01*
X176718571Y-106941904D01*
X176718571Y-106751428D01*
X176766190Y-106656190D01*
X176813809Y-106608571D01*
X176909047Y-106560952D01*
X180242380Y-81732380D02*
X180575714Y-81256190D01*
X180813809Y-81732380D02*
X180813809Y-80732380D01*
X180432857Y-80732380D01*
X180337619Y-80780000D01*
X180290000Y-80827619D01*
X180242380Y-80922857D01*
X180242380Y-81065714D01*
X180290000Y-81160952D01*
X180337619Y-81208571D01*
X180432857Y-81256190D01*
X180813809Y-81256190D01*
X179290000Y-81732380D02*
X179861428Y-81732380D01*
X179575714Y-81732380D02*
X179575714Y-80732380D01*
X179670952Y-80875238D01*
X179766190Y-80970476D01*
X179861428Y-81018095D01*
X179099523Y-81827619D02*
X178337619Y-81827619D01*
X178147142Y-81446666D02*
X177670952Y-81446666D01*
X178242380Y-81732380D02*
X177909047Y-80732380D01*
X177575714Y-81732380D01*
X177337619Y-80732380D02*
X176718571Y-80732380D01*
X177051904Y-81113333D01*
X176909047Y-81113333D01*
X176813809Y-81160952D01*
X176766190Y-81208571D01*
X176718571Y-81303809D01*
X176718571Y-81541904D01*
X176766190Y-81637142D01*
X176813809Y-81684761D01*
X176909047Y-81732380D01*
X177194761Y-81732380D01*
X177290000Y-81684761D01*
X177337619Y-81637142D01*
X180242380Y-86812380D02*
X180575714Y-86336190D01*
X180813809Y-86812380D02*
X180813809Y-85812380D01*
X180432857Y-85812380D01*
X180337619Y-85860000D01*
X180290000Y-85907619D01*
X180242380Y-86002857D01*
X180242380Y-86145714D01*
X180290000Y-86240952D01*
X180337619Y-86288571D01*
X180432857Y-86336190D01*
X180813809Y-86336190D01*
X179290000Y-86812380D02*
X179861428Y-86812380D01*
X179575714Y-86812380D02*
X179575714Y-85812380D01*
X179670952Y-85955238D01*
X179766190Y-86050476D01*
X179861428Y-86098095D01*
X179099523Y-86907619D02*
X178337619Y-86907619D01*
X178147142Y-86526666D02*
X177670952Y-86526666D01*
X178242380Y-86812380D02*
X177909047Y-85812380D01*
X177575714Y-86812380D01*
X176813809Y-86145714D02*
X176813809Y-86812380D01*
X177051904Y-85764761D02*
X177290000Y-86479047D01*
X176670952Y-86479047D01*
X180242380Y-96972380D02*
X180575714Y-96496190D01*
X180813809Y-96972380D02*
X180813809Y-95972380D01*
X180432857Y-95972380D01*
X180337619Y-96020000D01*
X180290000Y-96067619D01*
X180242380Y-96162857D01*
X180242380Y-96305714D01*
X180290000Y-96400952D01*
X180337619Y-96448571D01*
X180432857Y-96496190D01*
X180813809Y-96496190D01*
X179290000Y-96972380D02*
X179861428Y-96972380D01*
X179575714Y-96972380D02*
X179575714Y-95972380D01*
X179670952Y-96115238D01*
X179766190Y-96210476D01*
X179861428Y-96258095D01*
X179099523Y-97067619D02*
X178337619Y-97067619D01*
X178147142Y-96686666D02*
X177670952Y-96686666D01*
X178242380Y-96972380D02*
X177909047Y-95972380D01*
X177575714Y-96972380D01*
X176813809Y-95972380D02*
X177004285Y-95972380D01*
X177099523Y-96020000D01*
X177147142Y-96067619D01*
X177242380Y-96210476D01*
X177290000Y-96400952D01*
X177290000Y-96781904D01*
X177242380Y-96877142D01*
X177194761Y-96924761D01*
X177099523Y-96972380D01*
X176909047Y-96972380D01*
X176813809Y-96924761D01*
X176766190Y-96877142D01*
X176718571Y-96781904D01*
X176718571Y-96543809D01*
X176766190Y-96448571D01*
X176813809Y-96400952D01*
X176909047Y-96353333D01*
X177099523Y-96353333D01*
X177194761Y-96400952D01*
X177242380Y-96448571D01*
X177290000Y-96543809D01*
D11*
X157480000Y-81280000D02*
X139700000Y-81280000D01*
X139700000Y-81280000D02*
X139700000Y-99060000D01*
X139700000Y-99060000D02*
X157480000Y-99060000D01*
X157480000Y-99060000D02*
X157480000Y-81280000D01*
X178066263Y-92625000D02*
X179513737Y-92625000D01*
X178066263Y-95335000D02*
X179513737Y-95335000D01*
G36*
X170005096Y-57317392D02*
G01*
X170112648Y-57333346D01*
X170218118Y-57359765D01*
X170320490Y-57396394D01*
X170418779Y-57442882D01*
X170512039Y-57498779D01*
X170599370Y-57563549D01*
X170679933Y-57636566D01*
X170752950Y-57717129D01*
X170817720Y-57804460D01*
X170873617Y-57897719D01*
X170920105Y-57996009D01*
X170956734Y-58098381D01*
X170983153Y-58203851D01*
X170999107Y-58311403D01*
X171004442Y-58420000D01*
X170999107Y-58528597D01*
X170983153Y-58636149D01*
X170956734Y-58741619D01*
X170920105Y-58843991D01*
X170873617Y-58942281D01*
X170817720Y-59035540D01*
X170752950Y-59122871D01*
X170679933Y-59203434D01*
X170599370Y-59276451D01*
X170512039Y-59341221D01*
X170418779Y-59397118D01*
X170320490Y-59443606D01*
X170218118Y-59480235D01*
X170112648Y-59506654D01*
X170005096Y-59522608D01*
X169896499Y-59527943D01*
X162843501Y-59527943D01*
X162734904Y-59522608D01*
X162627352Y-59506654D01*
X162521882Y-59480235D01*
X162419510Y-59443606D01*
X162321220Y-59397118D01*
X162227961Y-59341221D01*
X162140630Y-59276451D01*
X162060067Y-59203434D01*
X161987050Y-59122871D01*
X161922280Y-59035540D01*
X161900641Y-58999438D01*
X163356131Y-58999438D01*
X163533931Y-58999438D01*
X164815044Y-58999438D01*
X164986494Y-58999438D01*
X164986494Y-58435875D01*
X165018244Y-58319987D01*
X165135719Y-58288237D01*
X165243669Y-58323162D01*
X165243669Y-58999438D01*
X165418294Y-58999438D01*
X165418294Y-58224737D01*
X165404052Y-58218387D01*
X166418419Y-58218387D01*
X166588281Y-58218387D01*
X166588281Y-57970737D01*
X166624794Y-57964387D01*
X166695129Y-57976602D01*
X166752676Y-58013247D01*
X166797434Y-58074322D01*
X166829405Y-58159826D01*
X166848587Y-58269761D01*
X166854981Y-58404125D01*
X166847926Y-58549161D01*
X166826759Y-58667826D01*
X166791481Y-58760122D01*
X166742092Y-58826047D01*
X166678592Y-58865602D01*
X166600981Y-58878788D01*
X166516844Y-58866484D01*
X166426356Y-58829575D01*
X166426356Y-58975625D01*
X166522003Y-59005391D01*
X166627969Y-59015313D01*
X166722103Y-59005763D01*
X166803685Y-58977113D01*
X166872717Y-58929364D01*
X166929197Y-58862516D01*
X166973126Y-58776567D01*
X167004504Y-58671520D01*
X167023331Y-58547372D01*
X167029606Y-58404125D01*
X167145494Y-58404125D01*
X167150697Y-58547882D01*
X167166308Y-58670119D01*
X167192325Y-58770838D01*
X167249673Y-58885733D01*
X167328056Y-58960544D01*
X167431244Y-59001620D01*
X167563006Y-59015313D01*
X167692784Y-59007375D01*
X167732602Y-58999438D01*
X167990044Y-58999438D01*
X168537731Y-58999438D01*
X168537731Y-58666063D01*
X168748869Y-58666063D01*
X168759099Y-58772778D01*
X168789791Y-58860090D01*
X168840944Y-58928000D01*
X168912558Y-58976507D01*
X169004633Y-59005611D01*
X169117169Y-59015313D01*
X169207480Y-59011785D01*
X169296380Y-59001201D01*
X169383869Y-58983563D01*
X169383869Y-57856437D01*
X169257662Y-57832625D01*
X169126694Y-57824687D01*
X169002107Y-57836244D01*
X168905206Y-57870915D01*
X168835991Y-57928700D01*
X168794462Y-58009599D01*
X168780619Y-58113612D01*
X168793120Y-58203306D01*
X168830625Y-58278712D01*
X168888767Y-58335069D01*
X168963181Y-58367612D01*
X168963181Y-58369200D01*
X168878845Y-58402934D01*
X168809987Y-58469213D01*
X168764148Y-58559700D01*
X168748869Y-58666063D01*
X168537731Y-58666063D01*
X168537731Y-57840562D01*
X168359931Y-57840562D01*
X168359931Y-58861325D01*
X167990044Y-58861325D01*
X167990044Y-58999438D01*
X167732602Y-58999438D01*
X167812244Y-58983563D01*
X167812244Y-57856437D01*
X167688022Y-57832625D01*
X167563006Y-57824687D01*
X167428686Y-57839063D01*
X167322059Y-57882190D01*
X167243125Y-57954069D01*
X167200411Y-58030715D01*
X167169902Y-58131273D01*
X167151596Y-58255743D01*
X167145494Y-58404125D01*
X167029606Y-58404125D01*
X167023405Y-58268319D01*
X167004802Y-58150621D01*
X166973796Y-58051030D01*
X166930387Y-57969547D01*
X166874577Y-57906171D01*
X166806364Y-57860902D01*
X166725749Y-57833741D01*
X166632731Y-57824687D01*
X166519622Y-57833419D01*
X166418419Y-57859612D01*
X166418419Y-58218387D01*
X165404052Y-58218387D01*
X165335215Y-58187696D01*
X165242610Y-58165471D01*
X165140481Y-58158062D01*
X165025564Y-58164589D01*
X164939045Y-58184168D01*
X164880925Y-58216800D01*
X164831514Y-58302922D01*
X164815044Y-58443813D01*
X164815044Y-58999438D01*
X163533931Y-58999438D01*
X163533931Y-58007250D01*
X163537106Y-58005662D01*
X163810156Y-58158062D01*
X163810156Y-58054875D01*
X164092731Y-58054875D01*
X164109598Y-58143180D01*
X164160200Y-58217594D01*
X164234614Y-58268195D01*
X164322919Y-58285062D01*
X164411223Y-58268195D01*
X164485637Y-58217594D01*
X164536239Y-58143180D01*
X164553106Y-58054875D01*
X164536239Y-57966570D01*
X164485637Y-57892156D01*
X164411223Y-57841555D01*
X164322919Y-57824687D01*
X164234614Y-57841555D01*
X164160200Y-57892156D01*
X164109598Y-57966570D01*
X164092731Y-58054875D01*
X163810156Y-58054875D01*
X163810156Y-58002487D01*
X163532344Y-57840562D01*
X163356131Y-57840562D01*
X163356131Y-58999438D01*
X161900641Y-58999438D01*
X161866383Y-58942281D01*
X161819895Y-58843991D01*
X161783266Y-58741619D01*
X161756847Y-58636149D01*
X161740893Y-58528597D01*
X161735558Y-58420000D01*
X161740893Y-58311403D01*
X161756847Y-58203851D01*
X161783266Y-58098381D01*
X161819895Y-57996009D01*
X161866383Y-57897719D01*
X161922280Y-57804460D01*
X161987050Y-57717129D01*
X162060067Y-57636566D01*
X162140630Y-57563549D01*
X162227961Y-57498779D01*
X162321220Y-57442882D01*
X162419510Y-57396394D01*
X162521882Y-57359765D01*
X162627352Y-57333346D01*
X162734904Y-57317392D01*
X162843501Y-57312057D01*
X169896499Y-57312057D01*
X170005096Y-57317392D01*
G37*
G36*
X169206069Y-58866088D02*
G01*
X169117169Y-58878788D01*
X169031245Y-58865889D01*
X168970325Y-58827194D01*
X168934011Y-58760320D01*
X168921906Y-58662888D01*
X168935003Y-58564066D01*
X168974294Y-58496200D01*
X169041762Y-58456909D01*
X169139394Y-58443813D01*
X169206069Y-58443813D01*
X169206069Y-58866088D01*
G37*
G36*
X167634444Y-57977087D02*
G01*
X167634444Y-58864500D01*
X167563006Y-58878788D01*
X167452080Y-58853388D01*
X167376475Y-58777188D01*
X167344284Y-58690581D01*
X167324969Y-58566226D01*
X167318531Y-58404125D01*
X167325058Y-58257369D01*
X167344637Y-58143069D01*
X167377269Y-58061225D01*
X167453072Y-57987406D01*
X167563006Y-57962800D01*
X167634444Y-57977087D01*
G37*
G36*
X164399119Y-57979469D02*
G01*
X164430869Y-58054875D01*
X164399119Y-58130281D01*
X164322919Y-58161237D01*
X164246719Y-58130281D01*
X164214969Y-58054875D01*
X164246719Y-57979469D01*
X164322919Y-57948512D01*
X164399119Y-57979469D01*
G37*
G36*
X169206069Y-57973912D02*
G01*
X169206069Y-58308875D01*
X169160031Y-58308875D01*
X169066369Y-58297961D01*
X169001281Y-58265219D01*
X168963181Y-58208267D01*
X168950481Y-58124725D01*
X168970060Y-58033885D01*
X169028798Y-57979381D01*
X169126694Y-57961212D01*
X169206069Y-57973912D01*
G37*
G36*
X193358073Y-88457087D02*
G01*
X193358073Y-89344500D01*
X193286636Y-89358788D01*
X193175709Y-89333388D01*
X193100105Y-89257188D01*
X193067914Y-89170581D01*
X193048599Y-89046226D01*
X193042161Y-88884125D01*
X193048687Y-88737369D01*
X193068266Y-88623069D01*
X193100898Y-88541225D01*
X193176701Y-88467406D01*
X193286636Y-88442800D01*
X193358073Y-88457087D01*
G37*
G36*
X192540511Y-89039700D02*
G01*
X192323023Y-89039700D01*
X192430973Y-88495187D01*
X192432561Y-88495187D01*
X192540511Y-89039700D01*
G37*
G36*
X190022868Y-87792057D02*
G01*
X194048503Y-87792057D01*
X194787132Y-88900000D01*
X194048503Y-90007943D01*
X190022868Y-90007943D01*
X190022868Y-89146063D01*
X190535498Y-89146063D01*
X190545420Y-89252778D01*
X190575186Y-89340090D01*
X190624795Y-89408000D01*
X190694248Y-89456507D01*
X190783545Y-89485611D01*
X190892686Y-89495313D01*
X191022067Y-89482613D01*
X191032452Y-89479438D01*
X191364173Y-89479438D01*
X191903923Y-89479438D01*
X192051561Y-89479438D01*
X192235711Y-89479438D01*
X192296036Y-89174638D01*
X192567498Y-89174638D01*
X192627823Y-89479438D01*
X192805623Y-89479438D01*
X192665358Y-88884125D01*
X192869123Y-88884125D01*
X192874327Y-89027882D01*
X192889937Y-89150119D01*
X192915955Y-89250838D01*
X192973303Y-89365733D01*
X193051686Y-89440544D01*
X193154873Y-89481620D01*
X193286636Y-89495313D01*
X193416414Y-89487375D01*
X193535873Y-89463563D01*
X193535873Y-88336437D01*
X193411651Y-88312625D01*
X193286636Y-88304687D01*
X193152316Y-88319063D01*
X193045689Y-88362190D01*
X192966755Y-88434069D01*
X192924041Y-88510715D01*
X192893531Y-88611273D01*
X192875225Y-88735743D01*
X192869123Y-88884125D01*
X192665358Y-88884125D01*
X192532573Y-88320562D01*
X192326198Y-88320562D01*
X192051561Y-89479438D01*
X191903923Y-89479438D01*
X191903923Y-89341325D01*
X191726123Y-89341325D01*
X191726123Y-88458675D01*
X191903923Y-88458675D01*
X191903923Y-88320562D01*
X191364173Y-88320562D01*
X191364173Y-88458675D01*
X191541973Y-88458675D01*
X191541973Y-89341325D01*
X191364173Y-89341325D01*
X191364173Y-89479438D01*
X191032452Y-89479438D01*
X191146686Y-89444513D01*
X191146686Y-89292113D01*
X191031195Y-89340928D01*
X190913323Y-89357200D01*
X190825812Y-89343508D01*
X190763305Y-89302431D01*
X190725800Y-89233970D01*
X190713298Y-89138125D01*
X190727586Y-89043867D01*
X190770448Y-88980169D01*
X190848236Y-88943855D01*
X190967298Y-88931750D01*
X190999048Y-88931750D01*
X190999048Y-88792050D01*
X190967298Y-88792050D01*
X190856570Y-88780144D01*
X190781561Y-88744425D01*
X190738698Y-88682909D01*
X190724411Y-88593612D01*
X190742755Y-88508946D01*
X190797789Y-88458146D01*
X190889511Y-88441212D01*
X191001430Y-88457881D01*
X191124461Y-88507887D01*
X191124461Y-88360250D01*
X191032739Y-88329382D01*
X190943839Y-88310861D01*
X190857761Y-88304687D01*
X190727189Y-88322348D01*
X190630748Y-88375331D01*
X190571217Y-88459667D01*
X190551373Y-88571387D01*
X190563280Y-88673087D01*
X190598998Y-88754347D01*
X190658530Y-88815168D01*
X190741873Y-88855550D01*
X190741873Y-88857137D01*
X190651584Y-88890078D01*
X190587092Y-88949213D01*
X190548397Y-89034541D01*
X190535498Y-89146063D01*
X190022868Y-89146063D01*
X190022868Y-87792057D01*
G37*
G36*
X194748988Y-114300000D02*
G01*
X194065393Y-115325393D01*
X190744607Y-115325393D01*
X190061012Y-114300000D01*
X191257237Y-114300000D01*
X191265770Y-114426405D01*
X191291369Y-114532569D01*
X191332048Y-114619683D01*
X191385825Y-114688938D01*
X191451905Y-114741127D01*
X191529494Y-114777044D01*
X191617005Y-114797880D01*
X191712850Y-114804825D01*
X191815244Y-114799269D01*
X191857177Y-114792125D01*
X192081150Y-114792125D01*
X192238312Y-114792125D01*
X192284085Y-114683205D01*
X192332504Y-114574461D01*
X192383569Y-114465894D01*
X192437279Y-114357326D01*
X192493635Y-114248583D01*
X192552638Y-114139662D01*
X192552638Y-114792125D01*
X192728850Y-114792125D01*
X192728850Y-113858675D01*
X192859025Y-113858675D01*
X192909825Y-114014250D01*
X192995550Y-113974562D01*
X193100325Y-113957100D01*
X193217800Y-113982500D01*
X193296381Y-114053144D01*
X193340831Y-114161094D01*
X193350952Y-114227173D01*
X193354325Y-114300000D01*
X193348151Y-114407156D01*
X193329631Y-114493675D01*
X193298763Y-114559556D01*
X193230103Y-114622064D01*
X193135250Y-114642900D01*
X193097150Y-114641313D01*
X193059050Y-114636550D01*
X193059050Y-114277775D01*
X192863788Y-114277775D01*
X192863788Y-114768313D01*
X192972531Y-114796888D01*
X193054089Y-114808794D01*
X193151125Y-114812763D01*
X193238636Y-114804627D01*
X193317019Y-114780219D01*
X193385480Y-114739738D01*
X193443225Y-114683381D01*
X193489659Y-114611150D01*
X193524188Y-114523044D01*
X193545619Y-114419261D01*
X193552763Y-114300000D01*
X193544428Y-114181930D01*
X193519425Y-114078544D01*
X193480134Y-113990239D01*
X193428938Y-113917412D01*
X193366628Y-113860461D01*
X193294000Y-113819781D01*
X193213434Y-113795373D01*
X193127313Y-113787237D01*
X193024919Y-113795969D01*
X192946338Y-113815812D01*
X192891569Y-113839625D01*
X192859025Y-113858675D01*
X192728850Y-113858675D01*
X192728850Y-113809462D01*
X192571688Y-113809462D01*
X192527238Y-113882289D01*
X192482788Y-113961069D01*
X192438933Y-114042627D01*
X192396269Y-114123787D01*
X192355787Y-114203559D01*
X192318481Y-114280950D01*
X192285342Y-114352388D01*
X192257362Y-114414300D01*
X192257362Y-113809462D01*
X192081150Y-113809462D01*
X192081150Y-114792125D01*
X191857177Y-114792125D01*
X191922400Y-114781013D01*
X191922400Y-113822162D01*
X191796987Y-113803112D01*
X191687450Y-113798350D01*
X191594780Y-113805494D01*
X191510444Y-113826925D01*
X191436427Y-113863636D01*
X191374712Y-113916619D01*
X191325302Y-113986072D01*
X191288194Y-114072194D01*
X191264977Y-114176373D01*
X191257237Y-114300000D01*
X190061012Y-114300000D01*
X190744607Y-113274607D01*
X194065393Y-113274607D01*
X194748988Y-114300000D01*
G37*
G36*
X191698562Y-113969006D02*
G01*
X191727137Y-113972975D01*
X191727137Y-114633375D01*
X191709675Y-114634963D01*
X191692212Y-114634963D01*
X191580294Y-114609563D01*
X191507269Y-114539713D01*
X191467581Y-114434144D01*
X191458652Y-114370048D01*
X191455675Y-114300000D01*
X191465200Y-114176175D01*
X191498537Y-114069812D01*
X191563625Y-113995994D01*
X191669987Y-113968212D01*
X191698562Y-113969006D01*
G37*
G36*
X161676115Y-82938893D02*
G01*
X161730619Y-82997631D01*
X161748788Y-83095527D01*
X161736088Y-83174902D01*
X161401125Y-83174902D01*
X161401125Y-83128864D01*
X161412039Y-83035202D01*
X161444781Y-82970114D01*
X161501733Y-82932014D01*
X161585275Y-82919314D01*
X161676115Y-82938893D01*
G37*
G36*
X161123312Y-82184302D02*
G01*
X161113391Y-82282925D01*
X161083625Y-82350195D01*
X161033222Y-82388891D01*
X160961387Y-82401789D01*
X160855819Y-82360514D01*
X160818512Y-82244627D01*
X160839150Y-82139852D01*
X161123312Y-82139852D01*
X161123312Y-82184302D01*
G37*
G36*
X161145934Y-82903836D02*
G01*
X161213800Y-82943127D01*
X161253091Y-83010595D01*
X161266187Y-83108227D01*
X161266187Y-83174902D01*
X160843912Y-83174902D01*
X160831212Y-83086002D01*
X160844111Y-83000078D01*
X160882806Y-82939158D01*
X160949680Y-82902844D01*
X161047112Y-82890739D01*
X161145934Y-82903836D01*
G37*
G36*
X161290000Y-79128056D02*
G01*
X162397943Y-79866684D01*
X162397943Y-84701944D01*
X160182057Y-84701944D01*
X160182057Y-83932139D01*
X160789938Y-83932139D01*
X161123312Y-83932139D01*
X161123312Y-84189314D01*
X161255075Y-84189314D01*
X161255075Y-83932139D01*
X161583688Y-83932139D01*
X161583688Y-83762277D01*
X161255075Y-83762277D01*
X161255075Y-83506689D01*
X161123312Y-83506689D01*
X161123312Y-83762277D01*
X160789938Y-83762277D01*
X160789938Y-83932139D01*
X160182057Y-83932139D01*
X160182057Y-83086002D01*
X160694687Y-83086002D01*
X160698215Y-83176313D01*
X160708799Y-83265213D01*
X160726437Y-83352702D01*
X161853563Y-83352702D01*
X161877375Y-83226495D01*
X161885313Y-83095527D01*
X161873756Y-82970940D01*
X161839085Y-82874039D01*
X161781300Y-82804824D01*
X161700401Y-82763295D01*
X161596388Y-82749452D01*
X161506694Y-82761953D01*
X161431288Y-82799458D01*
X161374931Y-82857600D01*
X161342388Y-82932014D01*
X161340800Y-82932014D01*
X161307066Y-82847678D01*
X161240787Y-82778820D01*
X161150300Y-82732981D01*
X161043937Y-82717702D01*
X160937222Y-82727932D01*
X160849910Y-82758624D01*
X160782000Y-82809777D01*
X160733493Y-82881391D01*
X160704389Y-82973466D01*
X160694687Y-83086002D01*
X160182057Y-83086002D01*
X160182057Y-82244627D01*
X160694687Y-82244627D01*
X160702449Y-82340494D01*
X160725732Y-82420663D01*
X160764537Y-82485133D01*
X160848675Y-82548831D01*
X160961387Y-82570064D01*
X161081839Y-82546053D01*
X161170144Y-82474020D01*
X161210272Y-82399143D01*
X161234349Y-82302570D01*
X161242375Y-82184302D01*
X161242375Y-82139852D01*
X161269362Y-82139852D01*
X161392394Y-82164458D01*
X161421763Y-82273202D01*
X161415413Y-82352577D01*
X161396363Y-82438302D01*
X161364613Y-82530377D01*
X161501138Y-82530377D01*
X161529360Y-82437949D01*
X161546293Y-82349049D01*
X161551938Y-82263677D01*
X161536063Y-82117428D01*
X161488438Y-82027933D01*
X161432346Y-81993978D01*
X161348738Y-81973605D01*
X161237612Y-81966814D01*
X160745487Y-81966814D01*
X160717265Y-82055538D01*
X160700332Y-82148142D01*
X160694687Y-82244627D01*
X160182057Y-82244627D01*
X160182057Y-81355627D01*
X160694687Y-81355627D01*
X160708181Y-81478063D01*
X160748662Y-81556445D01*
X160825656Y-81598713D01*
X160948687Y-81612802D01*
X161375725Y-81612802D01*
X161375725Y-81776314D01*
X161504313Y-81776314D01*
X161504313Y-81612802D01*
X161805938Y-81612802D01*
X161805938Y-81439764D01*
X161504313Y-81439764D01*
X161504313Y-81173064D01*
X161375725Y-81173064D01*
X161375725Y-81439764D01*
X160980437Y-81439764D01*
X160860581Y-81419127D01*
X160834387Y-81323877D01*
X160840341Y-81256805D01*
X160858200Y-81188939D01*
X160713737Y-81188939D01*
X160699450Y-81267917D01*
X160694687Y-81355627D01*
X160182057Y-81355627D01*
X160182057Y-80561877D01*
X160694687Y-80561877D01*
X160708181Y-80684313D01*
X160748662Y-80762695D01*
X160825656Y-80804963D01*
X160948687Y-80819052D01*
X161375725Y-80819052D01*
X161375725Y-80982564D01*
X161504313Y-80982564D01*
X161504313Y-80819052D01*
X161805938Y-80819052D01*
X161805938Y-80646014D01*
X161504313Y-80646014D01*
X161504313Y-80379314D01*
X161375725Y-80379314D01*
X161375725Y-80646014D01*
X160980437Y-80646014D01*
X160860581Y-80625377D01*
X160834387Y-80530127D01*
X160840341Y-80463055D01*
X160858200Y-80395189D01*
X160713737Y-80395189D01*
X160699450Y-80474167D01*
X160694687Y-80561877D01*
X160182057Y-80561877D01*
X160182057Y-79866684D01*
X161290000Y-79128056D01*
G37*
X183850000Y-106190000D02*
X184450000Y-106190000D01*
X185150000Y-105540000D02*
X185150000Y-102740000D01*
X185650000Y-102640000D02*
X185650000Y-103240000D01*
X183150000Y-102740000D02*
X183150000Y-105540000D01*
X185350000Y-102940000D02*
X185650000Y-102640000D01*
X185350000Y-102940000D02*
X185650000Y-103240000D01*
X184450000Y-102090000D02*
X183850000Y-102090000D01*
X185150000Y-102790000D02*
G75*
G03*
X184450000Y-102090000I-699999J1D01*
G01*
X183850000Y-102090000D02*
G75*
G03*
X183150000Y-102790000I-1J-699999D01*
G01*
X183150000Y-105490000D02*
G75*
G03*
X183850000Y-106190000I700000J0D01*
G01*
X184450000Y-106190000D02*
G75*
G03*
X185150000Y-105490000I0J700000D01*
G01*
G36*
X192474630Y-78879700D02*
G01*
X192257142Y-78879700D01*
X192365092Y-78335187D01*
X192366680Y-78335187D01*
X192474630Y-78879700D01*
G37*
G36*
X193292192Y-78297087D02*
G01*
X193292192Y-79184500D01*
X193220755Y-79198788D01*
X193109828Y-79173388D01*
X193034223Y-79097188D01*
X193002032Y-79010581D01*
X192982718Y-78886226D01*
X192976280Y-78724125D01*
X192982806Y-78577369D01*
X193002385Y-78463069D01*
X193035017Y-78381225D01*
X193110820Y-78307406D01*
X193220755Y-78282800D01*
X193292192Y-78297087D01*
G37*
G36*
X190088749Y-77632057D02*
G01*
X193982622Y-77632057D01*
X194721251Y-78740000D01*
X193982622Y-79847943D01*
X190088749Y-79847943D01*
X190088749Y-79319438D01*
X190601380Y-79319438D01*
X190779180Y-79319438D01*
X191298292Y-79319438D01*
X191838042Y-79319438D01*
X191985680Y-79319438D01*
X192169830Y-79319438D01*
X192230155Y-79014638D01*
X192501617Y-79014638D01*
X192561942Y-79319438D01*
X192739742Y-79319438D01*
X192599477Y-78724125D01*
X192803242Y-78724125D01*
X192808445Y-78867882D01*
X192824056Y-78990119D01*
X192850073Y-79090838D01*
X192907422Y-79205733D01*
X192985805Y-79280544D01*
X193088992Y-79321620D01*
X193220755Y-79335313D01*
X193350533Y-79327375D01*
X193469992Y-79303563D01*
X193469992Y-78176437D01*
X193345770Y-78152625D01*
X193220755Y-78144687D01*
X193086434Y-78159063D01*
X192979807Y-78202190D01*
X192900873Y-78274069D01*
X192858160Y-78350715D01*
X192827650Y-78451273D01*
X192809344Y-78575743D01*
X192803242Y-78724125D01*
X192599477Y-78724125D01*
X192466692Y-78160562D01*
X192260317Y-78160562D01*
X191985680Y-79319438D01*
X191838042Y-79319438D01*
X191838042Y-79181325D01*
X191660242Y-79181325D01*
X191660242Y-78298675D01*
X191838042Y-78298675D01*
X191838042Y-78160562D01*
X191298292Y-78160562D01*
X191298292Y-78298675D01*
X191476092Y-78298675D01*
X191476092Y-79181325D01*
X191298292Y-79181325D01*
X191298292Y-79319438D01*
X190779180Y-79319438D01*
X190779180Y-78327250D01*
X190782355Y-78325662D01*
X191055405Y-78478062D01*
X191055405Y-78322487D01*
X190777592Y-78160562D01*
X190601380Y-78160562D01*
X190601380Y-79319438D01*
X190088749Y-79319438D01*
X190088749Y-77632057D01*
G37*
G36*
X192562736Y-94119700D02*
G01*
X192345248Y-94119700D01*
X192453198Y-93575187D01*
X192454786Y-93575187D01*
X192562736Y-94119700D01*
G37*
G36*
X193380298Y-93537087D02*
G01*
X193380298Y-94424500D01*
X193308861Y-94438788D01*
X193197934Y-94413388D01*
X193122330Y-94337188D01*
X193090139Y-94250581D01*
X193070824Y-94126226D01*
X193064386Y-93964125D01*
X193070912Y-93817369D01*
X193090491Y-93703069D01*
X193123123Y-93621225D01*
X193198926Y-93547406D01*
X193308861Y-93522800D01*
X193380298Y-93537087D01*
G37*
G36*
X191072073Y-94160975D02*
G01*
X191072073Y-94165738D01*
X190818073Y-94165738D01*
X190818073Y-93646625D01*
X190821248Y-93646625D01*
X191072073Y-94160975D01*
G37*
G36*
X190000643Y-92872057D02*
G01*
X194070728Y-92872057D01*
X194809357Y-93980000D01*
X194070728Y-95087943D01*
X190000643Y-95087943D01*
X190000643Y-94302263D01*
X190513273Y-94302263D01*
X190643448Y-94302263D01*
X190643448Y-94559438D01*
X190818073Y-94559438D01*
X191386398Y-94559438D01*
X191926148Y-94559438D01*
X192073786Y-94559438D01*
X192257936Y-94559438D01*
X192318261Y-94254638D01*
X192589723Y-94254638D01*
X192650048Y-94559438D01*
X192827848Y-94559438D01*
X192687583Y-93964125D01*
X192891348Y-93964125D01*
X192896552Y-94107882D01*
X192912162Y-94230119D01*
X192938180Y-94330838D01*
X192995528Y-94445733D01*
X193073911Y-94520544D01*
X193177098Y-94561620D01*
X193308861Y-94575313D01*
X193438639Y-94567375D01*
X193558098Y-94543563D01*
X193558098Y-93416437D01*
X193433876Y-93392625D01*
X193308861Y-93384687D01*
X193174541Y-93399063D01*
X193067914Y-93442190D01*
X192988980Y-93514069D01*
X192946266Y-93590715D01*
X192915756Y-93691273D01*
X192897450Y-93815743D01*
X192891348Y-93964125D01*
X192687583Y-93964125D01*
X192554798Y-93400562D01*
X192348423Y-93400562D01*
X192073786Y-94559438D01*
X191926148Y-94559438D01*
X191926148Y-94421325D01*
X191748348Y-94421325D01*
X191748348Y-93538675D01*
X191926148Y-93538675D01*
X191926148Y-93400562D01*
X191386398Y-93400562D01*
X191386398Y-93538675D01*
X191564198Y-93538675D01*
X191564198Y-94421325D01*
X191386398Y-94421325D01*
X191386398Y-94559438D01*
X190818073Y-94559438D01*
X190818073Y-94302263D01*
X191211773Y-94302263D01*
X191211773Y-94165738D01*
X190835536Y-93400562D01*
X190643448Y-93400562D01*
X190643448Y-94165738D01*
X190513273Y-94165738D01*
X190513273Y-94302263D01*
X190000643Y-94302263D01*
X190000643Y-92872057D01*
G37*
X107380000Y-83185000D02*
G75*
G03*
X107380000Y-83185000I-700000J0D01*
G01*
X178066263Y-102785000D02*
X179513737Y-102785000D01*
X178066263Y-105495000D02*
X179513737Y-105495000D01*
X185350000Y-77540000D02*
X185650000Y-77840000D01*
X183150000Y-77340000D02*
X183150000Y-80140000D01*
X185150000Y-80140000D02*
X185150000Y-77340000D01*
X185350000Y-77540000D02*
X185650000Y-77240000D01*
X184450000Y-76690000D02*
X183850000Y-76690000D01*
X183850000Y-80790000D02*
X184450000Y-80790000D01*
X185650000Y-77240000D02*
X185650000Y-77840000D01*
X184450000Y-80790000D02*
G75*
G03*
X185150000Y-80090000I0J700000D01*
G01*
X183850000Y-76690000D02*
G75*
G03*
X183150000Y-77390000I-1J-699999D01*
G01*
X185150000Y-77390000D02*
G75*
G03*
X184450000Y-76690000I-699999J1D01*
G01*
X183150000Y-80090000D02*
G75*
G03*
X183850000Y-80790000I700000J0D01*
G01*
X184450000Y-91930000D02*
X183850000Y-91930000D01*
X183850000Y-96030000D02*
X184450000Y-96030000D01*
X185150000Y-95380000D02*
X185150000Y-92580000D01*
X183150000Y-92580000D02*
X183150000Y-95380000D01*
X185350000Y-92780000D02*
X185650000Y-92480000D01*
X185650000Y-92480000D02*
X185650000Y-93080000D01*
X185350000Y-92780000D02*
X185650000Y-93080000D01*
X183150000Y-95330000D02*
G75*
G03*
X183850000Y-96030000I700000J0D01*
G01*
X185150000Y-92630000D02*
G75*
G03*
X184450000Y-91930000I-699999J1D01*
G01*
X183850000Y-91930000D02*
G75*
G03*
X183150000Y-92630000I-1J-699999D01*
G01*
X184450000Y-96030000D02*
G75*
G03*
X185150000Y-95330000I0J700000D01*
G01*
X178066263Y-80095000D02*
X179513737Y-80095000D01*
X178066263Y-77385000D02*
X179513737Y-77385000D01*
G36*
X190014931Y-103032057D02*
G01*
X194056441Y-103032057D01*
X194795069Y-104140000D01*
X194056441Y-105247943D01*
X190014931Y-105247943D01*
X190014931Y-104325738D01*
X190527561Y-104325738D01*
X190536116Y-104458823D01*
X190561780Y-104563863D01*
X190604555Y-104640856D01*
X190665144Y-104693332D01*
X190744255Y-104724817D01*
X190841886Y-104735313D01*
X190941700Y-104724200D01*
X190952726Y-104719438D01*
X191372111Y-104719438D01*
X191911861Y-104719438D01*
X192059498Y-104719438D01*
X192243648Y-104719438D01*
X192303973Y-104414638D01*
X192575436Y-104414638D01*
X192635761Y-104719438D01*
X192813561Y-104719438D01*
X192673296Y-104124125D01*
X192877061Y-104124125D01*
X192882264Y-104267882D01*
X192897875Y-104390119D01*
X192923892Y-104490838D01*
X192981240Y-104605733D01*
X193059623Y-104680544D01*
X193162811Y-104721620D01*
X193294573Y-104735313D01*
X193424351Y-104727375D01*
X193543811Y-104703563D01*
X193543811Y-103576437D01*
X193419589Y-103552625D01*
X193294573Y-103544687D01*
X193160253Y-103559063D01*
X193053626Y-103602190D01*
X192974692Y-103674069D01*
X192931978Y-103750715D01*
X192901469Y-103851273D01*
X192883163Y-103975743D01*
X192877061Y-104124125D01*
X192673296Y-104124125D01*
X192540511Y-103560562D01*
X192334136Y-103560562D01*
X192059498Y-104719438D01*
X191911861Y-104719438D01*
X191911861Y-104581325D01*
X191734061Y-104581325D01*
X191734061Y-103698675D01*
X191911861Y-103698675D01*
X191911861Y-103560562D01*
X191372111Y-103560562D01*
X191372111Y-103698675D01*
X191549911Y-103698675D01*
X191549911Y-104581325D01*
X191372111Y-104581325D01*
X191372111Y-104719438D01*
X190952726Y-104719438D01*
X191018892Y-104690863D01*
X191077034Y-104628553D01*
X191119698Y-104530525D01*
X191139101Y-104443565D01*
X191150743Y-104337203D01*
X191154623Y-104211438D01*
X191152143Y-104091085D01*
X191144701Y-103984028D01*
X191132299Y-103890266D01*
X191114936Y-103809800D01*
X191066120Y-103684387D01*
X190999048Y-103603425D01*
X190910545Y-103559372D01*
X190797436Y-103544687D01*
X190696233Y-103552625D01*
X190598998Y-103576437D01*
X190598998Y-103727250D01*
X190686708Y-103693912D01*
X190778386Y-103682800D01*
X190865500Y-103699866D01*
X190923642Y-103751062D01*
X190948777Y-103810506D01*
X190965975Y-103897818D01*
X190975236Y-104013000D01*
X190972061Y-104013000D01*
X190890305Y-103961803D01*
X190800611Y-103944737D01*
X190677183Y-103966566D01*
X190592648Y-104032050D01*
X190556489Y-104103487D01*
X190534793Y-104201383D01*
X190527561Y-104325738D01*
X190014931Y-104325738D01*
X190014931Y-103032057D01*
G37*
G36*
X192548448Y-104279700D02*
G01*
X192330961Y-104279700D01*
X192438911Y-103735187D01*
X192440498Y-103735187D01*
X192548448Y-104279700D01*
G37*
G36*
X190896059Y-104094955D02*
G01*
X190941105Y-104136031D01*
X190967894Y-104209255D01*
X190976823Y-104319388D01*
X190968687Y-104452539D01*
X190944280Y-104537669D01*
X190902409Y-104583508D01*
X190841886Y-104598788D01*
X190777790Y-104584698D01*
X190734730Y-104542431D01*
X190710322Y-104460080D01*
X190702186Y-104325738D01*
X190709528Y-104205881D01*
X190731555Y-104132062D01*
X190832361Y-104081262D01*
X190896059Y-104094955D01*
G37*
G36*
X193366011Y-103697087D02*
G01*
X193366011Y-104584500D01*
X193294573Y-104598788D01*
X193183647Y-104573388D01*
X193108042Y-104497188D01*
X193075851Y-104410581D01*
X193056536Y-104286226D01*
X193050098Y-104124125D01*
X193056625Y-103977369D01*
X193076204Y-103863069D01*
X193108836Y-103781225D01*
X193184639Y-103707406D01*
X193294573Y-103682800D01*
X193366011Y-103697087D01*
G37*
X110575000Y-60413737D02*
X110575000Y-58966263D01*
X107865000Y-60413737D02*
X107865000Y-58966263D01*
X185150000Y-100460000D02*
X185150000Y-97660000D01*
X185350000Y-97860000D02*
X185650000Y-98160000D01*
X183150000Y-97660000D02*
X183150000Y-100460000D01*
X185350000Y-97860000D02*
X185650000Y-97560000D01*
X185650000Y-97560000D02*
X185650000Y-98160000D01*
X183850000Y-101110000D02*
X184450000Y-101110000D01*
X184450000Y-97010000D02*
X183850000Y-97010000D01*
X185150000Y-97710000D02*
G75*
G03*
X184450000Y-97010000I-699999J1D01*
G01*
X183150000Y-100410000D02*
G75*
G03*
X183850000Y-101110000I700000J0D01*
G01*
X184450000Y-101110000D02*
G75*
G03*
X185150000Y-100410000I0J700000D01*
G01*
X183850000Y-97010000D02*
G75*
G03*
X183150000Y-97710000I-1J-699999D01*
G01*
G36*
X111676877Y-83019900D02*
G01*
X111722914Y-83054825D01*
X111751489Y-83105625D01*
X111764983Y-83164362D01*
X111466533Y-83164362D01*
X111474470Y-83106419D01*
X111499870Y-83056412D01*
X111544320Y-83020694D01*
X111610995Y-83007200D01*
X111676877Y-83019900D01*
G37*
G36*
X114084320Y-82785744D02*
G01*
X114116070Y-82789712D01*
X114116070Y-83084987D01*
X114073208Y-83084987D01*
X113987086Y-83075264D01*
X113928745Y-83046094D01*
X113884295Y-82935762D01*
X113896202Y-82868294D01*
X113931920Y-82821462D01*
X113987086Y-82794078D01*
X114057333Y-82784950D01*
X114084320Y-82785744D01*
G37*
G36*
X115628826Y-84383430D02*
G01*
X109960128Y-84383430D01*
X109427874Y-83585050D01*
X110472758Y-83585050D01*
X110589439Y-83616800D01*
X110710883Y-83626325D01*
X110831533Y-83615213D01*
X110920433Y-83572350D01*
X110975995Y-83482656D01*
X110990283Y-83415783D01*
X110995045Y-83331050D01*
X110995045Y-83226275D01*
X111277620Y-83226275D01*
X111278414Y-83265963D01*
X111280795Y-83299300D01*
X111764983Y-83299300D01*
X111749902Y-83364586D01*
X111704658Y-83414394D01*
X111635602Y-83445945D01*
X111549083Y-83456463D01*
X111437164Y-83443763D01*
X111347470Y-83418363D01*
X111320483Y-83585050D01*
X111428433Y-83614419D01*
X111557020Y-83626325D01*
X111647310Y-83620173D01*
X111727677Y-83601719D01*
X111797527Y-83571159D01*
X111856264Y-83528694D01*
X111903294Y-83474520D01*
X111938020Y-83408838D01*
X111939779Y-83402488D01*
X112107883Y-83402488D01*
X112125345Y-83489800D01*
X112183289Y-83561238D01*
X112288858Y-83608863D01*
X112361486Y-83621959D01*
X112449195Y-83626325D01*
X112538889Y-83620769D01*
X112614295Y-83604100D01*
X112723833Y-83564413D01*
X112693670Y-83400900D01*
X112575402Y-83442175D01*
X112447608Y-83461225D01*
X112338070Y-83450906D01*
X112299970Y-83408838D01*
X112311877Y-83373913D01*
X112345214Y-83349306D01*
X112394427Y-83329463D01*
X112452370Y-83310413D01*
X112539683Y-83281044D01*
X112620645Y-83238975D01*
X112632561Y-83226275D01*
X112865120Y-83226275D01*
X112865914Y-83265963D01*
X112868295Y-83299300D01*
X113352483Y-83299300D01*
X113337402Y-83364586D01*
X113292158Y-83414394D01*
X113223102Y-83445945D01*
X113136583Y-83456463D01*
X113024664Y-83443763D01*
X112934970Y-83418363D01*
X112907983Y-83585050D01*
X113015933Y-83614419D01*
X113144520Y-83626325D01*
X113234810Y-83620173D01*
X113284065Y-83608863D01*
X113620770Y-83608863D01*
X113825558Y-83608863D01*
X113865047Y-83515398D01*
X113910489Y-83425506D01*
X113960694Y-83336805D01*
X114014470Y-83246913D01*
X114116070Y-83246913D01*
X114116070Y-83608863D01*
X114311333Y-83608863D01*
X114311333Y-82640487D01*
X114248627Y-82628581D01*
X114179570Y-82620644D01*
X114112895Y-82616675D01*
X114057333Y-82615087D01*
X113977164Y-82619850D01*
X113904933Y-82634137D01*
X113841433Y-82658347D01*
X113787458Y-82692875D01*
X113712052Y-82793681D01*
X113692406Y-82860158D01*
X113685858Y-82937350D01*
X113694589Y-83019106D01*
X113720783Y-83092925D01*
X113767217Y-83154441D01*
X113836670Y-83199288D01*
X113779520Y-83290569D01*
X113720783Y-83395344D01*
X113666014Y-83504881D01*
X113620770Y-83608863D01*
X113284065Y-83608863D01*
X113315177Y-83601719D01*
X113385027Y-83571159D01*
X113443764Y-83528694D01*
X113490794Y-83474520D01*
X113525520Y-83408838D01*
X113546952Y-83331447D01*
X113554095Y-83242150D01*
X113546555Y-83149678D01*
X113523933Y-83069112D01*
X113489008Y-83000652D01*
X113444558Y-82944494D01*
X113391774Y-82900639D01*
X113331845Y-82869087D01*
X113267552Y-82850037D01*
X113201670Y-82843687D01*
X113100423Y-82854535D01*
X113016815Y-82887079D01*
X112950845Y-82941319D01*
X112903220Y-83016372D01*
X112874645Y-83111358D01*
X112865120Y-83226275D01*
X112632561Y-83226275D01*
X112680970Y-83174681D01*
X112704783Y-83077050D01*
X112686527Y-82987356D01*
X112629377Y-82912744D01*
X112530158Y-82861944D01*
X112463880Y-82848252D01*
X112385695Y-82843687D01*
X112315250Y-82846466D01*
X112249964Y-82854800D01*
X112141220Y-82886550D01*
X112171383Y-83051650D01*
X112255520Y-83025456D01*
X112384108Y-83007200D01*
X112484914Y-83025456D01*
X112511108Y-83064350D01*
X112499202Y-83095306D01*
X112467452Y-83119912D01*
X112421414Y-83141344D01*
X112365058Y-83161187D01*
X112276158Y-83192938D01*
X112192814Y-83236594D01*
X112131695Y-83303269D01*
X112107883Y-83402488D01*
X111939779Y-83402488D01*
X111959452Y-83331447D01*
X111966595Y-83242150D01*
X111959055Y-83149678D01*
X111936433Y-83069112D01*
X111901508Y-83000652D01*
X111857058Y-82944494D01*
X111804274Y-82900639D01*
X111744345Y-82869087D01*
X111680052Y-82850037D01*
X111614170Y-82843687D01*
X111512923Y-82854535D01*
X111429315Y-82887079D01*
X111363345Y-82941319D01*
X111315720Y-83016372D01*
X111287145Y-83111358D01*
X111277620Y-83226275D01*
X110995045Y-83226275D01*
X110995045Y-83024662D01*
X111164908Y-83024662D01*
X111164908Y-82862737D01*
X110995045Y-82862737D01*
X110995045Y-82675412D01*
X110799783Y-82643662D01*
X110799783Y-82862737D01*
X110487045Y-82862737D01*
X110487045Y-83024662D01*
X110799783Y-83024662D01*
X110799783Y-83326288D01*
X110791845Y-83392963D01*
X110769620Y-83432650D01*
X110734695Y-83451700D01*
X110688658Y-83456463D01*
X110638652Y-83454875D01*
X110594202Y-83449319D01*
X110549752Y-83437412D01*
X110499745Y-83416775D01*
X110472758Y-83585050D01*
X109427874Y-83585050D01*
X109161174Y-83185000D01*
X109618374Y-82499200D01*
X114471670Y-82499200D01*
X114912995Y-83870800D01*
X115116195Y-83870800D01*
X114671695Y-82499200D01*
X114471670Y-82499200D01*
X109618374Y-82499200D01*
X109960128Y-81986570D01*
X115628826Y-81986570D01*
X115628826Y-84383430D01*
G37*
G36*
X113264377Y-83019900D02*
G01*
X113310414Y-83054825D01*
X113338989Y-83105625D01*
X113352483Y-83164362D01*
X113054033Y-83164362D01*
X113061970Y-83106419D01*
X113087370Y-83056412D01*
X113131820Y-83020694D01*
X113198495Y-83007200D01*
X113264377Y-83019900D01*
G37*
X178066263Y-72305000D02*
X179513737Y-72305000D01*
X178066263Y-75015000D02*
X179513737Y-75015000D01*
X185350000Y-108020000D02*
X185650000Y-107720000D01*
X184450000Y-107170000D02*
X183850000Y-107170000D01*
X185150000Y-110620000D02*
X185150000Y-107820000D01*
X183150000Y-107820000D02*
X183150000Y-110620000D01*
X185650000Y-107720000D02*
X185650000Y-108320000D01*
X185350000Y-108020000D02*
X185650000Y-108320000D01*
X183850000Y-111270000D02*
X184450000Y-111270000D01*
X184450000Y-111270000D02*
G75*
G03*
X185150000Y-110570000I0J700000D01*
G01*
X183850000Y-107170000D02*
G75*
G03*
X183150000Y-107870000I-1J-699999D01*
G01*
X183150000Y-110570000D02*
G75*
G03*
X183850000Y-111270000I700000J0D01*
G01*
X185150000Y-107870000D02*
G75*
G03*
X184450000Y-107170000I-699999J1D01*
G01*
G36*
X131435475Y-57979469D02*
G01*
X131467225Y-58054875D01*
X131435475Y-58130281D01*
X131359275Y-58161237D01*
X131283075Y-58130281D01*
X131251325Y-58054875D01*
X131283075Y-57979469D01*
X131359275Y-57948512D01*
X131435475Y-57979469D01*
G37*
G36*
X136242425Y-57973912D02*
G01*
X136242425Y-58308875D01*
X136196387Y-58308875D01*
X136102725Y-58297961D01*
X136037637Y-58265219D01*
X135999537Y-58208267D01*
X135986837Y-58124725D01*
X136006417Y-58033885D01*
X136065154Y-57979381D01*
X136163050Y-57961212D01*
X136242425Y-57973912D01*
G37*
G36*
X134670800Y-57977087D02*
G01*
X134670800Y-58864500D01*
X134599362Y-58878788D01*
X134488436Y-58853388D01*
X134412831Y-58777188D01*
X134380640Y-58690581D01*
X134361326Y-58566226D01*
X134354887Y-58404125D01*
X134361414Y-58257369D01*
X134380993Y-58143069D01*
X134413625Y-58061225D01*
X134489428Y-57987406D01*
X134599362Y-57962800D01*
X134670800Y-57977087D01*
G37*
G36*
X136242425Y-58866088D02*
G01*
X136153525Y-58878788D01*
X136067602Y-58865889D01*
X136006681Y-58827194D01*
X135970367Y-58760320D01*
X135958262Y-58662888D01*
X135971359Y-58564066D01*
X136010650Y-58496200D01*
X136078119Y-58456909D01*
X136175750Y-58443813D01*
X136242425Y-58443813D01*
X136242425Y-58866088D01*
G37*
G36*
X137041453Y-57317392D02*
G01*
X137149004Y-57333346D01*
X137254474Y-57359765D01*
X137356846Y-57396394D01*
X137455136Y-57442882D01*
X137548395Y-57498779D01*
X137635727Y-57563549D01*
X137716289Y-57636566D01*
X137789306Y-57717129D01*
X137854076Y-57804460D01*
X137909973Y-57897719D01*
X137956461Y-57996009D01*
X137993090Y-58098381D01*
X138019509Y-58203851D01*
X138035463Y-58311403D01*
X138040798Y-58420000D01*
X138035463Y-58528597D01*
X138019509Y-58636149D01*
X137993090Y-58741619D01*
X137956461Y-58843991D01*
X137909973Y-58942281D01*
X137854076Y-59035540D01*
X137789306Y-59122871D01*
X137716289Y-59203434D01*
X137635727Y-59276451D01*
X137548395Y-59341221D01*
X137455136Y-59397118D01*
X137356846Y-59443606D01*
X137254474Y-59480235D01*
X137149004Y-59506654D01*
X137041453Y-59522608D01*
X136932855Y-59527943D01*
X129767145Y-59527943D01*
X129658547Y-59522608D01*
X129550996Y-59506654D01*
X129445526Y-59480235D01*
X129343153Y-59443606D01*
X129244864Y-59397118D01*
X129151605Y-59341221D01*
X129064273Y-59276451D01*
X128983711Y-59203434D01*
X128910694Y-59122871D01*
X128845924Y-59035540D01*
X128824285Y-58999438D01*
X130279775Y-58999438D01*
X130851275Y-58999438D01*
X131851400Y-58999438D01*
X132022850Y-58999438D01*
X132022850Y-58435875D01*
X132054600Y-58319987D01*
X132172075Y-58288237D01*
X132280025Y-58323162D01*
X132280025Y-58999438D01*
X132454650Y-58999438D01*
X132454650Y-58224737D01*
X132440408Y-58218387D01*
X133454775Y-58218387D01*
X133624637Y-58218387D01*
X133624637Y-57970737D01*
X133661150Y-57964387D01*
X133731485Y-57976602D01*
X133789032Y-58013247D01*
X133833791Y-58074322D01*
X133865761Y-58159826D01*
X133884943Y-58269761D01*
X133891337Y-58404125D01*
X133884282Y-58549161D01*
X133863115Y-58667826D01*
X133827837Y-58760122D01*
X133778449Y-58826047D01*
X133714949Y-58865602D01*
X133637337Y-58878788D01*
X133553200Y-58866484D01*
X133462712Y-58829575D01*
X133462712Y-58975625D01*
X133558359Y-59005391D01*
X133664325Y-59015313D01*
X133758459Y-59005763D01*
X133840041Y-58977113D01*
X133909073Y-58929364D01*
X133965553Y-58862516D01*
X134009482Y-58776567D01*
X134040860Y-58671520D01*
X134059687Y-58547372D01*
X134065962Y-58404125D01*
X134181850Y-58404125D01*
X134187053Y-58547882D01*
X134202664Y-58670119D01*
X134228681Y-58770838D01*
X134286030Y-58885733D01*
X134364412Y-58960544D01*
X134467600Y-59001620D01*
X134599362Y-59015313D01*
X134729141Y-59007375D01*
X134768959Y-58999438D01*
X135026400Y-58999438D01*
X135574087Y-58999438D01*
X135574087Y-58666063D01*
X135785225Y-58666063D01*
X135795456Y-58772778D01*
X135826147Y-58860090D01*
X135877300Y-58928000D01*
X135948914Y-58976507D01*
X136040989Y-59005611D01*
X136153525Y-59015313D01*
X136243836Y-59011785D01*
X136332736Y-59001201D01*
X136420225Y-58983563D01*
X136420225Y-57856437D01*
X136294019Y-57832625D01*
X136163050Y-57824687D01*
X136038463Y-57836244D01*
X135941562Y-57870915D01*
X135872347Y-57928700D01*
X135830818Y-58009599D01*
X135816975Y-58113612D01*
X135829477Y-58203306D01*
X135866981Y-58278712D01*
X135925123Y-58335069D01*
X135999537Y-58367612D01*
X135999537Y-58369200D01*
X135915202Y-58402934D01*
X135846344Y-58469213D01*
X135800505Y-58559700D01*
X135785225Y-58666063D01*
X135574087Y-58666063D01*
X135574087Y-57840562D01*
X135396287Y-57840562D01*
X135396287Y-58861325D01*
X135026400Y-58861325D01*
X135026400Y-58999438D01*
X134768959Y-58999438D01*
X134848600Y-58983563D01*
X134848600Y-57856437D01*
X134724378Y-57832625D01*
X134599362Y-57824687D01*
X134465042Y-57839063D01*
X134358415Y-57882190D01*
X134279481Y-57954069D01*
X134236768Y-58030715D01*
X134206258Y-58131273D01*
X134187952Y-58255743D01*
X134181850Y-58404125D01*
X134065962Y-58404125D01*
X134059761Y-58268319D01*
X134041158Y-58150621D01*
X134010152Y-58051030D01*
X133966744Y-57969547D01*
X133910933Y-57906171D01*
X133842720Y-57860902D01*
X133762105Y-57833741D01*
X133669087Y-57824687D01*
X133555978Y-57833419D01*
X133454775Y-57859612D01*
X133454775Y-58218387D01*
X132440408Y-58218387D01*
X132371571Y-58187696D01*
X132278967Y-58165471D01*
X132176837Y-58158062D01*
X132061920Y-58164589D01*
X131975401Y-58184168D01*
X131917281Y-58216800D01*
X131867870Y-58302922D01*
X131851400Y-58443813D01*
X131851400Y-58999438D01*
X130851275Y-58999438D01*
X130851275Y-58861325D01*
X130749351Y-58742846D01*
X130663108Y-58629615D01*
X130592545Y-58521632D01*
X130537663Y-58418898D01*
X130498461Y-58321413D01*
X130474940Y-58229176D01*
X130467100Y-58142187D01*
X130475633Y-58061225D01*
X130501231Y-58005662D01*
X130605212Y-57962800D01*
X130679825Y-57973207D01*
X130761846Y-58004428D01*
X130851275Y-58056462D01*
X130851275Y-58054875D01*
X131129087Y-58054875D01*
X131145955Y-58143180D01*
X131196556Y-58217594D01*
X131270970Y-58268195D01*
X131359275Y-58285062D01*
X131447580Y-58268195D01*
X131521994Y-58217594D01*
X131572595Y-58143180D01*
X131589462Y-58054875D01*
X131572595Y-57966570D01*
X131521994Y-57892156D01*
X131447580Y-57841555D01*
X131359275Y-57824687D01*
X131270970Y-57841555D01*
X131196556Y-57892156D01*
X131145955Y-57966570D01*
X131129087Y-58054875D01*
X130851275Y-58054875D01*
X130851275Y-57907237D01*
X130763433Y-57861376D01*
X130669242Y-57833860D01*
X130568700Y-57824687D01*
X130448248Y-57844333D01*
X130359944Y-57903269D01*
X130305770Y-58000305D01*
X130287712Y-58134250D01*
X130297678Y-58234792D01*
X130327576Y-58341683D01*
X130377406Y-58454925D01*
X130429149Y-58545611D01*
X130494683Y-58643044D01*
X130574008Y-58747223D01*
X130667125Y-58858150D01*
X130667125Y-58861325D01*
X130279775Y-58861325D01*
X130279775Y-58999438D01*
X128824285Y-58999438D01*
X128790027Y-58942281D01*
X128743539Y-58843991D01*
X128706910Y-58741619D01*
X128680491Y-58636149D01*
X128664537Y-58528597D01*
X128659202Y-58420000D01*
X128664537Y-58311403D01*
X128680491Y-58203851D01*
X128706910Y-58098381D01*
X128743539Y-57996009D01*
X128790027Y-57897719D01*
X128845924Y-57804460D01*
X128910694Y-57717129D01*
X128983711Y-57636566D01*
X129064273Y-57563549D01*
X129151605Y-57498779D01*
X129244864Y-57442882D01*
X129343153Y-57396394D01*
X129445526Y-57359765D01*
X129550996Y-57333346D01*
X129658547Y-57317392D01*
X129767145Y-57312057D01*
X136932855Y-57312057D01*
X137041453Y-57317392D01*
G37*
X183150000Y-87500000D02*
X183150000Y-90300000D01*
X183850000Y-90950000D02*
X184450000Y-90950000D01*
X185150000Y-90300000D02*
X185150000Y-87500000D01*
X185350000Y-87700000D02*
X185650000Y-87400000D01*
X185350000Y-87700000D02*
X185650000Y-88000000D01*
X184450000Y-86850000D02*
X183850000Y-86850000D01*
X185650000Y-87400000D02*
X185650000Y-88000000D01*
X184450000Y-90950000D02*
G75*
G03*
X185150000Y-90250000I0J700000D01*
G01*
X183850000Y-86850000D02*
G75*
G03*
X183150000Y-87550000I-1J-699999D01*
G01*
X185150000Y-87550000D02*
G75*
G03*
X184450000Y-86850000I-699999J1D01*
G01*
X183150000Y-90250000D02*
G75*
G03*
X183850000Y-90950000I700000J0D01*
G01*
G36*
X190929992Y-73234550D02*
G01*
X190957972Y-73287731D01*
X190979998Y-73374250D01*
X190990582Y-73451861D01*
X190996932Y-73547111D01*
X190999048Y-73660000D01*
X190995873Y-73791763D01*
X190724411Y-73320275D01*
X190772036Y-73225819D01*
X190846648Y-73198037D01*
X190929992Y-73234550D01*
G37*
G36*
X192546861Y-73799700D02*
G01*
X192329373Y-73799700D01*
X192437323Y-73255187D01*
X192438911Y-73255187D01*
X192546861Y-73799700D01*
G37*
G36*
X193364423Y-73217087D02*
G01*
X193364423Y-74104500D01*
X193292986Y-74118788D01*
X193182059Y-74093388D01*
X193106455Y-74017188D01*
X193074264Y-73930581D01*
X193054949Y-73806226D01*
X193048511Y-73644125D01*
X193055037Y-73497369D01*
X193074616Y-73383069D01*
X193107248Y-73301225D01*
X193183051Y-73227406D01*
X193292986Y-73202800D01*
X193364423Y-73217087D01*
G37*
G36*
X190016518Y-72552057D02*
G01*
X194054853Y-72552057D01*
X194793482Y-73660000D01*
X194054853Y-74767943D01*
X190016518Y-74767943D01*
X190016518Y-73660000D01*
X190529148Y-73660000D01*
X190533293Y-73800847D01*
X190545729Y-73920703D01*
X190566455Y-74019569D01*
X190611103Y-74131884D01*
X190670436Y-74203719D01*
X190747826Y-74242414D01*
X190846648Y-74255313D01*
X190945470Y-74242414D01*
X190951422Y-74239438D01*
X191370523Y-74239438D01*
X191910273Y-74239438D01*
X192057911Y-74239438D01*
X192242061Y-74239438D01*
X192302386Y-73934638D01*
X192573848Y-73934638D01*
X192634173Y-74239438D01*
X192811973Y-74239438D01*
X192671708Y-73644125D01*
X192875473Y-73644125D01*
X192880677Y-73787882D01*
X192896287Y-73910119D01*
X192922305Y-74010838D01*
X192979653Y-74125733D01*
X193058036Y-74200544D01*
X193161223Y-74241620D01*
X193292986Y-74255313D01*
X193422764Y-74247375D01*
X193542223Y-74223563D01*
X193542223Y-73096437D01*
X193418001Y-73072625D01*
X193292986Y-73064687D01*
X193158666Y-73079063D01*
X193052039Y-73122190D01*
X192973105Y-73194069D01*
X192930391Y-73270715D01*
X192899881Y-73371273D01*
X192881575Y-73495743D01*
X192875473Y-73644125D01*
X192671708Y-73644125D01*
X192538923Y-73080562D01*
X192332548Y-73080562D01*
X192057911Y-74239438D01*
X191910273Y-74239438D01*
X191910273Y-74101325D01*
X191732473Y-74101325D01*
X191732473Y-73218675D01*
X191910273Y-73218675D01*
X191910273Y-73080562D01*
X191370523Y-73080562D01*
X191370523Y-73218675D01*
X191548323Y-73218675D01*
X191548323Y-74101325D01*
X191370523Y-74101325D01*
X191370523Y-74239438D01*
X190951422Y-74239438D01*
X191022861Y-74203719D01*
X191082194Y-74131884D01*
X191126842Y-74019569D01*
X191147568Y-73920703D01*
X191160003Y-73800847D01*
X191164148Y-73660000D01*
X191160003Y-73519153D01*
X191147568Y-73399297D01*
X191126842Y-73300431D01*
X191082194Y-73188116D01*
X191022861Y-73116281D01*
X190945470Y-73077586D01*
X190846648Y-73064687D01*
X190747826Y-73077586D01*
X190670436Y-73116281D01*
X190611103Y-73188116D01*
X190566455Y-73300431D01*
X190545729Y-73399297D01*
X190533293Y-73519153D01*
X190529148Y-73660000D01*
X190016518Y-73660000D01*
X190016518Y-72552057D01*
G37*
G36*
X190975236Y-73977500D02*
G01*
X190926023Y-74089419D01*
X190846648Y-74121963D01*
X190763305Y-74085450D01*
X190735325Y-74032269D01*
X190713298Y-73945750D01*
X190702715Y-73868139D01*
X190696365Y-73772889D01*
X190694248Y-73660000D01*
X190695439Y-73573878D01*
X190699011Y-73499662D01*
X190975236Y-73977500D01*
G37*
G36*
X151260969Y-117014625D02*
G01*
X151387175Y-117259894D01*
X151351457Y-117426581D01*
X151237157Y-117557550D01*
X151034750Y-117676612D01*
X150739475Y-117802819D01*
X150534688Y-117557550D01*
X150463250Y-117297994D01*
X150598982Y-117009862D01*
X150920450Y-116912231D01*
X151260969Y-117014625D01*
G37*
G36*
X169942395Y-120139000D02*
G01*
X169739471Y-120211607D01*
X169530408Y-120263975D01*
X169317218Y-120295599D01*
X169101956Y-120306174D01*
X125538045Y-120306174D01*
X125322782Y-120295599D01*
X125109593Y-120263975D01*
X124900530Y-120211607D01*
X124697606Y-120139000D01*
X124502776Y-120046853D01*
X124317916Y-119936052D01*
X124144807Y-119807665D01*
X123985116Y-119662929D01*
X123840380Y-119503238D01*
X123711993Y-119330129D01*
X123601193Y-119145269D01*
X123509045Y-118950439D01*
X123436438Y-118747516D01*
X123384070Y-118538452D01*
X123352446Y-118325263D01*
X123341871Y-118110000D01*
X123349007Y-117964744D01*
X126050675Y-117964744D01*
X126075679Y-118311216D01*
X126150688Y-118617206D01*
X126270346Y-118880930D01*
X126429294Y-119100600D01*
X126624557Y-119274431D01*
X126853157Y-119400638D01*
X127109736Y-119477433D01*
X127388938Y-119503031D01*
X127672307Y-119476838D01*
X127893763Y-119417306D01*
X128053307Y-119345869D01*
X128150938Y-119288719D01*
X127998538Y-118821994D01*
X127734219Y-118943438D01*
X127379413Y-118993444D01*
X127110332Y-118943438D01*
X126876969Y-118776750D01*
X126710282Y-118464806D01*
X126662061Y-118245731D01*
X126645988Y-117979031D01*
X126665302Y-117668675D01*
X126723246Y-117410706D01*
X126819819Y-117205125D01*
X127049014Y-117003314D01*
X127388938Y-116936044D01*
X127767557Y-116988431D01*
X128008063Y-117093206D01*
X128155700Y-116631244D01*
X127819944Y-116490750D01*
X127808686Y-116488369D01*
X128346200Y-116488369D01*
X128430211Y-116830792D01*
X128514602Y-117160834D01*
X128599375Y-117478492D01*
X128684528Y-117783769D01*
X128770063Y-118076662D01*
X128876326Y-118430427D01*
X128980804Y-118774964D01*
X129083495Y-119110274D01*
X129184400Y-119436356D01*
X129822575Y-119436356D01*
X130903663Y-119436356D01*
X131375150Y-119436356D01*
X131508500Y-119217877D01*
X131641850Y-118981538D01*
X131773414Y-118736864D01*
X131901407Y-118493381D01*
X132022850Y-118254066D01*
X132134769Y-118021894D01*
X132234186Y-117807581D01*
X132318125Y-117621844D01*
X132318125Y-119436356D01*
X132846763Y-119436356D01*
X132846763Y-117593269D01*
X133199188Y-117593269D01*
X133224323Y-117932729D01*
X133299730Y-118220860D01*
X133425407Y-118457663D01*
X133600296Y-118633610D01*
X133823340Y-118739179D01*
X134094538Y-118774369D01*
X134327900Y-118748175D01*
X134527925Y-118674356D01*
X134527925Y-119693531D01*
X135113713Y-119793544D01*
X135113713Y-119369681D01*
X138442700Y-119369681D01*
X138549857Y-119645906D01*
X138809413Y-119745919D01*
X139071350Y-119645906D01*
X139180888Y-119369681D01*
X139071350Y-119098219D01*
X138809413Y-118998206D01*
X138549857Y-119098219D01*
X138442700Y-119369681D01*
X135113713Y-119369681D01*
X135113713Y-118821994D01*
X145200688Y-118821994D01*
X145448338Y-118931531D01*
X145715038Y-119079169D01*
X145967450Y-119250619D01*
X146172238Y-119436356D01*
X146572288Y-119436356D01*
X146572288Y-119112506D01*
X147558125Y-119112506D01*
X147763508Y-119286338D01*
X147998657Y-119407781D01*
X148248093Y-119479219D01*
X148496338Y-119503031D01*
X148844000Y-119450644D01*
X149139275Y-119293481D01*
X149344063Y-119029163D01*
X149420263Y-118660069D01*
X149363113Y-118367175D01*
X149210713Y-118093331D01*
X148996400Y-117836156D01*
X148753513Y-117598031D01*
X148610638Y-117462300D01*
X148458238Y-117300375D01*
X148405213Y-117226556D01*
X149915563Y-117226556D01*
X149941757Y-117443845D01*
X150020338Y-117648037D01*
X150154879Y-117834370D01*
X150348950Y-117998081D01*
X150172738Y-118145719D01*
X150063200Y-118302881D01*
X149987000Y-118645781D01*
X150037007Y-118943438D01*
X150196550Y-119222044D01*
X150487063Y-119426831D01*
X150689469Y-119487553D01*
X150934738Y-119507794D01*
X151315143Y-119455406D01*
X151608632Y-119298244D01*
X151796155Y-119052975D01*
X151858663Y-118736269D01*
X151857490Y-118726744D01*
X159326263Y-118726744D01*
X159940625Y-118726744D01*
X159987655Y-118539816D01*
X160043019Y-118340981D01*
X160104336Y-118135598D01*
X160169225Y-117929025D01*
X160236496Y-117724833D01*
X160304957Y-117526594D01*
X160435925Y-117169406D01*
X160574038Y-117526594D01*
X160649643Y-117724833D01*
X160724057Y-117929025D01*
X160796685Y-118135598D01*
X160866932Y-118340981D01*
X160929439Y-118539816D01*
X160978850Y-118726744D01*
X161574163Y-118726744D01*
X161471471Y-118395304D01*
X161363422Y-118077258D01*
X161250015Y-117772607D01*
X161131250Y-117481350D01*
X160972500Y-117118077D01*
X160820100Y-116787083D01*
X160722949Y-116588381D01*
X161836100Y-116588381D01*
X161950400Y-117078919D01*
X162233769Y-116978906D01*
X162424864Y-116939616D01*
X162650488Y-116926519D01*
X162905877Y-116958666D01*
X163071969Y-117055106D01*
X163193413Y-117374194D01*
X163146979Y-117572433D01*
X163007675Y-117700425D01*
X162796935Y-117770077D01*
X162536188Y-117793294D01*
X162355213Y-117793294D01*
X162355213Y-118279069D01*
X162574288Y-118279069D01*
X162755263Y-118298119D01*
X162917188Y-118360031D01*
X163033869Y-118474331D01*
X163079113Y-118655306D01*
X162981482Y-118910100D01*
X162712400Y-119002969D01*
X162381407Y-118948200D01*
X162098038Y-118812469D01*
X161888488Y-119241094D01*
X162229007Y-119414925D01*
X162454630Y-119481005D01*
X162707638Y-119503031D01*
X162939214Y-119487553D01*
X163138644Y-119441119D01*
X163441063Y-119267288D01*
X163617275Y-119002969D01*
X163648749Y-118821994D01*
X166631938Y-118821994D01*
X166879588Y-118931531D01*
X167146288Y-119079169D01*
X167398700Y-119250619D01*
X167603488Y-119436356D01*
X168003538Y-119436356D01*
X168003538Y-116974144D01*
X168589325Y-116974144D01*
X168589325Y-116488369D01*
X166798625Y-116488369D01*
X166798625Y-116974144D01*
X167417750Y-116974144D01*
X167417750Y-118621969D01*
X167112950Y-118452900D01*
X166822438Y-118336219D01*
X166631938Y-118821994D01*
X163648749Y-118821994D01*
X163674425Y-118674356D01*
X163574413Y-118336219D01*
X163307713Y-118088569D01*
X163510714Y-117970697D01*
X163662519Y-117807581D01*
X163757174Y-117603984D01*
X163788725Y-117364669D01*
X163722050Y-116988431D01*
X163636859Y-116864606D01*
X164788850Y-116864606D01*
X164824569Y-117043200D01*
X164919819Y-117174169D01*
X165055550Y-117255131D01*
X165217475Y-117283706D01*
X165512750Y-117174169D01*
X165641338Y-116864606D01*
X165512750Y-116545519D01*
X165217475Y-116435981D01*
X165055550Y-116464556D01*
X164919819Y-116547900D01*
X164824569Y-116681250D01*
X164788850Y-116864606D01*
X163636859Y-116864606D01*
X163517263Y-116690775D01*
X163360100Y-116578856D01*
X163164838Y-116495512D01*
X162930285Y-116443720D01*
X162655250Y-116426456D01*
X162424269Y-116443125D01*
X162190907Y-116483606D01*
X161983738Y-116535994D01*
X161836100Y-116588381D01*
X160722949Y-116588381D01*
X160674050Y-116488369D01*
X160183513Y-116488369D01*
X160039844Y-116787083D01*
X159894588Y-117118077D01*
X159747744Y-117481350D01*
X159638355Y-117772607D01*
X159531646Y-118077258D01*
X159427615Y-118395304D01*
X159326263Y-118726744D01*
X151857490Y-118726744D01*
X151833660Y-118533267D01*
X151758650Y-118333838D01*
X151630063Y-118152267D01*
X151444325Y-118002844D01*
X151451038Y-117998081D01*
X155035250Y-117998081D01*
X156340175Y-117998081D01*
X156340175Y-117421819D01*
X155035250Y-117421819D01*
X155035250Y-117998081D01*
X151451038Y-117998081D01*
X151675902Y-117838537D01*
X151827707Y-117659944D01*
X151911646Y-117464681D01*
X151939625Y-117250369D01*
X151884857Y-116959856D01*
X151708644Y-116695537D01*
X151391938Y-116502656D01*
X151174054Y-116445506D01*
X150910925Y-116426456D01*
X150697208Y-116440148D01*
X150503732Y-116481225D01*
X150189407Y-116638387D01*
X149987000Y-116890800D01*
X149915563Y-117226556D01*
X148405213Y-117226556D01*
X148336794Y-117131306D01*
X148286788Y-116974144D01*
X149553613Y-116974144D01*
X149553613Y-116488369D01*
X147629563Y-116488369D01*
X147617657Y-116607431D01*
X147620038Y-116707444D01*
X147642064Y-116936044D01*
X147708144Y-117145594D01*
X147808157Y-117337880D01*
X147931982Y-117514687D01*
X148072475Y-117677803D01*
X148222494Y-117829012D01*
X148372513Y-117971292D01*
X148513007Y-118107619D01*
X148736844Y-118364794D01*
X148824950Y-118617206D01*
X148715413Y-118895813D01*
X148439188Y-118993444D01*
X148148675Y-118926769D01*
X147848638Y-118702931D01*
X147558125Y-119112506D01*
X146572288Y-119112506D01*
X146572288Y-116974144D01*
X147158075Y-116974144D01*
X147158075Y-116488369D01*
X145367375Y-116488369D01*
X145367375Y-116974144D01*
X145986500Y-116974144D01*
X145986500Y-118621969D01*
X145681700Y-118452900D01*
X145391188Y-118336219D01*
X145200688Y-118821994D01*
X135113713Y-118821994D01*
X135113713Y-118726744D01*
X135728075Y-118726744D01*
X136313863Y-118726744D01*
X136313863Y-117555169D01*
X136332318Y-117285492D01*
X136387682Y-117095588D01*
X136675813Y-116945569D01*
X136942513Y-116969381D01*
X136942513Y-118726744D01*
X137533063Y-118726744D01*
X137999788Y-118726744D01*
X139204700Y-118726744D01*
X139204700Y-118655306D01*
X140509625Y-118655306D01*
X140685243Y-118696978D01*
X140897769Y-118736269D01*
X141138871Y-118764844D01*
X141400213Y-118774369D01*
X141644291Y-118755914D01*
X141843125Y-118700550D01*
X142121732Y-118491000D01*
X142266988Y-118167150D01*
X142299135Y-117968911D01*
X142309850Y-117750431D01*
X142309850Y-117612319D01*
X142728950Y-117612319D01*
X142748596Y-117862945D01*
X142807532Y-118090950D01*
X142901591Y-118292166D01*
X143026607Y-118462425D01*
X143180793Y-118599347D01*
X143362363Y-118700550D01*
X143565960Y-118763058D01*
X143786225Y-118783894D01*
X144009468Y-118763058D01*
X144212469Y-118700550D01*
X144392254Y-118599347D01*
X144545844Y-118462425D01*
X144670264Y-118292166D01*
X144762538Y-118090950D01*
X144819688Y-117862945D01*
X144838738Y-117612319D01*
X144819688Y-117358120D01*
X144762538Y-117128925D01*
X144670860Y-116927114D01*
X144548225Y-116755069D01*
X144396421Y-116615766D01*
X144217232Y-116512181D01*
X144013039Y-116447887D01*
X143786225Y-116426456D01*
X143559411Y-116447887D01*
X143355219Y-116512181D01*
X143175435Y-116615766D01*
X143021844Y-116755069D01*
X142897424Y-116927114D01*
X142805150Y-117128925D01*
X142748000Y-117358120D01*
X142728950Y-117612319D01*
X142309850Y-117612319D01*
X142309850Y-116488369D01*
X141724063Y-116488369D01*
X141724063Y-117674231D01*
X141706204Y-117944503D01*
X141652625Y-118126669D01*
X141362113Y-118264781D01*
X141231144Y-118260019D01*
X141095413Y-118245731D01*
X141095413Y-116488369D01*
X140509625Y-116488369D01*
X140509625Y-118655306D01*
X139204700Y-118655306D01*
X139204700Y-117340856D01*
X139278519Y-117043200D01*
X139523788Y-116945569D01*
X139719050Y-116967000D01*
X139976225Y-117055106D01*
X140052425Y-116583619D01*
X139711907Y-116466937D01*
X139419013Y-116435981D01*
X139208868Y-116452650D01*
X139035632Y-116502656D01*
X138787982Y-116695537D01*
X138657013Y-117002719D01*
X138628438Y-117196791D01*
X138618913Y-117417056D01*
X138618913Y-118240969D01*
X137999788Y-118240969D01*
X137999788Y-118726744D01*
X137533063Y-118726744D01*
X137533063Y-116564569D01*
X137353874Y-116521706D01*
X137140157Y-116478844D01*
X136899055Y-116446697D01*
X136637713Y-116435981D01*
X136386491Y-116455031D01*
X136185275Y-116512181D01*
X135906669Y-116728875D01*
X135766175Y-117059869D01*
X135737600Y-117259894D01*
X135728075Y-117478969D01*
X135728075Y-118726744D01*
X135113713Y-118726744D01*
X135113713Y-116555044D01*
X134933929Y-116507419D01*
X134718425Y-116469319D01*
X134487444Y-116444316D01*
X134261225Y-116435981D01*
X133940286Y-116470377D01*
X133675967Y-116573565D01*
X133468269Y-116745544D01*
X133318780Y-116977319D01*
X133229086Y-117259894D01*
X133199188Y-117593269D01*
X132846763Y-117593269D01*
X132846763Y-116488369D01*
X132375275Y-116488369D01*
X132237957Y-116815129D01*
X132092700Y-117141360D01*
X131939507Y-117467062D01*
X131778375Y-117792765D01*
X131609307Y-118118996D01*
X131432300Y-118445756D01*
X131432300Y-116488369D01*
X130903663Y-116488369D01*
X130903663Y-119436356D01*
X129822575Y-119436356D01*
X129927202Y-119107595D01*
X130031530Y-118769011D01*
X130135561Y-118420604D01*
X130239294Y-118062375D01*
X130321685Y-117767005D01*
X130403124Y-117461919D01*
X130483610Y-117147118D01*
X130563144Y-116822601D01*
X130641725Y-116488369D01*
X130013075Y-116488369D01*
X129874963Y-117169406D01*
X129089150Y-117169406D01*
X128955800Y-116488369D01*
X128346200Y-116488369D01*
X127808686Y-116488369D01*
X127591939Y-116442530D01*
X127331788Y-116426456D01*
X126948671Y-116470906D01*
X126631171Y-116604256D01*
X126379288Y-116826506D01*
X126235520Y-117047665D01*
X126132829Y-117311091D01*
X126071214Y-117616784D01*
X126050675Y-117964744D01*
X123349007Y-117964744D01*
X123352446Y-117894737D01*
X123384070Y-117681548D01*
X123436438Y-117472484D01*
X123509045Y-117269561D01*
X123601193Y-117074731D01*
X123711993Y-116889871D01*
X123840380Y-116716762D01*
X123985116Y-116557071D01*
X124144807Y-116412335D01*
X124317916Y-116283948D01*
X124502776Y-116173147D01*
X124697606Y-116081000D01*
X124900530Y-116008393D01*
X125109593Y-115956025D01*
X125322782Y-115924401D01*
X125538045Y-115913826D01*
X169101956Y-115913826D01*
X169317218Y-115924401D01*
X169530408Y-115956025D01*
X169739471Y-116008393D01*
X169942395Y-116081000D01*
X170137225Y-116173148D01*
X170322084Y-116283948D01*
X170495193Y-116412335D01*
X170654885Y-116557071D01*
X170799620Y-116716762D01*
X170928007Y-116889871D01*
X171038807Y-117074731D01*
X171130955Y-117269561D01*
X171203562Y-117472484D01*
X171255930Y-117681548D01*
X171287554Y-117894737D01*
X171298129Y-118110000D01*
X171287554Y-118325263D01*
X171255930Y-118538452D01*
X171203562Y-118747516D01*
X171130955Y-118950439D01*
X171038807Y-119145269D01*
X170928007Y-119330129D01*
X170799620Y-119503238D01*
X170654885Y-119662929D01*
X170495193Y-119807665D01*
X170322084Y-119936052D01*
X170137225Y-120046852D01*
X169942395Y-120139000D01*
G37*
G36*
X134399338Y-116945569D02*
G01*
X134527925Y-116959856D01*
X134527925Y-118179056D01*
X134375525Y-118243350D01*
X134194550Y-118269544D01*
X134013575Y-118227872D01*
X133889750Y-118102856D01*
X133818313Y-117899259D01*
X133794500Y-117621844D01*
X133822480Y-117349191D01*
X133906419Y-117131306D01*
X134052271Y-116988431D01*
X134265988Y-116940806D01*
X134399338Y-116945569D01*
G37*
G36*
X129717800Y-117959981D02*
G01*
X129653507Y-118252875D01*
X129577307Y-118548150D01*
X129489200Y-118864856D01*
X129401094Y-118548150D01*
X129324894Y-118252875D01*
X129258219Y-117959981D01*
X129198688Y-117655181D01*
X129774950Y-117655181D01*
X129717800Y-117959981D01*
G37*
G36*
X151244300Y-118433850D02*
G01*
X151306213Y-118688644D01*
X151194294Y-118938675D01*
X150925213Y-119022019D01*
X150656132Y-118936294D01*
X150539450Y-118683881D01*
X150648988Y-118412419D01*
X150800197Y-118305263D01*
X151034750Y-118193344D01*
X151244300Y-118433850D01*
G37*
G36*
X143977321Y-116982478D02*
G01*
X144121982Y-117121781D01*
X144209493Y-117336094D01*
X144238663Y-117607556D01*
X144211874Y-117878423D01*
X144131507Y-118090950D01*
X143991608Y-118228467D01*
X143786225Y-118274306D01*
X143585605Y-118228467D01*
X143440944Y-118090950D01*
X143353433Y-117878423D01*
X143324263Y-117607556D01*
X143351052Y-117336094D01*
X143431419Y-117121781D01*
X143571318Y-116982478D01*
X143776700Y-116936044D01*
X143977321Y-116982478D01*
G37*
X185650000Y-72160000D02*
X185650000Y-72760000D01*
X185150000Y-75060000D02*
X185150000Y-72260000D01*
X183150000Y-72260000D02*
X183150000Y-75060000D01*
X183850000Y-75710000D02*
X184450000Y-75710000D01*
X185350000Y-72460000D02*
X185650000Y-72160000D01*
X184450000Y-71610000D02*
X183850000Y-71610000D01*
X185350000Y-72460000D02*
X185650000Y-72760000D01*
X183850000Y-71610000D02*
G75*
G03*
X183150000Y-72310000I-1J-699999D01*
G01*
X185150000Y-72310000D02*
G75*
G03*
X184450000Y-71610000I-699999J1D01*
G01*
X183150000Y-75010000D02*
G75*
G03*
X183850000Y-75710000I700000J0D01*
G01*
X184450000Y-75710000D02*
G75*
G03*
X185150000Y-75010000I0J700000D01*
G01*
G36*
X158750000Y-79108939D02*
G01*
X159857943Y-79847568D01*
X159857943Y-84721061D01*
X157642057Y-84721061D01*
X157642057Y-84208430D01*
X158573787Y-84208430D01*
X158705550Y-84208430D01*
X158705550Y-83732180D01*
X158573787Y-83732180D01*
X158573787Y-84208430D01*
X157642057Y-84208430D01*
X157642057Y-83120993D01*
X158154687Y-83120993D01*
X158164113Y-83214010D01*
X158192391Y-83294626D01*
X158239520Y-83362839D01*
X158305500Y-83418649D01*
X158390332Y-83462057D01*
X158494016Y-83493063D01*
X158616551Y-83511667D01*
X158757938Y-83517868D01*
X158900118Y-83511171D01*
X159021859Y-83491079D01*
X159123162Y-83457592D01*
X159204025Y-83410712D01*
X159282518Y-83327368D01*
X159329614Y-83220212D01*
X159345313Y-83089243D01*
X159336581Y-82988040D01*
X159310388Y-82890805D01*
X159167513Y-82890805D01*
X159196088Y-82992009D01*
X159205613Y-83089243D01*
X159180411Y-83202352D01*
X159104806Y-83281330D01*
X159021463Y-83315726D01*
X158905840Y-83336364D01*
X158757938Y-83343243D01*
X158606596Y-83336716D01*
X158487004Y-83317137D01*
X158399162Y-83284505D01*
X158318200Y-83213068D01*
X158291212Y-83116230D01*
X158310262Y-83020980D01*
X158726187Y-83020980D01*
X158726187Y-83221005D01*
X158861125Y-83221005D01*
X158861125Y-82851118D01*
X158210250Y-82851118D01*
X158179382Y-82936137D01*
X158160861Y-83026096D01*
X158154687Y-83120993D01*
X157642057Y-83120993D01*
X157642057Y-82684430D01*
X158170562Y-82684430D01*
X159329438Y-82684430D01*
X159329438Y-82500280D01*
X158488062Y-82252630D01*
X158488062Y-82247868D01*
X159329438Y-82247868D01*
X159329438Y-82081180D01*
X158170562Y-82081180D01*
X158170562Y-82258980D01*
X159011938Y-82506630D01*
X159011938Y-82509805D01*
X158170562Y-82509805D01*
X158170562Y-82684430D01*
X157642057Y-82684430D01*
X157642057Y-81654143D01*
X158154687Y-81654143D01*
X158162625Y-81783921D01*
X158186437Y-81903380D01*
X159313563Y-81903380D01*
X159337375Y-81779159D01*
X159345313Y-81654143D01*
X159330937Y-81519823D01*
X159287810Y-81413196D01*
X159215931Y-81334262D01*
X159139285Y-81291548D01*
X159038727Y-81261038D01*
X158914257Y-81242732D01*
X158765875Y-81236630D01*
X158622118Y-81241834D01*
X158499881Y-81257444D01*
X158399162Y-81283462D01*
X158284267Y-81340810D01*
X158209456Y-81419193D01*
X158168380Y-81522380D01*
X158154687Y-81654143D01*
X157642057Y-81654143D01*
X157642057Y-79847568D01*
X158750000Y-79108939D01*
G37*
G36*
X158912631Y-81416194D02*
G01*
X159026931Y-81435773D01*
X159108775Y-81468405D01*
X159182594Y-81544209D01*
X159207200Y-81654143D01*
X159192913Y-81725580D01*
X158305500Y-81725580D01*
X158291212Y-81654143D01*
X158316612Y-81543216D01*
X158392812Y-81467612D01*
X158479419Y-81435421D01*
X158603774Y-81416106D01*
X158765875Y-81409668D01*
X158912631Y-81416194D01*
G37*
G36*
X193352517Y-108777087D02*
G01*
X193352517Y-109664500D01*
X193281080Y-109678788D01*
X193170153Y-109653388D01*
X193094548Y-109577188D01*
X193062357Y-109490581D01*
X193043043Y-109366226D01*
X193036605Y-109204125D01*
X193043131Y-109057369D01*
X193062710Y-108943069D01*
X193095342Y-108861225D01*
X193171145Y-108787406D01*
X193281080Y-108762800D01*
X193352517Y-108777087D01*
G37*
G36*
X190028424Y-108112057D02*
G01*
X194042947Y-108112057D01*
X194781576Y-109220000D01*
X194042947Y-110327943D01*
X190028424Y-110327943D01*
X190028424Y-108778675D01*
X190541055Y-108778675D01*
X190582075Y-108878452D01*
X190621880Y-108981640D01*
X190660470Y-109088237D01*
X190697845Y-109198245D01*
X190734004Y-109311663D01*
X190768949Y-109428492D01*
X190802678Y-109548730D01*
X190835193Y-109672379D01*
X190866492Y-109799438D01*
X191052230Y-109799438D01*
X191358617Y-109799438D01*
X191898367Y-109799438D01*
X192046005Y-109799438D01*
X192230155Y-109799438D01*
X192290480Y-109494638D01*
X192561942Y-109494638D01*
X192622267Y-109799438D01*
X192800067Y-109799438D01*
X192659802Y-109204125D01*
X192863567Y-109204125D01*
X192868770Y-109347882D01*
X192884381Y-109470119D01*
X192910398Y-109570838D01*
X192967747Y-109685733D01*
X193046130Y-109760544D01*
X193149317Y-109801620D01*
X193281080Y-109815313D01*
X193410858Y-109807375D01*
X193530317Y-109783563D01*
X193530317Y-108656437D01*
X193406095Y-108632625D01*
X193281080Y-108624687D01*
X193146759Y-108639063D01*
X193040132Y-108682190D01*
X192961198Y-108754069D01*
X192918485Y-108830715D01*
X192887975Y-108931273D01*
X192869669Y-109055743D01*
X192863567Y-109204125D01*
X192659802Y-109204125D01*
X192527017Y-108640562D01*
X192320642Y-108640562D01*
X192046005Y-109799438D01*
X191898367Y-109799438D01*
X191898367Y-109661325D01*
X191720567Y-109661325D01*
X191720567Y-108778675D01*
X191898367Y-108778675D01*
X191898367Y-108640562D01*
X191358617Y-108640562D01*
X191358617Y-108778675D01*
X191536417Y-108778675D01*
X191536417Y-109661325D01*
X191358617Y-109661325D01*
X191358617Y-109799438D01*
X191052230Y-109799438D01*
X191019598Y-109677122D01*
X190985202Y-109557118D01*
X190949042Y-109439428D01*
X190911118Y-109324050D01*
X190871431Y-109210985D01*
X190829980Y-109100232D01*
X190786764Y-108991792D01*
X190741785Y-108885665D01*
X190695042Y-108781850D01*
X190695042Y-108778675D01*
X191128430Y-108778675D01*
X191128430Y-108640562D01*
X190541055Y-108640562D01*
X190541055Y-108778675D01*
X190028424Y-108778675D01*
X190028424Y-108112057D01*
G37*
G36*
X192534955Y-109359700D02*
G01*
X192317467Y-109359700D01*
X192425417Y-108815187D01*
X192427005Y-108815187D01*
X192534955Y-109359700D01*
G37*
G36*
X191650320Y-68456572D02*
G01*
X191694373Y-68495862D01*
X191722155Y-68568887D01*
X191735648Y-68683188D01*
X191453073Y-68683188D01*
X191462598Y-68571864D01*
X191487998Y-68498244D01*
X191588011Y-68443475D01*
X191650320Y-68456572D01*
G37*
G36*
X193294573Y-68719700D02*
G01*
X193077086Y-68719700D01*
X193185036Y-68175187D01*
X193186623Y-68175187D01*
X193294573Y-68719700D01*
G37*
G36*
X194810944Y-68580000D02*
G01*
X194072316Y-69687943D01*
X189999056Y-69687943D01*
X189999056Y-68494275D01*
X190511686Y-68494275D01*
X190741873Y-68494275D01*
X190741873Y-69159438D01*
X190916498Y-69159438D01*
X190916498Y-68743513D01*
X191281623Y-68743513D01*
X191284798Y-68807013D01*
X191735648Y-68807013D01*
X191717194Y-68918336D01*
X191677705Y-68991956D01*
X191615990Y-69033033D01*
X191530861Y-69046725D01*
X191433230Y-69036009D01*
X191324486Y-69003863D01*
X191324486Y-69135625D01*
X191440770Y-69165391D01*
X191551498Y-69175313D01*
X191648368Y-69166565D01*
X191670629Y-69159438D01*
X192027748Y-69159438D01*
X192210311Y-69159438D01*
X192302386Y-68826063D01*
X192328381Y-68754030D01*
X192358742Y-68709381D01*
X192454786Y-68678425D01*
X192516698Y-68678425D01*
X192516698Y-69159438D01*
X192694498Y-69159438D01*
X192805623Y-69159438D01*
X192989773Y-69159438D01*
X193050098Y-68854638D01*
X193321561Y-68854638D01*
X193381886Y-69159438D01*
X193559686Y-69159438D01*
X193286636Y-68000562D01*
X193080261Y-68000562D01*
X192805623Y-69159438D01*
X192694498Y-69159438D01*
X192694498Y-68016437D01*
X192605951Y-67998799D01*
X192515993Y-67988215D01*
X192424623Y-67984687D01*
X192309882Y-67993948D01*
X192217543Y-68021729D01*
X192147605Y-68068031D01*
X192098657Y-68134265D01*
X192069288Y-68221842D01*
X192059498Y-68330762D01*
X192070611Y-68434545D01*
X192103948Y-68518881D01*
X192159511Y-68583770D01*
X192237298Y-68629213D01*
X192237298Y-68632388D01*
X192176973Y-68710969D01*
X192126173Y-68835588D01*
X192027748Y-69159438D01*
X191670629Y-69159438D01*
X191730335Y-69140323D01*
X191797399Y-69096585D01*
X191849559Y-69035353D01*
X191886817Y-68956626D01*
X191909172Y-68860404D01*
X191916623Y-68746688D01*
X191907363Y-68615719D01*
X191879582Y-68508562D01*
X191833280Y-68425219D01*
X191768457Y-68365687D01*
X191685113Y-68329969D01*
X191583248Y-68318062D01*
X191490291Y-68329263D01*
X191414620Y-68362865D01*
X191356236Y-68418869D01*
X191314784Y-68499743D01*
X191289914Y-68607958D01*
X191281623Y-68743513D01*
X190916498Y-68743513D01*
X190916498Y-68494275D01*
X191091123Y-68494275D01*
X191091123Y-68365687D01*
X190916498Y-68365687D01*
X190916498Y-68273612D01*
X190902608Y-68136294D01*
X190860936Y-68048187D01*
X190785530Y-68000562D01*
X190670436Y-67984687D01*
X190587092Y-67989450D01*
X190511686Y-68003737D01*
X190511686Y-68133912D01*
X190635511Y-68111687D01*
X190705361Y-68124387D01*
X190733936Y-68177569D01*
X190739889Y-68232139D01*
X190741873Y-68314887D01*
X190741873Y-68365687D01*
X190511686Y-68365687D01*
X190511686Y-68494275D01*
X189999056Y-68494275D01*
X189999056Y-67472057D01*
X194072316Y-67472057D01*
X194810944Y-68580000D01*
G37*
G36*
X192516698Y-68135500D02*
G01*
X192516698Y-68540312D01*
X192454786Y-68540312D01*
X192351598Y-68528406D01*
X192283336Y-68492687D01*
X192245236Y-68428394D01*
X192232536Y-68330762D01*
X192244442Y-68237298D01*
X192280161Y-68172806D01*
X192340089Y-68135302D01*
X192424623Y-68122800D01*
X192516698Y-68135500D01*
G37*
X183150000Y-82420000D02*
X183150000Y-85220000D01*
X185350000Y-82620000D02*
X185650000Y-82320000D01*
X185350000Y-82620000D02*
X185650000Y-82920000D01*
X185150000Y-85220000D02*
X185150000Y-82420000D01*
X185650000Y-82320000D02*
X185650000Y-82920000D01*
X184450000Y-81770000D02*
X183850000Y-81770000D01*
X183850000Y-85870000D02*
X184450000Y-85870000D01*
X183150000Y-85170000D02*
G75*
G03*
X183850000Y-85870000I700000J0D01*
G01*
X183850000Y-81770000D02*
G75*
G03*
X183150000Y-82470000I-1J-699999D01*
G01*
X184450000Y-85870000D02*
G75*
G03*
X185150000Y-85170000I0J700000D01*
G01*
X185150000Y-82470000D02*
G75*
G03*
X184450000Y-81770000I-699999J1D01*
G01*
X178066263Y-110575000D02*
X179513737Y-110575000D01*
X178066263Y-107865000D02*
X179513737Y-107865000D01*
G36*
X193354105Y-98617087D02*
G01*
X193354105Y-99504500D01*
X193282667Y-99518788D01*
X193171740Y-99493388D01*
X193096136Y-99417188D01*
X193063945Y-99330581D01*
X193044630Y-99206226D01*
X193038192Y-99044125D01*
X193044718Y-98897369D01*
X193064298Y-98783069D01*
X193096930Y-98701225D01*
X193172733Y-98627406D01*
X193282667Y-98602800D01*
X193354105Y-98617087D01*
G37*
G36*
X190026837Y-97952057D02*
G01*
X194044535Y-97952057D01*
X194783163Y-99060000D01*
X194044535Y-100167943D01*
X190026837Y-100167943D01*
X190026837Y-99271138D01*
X190539467Y-99271138D01*
X190548639Y-99395668D01*
X190576156Y-99494093D01*
X190622017Y-99566413D01*
X190687810Y-99615801D01*
X190775123Y-99645435D01*
X190883955Y-99655313D01*
X191001826Y-99643406D01*
X191013951Y-99639438D01*
X191360205Y-99639438D01*
X191899955Y-99639438D01*
X192047592Y-99639438D01*
X192231742Y-99639438D01*
X192292067Y-99334638D01*
X192563530Y-99334638D01*
X192623855Y-99639438D01*
X192801655Y-99639438D01*
X192661390Y-99044125D01*
X192865155Y-99044125D01*
X192870358Y-99187882D01*
X192885968Y-99310119D01*
X192911986Y-99410838D01*
X192969334Y-99525733D01*
X193047717Y-99600544D01*
X193150905Y-99641620D01*
X193282667Y-99655313D01*
X193412445Y-99647375D01*
X193531905Y-99623563D01*
X193531905Y-98496437D01*
X193407683Y-98472625D01*
X193282667Y-98464687D01*
X193148347Y-98479063D01*
X193041720Y-98522190D01*
X192962786Y-98594069D01*
X192920072Y-98670715D01*
X192889562Y-98771273D01*
X192871256Y-98895743D01*
X192865155Y-99044125D01*
X192661390Y-99044125D01*
X192528605Y-98480562D01*
X192322230Y-98480562D01*
X192047592Y-99639438D01*
X191899955Y-99639438D01*
X191899955Y-99501325D01*
X191722155Y-99501325D01*
X191722155Y-98618675D01*
X191899955Y-98618675D01*
X191899955Y-98480562D01*
X191360205Y-98480562D01*
X191360205Y-98618675D01*
X191538005Y-98618675D01*
X191538005Y-99501325D01*
X191360205Y-99501325D01*
X191360205Y-99639438D01*
X191013951Y-99639438D01*
X191110967Y-99607688D01*
X191110967Y-99456875D01*
X191002620Y-99502119D01*
X190896655Y-99517200D01*
X190815692Y-99503508D01*
X190760130Y-99462431D01*
X190727983Y-99387223D01*
X190717267Y-99271138D01*
X190724808Y-99161005D01*
X190747430Y-99087781D01*
X190841092Y-99033012D01*
X190901814Y-99048887D01*
X190956980Y-99096513D01*
X191103030Y-99096513D01*
X191087155Y-98480562D01*
X190571217Y-98480562D01*
X190571217Y-98617087D01*
X190925230Y-98617087D01*
X190936342Y-98937762D01*
X190933167Y-98937762D01*
X190868873Y-98907997D01*
X190793467Y-98898075D01*
X190702027Y-98912997D01*
X190630907Y-98957765D01*
X190580107Y-99032377D01*
X190549627Y-99136835D01*
X190539467Y-99271138D01*
X190026837Y-99271138D01*
X190026837Y-97952057D01*
G37*
G36*
X192536542Y-99199700D02*
G01*
X192319055Y-99199700D01*
X192427005Y-98655187D01*
X192428592Y-98655187D01*
X192536542Y-99199700D01*
G37*
X178066263Y-85175000D02*
X179513737Y-85175000D01*
X178066263Y-82465000D02*
X179513737Y-82465000D01*
X178066263Y-90255000D02*
X179513737Y-90255000D01*
X178066263Y-87545000D02*
X179513737Y-87545000D01*
G36*
X190032393Y-82712057D02*
G01*
X194038978Y-82712057D01*
X194777607Y-83820000D01*
X194038978Y-84927943D01*
X190032393Y-84927943D01*
X190032393Y-84399438D01*
X190545023Y-84399438D01*
X191116523Y-84399438D01*
X191354648Y-84399438D01*
X191894398Y-84399438D01*
X192042036Y-84399438D01*
X192226186Y-84399438D01*
X192286511Y-84094638D01*
X192557973Y-84094638D01*
X192618298Y-84399438D01*
X192796098Y-84399438D01*
X192655833Y-83804125D01*
X192859598Y-83804125D01*
X192864802Y-83947882D01*
X192880412Y-84070119D01*
X192906430Y-84170838D01*
X192963778Y-84285733D01*
X193042161Y-84360544D01*
X193145348Y-84401620D01*
X193277111Y-84415313D01*
X193406889Y-84407375D01*
X193526348Y-84383563D01*
X193526348Y-83256437D01*
X193402126Y-83232625D01*
X193277111Y-83224687D01*
X193142791Y-83239063D01*
X193036164Y-83282190D01*
X192957230Y-83354069D01*
X192914516Y-83430715D01*
X192884006Y-83531273D01*
X192865700Y-83655743D01*
X192859598Y-83804125D01*
X192655833Y-83804125D01*
X192523048Y-83240562D01*
X192316673Y-83240562D01*
X192042036Y-84399438D01*
X191894398Y-84399438D01*
X191894398Y-84261325D01*
X191716598Y-84261325D01*
X191716598Y-83378675D01*
X191894398Y-83378675D01*
X191894398Y-83240562D01*
X191354648Y-83240562D01*
X191354648Y-83378675D01*
X191532448Y-83378675D01*
X191532448Y-84261325D01*
X191354648Y-84261325D01*
X191354648Y-84399438D01*
X191116523Y-84399438D01*
X191116523Y-84261325D01*
X191014599Y-84142846D01*
X190928356Y-84029615D01*
X190857793Y-83921632D01*
X190802911Y-83818898D01*
X190763709Y-83721413D01*
X190740189Y-83629176D01*
X190732348Y-83542187D01*
X190740881Y-83461225D01*
X190766480Y-83405662D01*
X190870461Y-83362800D01*
X190945073Y-83373207D01*
X191027094Y-83404428D01*
X191116523Y-83456462D01*
X191116523Y-83307237D01*
X191028682Y-83261376D01*
X190934490Y-83233860D01*
X190833948Y-83224687D01*
X190713497Y-83244333D01*
X190625192Y-83303269D01*
X190571019Y-83400305D01*
X190552961Y-83534250D01*
X190562927Y-83634792D01*
X190592825Y-83741683D01*
X190642655Y-83854925D01*
X190694397Y-83945611D01*
X190759931Y-84043044D01*
X190839256Y-84147223D01*
X190932373Y-84258150D01*
X190932373Y-84261325D01*
X190545023Y-84261325D01*
X190545023Y-84399438D01*
X190032393Y-84399438D01*
X190032393Y-82712057D01*
G37*
G36*
X192530986Y-83959700D02*
G01*
X192313498Y-83959700D01*
X192421448Y-83415187D01*
X192423036Y-83415187D01*
X192530986Y-83959700D01*
G37*
G36*
X193348548Y-83377087D02*
G01*
X193348548Y-84264500D01*
X193277111Y-84278788D01*
X193166184Y-84253388D01*
X193090580Y-84177188D01*
X193058389Y-84090581D01*
X193039074Y-83966226D01*
X193032636Y-83804125D01*
X193039162Y-83657369D01*
X193058741Y-83543069D01*
X193091373Y-83461225D01*
X193167176Y-83387406D01*
X193277111Y-83362800D01*
X193348548Y-83377087D01*
G37*
X178066263Y-100415000D02*
X179513737Y-100415000D01*
X178066263Y-97705000D02*
X179513737Y-97705000D01*
%LPC*%
D12*
X109220000Y-119380000D03*
D13*
X106680000Y-119380000D03*
D12*
X161290000Y-77470000D03*
D13*
X158750000Y-77470000D03*
D14*
X119380000Y-127000000D03*
D15*
X116840000Y-127000000D03*
D16*
X135890000Y-102870000D03*
D12*
X162560000Y-124460000D03*
D13*
X162560000Y-127000000D03*
X160020000Y-124460000D03*
X160020000Y-127000000D03*
X157480000Y-124460000D03*
X157480000Y-127000000D03*
X154940000Y-124460000D03*
X154940000Y-127000000D03*
X152400000Y-124460000D03*
X152400000Y-127000000D03*
X149860000Y-124460000D03*
X149860000Y-127000000D03*
X147320000Y-124460000D03*
X147320000Y-127000000D03*
X144780000Y-124460000D03*
X144780000Y-127000000D03*
X142240000Y-124460000D03*
X142240000Y-127000000D03*
X139700000Y-124460000D03*
X139700000Y-127000000D03*
X137160000Y-124460000D03*
X137160000Y-127000000D03*
X134620000Y-124460000D03*
X134620000Y-127000000D03*
X132080000Y-124460000D03*
X132080000Y-127000000D03*
X129540000Y-124460000D03*
X129540000Y-127000000D03*
D17*
X124460000Y-132715000D03*
D18*
X187960000Y-114300000D03*
D19*
X187960000Y-109220000D03*
X187960000Y-104140000D03*
X187960000Y-99060000D03*
X187960000Y-93980000D03*
X187960000Y-88900000D03*
X187960000Y-83820000D03*
X187960000Y-78740000D03*
X187960000Y-73660000D03*
X187960000Y-68580000D03*
D12*
X109220000Y-111760000D03*
D20*
X106680000Y-111760000D03*
X109220000Y-109220000D03*
X106680000Y-109220000D03*
X109220000Y-106680000D03*
X106680000Y-106680000D03*
X109220000Y-104140000D03*
X106680000Y-104140000D03*
X109220000Y-101600000D03*
X106680000Y-101600000D03*
X109220000Y-99060000D03*
X106680000Y-99060000D03*
X109220000Y-96520000D03*
X106680000Y-96520000D03*
X109220000Y-93980000D03*
X106680000Y-93980000D03*
X109220000Y-91440000D03*
X106680000Y-91440000D03*
X109220000Y-88900000D03*
X106680000Y-88900000D03*
X109220000Y-86360000D03*
X106680000Y-86360000D03*
D21*
X192405000Y-131940000D03*
X190005000Y-129540000D03*
X194102056Y-127842944D03*
X194805000Y-129540000D03*
D22*
X192405000Y-129540000D03*
D21*
X190707944Y-131237056D03*
X190707944Y-127842944D03*
X194102056Y-131237056D03*
X192405000Y-127140000D03*
D12*
X109220000Y-80010000D03*
D20*
X106680000Y-80010000D03*
X109220000Y-77470000D03*
X106680000Y-77470000D03*
X109220000Y-74930000D03*
X106680000Y-74930000D03*
X109220000Y-72390000D03*
X106680000Y-72390000D03*
X109220000Y-69850000D03*
X106680000Y-69850000D03*
X109220000Y-67310000D03*
X106680000Y-67310000D03*
X109220000Y-64770000D03*
X106680000Y-64770000D03*
D18*
X146050000Y-53340000D03*
D19*
X140970000Y-53340000D03*
X135890000Y-53340000D03*
X130810000Y-53340000D03*
X125730000Y-53340000D03*
X120650000Y-53340000D03*
D23*
X139700000Y-91430000D03*
D24*
X139700000Y-88890000D03*
X139700000Y-86350000D03*
X139700000Y-83810000D03*
X132080000Y-83810000D03*
X132080000Y-86350000D03*
X132080000Y-88890000D03*
X132080000Y-91430000D03*
D12*
X114300000Y-60960000D03*
D13*
X114300000Y-58420000D03*
D21*
X104982944Y-127427056D03*
X109080000Y-125730000D03*
X104982944Y-124032944D03*
X104280000Y-125730000D03*
X108377056Y-124032944D03*
X108377056Y-127427056D03*
X106680000Y-123330000D03*
D22*
X106680000Y-125730000D03*
D21*
X106680000Y-128130000D03*
D18*
X179070000Y-53340000D03*
D19*
X173990000Y-53340000D03*
X168910000Y-53340000D03*
X163830000Y-53340000D03*
X158750000Y-53340000D03*
X153670000Y-53340000D03*
D22*
X192405000Y-49530000D03*
D21*
X194805000Y-49530000D03*
X190707944Y-47832944D03*
X194102056Y-51227056D03*
X190005000Y-49530000D03*
X190707944Y-51227056D03*
X192405000Y-47130000D03*
X194102056Y-47832944D03*
X192405000Y-51930000D03*
X106680000Y-49670000D03*
X104982944Y-53767056D03*
X108377056Y-50372944D03*
X104982944Y-50372944D03*
X109080000Y-52070000D03*
X106680000Y-54470000D03*
D22*
X106680000Y-52070000D03*
D21*
X108377056Y-53767056D03*
X104280000Y-52070000D03*
D25*
X167640000Y-68580000D03*
D26*
X165100000Y-68580000D03*
X162560000Y-68580000D03*
X160020000Y-68580000D03*
X157480000Y-68580000D03*
X154940000Y-68580000D03*
X152400000Y-68580000D03*
X149860000Y-68580000D03*
X147320000Y-68580000D03*
X144780000Y-68580000D03*
X142240000Y-68580000D03*
X139700000Y-68580000D03*
X137160000Y-68580000D03*
X134620000Y-68580000D03*
X132080000Y-68580000D03*
X129540000Y-68580000D03*
D27*
X127000000Y-71120000D03*
D28*
X127000000Y-73660000D03*
X127000000Y-76200000D03*
X127000000Y-78740000D03*
X127000000Y-81280000D03*
X127000000Y-83820000D03*
X127000000Y-86360000D03*
X127000000Y-88900000D03*
X127000000Y-91440000D03*
X127000000Y-93980000D03*
X127000000Y-96520000D03*
X127000000Y-99060000D03*
X127000000Y-101600000D03*
X127000000Y-104140000D03*
X127000000Y-106680000D03*
X127000000Y-109220000D03*
D25*
X129540000Y-111760000D03*
D26*
X132080000Y-111760000D03*
X134620000Y-111760000D03*
X137160000Y-111760000D03*
X139700000Y-111760000D03*
X142240000Y-111760000D03*
X144780000Y-111760000D03*
X147320000Y-111760000D03*
X149860000Y-111760000D03*
X152400000Y-111760000D03*
X154940000Y-111760000D03*
X157480000Y-111760000D03*
X160020000Y-111760000D03*
X162560000Y-111760000D03*
X165100000Y-111760000D03*
X167640000Y-111760000D03*
D27*
X170180000Y-109220000D03*
D28*
X170180000Y-106680000D03*
X170180000Y-104140000D03*
X170180000Y-101600000D03*
X170180000Y-99060000D03*
X170180000Y-96520000D03*
X170180000Y-93980000D03*
X170180000Y-91440000D03*
X170180000Y-88900000D03*
X170180000Y-86360000D03*
X170180000Y-83820000D03*
X170180000Y-81280000D03*
X170180000Y-78740000D03*
X170180000Y-76200000D03*
X170180000Y-73660000D03*
X170180000Y-71120000D03*
D29*
X167640000Y-71120000D03*
D23*
X165100000Y-71120000D03*
D30*
X177240000Y-93980000D03*
X180340000Y-93980000D03*
D31*
X184150000Y-102840000D03*
D32*
X184150000Y-104140000D03*
D33*
X184150000Y-105440000D03*
D34*
X106680000Y-83185000D03*
D30*
X177240000Y-104140000D03*
X180340000Y-104140000D03*
D31*
X184150000Y-77440000D03*
D32*
X184150000Y-78740000D03*
D33*
X184150000Y-80040000D03*
D31*
X184150000Y-92680000D03*
D32*
X184150000Y-93980000D03*
D33*
X184150000Y-95280000D03*
D30*
X177240000Y-78740000D03*
X180340000Y-78740000D03*
D35*
X109220000Y-61240000D03*
X109220000Y-58140000D03*
D31*
X184150000Y-97760000D03*
D32*
X184150000Y-99060000D03*
D33*
X184150000Y-100360000D03*
D30*
X177240000Y-73660000D03*
X180340000Y-73660000D03*
D31*
X184150000Y-107920000D03*
D32*
X184150000Y-109220000D03*
D33*
X184150000Y-110520000D03*
D31*
X184150000Y-87600000D03*
D32*
X184150000Y-88900000D03*
D33*
X184150000Y-90200000D03*
D31*
X184150000Y-72360000D03*
D32*
X184150000Y-73660000D03*
D33*
X184150000Y-74960000D03*
D31*
X184150000Y-82520000D03*
D32*
X184150000Y-83820000D03*
D33*
X184150000Y-85120000D03*
D30*
X177240000Y-109220000D03*
X180340000Y-109220000D03*
X177240000Y-83820000D03*
X180340000Y-83820000D03*
X177240000Y-88900000D03*
X180340000Y-88900000D03*
X177240000Y-99060000D03*
X180340000Y-99060000D03*
M02*
