G04 #@! TF.GenerationSoftware,KiCad,Pcbnew,7.0.1-117-g927b5ae707*
G04 #@! TF.CreationDate,2023-04-29T20:04:37+02:00*
G04 #@! TF.ProjectId,CANduino128,43414e64-7569-46e6-9f31-32382e6b6963,rev?*
G04 #@! TF.SameCoordinates,Original*
G04 #@! TF.FileFunction,Soldermask,Top*
G04 #@! TF.FilePolarity,Negative*
%FSLAX46Y46*%
G04 Gerber Fmt 4.6, Leading zero omitted, Abs format (unit mm)*
G04 Created by KiCad (PCBNEW 7.0.1-117-g927b5ae707) date 2023-04-29 20:04:37*
%MOMM*%
%LPD*%
G01*
G04 APERTURE LIST*
G04 Aperture macros list*
%AMRoundRect*
0 Rectangle with rounded corners*
0 $1 Rounding radius*
0 $2 $3 $4 $5 $6 $7 $8 $9 X,Y pos of 4 corners*
0 Add a 4 corners polygon primitive as box body*
4,1,4,$2,$3,$4,$5,$6,$7,$8,$9,$2,$3,0*
0 Add four circle primitives for the rounded corners*
1,1,$1+$1,$2,$3*
1,1,$1+$1,$4,$5*
1,1,$1+$1,$6,$7*
1,1,$1+$1,$8,$9*
0 Add four rect primitives between the rounded corners*
20,1,$1+$1,$2,$3,$4,$5,0*
20,1,$1+$1,$4,$5,$6,$7,0*
20,1,$1+$1,$6,$7,$8,$9,0*
20,1,$1+$1,$8,$9,$2,$3,0*%
%AMFreePoly0*
4,1,18,0.547186,0.838167,0.583205,0.805470,1.083205,0.055470,1.100000,0.000000,1.083205,-0.055470,0.583205,-0.805470,0.547186,-0.838167,0.500000,-0.850000,-0.500000,-0.850000,-0.550000,-0.836603,-0.586603,-0.800000,-0.600000,-0.750000,-0.600000,0.750000,-0.586603,0.800000,-0.550000,0.836603,-0.500000,0.850000,0.500000,0.850000,0.547186,0.838167,0.547186,0.838167,$1*%
%AMFreePoly1*
4,1,20,0.550000,0.836603,0.586603,0.800000,0.600000,0.750000,0.600000,-0.750000,0.586603,-0.800000,0.550000,-0.836603,0.500000,-0.850000,-0.650000,-0.850000,-0.701388,-0.835786,-0.738167,-0.797186,-0.749883,-0.745172,-0.733205,-0.694530,-0.270185,0.000000,-0.733205,0.694530,-0.749883,0.745172,-0.738167,0.797186,-0.701388,0.835786,-0.650000,0.850000,0.500000,0.850000,0.550000,0.836603,
0.550000,0.836603,$1*%
G04 Aperture macros list end*
%ADD10RoundRect,0.350000X0.412500X1.100000X-0.412500X1.100000X-0.412500X-1.100000X0.412500X-1.100000X0*%
%ADD11RoundRect,0.350001X-0.462499X-1.074999X0.462499X-1.074999X0.462499X1.074999X-0.462499X1.074999X0*%
%ADD12FreePoly0,270.000000*%
%ADD13FreePoly1,270.000000*%
%ADD14RoundRect,0.350000X-1.075000X0.400000X-1.075000X-0.400000X1.075000X-0.400000X1.075000X0.400000X0*%
%ADD15RoundRect,0.350000X-0.412500X-1.100000X0.412500X-1.100000X0.412500X1.100000X-0.412500X1.100000X0*%
%ADD16RoundRect,0.100000X-0.850000X0.850000X-0.850000X-0.850000X0.850000X-0.850000X0.850000X0.850000X0*%
%ADD17C,1.900000*%
%ADD18O,1.900000X1.900000*%
%ADD19RoundRect,0.350000X-0.550000X0.550000X-0.550000X-0.550000X0.550000X-0.550000X0.550000X0.550000X0*%
%ADD20RoundRect,0.350000X1.100000X-0.412500X1.100000X0.412500X-1.100000X0.412500X-1.100000X-0.412500X0*%
%ADD21C,1.200000*%
%ADD22RoundRect,0.350000X-0.400000X-1.075000X0.400000X-1.075000X0.400000X1.075000X-0.400000X1.075000X0*%
%ADD23RoundRect,0.350001X1.074999X-0.462499X1.074999X0.462499X-1.074999X0.462499X-1.074999X-0.462499X0*%
%ADD24RoundRect,0.100000X1.300000X-1.300000X1.300000X1.300000X-1.300000X1.300000X-1.300000X-1.300000X0*%
%ADD25C,2.800000*%
%ADD26RoundRect,0.350000X1.075000X-0.400000X1.075000X0.400000X-1.075000X0.400000X-1.075000X-0.400000X0*%
%ADD27RoundRect,0.100000X0.850000X0.850000X-0.850000X0.850000X-0.850000X-0.850000X0.850000X-0.850000X0*%
%ADD28C,1.000000*%
%ADD29C,6.600000*%
%ADD30RoundRect,0.100000X1.300000X1.300000X-1.300000X1.300000X-1.300000X-1.300000X1.300000X-1.300000X0*%
%ADD31RoundRect,0.100000X0.800000X0.800000X-0.800000X0.800000X-0.800000X-0.800000X0.800000X-0.800000X0*%
%ADD32C,1.800000*%
%ADD33O,1.800000X1.800000*%
%ADD34RoundRect,0.100000X-0.800000X1.200000X-0.800000X-1.200000X0.800000X-1.200000X0.800000X1.200000X0*%
%ADD35O,1.800000X2.600000*%
%ADD36RoundRect,0.100000X-1.200000X-0.800000X1.200000X-0.800000X1.200000X0.800000X-1.200000X0.800000X0*%
%ADD37O,2.600000X1.800000*%
%ADD38RoundRect,0.100000X0.800000X-1.200000X0.800000X1.200000X-0.800000X1.200000X-0.800000X-1.200000X0*%
%ADD39RoundRect,0.100000X1.200000X0.800000X-1.200000X0.800000X-1.200000X-0.800000X1.200000X-0.800000X0*%
%ADD40RoundRect,0.100000X1.050000X1.050000X-1.050000X1.050000X-1.050000X-1.050000X1.050000X-1.050000X0*%
%ADD41C,2.300000*%
%ADD42RoundRect,0.100000X-0.750000X-0.300000X0.750000X-0.300000X0.750000X0.300000X-0.750000X0.300000X0*%
G04 APERTURE END LIST*
D10*
X180352500Y-93980000D03*
X177227500Y-93980000D03*
D11*
X116622500Y-119380000D03*
X119597500Y-119380000D03*
D12*
X138430000Y-78015000D03*
D13*
X138430000Y-79465000D03*
D14*
X135890000Y-94335000D03*
X135890000Y-97435000D03*
D15*
X177227500Y-68580000D03*
X180352500Y-68580000D03*
D10*
X180352500Y-99060000D03*
X177227500Y-99060000D03*
D16*
X162560000Y-124460000D03*
D17*
X162560000Y-127000000D03*
D18*
X160020000Y-124460000D03*
X160020000Y-127000000D03*
X157480000Y-124460000D03*
X157480000Y-127000000D03*
X154940000Y-124460000D03*
X154940000Y-127000000D03*
X152400000Y-124460000D03*
X152400000Y-127000000D03*
X149860000Y-124460000D03*
X149860000Y-127000000D03*
X147320000Y-124460000D03*
X147320000Y-127000000D03*
X144780000Y-124460000D03*
X144780000Y-127000000D03*
X142240000Y-124460000D03*
X142240000Y-127000000D03*
X139700000Y-124460000D03*
X139700000Y-127000000D03*
X137160000Y-124460000D03*
X137160000Y-127000000D03*
X134620000Y-124460000D03*
X134620000Y-127000000D03*
X132080000Y-124460000D03*
X132080000Y-127000000D03*
X129540000Y-124460000D03*
X129540000Y-127000000D03*
D19*
X124460000Y-132715000D03*
D20*
X143510000Y-89192500D03*
X143510000Y-86067500D03*
D10*
X180352500Y-78740000D03*
X177227500Y-78740000D03*
D21*
X106680000Y-83185000D03*
D22*
X145135000Y-81280000D03*
X148235000Y-81280000D03*
D23*
X114300000Y-54827500D03*
X114300000Y-51852500D03*
D24*
X187960000Y-114300000D03*
D25*
X187960000Y-109220000D03*
X187960000Y-104140000D03*
X187960000Y-99060000D03*
X187960000Y-93980000D03*
X187960000Y-88900000D03*
X187960000Y-83820000D03*
X187960000Y-78740000D03*
X187960000Y-73660000D03*
X187960000Y-68580000D03*
D10*
X180352500Y-88900000D03*
X177227500Y-88900000D03*
D12*
X133350000Y-78015000D03*
D13*
X133350000Y-79465000D03*
D26*
X181610000Y-123470000D03*
X181610000Y-120370000D03*
D27*
X109220000Y-111760000D03*
D17*
X106680000Y-111760000D03*
X109220000Y-109220000D03*
X106680000Y-109220000D03*
X109220000Y-106680000D03*
X106680000Y-106680000D03*
X109220000Y-104140000D03*
X106680000Y-104140000D03*
X109220000Y-101600000D03*
X106680000Y-101600000D03*
X109220000Y-99060000D03*
X106680000Y-99060000D03*
X109220000Y-96520000D03*
X106680000Y-96520000D03*
X109220000Y-93980000D03*
X106680000Y-93980000D03*
X109220000Y-91440000D03*
X106680000Y-91440000D03*
X109220000Y-88900000D03*
X106680000Y-88900000D03*
X109220000Y-86360000D03*
X106680000Y-86360000D03*
D28*
X190005000Y-129540000D03*
X190707944Y-127842944D03*
X190707944Y-131237056D03*
X192405000Y-127140000D03*
D29*
X192405000Y-129540000D03*
D28*
X192405000Y-131940000D03*
X194102056Y-127842944D03*
X194102056Y-131237056D03*
X194805000Y-129540000D03*
D22*
X144500000Y-73660000D03*
X147600000Y-73660000D03*
D10*
X180352500Y-83820000D03*
X177227500Y-83820000D03*
D27*
X109220000Y-80010000D03*
D17*
X106680000Y-80010000D03*
X109220000Y-77470000D03*
X106680000Y-77470000D03*
X109220000Y-74930000D03*
X106680000Y-74930000D03*
X109220000Y-72390000D03*
X106680000Y-72390000D03*
X109220000Y-69850000D03*
X106680000Y-69850000D03*
X109220000Y-67310000D03*
X106680000Y-67310000D03*
X109220000Y-64770000D03*
X106680000Y-64770000D03*
D10*
X180352500Y-109220000D03*
X177227500Y-109220000D03*
D30*
X146050000Y-53340000D03*
D25*
X140970000Y-53340000D03*
X135890000Y-53340000D03*
X130810000Y-53340000D03*
X125730000Y-53340000D03*
X120650000Y-53340000D03*
D22*
X136880000Y-73660000D03*
X139980000Y-73660000D03*
D31*
X139700000Y-91430000D03*
D32*
X139700000Y-88890000D03*
D33*
X139700000Y-86350000D03*
X139700000Y-83810000D03*
X132080000Y-83810000D03*
X132080000Y-86350000D03*
X132080000Y-88890000D03*
X132080000Y-91430000D03*
D10*
X180352500Y-73660000D03*
X177227500Y-73660000D03*
D26*
X132080000Y-97435000D03*
X132080000Y-94335000D03*
D27*
X114300000Y-60960000D03*
D18*
X114300000Y-58420000D03*
D10*
X180352500Y-104140000D03*
X177227500Y-104140000D03*
D15*
X148297500Y-90805000D03*
X151422500Y-90805000D03*
D14*
X139700000Y-94335000D03*
X139700000Y-97435000D03*
D23*
X187960000Y-123407500D03*
X187960000Y-120432500D03*
D28*
X104280000Y-125730000D03*
X104982944Y-124032944D03*
X104982944Y-127427056D03*
X106680000Y-123330000D03*
D29*
X106680000Y-125730000D03*
D28*
X106680000Y-128130000D03*
X108377056Y-124032944D03*
X108377056Y-127427056D03*
X109080000Y-125730000D03*
D30*
X179070000Y-53340000D03*
D25*
X173990000Y-53340000D03*
X168910000Y-53340000D03*
X163830000Y-53340000D03*
X158750000Y-53340000D03*
X153670000Y-53340000D03*
D28*
X190005000Y-49530000D03*
X190707944Y-47832944D03*
X190707944Y-51227056D03*
X192405000Y-47130000D03*
D29*
X192405000Y-49530000D03*
D28*
X192405000Y-51930000D03*
X194102056Y-47832944D03*
X194102056Y-51227056D03*
X194805000Y-49530000D03*
X104280000Y-52070000D03*
X104982944Y-50372944D03*
X104982944Y-53767056D03*
X106680000Y-49670000D03*
D29*
X106680000Y-52070000D03*
D28*
X106680000Y-54470000D03*
X108377056Y-50372944D03*
X108377056Y-53767056D03*
X109080000Y-52070000D03*
D34*
X167640000Y-68580000D03*
D35*
X165100000Y-68580000D03*
X162560000Y-68580000D03*
X160020000Y-68580000D03*
X157480000Y-68580000D03*
X154940000Y-68580000D03*
X152400000Y-68580000D03*
X149860000Y-68580000D03*
X147320000Y-68580000D03*
X144780000Y-68580000D03*
X142240000Y-68580000D03*
X139700000Y-68580000D03*
X137160000Y-68580000D03*
X134620000Y-68580000D03*
X132080000Y-68580000D03*
X129540000Y-68580000D03*
D36*
X127000000Y-71120000D03*
D37*
X127000000Y-73660000D03*
X127000000Y-76200000D03*
X127000000Y-78740000D03*
X127000000Y-81280000D03*
X127000000Y-83820000D03*
X127000000Y-86360000D03*
X127000000Y-88900000D03*
X127000000Y-91440000D03*
X127000000Y-93980000D03*
X127000000Y-96520000D03*
X127000000Y-99060000D03*
X127000000Y-101600000D03*
X127000000Y-104140000D03*
X127000000Y-106680000D03*
X127000000Y-109220000D03*
D38*
X129540000Y-111760000D03*
D35*
X132080000Y-111760000D03*
X134620000Y-111760000D03*
X137160000Y-111760000D03*
X139700000Y-111760000D03*
X142240000Y-111760000D03*
X144780000Y-111760000D03*
X147320000Y-111760000D03*
X149860000Y-111760000D03*
X152400000Y-111760000D03*
X154940000Y-111760000D03*
X157480000Y-111760000D03*
X160020000Y-111760000D03*
X162560000Y-111760000D03*
X165100000Y-111760000D03*
X167640000Y-111760000D03*
D39*
X170180000Y-109220000D03*
D37*
X170180000Y-106680000D03*
X170180000Y-104140000D03*
X170180000Y-101600000D03*
X170180000Y-99060000D03*
X170180000Y-96520000D03*
X170180000Y-93980000D03*
X170180000Y-91440000D03*
X170180000Y-88900000D03*
X170180000Y-86360000D03*
X170180000Y-83820000D03*
X170180000Y-81280000D03*
X170180000Y-78740000D03*
X170180000Y-76200000D03*
X170180000Y-73660000D03*
X170180000Y-71120000D03*
D32*
X167640000Y-71120000D03*
D31*
X165100000Y-71120000D03*
D11*
X116622500Y-115570000D03*
X119597500Y-115570000D03*
D40*
X119380000Y-127000000D03*
D41*
X116840000Y-127000000D03*
D42*
X145110000Y-95885000D03*
X145110000Y-97155000D03*
X145110000Y-98425000D03*
X145110000Y-99695000D03*
X145110000Y-100965000D03*
X145110000Y-102235000D03*
X145110000Y-103505000D03*
X145110000Y-104775000D03*
X145110000Y-106045000D03*
X145110000Y-107315000D03*
X154610000Y-107315000D03*
X154610000Y-106045000D03*
X154610000Y-104775000D03*
X154610000Y-103505000D03*
X154610000Y-102235000D03*
X154610000Y-100965000D03*
X154610000Y-99695000D03*
X154610000Y-98425000D03*
X154610000Y-97155000D03*
X154610000Y-95885000D03*
M02*
