G04 #@! TF.GenerationSoftware,KiCad,Pcbnew,(6.0.6-33-g9052b063de)*
G04 #@! TF.CreationDate,2022-08-07T22:11:36+02:00*
G04 #@! TF.ProjectId,CANduino128,43414e64-7569-46e6-9f31-32382e6b6963,rev?*
G04 #@! TF.SameCoordinates,Original*
G04 #@! TF.FileFunction,Soldermask,Top*
G04 #@! TF.FilePolarity,Negative*
%FSLAX46Y46*%
G04 Gerber Fmt 4.6, Leading zero omitted, Abs format (unit mm)*
G04 Created by KiCad (PCBNEW (6.0.6-33-g9052b063de)) date 2022-08-07 22:11:36*
%MOMM*%
%LPD*%
G01*
G04 APERTURE LIST*
G04 Aperture macros list*
%AMRoundRect*
0 Rectangle with rounded corners*
0 $1 Rounding radius*
0 $2 $3 $4 $5 $6 $7 $8 $9 X,Y pos of 4 corners*
0 Add a 4 corners polygon primitive as box body*
4,1,4,$2,$3,$4,$5,$6,$7,$8,$9,$2,$3,0*
0 Add four circle primitives for the rounded corners*
1,1,$1+$1,$2,$3*
1,1,$1+$1,$4,$5*
1,1,$1+$1,$6,$7*
1,1,$1+$1,$8,$9*
0 Add four rect primitives between the rounded corners*
20,1,$1+$1,$2,$3,$4,$5,0*
20,1,$1+$1,$4,$5,$6,$7,0*
20,1,$1+$1,$6,$7,$8,$9,0*
20,1,$1+$1,$8,$9,$2,$3,0*%
%AMFreePoly0*
4,1,6,1.000000,0.000000,0.500000,-0.750000,-0.500000,-0.750000,-0.500000,0.750000,0.500000,0.750000,1.000000,0.000000,1.000000,0.000000,$1*%
%AMFreePoly1*
4,1,6,0.500000,-0.750000,-0.650000,-0.750000,-0.150000,0.000000,-0.650000,0.750000,0.500000,0.750000,0.500000,-0.750000,0.500000,-0.750000,$1*%
G04 Aperture macros list end*
%ADD10R,2.200000X2.200000*%
%ADD11C,2.200000*%
%ADD12RoundRect,0.250000X1.100000X-0.412500X1.100000X0.412500X-1.100000X0.412500X-1.100000X-0.412500X0*%
%ADD13C,2.850000*%
%ADD14RoundRect,0.249999X0.525001X0.525001X-0.525001X0.525001X-0.525001X-0.525001X0.525001X-0.525001X0*%
%ADD15C,1.550000*%
%ADD16RoundRect,0.250001X1.074999X-0.462499X1.074999X0.462499X-1.074999X0.462499X-1.074999X-0.462499X0*%
%ADD17FreePoly0,270.000000*%
%ADD18FreePoly1,270.000000*%
%ADD19RoundRect,0.250000X-1.075000X0.400000X-1.075000X-0.400000X1.075000X-0.400000X1.075000X0.400000X0*%
%ADD20C,0.800000*%
%ADD21C,6.400000*%
%ADD22RoundRect,0.250001X-0.799999X-0.799999X0.799999X-0.799999X0.799999X0.799999X-0.799999X0.799999X0*%
%ADD23R,2.400000X1.600000*%
%ADD24O,2.400000X1.600000*%
%ADD25R,1.600000X2.400000*%
%ADD26O,1.600000X2.400000*%
%ADD27C,1.600000*%
%ADD28R,1.600000X1.600000*%
%ADD29RoundRect,0.250000X-0.550000X-0.550000X0.550000X-0.550000X0.550000X0.550000X-0.550000X0.550000X0*%
%ADD30R,0.600000X1.500000*%
%ADD31RoundRect,0.250000X0.412500X1.100000X-0.412500X1.100000X-0.412500X-1.100000X0.412500X-1.100000X0*%
%ADD32RoundRect,0.250000X1.075000X-0.400000X1.075000X0.400000X-1.075000X0.400000X-1.075000X-0.400000X0*%
%ADD33RoundRect,0.250001X-1.074999X0.462499X-1.074999X-0.462499X1.074999X-0.462499X1.074999X0.462499X0*%
%ADD34C,2.600000*%
%ADD35R,2.600000X2.600000*%
%ADD36C,1.500000*%
%ADD37RoundRect,0.250000X-0.550000X0.550000X-0.550000X-0.550000X0.550000X-0.550000X0.550000X0.550000X0*%
%ADD38RoundRect,0.250000X0.400000X1.075000X-0.400000X1.075000X-0.400000X-1.075000X0.400000X-1.075000X0*%
%ADD39R,1.700000X1.700000*%
%ADD40O,1.700000X1.700000*%
%ADD41RoundRect,0.250001X0.462499X1.074999X-0.462499X1.074999X-0.462499X-1.074999X0.462499X-1.074999X0*%
G04 APERTURE END LIST*
D10*
X137160000Y-124460000D03*
D11*
X139700000Y-124460000D03*
X142240000Y-124460000D03*
X144780000Y-124460000D03*
X147320000Y-124460000D03*
X149860000Y-124460000D03*
X152400000Y-124460000D03*
X154940000Y-124460000D03*
D12*
X157480000Y-60947500D03*
X157480000Y-64072500D03*
D13*
X190800000Y-43900000D03*
X190800000Y-133900000D03*
D14*
X193040000Y-128270000D03*
D15*
X193040000Y-125730000D03*
X193040000Y-123190000D03*
X193040000Y-120650000D03*
X193040000Y-118110000D03*
X193040000Y-115570000D03*
X193040000Y-113030000D03*
X193040000Y-110490000D03*
X193040000Y-107950000D03*
X193040000Y-105410000D03*
X193040000Y-102870000D03*
X193040000Y-100330000D03*
X193040000Y-97790000D03*
X193040000Y-95250000D03*
X193040000Y-92710000D03*
X193040000Y-90170000D03*
X193040000Y-87630000D03*
X193040000Y-85090000D03*
X193040000Y-82550000D03*
X193040000Y-80010000D03*
X193040000Y-77470000D03*
X193040000Y-74930000D03*
X193040000Y-72390000D03*
X193040000Y-69850000D03*
X193040000Y-67310000D03*
X193040000Y-64770000D03*
X193040000Y-62230000D03*
X193040000Y-59690000D03*
X193040000Y-57150000D03*
X193040000Y-54610000D03*
X193040000Y-52070000D03*
X193040000Y-49530000D03*
X190500000Y-128270000D03*
X190500000Y-125730000D03*
X190500000Y-123190000D03*
X190500000Y-120650000D03*
X190500000Y-118110000D03*
X190500000Y-115570000D03*
X190500000Y-113030000D03*
X190500000Y-110490000D03*
X190500000Y-107950000D03*
X190500000Y-105410000D03*
X190500000Y-102870000D03*
X190500000Y-100330000D03*
X190500000Y-97790000D03*
X190500000Y-95250000D03*
X190500000Y-92710000D03*
X190500000Y-90170000D03*
X190500000Y-87630000D03*
X190500000Y-85090000D03*
X190500000Y-82550000D03*
X190500000Y-80010000D03*
X190500000Y-77470000D03*
X190500000Y-74930000D03*
X190500000Y-72390000D03*
X190500000Y-69850000D03*
X190500000Y-67310000D03*
X190500000Y-64770000D03*
X190500000Y-62230000D03*
X190500000Y-59690000D03*
X190500000Y-57150000D03*
X190500000Y-54610000D03*
X190500000Y-52070000D03*
X190500000Y-49530000D03*
D16*
X172720000Y-125947500D03*
X172720000Y-122972500D03*
D17*
X154940000Y-84365000D03*
D18*
X154940000Y-85815000D03*
D19*
X163830000Y-106400000D03*
X163830000Y-109500000D03*
D12*
X132080000Y-60947500D03*
X132080000Y-64072500D03*
X162560000Y-60947500D03*
X162560000Y-64072500D03*
D20*
X110697944Y-53767056D03*
X112395000Y-54470000D03*
X109995000Y-52070000D03*
X114795000Y-52070000D03*
X114092056Y-50372944D03*
X112395000Y-49670000D03*
D21*
X112395000Y-52070000D03*
D20*
X110697944Y-50372944D03*
X114092056Y-53767056D03*
D22*
X127000000Y-53340000D03*
D23*
X132080000Y-73660000D03*
D24*
X132080000Y-76200000D03*
X132080000Y-78740000D03*
X132080000Y-81280000D03*
X132080000Y-83820000D03*
X132080000Y-86360000D03*
X132080000Y-88900000D03*
X132080000Y-91440000D03*
X132080000Y-93980000D03*
X132080000Y-96520000D03*
X132080000Y-99060000D03*
X132080000Y-101600000D03*
X132080000Y-104140000D03*
X132080000Y-106680000D03*
X132080000Y-109220000D03*
X132080000Y-111760000D03*
D25*
X134620000Y-114300000D03*
D26*
X137160000Y-114300000D03*
X139700000Y-114300000D03*
X142240000Y-114300000D03*
X144780000Y-114300000D03*
X147320000Y-114300000D03*
X149860000Y-114300000D03*
X152400000Y-114300000D03*
X154940000Y-114300000D03*
X157480000Y-114300000D03*
X160020000Y-114300000D03*
X162560000Y-114300000D03*
X165100000Y-114300000D03*
X167640000Y-114300000D03*
X170180000Y-114300000D03*
X172720000Y-114300000D03*
D23*
X175260000Y-111760000D03*
D24*
X175260000Y-109220000D03*
X175260000Y-106680000D03*
X175260000Y-104140000D03*
X175260000Y-101600000D03*
X175260000Y-99060000D03*
X175260000Y-96520000D03*
X175260000Y-93980000D03*
X175260000Y-91440000D03*
X175260000Y-88900000D03*
X175260000Y-86360000D03*
X175260000Y-83820000D03*
X175260000Y-81280000D03*
X175260000Y-78740000D03*
X175260000Y-76200000D03*
X175260000Y-73660000D03*
D25*
X172720000Y-71120000D03*
D26*
X170180000Y-71120000D03*
X167640000Y-71120000D03*
X165100000Y-71120000D03*
X162560000Y-71120000D03*
X160020000Y-71120000D03*
X157480000Y-71120000D03*
X154940000Y-71120000D03*
X152400000Y-71120000D03*
X149860000Y-71120000D03*
X147320000Y-71120000D03*
X144780000Y-71120000D03*
X142240000Y-71120000D03*
X139700000Y-71120000D03*
X137160000Y-71120000D03*
X134620000Y-71120000D03*
D27*
X134620000Y-73660000D03*
D28*
X134620000Y-76200000D03*
D20*
X198120000Y-127140000D03*
X196422944Y-131237056D03*
X198120000Y-131940000D03*
D21*
X198120000Y-129540000D03*
D20*
X200520000Y-129540000D03*
X196422944Y-127842944D03*
X199817056Y-127842944D03*
X199817056Y-131237056D03*
X195720000Y-129540000D03*
D29*
X177800000Y-132080000D03*
D30*
X159385000Y-96190000D03*
X160655000Y-96190000D03*
X161925000Y-96190000D03*
X163195000Y-96190000D03*
X164465000Y-96190000D03*
X165735000Y-96190000D03*
X167005000Y-96190000D03*
X168275000Y-96190000D03*
X169545000Y-96190000D03*
X170815000Y-96190000D03*
X170815000Y-86690000D03*
X169545000Y-86690000D03*
X168275000Y-86690000D03*
X167005000Y-86690000D03*
X165735000Y-86690000D03*
X164465000Y-86690000D03*
X163195000Y-86690000D03*
X161925000Y-86690000D03*
X160655000Y-86690000D03*
X159385000Y-86690000D03*
D31*
X152692500Y-97790000D03*
X149567500Y-97790000D03*
D12*
X142240000Y-60947500D03*
X142240000Y-64072500D03*
D32*
X157480000Y-80290000D03*
X157480000Y-77190000D03*
D25*
X154940000Y-101600000D03*
D26*
X152400000Y-101600000D03*
X149860000Y-101600000D03*
X147320000Y-101600000D03*
X147320000Y-109220000D03*
X149860000Y-109220000D03*
X152400000Y-109220000D03*
X154940000Y-109220000D03*
D33*
X132080000Y-122972500D03*
X132080000Y-125947500D03*
D34*
X132080000Y-53340000D03*
X137160000Y-53340000D03*
X142240000Y-53340000D03*
X147320000Y-53340000D03*
X152400000Y-53340000D03*
X157480000Y-53340000D03*
X162560000Y-53340000D03*
X167640000Y-53340000D03*
X172720000Y-53340000D03*
D35*
X177800000Y-53340000D03*
D12*
X152400000Y-60947500D03*
X152400000Y-64072500D03*
D22*
X180340000Y-119380000D03*
D17*
X149860000Y-84365000D03*
D18*
X149860000Y-85815000D03*
D36*
X128970000Y-82550000D03*
X134970000Y-82550000D03*
D37*
X140970000Y-82550000D03*
D38*
X120930000Y-55880000D03*
X117830000Y-55880000D03*
D32*
X137160000Y-96800000D03*
X137160000Y-93700000D03*
D22*
X180340000Y-114300000D03*
D12*
X147320000Y-60947500D03*
X147320000Y-64072500D03*
D20*
X198120000Y-47130000D03*
X199817056Y-51227056D03*
D21*
X198120000Y-49530000D03*
D20*
X196422944Y-51227056D03*
X195720000Y-49530000D03*
X196422944Y-47832944D03*
X199817056Y-47832944D03*
X200520000Y-49530000D03*
X198120000Y-51930000D03*
D12*
X172720000Y-60947500D03*
X172720000Y-64072500D03*
D35*
X121920000Y-96520000D03*
D34*
X121920000Y-101600000D03*
X121920000Y-106680000D03*
X121920000Y-111760000D03*
X121920000Y-116840000D03*
X121920000Y-121920000D03*
D32*
X152400000Y-80290000D03*
X152400000Y-77190000D03*
D36*
X128970000Y-80010000D03*
X134970000Y-80010000D03*
D37*
X140970000Y-80010000D03*
D12*
X137160000Y-60947500D03*
X137160000Y-64072500D03*
D19*
X160020000Y-106400000D03*
X160020000Y-109500000D03*
D39*
X160020000Y-124460000D03*
D40*
X162560000Y-124460000D03*
D12*
X167640000Y-60947500D03*
X167640000Y-64072500D03*
X154305000Y-93002500D03*
X154305000Y-89877500D03*
D19*
X167640000Y-106400000D03*
X167640000Y-109500000D03*
D41*
X117892500Y-50800000D03*
X120867500Y-50800000D03*
D35*
X121920000Y-63500000D03*
D34*
X121920000Y-68580000D03*
X121920000Y-73660000D03*
X121920000Y-78740000D03*
X121920000Y-83820000D03*
X121920000Y-88900000D03*
D20*
X114795000Y-125730000D03*
X110697944Y-124032944D03*
X110697944Y-127427056D03*
X114092056Y-124032944D03*
X114092056Y-127427056D03*
X109995000Y-125730000D03*
X112395000Y-128130000D03*
D21*
X112395000Y-125730000D03*
D20*
X112395000Y-123330000D03*
D16*
X167640000Y-125947500D03*
X167640000Y-122972500D03*
M02*
