%TF.GenerationSoftware,KiCad,Pcbnew,(6.0.6-33-g9052b063de)*%
%TF.CreationDate,2022-08-14T01:47:17+02:00*%
%TF.ProjectId,CANduino128,43414e64-7569-46e6-9f31-32382e6b6963,rev?*%
%TF.SameCoordinates,Original*%
%TF.FileFunction,Drillmap*%
%TF.FilePolarity,Positive*%
%FSLAX45Y45*%
G04 Gerber Fmt 4.5, Leading zero omitted, Abs format (unit mm)*
G04 Created by KiCad (PCBNEW (6.0.6-33-g9052b063de)) date 2022-08-14 01:47:17*
%MOMM*%
%LPD*%
G01*
G04 APERTURE LIST*
%ADD10C,0.100000*%
%ADD11C,0.200000*%
%ADD12C,0.040000*%
%ADD13C,0.050000*%
%ADD14C,0.060000*%
%ADD15C,0.080000*%
%ADD16C,0.110000*%
%ADD17C,0.130000*%
%ADD18C,0.320000*%
G04 APERTURE END LIST*
D10*
X10731500Y-12954000D02*
G75*
G03*
X11239500Y-13462000I508000J0D01*
G01*
X19812000Y-13462000D02*
G75*
G03*
X20320000Y-12954000I0J508000D01*
G01*
X11239500Y-4445000D02*
X19812000Y-4445000D01*
X19812000Y-13462000D02*
X11239500Y-13462000D01*
X11239500Y-4445000D02*
G75*
G03*
X10731500Y-4953000I0J-508000D01*
G01*
X10731500Y-12954000D02*
X10731500Y-4953000D01*
X20320000Y-4953000D02*
G75*
G03*
X19812000Y-4445000I-508000J0D01*
G01*
X20320000Y-12954000D02*
X20320000Y-4953000D01*
D11*
D12*
X14331000Y-12235500D02*
X14371000Y-12275500D01*
X14371000Y-12235500D02*
X14331000Y-12275500D01*
X16172500Y-9378000D02*
X16212500Y-9418000D01*
X16212500Y-9378000D02*
X16172500Y-9418000D01*
X16299500Y-8870000D02*
X16339500Y-8910000D01*
X16339500Y-8870000D02*
X16299500Y-8910000D01*
X16299500Y-9251000D02*
X16339500Y-9291000D01*
X16339500Y-9251000D02*
X16299500Y-9291000D01*
X16680500Y-9378000D02*
X16720500Y-9418000D01*
X16720500Y-9378000D02*
X16680500Y-9418000D01*
X16807500Y-9251000D02*
X16847500Y-9291000D01*
X16847500Y-9251000D02*
X16807500Y-9291000D01*
X17125000Y-10775000D02*
X17165000Y-10815000D01*
X17165000Y-10775000D02*
X17125000Y-10815000D01*
X17569500Y-11473500D02*
X17609500Y-11513500D01*
X17609500Y-11473500D02*
X17569500Y-11513500D01*
X17760000Y-10648000D02*
X17800000Y-10688000D01*
X17800000Y-10648000D02*
X17760000Y-10688000D01*
X17887000Y-10394000D02*
X17927000Y-10434000D01*
X17927000Y-10394000D02*
X17887000Y-10434000D01*
X17950500Y-10140000D02*
X17990500Y-10180000D01*
X17990500Y-10140000D02*
X17950500Y-10180000D01*
X18014000Y-9886000D02*
X18054000Y-9926000D01*
X18054000Y-9886000D02*
X18014000Y-9926000D01*
X18077500Y-9632000D02*
X18117500Y-9672000D01*
X18117500Y-9632000D02*
X18077500Y-9672000D01*
X18141000Y-9378000D02*
X18181000Y-9418000D01*
X18181000Y-9378000D02*
X18141000Y-9418000D01*
X18149950Y-8997000D02*
X18189950Y-9037000D01*
X18189950Y-8997000D02*
X18149950Y-9037000D01*
X18259050Y-8870000D02*
X18299050Y-8910000D01*
X18299050Y-8870000D02*
X18259050Y-8910000D01*
X19474500Y-7092000D02*
X19514500Y-7132000D01*
X19514500Y-7092000D02*
X19474500Y-7132000D01*
D13*
X11024500Y-5207000D02*
G75*
G03*
X11024500Y-5207000I-25000J0D01*
G01*
X11024500Y-12573000D02*
G75*
G03*
X11024500Y-12573000I-25000J0D01*
G01*
X11094794Y-5037294D02*
G75*
G03*
X11094794Y-5037294I-25000J0D01*
G01*
X11094794Y-5376706D02*
G75*
G03*
X11094794Y-5376706I-25000J0D01*
G01*
X11094794Y-12403294D02*
G75*
G03*
X11094794Y-12403294I-25000J0D01*
G01*
X11094794Y-12742706D02*
G75*
G03*
X11094794Y-12742706I-25000J0D01*
G01*
X11264500Y-4967000D02*
G75*
G03*
X11264500Y-4967000I-25000J0D01*
G01*
X11264500Y-5447000D02*
G75*
G03*
X11264500Y-5447000I-25000J0D01*
G01*
X11264500Y-12333000D02*
G75*
G03*
X11264500Y-12333000I-25000J0D01*
G01*
X11264500Y-12813000D02*
G75*
G03*
X11264500Y-12813000I-25000J0D01*
G01*
X11434206Y-5037294D02*
G75*
G03*
X11434206Y-5037294I-25000J0D01*
G01*
X11434206Y-5376706D02*
G75*
G03*
X11434206Y-5376706I-25000J0D01*
G01*
X11434206Y-12403294D02*
G75*
G03*
X11434206Y-12403294I-25000J0D01*
G01*
X11434206Y-12742706D02*
G75*
G03*
X11434206Y-12742706I-25000J0D01*
G01*
X11504500Y-5207000D02*
G75*
G03*
X11504500Y-5207000I-25000J0D01*
G01*
X11504500Y-12573000D02*
G75*
G03*
X11504500Y-12573000I-25000J0D01*
G01*
D14*
X14097000Y-7971000D02*
X14097000Y-8031000D01*
X14067000Y-8001000D02*
X14127000Y-8001000D01*
X14097000Y-8225000D02*
X14097000Y-8285000D01*
X14067000Y-8255000D02*
X14127000Y-8255000D01*
X17653000Y-13178000D02*
X17653000Y-13238000D01*
X17623000Y-13208000D02*
X17683000Y-13208000D01*
D15*
X13236284Y-7394284D02*
X13236284Y-7337715D01*
X13179715Y-7337715D01*
X13179715Y-7394284D01*
X13236284Y-7394284D01*
X13236284Y-7648284D02*
X13236284Y-7591715D01*
X13179715Y-7591715D01*
X13179715Y-7648284D01*
X13236284Y-7648284D01*
X13236284Y-7902284D02*
X13236284Y-7845715D01*
X13179715Y-7845715D01*
X13179715Y-7902284D01*
X13236284Y-7902284D01*
X13236284Y-8156284D02*
X13236284Y-8099715D01*
X13179715Y-8099715D01*
X13179715Y-8156284D01*
X13236284Y-8156284D01*
X13236284Y-8410285D02*
X13236284Y-8353715D01*
X13179715Y-8353715D01*
X13179715Y-8410285D01*
X13236284Y-8410285D01*
X13236284Y-8664285D02*
X13236284Y-8607716D01*
X13179715Y-8607716D01*
X13179715Y-8664285D01*
X13236284Y-8664285D01*
X13236284Y-8918285D02*
X13236284Y-8861716D01*
X13179715Y-8861716D01*
X13179715Y-8918285D01*
X13236284Y-8918285D01*
X13236284Y-9172285D02*
X13236284Y-9115716D01*
X13179715Y-9115716D01*
X13179715Y-9172285D01*
X13236284Y-9172285D01*
X13236284Y-9426285D02*
X13236284Y-9369716D01*
X13179715Y-9369716D01*
X13179715Y-9426285D01*
X13236284Y-9426285D01*
X13236284Y-9680285D02*
X13236284Y-9623716D01*
X13179715Y-9623716D01*
X13179715Y-9680285D01*
X13236284Y-9680285D01*
X13236284Y-9934285D02*
X13236284Y-9877716D01*
X13179715Y-9877716D01*
X13179715Y-9934285D01*
X13236284Y-9934285D01*
X13236284Y-10188285D02*
X13236284Y-10131716D01*
X13179715Y-10131716D01*
X13179715Y-10188285D01*
X13236284Y-10188285D01*
X13236284Y-10442285D02*
X13236284Y-10385716D01*
X13179715Y-10385716D01*
X13179715Y-10442285D01*
X13236284Y-10442285D01*
X13236284Y-10696285D02*
X13236284Y-10639716D01*
X13179715Y-10639716D01*
X13179715Y-10696285D01*
X13236284Y-10696285D01*
X13236284Y-10950285D02*
X13236284Y-10893716D01*
X13179715Y-10893716D01*
X13179715Y-10950285D01*
X13236284Y-10950285D01*
X13236284Y-11204284D02*
X13236284Y-11147716D01*
X13179715Y-11147716D01*
X13179715Y-11204284D01*
X13236284Y-11204284D01*
X13490284Y-7140284D02*
X13490284Y-7083715D01*
X13433715Y-7083715D01*
X13433715Y-7140284D01*
X13490284Y-7140284D01*
X13490284Y-7394284D02*
X13490284Y-7337715D01*
X13433715Y-7337715D01*
X13433715Y-7394284D01*
X13490284Y-7394284D01*
X13490284Y-7648284D02*
X13490284Y-7591715D01*
X13433715Y-7591715D01*
X13433715Y-7648284D01*
X13490284Y-7648284D01*
X13490284Y-11458284D02*
X13490284Y-11401715D01*
X13433715Y-11401715D01*
X13433715Y-11458284D01*
X13490284Y-11458284D01*
X13744284Y-7140284D02*
X13744284Y-7083715D01*
X13687715Y-7083715D01*
X13687715Y-7140284D01*
X13744284Y-7140284D01*
X13744284Y-11458284D02*
X13744284Y-11401715D01*
X13687715Y-11401715D01*
X13687715Y-11458284D01*
X13744284Y-11458284D01*
X13998284Y-7140284D02*
X13998284Y-7083715D01*
X13941715Y-7083715D01*
X13941715Y-7140284D01*
X13998284Y-7140284D01*
X13998284Y-11458284D02*
X13998284Y-11401715D01*
X13941715Y-11401715D01*
X13941715Y-11458284D01*
X13998284Y-11458284D01*
X14252284Y-7140284D02*
X14252284Y-7083715D01*
X14195715Y-7083715D01*
X14195715Y-7140284D01*
X14252284Y-7140284D01*
X14252284Y-11458284D02*
X14252284Y-11401715D01*
X14195715Y-11401715D01*
X14195715Y-11458284D01*
X14252284Y-11458284D01*
X14506284Y-7140284D02*
X14506284Y-7083715D01*
X14449715Y-7083715D01*
X14449715Y-7140284D01*
X14506284Y-7140284D01*
X14506284Y-11458284D02*
X14506284Y-11401715D01*
X14449715Y-11401715D01*
X14449715Y-11458284D01*
X14506284Y-11458284D01*
X14760284Y-7140284D02*
X14760284Y-7083715D01*
X14703715Y-7083715D01*
X14703715Y-7140284D01*
X14760284Y-7140284D01*
X14760284Y-10188285D02*
X14760284Y-10131716D01*
X14703715Y-10131716D01*
X14703715Y-10188285D01*
X14760284Y-10188285D01*
X14760284Y-10950285D02*
X14760284Y-10893716D01*
X14703715Y-10893716D01*
X14703715Y-10950285D01*
X14760284Y-10950285D01*
X14760284Y-11458284D02*
X14760284Y-11401715D01*
X14703715Y-11401715D01*
X14703715Y-11458284D01*
X14760284Y-11458284D01*
X15014284Y-7140284D02*
X15014284Y-7083715D01*
X14957715Y-7083715D01*
X14957715Y-7140284D01*
X15014284Y-7140284D01*
X15014284Y-10188285D02*
X15014284Y-10131716D01*
X14957715Y-10131716D01*
X14957715Y-10188285D01*
X15014284Y-10188285D01*
X15014284Y-10950285D02*
X15014284Y-10893716D01*
X14957715Y-10893716D01*
X14957715Y-10950285D01*
X15014284Y-10950285D01*
X15014284Y-11458284D02*
X15014284Y-11401715D01*
X14957715Y-11401715D01*
X14957715Y-11458284D01*
X15014284Y-11458284D01*
X15268284Y-7140284D02*
X15268284Y-7083715D01*
X15211715Y-7083715D01*
X15211715Y-7140284D01*
X15268284Y-7140284D01*
X15268284Y-10188285D02*
X15268284Y-10131716D01*
X15211715Y-10131716D01*
X15211715Y-10188285D01*
X15268284Y-10188285D01*
X15268284Y-10950285D02*
X15268284Y-10893716D01*
X15211715Y-10893716D01*
X15211715Y-10950285D01*
X15268284Y-10950285D01*
X15268284Y-11458284D02*
X15268284Y-11401715D01*
X15211715Y-11401715D01*
X15211715Y-11458284D01*
X15268284Y-11458284D01*
X15522284Y-7140284D02*
X15522284Y-7083715D01*
X15465715Y-7083715D01*
X15465715Y-7140284D01*
X15522284Y-7140284D01*
X15522284Y-10188285D02*
X15522284Y-10131716D01*
X15465715Y-10131716D01*
X15465715Y-10188285D01*
X15522284Y-10188285D01*
X15522284Y-10950285D02*
X15522284Y-10893716D01*
X15465715Y-10893716D01*
X15465715Y-10950285D01*
X15522284Y-10950285D01*
X15522284Y-11458284D02*
X15522284Y-11401715D01*
X15465715Y-11401715D01*
X15465715Y-11458284D01*
X15522284Y-11458284D01*
X15776284Y-7140284D02*
X15776284Y-7083715D01*
X15719715Y-7083715D01*
X15719715Y-7140284D01*
X15776284Y-7140284D01*
X15776284Y-11458284D02*
X15776284Y-11401715D01*
X15719715Y-11401715D01*
X15719715Y-11458284D01*
X15776284Y-11458284D01*
X16030284Y-7140284D02*
X16030284Y-7083715D01*
X15973715Y-7083715D01*
X15973715Y-7140284D01*
X16030284Y-7140284D01*
X16030284Y-11458284D02*
X16030284Y-11401715D01*
X15973715Y-11401715D01*
X15973715Y-11458284D01*
X16030284Y-11458284D01*
X16284284Y-7140284D02*
X16284284Y-7083715D01*
X16227715Y-7083715D01*
X16227715Y-7140284D01*
X16284284Y-7140284D01*
X16284284Y-11458284D02*
X16284284Y-11401715D01*
X16227715Y-11401715D01*
X16227715Y-11458284D01*
X16284284Y-11458284D01*
X16538284Y-7140284D02*
X16538284Y-7083715D01*
X16481715Y-7083715D01*
X16481715Y-7140284D01*
X16538284Y-7140284D01*
X16538284Y-11458284D02*
X16538284Y-11401715D01*
X16481715Y-11401715D01*
X16481715Y-11458284D01*
X16538284Y-11458284D01*
X16792285Y-7140284D02*
X16792285Y-7083715D01*
X16735715Y-7083715D01*
X16735715Y-7140284D01*
X16792285Y-7140284D01*
X16792285Y-11458284D02*
X16792285Y-11401715D01*
X16735715Y-11401715D01*
X16735715Y-11458284D01*
X16792285Y-11458284D01*
X17046285Y-7140284D02*
X17046285Y-7083715D01*
X16989716Y-7083715D01*
X16989716Y-7140284D01*
X17046285Y-7140284D01*
X17046285Y-11458284D02*
X17046285Y-11401715D01*
X16989716Y-11401715D01*
X16989716Y-11458284D01*
X17046285Y-11458284D01*
X17300285Y-7140284D02*
X17300285Y-7083715D01*
X17243716Y-7083715D01*
X17243716Y-7140284D01*
X17300285Y-7140284D01*
X17300285Y-11458284D02*
X17300285Y-11401715D01*
X17243716Y-11401715D01*
X17243716Y-11458284D01*
X17300285Y-11458284D01*
X17554285Y-7394284D02*
X17554285Y-7337715D01*
X17497716Y-7337715D01*
X17497716Y-7394284D01*
X17554285Y-7394284D01*
X17554285Y-7648284D02*
X17554285Y-7591715D01*
X17497716Y-7591715D01*
X17497716Y-7648284D01*
X17554285Y-7648284D01*
X17554285Y-7902284D02*
X17554285Y-7845715D01*
X17497716Y-7845715D01*
X17497716Y-7902284D01*
X17554285Y-7902284D01*
X17554285Y-8156284D02*
X17554285Y-8099715D01*
X17497716Y-8099715D01*
X17497716Y-8156284D01*
X17554285Y-8156284D01*
X17554285Y-8410285D02*
X17554285Y-8353715D01*
X17497716Y-8353715D01*
X17497716Y-8410285D01*
X17554285Y-8410285D01*
X17554285Y-8664285D02*
X17554285Y-8607716D01*
X17497716Y-8607716D01*
X17497716Y-8664285D01*
X17554285Y-8664285D01*
X17554285Y-8918285D02*
X17554285Y-8861716D01*
X17497716Y-8861716D01*
X17497716Y-8918285D01*
X17554285Y-8918285D01*
X17554285Y-9172285D02*
X17554285Y-9115716D01*
X17497716Y-9115716D01*
X17497716Y-9172285D01*
X17554285Y-9172285D01*
X17554285Y-9426285D02*
X17554285Y-9369716D01*
X17497716Y-9369716D01*
X17497716Y-9426285D01*
X17554285Y-9426285D01*
X17554285Y-9680285D02*
X17554285Y-9623716D01*
X17497716Y-9623716D01*
X17497716Y-9680285D01*
X17554285Y-9680285D01*
X17554285Y-9934285D02*
X17554285Y-9877716D01*
X17497716Y-9877716D01*
X17497716Y-9934285D01*
X17554285Y-9934285D01*
X17554285Y-10188285D02*
X17554285Y-10131716D01*
X17497716Y-10131716D01*
X17497716Y-10188285D01*
X17554285Y-10188285D01*
X17554285Y-10442285D02*
X17554285Y-10385716D01*
X17497716Y-10385716D01*
X17497716Y-10442285D01*
X17554285Y-10442285D01*
X17554285Y-10696285D02*
X17554285Y-10639716D01*
X17497716Y-10639716D01*
X17497716Y-10696285D01*
X17554285Y-10696285D01*
X17554285Y-10950285D02*
X17554285Y-10893716D01*
X17497716Y-10893716D01*
X17497716Y-10950285D01*
X17554285Y-10950285D01*
X17554285Y-11204284D02*
X17554285Y-11147716D01*
X17497716Y-11147716D01*
X17497716Y-11204284D01*
X17554285Y-11204284D01*
D10*
X16002000Y-12242000D02*
X16052000Y-12192000D01*
X16002000Y-12142000D01*
X15952000Y-12192000D01*
X16002000Y-12242000D01*
X16002000Y-12496000D02*
X16052000Y-12446000D01*
X16002000Y-12396000D01*
X15952000Y-12446000D01*
X16002000Y-12496000D01*
X19050000Y-5003000D02*
X19100000Y-4953000D01*
X19050000Y-4903000D01*
X19000000Y-4953000D01*
X19050000Y-5003000D01*
X19050000Y-5257000D02*
X19100000Y-5207000D01*
X19050000Y-5157000D01*
X19000000Y-5207000D01*
X19050000Y-5257000D01*
X19050000Y-5511000D02*
X19100000Y-5461000D01*
X19050000Y-5411000D01*
X19000000Y-5461000D01*
X19050000Y-5511000D01*
X19050000Y-5765000D02*
X19100000Y-5715000D01*
X19050000Y-5665000D01*
X19000000Y-5715000D01*
X19050000Y-5765000D01*
X19050000Y-6019000D02*
X19100000Y-5969000D01*
X19050000Y-5919000D01*
X19000000Y-5969000D01*
X19050000Y-6019000D01*
X19050000Y-6273000D02*
X19100000Y-6223000D01*
X19050000Y-6173000D01*
X19000000Y-6223000D01*
X19050000Y-6273000D01*
X19050000Y-6527000D02*
X19100000Y-6477000D01*
X19050000Y-6427000D01*
X19000000Y-6477000D01*
X19050000Y-6527000D01*
X19050000Y-6781000D02*
X19100000Y-6731000D01*
X19050000Y-6681000D01*
X19000000Y-6731000D01*
X19050000Y-6781000D01*
X19050000Y-7035000D02*
X19100000Y-6985000D01*
X19050000Y-6935000D01*
X19000000Y-6985000D01*
X19050000Y-7035000D01*
X19050000Y-7289000D02*
X19100000Y-7239000D01*
X19050000Y-7189000D01*
X19000000Y-7239000D01*
X19050000Y-7289000D01*
X19050000Y-7543000D02*
X19100000Y-7493000D01*
X19050000Y-7443000D01*
X19000000Y-7493000D01*
X19050000Y-7543000D01*
X19050000Y-7797000D02*
X19100000Y-7747000D01*
X19050000Y-7697000D01*
X19000000Y-7747000D01*
X19050000Y-7797000D01*
X19050000Y-8051000D02*
X19100000Y-8001000D01*
X19050000Y-7951000D01*
X19000000Y-8001000D01*
X19050000Y-8051000D01*
X19050000Y-8305000D02*
X19100000Y-8255000D01*
X19050000Y-8205000D01*
X19000000Y-8255000D01*
X19050000Y-8305000D01*
X19050000Y-8559000D02*
X19100000Y-8509000D01*
X19050000Y-8459000D01*
X19000000Y-8509000D01*
X19050000Y-8559000D01*
X19050000Y-8813000D02*
X19100000Y-8763000D01*
X19050000Y-8713000D01*
X19000000Y-8763000D01*
X19050000Y-8813000D01*
X19050000Y-9067000D02*
X19100000Y-9017000D01*
X19050000Y-8967000D01*
X19000000Y-9017000D01*
X19050000Y-9067000D01*
X19050000Y-9321000D02*
X19100000Y-9271000D01*
X19050000Y-9221000D01*
X19000000Y-9271000D01*
X19050000Y-9321000D01*
X19050000Y-9575000D02*
X19100000Y-9525000D01*
X19050000Y-9475000D01*
X19000000Y-9525000D01*
X19050000Y-9575000D01*
X19050000Y-9829000D02*
X19100000Y-9779000D01*
X19050000Y-9729000D01*
X19000000Y-9779000D01*
X19050000Y-9829000D01*
X19050000Y-10083000D02*
X19100000Y-10033000D01*
X19050000Y-9983000D01*
X19000000Y-10033000D01*
X19050000Y-10083000D01*
X19050000Y-10337000D02*
X19100000Y-10287000D01*
X19050000Y-10237000D01*
X19000000Y-10287000D01*
X19050000Y-10337000D01*
X19050000Y-10591000D02*
X19100000Y-10541000D01*
X19050000Y-10491000D01*
X19000000Y-10541000D01*
X19050000Y-10591000D01*
X19050000Y-10845000D02*
X19100000Y-10795000D01*
X19050000Y-10745000D01*
X19000000Y-10795000D01*
X19050000Y-10845000D01*
X19050000Y-11099000D02*
X19100000Y-11049000D01*
X19050000Y-10999000D01*
X19000000Y-11049000D01*
X19050000Y-11099000D01*
X19050000Y-11353000D02*
X19100000Y-11303000D01*
X19050000Y-11253000D01*
X19000000Y-11303000D01*
X19050000Y-11353000D01*
X19050000Y-11607000D02*
X19100000Y-11557000D01*
X19050000Y-11507000D01*
X19000000Y-11557000D01*
X19050000Y-11607000D01*
X19050000Y-11861000D02*
X19100000Y-11811000D01*
X19050000Y-11761000D01*
X19000000Y-11811000D01*
X19050000Y-11861000D01*
X19050000Y-12115000D02*
X19100000Y-12065000D01*
X19050000Y-12015000D01*
X19000000Y-12065000D01*
X19050000Y-12115000D01*
X19050000Y-12369000D02*
X19100000Y-12319000D01*
X19050000Y-12269000D01*
X19000000Y-12319000D01*
X19050000Y-12369000D01*
X19050000Y-12623000D02*
X19100000Y-12573000D01*
X19050000Y-12523000D01*
X19000000Y-12573000D01*
X19050000Y-12623000D01*
X19050000Y-12877000D02*
X19100000Y-12827000D01*
X19050000Y-12777000D01*
X19000000Y-12827000D01*
X19050000Y-12877000D01*
X19304000Y-5003000D02*
X19354000Y-4953000D01*
X19304000Y-4903000D01*
X19254000Y-4953000D01*
X19304000Y-5003000D01*
X19304000Y-5257000D02*
X19354000Y-5207000D01*
X19304000Y-5157000D01*
X19254000Y-5207000D01*
X19304000Y-5257000D01*
X19304000Y-5511000D02*
X19354000Y-5461000D01*
X19304000Y-5411000D01*
X19254000Y-5461000D01*
X19304000Y-5511000D01*
X19304000Y-5765000D02*
X19354000Y-5715000D01*
X19304000Y-5665000D01*
X19254000Y-5715000D01*
X19304000Y-5765000D01*
X19304000Y-6019000D02*
X19354000Y-5969000D01*
X19304000Y-5919000D01*
X19254000Y-5969000D01*
X19304000Y-6019000D01*
X19304000Y-6273000D02*
X19354000Y-6223000D01*
X19304000Y-6173000D01*
X19254000Y-6223000D01*
X19304000Y-6273000D01*
X19304000Y-6527000D02*
X19354000Y-6477000D01*
X19304000Y-6427000D01*
X19254000Y-6477000D01*
X19304000Y-6527000D01*
X19304000Y-6781000D02*
X19354000Y-6731000D01*
X19304000Y-6681000D01*
X19254000Y-6731000D01*
X19304000Y-6781000D01*
X19304000Y-7035000D02*
X19354000Y-6985000D01*
X19304000Y-6935000D01*
X19254000Y-6985000D01*
X19304000Y-7035000D01*
X19304000Y-7289000D02*
X19354000Y-7239000D01*
X19304000Y-7189000D01*
X19254000Y-7239000D01*
X19304000Y-7289000D01*
X19304000Y-7543000D02*
X19354000Y-7493000D01*
X19304000Y-7443000D01*
X19254000Y-7493000D01*
X19304000Y-7543000D01*
X19304000Y-7797000D02*
X19354000Y-7747000D01*
X19304000Y-7697000D01*
X19254000Y-7747000D01*
X19304000Y-7797000D01*
X19304000Y-8051000D02*
X19354000Y-8001000D01*
X19304000Y-7951000D01*
X19254000Y-8001000D01*
X19304000Y-8051000D01*
X19304000Y-8305000D02*
X19354000Y-8255000D01*
X19304000Y-8205000D01*
X19254000Y-8255000D01*
X19304000Y-8305000D01*
X19304000Y-8559000D02*
X19354000Y-8509000D01*
X19304000Y-8459000D01*
X19254000Y-8509000D01*
X19304000Y-8559000D01*
X19304000Y-8813000D02*
X19354000Y-8763000D01*
X19304000Y-8713000D01*
X19254000Y-8763000D01*
X19304000Y-8813000D01*
X19304000Y-9067000D02*
X19354000Y-9017000D01*
X19304000Y-8967000D01*
X19254000Y-9017000D01*
X19304000Y-9067000D01*
X19304000Y-9321000D02*
X19354000Y-9271000D01*
X19304000Y-9221000D01*
X19254000Y-9271000D01*
X19304000Y-9321000D01*
X19304000Y-9575000D02*
X19354000Y-9525000D01*
X19304000Y-9475000D01*
X19254000Y-9525000D01*
X19304000Y-9575000D01*
X19304000Y-9829000D02*
X19354000Y-9779000D01*
X19304000Y-9729000D01*
X19254000Y-9779000D01*
X19304000Y-9829000D01*
X19304000Y-10083000D02*
X19354000Y-10033000D01*
X19304000Y-9983000D01*
X19254000Y-10033000D01*
X19304000Y-10083000D01*
X19304000Y-10337000D02*
X19354000Y-10287000D01*
X19304000Y-10237000D01*
X19254000Y-10287000D01*
X19304000Y-10337000D01*
X19304000Y-10591000D02*
X19354000Y-10541000D01*
X19304000Y-10491000D01*
X19254000Y-10541000D01*
X19304000Y-10591000D01*
X19304000Y-10845000D02*
X19354000Y-10795000D01*
X19304000Y-10745000D01*
X19254000Y-10795000D01*
X19304000Y-10845000D01*
X19304000Y-11099000D02*
X19354000Y-11049000D01*
X19304000Y-10999000D01*
X19254000Y-11049000D01*
X19304000Y-11099000D01*
X19304000Y-11353000D02*
X19354000Y-11303000D01*
X19304000Y-11253000D01*
X19254000Y-11303000D01*
X19304000Y-11353000D01*
X19304000Y-11607000D02*
X19354000Y-11557000D01*
X19304000Y-11507000D01*
X19254000Y-11557000D01*
X19304000Y-11607000D01*
X19304000Y-11861000D02*
X19354000Y-11811000D01*
X19304000Y-11761000D01*
X19254000Y-11811000D01*
X19304000Y-11861000D01*
X19304000Y-12115000D02*
X19354000Y-12065000D01*
X19304000Y-12015000D01*
X19254000Y-12065000D01*
X19304000Y-12115000D01*
X19304000Y-12369000D02*
X19354000Y-12319000D01*
X19304000Y-12269000D01*
X19254000Y-12319000D01*
X19304000Y-12369000D01*
X19304000Y-12623000D02*
X19354000Y-12573000D01*
X19304000Y-12523000D01*
X19254000Y-12573000D01*
X19304000Y-12623000D01*
X19304000Y-12877000D02*
X19354000Y-12827000D01*
X19304000Y-12777000D01*
X19254000Y-12827000D01*
X19304000Y-12877000D01*
D16*
X12645000Y-5279000D02*
X12755000Y-5389000D01*
X12755000Y-5279000D02*
X12645000Y-5389000D01*
X12755000Y-5334000D02*
G75*
G03*
X12755000Y-5334000I-55000J0D01*
G01*
X13661000Y-12391000D02*
X13771000Y-12501000D01*
X13771000Y-12391000D02*
X13661000Y-12501000D01*
X13771000Y-12446000D02*
G75*
G03*
X13771000Y-12446000I-55000J0D01*
G01*
X13915000Y-12391000D02*
X14025000Y-12501000D01*
X14025000Y-12391000D02*
X13915000Y-12501000D01*
X14025000Y-12446000D02*
G75*
G03*
X14025000Y-12446000I-55000J0D01*
G01*
X14169000Y-12391000D02*
X14279000Y-12501000D01*
X14279000Y-12391000D02*
X14169000Y-12501000D01*
X14279000Y-12446000D02*
G75*
G03*
X14279000Y-12446000I-55000J0D01*
G01*
X14423000Y-12391000D02*
X14533000Y-12501000D01*
X14533000Y-12391000D02*
X14423000Y-12501000D01*
X14533000Y-12446000D02*
G75*
G03*
X14533000Y-12446000I-55000J0D01*
G01*
X14677000Y-12391000D02*
X14787000Y-12501000D01*
X14787000Y-12391000D02*
X14677000Y-12501000D01*
X14787000Y-12446000D02*
G75*
G03*
X14787000Y-12446000I-55000J0D01*
G01*
X14931000Y-12391000D02*
X15041000Y-12501000D01*
X15041000Y-12391000D02*
X14931000Y-12501000D01*
X15041000Y-12446000D02*
G75*
G03*
X15041000Y-12446000I-55000J0D01*
G01*
X15185000Y-12391000D02*
X15295000Y-12501000D01*
X15295000Y-12391000D02*
X15185000Y-12501000D01*
X15295000Y-12446000D02*
G75*
G03*
X15295000Y-12446000I-55000J0D01*
G01*
X15439000Y-12391000D02*
X15549000Y-12501000D01*
X15549000Y-12391000D02*
X15439000Y-12501000D01*
X15549000Y-12446000D02*
G75*
G03*
X15549000Y-12446000I-55000J0D01*
G01*
X17979000Y-12391000D02*
X18089000Y-12501000D01*
X18089000Y-12391000D02*
X17979000Y-12501000D01*
X18089000Y-12446000D02*
G75*
G03*
X18089000Y-12446000I-55000J0D01*
G01*
X17979000Y-12899000D02*
X18089000Y-13009000D01*
X18089000Y-12899000D02*
X17979000Y-13009000D01*
X18089000Y-12954000D02*
G75*
G03*
X18089000Y-12954000I-55000J0D01*
G01*
D17*
X11619000Y-5904000D02*
X11749000Y-6034000D01*
X11749000Y-5904000D02*
X11619000Y-6034000D01*
X11684000Y-5904000D02*
X11684000Y-6034000D01*
X11619000Y-5969000D02*
X11749000Y-5969000D01*
X11619000Y-6412000D02*
X11749000Y-6542000D01*
X11749000Y-6412000D02*
X11619000Y-6542000D01*
X11684000Y-6412000D02*
X11684000Y-6542000D01*
X11619000Y-6477000D02*
X11749000Y-6477000D01*
X11619000Y-6920000D02*
X11749000Y-7050000D01*
X11749000Y-6920000D02*
X11619000Y-7050000D01*
X11684000Y-6920000D02*
X11684000Y-7050000D01*
X11619000Y-6985000D02*
X11749000Y-6985000D01*
X11619000Y-7428000D02*
X11749000Y-7558000D01*
X11749000Y-7428000D02*
X11619000Y-7558000D01*
X11684000Y-7428000D02*
X11684000Y-7558000D01*
X11619000Y-7493000D02*
X11749000Y-7493000D01*
X11619000Y-7936000D02*
X11749000Y-8066000D01*
X11749000Y-7936000D02*
X11619000Y-8066000D01*
X11684000Y-7936000D02*
X11684000Y-8066000D01*
X11619000Y-8001000D02*
X11749000Y-8001000D01*
X11619000Y-8444000D02*
X11749000Y-8574000D01*
X11749000Y-8444000D02*
X11619000Y-8574000D01*
X11684000Y-8444000D02*
X11684000Y-8574000D01*
X11619000Y-8509000D02*
X11749000Y-8509000D01*
X11619000Y-9206000D02*
X11749000Y-9336000D01*
X11749000Y-9206000D02*
X11619000Y-9336000D01*
X11684000Y-9206000D02*
X11684000Y-9336000D01*
X11619000Y-9271000D02*
X11749000Y-9271000D01*
X11619000Y-9714000D02*
X11749000Y-9844000D01*
X11749000Y-9714000D02*
X11619000Y-9844000D01*
X11684000Y-9714000D02*
X11684000Y-9844000D01*
X11619000Y-9779000D02*
X11749000Y-9779000D01*
X11619000Y-10222000D02*
X11749000Y-10352000D01*
X11749000Y-10222000D02*
X11619000Y-10352000D01*
X11684000Y-10222000D02*
X11684000Y-10352000D01*
X11619000Y-10287000D02*
X11749000Y-10287000D01*
X11619000Y-10730000D02*
X11749000Y-10860000D01*
X11749000Y-10730000D02*
X11619000Y-10860000D01*
X11684000Y-10730000D02*
X11684000Y-10860000D01*
X11619000Y-10795000D02*
X11749000Y-10795000D01*
X11619000Y-11238000D02*
X11749000Y-11368000D01*
X11749000Y-11238000D02*
X11619000Y-11368000D01*
X11684000Y-11238000D02*
X11684000Y-11368000D01*
X11619000Y-11303000D02*
X11749000Y-11303000D01*
X11619000Y-11746000D02*
X11749000Y-11876000D01*
X11749000Y-11746000D02*
X11619000Y-11876000D01*
X11684000Y-11746000D02*
X11684000Y-11876000D01*
X11619000Y-11811000D02*
X11749000Y-11811000D01*
X13143000Y-5269000D02*
X13273000Y-5399000D01*
X13273000Y-5269000D02*
X13143000Y-5399000D01*
X13208000Y-5269000D02*
X13208000Y-5399000D01*
X13143000Y-5334000D02*
X13273000Y-5334000D01*
X13651000Y-5269000D02*
X13781000Y-5399000D01*
X13781000Y-5269000D02*
X13651000Y-5399000D01*
X13716000Y-5269000D02*
X13716000Y-5399000D01*
X13651000Y-5334000D02*
X13781000Y-5334000D01*
X14159000Y-5269000D02*
X14289000Y-5399000D01*
X14289000Y-5269000D02*
X14159000Y-5399000D01*
X14224000Y-5269000D02*
X14224000Y-5399000D01*
X14159000Y-5334000D02*
X14289000Y-5334000D01*
X14667000Y-5269000D02*
X14797000Y-5399000D01*
X14797000Y-5269000D02*
X14667000Y-5399000D01*
X14732000Y-5269000D02*
X14732000Y-5399000D01*
X14667000Y-5334000D02*
X14797000Y-5334000D01*
X15175000Y-5269000D02*
X15305000Y-5399000D01*
X15305000Y-5269000D02*
X15175000Y-5399000D01*
X15240000Y-5269000D02*
X15240000Y-5399000D01*
X15175000Y-5334000D02*
X15305000Y-5334000D01*
X15683000Y-5269000D02*
X15813000Y-5399000D01*
X15813000Y-5269000D02*
X15683000Y-5399000D01*
X15748000Y-5269000D02*
X15748000Y-5399000D01*
X15683000Y-5334000D02*
X15813000Y-5334000D01*
X16191000Y-5269000D02*
X16321000Y-5399000D01*
X16321000Y-5269000D02*
X16191000Y-5399000D01*
X16256000Y-5269000D02*
X16256000Y-5399000D01*
X16191000Y-5334000D02*
X16321000Y-5334000D01*
X16699000Y-5269000D02*
X16829000Y-5399000D01*
X16829000Y-5269000D02*
X16699000Y-5399000D01*
X16764000Y-5269000D02*
X16764000Y-5399000D01*
X16699000Y-5334000D02*
X16829000Y-5334000D01*
X17207000Y-5269000D02*
X17337000Y-5399000D01*
X17337000Y-5269000D02*
X17207000Y-5399000D01*
X17272000Y-5269000D02*
X17272000Y-5399000D01*
X17207000Y-5334000D02*
X17337000Y-5334000D01*
X17715000Y-5269000D02*
X17845000Y-5399000D01*
X17845000Y-5269000D02*
X17715000Y-5399000D01*
X17780000Y-5269000D02*
X17780000Y-5399000D01*
X17715000Y-5334000D02*
X17845000Y-5334000D01*
D18*
X11079500Y-5047000D02*
X11399500Y-5367000D01*
X11399500Y-5047000D02*
X11079500Y-5367000D01*
X11352638Y-5320138D02*
X11352638Y-5093862D01*
X11126362Y-5093862D01*
X11126362Y-5320138D01*
X11352638Y-5320138D01*
X11079500Y-12413000D02*
X11399500Y-12733000D01*
X11399500Y-12413000D02*
X11079500Y-12733000D01*
X11352638Y-12686138D02*
X11352638Y-12459862D01*
X11126362Y-12459862D01*
X11126362Y-12686138D01*
X11352638Y-12686138D01*
X19652000Y-4793000D02*
X19972000Y-5113000D01*
X19972000Y-4793000D02*
X19652000Y-5113000D01*
X19925138Y-5066138D02*
X19925138Y-4839862D01*
X19698862Y-4839862D01*
X19698862Y-5066138D01*
X19925138Y-5066138D01*
X19652000Y-12794000D02*
X19972000Y-13114000D01*
X19972000Y-12794000D02*
X19652000Y-13114000D01*
X19925138Y-13067138D02*
X19925138Y-12840862D01*
X19698862Y-12840862D01*
X19698862Y-13067138D01*
X19925138Y-13067138D01*
D11*
X10984119Y-13777476D02*
X10984119Y-13577476D01*
X11031738Y-13577476D01*
X11060310Y-13587000D01*
X11079357Y-13606048D01*
X11088881Y-13625095D01*
X11098405Y-13663190D01*
X11098405Y-13691762D01*
X11088881Y-13729857D01*
X11079357Y-13748905D01*
X11060310Y-13767952D01*
X11031738Y-13777476D01*
X10984119Y-13777476D01*
X11184119Y-13777476D02*
X11184119Y-13644143D01*
X11184119Y-13682238D02*
X11193643Y-13663190D01*
X11203167Y-13653667D01*
X11222214Y-13644143D01*
X11241262Y-13644143D01*
X11307928Y-13777476D02*
X11307928Y-13644143D01*
X11307928Y-13577476D02*
X11298405Y-13587000D01*
X11307928Y-13596524D01*
X11317452Y-13587000D01*
X11307928Y-13577476D01*
X11307928Y-13596524D01*
X11431738Y-13777476D02*
X11412690Y-13767952D01*
X11403167Y-13748905D01*
X11403167Y-13577476D01*
X11536500Y-13777476D02*
X11517452Y-13767952D01*
X11507928Y-13748905D01*
X11507928Y-13577476D01*
X11765071Y-13777476D02*
X11765071Y-13577476D01*
X11831738Y-13720333D01*
X11898405Y-13577476D01*
X11898405Y-13777476D01*
X12079357Y-13777476D02*
X12079357Y-13672714D01*
X12069833Y-13653667D01*
X12050786Y-13644143D01*
X12012690Y-13644143D01*
X11993643Y-13653667D01*
X12079357Y-13767952D02*
X12060309Y-13777476D01*
X12012690Y-13777476D01*
X11993643Y-13767952D01*
X11984119Y-13748905D01*
X11984119Y-13729857D01*
X11993643Y-13710809D01*
X12012690Y-13701286D01*
X12060309Y-13701286D01*
X12079357Y-13691762D01*
X12174595Y-13644143D02*
X12174595Y-13844143D01*
X12174595Y-13653667D02*
X12193643Y-13644143D01*
X12231738Y-13644143D01*
X12250786Y-13653667D01*
X12260309Y-13663190D01*
X12269833Y-13682238D01*
X12269833Y-13739381D01*
X12260309Y-13758428D01*
X12250786Y-13767952D01*
X12231738Y-13777476D01*
X12193643Y-13777476D01*
X12174595Y-13767952D01*
X12355548Y-13758428D02*
X12365071Y-13767952D01*
X12355548Y-13777476D01*
X12346024Y-13767952D01*
X12355548Y-13758428D01*
X12355548Y-13777476D01*
X12355548Y-13653667D02*
X12365071Y-13663190D01*
X12355548Y-13672714D01*
X12346024Y-13663190D01*
X12355548Y-13653667D01*
X12355548Y-13672714D01*
D12*
X10686500Y-14087000D02*
X10726500Y-14127000D01*
X10726500Y-14087000D02*
X10686500Y-14127000D01*
D11*
X11022214Y-13997476D02*
X11041262Y-13997476D01*
X11060310Y-14007000D01*
X11069833Y-14016524D01*
X11079357Y-14035571D01*
X11088881Y-14073667D01*
X11088881Y-14121286D01*
X11079357Y-14159381D01*
X11069833Y-14178428D01*
X11060310Y-14187952D01*
X11041262Y-14197476D01*
X11022214Y-14197476D01*
X11003167Y-14187952D01*
X10993643Y-14178428D01*
X10984119Y-14159381D01*
X10974595Y-14121286D01*
X10974595Y-14073667D01*
X10984119Y-14035571D01*
X10993643Y-14016524D01*
X11003167Y-14007000D01*
X11022214Y-13997476D01*
X11174595Y-14178428D02*
X11184119Y-14187952D01*
X11174595Y-14197476D01*
X11165071Y-14187952D01*
X11174595Y-14178428D01*
X11174595Y-14197476D01*
X11355548Y-14064143D02*
X11355548Y-14197476D01*
X11307928Y-13987952D02*
X11260309Y-14130809D01*
X11384119Y-14130809D01*
X11498405Y-13997476D02*
X11517452Y-13997476D01*
X11536500Y-14007000D01*
X11546024Y-14016524D01*
X11555548Y-14035571D01*
X11565071Y-14073667D01*
X11565071Y-14121286D01*
X11555548Y-14159381D01*
X11546024Y-14178428D01*
X11536500Y-14187952D01*
X11517452Y-14197476D01*
X11498405Y-14197476D01*
X11479357Y-14187952D01*
X11469833Y-14178428D01*
X11460309Y-14159381D01*
X11450786Y-14121286D01*
X11450786Y-14073667D01*
X11460309Y-14035571D01*
X11469833Y-14016524D01*
X11479357Y-14007000D01*
X11498405Y-13997476D01*
X11688881Y-13997476D02*
X11707928Y-13997476D01*
X11726976Y-14007000D01*
X11736500Y-14016524D01*
X11746024Y-14035571D01*
X11755548Y-14073667D01*
X11755548Y-14121286D01*
X11746024Y-14159381D01*
X11736500Y-14178428D01*
X11726976Y-14187952D01*
X11707928Y-14197476D01*
X11688881Y-14197476D01*
X11669833Y-14187952D01*
X11660309Y-14178428D01*
X11650786Y-14159381D01*
X11641262Y-14121286D01*
X11641262Y-14073667D01*
X11650786Y-14035571D01*
X11660309Y-14016524D01*
X11669833Y-14007000D01*
X11688881Y-13997476D01*
X11841262Y-14197476D02*
X11841262Y-14064143D01*
X11841262Y-14083190D02*
X11850786Y-14073667D01*
X11869833Y-14064143D01*
X11898405Y-14064143D01*
X11917452Y-14073667D01*
X11926976Y-14092714D01*
X11926976Y-14197476D01*
X11926976Y-14092714D02*
X11936500Y-14073667D01*
X11955548Y-14064143D01*
X11984119Y-14064143D01*
X12003167Y-14073667D01*
X12012690Y-14092714D01*
X12012690Y-14197476D01*
X12107928Y-14197476D02*
X12107928Y-14064143D01*
X12107928Y-14083190D02*
X12117452Y-14073667D01*
X12136500Y-14064143D01*
X12165071Y-14064143D01*
X12184119Y-14073667D01*
X12193643Y-14092714D01*
X12193643Y-14197476D01*
X12193643Y-14092714D02*
X12203167Y-14073667D01*
X12222214Y-14064143D01*
X12250786Y-14064143D01*
X12269833Y-14073667D01*
X12279357Y-14092714D01*
X12279357Y-14197476D01*
X12669833Y-13987952D02*
X12498405Y-14245095D01*
X12926976Y-13997476D02*
X12946024Y-13997476D01*
X12965071Y-14007000D01*
X12974595Y-14016524D01*
X12984119Y-14035571D01*
X12993643Y-14073667D01*
X12993643Y-14121286D01*
X12984119Y-14159381D01*
X12974595Y-14178428D01*
X12965071Y-14187952D01*
X12946024Y-14197476D01*
X12926976Y-14197476D01*
X12907928Y-14187952D01*
X12898405Y-14178428D01*
X12888881Y-14159381D01*
X12879357Y-14121286D01*
X12879357Y-14073667D01*
X12888881Y-14035571D01*
X12898405Y-14016524D01*
X12907928Y-14007000D01*
X12926976Y-13997476D01*
X13079357Y-14178428D02*
X13088881Y-14187952D01*
X13079357Y-14197476D01*
X13069833Y-14187952D01*
X13079357Y-14178428D01*
X13079357Y-14197476D01*
X13212690Y-13997476D02*
X13231738Y-13997476D01*
X13250786Y-14007000D01*
X13260309Y-14016524D01*
X13269833Y-14035571D01*
X13279357Y-14073667D01*
X13279357Y-14121286D01*
X13269833Y-14159381D01*
X13260309Y-14178428D01*
X13250786Y-14187952D01*
X13231738Y-14197476D01*
X13212690Y-14197476D01*
X13193643Y-14187952D01*
X13184119Y-14178428D01*
X13174595Y-14159381D01*
X13165071Y-14121286D01*
X13165071Y-14073667D01*
X13174595Y-14035571D01*
X13184119Y-14016524D01*
X13193643Y-14007000D01*
X13212690Y-13997476D01*
X13469833Y-14197476D02*
X13355548Y-14197476D01*
X13412690Y-14197476D02*
X13412690Y-13997476D01*
X13393643Y-14026048D01*
X13374595Y-14045095D01*
X13355548Y-14054619D01*
X13650786Y-13997476D02*
X13555548Y-13997476D01*
X13546024Y-14092714D01*
X13555548Y-14083190D01*
X13574595Y-14073667D01*
X13622214Y-14073667D01*
X13641262Y-14083190D01*
X13650786Y-14092714D01*
X13660309Y-14111762D01*
X13660309Y-14159381D01*
X13650786Y-14178428D01*
X13641262Y-14187952D01*
X13622214Y-14197476D01*
X13574595Y-14197476D01*
X13555548Y-14187952D01*
X13546024Y-14178428D01*
X13726976Y-13997476D02*
X13860309Y-13997476D01*
X13774595Y-14197476D01*
X13926976Y-13997476D02*
X13926976Y-14035571D01*
X14003167Y-13997476D02*
X14003167Y-14035571D01*
X14298405Y-14273667D02*
X14288881Y-14264143D01*
X14269833Y-14235571D01*
X14260309Y-14216524D01*
X14250786Y-14187952D01*
X14241262Y-14140333D01*
X14241262Y-14102238D01*
X14250786Y-14054619D01*
X14260309Y-14026048D01*
X14269833Y-14007000D01*
X14288881Y-13978428D01*
X14298405Y-13968905D01*
X14479357Y-14197476D02*
X14365071Y-14197476D01*
X14422214Y-14197476D02*
X14422214Y-13997476D01*
X14403167Y-14026048D01*
X14384119Y-14045095D01*
X14365071Y-14054619D01*
X14546024Y-13997476D02*
X14679357Y-13997476D01*
X14593643Y-14197476D01*
X14907928Y-14197476D02*
X14907928Y-13997476D01*
X14993643Y-14197476D02*
X14993643Y-14092714D01*
X14984119Y-14073667D01*
X14965071Y-14064143D01*
X14936500Y-14064143D01*
X14917452Y-14073667D01*
X14907928Y-14083190D01*
X15117452Y-14197476D02*
X15098405Y-14187952D01*
X15088881Y-14178428D01*
X15079357Y-14159381D01*
X15079357Y-14102238D01*
X15088881Y-14083190D01*
X15098405Y-14073667D01*
X15117452Y-14064143D01*
X15146024Y-14064143D01*
X15165071Y-14073667D01*
X15174595Y-14083190D01*
X15184119Y-14102238D01*
X15184119Y-14159381D01*
X15174595Y-14178428D01*
X15165071Y-14187952D01*
X15146024Y-14197476D01*
X15117452Y-14197476D01*
X15298405Y-14197476D02*
X15279357Y-14187952D01*
X15269833Y-14168905D01*
X15269833Y-13997476D01*
X15450786Y-14187952D02*
X15431738Y-14197476D01*
X15393643Y-14197476D01*
X15374595Y-14187952D01*
X15365071Y-14168905D01*
X15365071Y-14092714D01*
X15374595Y-14073667D01*
X15393643Y-14064143D01*
X15431738Y-14064143D01*
X15450786Y-14073667D01*
X15460309Y-14092714D01*
X15460309Y-14111762D01*
X15365071Y-14130809D01*
X15536500Y-14187952D02*
X15555548Y-14197476D01*
X15593643Y-14197476D01*
X15612690Y-14187952D01*
X15622214Y-14168905D01*
X15622214Y-14159381D01*
X15612690Y-14140333D01*
X15593643Y-14130809D01*
X15565071Y-14130809D01*
X15546024Y-14121286D01*
X15536500Y-14102238D01*
X15536500Y-14092714D01*
X15546024Y-14073667D01*
X15565071Y-14064143D01*
X15593643Y-14064143D01*
X15612690Y-14073667D01*
X15688881Y-14273667D02*
X15698405Y-14264143D01*
X15717452Y-14235571D01*
X15726976Y-14216524D01*
X15736500Y-14187952D01*
X15746024Y-14140333D01*
X15746024Y-14102238D01*
X15736500Y-14054619D01*
X15726976Y-14026048D01*
X15717452Y-14007000D01*
X15698405Y-13978428D01*
X15688881Y-13968905D01*
D13*
X10726500Y-14371000D02*
G75*
G03*
X10726500Y-14371000I-25000J0D01*
G01*
D11*
X11022214Y-14261476D02*
X11041262Y-14261476D01*
X11060310Y-14271000D01*
X11069833Y-14280524D01*
X11079357Y-14299571D01*
X11088881Y-14337667D01*
X11088881Y-14385286D01*
X11079357Y-14423381D01*
X11069833Y-14442428D01*
X11060310Y-14451952D01*
X11041262Y-14461476D01*
X11022214Y-14461476D01*
X11003167Y-14451952D01*
X10993643Y-14442428D01*
X10984119Y-14423381D01*
X10974595Y-14385286D01*
X10974595Y-14337667D01*
X10984119Y-14299571D01*
X10993643Y-14280524D01*
X11003167Y-14271000D01*
X11022214Y-14261476D01*
X11174595Y-14442428D02*
X11184119Y-14451952D01*
X11174595Y-14461476D01*
X11165071Y-14451952D01*
X11174595Y-14442428D01*
X11174595Y-14461476D01*
X11365071Y-14261476D02*
X11269833Y-14261476D01*
X11260309Y-14356714D01*
X11269833Y-14347190D01*
X11288881Y-14337667D01*
X11336500Y-14337667D01*
X11355548Y-14347190D01*
X11365071Y-14356714D01*
X11374595Y-14375762D01*
X11374595Y-14423381D01*
X11365071Y-14442428D01*
X11355548Y-14451952D01*
X11336500Y-14461476D01*
X11288881Y-14461476D01*
X11269833Y-14451952D01*
X11260309Y-14442428D01*
X11498405Y-14261476D02*
X11517452Y-14261476D01*
X11536500Y-14271000D01*
X11546024Y-14280524D01*
X11555548Y-14299571D01*
X11565071Y-14337667D01*
X11565071Y-14385286D01*
X11555548Y-14423381D01*
X11546024Y-14442428D01*
X11536500Y-14451952D01*
X11517452Y-14461476D01*
X11498405Y-14461476D01*
X11479357Y-14451952D01*
X11469833Y-14442428D01*
X11460309Y-14423381D01*
X11450786Y-14385286D01*
X11450786Y-14337667D01*
X11460309Y-14299571D01*
X11469833Y-14280524D01*
X11479357Y-14271000D01*
X11498405Y-14261476D01*
X11688881Y-14261476D02*
X11707928Y-14261476D01*
X11726976Y-14271000D01*
X11736500Y-14280524D01*
X11746024Y-14299571D01*
X11755548Y-14337667D01*
X11755548Y-14385286D01*
X11746024Y-14423381D01*
X11736500Y-14442428D01*
X11726976Y-14451952D01*
X11707928Y-14461476D01*
X11688881Y-14461476D01*
X11669833Y-14451952D01*
X11660309Y-14442428D01*
X11650786Y-14423381D01*
X11641262Y-14385286D01*
X11641262Y-14337667D01*
X11650786Y-14299571D01*
X11660309Y-14280524D01*
X11669833Y-14271000D01*
X11688881Y-14261476D01*
X11841262Y-14461476D02*
X11841262Y-14328143D01*
X11841262Y-14347190D02*
X11850786Y-14337667D01*
X11869833Y-14328143D01*
X11898405Y-14328143D01*
X11917452Y-14337667D01*
X11926976Y-14356714D01*
X11926976Y-14461476D01*
X11926976Y-14356714D02*
X11936500Y-14337667D01*
X11955548Y-14328143D01*
X11984119Y-14328143D01*
X12003167Y-14337667D01*
X12012690Y-14356714D01*
X12012690Y-14461476D01*
X12107928Y-14461476D02*
X12107928Y-14328143D01*
X12107928Y-14347190D02*
X12117452Y-14337667D01*
X12136500Y-14328143D01*
X12165071Y-14328143D01*
X12184119Y-14337667D01*
X12193643Y-14356714D01*
X12193643Y-14461476D01*
X12193643Y-14356714D02*
X12203167Y-14337667D01*
X12222214Y-14328143D01*
X12250786Y-14328143D01*
X12269833Y-14337667D01*
X12279357Y-14356714D01*
X12279357Y-14461476D01*
X12669833Y-14251952D02*
X12498405Y-14509095D01*
X12926976Y-14261476D02*
X12946024Y-14261476D01*
X12965071Y-14271000D01*
X12974595Y-14280524D01*
X12984119Y-14299571D01*
X12993643Y-14337667D01*
X12993643Y-14385286D01*
X12984119Y-14423381D01*
X12974595Y-14442428D01*
X12965071Y-14451952D01*
X12946024Y-14461476D01*
X12926976Y-14461476D01*
X12907928Y-14451952D01*
X12898405Y-14442428D01*
X12888881Y-14423381D01*
X12879357Y-14385286D01*
X12879357Y-14337667D01*
X12888881Y-14299571D01*
X12898405Y-14280524D01*
X12907928Y-14271000D01*
X12926976Y-14261476D01*
X13079357Y-14442428D02*
X13088881Y-14451952D01*
X13079357Y-14461476D01*
X13069833Y-14451952D01*
X13079357Y-14442428D01*
X13079357Y-14461476D01*
X13212690Y-14261476D02*
X13231738Y-14261476D01*
X13250786Y-14271000D01*
X13260309Y-14280524D01*
X13269833Y-14299571D01*
X13279357Y-14337667D01*
X13279357Y-14385286D01*
X13269833Y-14423381D01*
X13260309Y-14442428D01*
X13250786Y-14451952D01*
X13231738Y-14461476D01*
X13212690Y-14461476D01*
X13193643Y-14451952D01*
X13184119Y-14442428D01*
X13174595Y-14423381D01*
X13165071Y-14385286D01*
X13165071Y-14337667D01*
X13174595Y-14299571D01*
X13184119Y-14280524D01*
X13193643Y-14271000D01*
X13212690Y-14261476D01*
X13469833Y-14461476D02*
X13355548Y-14461476D01*
X13412690Y-14461476D02*
X13412690Y-14261476D01*
X13393643Y-14290048D01*
X13374595Y-14309095D01*
X13355548Y-14318619D01*
X13565071Y-14461476D02*
X13603167Y-14461476D01*
X13622214Y-14451952D01*
X13631738Y-14442428D01*
X13650786Y-14413857D01*
X13660309Y-14375762D01*
X13660309Y-14299571D01*
X13650786Y-14280524D01*
X13641262Y-14271000D01*
X13622214Y-14261476D01*
X13584119Y-14261476D01*
X13565071Y-14271000D01*
X13555548Y-14280524D01*
X13546024Y-14299571D01*
X13546024Y-14347190D01*
X13555548Y-14366238D01*
X13565071Y-14375762D01*
X13584119Y-14385286D01*
X13622214Y-14385286D01*
X13641262Y-14375762D01*
X13650786Y-14366238D01*
X13660309Y-14347190D01*
X13726976Y-14261476D02*
X13860309Y-14261476D01*
X13774595Y-14461476D01*
X13926976Y-14261476D02*
X13926976Y-14299571D01*
X14003167Y-14261476D02*
X14003167Y-14299571D01*
X14298405Y-14537667D02*
X14288881Y-14528143D01*
X14269833Y-14499571D01*
X14260309Y-14480524D01*
X14250786Y-14451952D01*
X14241262Y-14404333D01*
X14241262Y-14366238D01*
X14250786Y-14318619D01*
X14260309Y-14290048D01*
X14269833Y-14271000D01*
X14288881Y-14242428D01*
X14298405Y-14232905D01*
X14479357Y-14461476D02*
X14365071Y-14461476D01*
X14422214Y-14461476D02*
X14422214Y-14261476D01*
X14403167Y-14290048D01*
X14384119Y-14309095D01*
X14365071Y-14318619D01*
X14650786Y-14261476D02*
X14612690Y-14261476D01*
X14593643Y-14271000D01*
X14584119Y-14280524D01*
X14565071Y-14309095D01*
X14555548Y-14347190D01*
X14555548Y-14423381D01*
X14565071Y-14442428D01*
X14574595Y-14451952D01*
X14593643Y-14461476D01*
X14631738Y-14461476D01*
X14650786Y-14451952D01*
X14660309Y-14442428D01*
X14669833Y-14423381D01*
X14669833Y-14375762D01*
X14660309Y-14356714D01*
X14650786Y-14347190D01*
X14631738Y-14337667D01*
X14593643Y-14337667D01*
X14574595Y-14347190D01*
X14565071Y-14356714D01*
X14555548Y-14375762D01*
X14907928Y-14461476D02*
X14907928Y-14261476D01*
X14993643Y-14461476D02*
X14993643Y-14356714D01*
X14984119Y-14337667D01*
X14965071Y-14328143D01*
X14936500Y-14328143D01*
X14917452Y-14337667D01*
X14907928Y-14347190D01*
X15117452Y-14461476D02*
X15098405Y-14451952D01*
X15088881Y-14442428D01*
X15079357Y-14423381D01*
X15079357Y-14366238D01*
X15088881Y-14347190D01*
X15098405Y-14337667D01*
X15117452Y-14328143D01*
X15146024Y-14328143D01*
X15165071Y-14337667D01*
X15174595Y-14347190D01*
X15184119Y-14366238D01*
X15184119Y-14423381D01*
X15174595Y-14442428D01*
X15165071Y-14451952D01*
X15146024Y-14461476D01*
X15117452Y-14461476D01*
X15298405Y-14461476D02*
X15279357Y-14451952D01*
X15269833Y-14432905D01*
X15269833Y-14261476D01*
X15450786Y-14451952D02*
X15431738Y-14461476D01*
X15393643Y-14461476D01*
X15374595Y-14451952D01*
X15365071Y-14432905D01*
X15365071Y-14356714D01*
X15374595Y-14337667D01*
X15393643Y-14328143D01*
X15431738Y-14328143D01*
X15450786Y-14337667D01*
X15460309Y-14356714D01*
X15460309Y-14375762D01*
X15365071Y-14394809D01*
X15536500Y-14451952D02*
X15555548Y-14461476D01*
X15593643Y-14461476D01*
X15612690Y-14451952D01*
X15622214Y-14432905D01*
X15622214Y-14423381D01*
X15612690Y-14404333D01*
X15593643Y-14394809D01*
X15565071Y-14394809D01*
X15546024Y-14385286D01*
X15536500Y-14366238D01*
X15536500Y-14356714D01*
X15546024Y-14337667D01*
X15565071Y-14328143D01*
X15593643Y-14328143D01*
X15612690Y-14337667D01*
X15688881Y-14537667D02*
X15698405Y-14528143D01*
X15717452Y-14499571D01*
X15726976Y-14480524D01*
X15736500Y-14451952D01*
X15746024Y-14404333D01*
X15746024Y-14366238D01*
X15736500Y-14318619D01*
X15726976Y-14290048D01*
X15717452Y-14271000D01*
X15698405Y-14242428D01*
X15688881Y-14232905D01*
D14*
X10696500Y-14605000D02*
X10696500Y-14665000D01*
X10666500Y-14635000D02*
X10726500Y-14635000D01*
D11*
X11022214Y-14525476D02*
X11041262Y-14525476D01*
X11060310Y-14535000D01*
X11069833Y-14544524D01*
X11079357Y-14563571D01*
X11088881Y-14601667D01*
X11088881Y-14649286D01*
X11079357Y-14687381D01*
X11069833Y-14706428D01*
X11060310Y-14715952D01*
X11041262Y-14725476D01*
X11022214Y-14725476D01*
X11003167Y-14715952D01*
X10993643Y-14706428D01*
X10984119Y-14687381D01*
X10974595Y-14649286D01*
X10974595Y-14601667D01*
X10984119Y-14563571D01*
X10993643Y-14544524D01*
X11003167Y-14535000D01*
X11022214Y-14525476D01*
X11174595Y-14706428D02*
X11184119Y-14715952D01*
X11174595Y-14725476D01*
X11165071Y-14715952D01*
X11174595Y-14706428D01*
X11174595Y-14725476D01*
X11355548Y-14525476D02*
X11317452Y-14525476D01*
X11298405Y-14535000D01*
X11288881Y-14544524D01*
X11269833Y-14573095D01*
X11260309Y-14611190D01*
X11260309Y-14687381D01*
X11269833Y-14706428D01*
X11279357Y-14715952D01*
X11298405Y-14725476D01*
X11336500Y-14725476D01*
X11355548Y-14715952D01*
X11365071Y-14706428D01*
X11374595Y-14687381D01*
X11374595Y-14639762D01*
X11365071Y-14620714D01*
X11355548Y-14611190D01*
X11336500Y-14601667D01*
X11298405Y-14601667D01*
X11279357Y-14611190D01*
X11269833Y-14620714D01*
X11260309Y-14639762D01*
X11498405Y-14525476D02*
X11517452Y-14525476D01*
X11536500Y-14535000D01*
X11546024Y-14544524D01*
X11555548Y-14563571D01*
X11565071Y-14601667D01*
X11565071Y-14649286D01*
X11555548Y-14687381D01*
X11546024Y-14706428D01*
X11536500Y-14715952D01*
X11517452Y-14725476D01*
X11498405Y-14725476D01*
X11479357Y-14715952D01*
X11469833Y-14706428D01*
X11460309Y-14687381D01*
X11450786Y-14649286D01*
X11450786Y-14601667D01*
X11460309Y-14563571D01*
X11469833Y-14544524D01*
X11479357Y-14535000D01*
X11498405Y-14525476D01*
X11688881Y-14525476D02*
X11707928Y-14525476D01*
X11726976Y-14535000D01*
X11736500Y-14544524D01*
X11746024Y-14563571D01*
X11755548Y-14601667D01*
X11755548Y-14649286D01*
X11746024Y-14687381D01*
X11736500Y-14706428D01*
X11726976Y-14715952D01*
X11707928Y-14725476D01*
X11688881Y-14725476D01*
X11669833Y-14715952D01*
X11660309Y-14706428D01*
X11650786Y-14687381D01*
X11641262Y-14649286D01*
X11641262Y-14601667D01*
X11650786Y-14563571D01*
X11660309Y-14544524D01*
X11669833Y-14535000D01*
X11688881Y-14525476D01*
X11841262Y-14725476D02*
X11841262Y-14592143D01*
X11841262Y-14611190D02*
X11850786Y-14601667D01*
X11869833Y-14592143D01*
X11898405Y-14592143D01*
X11917452Y-14601667D01*
X11926976Y-14620714D01*
X11926976Y-14725476D01*
X11926976Y-14620714D02*
X11936500Y-14601667D01*
X11955548Y-14592143D01*
X11984119Y-14592143D01*
X12003167Y-14601667D01*
X12012690Y-14620714D01*
X12012690Y-14725476D01*
X12107928Y-14725476D02*
X12107928Y-14592143D01*
X12107928Y-14611190D02*
X12117452Y-14601667D01*
X12136500Y-14592143D01*
X12165071Y-14592143D01*
X12184119Y-14601667D01*
X12193643Y-14620714D01*
X12193643Y-14725476D01*
X12193643Y-14620714D02*
X12203167Y-14601667D01*
X12222214Y-14592143D01*
X12250786Y-14592143D01*
X12269833Y-14601667D01*
X12279357Y-14620714D01*
X12279357Y-14725476D01*
X12669833Y-14515952D02*
X12498405Y-14773095D01*
X12926976Y-14525476D02*
X12946024Y-14525476D01*
X12965071Y-14535000D01*
X12974595Y-14544524D01*
X12984119Y-14563571D01*
X12993643Y-14601667D01*
X12993643Y-14649286D01*
X12984119Y-14687381D01*
X12974595Y-14706428D01*
X12965071Y-14715952D01*
X12946024Y-14725476D01*
X12926976Y-14725476D01*
X12907928Y-14715952D01*
X12898405Y-14706428D01*
X12888881Y-14687381D01*
X12879357Y-14649286D01*
X12879357Y-14601667D01*
X12888881Y-14563571D01*
X12898405Y-14544524D01*
X12907928Y-14535000D01*
X12926976Y-14525476D01*
X13079357Y-14706428D02*
X13088881Y-14715952D01*
X13079357Y-14725476D01*
X13069833Y-14715952D01*
X13079357Y-14706428D01*
X13079357Y-14725476D01*
X13212690Y-14525476D02*
X13231738Y-14525476D01*
X13250786Y-14535000D01*
X13260309Y-14544524D01*
X13269833Y-14563571D01*
X13279357Y-14601667D01*
X13279357Y-14649286D01*
X13269833Y-14687381D01*
X13260309Y-14706428D01*
X13250786Y-14715952D01*
X13231738Y-14725476D01*
X13212690Y-14725476D01*
X13193643Y-14715952D01*
X13184119Y-14706428D01*
X13174595Y-14687381D01*
X13165071Y-14649286D01*
X13165071Y-14601667D01*
X13174595Y-14563571D01*
X13184119Y-14544524D01*
X13193643Y-14535000D01*
X13212690Y-14525476D01*
X13355548Y-14544524D02*
X13365071Y-14535000D01*
X13384119Y-14525476D01*
X13431738Y-14525476D01*
X13450786Y-14535000D01*
X13460309Y-14544524D01*
X13469833Y-14563571D01*
X13469833Y-14582619D01*
X13460309Y-14611190D01*
X13346024Y-14725476D01*
X13469833Y-14725476D01*
X13536500Y-14525476D02*
X13660309Y-14525476D01*
X13593643Y-14601667D01*
X13622214Y-14601667D01*
X13641262Y-14611190D01*
X13650786Y-14620714D01*
X13660309Y-14639762D01*
X13660309Y-14687381D01*
X13650786Y-14706428D01*
X13641262Y-14715952D01*
X13622214Y-14725476D01*
X13565071Y-14725476D01*
X13546024Y-14715952D01*
X13536500Y-14706428D01*
X13831738Y-14525476D02*
X13793643Y-14525476D01*
X13774595Y-14535000D01*
X13765071Y-14544524D01*
X13746024Y-14573095D01*
X13736500Y-14611190D01*
X13736500Y-14687381D01*
X13746024Y-14706428D01*
X13755548Y-14715952D01*
X13774595Y-14725476D01*
X13812690Y-14725476D01*
X13831738Y-14715952D01*
X13841262Y-14706428D01*
X13850786Y-14687381D01*
X13850786Y-14639762D01*
X13841262Y-14620714D01*
X13831738Y-14611190D01*
X13812690Y-14601667D01*
X13774595Y-14601667D01*
X13755548Y-14611190D01*
X13746024Y-14620714D01*
X13736500Y-14639762D01*
X13926976Y-14525476D02*
X13926976Y-14563571D01*
X14003167Y-14525476D02*
X14003167Y-14563571D01*
X14298405Y-14801667D02*
X14288881Y-14792143D01*
X14269833Y-14763571D01*
X14260309Y-14744524D01*
X14250786Y-14715952D01*
X14241262Y-14668333D01*
X14241262Y-14630238D01*
X14250786Y-14582619D01*
X14260309Y-14554048D01*
X14269833Y-14535000D01*
X14288881Y-14506428D01*
X14298405Y-14496905D01*
X14355548Y-14525476D02*
X14479357Y-14525476D01*
X14412690Y-14601667D01*
X14441262Y-14601667D01*
X14460309Y-14611190D01*
X14469833Y-14620714D01*
X14479357Y-14639762D01*
X14479357Y-14687381D01*
X14469833Y-14706428D01*
X14460309Y-14715952D01*
X14441262Y-14725476D01*
X14384119Y-14725476D01*
X14365071Y-14715952D01*
X14355548Y-14706428D01*
X14717452Y-14725476D02*
X14717452Y-14525476D01*
X14803167Y-14725476D02*
X14803167Y-14620714D01*
X14793643Y-14601667D01*
X14774595Y-14592143D01*
X14746024Y-14592143D01*
X14726976Y-14601667D01*
X14717452Y-14611190D01*
X14926976Y-14725476D02*
X14907928Y-14715952D01*
X14898405Y-14706428D01*
X14888881Y-14687381D01*
X14888881Y-14630238D01*
X14898405Y-14611190D01*
X14907928Y-14601667D01*
X14926976Y-14592143D01*
X14955548Y-14592143D01*
X14974595Y-14601667D01*
X14984119Y-14611190D01*
X14993643Y-14630238D01*
X14993643Y-14687381D01*
X14984119Y-14706428D01*
X14974595Y-14715952D01*
X14955548Y-14725476D01*
X14926976Y-14725476D01*
X15107928Y-14725476D02*
X15088881Y-14715952D01*
X15079357Y-14696905D01*
X15079357Y-14525476D01*
X15260309Y-14715952D02*
X15241262Y-14725476D01*
X15203167Y-14725476D01*
X15184119Y-14715952D01*
X15174595Y-14696905D01*
X15174595Y-14620714D01*
X15184119Y-14601667D01*
X15203167Y-14592143D01*
X15241262Y-14592143D01*
X15260309Y-14601667D01*
X15269833Y-14620714D01*
X15269833Y-14639762D01*
X15174595Y-14658809D01*
X15346024Y-14715952D02*
X15365071Y-14725476D01*
X15403167Y-14725476D01*
X15422214Y-14715952D01*
X15431738Y-14696905D01*
X15431738Y-14687381D01*
X15422214Y-14668333D01*
X15403167Y-14658809D01*
X15374595Y-14658809D01*
X15355548Y-14649286D01*
X15346024Y-14630238D01*
X15346024Y-14620714D01*
X15355548Y-14601667D01*
X15374595Y-14592143D01*
X15403167Y-14592143D01*
X15422214Y-14601667D01*
X15498405Y-14801667D02*
X15507928Y-14792143D01*
X15526976Y-14763571D01*
X15536500Y-14744524D01*
X15546024Y-14715952D01*
X15555548Y-14668333D01*
X15555548Y-14630238D01*
X15546024Y-14582619D01*
X15536500Y-14554048D01*
X15526976Y-14535000D01*
X15507928Y-14506428D01*
X15498405Y-14496905D01*
D15*
X10714785Y-14927284D02*
X10714785Y-14870715D01*
X10658216Y-14870715D01*
X10658216Y-14927284D01*
X10714785Y-14927284D01*
D11*
X11022214Y-14789476D02*
X11041262Y-14789476D01*
X11060310Y-14799000D01*
X11069833Y-14808524D01*
X11079357Y-14827571D01*
X11088881Y-14865667D01*
X11088881Y-14913286D01*
X11079357Y-14951381D01*
X11069833Y-14970428D01*
X11060310Y-14979952D01*
X11041262Y-14989476D01*
X11022214Y-14989476D01*
X11003167Y-14979952D01*
X10993643Y-14970428D01*
X10984119Y-14951381D01*
X10974595Y-14913286D01*
X10974595Y-14865667D01*
X10984119Y-14827571D01*
X10993643Y-14808524D01*
X11003167Y-14799000D01*
X11022214Y-14789476D01*
X11174595Y-14970428D02*
X11184119Y-14979952D01*
X11174595Y-14989476D01*
X11165071Y-14979952D01*
X11174595Y-14970428D01*
X11174595Y-14989476D01*
X11298405Y-14875190D02*
X11279357Y-14865667D01*
X11269833Y-14856143D01*
X11260309Y-14837095D01*
X11260309Y-14827571D01*
X11269833Y-14808524D01*
X11279357Y-14799000D01*
X11298405Y-14789476D01*
X11336500Y-14789476D01*
X11355548Y-14799000D01*
X11365071Y-14808524D01*
X11374595Y-14827571D01*
X11374595Y-14837095D01*
X11365071Y-14856143D01*
X11355548Y-14865667D01*
X11336500Y-14875190D01*
X11298405Y-14875190D01*
X11279357Y-14884714D01*
X11269833Y-14894238D01*
X11260309Y-14913286D01*
X11260309Y-14951381D01*
X11269833Y-14970428D01*
X11279357Y-14979952D01*
X11298405Y-14989476D01*
X11336500Y-14989476D01*
X11355548Y-14979952D01*
X11365071Y-14970428D01*
X11374595Y-14951381D01*
X11374595Y-14913286D01*
X11365071Y-14894238D01*
X11355548Y-14884714D01*
X11336500Y-14875190D01*
X11498405Y-14789476D02*
X11517452Y-14789476D01*
X11536500Y-14799000D01*
X11546024Y-14808524D01*
X11555548Y-14827571D01*
X11565071Y-14865667D01*
X11565071Y-14913286D01*
X11555548Y-14951381D01*
X11546024Y-14970428D01*
X11536500Y-14979952D01*
X11517452Y-14989476D01*
X11498405Y-14989476D01*
X11479357Y-14979952D01*
X11469833Y-14970428D01*
X11460309Y-14951381D01*
X11450786Y-14913286D01*
X11450786Y-14865667D01*
X11460309Y-14827571D01*
X11469833Y-14808524D01*
X11479357Y-14799000D01*
X11498405Y-14789476D01*
X11688881Y-14789476D02*
X11707928Y-14789476D01*
X11726976Y-14799000D01*
X11736500Y-14808524D01*
X11746024Y-14827571D01*
X11755548Y-14865667D01*
X11755548Y-14913286D01*
X11746024Y-14951381D01*
X11736500Y-14970428D01*
X11726976Y-14979952D01*
X11707928Y-14989476D01*
X11688881Y-14989476D01*
X11669833Y-14979952D01*
X11660309Y-14970428D01*
X11650786Y-14951381D01*
X11641262Y-14913286D01*
X11641262Y-14865667D01*
X11650786Y-14827571D01*
X11660309Y-14808524D01*
X11669833Y-14799000D01*
X11688881Y-14789476D01*
X11841262Y-14989476D02*
X11841262Y-14856143D01*
X11841262Y-14875190D02*
X11850786Y-14865667D01*
X11869833Y-14856143D01*
X11898405Y-14856143D01*
X11917452Y-14865667D01*
X11926976Y-14884714D01*
X11926976Y-14989476D01*
X11926976Y-14884714D02*
X11936500Y-14865667D01*
X11955548Y-14856143D01*
X11984119Y-14856143D01*
X12003167Y-14865667D01*
X12012690Y-14884714D01*
X12012690Y-14989476D01*
X12107928Y-14989476D02*
X12107928Y-14856143D01*
X12107928Y-14875190D02*
X12117452Y-14865667D01*
X12136500Y-14856143D01*
X12165071Y-14856143D01*
X12184119Y-14865667D01*
X12193643Y-14884714D01*
X12193643Y-14989476D01*
X12193643Y-14884714D02*
X12203167Y-14865667D01*
X12222214Y-14856143D01*
X12250786Y-14856143D01*
X12269833Y-14865667D01*
X12279357Y-14884714D01*
X12279357Y-14989476D01*
X12669833Y-14779952D02*
X12498405Y-15037095D01*
X12926976Y-14789476D02*
X12946024Y-14789476D01*
X12965071Y-14799000D01*
X12974595Y-14808524D01*
X12984119Y-14827571D01*
X12993643Y-14865667D01*
X12993643Y-14913286D01*
X12984119Y-14951381D01*
X12974595Y-14970428D01*
X12965071Y-14979952D01*
X12946024Y-14989476D01*
X12926976Y-14989476D01*
X12907928Y-14979952D01*
X12898405Y-14970428D01*
X12888881Y-14951381D01*
X12879357Y-14913286D01*
X12879357Y-14865667D01*
X12888881Y-14827571D01*
X12898405Y-14808524D01*
X12907928Y-14799000D01*
X12926976Y-14789476D01*
X13079357Y-14970428D02*
X13088881Y-14979952D01*
X13079357Y-14989476D01*
X13069833Y-14979952D01*
X13079357Y-14970428D01*
X13079357Y-14989476D01*
X13212690Y-14789476D02*
X13231738Y-14789476D01*
X13250786Y-14799000D01*
X13260309Y-14808524D01*
X13269833Y-14827571D01*
X13279357Y-14865667D01*
X13279357Y-14913286D01*
X13269833Y-14951381D01*
X13260309Y-14970428D01*
X13250786Y-14979952D01*
X13231738Y-14989476D01*
X13212690Y-14989476D01*
X13193643Y-14979952D01*
X13184119Y-14970428D01*
X13174595Y-14951381D01*
X13165071Y-14913286D01*
X13165071Y-14865667D01*
X13174595Y-14827571D01*
X13184119Y-14808524D01*
X13193643Y-14799000D01*
X13212690Y-14789476D01*
X13346024Y-14789476D02*
X13469833Y-14789476D01*
X13403167Y-14865667D01*
X13431738Y-14865667D01*
X13450786Y-14875190D01*
X13460309Y-14884714D01*
X13469833Y-14903762D01*
X13469833Y-14951381D01*
X13460309Y-14970428D01*
X13450786Y-14979952D01*
X13431738Y-14989476D01*
X13374595Y-14989476D01*
X13355548Y-14979952D01*
X13346024Y-14970428D01*
X13660309Y-14989476D02*
X13546024Y-14989476D01*
X13603167Y-14989476D02*
X13603167Y-14789476D01*
X13584119Y-14818048D01*
X13565071Y-14837095D01*
X13546024Y-14846619D01*
X13841262Y-14789476D02*
X13746024Y-14789476D01*
X13736500Y-14884714D01*
X13746024Y-14875190D01*
X13765071Y-14865667D01*
X13812690Y-14865667D01*
X13831738Y-14875190D01*
X13841262Y-14884714D01*
X13850786Y-14903762D01*
X13850786Y-14951381D01*
X13841262Y-14970428D01*
X13831738Y-14979952D01*
X13812690Y-14989476D01*
X13765071Y-14989476D01*
X13746024Y-14979952D01*
X13736500Y-14970428D01*
X13926976Y-14789476D02*
X13926976Y-14827571D01*
X14003167Y-14789476D02*
X14003167Y-14827571D01*
X14298405Y-15065667D02*
X14288881Y-15056143D01*
X14269833Y-15027571D01*
X14260309Y-15008524D01*
X14250786Y-14979952D01*
X14241262Y-14932333D01*
X14241262Y-14894238D01*
X14250786Y-14846619D01*
X14260309Y-14818048D01*
X14269833Y-14799000D01*
X14288881Y-14770428D01*
X14298405Y-14760905D01*
X14355548Y-14789476D02*
X14488881Y-14789476D01*
X14403167Y-14989476D01*
X14650786Y-14856143D02*
X14650786Y-14989476D01*
X14603167Y-14779952D02*
X14555548Y-14922809D01*
X14679357Y-14922809D01*
X14907928Y-14989476D02*
X14907928Y-14789476D01*
X14993643Y-14989476D02*
X14993643Y-14884714D01*
X14984119Y-14865667D01*
X14965071Y-14856143D01*
X14936500Y-14856143D01*
X14917452Y-14865667D01*
X14907928Y-14875190D01*
X15117452Y-14989476D02*
X15098405Y-14979952D01*
X15088881Y-14970428D01*
X15079357Y-14951381D01*
X15079357Y-14894238D01*
X15088881Y-14875190D01*
X15098405Y-14865667D01*
X15117452Y-14856143D01*
X15146024Y-14856143D01*
X15165071Y-14865667D01*
X15174595Y-14875190D01*
X15184119Y-14894238D01*
X15184119Y-14951381D01*
X15174595Y-14970428D01*
X15165071Y-14979952D01*
X15146024Y-14989476D01*
X15117452Y-14989476D01*
X15298405Y-14989476D02*
X15279357Y-14979952D01*
X15269833Y-14960905D01*
X15269833Y-14789476D01*
X15450786Y-14979952D02*
X15431738Y-14989476D01*
X15393643Y-14989476D01*
X15374595Y-14979952D01*
X15365071Y-14960905D01*
X15365071Y-14884714D01*
X15374595Y-14865667D01*
X15393643Y-14856143D01*
X15431738Y-14856143D01*
X15450786Y-14865667D01*
X15460309Y-14884714D01*
X15460309Y-14903762D01*
X15365071Y-14922809D01*
X15536500Y-14979952D02*
X15555548Y-14989476D01*
X15593643Y-14989476D01*
X15612690Y-14979952D01*
X15622214Y-14960905D01*
X15622214Y-14951381D01*
X15612690Y-14932333D01*
X15593643Y-14922809D01*
X15565071Y-14922809D01*
X15546024Y-14913286D01*
X15536500Y-14894238D01*
X15536500Y-14884714D01*
X15546024Y-14865667D01*
X15565071Y-14856143D01*
X15593643Y-14856143D01*
X15612690Y-14865667D01*
X15688881Y-15065667D02*
X15698405Y-15056143D01*
X15717452Y-15027571D01*
X15726976Y-15008524D01*
X15736500Y-14979952D01*
X15746024Y-14932333D01*
X15746024Y-14894238D01*
X15736500Y-14846619D01*
X15726976Y-14818048D01*
X15717452Y-14799000D01*
X15698405Y-14770428D01*
X15688881Y-14760905D01*
D10*
X10676500Y-15213000D02*
X10726500Y-15163000D01*
X10676500Y-15113000D01*
X10626500Y-15163000D01*
X10676500Y-15213000D01*
D11*
X11088881Y-15253476D02*
X10974595Y-15253476D01*
X11031738Y-15253476D02*
X11031738Y-15053476D01*
X11012690Y-15082048D01*
X10993643Y-15101095D01*
X10974595Y-15110619D01*
X11174595Y-15234428D02*
X11184119Y-15243952D01*
X11174595Y-15253476D01*
X11165071Y-15243952D01*
X11174595Y-15234428D01*
X11174595Y-15253476D01*
X11307928Y-15053476D02*
X11326976Y-15053476D01*
X11346024Y-15063000D01*
X11355548Y-15072524D01*
X11365071Y-15091571D01*
X11374595Y-15129667D01*
X11374595Y-15177286D01*
X11365071Y-15215381D01*
X11355548Y-15234428D01*
X11346024Y-15243952D01*
X11326976Y-15253476D01*
X11307928Y-15253476D01*
X11288881Y-15243952D01*
X11279357Y-15234428D01*
X11269833Y-15215381D01*
X11260309Y-15177286D01*
X11260309Y-15129667D01*
X11269833Y-15091571D01*
X11279357Y-15072524D01*
X11288881Y-15063000D01*
X11307928Y-15053476D01*
X11498405Y-15053476D02*
X11517452Y-15053476D01*
X11536500Y-15063000D01*
X11546024Y-15072524D01*
X11555548Y-15091571D01*
X11565071Y-15129667D01*
X11565071Y-15177286D01*
X11555548Y-15215381D01*
X11546024Y-15234428D01*
X11536500Y-15243952D01*
X11517452Y-15253476D01*
X11498405Y-15253476D01*
X11479357Y-15243952D01*
X11469833Y-15234428D01*
X11460309Y-15215381D01*
X11450786Y-15177286D01*
X11450786Y-15129667D01*
X11460309Y-15091571D01*
X11469833Y-15072524D01*
X11479357Y-15063000D01*
X11498405Y-15053476D01*
X11688881Y-15053476D02*
X11707928Y-15053476D01*
X11726976Y-15063000D01*
X11736500Y-15072524D01*
X11746024Y-15091571D01*
X11755548Y-15129667D01*
X11755548Y-15177286D01*
X11746024Y-15215381D01*
X11736500Y-15234428D01*
X11726976Y-15243952D01*
X11707928Y-15253476D01*
X11688881Y-15253476D01*
X11669833Y-15243952D01*
X11660309Y-15234428D01*
X11650786Y-15215381D01*
X11641262Y-15177286D01*
X11641262Y-15129667D01*
X11650786Y-15091571D01*
X11660309Y-15072524D01*
X11669833Y-15063000D01*
X11688881Y-15053476D01*
X11841262Y-15253476D02*
X11841262Y-15120143D01*
X11841262Y-15139190D02*
X11850786Y-15129667D01*
X11869833Y-15120143D01*
X11898405Y-15120143D01*
X11917452Y-15129667D01*
X11926976Y-15148714D01*
X11926976Y-15253476D01*
X11926976Y-15148714D02*
X11936500Y-15129667D01*
X11955548Y-15120143D01*
X11984119Y-15120143D01*
X12003167Y-15129667D01*
X12012690Y-15148714D01*
X12012690Y-15253476D01*
X12107928Y-15253476D02*
X12107928Y-15120143D01*
X12107928Y-15139190D02*
X12117452Y-15129667D01*
X12136500Y-15120143D01*
X12165071Y-15120143D01*
X12184119Y-15129667D01*
X12193643Y-15148714D01*
X12193643Y-15253476D01*
X12193643Y-15148714D02*
X12203167Y-15129667D01*
X12222214Y-15120143D01*
X12250786Y-15120143D01*
X12269833Y-15129667D01*
X12279357Y-15148714D01*
X12279357Y-15253476D01*
X12669833Y-15043952D02*
X12498405Y-15301095D01*
X12926976Y-15053476D02*
X12946024Y-15053476D01*
X12965071Y-15063000D01*
X12974595Y-15072524D01*
X12984119Y-15091571D01*
X12993643Y-15129667D01*
X12993643Y-15177286D01*
X12984119Y-15215381D01*
X12974595Y-15234428D01*
X12965071Y-15243952D01*
X12946024Y-15253476D01*
X12926976Y-15253476D01*
X12907928Y-15243952D01*
X12898405Y-15234428D01*
X12888881Y-15215381D01*
X12879357Y-15177286D01*
X12879357Y-15129667D01*
X12888881Y-15091571D01*
X12898405Y-15072524D01*
X12907928Y-15063000D01*
X12926976Y-15053476D01*
X13079357Y-15234428D02*
X13088881Y-15243952D01*
X13079357Y-15253476D01*
X13069833Y-15243952D01*
X13079357Y-15234428D01*
X13079357Y-15253476D01*
X13212690Y-15053476D02*
X13231738Y-15053476D01*
X13250786Y-15063000D01*
X13260309Y-15072524D01*
X13269833Y-15091571D01*
X13279357Y-15129667D01*
X13279357Y-15177286D01*
X13269833Y-15215381D01*
X13260309Y-15234428D01*
X13250786Y-15243952D01*
X13231738Y-15253476D01*
X13212690Y-15253476D01*
X13193643Y-15243952D01*
X13184119Y-15234428D01*
X13174595Y-15215381D01*
X13165071Y-15177286D01*
X13165071Y-15129667D01*
X13174595Y-15091571D01*
X13184119Y-15072524D01*
X13193643Y-15063000D01*
X13212690Y-15053476D01*
X13346024Y-15053476D02*
X13469833Y-15053476D01*
X13403167Y-15129667D01*
X13431738Y-15129667D01*
X13450786Y-15139190D01*
X13460309Y-15148714D01*
X13469833Y-15167762D01*
X13469833Y-15215381D01*
X13460309Y-15234428D01*
X13450786Y-15243952D01*
X13431738Y-15253476D01*
X13374595Y-15253476D01*
X13355548Y-15243952D01*
X13346024Y-15234428D01*
X13565071Y-15253476D02*
X13603167Y-15253476D01*
X13622214Y-15243952D01*
X13631738Y-15234428D01*
X13650786Y-15205857D01*
X13660309Y-15167762D01*
X13660309Y-15091571D01*
X13650786Y-15072524D01*
X13641262Y-15063000D01*
X13622214Y-15053476D01*
X13584119Y-15053476D01*
X13565071Y-15063000D01*
X13555548Y-15072524D01*
X13546024Y-15091571D01*
X13546024Y-15139190D01*
X13555548Y-15158238D01*
X13565071Y-15167762D01*
X13584119Y-15177286D01*
X13622214Y-15177286D01*
X13641262Y-15167762D01*
X13650786Y-15158238D01*
X13660309Y-15139190D01*
X13831738Y-15120143D02*
X13831738Y-15253476D01*
X13784119Y-15043952D02*
X13736500Y-15186809D01*
X13860309Y-15186809D01*
X13926976Y-15053476D02*
X13926976Y-15091571D01*
X14003167Y-15053476D02*
X14003167Y-15091571D01*
X14298405Y-15329667D02*
X14288881Y-15320143D01*
X14269833Y-15291571D01*
X14260309Y-15272524D01*
X14250786Y-15243952D01*
X14241262Y-15196333D01*
X14241262Y-15158238D01*
X14250786Y-15110619D01*
X14260309Y-15082048D01*
X14269833Y-15063000D01*
X14288881Y-15034428D01*
X14298405Y-15024905D01*
X14460309Y-15053476D02*
X14422214Y-15053476D01*
X14403167Y-15063000D01*
X14393643Y-15072524D01*
X14374595Y-15101095D01*
X14365071Y-15139190D01*
X14365071Y-15215381D01*
X14374595Y-15234428D01*
X14384119Y-15243952D01*
X14403167Y-15253476D01*
X14441262Y-15253476D01*
X14460309Y-15243952D01*
X14469833Y-15234428D01*
X14479357Y-15215381D01*
X14479357Y-15167762D01*
X14469833Y-15148714D01*
X14460309Y-15139190D01*
X14441262Y-15129667D01*
X14403167Y-15129667D01*
X14384119Y-15139190D01*
X14374595Y-15148714D01*
X14365071Y-15167762D01*
X14650786Y-15053476D02*
X14612690Y-15053476D01*
X14593643Y-15063000D01*
X14584119Y-15072524D01*
X14565071Y-15101095D01*
X14555548Y-15139190D01*
X14555548Y-15215381D01*
X14565071Y-15234428D01*
X14574595Y-15243952D01*
X14593643Y-15253476D01*
X14631738Y-15253476D01*
X14650786Y-15243952D01*
X14660309Y-15234428D01*
X14669833Y-15215381D01*
X14669833Y-15167762D01*
X14660309Y-15148714D01*
X14650786Y-15139190D01*
X14631738Y-15129667D01*
X14593643Y-15129667D01*
X14574595Y-15139190D01*
X14565071Y-15148714D01*
X14555548Y-15167762D01*
X14907928Y-15253476D02*
X14907928Y-15053476D01*
X14993643Y-15253476D02*
X14993643Y-15148714D01*
X14984119Y-15129667D01*
X14965071Y-15120143D01*
X14936500Y-15120143D01*
X14917452Y-15129667D01*
X14907928Y-15139190D01*
X15117452Y-15253476D02*
X15098405Y-15243952D01*
X15088881Y-15234428D01*
X15079357Y-15215381D01*
X15079357Y-15158238D01*
X15088881Y-15139190D01*
X15098405Y-15129667D01*
X15117452Y-15120143D01*
X15146024Y-15120143D01*
X15165071Y-15129667D01*
X15174595Y-15139190D01*
X15184119Y-15158238D01*
X15184119Y-15215381D01*
X15174595Y-15234428D01*
X15165071Y-15243952D01*
X15146024Y-15253476D01*
X15117452Y-15253476D01*
X15298405Y-15253476D02*
X15279357Y-15243952D01*
X15269833Y-15224905D01*
X15269833Y-15053476D01*
X15450786Y-15243952D02*
X15431738Y-15253476D01*
X15393643Y-15253476D01*
X15374595Y-15243952D01*
X15365071Y-15224905D01*
X15365071Y-15148714D01*
X15374595Y-15129667D01*
X15393643Y-15120143D01*
X15431738Y-15120143D01*
X15450786Y-15129667D01*
X15460309Y-15148714D01*
X15460309Y-15167762D01*
X15365071Y-15186809D01*
X15536500Y-15243952D02*
X15555548Y-15253476D01*
X15593643Y-15253476D01*
X15612690Y-15243952D01*
X15622214Y-15224905D01*
X15622214Y-15215381D01*
X15612690Y-15196333D01*
X15593643Y-15186809D01*
X15565071Y-15186809D01*
X15546024Y-15177286D01*
X15536500Y-15158238D01*
X15536500Y-15148714D01*
X15546024Y-15129667D01*
X15565071Y-15120143D01*
X15593643Y-15120143D01*
X15612690Y-15129667D01*
X15688881Y-15329667D02*
X15698405Y-15320143D01*
X15717452Y-15291571D01*
X15726976Y-15272524D01*
X15736500Y-15243952D01*
X15746024Y-15196333D01*
X15746024Y-15158238D01*
X15736500Y-15110619D01*
X15726976Y-15082048D01*
X15717452Y-15063000D01*
X15698405Y-15034428D01*
X15688881Y-15024905D01*
D16*
X10616500Y-15372000D02*
X10726500Y-15482000D01*
X10726500Y-15372000D02*
X10616500Y-15482000D01*
X10726500Y-15427000D02*
G75*
G03*
X10726500Y-15427000I-55000J0D01*
G01*
D11*
X11088881Y-15517476D02*
X10974595Y-15517476D01*
X11031738Y-15517476D02*
X11031738Y-15317476D01*
X11012690Y-15346048D01*
X10993643Y-15365095D01*
X10974595Y-15374619D01*
X11174595Y-15498428D02*
X11184119Y-15507952D01*
X11174595Y-15517476D01*
X11165071Y-15507952D01*
X11174595Y-15498428D01*
X11174595Y-15517476D01*
X11374595Y-15517476D02*
X11260309Y-15517476D01*
X11317452Y-15517476D02*
X11317452Y-15317476D01*
X11298405Y-15346048D01*
X11279357Y-15365095D01*
X11260309Y-15374619D01*
X11498405Y-15317476D02*
X11517452Y-15317476D01*
X11536500Y-15327000D01*
X11546024Y-15336524D01*
X11555548Y-15355571D01*
X11565071Y-15393667D01*
X11565071Y-15441286D01*
X11555548Y-15479381D01*
X11546024Y-15498428D01*
X11536500Y-15507952D01*
X11517452Y-15517476D01*
X11498405Y-15517476D01*
X11479357Y-15507952D01*
X11469833Y-15498428D01*
X11460309Y-15479381D01*
X11450786Y-15441286D01*
X11450786Y-15393667D01*
X11460309Y-15355571D01*
X11469833Y-15336524D01*
X11479357Y-15327000D01*
X11498405Y-15317476D01*
X11688881Y-15317476D02*
X11707928Y-15317476D01*
X11726976Y-15327000D01*
X11736500Y-15336524D01*
X11746024Y-15355571D01*
X11755548Y-15393667D01*
X11755548Y-15441286D01*
X11746024Y-15479381D01*
X11736500Y-15498428D01*
X11726976Y-15507952D01*
X11707928Y-15517476D01*
X11688881Y-15517476D01*
X11669833Y-15507952D01*
X11660309Y-15498428D01*
X11650786Y-15479381D01*
X11641262Y-15441286D01*
X11641262Y-15393667D01*
X11650786Y-15355571D01*
X11660309Y-15336524D01*
X11669833Y-15327000D01*
X11688881Y-15317476D01*
X11841262Y-15517476D02*
X11841262Y-15384143D01*
X11841262Y-15403190D02*
X11850786Y-15393667D01*
X11869833Y-15384143D01*
X11898405Y-15384143D01*
X11917452Y-15393667D01*
X11926976Y-15412714D01*
X11926976Y-15517476D01*
X11926976Y-15412714D02*
X11936500Y-15393667D01*
X11955548Y-15384143D01*
X11984119Y-15384143D01*
X12003167Y-15393667D01*
X12012690Y-15412714D01*
X12012690Y-15517476D01*
X12107928Y-15517476D02*
X12107928Y-15384143D01*
X12107928Y-15403190D02*
X12117452Y-15393667D01*
X12136500Y-15384143D01*
X12165071Y-15384143D01*
X12184119Y-15393667D01*
X12193643Y-15412714D01*
X12193643Y-15517476D01*
X12193643Y-15412714D02*
X12203167Y-15393667D01*
X12222214Y-15384143D01*
X12250786Y-15384143D01*
X12269833Y-15393667D01*
X12279357Y-15412714D01*
X12279357Y-15517476D01*
X12669833Y-15307952D02*
X12498405Y-15565095D01*
X12926976Y-15317476D02*
X12946024Y-15317476D01*
X12965071Y-15327000D01*
X12974595Y-15336524D01*
X12984119Y-15355571D01*
X12993643Y-15393667D01*
X12993643Y-15441286D01*
X12984119Y-15479381D01*
X12974595Y-15498428D01*
X12965071Y-15507952D01*
X12946024Y-15517476D01*
X12926976Y-15517476D01*
X12907928Y-15507952D01*
X12898405Y-15498428D01*
X12888881Y-15479381D01*
X12879357Y-15441286D01*
X12879357Y-15393667D01*
X12888881Y-15355571D01*
X12898405Y-15336524D01*
X12907928Y-15327000D01*
X12926976Y-15317476D01*
X13079357Y-15498428D02*
X13088881Y-15507952D01*
X13079357Y-15517476D01*
X13069833Y-15507952D01*
X13079357Y-15498428D01*
X13079357Y-15517476D01*
X13212690Y-15317476D02*
X13231738Y-15317476D01*
X13250786Y-15327000D01*
X13260309Y-15336524D01*
X13269833Y-15355571D01*
X13279357Y-15393667D01*
X13279357Y-15441286D01*
X13269833Y-15479381D01*
X13260309Y-15498428D01*
X13250786Y-15507952D01*
X13231738Y-15517476D01*
X13212690Y-15517476D01*
X13193643Y-15507952D01*
X13184119Y-15498428D01*
X13174595Y-15479381D01*
X13165071Y-15441286D01*
X13165071Y-15393667D01*
X13174595Y-15355571D01*
X13184119Y-15336524D01*
X13193643Y-15327000D01*
X13212690Y-15317476D01*
X13450786Y-15384143D02*
X13450786Y-15517476D01*
X13403167Y-15307952D02*
X13355548Y-15450809D01*
X13479357Y-15450809D01*
X13536500Y-15317476D02*
X13660309Y-15317476D01*
X13593643Y-15393667D01*
X13622214Y-15393667D01*
X13641262Y-15403190D01*
X13650786Y-15412714D01*
X13660309Y-15431762D01*
X13660309Y-15479381D01*
X13650786Y-15498428D01*
X13641262Y-15507952D01*
X13622214Y-15517476D01*
X13565071Y-15517476D01*
X13546024Y-15507952D01*
X13536500Y-15498428D01*
X13726976Y-15317476D02*
X13850786Y-15317476D01*
X13784119Y-15393667D01*
X13812690Y-15393667D01*
X13831738Y-15403190D01*
X13841262Y-15412714D01*
X13850786Y-15431762D01*
X13850786Y-15479381D01*
X13841262Y-15498428D01*
X13831738Y-15507952D01*
X13812690Y-15517476D01*
X13755548Y-15517476D01*
X13736500Y-15507952D01*
X13726976Y-15498428D01*
X13926976Y-15317476D02*
X13926976Y-15355571D01*
X14003167Y-15317476D02*
X14003167Y-15355571D01*
X14298405Y-15593667D02*
X14288881Y-15584143D01*
X14269833Y-15555571D01*
X14260309Y-15536524D01*
X14250786Y-15507952D01*
X14241262Y-15460333D01*
X14241262Y-15422238D01*
X14250786Y-15374619D01*
X14260309Y-15346048D01*
X14269833Y-15327000D01*
X14288881Y-15298428D01*
X14298405Y-15288905D01*
X14479357Y-15517476D02*
X14365071Y-15517476D01*
X14422214Y-15517476D02*
X14422214Y-15317476D01*
X14403167Y-15346048D01*
X14384119Y-15365095D01*
X14365071Y-15374619D01*
X14669833Y-15517476D02*
X14555548Y-15517476D01*
X14612690Y-15517476D02*
X14612690Y-15317476D01*
X14593643Y-15346048D01*
X14574595Y-15365095D01*
X14555548Y-15374619D01*
X14907928Y-15517476D02*
X14907928Y-15317476D01*
X14993643Y-15517476D02*
X14993643Y-15412714D01*
X14984119Y-15393667D01*
X14965071Y-15384143D01*
X14936500Y-15384143D01*
X14917452Y-15393667D01*
X14907928Y-15403190D01*
X15117452Y-15517476D02*
X15098405Y-15507952D01*
X15088881Y-15498428D01*
X15079357Y-15479381D01*
X15079357Y-15422238D01*
X15088881Y-15403190D01*
X15098405Y-15393667D01*
X15117452Y-15384143D01*
X15146024Y-15384143D01*
X15165071Y-15393667D01*
X15174595Y-15403190D01*
X15184119Y-15422238D01*
X15184119Y-15479381D01*
X15174595Y-15498428D01*
X15165071Y-15507952D01*
X15146024Y-15517476D01*
X15117452Y-15517476D01*
X15298405Y-15517476D02*
X15279357Y-15507952D01*
X15269833Y-15488905D01*
X15269833Y-15317476D01*
X15450786Y-15507952D02*
X15431738Y-15517476D01*
X15393643Y-15517476D01*
X15374595Y-15507952D01*
X15365071Y-15488905D01*
X15365071Y-15412714D01*
X15374595Y-15393667D01*
X15393643Y-15384143D01*
X15431738Y-15384143D01*
X15450786Y-15393667D01*
X15460309Y-15412714D01*
X15460309Y-15431762D01*
X15365071Y-15450809D01*
X15536500Y-15507952D02*
X15555548Y-15517476D01*
X15593643Y-15517476D01*
X15612690Y-15507952D01*
X15622214Y-15488905D01*
X15622214Y-15479381D01*
X15612690Y-15460333D01*
X15593643Y-15450809D01*
X15565071Y-15450809D01*
X15546024Y-15441286D01*
X15536500Y-15422238D01*
X15536500Y-15412714D01*
X15546024Y-15393667D01*
X15565071Y-15384143D01*
X15593643Y-15384143D01*
X15612690Y-15393667D01*
X15688881Y-15593667D02*
X15698405Y-15584143D01*
X15717452Y-15555571D01*
X15726976Y-15536524D01*
X15736500Y-15507952D01*
X15746024Y-15460333D01*
X15746024Y-15422238D01*
X15736500Y-15374619D01*
X15726976Y-15346048D01*
X15717452Y-15327000D01*
X15698405Y-15298428D01*
X15688881Y-15288905D01*
D17*
X10596500Y-15626000D02*
X10726500Y-15756000D01*
X10726500Y-15626000D02*
X10596500Y-15756000D01*
X10661500Y-15626000D02*
X10661500Y-15756000D01*
X10596500Y-15691000D02*
X10726500Y-15691000D01*
D11*
X11088881Y-15781476D02*
X10974595Y-15781476D01*
X11031738Y-15781476D02*
X11031738Y-15581476D01*
X11012690Y-15610048D01*
X10993643Y-15629095D01*
X10974595Y-15638619D01*
X11174595Y-15762428D02*
X11184119Y-15771952D01*
X11174595Y-15781476D01*
X11165071Y-15771952D01*
X11174595Y-15762428D01*
X11174595Y-15781476D01*
X11250786Y-15581476D02*
X11374595Y-15581476D01*
X11307928Y-15657667D01*
X11336500Y-15657667D01*
X11355548Y-15667190D01*
X11365071Y-15676714D01*
X11374595Y-15695762D01*
X11374595Y-15743381D01*
X11365071Y-15762428D01*
X11355548Y-15771952D01*
X11336500Y-15781476D01*
X11279357Y-15781476D01*
X11260309Y-15771952D01*
X11250786Y-15762428D01*
X11498405Y-15581476D02*
X11517452Y-15581476D01*
X11536500Y-15591000D01*
X11546024Y-15600524D01*
X11555548Y-15619571D01*
X11565071Y-15657667D01*
X11565071Y-15705286D01*
X11555548Y-15743381D01*
X11546024Y-15762428D01*
X11536500Y-15771952D01*
X11517452Y-15781476D01*
X11498405Y-15781476D01*
X11479357Y-15771952D01*
X11469833Y-15762428D01*
X11460309Y-15743381D01*
X11450786Y-15705286D01*
X11450786Y-15657667D01*
X11460309Y-15619571D01*
X11469833Y-15600524D01*
X11479357Y-15591000D01*
X11498405Y-15581476D01*
X11688881Y-15581476D02*
X11707928Y-15581476D01*
X11726976Y-15591000D01*
X11736500Y-15600524D01*
X11746024Y-15619571D01*
X11755548Y-15657667D01*
X11755548Y-15705286D01*
X11746024Y-15743381D01*
X11736500Y-15762428D01*
X11726976Y-15771952D01*
X11707928Y-15781476D01*
X11688881Y-15781476D01*
X11669833Y-15771952D01*
X11660309Y-15762428D01*
X11650786Y-15743381D01*
X11641262Y-15705286D01*
X11641262Y-15657667D01*
X11650786Y-15619571D01*
X11660309Y-15600524D01*
X11669833Y-15591000D01*
X11688881Y-15581476D01*
X11841262Y-15781476D02*
X11841262Y-15648143D01*
X11841262Y-15667190D02*
X11850786Y-15657667D01*
X11869833Y-15648143D01*
X11898405Y-15648143D01*
X11917452Y-15657667D01*
X11926976Y-15676714D01*
X11926976Y-15781476D01*
X11926976Y-15676714D02*
X11936500Y-15657667D01*
X11955548Y-15648143D01*
X11984119Y-15648143D01*
X12003167Y-15657667D01*
X12012690Y-15676714D01*
X12012690Y-15781476D01*
X12107928Y-15781476D02*
X12107928Y-15648143D01*
X12107928Y-15667190D02*
X12117452Y-15657667D01*
X12136500Y-15648143D01*
X12165071Y-15648143D01*
X12184119Y-15657667D01*
X12193643Y-15676714D01*
X12193643Y-15781476D01*
X12193643Y-15676714D02*
X12203167Y-15657667D01*
X12222214Y-15648143D01*
X12250786Y-15648143D01*
X12269833Y-15657667D01*
X12279357Y-15676714D01*
X12279357Y-15781476D01*
X12669833Y-15571952D02*
X12498405Y-15829095D01*
X12926976Y-15581476D02*
X12946024Y-15581476D01*
X12965071Y-15591000D01*
X12974595Y-15600524D01*
X12984119Y-15619571D01*
X12993643Y-15657667D01*
X12993643Y-15705286D01*
X12984119Y-15743381D01*
X12974595Y-15762428D01*
X12965071Y-15771952D01*
X12946024Y-15781476D01*
X12926976Y-15781476D01*
X12907928Y-15771952D01*
X12898405Y-15762428D01*
X12888881Y-15743381D01*
X12879357Y-15705286D01*
X12879357Y-15657667D01*
X12888881Y-15619571D01*
X12898405Y-15600524D01*
X12907928Y-15591000D01*
X12926976Y-15581476D01*
X13079357Y-15762428D02*
X13088881Y-15771952D01*
X13079357Y-15781476D01*
X13069833Y-15771952D01*
X13079357Y-15762428D01*
X13079357Y-15781476D01*
X13212690Y-15581476D02*
X13231738Y-15581476D01*
X13250786Y-15591000D01*
X13260309Y-15600524D01*
X13269833Y-15619571D01*
X13279357Y-15657667D01*
X13279357Y-15705286D01*
X13269833Y-15743381D01*
X13260309Y-15762428D01*
X13250786Y-15771952D01*
X13231738Y-15781476D01*
X13212690Y-15781476D01*
X13193643Y-15771952D01*
X13184119Y-15762428D01*
X13174595Y-15743381D01*
X13165071Y-15705286D01*
X13165071Y-15657667D01*
X13174595Y-15619571D01*
X13184119Y-15600524D01*
X13193643Y-15591000D01*
X13212690Y-15581476D01*
X13460309Y-15581476D02*
X13365071Y-15581476D01*
X13355548Y-15676714D01*
X13365071Y-15667190D01*
X13384119Y-15657667D01*
X13431738Y-15657667D01*
X13450786Y-15667190D01*
X13460309Y-15676714D01*
X13469833Y-15695762D01*
X13469833Y-15743381D01*
X13460309Y-15762428D01*
X13450786Y-15771952D01*
X13431738Y-15781476D01*
X13384119Y-15781476D01*
X13365071Y-15771952D01*
X13355548Y-15762428D01*
X13660309Y-15781476D02*
X13546024Y-15781476D01*
X13603167Y-15781476D02*
X13603167Y-15581476D01*
X13584119Y-15610048D01*
X13565071Y-15629095D01*
X13546024Y-15638619D01*
X13736500Y-15600524D02*
X13746024Y-15591000D01*
X13765071Y-15581476D01*
X13812690Y-15581476D01*
X13831738Y-15591000D01*
X13841262Y-15600524D01*
X13850786Y-15619571D01*
X13850786Y-15638619D01*
X13841262Y-15667190D01*
X13726976Y-15781476D01*
X13850786Y-15781476D01*
X13926976Y-15581476D02*
X13926976Y-15619571D01*
X14003167Y-15581476D02*
X14003167Y-15619571D01*
X14298405Y-15857667D02*
X14288881Y-15848143D01*
X14269833Y-15819571D01*
X14260309Y-15800524D01*
X14250786Y-15771952D01*
X14241262Y-15724333D01*
X14241262Y-15686238D01*
X14250786Y-15638619D01*
X14260309Y-15610048D01*
X14269833Y-15591000D01*
X14288881Y-15562428D01*
X14298405Y-15552905D01*
X14365071Y-15600524D02*
X14374595Y-15591000D01*
X14393643Y-15581476D01*
X14441262Y-15581476D01*
X14460309Y-15591000D01*
X14469833Y-15600524D01*
X14479357Y-15619571D01*
X14479357Y-15638619D01*
X14469833Y-15667190D01*
X14355548Y-15781476D01*
X14479357Y-15781476D01*
X14555548Y-15600524D02*
X14565071Y-15591000D01*
X14584119Y-15581476D01*
X14631738Y-15581476D01*
X14650786Y-15591000D01*
X14660309Y-15600524D01*
X14669833Y-15619571D01*
X14669833Y-15638619D01*
X14660309Y-15667190D01*
X14546024Y-15781476D01*
X14669833Y-15781476D01*
X14907928Y-15781476D02*
X14907928Y-15581476D01*
X14993643Y-15781476D02*
X14993643Y-15676714D01*
X14984119Y-15657667D01*
X14965071Y-15648143D01*
X14936500Y-15648143D01*
X14917452Y-15657667D01*
X14907928Y-15667190D01*
X15117452Y-15781476D02*
X15098405Y-15771952D01*
X15088881Y-15762428D01*
X15079357Y-15743381D01*
X15079357Y-15686238D01*
X15088881Y-15667190D01*
X15098405Y-15657667D01*
X15117452Y-15648143D01*
X15146024Y-15648143D01*
X15165071Y-15657667D01*
X15174595Y-15667190D01*
X15184119Y-15686238D01*
X15184119Y-15743381D01*
X15174595Y-15762428D01*
X15165071Y-15771952D01*
X15146024Y-15781476D01*
X15117452Y-15781476D01*
X15298405Y-15781476D02*
X15279357Y-15771952D01*
X15269833Y-15752905D01*
X15269833Y-15581476D01*
X15450786Y-15771952D02*
X15431738Y-15781476D01*
X15393643Y-15781476D01*
X15374595Y-15771952D01*
X15365071Y-15752905D01*
X15365071Y-15676714D01*
X15374595Y-15657667D01*
X15393643Y-15648143D01*
X15431738Y-15648143D01*
X15450786Y-15657667D01*
X15460309Y-15676714D01*
X15460309Y-15695762D01*
X15365071Y-15714809D01*
X15536500Y-15771952D02*
X15555548Y-15781476D01*
X15593643Y-15781476D01*
X15612690Y-15771952D01*
X15622214Y-15752905D01*
X15622214Y-15743381D01*
X15612690Y-15724333D01*
X15593643Y-15714809D01*
X15565071Y-15714809D01*
X15546024Y-15705286D01*
X15536500Y-15686238D01*
X15536500Y-15676714D01*
X15546024Y-15657667D01*
X15565071Y-15648143D01*
X15593643Y-15648143D01*
X15612690Y-15657667D01*
X15688881Y-15857667D02*
X15698405Y-15848143D01*
X15717452Y-15819571D01*
X15726976Y-15800524D01*
X15736500Y-15771952D01*
X15746024Y-15724333D01*
X15746024Y-15686238D01*
X15736500Y-15638619D01*
X15726976Y-15610048D01*
X15717452Y-15591000D01*
X15698405Y-15562428D01*
X15688881Y-15552905D01*
X10526500Y-15855000D02*
X10726500Y-16055000D01*
X10726500Y-15855000D02*
X10526500Y-16055000D01*
X10697211Y-16025711D02*
X10697211Y-15884289D01*
X10555789Y-15884289D01*
X10555789Y-16025711D01*
X10697211Y-16025711D01*
X10965071Y-15845476D02*
X11088881Y-15845476D01*
X11022214Y-15921667D01*
X11050786Y-15921667D01*
X11069833Y-15931190D01*
X11079357Y-15940714D01*
X11088881Y-15959762D01*
X11088881Y-16007381D01*
X11079357Y-16026428D01*
X11069833Y-16035952D01*
X11050786Y-16045476D01*
X10993643Y-16045476D01*
X10974595Y-16035952D01*
X10965071Y-16026428D01*
X11174595Y-16026428D02*
X11184119Y-16035952D01*
X11174595Y-16045476D01*
X11165071Y-16035952D01*
X11174595Y-16026428D01*
X11174595Y-16045476D01*
X11260309Y-15864524D02*
X11269833Y-15855000D01*
X11288881Y-15845476D01*
X11336500Y-15845476D01*
X11355548Y-15855000D01*
X11365071Y-15864524D01*
X11374595Y-15883571D01*
X11374595Y-15902619D01*
X11365071Y-15931190D01*
X11250786Y-16045476D01*
X11374595Y-16045476D01*
X11498405Y-15845476D02*
X11517452Y-15845476D01*
X11536500Y-15855000D01*
X11546024Y-15864524D01*
X11555548Y-15883571D01*
X11565071Y-15921667D01*
X11565071Y-15969286D01*
X11555548Y-16007381D01*
X11546024Y-16026428D01*
X11536500Y-16035952D01*
X11517452Y-16045476D01*
X11498405Y-16045476D01*
X11479357Y-16035952D01*
X11469833Y-16026428D01*
X11460309Y-16007381D01*
X11450786Y-15969286D01*
X11450786Y-15921667D01*
X11460309Y-15883571D01*
X11469833Y-15864524D01*
X11479357Y-15855000D01*
X11498405Y-15845476D01*
X11688881Y-15845476D02*
X11707928Y-15845476D01*
X11726976Y-15855000D01*
X11736500Y-15864524D01*
X11746024Y-15883571D01*
X11755548Y-15921667D01*
X11755548Y-15969286D01*
X11746024Y-16007381D01*
X11736500Y-16026428D01*
X11726976Y-16035952D01*
X11707928Y-16045476D01*
X11688881Y-16045476D01*
X11669833Y-16035952D01*
X11660309Y-16026428D01*
X11650786Y-16007381D01*
X11641262Y-15969286D01*
X11641262Y-15921667D01*
X11650786Y-15883571D01*
X11660309Y-15864524D01*
X11669833Y-15855000D01*
X11688881Y-15845476D01*
X11841262Y-16045476D02*
X11841262Y-15912143D01*
X11841262Y-15931190D02*
X11850786Y-15921667D01*
X11869833Y-15912143D01*
X11898405Y-15912143D01*
X11917452Y-15921667D01*
X11926976Y-15940714D01*
X11926976Y-16045476D01*
X11926976Y-15940714D02*
X11936500Y-15921667D01*
X11955548Y-15912143D01*
X11984119Y-15912143D01*
X12003167Y-15921667D01*
X12012690Y-15940714D01*
X12012690Y-16045476D01*
X12107928Y-16045476D02*
X12107928Y-15912143D01*
X12107928Y-15931190D02*
X12117452Y-15921667D01*
X12136500Y-15912143D01*
X12165071Y-15912143D01*
X12184119Y-15921667D01*
X12193643Y-15940714D01*
X12193643Y-16045476D01*
X12193643Y-15940714D02*
X12203167Y-15921667D01*
X12222214Y-15912143D01*
X12250786Y-15912143D01*
X12269833Y-15921667D01*
X12279357Y-15940714D01*
X12279357Y-16045476D01*
X12669833Y-15835952D02*
X12498405Y-16093095D01*
X12926976Y-15845476D02*
X12946024Y-15845476D01*
X12965071Y-15855000D01*
X12974595Y-15864524D01*
X12984119Y-15883571D01*
X12993643Y-15921667D01*
X12993643Y-15969286D01*
X12984119Y-16007381D01*
X12974595Y-16026428D01*
X12965071Y-16035952D01*
X12946024Y-16045476D01*
X12926976Y-16045476D01*
X12907928Y-16035952D01*
X12898405Y-16026428D01*
X12888881Y-16007381D01*
X12879357Y-15969286D01*
X12879357Y-15921667D01*
X12888881Y-15883571D01*
X12898405Y-15864524D01*
X12907928Y-15855000D01*
X12926976Y-15845476D01*
X13079357Y-16026428D02*
X13088881Y-16035952D01*
X13079357Y-16045476D01*
X13069833Y-16035952D01*
X13079357Y-16026428D01*
X13079357Y-16045476D01*
X13279357Y-16045476D02*
X13165071Y-16045476D01*
X13222214Y-16045476D02*
X13222214Y-15845476D01*
X13203167Y-15874048D01*
X13184119Y-15893095D01*
X13165071Y-15902619D01*
X13355548Y-15864524D02*
X13365071Y-15855000D01*
X13384119Y-15845476D01*
X13431738Y-15845476D01*
X13450786Y-15855000D01*
X13460309Y-15864524D01*
X13469833Y-15883571D01*
X13469833Y-15902619D01*
X13460309Y-15931190D01*
X13346024Y-16045476D01*
X13469833Y-16045476D01*
X13641262Y-15845476D02*
X13603167Y-15845476D01*
X13584119Y-15855000D01*
X13574595Y-15864524D01*
X13555548Y-15893095D01*
X13546024Y-15931190D01*
X13546024Y-16007381D01*
X13555548Y-16026428D01*
X13565071Y-16035952D01*
X13584119Y-16045476D01*
X13622214Y-16045476D01*
X13641262Y-16035952D01*
X13650786Y-16026428D01*
X13660309Y-16007381D01*
X13660309Y-15959762D01*
X13650786Y-15940714D01*
X13641262Y-15931190D01*
X13622214Y-15921667D01*
X13584119Y-15921667D01*
X13565071Y-15931190D01*
X13555548Y-15940714D01*
X13546024Y-15959762D01*
X13784119Y-15845476D02*
X13803167Y-15845476D01*
X13822214Y-15855000D01*
X13831738Y-15864524D01*
X13841262Y-15883571D01*
X13850786Y-15921667D01*
X13850786Y-15969286D01*
X13841262Y-16007381D01*
X13831738Y-16026428D01*
X13822214Y-16035952D01*
X13803167Y-16045476D01*
X13784119Y-16045476D01*
X13765071Y-16035952D01*
X13755548Y-16026428D01*
X13746024Y-16007381D01*
X13736500Y-15969286D01*
X13736500Y-15921667D01*
X13746024Y-15883571D01*
X13755548Y-15864524D01*
X13765071Y-15855000D01*
X13784119Y-15845476D01*
X13926976Y-15845476D02*
X13926976Y-15883571D01*
X14003167Y-15845476D02*
X14003167Y-15883571D01*
X14298405Y-16121667D02*
X14288881Y-16112143D01*
X14269833Y-16083571D01*
X14260309Y-16064524D01*
X14250786Y-16035952D01*
X14241262Y-15988333D01*
X14241262Y-15950238D01*
X14250786Y-15902619D01*
X14260309Y-15874048D01*
X14269833Y-15855000D01*
X14288881Y-15826428D01*
X14298405Y-15816905D01*
X14460309Y-15912143D02*
X14460309Y-16045476D01*
X14412690Y-15835952D02*
X14365071Y-15978809D01*
X14488881Y-15978809D01*
X14717452Y-16045476D02*
X14717452Y-15845476D01*
X14803167Y-16045476D02*
X14803167Y-15940714D01*
X14793643Y-15921667D01*
X14774595Y-15912143D01*
X14746024Y-15912143D01*
X14726976Y-15921667D01*
X14717452Y-15931190D01*
X14926976Y-16045476D02*
X14907928Y-16035952D01*
X14898405Y-16026428D01*
X14888881Y-16007381D01*
X14888881Y-15950238D01*
X14898405Y-15931190D01*
X14907928Y-15921667D01*
X14926976Y-15912143D01*
X14955548Y-15912143D01*
X14974595Y-15921667D01*
X14984119Y-15931190D01*
X14993643Y-15950238D01*
X14993643Y-16007381D01*
X14984119Y-16026428D01*
X14974595Y-16035952D01*
X14955548Y-16045476D01*
X14926976Y-16045476D01*
X15107928Y-16045476D02*
X15088881Y-16035952D01*
X15079357Y-16016905D01*
X15079357Y-15845476D01*
X15260309Y-16035952D02*
X15241262Y-16045476D01*
X15203167Y-16045476D01*
X15184119Y-16035952D01*
X15174595Y-16016905D01*
X15174595Y-15940714D01*
X15184119Y-15921667D01*
X15203167Y-15912143D01*
X15241262Y-15912143D01*
X15260309Y-15921667D01*
X15269833Y-15940714D01*
X15269833Y-15959762D01*
X15174595Y-15978809D01*
X15346024Y-16035952D02*
X15365071Y-16045476D01*
X15403167Y-16045476D01*
X15422214Y-16035952D01*
X15431738Y-16016905D01*
X15431738Y-16007381D01*
X15422214Y-15988333D01*
X15403167Y-15978809D01*
X15374595Y-15978809D01*
X15355548Y-15969286D01*
X15346024Y-15950238D01*
X15346024Y-15940714D01*
X15355548Y-15921667D01*
X15374595Y-15912143D01*
X15403167Y-15912143D01*
X15422214Y-15921667D01*
X15498405Y-16121667D02*
X15507928Y-16112143D01*
X15526976Y-16083571D01*
X15536500Y-16064524D01*
X15546024Y-16035952D01*
X15555548Y-15988333D01*
X15555548Y-15950238D01*
X15546024Y-15902619D01*
X15536500Y-15874048D01*
X15526976Y-15855000D01*
X15507928Y-15826428D01*
X15498405Y-15816905D01*
M02*
