%TF.GenerationSoftware,KiCad,Pcbnew,(6.0.9)*%
%TF.CreationDate,2022-12-03T00:03:11+01:00*%
%TF.ProjectId,CANduino128,43414e64-7569-46e6-9f31-32382e6b6963,rev?*%
%TF.SameCoordinates,Original*%
%TF.FileFunction,Drillmap*%
%TF.FilePolarity,Positive*%
%FSLAX45Y45*%
G04 Gerber Fmt 4.5, Leading zero omitted, Abs format (unit mm)*
G04 Created by KiCad (PCBNEW (6.0.9)) date 2022-12-03 00:03:11*
%MOMM*%
%LPD*%
G01*
G04 APERTURE LIST*
%ADD10C,0.100000*%
%ADD11C,0.200000*%
%ADD12C,0.040000*%
%ADD13C,0.050000*%
%ADD14C,0.060000*%
%ADD15C,0.080000*%
%ADD16C,0.110000*%
%ADD17C,0.130000*%
%ADD18C,0.320000*%
G04 APERTURE END LIST*
D10*
X15968980Y-13366750D02*
G75*
G03*
X16064230Y-13462000I95250J0D01*
G01*
X19748500Y-4540250D02*
G75*
G03*
X19653250Y-4445000I-95250J0D01*
G01*
X16064230Y-13462000D02*
X19653250Y-13462000D01*
X15968980Y-13366750D02*
G75*
G03*
X15873730Y-13271500I-95250J0D01*
G01*
X10160000Y-13366750D02*
X10160000Y-9950450D01*
X19748500Y-9950450D02*
G75*
G03*
X19653250Y-9855200I-95250J0D01*
G01*
X10255250Y-9855200D02*
G75*
G03*
X10350500Y-9759950I0J95250D01*
G01*
X10255250Y-4445000D02*
X13844270Y-4445000D01*
X16064230Y-4445000D02*
G75*
G03*
X15968980Y-4540250I0J-95250D01*
G01*
X10350500Y-7918450D02*
G75*
G03*
X10255250Y-7823200I-95250J0D01*
G01*
X15873730Y-4635500D02*
G75*
G03*
X15968980Y-4540250I0J95250D01*
G01*
X19558000Y-9759950D02*
G75*
G03*
X19653250Y-9855200I95250J0D01*
G01*
X13844270Y-13462000D02*
G75*
G03*
X13939520Y-13366750I0J95250D01*
G01*
X14034770Y-4635500D02*
X15873730Y-4635500D01*
X10160000Y-7727950D02*
G75*
G03*
X10255250Y-7823200I95250J0D01*
G01*
X10255250Y-9855200D02*
G75*
G03*
X10160000Y-9950450I0J-95250D01*
G01*
X13939520Y-4540250D02*
G75*
G03*
X14034770Y-4635500I95250J0D01*
G01*
X19748500Y-7727950D02*
X19748500Y-4540250D01*
X10160000Y-7727950D02*
X10160000Y-4540250D01*
X16064230Y-4445000D02*
X19653250Y-4445000D01*
X19558000Y-9759950D02*
X19558000Y-7918450D01*
X19748500Y-13366750D02*
X19748500Y-9950450D01*
X10255250Y-4445000D02*
G75*
G03*
X10160000Y-4540250I0J-95250D01*
G01*
X14034770Y-13271500D02*
G75*
G03*
X13939520Y-13366750I0J-95250D01*
G01*
X10160000Y-13366750D02*
G75*
G03*
X10255250Y-13462000I95250J0D01*
G01*
X10255250Y-13462000D02*
X13844270Y-13462000D01*
X19653250Y-13462000D02*
G75*
G03*
X19748500Y-13366750I0J95250D01*
G01*
X19653250Y-7823200D02*
G75*
G03*
X19558000Y-7918450I0J-95250D01*
G01*
X10350500Y-9759950D02*
X10350500Y-7918450D01*
X14034770Y-13271500D02*
X15873730Y-13271500D01*
X19653250Y-7823200D02*
G75*
G03*
X19748500Y-7727950I0J95250D01*
G01*
X13939520Y-4540250D02*
G75*
G03*
X13844270Y-4445000I-95250J0D01*
G01*
D11*
D12*
X11664000Y-9822500D02*
X11704000Y-9862500D01*
X11704000Y-9822500D02*
X11664000Y-9862500D01*
X11791000Y-9378000D02*
X11831000Y-9418000D01*
X11831000Y-9378000D02*
X11791000Y-9418000D01*
X11918000Y-8370950D02*
X11958000Y-8410950D01*
X11958000Y-8370950D02*
X11918000Y-8410950D01*
X11918000Y-8743000D02*
X11958000Y-8783000D01*
X11958000Y-8743000D02*
X11918000Y-8783000D01*
X11918000Y-9124000D02*
X11958000Y-9164000D01*
X11958000Y-9124000D02*
X11918000Y-9164000D01*
X15093000Y-8108000D02*
X15133000Y-8148000D01*
X15133000Y-8108000D02*
X15093000Y-8148000D01*
X15791500Y-9251000D02*
X15831500Y-9291000D01*
X15831500Y-9251000D02*
X15791500Y-9291000D01*
D13*
X10453000Y-5207000D02*
G75*
G03*
X10453000Y-5207000I-25000J0D01*
G01*
X10453000Y-12573000D02*
G75*
G03*
X10453000Y-12573000I-25000J0D01*
G01*
X10523294Y-5037294D02*
G75*
G03*
X10523294Y-5037294I-25000J0D01*
G01*
X10523294Y-5376706D02*
G75*
G03*
X10523294Y-5376706I-25000J0D01*
G01*
X10523294Y-12403294D02*
G75*
G03*
X10523294Y-12403294I-25000J0D01*
G01*
X10523294Y-12742706D02*
G75*
G03*
X10523294Y-12742706I-25000J0D01*
G01*
X10693000Y-4967000D02*
G75*
G03*
X10693000Y-4967000I-25000J0D01*
G01*
X10693000Y-5447000D02*
G75*
G03*
X10693000Y-5447000I-25000J0D01*
G01*
X10693000Y-12333000D02*
G75*
G03*
X10693000Y-12333000I-25000J0D01*
G01*
X10693000Y-12813000D02*
G75*
G03*
X10693000Y-12813000I-25000J0D01*
G01*
X10862706Y-5037294D02*
G75*
G03*
X10862706Y-5037294I-25000J0D01*
G01*
X10862706Y-5376706D02*
G75*
G03*
X10862706Y-5376706I-25000J0D01*
G01*
X10862706Y-12403294D02*
G75*
G03*
X10862706Y-12403294I-25000J0D01*
G01*
X10862706Y-12742706D02*
G75*
G03*
X10862706Y-12742706I-25000J0D01*
G01*
X10933000Y-5207000D02*
G75*
G03*
X10933000Y-5207000I-25000J0D01*
G01*
X10933000Y-12573000D02*
G75*
G03*
X10933000Y-12573000I-25000J0D01*
G01*
X19025500Y-4953000D02*
G75*
G03*
X19025500Y-4953000I-25000J0D01*
G01*
X19025500Y-12954000D02*
G75*
G03*
X19025500Y-12954000I-25000J0D01*
G01*
X19095794Y-4783294D02*
G75*
G03*
X19095794Y-4783294I-25000J0D01*
G01*
X19095794Y-5122706D02*
G75*
G03*
X19095794Y-5122706I-25000J0D01*
G01*
X19095794Y-12784294D02*
G75*
G03*
X19095794Y-12784294I-25000J0D01*
G01*
X19095794Y-13123706D02*
G75*
G03*
X19095794Y-13123706I-25000J0D01*
G01*
X19265500Y-4713000D02*
G75*
G03*
X19265500Y-4713000I-25000J0D01*
G01*
X19265500Y-5193000D02*
G75*
G03*
X19265500Y-5193000I-25000J0D01*
G01*
X19265500Y-12714000D02*
G75*
G03*
X19265500Y-12714000I-25000J0D01*
G01*
X19265500Y-13194000D02*
G75*
G03*
X19265500Y-13194000I-25000J0D01*
G01*
X19435206Y-4783294D02*
G75*
G03*
X19435206Y-4783294I-25000J0D01*
G01*
X19435206Y-5122706D02*
G75*
G03*
X19435206Y-5122706I-25000J0D01*
G01*
X19435206Y-12784294D02*
G75*
G03*
X19435206Y-12784294I-25000J0D01*
G01*
X19435206Y-13123706D02*
G75*
G03*
X19435206Y-13123706I-25000J0D01*
G01*
X19505500Y-4953000D02*
G75*
G03*
X19505500Y-4953000I-25000J0D01*
G01*
X19505500Y-12954000D02*
G75*
G03*
X19505500Y-12954000I-25000J0D01*
G01*
D14*
X12446000Y-13241500D02*
X12446000Y-13301500D01*
X12416000Y-13271500D02*
X12476000Y-13271500D01*
D15*
X12728284Y-7140284D02*
X12728284Y-7083715D01*
X12671715Y-7083715D01*
X12671715Y-7140284D01*
X12728284Y-7140284D01*
X12728284Y-7394284D02*
X12728284Y-7337715D01*
X12671715Y-7337715D01*
X12671715Y-7394284D01*
X12728284Y-7394284D01*
X12728284Y-7648284D02*
X12728284Y-7591715D01*
X12671715Y-7591715D01*
X12671715Y-7648284D01*
X12728284Y-7648284D01*
X12728284Y-7902284D02*
X12728284Y-7845715D01*
X12671715Y-7845715D01*
X12671715Y-7902284D01*
X12728284Y-7902284D01*
X12728284Y-8156284D02*
X12728284Y-8099715D01*
X12671715Y-8099715D01*
X12671715Y-8156284D01*
X12728284Y-8156284D01*
X12728284Y-8410285D02*
X12728284Y-8353715D01*
X12671715Y-8353715D01*
X12671715Y-8410285D01*
X12728284Y-8410285D01*
X12728284Y-8664285D02*
X12728284Y-8607716D01*
X12671715Y-8607716D01*
X12671715Y-8664285D01*
X12728284Y-8664285D01*
X12728284Y-8918285D02*
X12728284Y-8861716D01*
X12671715Y-8861716D01*
X12671715Y-8918285D01*
X12728284Y-8918285D01*
X12728284Y-9172285D02*
X12728284Y-9115716D01*
X12671715Y-9115716D01*
X12671715Y-9172285D01*
X12728284Y-9172285D01*
X12728284Y-9426285D02*
X12728284Y-9369716D01*
X12671715Y-9369716D01*
X12671715Y-9426285D01*
X12728284Y-9426285D01*
X12728284Y-9680285D02*
X12728284Y-9623716D01*
X12671715Y-9623716D01*
X12671715Y-9680285D01*
X12728284Y-9680285D01*
X12728284Y-9934285D02*
X12728284Y-9877716D01*
X12671715Y-9877716D01*
X12671715Y-9934285D01*
X12728284Y-9934285D01*
X12728284Y-10188285D02*
X12728284Y-10131716D01*
X12671715Y-10131716D01*
X12671715Y-10188285D01*
X12728284Y-10188285D01*
X12728284Y-10442285D02*
X12728284Y-10385716D01*
X12671715Y-10385716D01*
X12671715Y-10442285D01*
X12728284Y-10442285D01*
X12728284Y-10696285D02*
X12728284Y-10639716D01*
X12671715Y-10639716D01*
X12671715Y-10696285D01*
X12728284Y-10696285D01*
X12728284Y-10950285D02*
X12728284Y-10893716D01*
X12671715Y-10893716D01*
X12671715Y-10950285D01*
X12728284Y-10950285D01*
X12982284Y-6886284D02*
X12982284Y-6829715D01*
X12925715Y-6829715D01*
X12925715Y-6886284D01*
X12982284Y-6886284D01*
X12982284Y-11204284D02*
X12982284Y-11147716D01*
X12925715Y-11147716D01*
X12925715Y-11204284D01*
X12982284Y-11204284D01*
X13236284Y-6886284D02*
X13236284Y-6829715D01*
X13179715Y-6829715D01*
X13179715Y-6886284D01*
X13236284Y-6886284D01*
X13236284Y-8409285D02*
X13236284Y-8352715D01*
X13179715Y-8352715D01*
X13179715Y-8409285D01*
X13236284Y-8409285D01*
X13236284Y-8663285D02*
X13236284Y-8606716D01*
X13179715Y-8606716D01*
X13179715Y-8663285D01*
X13236284Y-8663285D01*
X13236284Y-8917285D02*
X13236284Y-8860716D01*
X13179715Y-8860716D01*
X13179715Y-8917285D01*
X13236284Y-8917285D01*
X13236284Y-9171285D02*
X13236284Y-9114716D01*
X13179715Y-9114716D01*
X13179715Y-9171285D01*
X13236284Y-9171285D01*
X13236284Y-11204284D02*
X13236284Y-11147716D01*
X13179715Y-11147716D01*
X13179715Y-11204284D01*
X13236284Y-11204284D01*
X13490284Y-6886284D02*
X13490284Y-6829715D01*
X13433715Y-6829715D01*
X13433715Y-6886284D01*
X13490284Y-6886284D01*
X13490284Y-11204284D02*
X13490284Y-11147716D01*
X13433715Y-11147716D01*
X13433715Y-11204284D01*
X13490284Y-11204284D01*
X13744284Y-6886284D02*
X13744284Y-6829715D01*
X13687715Y-6829715D01*
X13687715Y-6886284D01*
X13744284Y-6886284D01*
X13744284Y-11204284D02*
X13744284Y-11147716D01*
X13687715Y-11147716D01*
X13687715Y-11204284D01*
X13744284Y-11204284D01*
X13998284Y-6886284D02*
X13998284Y-6829715D01*
X13941715Y-6829715D01*
X13941715Y-6886284D01*
X13998284Y-6886284D01*
X13998284Y-8409285D02*
X13998284Y-8352715D01*
X13941715Y-8352715D01*
X13941715Y-8409285D01*
X13998284Y-8409285D01*
X13998284Y-8663285D02*
X13998284Y-8606716D01*
X13941715Y-8606716D01*
X13941715Y-8663285D01*
X13998284Y-8663285D01*
X13998284Y-8917285D02*
X13998284Y-8860716D01*
X13941715Y-8860716D01*
X13941715Y-8917285D01*
X13998284Y-8917285D01*
X13998284Y-9171285D02*
X13998284Y-9114716D01*
X13941715Y-9114716D01*
X13941715Y-9171285D01*
X13998284Y-9171285D01*
X13998284Y-11204284D02*
X13998284Y-11147716D01*
X13941715Y-11147716D01*
X13941715Y-11204284D01*
X13998284Y-11204284D01*
X14252284Y-6886284D02*
X14252284Y-6829715D01*
X14195715Y-6829715D01*
X14195715Y-6886284D01*
X14252284Y-6886284D01*
X14252284Y-11204284D02*
X14252284Y-11147716D01*
X14195715Y-11147716D01*
X14195715Y-11204284D01*
X14252284Y-11204284D01*
X14506284Y-6886284D02*
X14506284Y-6829715D01*
X14449715Y-6829715D01*
X14449715Y-6886284D01*
X14506284Y-6886284D01*
X14506284Y-11204284D02*
X14506284Y-11147716D01*
X14449715Y-11147716D01*
X14449715Y-11204284D01*
X14506284Y-11204284D01*
X14760284Y-6886284D02*
X14760284Y-6829715D01*
X14703715Y-6829715D01*
X14703715Y-6886284D01*
X14760284Y-6886284D01*
X14760284Y-11204284D02*
X14760284Y-11147716D01*
X14703715Y-11147716D01*
X14703715Y-11204284D01*
X14760284Y-11204284D01*
X15014284Y-6886284D02*
X15014284Y-6829715D01*
X14957715Y-6829715D01*
X14957715Y-6886284D01*
X15014284Y-6886284D01*
X15014284Y-11204284D02*
X15014284Y-11147716D01*
X14957715Y-11147716D01*
X14957715Y-11204284D01*
X15014284Y-11204284D01*
X15268284Y-6886284D02*
X15268284Y-6829715D01*
X15211715Y-6829715D01*
X15211715Y-6886284D01*
X15268284Y-6886284D01*
X15268284Y-11204284D02*
X15268284Y-11147716D01*
X15211715Y-11147716D01*
X15211715Y-11204284D01*
X15268284Y-11204284D01*
X15522284Y-6886284D02*
X15522284Y-6829715D01*
X15465715Y-6829715D01*
X15465715Y-6886284D01*
X15522284Y-6886284D01*
X15522284Y-11204284D02*
X15522284Y-11147716D01*
X15465715Y-11147716D01*
X15465715Y-11204284D01*
X15522284Y-11204284D01*
X15776284Y-6886284D02*
X15776284Y-6829715D01*
X15719715Y-6829715D01*
X15719715Y-6886284D01*
X15776284Y-6886284D01*
X15776284Y-11204284D02*
X15776284Y-11147716D01*
X15719715Y-11147716D01*
X15719715Y-11204284D01*
X15776284Y-11204284D01*
X16030284Y-6886284D02*
X16030284Y-6829715D01*
X15973715Y-6829715D01*
X15973715Y-6886284D01*
X16030284Y-6886284D01*
X16030284Y-11204284D02*
X16030284Y-11147716D01*
X15973715Y-11147716D01*
X15973715Y-11204284D01*
X16030284Y-11204284D01*
X16284284Y-6886284D02*
X16284284Y-6829715D01*
X16227715Y-6829715D01*
X16227715Y-6886284D01*
X16284284Y-6886284D01*
X16284284Y-11204284D02*
X16284284Y-11147716D01*
X16227715Y-11147716D01*
X16227715Y-11204284D01*
X16284284Y-11204284D01*
X16538284Y-6886284D02*
X16538284Y-6829715D01*
X16481715Y-6829715D01*
X16481715Y-6886284D01*
X16538284Y-6886284D01*
X16538284Y-7140284D02*
X16538284Y-7083715D01*
X16481715Y-7083715D01*
X16481715Y-7140284D01*
X16538284Y-7140284D01*
X16538284Y-11204284D02*
X16538284Y-11147716D01*
X16481715Y-11147716D01*
X16481715Y-11204284D01*
X16538284Y-11204284D01*
X16792285Y-6886284D02*
X16792285Y-6829715D01*
X16735715Y-6829715D01*
X16735715Y-6886284D01*
X16792285Y-6886284D01*
X16792285Y-7140284D02*
X16792285Y-7083715D01*
X16735715Y-7083715D01*
X16735715Y-7140284D01*
X16792285Y-7140284D01*
X16792285Y-11204284D02*
X16792285Y-11147716D01*
X16735715Y-11147716D01*
X16735715Y-11204284D01*
X16792285Y-11204284D01*
X17046285Y-7140284D02*
X17046285Y-7083715D01*
X16989716Y-7083715D01*
X16989716Y-7140284D01*
X17046285Y-7140284D01*
X17046285Y-7394284D02*
X17046285Y-7337715D01*
X16989716Y-7337715D01*
X16989716Y-7394284D01*
X17046285Y-7394284D01*
X17046285Y-7648284D02*
X17046285Y-7591715D01*
X16989716Y-7591715D01*
X16989716Y-7648284D01*
X17046285Y-7648284D01*
X17046285Y-7902284D02*
X17046285Y-7845715D01*
X16989716Y-7845715D01*
X16989716Y-7902284D01*
X17046285Y-7902284D01*
X17046285Y-8156284D02*
X17046285Y-8099715D01*
X16989716Y-8099715D01*
X16989716Y-8156284D01*
X17046285Y-8156284D01*
X17046285Y-8410285D02*
X17046285Y-8353715D01*
X16989716Y-8353715D01*
X16989716Y-8410285D01*
X17046285Y-8410285D01*
X17046285Y-8664285D02*
X17046285Y-8607716D01*
X16989716Y-8607716D01*
X16989716Y-8664285D01*
X17046285Y-8664285D01*
X17046285Y-8918285D02*
X17046285Y-8861716D01*
X16989716Y-8861716D01*
X16989716Y-8918285D01*
X17046285Y-8918285D01*
X17046285Y-9172285D02*
X17046285Y-9115716D01*
X16989716Y-9115716D01*
X16989716Y-9172285D01*
X17046285Y-9172285D01*
X17046285Y-9426285D02*
X17046285Y-9369716D01*
X16989716Y-9369716D01*
X16989716Y-9426285D01*
X17046285Y-9426285D01*
X17046285Y-9680285D02*
X17046285Y-9623716D01*
X16989716Y-9623716D01*
X16989716Y-9680285D01*
X17046285Y-9680285D01*
X17046285Y-9934285D02*
X17046285Y-9877716D01*
X16989716Y-9877716D01*
X16989716Y-9934285D01*
X17046285Y-9934285D01*
X17046285Y-10188285D02*
X17046285Y-10131716D01*
X16989716Y-10131716D01*
X16989716Y-10188285D01*
X17046285Y-10188285D01*
X17046285Y-10442285D02*
X17046285Y-10385716D01*
X16989716Y-10385716D01*
X16989716Y-10442285D01*
X17046285Y-10442285D01*
X17046285Y-10696285D02*
X17046285Y-10639716D01*
X16989716Y-10639716D01*
X16989716Y-10696285D01*
X17046285Y-10696285D01*
X17046285Y-10950285D02*
X17046285Y-10893716D01*
X16989716Y-10893716D01*
X16989716Y-10950285D01*
X17046285Y-10950285D01*
D10*
X10668000Y-6527000D02*
X10718000Y-6477000D01*
X10668000Y-6427000D01*
X10618000Y-6477000D01*
X10668000Y-6527000D01*
X10668000Y-6781000D02*
X10718000Y-6731000D01*
X10668000Y-6681000D01*
X10618000Y-6731000D01*
X10668000Y-6781000D01*
X10668000Y-7035000D02*
X10718000Y-6985000D01*
X10668000Y-6935000D01*
X10618000Y-6985000D01*
X10668000Y-7035000D01*
X10668000Y-7289000D02*
X10718000Y-7239000D01*
X10668000Y-7189000D01*
X10618000Y-7239000D01*
X10668000Y-7289000D01*
X10668000Y-7543000D02*
X10718000Y-7493000D01*
X10668000Y-7443000D01*
X10618000Y-7493000D01*
X10668000Y-7543000D01*
X10668000Y-7797000D02*
X10718000Y-7747000D01*
X10668000Y-7697000D01*
X10618000Y-7747000D01*
X10668000Y-7797000D01*
X10668000Y-8051000D02*
X10718000Y-8001000D01*
X10668000Y-7951000D01*
X10618000Y-8001000D01*
X10668000Y-8051000D01*
X10668000Y-8686000D02*
X10718000Y-8636000D01*
X10668000Y-8586000D01*
X10618000Y-8636000D01*
X10668000Y-8686000D01*
X10668000Y-8940000D02*
X10718000Y-8890000D01*
X10668000Y-8840000D01*
X10618000Y-8890000D01*
X10668000Y-8940000D01*
X10668000Y-9194000D02*
X10718000Y-9144000D01*
X10668000Y-9094000D01*
X10618000Y-9144000D01*
X10668000Y-9194000D01*
X10668000Y-9448000D02*
X10718000Y-9398000D01*
X10668000Y-9348000D01*
X10618000Y-9398000D01*
X10668000Y-9448000D01*
X10668000Y-9702000D02*
X10718000Y-9652000D01*
X10668000Y-9602000D01*
X10618000Y-9652000D01*
X10668000Y-9702000D01*
X10668000Y-9956000D02*
X10718000Y-9906000D01*
X10668000Y-9856000D01*
X10618000Y-9906000D01*
X10668000Y-9956000D01*
X10668000Y-10210000D02*
X10718000Y-10160000D01*
X10668000Y-10110000D01*
X10618000Y-10160000D01*
X10668000Y-10210000D01*
X10668000Y-10464000D02*
X10718000Y-10414000D01*
X10668000Y-10364000D01*
X10618000Y-10414000D01*
X10668000Y-10464000D01*
X10668000Y-10718000D02*
X10718000Y-10668000D01*
X10668000Y-10618000D01*
X10618000Y-10668000D01*
X10668000Y-10718000D01*
X10668000Y-10972000D02*
X10718000Y-10922000D01*
X10668000Y-10872000D01*
X10618000Y-10922000D01*
X10668000Y-10972000D01*
X10668000Y-11226000D02*
X10718000Y-11176000D01*
X10668000Y-11126000D01*
X10618000Y-11176000D01*
X10668000Y-11226000D01*
X10922000Y-6527000D02*
X10972000Y-6477000D01*
X10922000Y-6427000D01*
X10872000Y-6477000D01*
X10922000Y-6527000D01*
X10922000Y-6781000D02*
X10972000Y-6731000D01*
X10922000Y-6681000D01*
X10872000Y-6731000D01*
X10922000Y-6781000D01*
X10922000Y-7035000D02*
X10972000Y-6985000D01*
X10922000Y-6935000D01*
X10872000Y-6985000D01*
X10922000Y-7035000D01*
X10922000Y-7289000D02*
X10972000Y-7239000D01*
X10922000Y-7189000D01*
X10872000Y-7239000D01*
X10922000Y-7289000D01*
X10922000Y-7543000D02*
X10972000Y-7493000D01*
X10922000Y-7443000D01*
X10872000Y-7493000D01*
X10922000Y-7543000D01*
X10922000Y-7797000D02*
X10972000Y-7747000D01*
X10922000Y-7697000D01*
X10872000Y-7747000D01*
X10922000Y-7797000D01*
X10922000Y-8051000D02*
X10972000Y-8001000D01*
X10922000Y-7951000D01*
X10872000Y-8001000D01*
X10922000Y-8051000D01*
X10922000Y-8686000D02*
X10972000Y-8636000D01*
X10922000Y-8586000D01*
X10872000Y-8636000D01*
X10922000Y-8686000D01*
X10922000Y-8940000D02*
X10972000Y-8890000D01*
X10922000Y-8840000D01*
X10872000Y-8890000D01*
X10922000Y-8940000D01*
X10922000Y-9194000D02*
X10972000Y-9144000D01*
X10922000Y-9094000D01*
X10872000Y-9144000D01*
X10922000Y-9194000D01*
X10922000Y-9448000D02*
X10972000Y-9398000D01*
X10922000Y-9348000D01*
X10872000Y-9398000D01*
X10922000Y-9448000D01*
X10922000Y-9702000D02*
X10972000Y-9652000D01*
X10922000Y-9602000D01*
X10872000Y-9652000D01*
X10922000Y-9702000D01*
X10922000Y-9956000D02*
X10972000Y-9906000D01*
X10922000Y-9856000D01*
X10872000Y-9906000D01*
X10922000Y-9956000D01*
X10922000Y-10210000D02*
X10972000Y-10160000D01*
X10922000Y-10110000D01*
X10872000Y-10160000D01*
X10922000Y-10210000D01*
X10922000Y-10464000D02*
X10972000Y-10414000D01*
X10922000Y-10364000D01*
X10872000Y-10414000D01*
X10922000Y-10464000D01*
X10922000Y-10718000D02*
X10972000Y-10668000D01*
X10922000Y-10618000D01*
X10872000Y-10668000D01*
X10922000Y-10718000D01*
X10922000Y-10972000D02*
X10972000Y-10922000D01*
X10922000Y-10872000D01*
X10872000Y-10922000D01*
X10922000Y-10972000D01*
X10922000Y-11226000D02*
X10972000Y-11176000D01*
X10922000Y-11126000D01*
X10872000Y-11176000D01*
X10922000Y-11226000D01*
X11430000Y-5892000D02*
X11480000Y-5842000D01*
X11430000Y-5792000D01*
X11380000Y-5842000D01*
X11430000Y-5892000D01*
X11430000Y-6146000D02*
X11480000Y-6096000D01*
X11430000Y-6046000D01*
X11380000Y-6096000D01*
X11430000Y-6146000D01*
X12954000Y-12496000D02*
X13004000Y-12446000D01*
X12954000Y-12396000D01*
X12904000Y-12446000D01*
X12954000Y-12496000D01*
X12954000Y-12750000D02*
X13004000Y-12700000D01*
X12954000Y-12650000D01*
X12904000Y-12700000D01*
X12954000Y-12750000D01*
X13208000Y-12496000D02*
X13258000Y-12446000D01*
X13208000Y-12396000D01*
X13158000Y-12446000D01*
X13208000Y-12496000D01*
X13208000Y-12750000D02*
X13258000Y-12700000D01*
X13208000Y-12650000D01*
X13158000Y-12700000D01*
X13208000Y-12750000D01*
X13462000Y-12496000D02*
X13512000Y-12446000D01*
X13462000Y-12396000D01*
X13412000Y-12446000D01*
X13462000Y-12496000D01*
X13462000Y-12750000D02*
X13512000Y-12700000D01*
X13462000Y-12650000D01*
X13412000Y-12700000D01*
X13462000Y-12750000D01*
X13716000Y-12496000D02*
X13766000Y-12446000D01*
X13716000Y-12396000D01*
X13666000Y-12446000D01*
X13716000Y-12496000D01*
X13716000Y-12750000D02*
X13766000Y-12700000D01*
X13716000Y-12650000D01*
X13666000Y-12700000D01*
X13716000Y-12750000D01*
X13970000Y-12496000D02*
X14020000Y-12446000D01*
X13970000Y-12396000D01*
X13920000Y-12446000D01*
X13970000Y-12496000D01*
X13970000Y-12750000D02*
X14020000Y-12700000D01*
X13970000Y-12650000D01*
X13920000Y-12700000D01*
X13970000Y-12750000D01*
X14224000Y-12496000D02*
X14274000Y-12446000D01*
X14224000Y-12396000D01*
X14174000Y-12446000D01*
X14224000Y-12496000D01*
X14224000Y-12750000D02*
X14274000Y-12700000D01*
X14224000Y-12650000D01*
X14174000Y-12700000D01*
X14224000Y-12750000D01*
X14478000Y-12496000D02*
X14528000Y-12446000D01*
X14478000Y-12396000D01*
X14428000Y-12446000D01*
X14478000Y-12496000D01*
X14478000Y-12750000D02*
X14528000Y-12700000D01*
X14478000Y-12650000D01*
X14428000Y-12700000D01*
X14478000Y-12750000D01*
X14732000Y-12496000D02*
X14782000Y-12446000D01*
X14732000Y-12396000D01*
X14682000Y-12446000D01*
X14732000Y-12496000D01*
X14732000Y-12750000D02*
X14782000Y-12700000D01*
X14732000Y-12650000D01*
X14682000Y-12700000D01*
X14732000Y-12750000D01*
X14986000Y-12496000D02*
X15036000Y-12446000D01*
X14986000Y-12396000D01*
X14936000Y-12446000D01*
X14986000Y-12496000D01*
X14986000Y-12750000D02*
X15036000Y-12700000D01*
X14986000Y-12650000D01*
X14936000Y-12700000D01*
X14986000Y-12750000D01*
X15240000Y-12496000D02*
X15290000Y-12446000D01*
X15240000Y-12396000D01*
X15190000Y-12446000D01*
X15240000Y-12496000D01*
X15240000Y-12750000D02*
X15290000Y-12700000D01*
X15240000Y-12650000D01*
X15190000Y-12700000D01*
X15240000Y-12750000D01*
X15494000Y-12496000D02*
X15544000Y-12446000D01*
X15494000Y-12396000D01*
X15444000Y-12446000D01*
X15494000Y-12496000D01*
X15494000Y-12750000D02*
X15544000Y-12700000D01*
X15494000Y-12650000D01*
X15444000Y-12700000D01*
X15494000Y-12750000D01*
X15748000Y-12496000D02*
X15798000Y-12446000D01*
X15748000Y-12396000D01*
X15698000Y-12446000D01*
X15748000Y-12496000D01*
X15748000Y-12750000D02*
X15798000Y-12700000D01*
X15748000Y-12650000D01*
X15698000Y-12700000D01*
X15748000Y-12750000D01*
X16002000Y-12496000D02*
X16052000Y-12446000D01*
X16002000Y-12396000D01*
X15952000Y-12446000D01*
X16002000Y-12496000D01*
X16002000Y-12750000D02*
X16052000Y-12700000D01*
X16002000Y-12650000D01*
X15952000Y-12700000D01*
X16002000Y-12750000D01*
X16256000Y-12496000D02*
X16306000Y-12446000D01*
X16256000Y-12396000D01*
X16206000Y-12446000D01*
X16256000Y-12496000D01*
X16256000Y-12750000D02*
X16306000Y-12700000D01*
X16256000Y-12650000D01*
X16206000Y-12700000D01*
X16256000Y-12750000D01*
D16*
X11629000Y-12645000D02*
X11739000Y-12755000D01*
X11739000Y-12645000D02*
X11629000Y-12755000D01*
X11739000Y-12700000D02*
G75*
G03*
X11739000Y-12700000I-55000J0D01*
G01*
X11883000Y-12645000D02*
X11993000Y-12755000D01*
X11993000Y-12645000D02*
X11883000Y-12755000D01*
X11993000Y-12700000D02*
G75*
G03*
X11993000Y-12700000I-55000J0D01*
G01*
D17*
X12000000Y-5269000D02*
X12130000Y-5399000D01*
X12130000Y-5269000D02*
X12000000Y-5399000D01*
X12065000Y-5269000D02*
X12065000Y-5399000D01*
X12000000Y-5334000D02*
X12130000Y-5334000D01*
X12508000Y-5269000D02*
X12638000Y-5399000D01*
X12638000Y-5269000D02*
X12508000Y-5399000D01*
X12573000Y-5269000D02*
X12573000Y-5399000D01*
X12508000Y-5334000D02*
X12638000Y-5334000D01*
X13016000Y-5269000D02*
X13146000Y-5399000D01*
X13146000Y-5269000D02*
X13016000Y-5399000D01*
X13081000Y-5269000D02*
X13081000Y-5399000D01*
X13016000Y-5334000D02*
X13146000Y-5334000D01*
X13524000Y-5269000D02*
X13654000Y-5399000D01*
X13654000Y-5269000D02*
X13524000Y-5399000D01*
X13589000Y-5269000D02*
X13589000Y-5399000D01*
X13524000Y-5334000D02*
X13654000Y-5334000D01*
X14032000Y-5269000D02*
X14162000Y-5399000D01*
X14162000Y-5269000D02*
X14032000Y-5399000D01*
X14097000Y-5269000D02*
X14097000Y-5399000D01*
X14032000Y-5334000D02*
X14162000Y-5334000D01*
X14540000Y-5269000D02*
X14670000Y-5399000D01*
X14670000Y-5269000D02*
X14540000Y-5399000D01*
X14605000Y-5269000D02*
X14605000Y-5399000D01*
X14540000Y-5334000D02*
X14670000Y-5334000D01*
X15302000Y-5269000D02*
X15432000Y-5399000D01*
X15432000Y-5269000D02*
X15302000Y-5399000D01*
X15367000Y-5269000D02*
X15367000Y-5399000D01*
X15302000Y-5334000D02*
X15432000Y-5334000D01*
X15810000Y-5269000D02*
X15940000Y-5399000D01*
X15940000Y-5269000D02*
X15810000Y-5399000D01*
X15875000Y-5269000D02*
X15875000Y-5399000D01*
X15810000Y-5334000D02*
X15940000Y-5334000D01*
X16318000Y-5269000D02*
X16448000Y-5399000D01*
X16448000Y-5269000D02*
X16318000Y-5399000D01*
X16383000Y-5269000D02*
X16383000Y-5399000D01*
X16318000Y-5334000D02*
X16448000Y-5334000D01*
X16826000Y-5269000D02*
X16956000Y-5399000D01*
X16956000Y-5269000D02*
X16826000Y-5399000D01*
X16891000Y-5269000D02*
X16891000Y-5399000D01*
X16826000Y-5334000D02*
X16956000Y-5334000D01*
X17334000Y-5269000D02*
X17464000Y-5399000D01*
X17464000Y-5269000D02*
X17334000Y-5399000D01*
X17399000Y-5269000D02*
X17399000Y-5399000D01*
X17334000Y-5334000D02*
X17464000Y-5334000D01*
X17842000Y-5269000D02*
X17972000Y-5399000D01*
X17972000Y-5269000D02*
X17842000Y-5399000D01*
X17907000Y-5269000D02*
X17907000Y-5399000D01*
X17842000Y-5334000D02*
X17972000Y-5334000D01*
X18731000Y-6793000D02*
X18861000Y-6923000D01*
X18861000Y-6793000D02*
X18731000Y-6923000D01*
X18796000Y-6793000D02*
X18796000Y-6923000D01*
X18731000Y-6858000D02*
X18861000Y-6858000D01*
X18731000Y-7301000D02*
X18861000Y-7431000D01*
X18861000Y-7301000D02*
X18731000Y-7431000D01*
X18796000Y-7301000D02*
X18796000Y-7431000D01*
X18731000Y-7366000D02*
X18861000Y-7366000D01*
X18731000Y-7809000D02*
X18861000Y-7939000D01*
X18861000Y-7809000D02*
X18731000Y-7939000D01*
X18796000Y-7809000D02*
X18796000Y-7939000D01*
X18731000Y-7874000D02*
X18861000Y-7874000D01*
X18731000Y-8317000D02*
X18861000Y-8447000D01*
X18861000Y-8317000D02*
X18731000Y-8447000D01*
X18796000Y-8317000D02*
X18796000Y-8447000D01*
X18731000Y-8382000D02*
X18861000Y-8382000D01*
X18731000Y-8825000D02*
X18861000Y-8955000D01*
X18861000Y-8825000D02*
X18731000Y-8955000D01*
X18796000Y-8825000D02*
X18796000Y-8955000D01*
X18731000Y-8890000D02*
X18861000Y-8890000D01*
X18731000Y-9333000D02*
X18861000Y-9463000D01*
X18861000Y-9333000D02*
X18731000Y-9463000D01*
X18796000Y-9333000D02*
X18796000Y-9463000D01*
X18731000Y-9398000D02*
X18861000Y-9398000D01*
X18731000Y-9841000D02*
X18861000Y-9971000D01*
X18861000Y-9841000D02*
X18731000Y-9971000D01*
X18796000Y-9841000D02*
X18796000Y-9971000D01*
X18731000Y-9906000D02*
X18861000Y-9906000D01*
X18731000Y-10349000D02*
X18861000Y-10479000D01*
X18861000Y-10349000D02*
X18731000Y-10479000D01*
X18796000Y-10349000D02*
X18796000Y-10479000D01*
X18731000Y-10414000D02*
X18861000Y-10414000D01*
X18731000Y-10857000D02*
X18861000Y-10987000D01*
X18861000Y-10857000D02*
X18731000Y-10987000D01*
X18796000Y-10857000D02*
X18796000Y-10987000D01*
X18731000Y-10922000D02*
X18861000Y-10922000D01*
X18731000Y-11365000D02*
X18861000Y-11495000D01*
X18861000Y-11365000D02*
X18731000Y-11495000D01*
X18796000Y-11365000D02*
X18796000Y-11495000D01*
X18731000Y-11430000D02*
X18861000Y-11430000D01*
D18*
X10508000Y-5047000D02*
X10828000Y-5367000D01*
X10828000Y-5047000D02*
X10508000Y-5367000D01*
X10781138Y-5320138D02*
X10781138Y-5093862D01*
X10554862Y-5093862D01*
X10554862Y-5320138D01*
X10781138Y-5320138D01*
X10508000Y-12413000D02*
X10828000Y-12733000D01*
X10828000Y-12413000D02*
X10508000Y-12733000D01*
X10781138Y-12686138D02*
X10781138Y-12459862D01*
X10554862Y-12459862D01*
X10554862Y-12686138D01*
X10781138Y-12686138D01*
X19080500Y-4793000D02*
X19400500Y-5113000D01*
X19400500Y-4793000D02*
X19080500Y-5113000D01*
X19353638Y-5066138D02*
X19353638Y-4839862D01*
X19127362Y-4839862D01*
X19127362Y-5066138D01*
X19353638Y-5066138D01*
X19080500Y-12794000D02*
X19400500Y-13114000D01*
X19400500Y-12794000D02*
X19080500Y-13114000D01*
X19353638Y-13067138D02*
X19353638Y-12840862D01*
X19127362Y-12840862D01*
X19127362Y-13067138D01*
X19353638Y-13067138D01*
D11*
X10412619Y-13777476D02*
X10412619Y-13577476D01*
X10460238Y-13577476D01*
X10488809Y-13587000D01*
X10507857Y-13606048D01*
X10517381Y-13625095D01*
X10526905Y-13663190D01*
X10526905Y-13691762D01*
X10517381Y-13729857D01*
X10507857Y-13748905D01*
X10488809Y-13767952D01*
X10460238Y-13777476D01*
X10412619Y-13777476D01*
X10612619Y-13777476D02*
X10612619Y-13644143D01*
X10612619Y-13682238D02*
X10622143Y-13663190D01*
X10631667Y-13653667D01*
X10650714Y-13644143D01*
X10669762Y-13644143D01*
X10736428Y-13777476D02*
X10736428Y-13644143D01*
X10736428Y-13577476D02*
X10726905Y-13587000D01*
X10736428Y-13596524D01*
X10745952Y-13587000D01*
X10736428Y-13577476D01*
X10736428Y-13596524D01*
X10860238Y-13777476D02*
X10841190Y-13767952D01*
X10831667Y-13748905D01*
X10831667Y-13577476D01*
X10965000Y-13777476D02*
X10945952Y-13767952D01*
X10936428Y-13748905D01*
X10936428Y-13577476D01*
X11193571Y-13777476D02*
X11193571Y-13577476D01*
X11260238Y-13720333D01*
X11326905Y-13577476D01*
X11326905Y-13777476D01*
X11507857Y-13777476D02*
X11507857Y-13672714D01*
X11498333Y-13653667D01*
X11479286Y-13644143D01*
X11441190Y-13644143D01*
X11422143Y-13653667D01*
X11507857Y-13767952D02*
X11488809Y-13777476D01*
X11441190Y-13777476D01*
X11422143Y-13767952D01*
X11412619Y-13748905D01*
X11412619Y-13729857D01*
X11422143Y-13710809D01*
X11441190Y-13701286D01*
X11488809Y-13701286D01*
X11507857Y-13691762D01*
X11603095Y-13644143D02*
X11603095Y-13844143D01*
X11603095Y-13653667D02*
X11622143Y-13644143D01*
X11660238Y-13644143D01*
X11679286Y-13653667D01*
X11688809Y-13663190D01*
X11698333Y-13682238D01*
X11698333Y-13739381D01*
X11688809Y-13758428D01*
X11679286Y-13767952D01*
X11660238Y-13777476D01*
X11622143Y-13777476D01*
X11603095Y-13767952D01*
X11784047Y-13758428D02*
X11793571Y-13767952D01*
X11784047Y-13777476D01*
X11774524Y-13767952D01*
X11784047Y-13758428D01*
X11784047Y-13777476D01*
X11784047Y-13653667D02*
X11793571Y-13663190D01*
X11784047Y-13672714D01*
X11774524Y-13663190D01*
X11784047Y-13653667D01*
X11784047Y-13672714D01*
D12*
X10115000Y-14087000D02*
X10155000Y-14127000D01*
X10155000Y-14087000D02*
X10115000Y-14127000D01*
D11*
X10450714Y-13997476D02*
X10469762Y-13997476D01*
X10488809Y-14007000D01*
X10498333Y-14016524D01*
X10507857Y-14035571D01*
X10517381Y-14073667D01*
X10517381Y-14121286D01*
X10507857Y-14159381D01*
X10498333Y-14178428D01*
X10488809Y-14187952D01*
X10469762Y-14197476D01*
X10450714Y-14197476D01*
X10431667Y-14187952D01*
X10422143Y-14178428D01*
X10412619Y-14159381D01*
X10403095Y-14121286D01*
X10403095Y-14073667D01*
X10412619Y-14035571D01*
X10422143Y-14016524D01*
X10431667Y-14007000D01*
X10450714Y-13997476D01*
X10603095Y-14178428D02*
X10612619Y-14187952D01*
X10603095Y-14197476D01*
X10593571Y-14187952D01*
X10603095Y-14178428D01*
X10603095Y-14197476D01*
X10784048Y-14064143D02*
X10784048Y-14197476D01*
X10736428Y-13987952D02*
X10688809Y-14130809D01*
X10812619Y-14130809D01*
X10926905Y-13997476D02*
X10945952Y-13997476D01*
X10965000Y-14007000D01*
X10974524Y-14016524D01*
X10984048Y-14035571D01*
X10993571Y-14073667D01*
X10993571Y-14121286D01*
X10984048Y-14159381D01*
X10974524Y-14178428D01*
X10965000Y-14187952D01*
X10945952Y-14197476D01*
X10926905Y-14197476D01*
X10907857Y-14187952D01*
X10898333Y-14178428D01*
X10888809Y-14159381D01*
X10879286Y-14121286D01*
X10879286Y-14073667D01*
X10888809Y-14035571D01*
X10898333Y-14016524D01*
X10907857Y-14007000D01*
X10926905Y-13997476D01*
X11117381Y-13997476D02*
X11136428Y-13997476D01*
X11155476Y-14007000D01*
X11165000Y-14016524D01*
X11174524Y-14035571D01*
X11184048Y-14073667D01*
X11184048Y-14121286D01*
X11174524Y-14159381D01*
X11165000Y-14178428D01*
X11155476Y-14187952D01*
X11136428Y-14197476D01*
X11117381Y-14197476D01*
X11098333Y-14187952D01*
X11088809Y-14178428D01*
X11079286Y-14159381D01*
X11069762Y-14121286D01*
X11069762Y-14073667D01*
X11079286Y-14035571D01*
X11088809Y-14016524D01*
X11098333Y-14007000D01*
X11117381Y-13997476D01*
X11269762Y-14197476D02*
X11269762Y-14064143D01*
X11269762Y-14083190D02*
X11279286Y-14073667D01*
X11298333Y-14064143D01*
X11326905Y-14064143D01*
X11345952Y-14073667D01*
X11355476Y-14092714D01*
X11355476Y-14197476D01*
X11355476Y-14092714D02*
X11365000Y-14073667D01*
X11384047Y-14064143D01*
X11412619Y-14064143D01*
X11431666Y-14073667D01*
X11441190Y-14092714D01*
X11441190Y-14197476D01*
X11536428Y-14197476D02*
X11536428Y-14064143D01*
X11536428Y-14083190D02*
X11545952Y-14073667D01*
X11565000Y-14064143D01*
X11593571Y-14064143D01*
X11612619Y-14073667D01*
X11622143Y-14092714D01*
X11622143Y-14197476D01*
X11622143Y-14092714D02*
X11631666Y-14073667D01*
X11650714Y-14064143D01*
X11679286Y-14064143D01*
X11698333Y-14073667D01*
X11707857Y-14092714D01*
X11707857Y-14197476D01*
X12098333Y-13987952D02*
X11926905Y-14245095D01*
X12355476Y-13997476D02*
X12374524Y-13997476D01*
X12393571Y-14007000D01*
X12403095Y-14016524D01*
X12412619Y-14035571D01*
X12422143Y-14073667D01*
X12422143Y-14121286D01*
X12412619Y-14159381D01*
X12403095Y-14178428D01*
X12393571Y-14187952D01*
X12374524Y-14197476D01*
X12355476Y-14197476D01*
X12336428Y-14187952D01*
X12326905Y-14178428D01*
X12317381Y-14159381D01*
X12307857Y-14121286D01*
X12307857Y-14073667D01*
X12317381Y-14035571D01*
X12326905Y-14016524D01*
X12336428Y-14007000D01*
X12355476Y-13997476D01*
X12507857Y-14178428D02*
X12517381Y-14187952D01*
X12507857Y-14197476D01*
X12498333Y-14187952D01*
X12507857Y-14178428D01*
X12507857Y-14197476D01*
X12641190Y-13997476D02*
X12660238Y-13997476D01*
X12679286Y-14007000D01*
X12688809Y-14016524D01*
X12698333Y-14035571D01*
X12707857Y-14073667D01*
X12707857Y-14121286D01*
X12698333Y-14159381D01*
X12688809Y-14178428D01*
X12679286Y-14187952D01*
X12660238Y-14197476D01*
X12641190Y-14197476D01*
X12622143Y-14187952D01*
X12612619Y-14178428D01*
X12603095Y-14159381D01*
X12593571Y-14121286D01*
X12593571Y-14073667D01*
X12603095Y-14035571D01*
X12612619Y-14016524D01*
X12622143Y-14007000D01*
X12641190Y-13997476D01*
X12898333Y-14197476D02*
X12784047Y-14197476D01*
X12841190Y-14197476D02*
X12841190Y-13997476D01*
X12822143Y-14026048D01*
X12803095Y-14045095D01*
X12784047Y-14054619D01*
X13079286Y-13997476D02*
X12984047Y-13997476D01*
X12974524Y-14092714D01*
X12984047Y-14083190D01*
X13003095Y-14073667D01*
X13050714Y-14073667D01*
X13069762Y-14083190D01*
X13079286Y-14092714D01*
X13088809Y-14111762D01*
X13088809Y-14159381D01*
X13079286Y-14178428D01*
X13069762Y-14187952D01*
X13050714Y-14197476D01*
X13003095Y-14197476D01*
X12984047Y-14187952D01*
X12974524Y-14178428D01*
X13155476Y-13997476D02*
X13288809Y-13997476D01*
X13203095Y-14197476D01*
X13355476Y-13997476D02*
X13355476Y-14035571D01*
X13431666Y-13997476D02*
X13431666Y-14035571D01*
X13726905Y-14273667D02*
X13717381Y-14264143D01*
X13698333Y-14235571D01*
X13688809Y-14216524D01*
X13679286Y-14187952D01*
X13669762Y-14140333D01*
X13669762Y-14102238D01*
X13679286Y-14054619D01*
X13688809Y-14026048D01*
X13698333Y-14007000D01*
X13717381Y-13978428D01*
X13726905Y-13968905D01*
X13784047Y-13997476D02*
X13917381Y-13997476D01*
X13831666Y-14197476D01*
X14145952Y-14197476D02*
X14145952Y-13997476D01*
X14231666Y-14197476D02*
X14231666Y-14092714D01*
X14222143Y-14073667D01*
X14203095Y-14064143D01*
X14174524Y-14064143D01*
X14155476Y-14073667D01*
X14145952Y-14083190D01*
X14355476Y-14197476D02*
X14336428Y-14187952D01*
X14326905Y-14178428D01*
X14317381Y-14159381D01*
X14317381Y-14102238D01*
X14326905Y-14083190D01*
X14336428Y-14073667D01*
X14355476Y-14064143D01*
X14384047Y-14064143D01*
X14403095Y-14073667D01*
X14412619Y-14083190D01*
X14422143Y-14102238D01*
X14422143Y-14159381D01*
X14412619Y-14178428D01*
X14403095Y-14187952D01*
X14384047Y-14197476D01*
X14355476Y-14197476D01*
X14536428Y-14197476D02*
X14517381Y-14187952D01*
X14507857Y-14168905D01*
X14507857Y-13997476D01*
X14688809Y-14187952D02*
X14669762Y-14197476D01*
X14631666Y-14197476D01*
X14612619Y-14187952D01*
X14603095Y-14168905D01*
X14603095Y-14092714D01*
X14612619Y-14073667D01*
X14631666Y-14064143D01*
X14669762Y-14064143D01*
X14688809Y-14073667D01*
X14698333Y-14092714D01*
X14698333Y-14111762D01*
X14603095Y-14130809D01*
X14774524Y-14187952D02*
X14793571Y-14197476D01*
X14831666Y-14197476D01*
X14850714Y-14187952D01*
X14860238Y-14168905D01*
X14860238Y-14159381D01*
X14850714Y-14140333D01*
X14831666Y-14130809D01*
X14803095Y-14130809D01*
X14784047Y-14121286D01*
X14774524Y-14102238D01*
X14774524Y-14092714D01*
X14784047Y-14073667D01*
X14803095Y-14064143D01*
X14831666Y-14064143D01*
X14850714Y-14073667D01*
X14926905Y-14273667D02*
X14936428Y-14264143D01*
X14955476Y-14235571D01*
X14965000Y-14216524D01*
X14974524Y-14187952D01*
X14984047Y-14140333D01*
X14984047Y-14102238D01*
X14974524Y-14054619D01*
X14965000Y-14026048D01*
X14955476Y-14007000D01*
X14936428Y-13978428D01*
X14926905Y-13968905D01*
D13*
X10155000Y-14371000D02*
G75*
G03*
X10155000Y-14371000I-25000J0D01*
G01*
D11*
X10450714Y-14261476D02*
X10469762Y-14261476D01*
X10488809Y-14271000D01*
X10498333Y-14280524D01*
X10507857Y-14299571D01*
X10517381Y-14337667D01*
X10517381Y-14385286D01*
X10507857Y-14423381D01*
X10498333Y-14442428D01*
X10488809Y-14451952D01*
X10469762Y-14461476D01*
X10450714Y-14461476D01*
X10431667Y-14451952D01*
X10422143Y-14442428D01*
X10412619Y-14423381D01*
X10403095Y-14385286D01*
X10403095Y-14337667D01*
X10412619Y-14299571D01*
X10422143Y-14280524D01*
X10431667Y-14271000D01*
X10450714Y-14261476D01*
X10603095Y-14442428D02*
X10612619Y-14451952D01*
X10603095Y-14461476D01*
X10593571Y-14451952D01*
X10603095Y-14442428D01*
X10603095Y-14461476D01*
X10793571Y-14261476D02*
X10698333Y-14261476D01*
X10688809Y-14356714D01*
X10698333Y-14347190D01*
X10717381Y-14337667D01*
X10765000Y-14337667D01*
X10784048Y-14347190D01*
X10793571Y-14356714D01*
X10803095Y-14375762D01*
X10803095Y-14423381D01*
X10793571Y-14442428D01*
X10784048Y-14451952D01*
X10765000Y-14461476D01*
X10717381Y-14461476D01*
X10698333Y-14451952D01*
X10688809Y-14442428D01*
X10926905Y-14261476D02*
X10945952Y-14261476D01*
X10965000Y-14271000D01*
X10974524Y-14280524D01*
X10984048Y-14299571D01*
X10993571Y-14337667D01*
X10993571Y-14385286D01*
X10984048Y-14423381D01*
X10974524Y-14442428D01*
X10965000Y-14451952D01*
X10945952Y-14461476D01*
X10926905Y-14461476D01*
X10907857Y-14451952D01*
X10898333Y-14442428D01*
X10888809Y-14423381D01*
X10879286Y-14385286D01*
X10879286Y-14337667D01*
X10888809Y-14299571D01*
X10898333Y-14280524D01*
X10907857Y-14271000D01*
X10926905Y-14261476D01*
X11117381Y-14261476D02*
X11136428Y-14261476D01*
X11155476Y-14271000D01*
X11165000Y-14280524D01*
X11174524Y-14299571D01*
X11184048Y-14337667D01*
X11184048Y-14385286D01*
X11174524Y-14423381D01*
X11165000Y-14442428D01*
X11155476Y-14451952D01*
X11136428Y-14461476D01*
X11117381Y-14461476D01*
X11098333Y-14451952D01*
X11088809Y-14442428D01*
X11079286Y-14423381D01*
X11069762Y-14385286D01*
X11069762Y-14337667D01*
X11079286Y-14299571D01*
X11088809Y-14280524D01*
X11098333Y-14271000D01*
X11117381Y-14261476D01*
X11269762Y-14461476D02*
X11269762Y-14328143D01*
X11269762Y-14347190D02*
X11279286Y-14337667D01*
X11298333Y-14328143D01*
X11326905Y-14328143D01*
X11345952Y-14337667D01*
X11355476Y-14356714D01*
X11355476Y-14461476D01*
X11355476Y-14356714D02*
X11365000Y-14337667D01*
X11384047Y-14328143D01*
X11412619Y-14328143D01*
X11431666Y-14337667D01*
X11441190Y-14356714D01*
X11441190Y-14461476D01*
X11536428Y-14461476D02*
X11536428Y-14328143D01*
X11536428Y-14347190D02*
X11545952Y-14337667D01*
X11565000Y-14328143D01*
X11593571Y-14328143D01*
X11612619Y-14337667D01*
X11622143Y-14356714D01*
X11622143Y-14461476D01*
X11622143Y-14356714D02*
X11631666Y-14337667D01*
X11650714Y-14328143D01*
X11679286Y-14328143D01*
X11698333Y-14337667D01*
X11707857Y-14356714D01*
X11707857Y-14461476D01*
X12098333Y-14251952D02*
X11926905Y-14509095D01*
X12355476Y-14261476D02*
X12374524Y-14261476D01*
X12393571Y-14271000D01*
X12403095Y-14280524D01*
X12412619Y-14299571D01*
X12422143Y-14337667D01*
X12422143Y-14385286D01*
X12412619Y-14423381D01*
X12403095Y-14442428D01*
X12393571Y-14451952D01*
X12374524Y-14461476D01*
X12355476Y-14461476D01*
X12336428Y-14451952D01*
X12326905Y-14442428D01*
X12317381Y-14423381D01*
X12307857Y-14385286D01*
X12307857Y-14337667D01*
X12317381Y-14299571D01*
X12326905Y-14280524D01*
X12336428Y-14271000D01*
X12355476Y-14261476D01*
X12507857Y-14442428D02*
X12517381Y-14451952D01*
X12507857Y-14461476D01*
X12498333Y-14451952D01*
X12507857Y-14442428D01*
X12507857Y-14461476D01*
X12641190Y-14261476D02*
X12660238Y-14261476D01*
X12679286Y-14271000D01*
X12688809Y-14280524D01*
X12698333Y-14299571D01*
X12707857Y-14337667D01*
X12707857Y-14385286D01*
X12698333Y-14423381D01*
X12688809Y-14442428D01*
X12679286Y-14451952D01*
X12660238Y-14461476D01*
X12641190Y-14461476D01*
X12622143Y-14451952D01*
X12612619Y-14442428D01*
X12603095Y-14423381D01*
X12593571Y-14385286D01*
X12593571Y-14337667D01*
X12603095Y-14299571D01*
X12612619Y-14280524D01*
X12622143Y-14271000D01*
X12641190Y-14261476D01*
X12898333Y-14461476D02*
X12784047Y-14461476D01*
X12841190Y-14461476D02*
X12841190Y-14261476D01*
X12822143Y-14290048D01*
X12803095Y-14309095D01*
X12784047Y-14318619D01*
X12993571Y-14461476D02*
X13031666Y-14461476D01*
X13050714Y-14451952D01*
X13060238Y-14442428D01*
X13079286Y-14413857D01*
X13088809Y-14375762D01*
X13088809Y-14299571D01*
X13079286Y-14280524D01*
X13069762Y-14271000D01*
X13050714Y-14261476D01*
X13012619Y-14261476D01*
X12993571Y-14271000D01*
X12984047Y-14280524D01*
X12974524Y-14299571D01*
X12974524Y-14347190D01*
X12984047Y-14366238D01*
X12993571Y-14375762D01*
X13012619Y-14385286D01*
X13050714Y-14385286D01*
X13069762Y-14375762D01*
X13079286Y-14366238D01*
X13088809Y-14347190D01*
X13155476Y-14261476D02*
X13288809Y-14261476D01*
X13203095Y-14461476D01*
X13355476Y-14261476D02*
X13355476Y-14299571D01*
X13431666Y-14261476D02*
X13431666Y-14299571D01*
X13726905Y-14537667D02*
X13717381Y-14528143D01*
X13698333Y-14499571D01*
X13688809Y-14480524D01*
X13679286Y-14451952D01*
X13669762Y-14404333D01*
X13669762Y-14366238D01*
X13679286Y-14318619D01*
X13688809Y-14290048D01*
X13698333Y-14271000D01*
X13717381Y-14242428D01*
X13726905Y-14232905D01*
X13784047Y-14261476D02*
X13907857Y-14261476D01*
X13841190Y-14337667D01*
X13869762Y-14337667D01*
X13888809Y-14347190D01*
X13898333Y-14356714D01*
X13907857Y-14375762D01*
X13907857Y-14423381D01*
X13898333Y-14442428D01*
X13888809Y-14451952D01*
X13869762Y-14461476D01*
X13812619Y-14461476D01*
X13793571Y-14451952D01*
X13784047Y-14442428D01*
X13984047Y-14280524D02*
X13993571Y-14271000D01*
X14012619Y-14261476D01*
X14060238Y-14261476D01*
X14079286Y-14271000D01*
X14088809Y-14280524D01*
X14098333Y-14299571D01*
X14098333Y-14318619D01*
X14088809Y-14347190D01*
X13974524Y-14461476D01*
X14098333Y-14461476D01*
X14336428Y-14461476D02*
X14336428Y-14261476D01*
X14422143Y-14461476D02*
X14422143Y-14356714D01*
X14412619Y-14337667D01*
X14393571Y-14328143D01*
X14365000Y-14328143D01*
X14345952Y-14337667D01*
X14336428Y-14347190D01*
X14545952Y-14461476D02*
X14526905Y-14451952D01*
X14517381Y-14442428D01*
X14507857Y-14423381D01*
X14507857Y-14366238D01*
X14517381Y-14347190D01*
X14526905Y-14337667D01*
X14545952Y-14328143D01*
X14574524Y-14328143D01*
X14593571Y-14337667D01*
X14603095Y-14347190D01*
X14612619Y-14366238D01*
X14612619Y-14423381D01*
X14603095Y-14442428D01*
X14593571Y-14451952D01*
X14574524Y-14461476D01*
X14545952Y-14461476D01*
X14726905Y-14461476D02*
X14707857Y-14451952D01*
X14698333Y-14432905D01*
X14698333Y-14261476D01*
X14879286Y-14451952D02*
X14860238Y-14461476D01*
X14822143Y-14461476D01*
X14803095Y-14451952D01*
X14793571Y-14432905D01*
X14793571Y-14356714D01*
X14803095Y-14337667D01*
X14822143Y-14328143D01*
X14860238Y-14328143D01*
X14879286Y-14337667D01*
X14888809Y-14356714D01*
X14888809Y-14375762D01*
X14793571Y-14394809D01*
X14965000Y-14451952D02*
X14984047Y-14461476D01*
X15022143Y-14461476D01*
X15041190Y-14451952D01*
X15050714Y-14432905D01*
X15050714Y-14423381D01*
X15041190Y-14404333D01*
X15022143Y-14394809D01*
X14993571Y-14394809D01*
X14974524Y-14385286D01*
X14965000Y-14366238D01*
X14965000Y-14356714D01*
X14974524Y-14337667D01*
X14993571Y-14328143D01*
X15022143Y-14328143D01*
X15041190Y-14337667D01*
X15117381Y-14537667D02*
X15126905Y-14528143D01*
X15145952Y-14499571D01*
X15155476Y-14480524D01*
X15165000Y-14451952D01*
X15174524Y-14404333D01*
X15174524Y-14366238D01*
X15165000Y-14318619D01*
X15155476Y-14290048D01*
X15145952Y-14271000D01*
X15126905Y-14242428D01*
X15117381Y-14232905D01*
D14*
X10125000Y-14605000D02*
X10125000Y-14665000D01*
X10095000Y-14635000D02*
X10155000Y-14635000D01*
D11*
X10450714Y-14525476D02*
X10469762Y-14525476D01*
X10488809Y-14535000D01*
X10498333Y-14544524D01*
X10507857Y-14563571D01*
X10517381Y-14601667D01*
X10517381Y-14649286D01*
X10507857Y-14687381D01*
X10498333Y-14706428D01*
X10488809Y-14715952D01*
X10469762Y-14725476D01*
X10450714Y-14725476D01*
X10431667Y-14715952D01*
X10422143Y-14706428D01*
X10412619Y-14687381D01*
X10403095Y-14649286D01*
X10403095Y-14601667D01*
X10412619Y-14563571D01*
X10422143Y-14544524D01*
X10431667Y-14535000D01*
X10450714Y-14525476D01*
X10603095Y-14706428D02*
X10612619Y-14715952D01*
X10603095Y-14725476D01*
X10593571Y-14715952D01*
X10603095Y-14706428D01*
X10603095Y-14725476D01*
X10784048Y-14525476D02*
X10745952Y-14525476D01*
X10726905Y-14535000D01*
X10717381Y-14544524D01*
X10698333Y-14573095D01*
X10688809Y-14611190D01*
X10688809Y-14687381D01*
X10698333Y-14706428D01*
X10707857Y-14715952D01*
X10726905Y-14725476D01*
X10765000Y-14725476D01*
X10784048Y-14715952D01*
X10793571Y-14706428D01*
X10803095Y-14687381D01*
X10803095Y-14639762D01*
X10793571Y-14620714D01*
X10784048Y-14611190D01*
X10765000Y-14601667D01*
X10726905Y-14601667D01*
X10707857Y-14611190D01*
X10698333Y-14620714D01*
X10688809Y-14639762D01*
X10926905Y-14525476D02*
X10945952Y-14525476D01*
X10965000Y-14535000D01*
X10974524Y-14544524D01*
X10984048Y-14563571D01*
X10993571Y-14601667D01*
X10993571Y-14649286D01*
X10984048Y-14687381D01*
X10974524Y-14706428D01*
X10965000Y-14715952D01*
X10945952Y-14725476D01*
X10926905Y-14725476D01*
X10907857Y-14715952D01*
X10898333Y-14706428D01*
X10888809Y-14687381D01*
X10879286Y-14649286D01*
X10879286Y-14601667D01*
X10888809Y-14563571D01*
X10898333Y-14544524D01*
X10907857Y-14535000D01*
X10926905Y-14525476D01*
X11117381Y-14525476D02*
X11136428Y-14525476D01*
X11155476Y-14535000D01*
X11165000Y-14544524D01*
X11174524Y-14563571D01*
X11184048Y-14601667D01*
X11184048Y-14649286D01*
X11174524Y-14687381D01*
X11165000Y-14706428D01*
X11155476Y-14715952D01*
X11136428Y-14725476D01*
X11117381Y-14725476D01*
X11098333Y-14715952D01*
X11088809Y-14706428D01*
X11079286Y-14687381D01*
X11069762Y-14649286D01*
X11069762Y-14601667D01*
X11079286Y-14563571D01*
X11088809Y-14544524D01*
X11098333Y-14535000D01*
X11117381Y-14525476D01*
X11269762Y-14725476D02*
X11269762Y-14592143D01*
X11269762Y-14611190D02*
X11279286Y-14601667D01*
X11298333Y-14592143D01*
X11326905Y-14592143D01*
X11345952Y-14601667D01*
X11355476Y-14620714D01*
X11355476Y-14725476D01*
X11355476Y-14620714D02*
X11365000Y-14601667D01*
X11384047Y-14592143D01*
X11412619Y-14592143D01*
X11431666Y-14601667D01*
X11441190Y-14620714D01*
X11441190Y-14725476D01*
X11536428Y-14725476D02*
X11536428Y-14592143D01*
X11536428Y-14611190D02*
X11545952Y-14601667D01*
X11565000Y-14592143D01*
X11593571Y-14592143D01*
X11612619Y-14601667D01*
X11622143Y-14620714D01*
X11622143Y-14725476D01*
X11622143Y-14620714D02*
X11631666Y-14601667D01*
X11650714Y-14592143D01*
X11679286Y-14592143D01*
X11698333Y-14601667D01*
X11707857Y-14620714D01*
X11707857Y-14725476D01*
X12098333Y-14515952D02*
X11926905Y-14773095D01*
X12355476Y-14525476D02*
X12374524Y-14525476D01*
X12393571Y-14535000D01*
X12403095Y-14544524D01*
X12412619Y-14563571D01*
X12422143Y-14601667D01*
X12422143Y-14649286D01*
X12412619Y-14687381D01*
X12403095Y-14706428D01*
X12393571Y-14715952D01*
X12374524Y-14725476D01*
X12355476Y-14725476D01*
X12336428Y-14715952D01*
X12326905Y-14706428D01*
X12317381Y-14687381D01*
X12307857Y-14649286D01*
X12307857Y-14601667D01*
X12317381Y-14563571D01*
X12326905Y-14544524D01*
X12336428Y-14535000D01*
X12355476Y-14525476D01*
X12507857Y-14706428D02*
X12517381Y-14715952D01*
X12507857Y-14725476D01*
X12498333Y-14715952D01*
X12507857Y-14706428D01*
X12507857Y-14725476D01*
X12641190Y-14525476D02*
X12660238Y-14525476D01*
X12679286Y-14535000D01*
X12688809Y-14544524D01*
X12698333Y-14563571D01*
X12707857Y-14601667D01*
X12707857Y-14649286D01*
X12698333Y-14687381D01*
X12688809Y-14706428D01*
X12679286Y-14715952D01*
X12660238Y-14725476D01*
X12641190Y-14725476D01*
X12622143Y-14715952D01*
X12612619Y-14706428D01*
X12603095Y-14687381D01*
X12593571Y-14649286D01*
X12593571Y-14601667D01*
X12603095Y-14563571D01*
X12612619Y-14544524D01*
X12622143Y-14535000D01*
X12641190Y-14525476D01*
X12784047Y-14544524D02*
X12793571Y-14535000D01*
X12812619Y-14525476D01*
X12860238Y-14525476D01*
X12879286Y-14535000D01*
X12888809Y-14544524D01*
X12898333Y-14563571D01*
X12898333Y-14582619D01*
X12888809Y-14611190D01*
X12774524Y-14725476D01*
X12898333Y-14725476D01*
X12965000Y-14525476D02*
X13088809Y-14525476D01*
X13022143Y-14601667D01*
X13050714Y-14601667D01*
X13069762Y-14611190D01*
X13079286Y-14620714D01*
X13088809Y-14639762D01*
X13088809Y-14687381D01*
X13079286Y-14706428D01*
X13069762Y-14715952D01*
X13050714Y-14725476D01*
X12993571Y-14725476D01*
X12974524Y-14715952D01*
X12965000Y-14706428D01*
X13260238Y-14525476D02*
X13222143Y-14525476D01*
X13203095Y-14535000D01*
X13193571Y-14544524D01*
X13174524Y-14573095D01*
X13165000Y-14611190D01*
X13165000Y-14687381D01*
X13174524Y-14706428D01*
X13184047Y-14715952D01*
X13203095Y-14725476D01*
X13241190Y-14725476D01*
X13260238Y-14715952D01*
X13269762Y-14706428D01*
X13279286Y-14687381D01*
X13279286Y-14639762D01*
X13269762Y-14620714D01*
X13260238Y-14611190D01*
X13241190Y-14601667D01*
X13203095Y-14601667D01*
X13184047Y-14611190D01*
X13174524Y-14620714D01*
X13165000Y-14639762D01*
X13355476Y-14525476D02*
X13355476Y-14563571D01*
X13431666Y-14525476D02*
X13431666Y-14563571D01*
X13726905Y-14801667D02*
X13717381Y-14792143D01*
X13698333Y-14763571D01*
X13688809Y-14744524D01*
X13679286Y-14715952D01*
X13669762Y-14668333D01*
X13669762Y-14630238D01*
X13679286Y-14582619D01*
X13688809Y-14554048D01*
X13698333Y-14535000D01*
X13717381Y-14506428D01*
X13726905Y-14496905D01*
X13907857Y-14725476D02*
X13793571Y-14725476D01*
X13850714Y-14725476D02*
X13850714Y-14525476D01*
X13831666Y-14554048D01*
X13812619Y-14573095D01*
X13793571Y-14582619D01*
X14145952Y-14725476D02*
X14145952Y-14525476D01*
X14231666Y-14725476D02*
X14231666Y-14620714D01*
X14222143Y-14601667D01*
X14203095Y-14592143D01*
X14174524Y-14592143D01*
X14155476Y-14601667D01*
X14145952Y-14611190D01*
X14355476Y-14725476D02*
X14336428Y-14715952D01*
X14326905Y-14706428D01*
X14317381Y-14687381D01*
X14317381Y-14630238D01*
X14326905Y-14611190D01*
X14336428Y-14601667D01*
X14355476Y-14592143D01*
X14384047Y-14592143D01*
X14403095Y-14601667D01*
X14412619Y-14611190D01*
X14422143Y-14630238D01*
X14422143Y-14687381D01*
X14412619Y-14706428D01*
X14403095Y-14715952D01*
X14384047Y-14725476D01*
X14355476Y-14725476D01*
X14536428Y-14725476D02*
X14517381Y-14715952D01*
X14507857Y-14696905D01*
X14507857Y-14525476D01*
X14688809Y-14715952D02*
X14669762Y-14725476D01*
X14631666Y-14725476D01*
X14612619Y-14715952D01*
X14603095Y-14696905D01*
X14603095Y-14620714D01*
X14612619Y-14601667D01*
X14631666Y-14592143D01*
X14669762Y-14592143D01*
X14688809Y-14601667D01*
X14698333Y-14620714D01*
X14698333Y-14639762D01*
X14603095Y-14658809D01*
X14765000Y-14801667D02*
X14774524Y-14792143D01*
X14793571Y-14763571D01*
X14803095Y-14744524D01*
X14812619Y-14715952D01*
X14822143Y-14668333D01*
X14822143Y-14630238D01*
X14812619Y-14582619D01*
X14803095Y-14554048D01*
X14793571Y-14535000D01*
X14774524Y-14506428D01*
X14765000Y-14496905D01*
D15*
X10143284Y-14927284D02*
X10143284Y-14870715D01*
X10086715Y-14870715D01*
X10086715Y-14927284D01*
X10143284Y-14927284D01*
D11*
X10450714Y-14789476D02*
X10469762Y-14789476D01*
X10488809Y-14799000D01*
X10498333Y-14808524D01*
X10507857Y-14827571D01*
X10517381Y-14865667D01*
X10517381Y-14913286D01*
X10507857Y-14951381D01*
X10498333Y-14970428D01*
X10488809Y-14979952D01*
X10469762Y-14989476D01*
X10450714Y-14989476D01*
X10431667Y-14979952D01*
X10422143Y-14970428D01*
X10412619Y-14951381D01*
X10403095Y-14913286D01*
X10403095Y-14865667D01*
X10412619Y-14827571D01*
X10422143Y-14808524D01*
X10431667Y-14799000D01*
X10450714Y-14789476D01*
X10603095Y-14970428D02*
X10612619Y-14979952D01*
X10603095Y-14989476D01*
X10593571Y-14979952D01*
X10603095Y-14970428D01*
X10603095Y-14989476D01*
X10726905Y-14875190D02*
X10707857Y-14865667D01*
X10698333Y-14856143D01*
X10688809Y-14837095D01*
X10688809Y-14827571D01*
X10698333Y-14808524D01*
X10707857Y-14799000D01*
X10726905Y-14789476D01*
X10765000Y-14789476D01*
X10784048Y-14799000D01*
X10793571Y-14808524D01*
X10803095Y-14827571D01*
X10803095Y-14837095D01*
X10793571Y-14856143D01*
X10784048Y-14865667D01*
X10765000Y-14875190D01*
X10726905Y-14875190D01*
X10707857Y-14884714D01*
X10698333Y-14894238D01*
X10688809Y-14913286D01*
X10688809Y-14951381D01*
X10698333Y-14970428D01*
X10707857Y-14979952D01*
X10726905Y-14989476D01*
X10765000Y-14989476D01*
X10784048Y-14979952D01*
X10793571Y-14970428D01*
X10803095Y-14951381D01*
X10803095Y-14913286D01*
X10793571Y-14894238D01*
X10784048Y-14884714D01*
X10765000Y-14875190D01*
X10926905Y-14789476D02*
X10945952Y-14789476D01*
X10965000Y-14799000D01*
X10974524Y-14808524D01*
X10984048Y-14827571D01*
X10993571Y-14865667D01*
X10993571Y-14913286D01*
X10984048Y-14951381D01*
X10974524Y-14970428D01*
X10965000Y-14979952D01*
X10945952Y-14989476D01*
X10926905Y-14989476D01*
X10907857Y-14979952D01*
X10898333Y-14970428D01*
X10888809Y-14951381D01*
X10879286Y-14913286D01*
X10879286Y-14865667D01*
X10888809Y-14827571D01*
X10898333Y-14808524D01*
X10907857Y-14799000D01*
X10926905Y-14789476D01*
X11117381Y-14789476D02*
X11136428Y-14789476D01*
X11155476Y-14799000D01*
X11165000Y-14808524D01*
X11174524Y-14827571D01*
X11184048Y-14865667D01*
X11184048Y-14913286D01*
X11174524Y-14951381D01*
X11165000Y-14970428D01*
X11155476Y-14979952D01*
X11136428Y-14989476D01*
X11117381Y-14989476D01*
X11098333Y-14979952D01*
X11088809Y-14970428D01*
X11079286Y-14951381D01*
X11069762Y-14913286D01*
X11069762Y-14865667D01*
X11079286Y-14827571D01*
X11088809Y-14808524D01*
X11098333Y-14799000D01*
X11117381Y-14789476D01*
X11269762Y-14989476D02*
X11269762Y-14856143D01*
X11269762Y-14875190D02*
X11279286Y-14865667D01*
X11298333Y-14856143D01*
X11326905Y-14856143D01*
X11345952Y-14865667D01*
X11355476Y-14884714D01*
X11355476Y-14989476D01*
X11355476Y-14884714D02*
X11365000Y-14865667D01*
X11384047Y-14856143D01*
X11412619Y-14856143D01*
X11431666Y-14865667D01*
X11441190Y-14884714D01*
X11441190Y-14989476D01*
X11536428Y-14989476D02*
X11536428Y-14856143D01*
X11536428Y-14875190D02*
X11545952Y-14865667D01*
X11565000Y-14856143D01*
X11593571Y-14856143D01*
X11612619Y-14865667D01*
X11622143Y-14884714D01*
X11622143Y-14989476D01*
X11622143Y-14884714D02*
X11631666Y-14865667D01*
X11650714Y-14856143D01*
X11679286Y-14856143D01*
X11698333Y-14865667D01*
X11707857Y-14884714D01*
X11707857Y-14989476D01*
X12098333Y-14779952D02*
X11926905Y-15037095D01*
X12355476Y-14789476D02*
X12374524Y-14789476D01*
X12393571Y-14799000D01*
X12403095Y-14808524D01*
X12412619Y-14827571D01*
X12422143Y-14865667D01*
X12422143Y-14913286D01*
X12412619Y-14951381D01*
X12403095Y-14970428D01*
X12393571Y-14979952D01*
X12374524Y-14989476D01*
X12355476Y-14989476D01*
X12336428Y-14979952D01*
X12326905Y-14970428D01*
X12317381Y-14951381D01*
X12307857Y-14913286D01*
X12307857Y-14865667D01*
X12317381Y-14827571D01*
X12326905Y-14808524D01*
X12336428Y-14799000D01*
X12355476Y-14789476D01*
X12507857Y-14970428D02*
X12517381Y-14979952D01*
X12507857Y-14989476D01*
X12498333Y-14979952D01*
X12507857Y-14970428D01*
X12507857Y-14989476D01*
X12641190Y-14789476D02*
X12660238Y-14789476D01*
X12679286Y-14799000D01*
X12688809Y-14808524D01*
X12698333Y-14827571D01*
X12707857Y-14865667D01*
X12707857Y-14913286D01*
X12698333Y-14951381D01*
X12688809Y-14970428D01*
X12679286Y-14979952D01*
X12660238Y-14989476D01*
X12641190Y-14989476D01*
X12622143Y-14979952D01*
X12612619Y-14970428D01*
X12603095Y-14951381D01*
X12593571Y-14913286D01*
X12593571Y-14865667D01*
X12603095Y-14827571D01*
X12612619Y-14808524D01*
X12622143Y-14799000D01*
X12641190Y-14789476D01*
X12774524Y-14789476D02*
X12898333Y-14789476D01*
X12831666Y-14865667D01*
X12860238Y-14865667D01*
X12879286Y-14875190D01*
X12888809Y-14884714D01*
X12898333Y-14903762D01*
X12898333Y-14951381D01*
X12888809Y-14970428D01*
X12879286Y-14979952D01*
X12860238Y-14989476D01*
X12803095Y-14989476D01*
X12784047Y-14979952D01*
X12774524Y-14970428D01*
X13088809Y-14989476D02*
X12974524Y-14989476D01*
X13031666Y-14989476D02*
X13031666Y-14789476D01*
X13012619Y-14818048D01*
X12993571Y-14837095D01*
X12974524Y-14846619D01*
X13269762Y-14789476D02*
X13174524Y-14789476D01*
X13165000Y-14884714D01*
X13174524Y-14875190D01*
X13193571Y-14865667D01*
X13241190Y-14865667D01*
X13260238Y-14875190D01*
X13269762Y-14884714D01*
X13279286Y-14903762D01*
X13279286Y-14951381D01*
X13269762Y-14970428D01*
X13260238Y-14979952D01*
X13241190Y-14989476D01*
X13193571Y-14989476D01*
X13174524Y-14979952D01*
X13165000Y-14970428D01*
X13355476Y-14789476D02*
X13355476Y-14827571D01*
X13431666Y-14789476D02*
X13431666Y-14827571D01*
X13726905Y-15065667D02*
X13717381Y-15056143D01*
X13698333Y-15027571D01*
X13688809Y-15008524D01*
X13679286Y-14979952D01*
X13669762Y-14932333D01*
X13669762Y-14894238D01*
X13679286Y-14846619D01*
X13688809Y-14818048D01*
X13698333Y-14799000D01*
X13717381Y-14770428D01*
X13726905Y-14760905D01*
X13784047Y-14789476D02*
X13917381Y-14789476D01*
X13831666Y-14989476D01*
X14079286Y-14856143D02*
X14079286Y-14989476D01*
X14031666Y-14779952D02*
X13984047Y-14922809D01*
X14107857Y-14922809D01*
X14336428Y-14989476D02*
X14336428Y-14789476D01*
X14422143Y-14989476D02*
X14422143Y-14884714D01*
X14412619Y-14865667D01*
X14393571Y-14856143D01*
X14365000Y-14856143D01*
X14345952Y-14865667D01*
X14336428Y-14875190D01*
X14545952Y-14989476D02*
X14526905Y-14979952D01*
X14517381Y-14970428D01*
X14507857Y-14951381D01*
X14507857Y-14894238D01*
X14517381Y-14875190D01*
X14526905Y-14865667D01*
X14545952Y-14856143D01*
X14574524Y-14856143D01*
X14593571Y-14865667D01*
X14603095Y-14875190D01*
X14612619Y-14894238D01*
X14612619Y-14951381D01*
X14603095Y-14970428D01*
X14593571Y-14979952D01*
X14574524Y-14989476D01*
X14545952Y-14989476D01*
X14726905Y-14989476D02*
X14707857Y-14979952D01*
X14698333Y-14960905D01*
X14698333Y-14789476D01*
X14879286Y-14979952D02*
X14860238Y-14989476D01*
X14822143Y-14989476D01*
X14803095Y-14979952D01*
X14793571Y-14960905D01*
X14793571Y-14884714D01*
X14803095Y-14865667D01*
X14822143Y-14856143D01*
X14860238Y-14856143D01*
X14879286Y-14865667D01*
X14888809Y-14884714D01*
X14888809Y-14903762D01*
X14793571Y-14922809D01*
X14965000Y-14979952D02*
X14984047Y-14989476D01*
X15022143Y-14989476D01*
X15041190Y-14979952D01*
X15050714Y-14960905D01*
X15050714Y-14951381D01*
X15041190Y-14932333D01*
X15022143Y-14922809D01*
X14993571Y-14922809D01*
X14974524Y-14913286D01*
X14965000Y-14894238D01*
X14965000Y-14884714D01*
X14974524Y-14865667D01*
X14993571Y-14856143D01*
X15022143Y-14856143D01*
X15041190Y-14865667D01*
X15117381Y-15065667D02*
X15126905Y-15056143D01*
X15145952Y-15027571D01*
X15155476Y-15008524D01*
X15165000Y-14979952D01*
X15174524Y-14932333D01*
X15174524Y-14894238D01*
X15165000Y-14846619D01*
X15155476Y-14818048D01*
X15145952Y-14799000D01*
X15126905Y-14770428D01*
X15117381Y-14760905D01*
D10*
X10105000Y-15213000D02*
X10155000Y-15163000D01*
X10105000Y-15113000D01*
X10055000Y-15163000D01*
X10105000Y-15213000D01*
D11*
X10517381Y-15253476D02*
X10403095Y-15253476D01*
X10460238Y-15253476D02*
X10460238Y-15053476D01*
X10441190Y-15082048D01*
X10422143Y-15101095D01*
X10403095Y-15110619D01*
X10603095Y-15234428D02*
X10612619Y-15243952D01*
X10603095Y-15253476D01*
X10593571Y-15243952D01*
X10603095Y-15234428D01*
X10603095Y-15253476D01*
X10736428Y-15053476D02*
X10755476Y-15053476D01*
X10774524Y-15063000D01*
X10784048Y-15072524D01*
X10793571Y-15091571D01*
X10803095Y-15129667D01*
X10803095Y-15177286D01*
X10793571Y-15215381D01*
X10784048Y-15234428D01*
X10774524Y-15243952D01*
X10755476Y-15253476D01*
X10736428Y-15253476D01*
X10717381Y-15243952D01*
X10707857Y-15234428D01*
X10698333Y-15215381D01*
X10688809Y-15177286D01*
X10688809Y-15129667D01*
X10698333Y-15091571D01*
X10707857Y-15072524D01*
X10717381Y-15063000D01*
X10736428Y-15053476D01*
X10926905Y-15053476D02*
X10945952Y-15053476D01*
X10965000Y-15063000D01*
X10974524Y-15072524D01*
X10984048Y-15091571D01*
X10993571Y-15129667D01*
X10993571Y-15177286D01*
X10984048Y-15215381D01*
X10974524Y-15234428D01*
X10965000Y-15243952D01*
X10945952Y-15253476D01*
X10926905Y-15253476D01*
X10907857Y-15243952D01*
X10898333Y-15234428D01*
X10888809Y-15215381D01*
X10879286Y-15177286D01*
X10879286Y-15129667D01*
X10888809Y-15091571D01*
X10898333Y-15072524D01*
X10907857Y-15063000D01*
X10926905Y-15053476D01*
X11117381Y-15053476D02*
X11136428Y-15053476D01*
X11155476Y-15063000D01*
X11165000Y-15072524D01*
X11174524Y-15091571D01*
X11184048Y-15129667D01*
X11184048Y-15177286D01*
X11174524Y-15215381D01*
X11165000Y-15234428D01*
X11155476Y-15243952D01*
X11136428Y-15253476D01*
X11117381Y-15253476D01*
X11098333Y-15243952D01*
X11088809Y-15234428D01*
X11079286Y-15215381D01*
X11069762Y-15177286D01*
X11069762Y-15129667D01*
X11079286Y-15091571D01*
X11088809Y-15072524D01*
X11098333Y-15063000D01*
X11117381Y-15053476D01*
X11269762Y-15253476D02*
X11269762Y-15120143D01*
X11269762Y-15139190D02*
X11279286Y-15129667D01*
X11298333Y-15120143D01*
X11326905Y-15120143D01*
X11345952Y-15129667D01*
X11355476Y-15148714D01*
X11355476Y-15253476D01*
X11355476Y-15148714D02*
X11365000Y-15129667D01*
X11384047Y-15120143D01*
X11412619Y-15120143D01*
X11431666Y-15129667D01*
X11441190Y-15148714D01*
X11441190Y-15253476D01*
X11536428Y-15253476D02*
X11536428Y-15120143D01*
X11536428Y-15139190D02*
X11545952Y-15129667D01*
X11565000Y-15120143D01*
X11593571Y-15120143D01*
X11612619Y-15129667D01*
X11622143Y-15148714D01*
X11622143Y-15253476D01*
X11622143Y-15148714D02*
X11631666Y-15129667D01*
X11650714Y-15120143D01*
X11679286Y-15120143D01*
X11698333Y-15129667D01*
X11707857Y-15148714D01*
X11707857Y-15253476D01*
X12098333Y-15043952D02*
X11926905Y-15301095D01*
X12355476Y-15053476D02*
X12374524Y-15053476D01*
X12393571Y-15063000D01*
X12403095Y-15072524D01*
X12412619Y-15091571D01*
X12422143Y-15129667D01*
X12422143Y-15177286D01*
X12412619Y-15215381D01*
X12403095Y-15234428D01*
X12393571Y-15243952D01*
X12374524Y-15253476D01*
X12355476Y-15253476D01*
X12336428Y-15243952D01*
X12326905Y-15234428D01*
X12317381Y-15215381D01*
X12307857Y-15177286D01*
X12307857Y-15129667D01*
X12317381Y-15091571D01*
X12326905Y-15072524D01*
X12336428Y-15063000D01*
X12355476Y-15053476D01*
X12507857Y-15234428D02*
X12517381Y-15243952D01*
X12507857Y-15253476D01*
X12498333Y-15243952D01*
X12507857Y-15234428D01*
X12507857Y-15253476D01*
X12641190Y-15053476D02*
X12660238Y-15053476D01*
X12679286Y-15063000D01*
X12688809Y-15072524D01*
X12698333Y-15091571D01*
X12707857Y-15129667D01*
X12707857Y-15177286D01*
X12698333Y-15215381D01*
X12688809Y-15234428D01*
X12679286Y-15243952D01*
X12660238Y-15253476D01*
X12641190Y-15253476D01*
X12622143Y-15243952D01*
X12612619Y-15234428D01*
X12603095Y-15215381D01*
X12593571Y-15177286D01*
X12593571Y-15129667D01*
X12603095Y-15091571D01*
X12612619Y-15072524D01*
X12622143Y-15063000D01*
X12641190Y-15053476D01*
X12774524Y-15053476D02*
X12898333Y-15053476D01*
X12831666Y-15129667D01*
X12860238Y-15129667D01*
X12879286Y-15139190D01*
X12888809Y-15148714D01*
X12898333Y-15167762D01*
X12898333Y-15215381D01*
X12888809Y-15234428D01*
X12879286Y-15243952D01*
X12860238Y-15253476D01*
X12803095Y-15253476D01*
X12784047Y-15243952D01*
X12774524Y-15234428D01*
X12993571Y-15253476D02*
X13031666Y-15253476D01*
X13050714Y-15243952D01*
X13060238Y-15234428D01*
X13079286Y-15205857D01*
X13088809Y-15167762D01*
X13088809Y-15091571D01*
X13079286Y-15072524D01*
X13069762Y-15063000D01*
X13050714Y-15053476D01*
X13012619Y-15053476D01*
X12993571Y-15063000D01*
X12984047Y-15072524D01*
X12974524Y-15091571D01*
X12974524Y-15139190D01*
X12984047Y-15158238D01*
X12993571Y-15167762D01*
X13012619Y-15177286D01*
X13050714Y-15177286D01*
X13069762Y-15167762D01*
X13079286Y-15158238D01*
X13088809Y-15139190D01*
X13260238Y-15120143D02*
X13260238Y-15253476D01*
X13212619Y-15043952D02*
X13165000Y-15186809D01*
X13288809Y-15186809D01*
X13355476Y-15053476D02*
X13355476Y-15091571D01*
X13431666Y-15053476D02*
X13431666Y-15091571D01*
X13726905Y-15329667D02*
X13717381Y-15320143D01*
X13698333Y-15291571D01*
X13688809Y-15272524D01*
X13679286Y-15243952D01*
X13669762Y-15196333D01*
X13669762Y-15158238D01*
X13679286Y-15110619D01*
X13688809Y-15082048D01*
X13698333Y-15063000D01*
X13717381Y-15034428D01*
X13726905Y-15024905D01*
X13888809Y-15053476D02*
X13850714Y-15053476D01*
X13831666Y-15063000D01*
X13822143Y-15072524D01*
X13803095Y-15101095D01*
X13793571Y-15139190D01*
X13793571Y-15215381D01*
X13803095Y-15234428D01*
X13812619Y-15243952D01*
X13831666Y-15253476D01*
X13869762Y-15253476D01*
X13888809Y-15243952D01*
X13898333Y-15234428D01*
X13907857Y-15215381D01*
X13907857Y-15167762D01*
X13898333Y-15148714D01*
X13888809Y-15139190D01*
X13869762Y-15129667D01*
X13831666Y-15129667D01*
X13812619Y-15139190D01*
X13803095Y-15148714D01*
X13793571Y-15167762D01*
X14079286Y-15053476D02*
X14041190Y-15053476D01*
X14022143Y-15063000D01*
X14012619Y-15072524D01*
X13993571Y-15101095D01*
X13984047Y-15139190D01*
X13984047Y-15215381D01*
X13993571Y-15234428D01*
X14003095Y-15243952D01*
X14022143Y-15253476D01*
X14060238Y-15253476D01*
X14079286Y-15243952D01*
X14088809Y-15234428D01*
X14098333Y-15215381D01*
X14098333Y-15167762D01*
X14088809Y-15148714D01*
X14079286Y-15139190D01*
X14060238Y-15129667D01*
X14022143Y-15129667D01*
X14003095Y-15139190D01*
X13993571Y-15148714D01*
X13984047Y-15167762D01*
X14336428Y-15253476D02*
X14336428Y-15053476D01*
X14422143Y-15253476D02*
X14422143Y-15148714D01*
X14412619Y-15129667D01*
X14393571Y-15120143D01*
X14365000Y-15120143D01*
X14345952Y-15129667D01*
X14336428Y-15139190D01*
X14545952Y-15253476D02*
X14526905Y-15243952D01*
X14517381Y-15234428D01*
X14507857Y-15215381D01*
X14507857Y-15158238D01*
X14517381Y-15139190D01*
X14526905Y-15129667D01*
X14545952Y-15120143D01*
X14574524Y-15120143D01*
X14593571Y-15129667D01*
X14603095Y-15139190D01*
X14612619Y-15158238D01*
X14612619Y-15215381D01*
X14603095Y-15234428D01*
X14593571Y-15243952D01*
X14574524Y-15253476D01*
X14545952Y-15253476D01*
X14726905Y-15253476D02*
X14707857Y-15243952D01*
X14698333Y-15224905D01*
X14698333Y-15053476D01*
X14879286Y-15243952D02*
X14860238Y-15253476D01*
X14822143Y-15253476D01*
X14803095Y-15243952D01*
X14793571Y-15224905D01*
X14793571Y-15148714D01*
X14803095Y-15129667D01*
X14822143Y-15120143D01*
X14860238Y-15120143D01*
X14879286Y-15129667D01*
X14888809Y-15148714D01*
X14888809Y-15167762D01*
X14793571Y-15186809D01*
X14965000Y-15243952D02*
X14984047Y-15253476D01*
X15022143Y-15253476D01*
X15041190Y-15243952D01*
X15050714Y-15224905D01*
X15050714Y-15215381D01*
X15041190Y-15196333D01*
X15022143Y-15186809D01*
X14993571Y-15186809D01*
X14974524Y-15177286D01*
X14965000Y-15158238D01*
X14965000Y-15148714D01*
X14974524Y-15129667D01*
X14993571Y-15120143D01*
X15022143Y-15120143D01*
X15041190Y-15129667D01*
X15117381Y-15329667D02*
X15126905Y-15320143D01*
X15145952Y-15291571D01*
X15155476Y-15272524D01*
X15165000Y-15243952D01*
X15174524Y-15196333D01*
X15174524Y-15158238D01*
X15165000Y-15110619D01*
X15155476Y-15082048D01*
X15145952Y-15063000D01*
X15126905Y-15034428D01*
X15117381Y-15024905D01*
D16*
X10045000Y-15372000D02*
X10155000Y-15482000D01*
X10155000Y-15372000D02*
X10045000Y-15482000D01*
X10155000Y-15427000D02*
G75*
G03*
X10155000Y-15427000I-55000J0D01*
G01*
D11*
X10517381Y-15517476D02*
X10403095Y-15517476D01*
X10460238Y-15517476D02*
X10460238Y-15317476D01*
X10441190Y-15346048D01*
X10422143Y-15365095D01*
X10403095Y-15374619D01*
X10603095Y-15498428D02*
X10612619Y-15507952D01*
X10603095Y-15517476D01*
X10593571Y-15507952D01*
X10603095Y-15498428D01*
X10603095Y-15517476D01*
X10803095Y-15517476D02*
X10688809Y-15517476D01*
X10745952Y-15517476D02*
X10745952Y-15317476D01*
X10726905Y-15346048D01*
X10707857Y-15365095D01*
X10688809Y-15374619D01*
X10926905Y-15317476D02*
X10945952Y-15317476D01*
X10965000Y-15327000D01*
X10974524Y-15336524D01*
X10984048Y-15355571D01*
X10993571Y-15393667D01*
X10993571Y-15441286D01*
X10984048Y-15479381D01*
X10974524Y-15498428D01*
X10965000Y-15507952D01*
X10945952Y-15517476D01*
X10926905Y-15517476D01*
X10907857Y-15507952D01*
X10898333Y-15498428D01*
X10888809Y-15479381D01*
X10879286Y-15441286D01*
X10879286Y-15393667D01*
X10888809Y-15355571D01*
X10898333Y-15336524D01*
X10907857Y-15327000D01*
X10926905Y-15317476D01*
X11117381Y-15317476D02*
X11136428Y-15317476D01*
X11155476Y-15327000D01*
X11165000Y-15336524D01*
X11174524Y-15355571D01*
X11184048Y-15393667D01*
X11184048Y-15441286D01*
X11174524Y-15479381D01*
X11165000Y-15498428D01*
X11155476Y-15507952D01*
X11136428Y-15517476D01*
X11117381Y-15517476D01*
X11098333Y-15507952D01*
X11088809Y-15498428D01*
X11079286Y-15479381D01*
X11069762Y-15441286D01*
X11069762Y-15393667D01*
X11079286Y-15355571D01*
X11088809Y-15336524D01*
X11098333Y-15327000D01*
X11117381Y-15317476D01*
X11269762Y-15517476D02*
X11269762Y-15384143D01*
X11269762Y-15403190D02*
X11279286Y-15393667D01*
X11298333Y-15384143D01*
X11326905Y-15384143D01*
X11345952Y-15393667D01*
X11355476Y-15412714D01*
X11355476Y-15517476D01*
X11355476Y-15412714D02*
X11365000Y-15393667D01*
X11384047Y-15384143D01*
X11412619Y-15384143D01*
X11431666Y-15393667D01*
X11441190Y-15412714D01*
X11441190Y-15517476D01*
X11536428Y-15517476D02*
X11536428Y-15384143D01*
X11536428Y-15403190D02*
X11545952Y-15393667D01*
X11565000Y-15384143D01*
X11593571Y-15384143D01*
X11612619Y-15393667D01*
X11622143Y-15412714D01*
X11622143Y-15517476D01*
X11622143Y-15412714D02*
X11631666Y-15393667D01*
X11650714Y-15384143D01*
X11679286Y-15384143D01*
X11698333Y-15393667D01*
X11707857Y-15412714D01*
X11707857Y-15517476D01*
X12098333Y-15307952D02*
X11926905Y-15565095D01*
X12355476Y-15317476D02*
X12374524Y-15317476D01*
X12393571Y-15327000D01*
X12403095Y-15336524D01*
X12412619Y-15355571D01*
X12422143Y-15393667D01*
X12422143Y-15441286D01*
X12412619Y-15479381D01*
X12403095Y-15498428D01*
X12393571Y-15507952D01*
X12374524Y-15517476D01*
X12355476Y-15517476D01*
X12336428Y-15507952D01*
X12326905Y-15498428D01*
X12317381Y-15479381D01*
X12307857Y-15441286D01*
X12307857Y-15393667D01*
X12317381Y-15355571D01*
X12326905Y-15336524D01*
X12336428Y-15327000D01*
X12355476Y-15317476D01*
X12507857Y-15498428D02*
X12517381Y-15507952D01*
X12507857Y-15517476D01*
X12498333Y-15507952D01*
X12507857Y-15498428D01*
X12507857Y-15517476D01*
X12641190Y-15317476D02*
X12660238Y-15317476D01*
X12679286Y-15327000D01*
X12688809Y-15336524D01*
X12698333Y-15355571D01*
X12707857Y-15393667D01*
X12707857Y-15441286D01*
X12698333Y-15479381D01*
X12688809Y-15498428D01*
X12679286Y-15507952D01*
X12660238Y-15517476D01*
X12641190Y-15517476D01*
X12622143Y-15507952D01*
X12612619Y-15498428D01*
X12603095Y-15479381D01*
X12593571Y-15441286D01*
X12593571Y-15393667D01*
X12603095Y-15355571D01*
X12612619Y-15336524D01*
X12622143Y-15327000D01*
X12641190Y-15317476D01*
X12879286Y-15384143D02*
X12879286Y-15517476D01*
X12831666Y-15307952D02*
X12784047Y-15450809D01*
X12907857Y-15450809D01*
X12965000Y-15317476D02*
X13088809Y-15317476D01*
X13022143Y-15393667D01*
X13050714Y-15393667D01*
X13069762Y-15403190D01*
X13079286Y-15412714D01*
X13088809Y-15431762D01*
X13088809Y-15479381D01*
X13079286Y-15498428D01*
X13069762Y-15507952D01*
X13050714Y-15517476D01*
X12993571Y-15517476D01*
X12974524Y-15507952D01*
X12965000Y-15498428D01*
X13155476Y-15317476D02*
X13279286Y-15317476D01*
X13212619Y-15393667D01*
X13241190Y-15393667D01*
X13260238Y-15403190D01*
X13269762Y-15412714D01*
X13279286Y-15431762D01*
X13279286Y-15479381D01*
X13269762Y-15498428D01*
X13260238Y-15507952D01*
X13241190Y-15517476D01*
X13184047Y-15517476D01*
X13165000Y-15507952D01*
X13155476Y-15498428D01*
X13355476Y-15317476D02*
X13355476Y-15355571D01*
X13431666Y-15317476D02*
X13431666Y-15355571D01*
X13726905Y-15593667D02*
X13717381Y-15584143D01*
X13698333Y-15555571D01*
X13688809Y-15536524D01*
X13679286Y-15507952D01*
X13669762Y-15460333D01*
X13669762Y-15422238D01*
X13679286Y-15374619D01*
X13688809Y-15346048D01*
X13698333Y-15327000D01*
X13717381Y-15298428D01*
X13726905Y-15288905D01*
X13793571Y-15336524D02*
X13803095Y-15327000D01*
X13822143Y-15317476D01*
X13869762Y-15317476D01*
X13888809Y-15327000D01*
X13898333Y-15336524D01*
X13907857Y-15355571D01*
X13907857Y-15374619D01*
X13898333Y-15403190D01*
X13784047Y-15517476D01*
X13907857Y-15517476D01*
X14145952Y-15517476D02*
X14145952Y-15317476D01*
X14231666Y-15517476D02*
X14231666Y-15412714D01*
X14222143Y-15393667D01*
X14203095Y-15384143D01*
X14174524Y-15384143D01*
X14155476Y-15393667D01*
X14145952Y-15403190D01*
X14355476Y-15517476D02*
X14336428Y-15507952D01*
X14326905Y-15498428D01*
X14317381Y-15479381D01*
X14317381Y-15422238D01*
X14326905Y-15403190D01*
X14336428Y-15393667D01*
X14355476Y-15384143D01*
X14384047Y-15384143D01*
X14403095Y-15393667D01*
X14412619Y-15403190D01*
X14422143Y-15422238D01*
X14422143Y-15479381D01*
X14412619Y-15498428D01*
X14403095Y-15507952D01*
X14384047Y-15517476D01*
X14355476Y-15517476D01*
X14536428Y-15517476D02*
X14517381Y-15507952D01*
X14507857Y-15488905D01*
X14507857Y-15317476D01*
X14688809Y-15507952D02*
X14669762Y-15517476D01*
X14631666Y-15517476D01*
X14612619Y-15507952D01*
X14603095Y-15488905D01*
X14603095Y-15412714D01*
X14612619Y-15393667D01*
X14631666Y-15384143D01*
X14669762Y-15384143D01*
X14688809Y-15393667D01*
X14698333Y-15412714D01*
X14698333Y-15431762D01*
X14603095Y-15450809D01*
X14774524Y-15507952D02*
X14793571Y-15517476D01*
X14831666Y-15517476D01*
X14850714Y-15507952D01*
X14860238Y-15488905D01*
X14860238Y-15479381D01*
X14850714Y-15460333D01*
X14831666Y-15450809D01*
X14803095Y-15450809D01*
X14784047Y-15441286D01*
X14774524Y-15422238D01*
X14774524Y-15412714D01*
X14784047Y-15393667D01*
X14803095Y-15384143D01*
X14831666Y-15384143D01*
X14850714Y-15393667D01*
X14926905Y-15593667D02*
X14936428Y-15584143D01*
X14955476Y-15555571D01*
X14965000Y-15536524D01*
X14974524Y-15507952D01*
X14984047Y-15460333D01*
X14984047Y-15422238D01*
X14974524Y-15374619D01*
X14965000Y-15346048D01*
X14955476Y-15327000D01*
X14936428Y-15298428D01*
X14926905Y-15288905D01*
D17*
X10025000Y-15626000D02*
X10155000Y-15756000D01*
X10155000Y-15626000D02*
X10025000Y-15756000D01*
X10090000Y-15626000D02*
X10090000Y-15756000D01*
X10025000Y-15691000D02*
X10155000Y-15691000D01*
D11*
X10517381Y-15781476D02*
X10403095Y-15781476D01*
X10460238Y-15781476D02*
X10460238Y-15581476D01*
X10441190Y-15610048D01*
X10422143Y-15629095D01*
X10403095Y-15638619D01*
X10603095Y-15762428D02*
X10612619Y-15771952D01*
X10603095Y-15781476D01*
X10593571Y-15771952D01*
X10603095Y-15762428D01*
X10603095Y-15781476D01*
X10679286Y-15581476D02*
X10803095Y-15581476D01*
X10736428Y-15657667D01*
X10765000Y-15657667D01*
X10784048Y-15667190D01*
X10793571Y-15676714D01*
X10803095Y-15695762D01*
X10803095Y-15743381D01*
X10793571Y-15762428D01*
X10784048Y-15771952D01*
X10765000Y-15781476D01*
X10707857Y-15781476D01*
X10688809Y-15771952D01*
X10679286Y-15762428D01*
X10926905Y-15581476D02*
X10945952Y-15581476D01*
X10965000Y-15591000D01*
X10974524Y-15600524D01*
X10984048Y-15619571D01*
X10993571Y-15657667D01*
X10993571Y-15705286D01*
X10984048Y-15743381D01*
X10974524Y-15762428D01*
X10965000Y-15771952D01*
X10945952Y-15781476D01*
X10926905Y-15781476D01*
X10907857Y-15771952D01*
X10898333Y-15762428D01*
X10888809Y-15743381D01*
X10879286Y-15705286D01*
X10879286Y-15657667D01*
X10888809Y-15619571D01*
X10898333Y-15600524D01*
X10907857Y-15591000D01*
X10926905Y-15581476D01*
X11117381Y-15581476D02*
X11136428Y-15581476D01*
X11155476Y-15591000D01*
X11165000Y-15600524D01*
X11174524Y-15619571D01*
X11184048Y-15657667D01*
X11184048Y-15705286D01*
X11174524Y-15743381D01*
X11165000Y-15762428D01*
X11155476Y-15771952D01*
X11136428Y-15781476D01*
X11117381Y-15781476D01*
X11098333Y-15771952D01*
X11088809Y-15762428D01*
X11079286Y-15743381D01*
X11069762Y-15705286D01*
X11069762Y-15657667D01*
X11079286Y-15619571D01*
X11088809Y-15600524D01*
X11098333Y-15591000D01*
X11117381Y-15581476D01*
X11269762Y-15781476D02*
X11269762Y-15648143D01*
X11269762Y-15667190D02*
X11279286Y-15657667D01*
X11298333Y-15648143D01*
X11326905Y-15648143D01*
X11345952Y-15657667D01*
X11355476Y-15676714D01*
X11355476Y-15781476D01*
X11355476Y-15676714D02*
X11365000Y-15657667D01*
X11384047Y-15648143D01*
X11412619Y-15648143D01*
X11431666Y-15657667D01*
X11441190Y-15676714D01*
X11441190Y-15781476D01*
X11536428Y-15781476D02*
X11536428Y-15648143D01*
X11536428Y-15667190D02*
X11545952Y-15657667D01*
X11565000Y-15648143D01*
X11593571Y-15648143D01*
X11612619Y-15657667D01*
X11622143Y-15676714D01*
X11622143Y-15781476D01*
X11622143Y-15676714D02*
X11631666Y-15657667D01*
X11650714Y-15648143D01*
X11679286Y-15648143D01*
X11698333Y-15657667D01*
X11707857Y-15676714D01*
X11707857Y-15781476D01*
X12098333Y-15571952D02*
X11926905Y-15829095D01*
X12355476Y-15581476D02*
X12374524Y-15581476D01*
X12393571Y-15591000D01*
X12403095Y-15600524D01*
X12412619Y-15619571D01*
X12422143Y-15657667D01*
X12422143Y-15705286D01*
X12412619Y-15743381D01*
X12403095Y-15762428D01*
X12393571Y-15771952D01*
X12374524Y-15781476D01*
X12355476Y-15781476D01*
X12336428Y-15771952D01*
X12326905Y-15762428D01*
X12317381Y-15743381D01*
X12307857Y-15705286D01*
X12307857Y-15657667D01*
X12317381Y-15619571D01*
X12326905Y-15600524D01*
X12336428Y-15591000D01*
X12355476Y-15581476D01*
X12507857Y-15762428D02*
X12517381Y-15771952D01*
X12507857Y-15781476D01*
X12498333Y-15771952D01*
X12507857Y-15762428D01*
X12507857Y-15781476D01*
X12641190Y-15581476D02*
X12660238Y-15581476D01*
X12679286Y-15591000D01*
X12688809Y-15600524D01*
X12698333Y-15619571D01*
X12707857Y-15657667D01*
X12707857Y-15705286D01*
X12698333Y-15743381D01*
X12688809Y-15762428D01*
X12679286Y-15771952D01*
X12660238Y-15781476D01*
X12641190Y-15781476D01*
X12622143Y-15771952D01*
X12612619Y-15762428D01*
X12603095Y-15743381D01*
X12593571Y-15705286D01*
X12593571Y-15657667D01*
X12603095Y-15619571D01*
X12612619Y-15600524D01*
X12622143Y-15591000D01*
X12641190Y-15581476D01*
X12888809Y-15581476D02*
X12793571Y-15581476D01*
X12784047Y-15676714D01*
X12793571Y-15667190D01*
X12812619Y-15657667D01*
X12860238Y-15657667D01*
X12879286Y-15667190D01*
X12888809Y-15676714D01*
X12898333Y-15695762D01*
X12898333Y-15743381D01*
X12888809Y-15762428D01*
X12879286Y-15771952D01*
X12860238Y-15781476D01*
X12812619Y-15781476D01*
X12793571Y-15771952D01*
X12784047Y-15762428D01*
X13088809Y-15781476D02*
X12974524Y-15781476D01*
X13031666Y-15781476D02*
X13031666Y-15581476D01*
X13012619Y-15610048D01*
X12993571Y-15629095D01*
X12974524Y-15638619D01*
X13165000Y-15600524D02*
X13174524Y-15591000D01*
X13193571Y-15581476D01*
X13241190Y-15581476D01*
X13260238Y-15591000D01*
X13269762Y-15600524D01*
X13279286Y-15619571D01*
X13279286Y-15638619D01*
X13269762Y-15667190D01*
X13155476Y-15781476D01*
X13279286Y-15781476D01*
X13355476Y-15581476D02*
X13355476Y-15619571D01*
X13431666Y-15581476D02*
X13431666Y-15619571D01*
X13726905Y-15857667D02*
X13717381Y-15848143D01*
X13698333Y-15819571D01*
X13688809Y-15800524D01*
X13679286Y-15771952D01*
X13669762Y-15724333D01*
X13669762Y-15686238D01*
X13679286Y-15638619D01*
X13688809Y-15610048D01*
X13698333Y-15591000D01*
X13717381Y-15562428D01*
X13726905Y-15552905D01*
X13793571Y-15600524D02*
X13803095Y-15591000D01*
X13822143Y-15581476D01*
X13869762Y-15581476D01*
X13888809Y-15591000D01*
X13898333Y-15600524D01*
X13907857Y-15619571D01*
X13907857Y-15638619D01*
X13898333Y-15667190D01*
X13784047Y-15781476D01*
X13907857Y-15781476D01*
X13984047Y-15600524D02*
X13993571Y-15591000D01*
X14012619Y-15581476D01*
X14060238Y-15581476D01*
X14079286Y-15591000D01*
X14088809Y-15600524D01*
X14098333Y-15619571D01*
X14098333Y-15638619D01*
X14088809Y-15667190D01*
X13974524Y-15781476D01*
X14098333Y-15781476D01*
X14336428Y-15781476D02*
X14336428Y-15581476D01*
X14422143Y-15781476D02*
X14422143Y-15676714D01*
X14412619Y-15657667D01*
X14393571Y-15648143D01*
X14365000Y-15648143D01*
X14345952Y-15657667D01*
X14336428Y-15667190D01*
X14545952Y-15781476D02*
X14526905Y-15771952D01*
X14517381Y-15762428D01*
X14507857Y-15743381D01*
X14507857Y-15686238D01*
X14517381Y-15667190D01*
X14526905Y-15657667D01*
X14545952Y-15648143D01*
X14574524Y-15648143D01*
X14593571Y-15657667D01*
X14603095Y-15667190D01*
X14612619Y-15686238D01*
X14612619Y-15743381D01*
X14603095Y-15762428D01*
X14593571Y-15771952D01*
X14574524Y-15781476D01*
X14545952Y-15781476D01*
X14726905Y-15781476D02*
X14707857Y-15771952D01*
X14698333Y-15752905D01*
X14698333Y-15581476D01*
X14879286Y-15771952D02*
X14860238Y-15781476D01*
X14822143Y-15781476D01*
X14803095Y-15771952D01*
X14793571Y-15752905D01*
X14793571Y-15676714D01*
X14803095Y-15657667D01*
X14822143Y-15648143D01*
X14860238Y-15648143D01*
X14879286Y-15657667D01*
X14888809Y-15676714D01*
X14888809Y-15695762D01*
X14793571Y-15714809D01*
X14965000Y-15771952D02*
X14984047Y-15781476D01*
X15022143Y-15781476D01*
X15041190Y-15771952D01*
X15050714Y-15752905D01*
X15050714Y-15743381D01*
X15041190Y-15724333D01*
X15022143Y-15714809D01*
X14993571Y-15714809D01*
X14974524Y-15705286D01*
X14965000Y-15686238D01*
X14965000Y-15676714D01*
X14974524Y-15657667D01*
X14993571Y-15648143D01*
X15022143Y-15648143D01*
X15041190Y-15657667D01*
X15117381Y-15857667D02*
X15126905Y-15848143D01*
X15145952Y-15819571D01*
X15155476Y-15800524D01*
X15165000Y-15771952D01*
X15174524Y-15724333D01*
X15174524Y-15686238D01*
X15165000Y-15638619D01*
X15155476Y-15610048D01*
X15145952Y-15591000D01*
X15126905Y-15562428D01*
X15117381Y-15552905D01*
X9955000Y-15855000D02*
X10155000Y-16055000D01*
X10155000Y-15855000D02*
X9955000Y-16055000D01*
X10125711Y-16025711D02*
X10125711Y-15884289D01*
X9984289Y-15884289D01*
X9984289Y-16025711D01*
X10125711Y-16025711D01*
X10393571Y-15845476D02*
X10517381Y-15845476D01*
X10450714Y-15921667D01*
X10479286Y-15921667D01*
X10498333Y-15931190D01*
X10507857Y-15940714D01*
X10517381Y-15959762D01*
X10517381Y-16007381D01*
X10507857Y-16026428D01*
X10498333Y-16035952D01*
X10479286Y-16045476D01*
X10422143Y-16045476D01*
X10403095Y-16035952D01*
X10393571Y-16026428D01*
X10603095Y-16026428D02*
X10612619Y-16035952D01*
X10603095Y-16045476D01*
X10593571Y-16035952D01*
X10603095Y-16026428D01*
X10603095Y-16045476D01*
X10688809Y-15864524D02*
X10698333Y-15855000D01*
X10717381Y-15845476D01*
X10765000Y-15845476D01*
X10784048Y-15855000D01*
X10793571Y-15864524D01*
X10803095Y-15883571D01*
X10803095Y-15902619D01*
X10793571Y-15931190D01*
X10679286Y-16045476D01*
X10803095Y-16045476D01*
X10926905Y-15845476D02*
X10945952Y-15845476D01*
X10965000Y-15855000D01*
X10974524Y-15864524D01*
X10984048Y-15883571D01*
X10993571Y-15921667D01*
X10993571Y-15969286D01*
X10984048Y-16007381D01*
X10974524Y-16026428D01*
X10965000Y-16035952D01*
X10945952Y-16045476D01*
X10926905Y-16045476D01*
X10907857Y-16035952D01*
X10898333Y-16026428D01*
X10888809Y-16007381D01*
X10879286Y-15969286D01*
X10879286Y-15921667D01*
X10888809Y-15883571D01*
X10898333Y-15864524D01*
X10907857Y-15855000D01*
X10926905Y-15845476D01*
X11117381Y-15845476D02*
X11136428Y-15845476D01*
X11155476Y-15855000D01*
X11165000Y-15864524D01*
X11174524Y-15883571D01*
X11184048Y-15921667D01*
X11184048Y-15969286D01*
X11174524Y-16007381D01*
X11165000Y-16026428D01*
X11155476Y-16035952D01*
X11136428Y-16045476D01*
X11117381Y-16045476D01*
X11098333Y-16035952D01*
X11088809Y-16026428D01*
X11079286Y-16007381D01*
X11069762Y-15969286D01*
X11069762Y-15921667D01*
X11079286Y-15883571D01*
X11088809Y-15864524D01*
X11098333Y-15855000D01*
X11117381Y-15845476D01*
X11269762Y-16045476D02*
X11269762Y-15912143D01*
X11269762Y-15931190D02*
X11279286Y-15921667D01*
X11298333Y-15912143D01*
X11326905Y-15912143D01*
X11345952Y-15921667D01*
X11355476Y-15940714D01*
X11355476Y-16045476D01*
X11355476Y-15940714D02*
X11365000Y-15921667D01*
X11384047Y-15912143D01*
X11412619Y-15912143D01*
X11431666Y-15921667D01*
X11441190Y-15940714D01*
X11441190Y-16045476D01*
X11536428Y-16045476D02*
X11536428Y-15912143D01*
X11536428Y-15931190D02*
X11545952Y-15921667D01*
X11565000Y-15912143D01*
X11593571Y-15912143D01*
X11612619Y-15921667D01*
X11622143Y-15940714D01*
X11622143Y-16045476D01*
X11622143Y-15940714D02*
X11631666Y-15921667D01*
X11650714Y-15912143D01*
X11679286Y-15912143D01*
X11698333Y-15921667D01*
X11707857Y-15940714D01*
X11707857Y-16045476D01*
X12098333Y-15835952D02*
X11926905Y-16093095D01*
X12355476Y-15845476D02*
X12374524Y-15845476D01*
X12393571Y-15855000D01*
X12403095Y-15864524D01*
X12412619Y-15883571D01*
X12422143Y-15921667D01*
X12422143Y-15969286D01*
X12412619Y-16007381D01*
X12403095Y-16026428D01*
X12393571Y-16035952D01*
X12374524Y-16045476D01*
X12355476Y-16045476D01*
X12336428Y-16035952D01*
X12326905Y-16026428D01*
X12317381Y-16007381D01*
X12307857Y-15969286D01*
X12307857Y-15921667D01*
X12317381Y-15883571D01*
X12326905Y-15864524D01*
X12336428Y-15855000D01*
X12355476Y-15845476D01*
X12507857Y-16026428D02*
X12517381Y-16035952D01*
X12507857Y-16045476D01*
X12498333Y-16035952D01*
X12507857Y-16026428D01*
X12507857Y-16045476D01*
X12707857Y-16045476D02*
X12593571Y-16045476D01*
X12650714Y-16045476D02*
X12650714Y-15845476D01*
X12631666Y-15874048D01*
X12612619Y-15893095D01*
X12593571Y-15902619D01*
X12784047Y-15864524D02*
X12793571Y-15855000D01*
X12812619Y-15845476D01*
X12860238Y-15845476D01*
X12879286Y-15855000D01*
X12888809Y-15864524D01*
X12898333Y-15883571D01*
X12898333Y-15902619D01*
X12888809Y-15931190D01*
X12774524Y-16045476D01*
X12898333Y-16045476D01*
X13069762Y-15845476D02*
X13031666Y-15845476D01*
X13012619Y-15855000D01*
X13003095Y-15864524D01*
X12984047Y-15893095D01*
X12974524Y-15931190D01*
X12974524Y-16007381D01*
X12984047Y-16026428D01*
X12993571Y-16035952D01*
X13012619Y-16045476D01*
X13050714Y-16045476D01*
X13069762Y-16035952D01*
X13079286Y-16026428D01*
X13088809Y-16007381D01*
X13088809Y-15959762D01*
X13079286Y-15940714D01*
X13069762Y-15931190D01*
X13050714Y-15921667D01*
X13012619Y-15921667D01*
X12993571Y-15931190D01*
X12984047Y-15940714D01*
X12974524Y-15959762D01*
X13212619Y-15845476D02*
X13231666Y-15845476D01*
X13250714Y-15855000D01*
X13260238Y-15864524D01*
X13269762Y-15883571D01*
X13279286Y-15921667D01*
X13279286Y-15969286D01*
X13269762Y-16007381D01*
X13260238Y-16026428D01*
X13250714Y-16035952D01*
X13231666Y-16045476D01*
X13212619Y-16045476D01*
X13193571Y-16035952D01*
X13184047Y-16026428D01*
X13174524Y-16007381D01*
X13165000Y-15969286D01*
X13165000Y-15921667D01*
X13174524Y-15883571D01*
X13184047Y-15864524D01*
X13193571Y-15855000D01*
X13212619Y-15845476D01*
X13355476Y-15845476D02*
X13355476Y-15883571D01*
X13431666Y-15845476D02*
X13431666Y-15883571D01*
X13726905Y-16121667D02*
X13717381Y-16112143D01*
X13698333Y-16083571D01*
X13688809Y-16064524D01*
X13679286Y-16035952D01*
X13669762Y-15988333D01*
X13669762Y-15950238D01*
X13679286Y-15902619D01*
X13688809Y-15874048D01*
X13698333Y-15855000D01*
X13717381Y-15826428D01*
X13726905Y-15816905D01*
X13888809Y-15912143D02*
X13888809Y-16045476D01*
X13841190Y-15835952D02*
X13793571Y-15978809D01*
X13917381Y-15978809D01*
X14145952Y-16045476D02*
X14145952Y-15845476D01*
X14231666Y-16045476D02*
X14231666Y-15940714D01*
X14222143Y-15921667D01*
X14203095Y-15912143D01*
X14174524Y-15912143D01*
X14155476Y-15921667D01*
X14145952Y-15931190D01*
X14355476Y-16045476D02*
X14336428Y-16035952D01*
X14326905Y-16026428D01*
X14317381Y-16007381D01*
X14317381Y-15950238D01*
X14326905Y-15931190D01*
X14336428Y-15921667D01*
X14355476Y-15912143D01*
X14384047Y-15912143D01*
X14403095Y-15921667D01*
X14412619Y-15931190D01*
X14422143Y-15950238D01*
X14422143Y-16007381D01*
X14412619Y-16026428D01*
X14403095Y-16035952D01*
X14384047Y-16045476D01*
X14355476Y-16045476D01*
X14536428Y-16045476D02*
X14517381Y-16035952D01*
X14507857Y-16016905D01*
X14507857Y-15845476D01*
X14688809Y-16035952D02*
X14669762Y-16045476D01*
X14631666Y-16045476D01*
X14612619Y-16035952D01*
X14603095Y-16016905D01*
X14603095Y-15940714D01*
X14612619Y-15921667D01*
X14631666Y-15912143D01*
X14669762Y-15912143D01*
X14688809Y-15921667D01*
X14698333Y-15940714D01*
X14698333Y-15959762D01*
X14603095Y-15978809D01*
X14774524Y-16035952D02*
X14793571Y-16045476D01*
X14831666Y-16045476D01*
X14850714Y-16035952D01*
X14860238Y-16016905D01*
X14860238Y-16007381D01*
X14850714Y-15988333D01*
X14831666Y-15978809D01*
X14803095Y-15978809D01*
X14784047Y-15969286D01*
X14774524Y-15950238D01*
X14774524Y-15940714D01*
X14784047Y-15921667D01*
X14803095Y-15912143D01*
X14831666Y-15912143D01*
X14850714Y-15921667D01*
X14926905Y-16121667D02*
X14936428Y-16112143D01*
X14955476Y-16083571D01*
X14965000Y-16064524D01*
X14974524Y-16035952D01*
X14984047Y-15988333D01*
X14984047Y-15950238D01*
X14974524Y-15902619D01*
X14965000Y-15874048D01*
X14955476Y-15855000D01*
X14936428Y-15826428D01*
X14926905Y-15816905D01*
M02*
