G04 #@! TF.GenerationSoftware,KiCad,Pcbnew,(6.0.7)*
G04 #@! TF.CreationDate,2022-09-04T23:34:18+02:00*
G04 #@! TF.ProjectId,CANduino128,43414e64-7569-46e6-9f31-32382e6b6963,rev?*
G04 #@! TF.SameCoordinates,Original*
G04 #@! TF.FileFunction,Profile,NP*
%FSLAX46Y46*%
G04 Gerber Fmt 4.6, Leading zero omitted, Abs format (unit mm)*
G04 Created by KiCad (PCBNEW (6.0.7)) date 2022-09-04 23:34:18*
%MOMM*%
%LPD*%
G01*
G04 APERTURE LIST*
G04 #@! TA.AperFunction,Profile*
%ADD10C,0.100000*%
G04 #@! TD*
G04 APERTURE END LIST*
D10*
X144157699Y-134620001D02*
G75*
G03*
X145110199Y-133667500I-1J952501D01*
G01*
X165404798Y-133667500D02*
G75*
G03*
X166357299Y-134620000I952500J0D01*
G01*
X145110198Y-45402500D02*
G75*
G03*
X146062699Y-46355000I952500J0D01*
G01*
X166357299Y-44450001D02*
G75*
G03*
X165404799Y-45402500I-1J-952499D01*
G01*
X201294998Y-97599500D02*
G75*
G03*
X202247499Y-98552000I952500J0D01*
G01*
X107314998Y-77279500D02*
G75*
G03*
X108267499Y-78232000I952500J0D01*
G01*
X203199999Y-45402500D02*
X203199999Y-77279500D01*
X203199998Y-99504500D02*
G75*
G03*
X202247499Y-98552000I-952500J0D01*
G01*
X146062699Y-46355000D02*
X164452299Y-46355000D01*
X108267499Y-44450001D02*
G75*
G03*
X107314999Y-45402500I-1J-952499D01*
G01*
X203199999Y-99504500D02*
X203199999Y-133667500D01*
X107314999Y-99504500D02*
X107314999Y-133667500D01*
X109219998Y-79184500D02*
G75*
G03*
X108267499Y-78232000I-952500J0D01*
G01*
X165404798Y-133667500D02*
G75*
G03*
X164452299Y-132715000I-952500J0D01*
G01*
X146062699Y-132715001D02*
G75*
G03*
X145110199Y-133667500I-1J-952499D01*
G01*
X109219999Y-79184500D02*
X109219999Y-97599500D01*
X146062699Y-132715000D02*
X164452299Y-132715000D01*
X108267499Y-134620000D02*
X144157699Y-134620000D01*
X107314998Y-133667500D02*
G75*
G03*
X108267499Y-134620000I952500J0D01*
G01*
X166357299Y-134620000D02*
X202247499Y-134620000D01*
X108267499Y-98552001D02*
G75*
G03*
X107314999Y-99504500I-1J-952499D01*
G01*
X166357299Y-44450000D02*
X202247499Y-44450000D01*
X202247499Y-134620001D02*
G75*
G03*
X203199999Y-133667500I-1J952501D01*
G01*
X202247499Y-78232001D02*
G75*
G03*
X203199999Y-77279500I-1J952501D01*
G01*
X108267499Y-44450000D02*
X144157699Y-44450000D01*
X107314999Y-45402500D02*
X107314999Y-77279500D01*
X203199998Y-45402500D02*
G75*
G03*
X202247499Y-44450000I-952500J0D01*
G01*
X108267499Y-98552001D02*
G75*
G03*
X109219999Y-97599500I-1J952501D01*
G01*
X164452299Y-46355001D02*
G75*
G03*
X165404799Y-45402500I-1J952501D01*
G01*
X145110198Y-45402500D02*
G75*
G03*
X144157699Y-44450000I-952500J0D01*
G01*
X201294999Y-79184500D02*
X201294999Y-97599500D01*
X202247499Y-78232001D02*
G75*
G03*
X201294999Y-79184500I-1J-952499D01*
G01*
M02*
