G04 #@! TF.GenerationSoftware,KiCad,Pcbnew,7.0.3-24-g09febce4ce*
G04 #@! TF.CreationDate,2023-05-24T00:27:02+02:00*
G04 #@! TF.ProjectId,CANduino128,43414e64-7569-46e6-9f31-32382e6b6963,rev?*
G04 #@! TF.SameCoordinates,Original*
G04 #@! TF.FileFunction,Paste,Top*
G04 #@! TF.FilePolarity,Positive*
%FSLAX46Y46*%
G04 Gerber Fmt 4.6, Leading zero omitted, Abs format (unit mm)*
G04 Created by KiCad (PCBNEW 7.0.3-24-g09febce4ce) date 2023-05-24 00:27:02*
%MOMM*%
%LPD*%
G01*
G04 APERTURE LIST*
G04 Aperture macros list*
%AMRoundRect*
0 Rectangle with rounded corners*
0 $1 Rounding radius*
0 $2 $3 $4 $5 $6 $7 $8 $9 X,Y pos of 4 corners*
0 Add a 4 corners polygon primitive as box body*
4,1,4,$2,$3,$4,$5,$6,$7,$8,$9,$2,$3,0*
0 Add four circle primitives for the rounded corners*
1,1,$1+$1,$2,$3*
1,1,$1+$1,$4,$5*
1,1,$1+$1,$6,$7*
1,1,$1+$1,$8,$9*
0 Add four rect primitives between the rounded corners*
20,1,$1+$1,$2,$3,$4,$5,0*
20,1,$1+$1,$4,$5,$6,$7,0*
20,1,$1+$1,$6,$7,$8,$9,0*
20,1,$1+$1,$8,$9,$2,$3,0*%
G04 Aperture macros list end*
%ADD10RoundRect,0.117500X0.412500X0.962500X-0.412500X0.962500X-0.412500X-0.962500X0.412500X-0.962500X0*%
%ADD11RoundRect,0.107501X-0.462499X-0.952499X0.462499X-0.952499X0.462499X0.952499X-0.462499X0.952499X0*%
%ADD12RoundRect,0.120000X-0.940000X0.400000X-0.940000X-0.400000X0.940000X-0.400000X0.940000X0.400000X0*%
%ADD13RoundRect,0.117500X-0.412500X-0.962500X0.412500X-0.962500X0.412500X0.962500X-0.412500X0.962500X0*%
%ADD14RoundRect,0.117500X0.962500X-0.412500X0.962500X0.412500X-0.962500X0.412500X-0.962500X-0.412500X0*%
%ADD15RoundRect,0.120000X-0.400000X-0.940000X0.400000X-0.940000X0.400000X0.940000X-0.400000X0.940000X0*%
%ADD16RoundRect,0.107501X0.952499X-0.462499X0.952499X0.462499X-0.952499X0.462499X-0.952499X-0.462499X0*%
%ADD17RoundRect,0.120000X0.940000X-0.400000X0.940000X0.400000X-0.940000X0.400000X-0.940000X-0.400000X0*%
%ADD18R,1.200000X0.480000*%
G04 APERTURE END LIST*
D10*
X180352500Y-93980000D03*
X177227500Y-93980000D03*
D11*
X116622500Y-119380000D03*
X119597500Y-119380000D03*
D12*
X135890000Y-94335000D03*
X135890000Y-97435000D03*
D13*
X177227500Y-68580000D03*
X180352500Y-68580000D03*
D10*
X180352500Y-99060000D03*
X177227500Y-99060000D03*
D14*
X143510000Y-89192500D03*
X143510000Y-86067500D03*
D10*
X180352500Y-78740000D03*
X177227500Y-78740000D03*
D15*
X145135000Y-81280000D03*
X148235000Y-81280000D03*
D16*
X114300000Y-54827500D03*
X114300000Y-51852500D03*
D10*
X180352500Y-88900000D03*
X177227500Y-88900000D03*
D17*
X181610000Y-123470000D03*
X181610000Y-120370000D03*
D15*
X144500000Y-73660000D03*
X147600000Y-73660000D03*
D10*
X180352500Y-83820000D03*
X177227500Y-83820000D03*
X180352500Y-109220000D03*
X177227500Y-109220000D03*
D15*
X136880000Y-73660000D03*
X139980000Y-73660000D03*
D10*
X180352500Y-73660000D03*
X177227500Y-73660000D03*
D17*
X132080000Y-97435000D03*
X132080000Y-94335000D03*
D10*
X180352500Y-104140000D03*
X177227500Y-104140000D03*
D13*
X148297500Y-90805000D03*
X151422500Y-90805000D03*
D12*
X139700000Y-94335000D03*
X139700000Y-97435000D03*
D16*
X187960000Y-123407500D03*
X187960000Y-120432500D03*
D11*
X116622500Y-115570000D03*
X119597500Y-115570000D03*
D18*
X145110000Y-95885000D03*
X145110000Y-97155000D03*
X145110000Y-98425000D03*
X145110000Y-99695000D03*
X145110000Y-100965000D03*
X145110000Y-102235000D03*
X145110000Y-103505000D03*
X145110000Y-104775000D03*
X145110000Y-106045000D03*
X145110000Y-107315000D03*
X154610000Y-107315000D03*
X154610000Y-106045000D03*
X154610000Y-104775000D03*
X154610000Y-103505000D03*
X154610000Y-102235000D03*
X154610000Y-100965000D03*
X154610000Y-99695000D03*
X154610000Y-98425000D03*
X154610000Y-97155000D03*
X154610000Y-95885000D03*
M02*
