G04 #@! TF.GenerationSoftware,KiCad,Pcbnew,(6.0.6-33-g9052b063de)*
G04 #@! TF.CreationDate,2022-08-07T22:11:36+02:00*
G04 #@! TF.ProjectId,CANduino128,43414e64-7569-46e6-9f31-32382e6b6963,rev?*
G04 #@! TF.SameCoordinates,Original*
G04 #@! TF.FileFunction,Legend,Top*
G04 #@! TF.FilePolarity,Positive*
%FSLAX46Y46*%
G04 Gerber Fmt 4.6, Leading zero omitted, Abs format (unit mm)*
G04 Created by KiCad (PCBNEW (6.0.6-33-g9052b063de)) date 2022-08-07 22:11:36*
%MOMM*%
%LPD*%
G01*
G04 APERTURE LIST*
G04 Aperture macros list*
%AMRoundRect*
0 Rectangle with rounded corners*
0 $1 Rounding radius*
0 $2 $3 $4 $5 $6 $7 $8 $9 X,Y pos of 4 corners*
0 Add a 4 corners polygon primitive as box body*
4,1,4,$2,$3,$4,$5,$6,$7,$8,$9,$2,$3,0*
0 Add four circle primitives for the rounded corners*
1,1,$1+$1,$2,$3*
1,1,$1+$1,$4,$5*
1,1,$1+$1,$6,$7*
1,1,$1+$1,$8,$9*
0 Add four rect primitives between the rounded corners*
20,1,$1+$1,$2,$3,$4,$5,0*
20,1,$1+$1,$4,$5,$6,$7,0*
20,1,$1+$1,$6,$7,$8,$9,0*
20,1,$1+$1,$8,$9,$2,$3,0*%
%AMFreePoly0*
4,1,6,1.000000,0.000000,0.500000,-0.750000,-0.500000,-0.750000,-0.500000,0.750000,0.500000,0.750000,1.000000,0.000000,1.000000,0.000000,$1*%
%AMFreePoly1*
4,1,6,0.500000,-0.750000,-0.650000,-0.750000,-0.150000,0.000000,-0.650000,0.750000,0.500000,0.750000,0.500000,-0.750000,0.500000,-0.750000,$1*%
G04 Aperture macros list end*
%ADD10C,0.150000*%
%ADD11C,0.120000*%
%ADD12R,2.200000X2.200000*%
%ADD13C,2.200000*%
%ADD14RoundRect,0.250000X1.100000X-0.412500X1.100000X0.412500X-1.100000X0.412500X-1.100000X-0.412500X0*%
%ADD15C,2.850000*%
%ADD16RoundRect,0.249999X0.525001X0.525001X-0.525001X0.525001X-0.525001X-0.525001X0.525001X-0.525001X0*%
%ADD17C,1.550000*%
%ADD18RoundRect,0.250001X1.074999X-0.462499X1.074999X0.462499X-1.074999X0.462499X-1.074999X-0.462499X0*%
%ADD19FreePoly0,270.000000*%
%ADD20FreePoly1,270.000000*%
%ADD21RoundRect,0.250000X-1.075000X0.400000X-1.075000X-0.400000X1.075000X-0.400000X1.075000X0.400000X0*%
%ADD22C,0.800000*%
%ADD23C,6.400000*%
%ADD24RoundRect,0.250001X-0.799999X-0.799999X0.799999X-0.799999X0.799999X0.799999X-0.799999X0.799999X0*%
%ADD25R,2.400000X1.600000*%
%ADD26O,2.400000X1.600000*%
%ADD27R,1.600000X2.400000*%
%ADD28O,1.600000X2.400000*%
%ADD29C,1.600000*%
%ADD30R,1.600000X1.600000*%
%ADD31RoundRect,0.250000X-0.550000X-0.550000X0.550000X-0.550000X0.550000X0.550000X-0.550000X0.550000X0*%
%ADD32R,0.600000X1.500000*%
%ADD33RoundRect,0.250000X0.412500X1.100000X-0.412500X1.100000X-0.412500X-1.100000X0.412500X-1.100000X0*%
%ADD34RoundRect,0.250000X1.075000X-0.400000X1.075000X0.400000X-1.075000X0.400000X-1.075000X-0.400000X0*%
%ADD35RoundRect,0.250001X-1.074999X0.462499X-1.074999X-0.462499X1.074999X-0.462499X1.074999X0.462499X0*%
%ADD36C,2.600000*%
%ADD37R,2.600000X2.600000*%
%ADD38C,1.500000*%
%ADD39RoundRect,0.250000X-0.550000X0.550000X-0.550000X-0.550000X0.550000X-0.550000X0.550000X0.550000X0*%
%ADD40RoundRect,0.250000X0.400000X1.075000X-0.400000X1.075000X-0.400000X-1.075000X0.400000X-1.075000X0*%
%ADD41R,1.700000X1.700000*%
%ADD42O,1.700000X1.700000*%
%ADD43RoundRect,0.250001X0.462499X1.074999X-0.462499X1.074999X-0.462499X-1.074999X0.462499X-1.074999X0*%
G04 APERTURE END LIST*
D10*
X155297142Y-62825238D02*
X155344761Y-62872857D01*
X155392380Y-63015714D01*
X155392380Y-63110952D01*
X155344761Y-63253809D01*
X155249523Y-63349047D01*
X155154285Y-63396666D01*
X154963809Y-63444285D01*
X154820952Y-63444285D01*
X154630476Y-63396666D01*
X154535238Y-63349047D01*
X154440000Y-63253809D01*
X154392380Y-63110952D01*
X154392380Y-63015714D01*
X154440000Y-62872857D01*
X154487619Y-62825238D01*
X155106666Y-62444285D02*
X155106666Y-61968095D01*
X155392380Y-62539523D02*
X154392380Y-62206190D01*
X155392380Y-61872857D01*
X154392380Y-61063333D02*
X154392380Y-61539523D01*
X154868571Y-61587142D01*
X154820952Y-61539523D01*
X154773333Y-61444285D01*
X154773333Y-61206190D01*
X154820952Y-61110952D01*
X154868571Y-61063333D01*
X154963809Y-61015714D01*
X155201904Y-61015714D01*
X155297142Y-61063333D01*
X155344761Y-61110952D01*
X155392380Y-61206190D01*
X155392380Y-61444285D01*
X155344761Y-61539523D01*
X155297142Y-61587142D01*
X191436666Y-136852380D02*
X191436666Y-137566666D01*
X191389047Y-137709523D01*
X191293809Y-137804761D01*
X191150952Y-137852380D01*
X191055714Y-137852380D01*
X192436666Y-137852380D02*
X191865238Y-137852380D01*
X192150952Y-137852380D02*
X192150952Y-136852380D01*
X192055714Y-136995238D01*
X191960476Y-137090476D01*
X191865238Y-137138095D01*
X156591428Y-84272380D02*
X156591428Y-83272380D01*
X156972380Y-83272380D01*
X157067619Y-83320000D01*
X157115238Y-83367619D01*
X157162857Y-83462857D01*
X157162857Y-83605714D01*
X157115238Y-83700952D01*
X157067619Y-83748571D01*
X156972380Y-83796190D01*
X156591428Y-83796190D01*
X158020000Y-84272380D02*
X158020000Y-83748571D01*
X157972380Y-83653333D01*
X157877142Y-83605714D01*
X157686666Y-83605714D01*
X157591428Y-83653333D01*
X158020000Y-84224761D02*
X157924761Y-84272380D01*
X157686666Y-84272380D01*
X157591428Y-84224761D01*
X157543809Y-84129523D01*
X157543809Y-84034285D01*
X157591428Y-83939047D01*
X157686666Y-83891428D01*
X157924761Y-83891428D01*
X158020000Y-83843809D01*
X158924761Y-84272380D02*
X158924761Y-83272380D01*
X158924761Y-84224761D02*
X158829523Y-84272380D01*
X158639047Y-84272380D01*
X158543809Y-84224761D01*
X158496190Y-84177142D01*
X158448571Y-84081904D01*
X158448571Y-83796190D01*
X158496190Y-83700952D01*
X158543809Y-83653333D01*
X158639047Y-83605714D01*
X158829523Y-83605714D01*
X158924761Y-83653333D01*
X159162857Y-84367619D02*
X159924761Y-84367619D01*
X160115238Y-84224761D02*
X160258095Y-84272380D01*
X160496190Y-84272380D01*
X160591428Y-84224761D01*
X160639047Y-84177142D01*
X160686666Y-84081904D01*
X160686666Y-83986666D01*
X160639047Y-83891428D01*
X160591428Y-83843809D01*
X160496190Y-83796190D01*
X160305714Y-83748571D01*
X160210476Y-83700952D01*
X160162857Y-83653333D01*
X160115238Y-83558095D01*
X160115238Y-83462857D01*
X160162857Y-83367619D01*
X160210476Y-83320000D01*
X160305714Y-83272380D01*
X160543809Y-83272380D01*
X160686666Y-83320000D01*
X161115238Y-84272380D02*
X161115238Y-83272380D01*
X161353333Y-83272380D01*
X161496190Y-83320000D01*
X161591428Y-83415238D01*
X161639047Y-83510476D01*
X161686666Y-83700952D01*
X161686666Y-83843809D01*
X161639047Y-84034285D01*
X161591428Y-84129523D01*
X161496190Y-84224761D01*
X161353333Y-84272380D01*
X161115238Y-84272380D01*
X162067619Y-83986666D02*
X162543809Y-83986666D01*
X161972380Y-84272380D02*
X162305714Y-83272380D01*
X162639047Y-84272380D01*
X163496190Y-84272380D02*
X162924761Y-84272380D01*
X163210476Y-84272380D02*
X163210476Y-83272380D01*
X163115238Y-83415238D01*
X163020000Y-83510476D01*
X162924761Y-83558095D01*
X164282380Y-103385714D02*
X163806190Y-103719047D01*
X164282380Y-103957142D02*
X163282380Y-103957142D01*
X163282380Y-103576190D01*
X163330000Y-103480952D01*
X163377619Y-103433333D01*
X163472857Y-103385714D01*
X163615714Y-103385714D01*
X163710952Y-103433333D01*
X163758571Y-103480952D01*
X163806190Y-103576190D01*
X163806190Y-103957142D01*
X164377619Y-103195238D02*
X164377619Y-102433333D01*
X163282380Y-102338095D02*
X163282380Y-101766666D01*
X164282380Y-102052380D02*
X163282380Y-102052380D01*
X163282380Y-101528571D02*
X164282380Y-100861904D01*
X163282380Y-100861904D02*
X164282380Y-101528571D01*
X164377619Y-100719047D02*
X164377619Y-99957142D01*
X164282380Y-99195238D02*
X164282380Y-99766666D01*
X164282380Y-99480952D02*
X163282380Y-99480952D01*
X163425238Y-99576190D01*
X163520476Y-99671428D01*
X163568095Y-99766666D01*
X130137142Y-64486190D02*
X130184761Y-64533809D01*
X130232380Y-64676666D01*
X130232380Y-64771904D01*
X130184761Y-64914761D01*
X130089523Y-65010000D01*
X129994285Y-65057619D01*
X129803809Y-65105238D01*
X129660952Y-65105238D01*
X129470476Y-65057619D01*
X129375238Y-65010000D01*
X129280000Y-64914761D01*
X129232380Y-64771904D01*
X129232380Y-64676666D01*
X129280000Y-64533809D01*
X129327619Y-64486190D01*
X129946666Y-64105238D02*
X129946666Y-63629047D01*
X130232380Y-64200476D02*
X129232380Y-63867142D01*
X130232380Y-63533809D01*
X130232380Y-62629047D02*
X129756190Y-62962380D01*
X130232380Y-63200476D02*
X129232380Y-63200476D01*
X129232380Y-62819523D01*
X129280000Y-62724285D01*
X129327619Y-62676666D01*
X129422857Y-62629047D01*
X129565714Y-62629047D01*
X129660952Y-62676666D01*
X129708571Y-62724285D01*
X129756190Y-62819523D01*
X129756190Y-63200476D01*
X129708571Y-62200476D02*
X129708571Y-61867142D01*
X130232380Y-61724285D02*
X130232380Y-62200476D01*
X129232380Y-62200476D01*
X129232380Y-61724285D01*
X129708571Y-60962380D02*
X129708571Y-61295714D01*
X130232380Y-61295714D02*
X129232380Y-61295714D01*
X129232380Y-60819523D01*
X130232380Y-59914761D02*
X130232380Y-60486190D01*
X130232380Y-60200476D02*
X129232380Y-60200476D01*
X129375238Y-60295714D01*
X129470476Y-60390952D01*
X129518095Y-60486190D01*
X160377142Y-62825238D02*
X160424761Y-62872857D01*
X160472380Y-63015714D01*
X160472380Y-63110952D01*
X160424761Y-63253809D01*
X160329523Y-63349047D01*
X160234285Y-63396666D01*
X160043809Y-63444285D01*
X159900952Y-63444285D01*
X159710476Y-63396666D01*
X159615238Y-63349047D01*
X159520000Y-63253809D01*
X159472380Y-63110952D01*
X159472380Y-63015714D01*
X159520000Y-62872857D01*
X159567619Y-62825238D01*
X160186666Y-62444285D02*
X160186666Y-61968095D01*
X160472380Y-62539523D02*
X159472380Y-62206190D01*
X160472380Y-61872857D01*
X159472380Y-61110952D02*
X159472380Y-61301428D01*
X159520000Y-61396666D01*
X159567619Y-61444285D01*
X159710476Y-61539523D01*
X159900952Y-61587142D01*
X160281904Y-61587142D01*
X160377142Y-61539523D01*
X160424761Y-61491904D01*
X160472380Y-61396666D01*
X160472380Y-61206190D01*
X160424761Y-61110952D01*
X160377142Y-61063333D01*
X160281904Y-61015714D01*
X160043809Y-61015714D01*
X159948571Y-61063333D01*
X159900952Y-61110952D01*
X159853333Y-61206190D01*
X159853333Y-61396666D01*
X159900952Y-61491904D01*
X159948571Y-61539523D01*
X160043809Y-61587142D01*
X126261904Y-51252380D02*
X126261904Y-50252380D01*
X126500000Y-50252380D01*
X126642857Y-50300000D01*
X126738095Y-50395238D01*
X126785714Y-50490476D01*
X126833333Y-50680952D01*
X126833333Y-50823809D01*
X126785714Y-51014285D01*
X126738095Y-51109523D01*
X126642857Y-51204761D01*
X126500000Y-51252380D01*
X126261904Y-51252380D01*
X127214285Y-50347619D02*
X127261904Y-50300000D01*
X127357142Y-50252380D01*
X127595238Y-50252380D01*
X127690476Y-50300000D01*
X127738095Y-50347619D01*
X127785714Y-50442857D01*
X127785714Y-50538095D01*
X127738095Y-50680952D01*
X127166666Y-51252380D01*
X127785714Y-51252380D01*
X197358095Y-125792380D02*
X197358095Y-124792380D01*
X197358095Y-125268571D02*
X197929523Y-125268571D01*
X197929523Y-125792380D02*
X197929523Y-124792380D01*
X198310476Y-124792380D02*
X198929523Y-124792380D01*
X198596190Y-125173333D01*
X198739047Y-125173333D01*
X198834285Y-125220952D01*
X198881904Y-125268571D01*
X198929523Y-125363809D01*
X198929523Y-125601904D01*
X198881904Y-125697142D01*
X198834285Y-125744761D01*
X198739047Y-125792380D01*
X198453333Y-125792380D01*
X198358095Y-125744761D01*
X198310476Y-125697142D01*
X143096309Y-98147142D02*
X143048690Y-98194761D01*
X142905833Y-98242380D01*
X142810595Y-98242380D01*
X142667738Y-98194761D01*
X142572500Y-98099523D01*
X142524880Y-98004285D01*
X142477261Y-97813809D01*
X142477261Y-97670952D01*
X142524880Y-97480476D01*
X142572500Y-97385238D01*
X142667738Y-97290000D01*
X142810595Y-97242380D01*
X142905833Y-97242380D01*
X143048690Y-97290000D01*
X143096309Y-97337619D01*
X143286785Y-98337619D02*
X144048690Y-98337619D01*
X144239166Y-97337619D02*
X144286785Y-97290000D01*
X144382023Y-97242380D01*
X144620119Y-97242380D01*
X144715357Y-97290000D01*
X144762976Y-97337619D01*
X144810595Y-97432857D01*
X144810595Y-97528095D01*
X144762976Y-97670952D01*
X144191547Y-98242380D01*
X144810595Y-98242380D01*
X145715357Y-97242380D02*
X145239166Y-97242380D01*
X145191547Y-97718571D01*
X145239166Y-97670952D01*
X145334404Y-97623333D01*
X145572500Y-97623333D01*
X145667738Y-97670952D01*
X145715357Y-97718571D01*
X145762976Y-97813809D01*
X145762976Y-98051904D01*
X145715357Y-98147142D01*
X145667738Y-98194761D01*
X145572500Y-98242380D01*
X145334404Y-98242380D01*
X145239166Y-98194761D01*
X145191547Y-98147142D01*
X146667738Y-97242380D02*
X146191547Y-97242380D01*
X146143928Y-97718571D01*
X146191547Y-97670952D01*
X146286785Y-97623333D01*
X146524880Y-97623333D01*
X146620119Y-97670952D01*
X146667738Y-97718571D01*
X146715357Y-97813809D01*
X146715357Y-98051904D01*
X146667738Y-98147142D01*
X146620119Y-98194761D01*
X146524880Y-98242380D01*
X146286785Y-98242380D01*
X146191547Y-98194761D01*
X146143928Y-98147142D01*
X147667738Y-98242380D02*
X147096309Y-98242380D01*
X147382023Y-98242380D02*
X147382023Y-97242380D01*
X147286785Y-97385238D01*
X147191547Y-97480476D01*
X147096309Y-97528095D01*
X140057142Y-62825238D02*
X140104761Y-62872857D01*
X140152380Y-63015714D01*
X140152380Y-63110952D01*
X140104761Y-63253809D01*
X140009523Y-63349047D01*
X139914285Y-63396666D01*
X139723809Y-63444285D01*
X139580952Y-63444285D01*
X139390476Y-63396666D01*
X139295238Y-63349047D01*
X139200000Y-63253809D01*
X139152380Y-63110952D01*
X139152380Y-63015714D01*
X139200000Y-62872857D01*
X139247619Y-62825238D01*
X139866666Y-62444285D02*
X139866666Y-61968095D01*
X140152380Y-62539523D02*
X139152380Y-62206190D01*
X140152380Y-61872857D01*
X139247619Y-61587142D02*
X139200000Y-61539523D01*
X139152380Y-61444285D01*
X139152380Y-61206190D01*
X139200000Y-61110952D01*
X139247619Y-61063333D01*
X139342857Y-61015714D01*
X139438095Y-61015714D01*
X139580952Y-61063333D01*
X140152380Y-61634761D01*
X140152380Y-61015714D01*
X155392380Y-80692380D02*
X154916190Y-81025714D01*
X155392380Y-81263809D02*
X154392380Y-81263809D01*
X154392380Y-80882857D01*
X154440000Y-80787619D01*
X154487619Y-80740000D01*
X154582857Y-80692380D01*
X154725714Y-80692380D01*
X154820952Y-80740000D01*
X154868571Y-80787619D01*
X154916190Y-80882857D01*
X154916190Y-81263809D01*
X155487619Y-80501904D02*
X155487619Y-79740000D01*
X155344761Y-79549523D02*
X155392380Y-79406666D01*
X155392380Y-79168571D01*
X155344761Y-79073333D01*
X155297142Y-79025714D01*
X155201904Y-78978095D01*
X155106666Y-78978095D01*
X155011428Y-79025714D01*
X154963809Y-79073333D01*
X154916190Y-79168571D01*
X154868571Y-79359047D01*
X154820952Y-79454285D01*
X154773333Y-79501904D01*
X154678095Y-79549523D01*
X154582857Y-79549523D01*
X154487619Y-79501904D01*
X154440000Y-79454285D01*
X154392380Y-79359047D01*
X154392380Y-79120952D01*
X154440000Y-78978095D01*
X155392380Y-78549523D02*
X154392380Y-78549523D01*
X154392380Y-78311428D01*
X154440000Y-78168571D01*
X154535238Y-78073333D01*
X154630476Y-78025714D01*
X154820952Y-77978095D01*
X154963809Y-77978095D01*
X155154285Y-78025714D01*
X155249523Y-78073333D01*
X155344761Y-78168571D01*
X155392380Y-78311428D01*
X155392380Y-78549523D01*
X155106666Y-77597142D02*
X155106666Y-77120952D01*
X155392380Y-77692380D02*
X154392380Y-77359047D01*
X155392380Y-77025714D01*
X155392380Y-76168571D02*
X155392380Y-76740000D01*
X155392380Y-76454285D02*
X154392380Y-76454285D01*
X154535238Y-76549523D01*
X154630476Y-76644761D01*
X154678095Y-76740000D01*
X150217142Y-62825238D02*
X150264761Y-62872857D01*
X150312380Y-63015714D01*
X150312380Y-63110952D01*
X150264761Y-63253809D01*
X150169523Y-63349047D01*
X150074285Y-63396666D01*
X149883809Y-63444285D01*
X149740952Y-63444285D01*
X149550476Y-63396666D01*
X149455238Y-63349047D01*
X149360000Y-63253809D01*
X149312380Y-63110952D01*
X149312380Y-63015714D01*
X149360000Y-62872857D01*
X149407619Y-62825238D01*
X150026666Y-62444285D02*
X150026666Y-61968095D01*
X150312380Y-62539523D02*
X149312380Y-62206190D01*
X150312380Y-61872857D01*
X149645714Y-61110952D02*
X150312380Y-61110952D01*
X149264761Y-61349047D02*
X149979047Y-61587142D01*
X149979047Y-60968095D01*
X179125714Y-117582380D02*
X179125714Y-116582380D01*
X179363809Y-116582380D01*
X179506666Y-116630000D01*
X179601904Y-116725238D01*
X179649523Y-116820476D01*
X179697142Y-117010952D01*
X179697142Y-117153809D01*
X179649523Y-117344285D01*
X179601904Y-117439523D01*
X179506666Y-117534761D01*
X179363809Y-117582380D01*
X179125714Y-117582380D01*
X180078095Y-116677619D02*
X180125714Y-116630000D01*
X180220952Y-116582380D01*
X180459047Y-116582380D01*
X180554285Y-116630000D01*
X180601904Y-116677619D01*
X180649523Y-116772857D01*
X180649523Y-116868095D01*
X180601904Y-117010952D01*
X180030476Y-117582380D01*
X180649523Y-117582380D01*
X181030476Y-116677619D02*
X181078095Y-116630000D01*
X181173333Y-116582380D01*
X181411428Y-116582380D01*
X181506666Y-116630000D01*
X181554285Y-116677619D01*
X181601904Y-116772857D01*
X181601904Y-116868095D01*
X181554285Y-117010952D01*
X180982857Y-117582380D01*
X181601904Y-117582380D01*
X141375238Y-86812380D02*
X141375238Y-85812380D01*
X141756190Y-85812380D01*
X141851428Y-85860000D01*
X141899047Y-85907619D01*
X141946666Y-86002857D01*
X141946666Y-86145714D01*
X141899047Y-86240952D01*
X141851428Y-86288571D01*
X141756190Y-86336190D01*
X141375238Y-86336190D01*
X142803809Y-86812380D02*
X142803809Y-86288571D01*
X142756190Y-86193333D01*
X142660952Y-86145714D01*
X142470476Y-86145714D01*
X142375238Y-86193333D01*
X142803809Y-86764761D02*
X142708571Y-86812380D01*
X142470476Y-86812380D01*
X142375238Y-86764761D01*
X142327619Y-86669523D01*
X142327619Y-86574285D01*
X142375238Y-86479047D01*
X142470476Y-86431428D01*
X142708571Y-86431428D01*
X142803809Y-86383809D01*
X143708571Y-86812380D02*
X143708571Y-85812380D01*
X143708571Y-86764761D02*
X143613333Y-86812380D01*
X143422857Y-86812380D01*
X143327619Y-86764761D01*
X143280000Y-86717142D01*
X143232380Y-86621904D01*
X143232380Y-86336190D01*
X143280000Y-86240952D01*
X143327619Y-86193333D01*
X143422857Y-86145714D01*
X143613333Y-86145714D01*
X143708571Y-86193333D01*
X143946666Y-86907619D02*
X144708571Y-86907619D01*
X144899047Y-86764761D02*
X145041904Y-86812380D01*
X145280000Y-86812380D01*
X145375238Y-86764761D01*
X145422857Y-86717142D01*
X145470476Y-86621904D01*
X145470476Y-86526666D01*
X145422857Y-86431428D01*
X145375238Y-86383809D01*
X145280000Y-86336190D01*
X145089523Y-86288571D01*
X144994285Y-86240952D01*
X144946666Y-86193333D01*
X144899047Y-86098095D01*
X144899047Y-86002857D01*
X144946666Y-85907619D01*
X144994285Y-85860000D01*
X145089523Y-85812380D01*
X145327619Y-85812380D01*
X145470476Y-85860000D01*
X146470476Y-86717142D02*
X146422857Y-86764761D01*
X146280000Y-86812380D01*
X146184761Y-86812380D01*
X146041904Y-86764761D01*
X145946666Y-86669523D01*
X145899047Y-86574285D01*
X145851428Y-86383809D01*
X145851428Y-86240952D01*
X145899047Y-86050476D01*
X145946666Y-85955238D01*
X146041904Y-85860000D01*
X146184761Y-85812380D01*
X146280000Y-85812380D01*
X146422857Y-85860000D01*
X146470476Y-85907619D01*
X147375238Y-86812380D02*
X146899047Y-86812380D01*
X146899047Y-85812380D01*
X148232380Y-86812380D02*
X147660952Y-86812380D01*
X147946666Y-86812380D02*
X147946666Y-85812380D01*
X147851428Y-85955238D01*
X147756190Y-86050476D01*
X147660952Y-86098095D01*
X135009285Y-91892380D02*
X134675952Y-91416190D01*
X134437857Y-91892380D02*
X134437857Y-90892380D01*
X134818809Y-90892380D01*
X134914047Y-90940000D01*
X134961666Y-90987619D01*
X135009285Y-91082857D01*
X135009285Y-91225714D01*
X134961666Y-91320952D01*
X134914047Y-91368571D01*
X134818809Y-91416190D01*
X134437857Y-91416190D01*
X135199761Y-91987619D02*
X135961666Y-91987619D01*
X136675952Y-91892380D02*
X136199761Y-91892380D01*
X136199761Y-90892380D01*
X137009285Y-91368571D02*
X137342619Y-91368571D01*
X137485476Y-91892380D02*
X137009285Y-91892380D01*
X137009285Y-90892380D01*
X137485476Y-90892380D01*
X137914047Y-91892380D02*
X137914047Y-90892380D01*
X138152142Y-90892380D01*
X138295000Y-90940000D01*
X138390238Y-91035238D01*
X138437857Y-91130476D01*
X138485476Y-91320952D01*
X138485476Y-91463809D01*
X138437857Y-91654285D01*
X138390238Y-91749523D01*
X138295000Y-91844761D01*
X138152142Y-91892380D01*
X137914047Y-91892380D01*
X138675952Y-91987619D02*
X139437857Y-91987619D01*
X139675952Y-91892380D02*
X139675952Y-90892380D01*
X139914047Y-90892380D01*
X140056904Y-90940000D01*
X140152142Y-91035238D01*
X140199761Y-91130476D01*
X140247380Y-91320952D01*
X140247380Y-91463809D01*
X140199761Y-91654285D01*
X140152142Y-91749523D01*
X140056904Y-91844761D01*
X139914047Y-91892380D01*
X139675952Y-91892380D01*
X140723571Y-91892380D02*
X140914047Y-91892380D01*
X141009285Y-91844761D01*
X141056904Y-91797142D01*
X141152142Y-91654285D01*
X141199761Y-91463809D01*
X141199761Y-91082857D01*
X141152142Y-90987619D01*
X141104523Y-90940000D01*
X141009285Y-90892380D01*
X140818809Y-90892380D01*
X140723571Y-90940000D01*
X140675952Y-90987619D01*
X140628333Y-91082857D01*
X140628333Y-91320952D01*
X140675952Y-91416190D01*
X140723571Y-91463809D01*
X140818809Y-91511428D01*
X141009285Y-91511428D01*
X141104523Y-91463809D01*
X141152142Y-91416190D01*
X141199761Y-91320952D01*
X179125714Y-112502380D02*
X179125714Y-111502380D01*
X179363809Y-111502380D01*
X179506666Y-111550000D01*
X179601904Y-111645238D01*
X179649523Y-111740476D01*
X179697142Y-111930952D01*
X179697142Y-112073809D01*
X179649523Y-112264285D01*
X179601904Y-112359523D01*
X179506666Y-112454761D01*
X179363809Y-112502380D01*
X179125714Y-112502380D01*
X180078095Y-111597619D02*
X180125714Y-111550000D01*
X180220952Y-111502380D01*
X180459047Y-111502380D01*
X180554285Y-111550000D01*
X180601904Y-111597619D01*
X180649523Y-111692857D01*
X180649523Y-111788095D01*
X180601904Y-111930952D01*
X180030476Y-112502380D01*
X180649523Y-112502380D01*
X181554285Y-111502380D02*
X181078095Y-111502380D01*
X181030476Y-111978571D01*
X181078095Y-111930952D01*
X181173333Y-111883333D01*
X181411428Y-111883333D01*
X181506666Y-111930952D01*
X181554285Y-111978571D01*
X181601904Y-112073809D01*
X181601904Y-112311904D01*
X181554285Y-112407142D01*
X181506666Y-112454761D01*
X181411428Y-112502380D01*
X181173333Y-112502380D01*
X181078095Y-112454761D01*
X181030476Y-112407142D01*
X145137142Y-62825238D02*
X145184761Y-62872857D01*
X145232380Y-63015714D01*
X145232380Y-63110952D01*
X145184761Y-63253809D01*
X145089523Y-63349047D01*
X144994285Y-63396666D01*
X144803809Y-63444285D01*
X144660952Y-63444285D01*
X144470476Y-63396666D01*
X144375238Y-63349047D01*
X144280000Y-63253809D01*
X144232380Y-63110952D01*
X144232380Y-63015714D01*
X144280000Y-62872857D01*
X144327619Y-62825238D01*
X144946666Y-62444285D02*
X144946666Y-61968095D01*
X145232380Y-62539523D02*
X144232380Y-62206190D01*
X145232380Y-61872857D01*
X144232380Y-61634761D02*
X144232380Y-61015714D01*
X144613333Y-61349047D01*
X144613333Y-61206190D01*
X144660952Y-61110952D01*
X144708571Y-61063333D01*
X144803809Y-61015714D01*
X145041904Y-61015714D01*
X145137142Y-61063333D01*
X145184761Y-61110952D01*
X145232380Y-61206190D01*
X145232380Y-61491904D01*
X145184761Y-61587142D01*
X145137142Y-61634761D01*
X170777142Y-62825238D02*
X170824761Y-62872857D01*
X170872380Y-63015714D01*
X170872380Y-63110952D01*
X170824761Y-63253809D01*
X170729523Y-63349047D01*
X170634285Y-63396666D01*
X170443809Y-63444285D01*
X170300952Y-63444285D01*
X170110476Y-63396666D01*
X170015238Y-63349047D01*
X169920000Y-63253809D01*
X169872380Y-63110952D01*
X169872380Y-63015714D01*
X169920000Y-62872857D01*
X169967619Y-62825238D01*
X170586666Y-62444285D02*
X170586666Y-61968095D01*
X170872380Y-62539523D02*
X169872380Y-62206190D01*
X170872380Y-61872857D01*
X170300952Y-61396666D02*
X170253333Y-61491904D01*
X170205714Y-61539523D01*
X170110476Y-61587142D01*
X170062857Y-61587142D01*
X169967619Y-61539523D01*
X169920000Y-61491904D01*
X169872380Y-61396666D01*
X169872380Y-61206190D01*
X169920000Y-61110952D01*
X169967619Y-61063333D01*
X170062857Y-61015714D01*
X170110476Y-61015714D01*
X170205714Y-61063333D01*
X170253333Y-61110952D01*
X170300952Y-61206190D01*
X170300952Y-61396666D01*
X170348571Y-61491904D01*
X170396190Y-61539523D01*
X170491428Y-61587142D01*
X170681904Y-61587142D01*
X170777142Y-61539523D01*
X170824761Y-61491904D01*
X170872380Y-61396666D01*
X170872380Y-61206190D01*
X170824761Y-61110952D01*
X170777142Y-61063333D01*
X170681904Y-61015714D01*
X170491428Y-61015714D01*
X170396190Y-61063333D01*
X170348571Y-61110952D01*
X170300952Y-61206190D01*
X150312380Y-80668571D02*
X149836190Y-81001904D01*
X150312380Y-81240000D02*
X149312380Y-81240000D01*
X149312380Y-80859047D01*
X149360000Y-80763809D01*
X149407619Y-80716190D01*
X149502857Y-80668571D01*
X149645714Y-80668571D01*
X149740952Y-80716190D01*
X149788571Y-80763809D01*
X149836190Y-80859047D01*
X149836190Y-81240000D01*
X150407619Y-80478095D02*
X150407619Y-79716190D01*
X150264761Y-79525714D02*
X150312380Y-79382857D01*
X150312380Y-79144761D01*
X150264761Y-79049523D01*
X150217142Y-79001904D01*
X150121904Y-78954285D01*
X150026666Y-78954285D01*
X149931428Y-79001904D01*
X149883809Y-79049523D01*
X149836190Y-79144761D01*
X149788571Y-79335238D01*
X149740952Y-79430476D01*
X149693333Y-79478095D01*
X149598095Y-79525714D01*
X149502857Y-79525714D01*
X149407619Y-79478095D01*
X149360000Y-79430476D01*
X149312380Y-79335238D01*
X149312380Y-79097142D01*
X149360000Y-78954285D01*
X150217142Y-77954285D02*
X150264761Y-78001904D01*
X150312380Y-78144761D01*
X150312380Y-78240000D01*
X150264761Y-78382857D01*
X150169523Y-78478095D01*
X150074285Y-78525714D01*
X149883809Y-78573333D01*
X149740952Y-78573333D01*
X149550476Y-78525714D01*
X149455238Y-78478095D01*
X149360000Y-78382857D01*
X149312380Y-78240000D01*
X149312380Y-78144761D01*
X149360000Y-78001904D01*
X149407619Y-77954285D01*
X150312380Y-77049523D02*
X150312380Y-77525714D01*
X149312380Y-77525714D01*
X150312380Y-76192380D02*
X150312380Y-76763809D01*
X150312380Y-76478095D02*
X149312380Y-76478095D01*
X149455238Y-76573333D01*
X149550476Y-76668571D01*
X149598095Y-76763809D01*
X134977142Y-62825238D02*
X135024761Y-62872857D01*
X135072380Y-63015714D01*
X135072380Y-63110952D01*
X135024761Y-63253809D01*
X134929523Y-63349047D01*
X134834285Y-63396666D01*
X134643809Y-63444285D01*
X134500952Y-63444285D01*
X134310476Y-63396666D01*
X134215238Y-63349047D01*
X134120000Y-63253809D01*
X134072380Y-63110952D01*
X134072380Y-63015714D01*
X134120000Y-62872857D01*
X134167619Y-62825238D01*
X134786666Y-62444285D02*
X134786666Y-61968095D01*
X135072380Y-62539523D02*
X134072380Y-62206190D01*
X135072380Y-61872857D01*
X135072380Y-61015714D02*
X135072380Y-61587142D01*
X135072380Y-61301428D02*
X134072380Y-61301428D01*
X134215238Y-61396666D01*
X134310476Y-61491904D01*
X134358095Y-61587142D01*
X160472380Y-103600000D02*
X159996190Y-103933333D01*
X160472380Y-104171428D02*
X159472380Y-104171428D01*
X159472380Y-103790476D01*
X159520000Y-103695238D01*
X159567619Y-103647619D01*
X159662857Y-103600000D01*
X159805714Y-103600000D01*
X159900952Y-103647619D01*
X159948571Y-103695238D01*
X159996190Y-103790476D01*
X159996190Y-104171428D01*
X160424761Y-103219047D02*
X160472380Y-103076190D01*
X160472380Y-102838095D01*
X160424761Y-102742857D01*
X160377142Y-102695238D01*
X160281904Y-102647619D01*
X160186666Y-102647619D01*
X160091428Y-102695238D01*
X160043809Y-102742857D01*
X159996190Y-102838095D01*
X159948571Y-103028571D01*
X159900952Y-103123809D01*
X159853333Y-103171428D01*
X159758095Y-103219047D01*
X159662857Y-103219047D01*
X159567619Y-103171428D01*
X159520000Y-103123809D01*
X159472380Y-103028571D01*
X159472380Y-102790476D01*
X159520000Y-102647619D01*
X160567619Y-102457142D02*
X160567619Y-101695238D01*
X160472380Y-101457142D02*
X159472380Y-101457142D01*
X160472380Y-100885714D02*
X159900952Y-101314285D01*
X159472380Y-100885714D02*
X160043809Y-101457142D01*
X160472380Y-99933333D02*
X160472380Y-100504761D01*
X160472380Y-100219047D02*
X159472380Y-100219047D01*
X159615238Y-100314285D01*
X159710476Y-100409523D01*
X159758095Y-100504761D01*
X159472380Y-99314285D02*
X159472380Y-99219047D01*
X159520000Y-99123809D01*
X159567619Y-99076190D01*
X159662857Y-99028571D01*
X159853333Y-98980952D01*
X160091428Y-98980952D01*
X160281904Y-99028571D01*
X160377142Y-99076190D01*
X160424761Y-99123809D01*
X160472380Y-99219047D01*
X160472380Y-99314285D01*
X160424761Y-99409523D01*
X160377142Y-99457142D01*
X160281904Y-99504761D01*
X160091428Y-99552380D01*
X159853333Y-99552380D01*
X159662857Y-99504761D01*
X159567619Y-99457142D01*
X159520000Y-99409523D01*
X159472380Y-99314285D01*
X165697142Y-62825238D02*
X165744761Y-62872857D01*
X165792380Y-63015714D01*
X165792380Y-63110952D01*
X165744761Y-63253809D01*
X165649523Y-63349047D01*
X165554285Y-63396666D01*
X165363809Y-63444285D01*
X165220952Y-63444285D01*
X165030476Y-63396666D01*
X164935238Y-63349047D01*
X164840000Y-63253809D01*
X164792380Y-63110952D01*
X164792380Y-63015714D01*
X164840000Y-62872857D01*
X164887619Y-62825238D01*
X165506666Y-62444285D02*
X165506666Y-61968095D01*
X165792380Y-62539523D02*
X164792380Y-62206190D01*
X165792380Y-61872857D01*
X164792380Y-61634761D02*
X164792380Y-60968095D01*
X165792380Y-61396666D01*
X152362142Y-92940000D02*
X152409761Y-92987619D01*
X152457380Y-93130476D01*
X152457380Y-93225714D01*
X152409761Y-93368571D01*
X152314523Y-93463809D01*
X152219285Y-93511428D01*
X152028809Y-93559047D01*
X151885952Y-93559047D01*
X151695476Y-93511428D01*
X151600238Y-93463809D01*
X151505000Y-93368571D01*
X151457380Y-93225714D01*
X151457380Y-93130476D01*
X151505000Y-92987619D01*
X151552619Y-92940000D01*
X152552619Y-92749523D02*
X152552619Y-91987619D01*
X152457380Y-91225714D02*
X152457380Y-91797142D01*
X152457380Y-91511428D02*
X151457380Y-91511428D01*
X151600238Y-91606666D01*
X151695476Y-91701904D01*
X151743095Y-91797142D01*
X151457380Y-90606666D02*
X151457380Y-90511428D01*
X151505000Y-90416190D01*
X151552619Y-90368571D01*
X151647857Y-90320952D01*
X151838333Y-90273333D01*
X152076428Y-90273333D01*
X152266904Y-90320952D01*
X152362142Y-90368571D01*
X152409761Y-90416190D01*
X152457380Y-90511428D01*
X152457380Y-90606666D01*
X152409761Y-90701904D01*
X152362142Y-90749523D01*
X152266904Y-90797142D01*
X152076428Y-90844761D01*
X151838333Y-90844761D01*
X151647857Y-90797142D01*
X151552619Y-90749523D01*
X151505000Y-90701904D01*
X151457380Y-90606666D01*
X151457380Y-89654285D02*
X151457380Y-89559047D01*
X151505000Y-89463809D01*
X151552619Y-89416190D01*
X151647857Y-89368571D01*
X151838333Y-89320952D01*
X152076428Y-89320952D01*
X152266904Y-89368571D01*
X152362142Y-89416190D01*
X152409761Y-89463809D01*
X152457380Y-89559047D01*
X152457380Y-89654285D01*
X152409761Y-89749523D01*
X152362142Y-89797142D01*
X152266904Y-89844761D01*
X152076428Y-89892380D01*
X151838333Y-89892380D01*
X151647857Y-89844761D01*
X151552619Y-89797142D01*
X151505000Y-89749523D01*
X151457380Y-89654285D01*
X168092380Y-103504761D02*
X167616190Y-103838095D01*
X168092380Y-104076190D02*
X167092380Y-104076190D01*
X167092380Y-103695238D01*
X167140000Y-103600000D01*
X167187619Y-103552380D01*
X167282857Y-103504761D01*
X167425714Y-103504761D01*
X167520952Y-103552380D01*
X167568571Y-103600000D01*
X167616190Y-103695238D01*
X167616190Y-104076190D01*
X168187619Y-103314285D02*
X168187619Y-102552380D01*
X168092380Y-101742857D02*
X167616190Y-102076190D01*
X168092380Y-102314285D02*
X167092380Y-102314285D01*
X167092380Y-101933333D01*
X167140000Y-101838095D01*
X167187619Y-101790476D01*
X167282857Y-101742857D01*
X167425714Y-101742857D01*
X167520952Y-101790476D01*
X167568571Y-101838095D01*
X167616190Y-101933333D01*
X167616190Y-102314285D01*
X167092380Y-101409523D02*
X168092380Y-100742857D01*
X167092380Y-100742857D02*
X168092380Y-101409523D01*
X168187619Y-100600000D02*
X168187619Y-99838095D01*
X168092380Y-99076190D02*
X168092380Y-99647619D01*
X168092380Y-99361904D02*
X167092380Y-99361904D01*
X167235238Y-99457142D01*
X167330476Y-99552380D01*
X167378095Y-99647619D01*
D11*
X135600000Y-127620000D02*
X156501000Y-127620000D01*
X135360000Y-127860000D02*
X135860000Y-127860000D01*
X135600000Y-121760000D02*
X156501000Y-121760000D01*
X156501000Y-121300000D02*
X156501000Y-127620000D01*
X135600000Y-121300000D02*
X135600000Y-127620000D01*
X135600000Y-127060000D02*
X156501000Y-127060000D01*
X135600000Y-121300000D02*
X156501000Y-121300000D01*
X135360000Y-127120000D02*
X135360000Y-127860000D01*
G36*
X201575599Y-112181505D02*
G01*
X201543975Y-112394695D01*
X201491607Y-112603758D01*
X201419000Y-112806682D01*
X201326853Y-113001512D01*
X201216052Y-113186371D01*
X201087665Y-113359480D01*
X200942929Y-113519172D01*
X200783238Y-113663908D01*
X200610129Y-113792294D01*
X200425269Y-113903095D01*
X200230439Y-113995243D01*
X200027516Y-114067850D01*
X199818452Y-114120218D01*
X199605263Y-114151841D01*
X199390000Y-114162416D01*
X199174737Y-114151841D01*
X198961548Y-114120218D01*
X198752484Y-114067850D01*
X198549561Y-113995243D01*
X198354731Y-113903095D01*
X198169871Y-113792294D01*
X197996762Y-113663908D01*
X197837071Y-113519172D01*
X197692335Y-113359480D01*
X197563948Y-113186371D01*
X197453147Y-113001512D01*
X197361000Y-112806682D01*
X197288393Y-112603758D01*
X197236025Y-112394695D01*
X197204401Y-112181505D01*
X197193826Y-111966242D01*
X197193826Y-110115350D01*
X197996969Y-110115350D01*
X198022567Y-110394551D01*
X198099362Y-110651131D01*
X198225569Y-110879731D01*
X198399400Y-111074993D01*
X198619070Y-111233942D01*
X198882794Y-111353600D01*
X199188784Y-111428609D01*
X199535256Y-111453612D01*
X199883216Y-111433074D01*
X200188909Y-111371459D01*
X200452335Y-111268768D01*
X200673494Y-111125000D01*
X200895744Y-110873116D01*
X201029094Y-110555616D01*
X201073544Y-110172500D01*
X201057470Y-109912348D01*
X201009250Y-109684343D01*
X200868756Y-109348587D01*
X200406794Y-109496225D01*
X200511569Y-109736731D01*
X200563956Y-110115350D01*
X200496686Y-110455273D01*
X200294875Y-110684468D01*
X200089294Y-110781041D01*
X199831325Y-110838985D01*
X199520969Y-110858300D01*
X199254269Y-110842226D01*
X199035194Y-110794006D01*
X198723250Y-110627318D01*
X198556562Y-110393956D01*
X198506556Y-110124875D01*
X198556562Y-109770068D01*
X198678006Y-109505750D01*
X198211281Y-109353350D01*
X198154131Y-109450981D01*
X198082694Y-109610525D01*
X198023162Y-109831981D01*
X197996969Y-110115350D01*
X197193826Y-110115350D01*
X197193826Y-108319887D01*
X198063644Y-108319887D01*
X198389726Y-108420793D01*
X198725036Y-108523484D01*
X199069573Y-108627961D01*
X199423338Y-108734225D01*
X199716231Y-108819759D01*
X200021508Y-108904913D01*
X200339166Y-108989685D01*
X200669208Y-109074077D01*
X201011631Y-109158087D01*
X201011631Y-108548487D01*
X200330594Y-108415137D01*
X200330594Y-107629325D01*
X201011631Y-107491212D01*
X201011631Y-106862562D01*
X200677399Y-106941143D01*
X200352882Y-107020677D01*
X200038081Y-107101163D01*
X199732995Y-107182602D01*
X199437625Y-107264993D01*
X199079396Y-107368727D01*
X198730989Y-107472758D01*
X198392405Y-107577086D01*
X198063644Y-107681712D01*
X198063644Y-108319887D01*
X197193826Y-108319887D01*
X197193826Y-105186162D01*
X198063644Y-105186162D01*
X199878156Y-105186162D01*
X199692419Y-105270101D01*
X199478106Y-105369518D01*
X199245934Y-105481437D01*
X199006619Y-105602881D01*
X198763136Y-105730873D01*
X198518462Y-105862437D01*
X198282123Y-105995787D01*
X198063644Y-106129137D01*
X198063644Y-106600625D01*
X201011631Y-106600625D01*
X201011631Y-106071987D01*
X199054244Y-106071987D01*
X199381004Y-105894981D01*
X199707235Y-105725912D01*
X200032938Y-105564781D01*
X200358640Y-105411587D01*
X200684871Y-105266331D01*
X201011631Y-105129012D01*
X201011631Y-104657525D01*
X198063644Y-104657525D01*
X198063644Y-105186162D01*
X197193826Y-105186162D01*
X197193826Y-102390575D01*
X197706456Y-102390575D01*
X197806469Y-102976362D01*
X198825644Y-102976362D01*
X198751825Y-103176387D01*
X198725631Y-103409750D01*
X198760821Y-103680948D01*
X198866390Y-103903991D01*
X199042337Y-104078881D01*
X199279140Y-104204558D01*
X199567271Y-104279964D01*
X199906731Y-104305100D01*
X200240106Y-104275202D01*
X200522681Y-104185508D01*
X200754456Y-104036018D01*
X200926435Y-103828321D01*
X201029623Y-103564002D01*
X201064019Y-103243062D01*
X201055684Y-103016843D01*
X201030681Y-102785862D01*
X200992581Y-102570359D01*
X200944956Y-102390575D01*
X197706456Y-102390575D01*
X197193826Y-102390575D01*
X197193826Y-101776212D01*
X198773256Y-101776212D01*
X200021031Y-101776212D01*
X200240106Y-101766687D01*
X200440131Y-101738112D01*
X200771125Y-101597618D01*
X200987819Y-101319012D01*
X201044969Y-101117797D01*
X201064019Y-100866575D01*
X201053303Y-100605233D01*
X201021156Y-100364131D01*
X200978294Y-100150414D01*
X200935431Y-99971225D01*
X198773256Y-99971225D01*
X198773256Y-100561775D01*
X200530619Y-100561775D01*
X200554431Y-100828475D01*
X200404412Y-101116606D01*
X200214508Y-101171970D01*
X199944831Y-101190425D01*
X198773256Y-101190425D01*
X198773256Y-101776212D01*
X197193826Y-101776212D01*
X197193826Y-99504500D01*
X198773256Y-99504500D01*
X199259031Y-99504500D01*
X199259031Y-98885375D01*
X200082944Y-98885375D01*
X200303209Y-98875850D01*
X200497281Y-98847275D01*
X200804463Y-98716306D01*
X200997344Y-98468656D01*
X201047350Y-98295420D01*
X201064019Y-98085275D01*
X201033063Y-97792381D01*
X200916381Y-97451862D01*
X200444894Y-97528062D01*
X200533000Y-97785237D01*
X200554431Y-97980500D01*
X200456800Y-98225768D01*
X200159144Y-98299587D01*
X198773256Y-98299587D01*
X198773256Y-99504500D01*
X197193826Y-99504500D01*
X197193826Y-98694875D01*
X197754081Y-98694875D01*
X197854094Y-98954431D01*
X198130319Y-99061587D01*
X198401781Y-98954431D01*
X198501794Y-98694875D01*
X198401781Y-98432937D01*
X198130319Y-98323400D01*
X197854094Y-98432937D01*
X197754081Y-98694875D01*
X197193826Y-98694875D01*
X197193826Y-96104075D01*
X198725631Y-96104075D01*
X198735156Y-96365417D01*
X198763731Y-96606518D01*
X198803022Y-96819045D01*
X198844694Y-96994662D01*
X201011631Y-96994662D01*
X201011631Y-96408875D01*
X199254269Y-96408875D01*
X199239981Y-96273143D01*
X199235219Y-96142175D01*
X199373331Y-95851662D01*
X199555497Y-95798084D01*
X199825769Y-95780225D01*
X201011631Y-95780225D01*
X201011631Y-95194437D01*
X199749569Y-95194437D01*
X199531089Y-95205153D01*
X199332850Y-95237300D01*
X199009000Y-95382556D01*
X198799450Y-95661162D01*
X198744086Y-95859997D01*
X198725631Y-96104075D01*
X197193826Y-96104075D01*
X197193826Y-93718062D01*
X198716106Y-93718062D01*
X198736942Y-93938328D01*
X198799450Y-94141925D01*
X198900653Y-94323495D01*
X199037575Y-94477681D01*
X199207834Y-94602697D01*
X199409050Y-94696756D01*
X199637055Y-94755692D01*
X199887681Y-94775337D01*
X200141880Y-94756287D01*
X200371075Y-94699137D01*
X200572886Y-94606864D01*
X200744931Y-94482443D01*
X200884234Y-94328853D01*
X200987819Y-94149068D01*
X201052113Y-93944876D01*
X201073544Y-93718062D01*
X201052113Y-93491248D01*
X200987819Y-93287056D01*
X200884234Y-93107867D01*
X200744931Y-92956062D01*
X200572886Y-92833428D01*
X200371075Y-92741750D01*
X200141880Y-92684600D01*
X199887681Y-92665550D01*
X199637055Y-92684600D01*
X199409050Y-92741750D01*
X199207834Y-92834023D01*
X199037575Y-92958443D01*
X198900653Y-93112034D01*
X198799450Y-93291818D01*
X198736942Y-93494820D01*
X198716106Y-93718062D01*
X197193826Y-93718062D01*
X197193826Y-90932000D01*
X198063644Y-90932000D01*
X198063644Y-91332050D01*
X198249381Y-91536837D01*
X198420831Y-91789250D01*
X198568469Y-92055950D01*
X198678006Y-92303600D01*
X199163781Y-92113100D01*
X199047100Y-91822587D01*
X198878031Y-91517787D01*
X200525856Y-91517787D01*
X200525856Y-92136912D01*
X201011631Y-92136912D01*
X201011631Y-90346212D01*
X200525856Y-90346212D01*
X200525856Y-90932000D01*
X198063644Y-90932000D01*
X197193826Y-90932000D01*
X197193826Y-89007950D01*
X197996969Y-89007950D01*
X198020781Y-89256195D01*
X198092219Y-89505631D01*
X198213662Y-89740779D01*
X198387494Y-89946162D01*
X198797069Y-89655650D01*
X198573231Y-89355612D01*
X198506556Y-89065100D01*
X198604187Y-88788875D01*
X198882794Y-88679337D01*
X199135206Y-88767443D01*
X199392381Y-88991281D01*
X199528708Y-89131775D01*
X199670988Y-89281793D01*
X199822197Y-89431812D01*
X199985313Y-89572306D01*
X200162120Y-89696131D01*
X200354406Y-89796143D01*
X200563956Y-89862223D01*
X200792556Y-89884250D01*
X200892569Y-89886631D01*
X201011631Y-89874725D01*
X201011631Y-87950675D01*
X200525856Y-87950675D01*
X200525856Y-89217500D01*
X200368694Y-89167493D01*
X200199625Y-89046050D01*
X200037700Y-88893650D01*
X199901969Y-88750775D01*
X199663844Y-88507887D01*
X199406669Y-88293575D01*
X199132825Y-88141175D01*
X198839931Y-88084025D01*
X198470837Y-88160225D01*
X198206519Y-88365012D01*
X198049356Y-88660287D01*
X197996969Y-89007950D01*
X197193826Y-89007950D01*
X197193826Y-86569550D01*
X197992206Y-86569550D01*
X198012447Y-86814818D01*
X198073169Y-87017225D01*
X198277956Y-87307737D01*
X198556562Y-87467281D01*
X198854219Y-87517287D01*
X199197119Y-87441087D01*
X199354281Y-87331550D01*
X199501919Y-87155337D01*
X199665630Y-87349409D01*
X199851963Y-87483950D01*
X200056155Y-87562531D01*
X200273444Y-87588725D01*
X200609200Y-87517287D01*
X200861613Y-87314881D01*
X201018775Y-87000556D01*
X201059852Y-86807079D01*
X201073544Y-86593362D01*
X201054494Y-86330234D01*
X200997344Y-86112350D01*
X200804463Y-85795643D01*
X200540144Y-85619431D01*
X200249631Y-85564662D01*
X200035319Y-85592642D01*
X199840056Y-85676581D01*
X199661463Y-85828386D01*
X199497156Y-86059962D01*
X199347733Y-85874225D01*
X199166162Y-85745637D01*
X198966733Y-85670628D01*
X198763731Y-85645625D01*
X198447025Y-85708133D01*
X198201756Y-85895656D01*
X198044594Y-86189145D01*
X197992206Y-86569550D01*
X197193826Y-86569550D01*
X197193826Y-82469037D01*
X199501919Y-82469037D01*
X200078181Y-82469037D01*
X200078181Y-81164112D01*
X199501919Y-81164112D01*
X199501919Y-82469037D01*
X197193826Y-82469037D01*
X197193826Y-78178025D01*
X198773256Y-78178025D01*
X199104696Y-78076673D01*
X199422742Y-77972642D01*
X199727393Y-77865932D01*
X200018650Y-77756543D01*
X200381923Y-77609700D01*
X200712917Y-77464443D01*
X201011631Y-77320775D01*
X201011631Y-76830237D01*
X200712917Y-76684187D01*
X200381923Y-76531787D01*
X200018650Y-76373037D01*
X199727393Y-76254272D01*
X199422742Y-76140865D01*
X199104696Y-76032816D01*
X198773256Y-75930125D01*
X198773256Y-76525437D01*
X198960184Y-76574848D01*
X199159019Y-76637356D01*
X199364402Y-76707603D01*
X199570975Y-76780231D01*
X199775167Y-76854645D01*
X199973406Y-76930250D01*
X200330594Y-77068362D01*
X199973406Y-77199331D01*
X199775167Y-77267792D01*
X199570975Y-77335062D01*
X199364402Y-77399951D01*
X199159019Y-77461268D01*
X198960184Y-77516633D01*
X198773256Y-77563662D01*
X198773256Y-78178025D01*
X197193826Y-78178025D01*
X197193826Y-74796650D01*
X197996969Y-74796650D01*
X198018995Y-75049658D01*
X198085075Y-75275281D01*
X198258906Y-75615800D01*
X198687531Y-75406250D01*
X198551800Y-75122881D01*
X198497031Y-74791887D01*
X198589900Y-74522806D01*
X198844694Y-74425175D01*
X199025669Y-74470418D01*
X199139969Y-74587100D01*
X199201881Y-74749025D01*
X199220931Y-74930000D01*
X199220931Y-75149075D01*
X199706706Y-75149075D01*
X199706706Y-74968100D01*
X199729923Y-74707353D01*
X199799575Y-74496612D01*
X199927567Y-74357309D01*
X200125806Y-74310875D01*
X200444894Y-74432318D01*
X200541334Y-74598411D01*
X200573481Y-74853800D01*
X200560384Y-75079423D01*
X200521094Y-75270518D01*
X200421081Y-75553887D01*
X200911619Y-75668187D01*
X200964006Y-75520550D01*
X201016394Y-75313381D01*
X201056875Y-75080018D01*
X201073544Y-74849037D01*
X201056280Y-74574003D01*
X201004488Y-74339450D01*
X200921144Y-74144187D01*
X200809225Y-73987025D01*
X200511569Y-73782237D01*
X200135331Y-73715562D01*
X199896016Y-73747114D01*
X199692419Y-73841768D01*
X199529303Y-73993573D01*
X199411431Y-74196575D01*
X199163781Y-73929875D01*
X198825644Y-73829862D01*
X198497031Y-73887012D01*
X198232712Y-74063225D01*
X198058881Y-74365643D01*
X198012447Y-74565073D01*
X197996969Y-74796650D01*
X197193826Y-74796650D01*
X197193826Y-72286812D01*
X200216294Y-72286812D01*
X200244869Y-72448737D01*
X200325831Y-72584468D01*
X200456800Y-72679718D01*
X200635394Y-72715437D01*
X200818750Y-72679718D01*
X200952100Y-72584468D01*
X201035444Y-72448737D01*
X201064019Y-72286812D01*
X200954481Y-71991537D01*
X200635394Y-71862950D01*
X200325831Y-71991537D01*
X200216294Y-72286812D01*
X197193826Y-72286812D01*
X197193826Y-69910325D01*
X197996969Y-69910325D01*
X198039302Y-70212479D01*
X198166302Y-70464891D01*
X198377969Y-70667562D01*
X198592877Y-70784243D01*
X198856600Y-70867587D01*
X199169139Y-70917593D01*
X199530494Y-70934262D01*
X199896016Y-70917891D01*
X200211531Y-70868778D01*
X200477041Y-70786922D01*
X200692544Y-70672325D01*
X200904210Y-70471241D01*
X201031210Y-70217241D01*
X201073544Y-69910325D01*
X201031210Y-69603408D01*
X200904210Y-69349408D01*
X200692544Y-69148325D01*
X200477041Y-69033727D01*
X200211531Y-68951872D01*
X199896016Y-68902758D01*
X199530494Y-68886387D01*
X199167204Y-68902758D01*
X198853623Y-68951872D01*
X198589751Y-69033727D01*
X198375588Y-69148325D01*
X198165244Y-69349408D01*
X198039037Y-69603408D01*
X197996969Y-69910325D01*
X197193826Y-69910325D01*
X197193826Y-68373757D01*
X197204401Y-68158494D01*
X197236025Y-67945305D01*
X197288393Y-67736241D01*
X197361000Y-67533318D01*
X197453148Y-67338488D01*
X197563948Y-67153628D01*
X197692335Y-66980519D01*
X197837071Y-66820828D01*
X197996762Y-66676092D01*
X198169871Y-66547706D01*
X198354731Y-66436905D01*
X198549561Y-66344757D01*
X198752484Y-66272150D01*
X198961548Y-66219782D01*
X199174737Y-66188159D01*
X199390000Y-66177584D01*
X199605263Y-66188159D01*
X199818452Y-66219782D01*
X200027516Y-66272150D01*
X200230439Y-66344757D01*
X200425269Y-66436905D01*
X200610129Y-66547706D01*
X200783238Y-66676092D01*
X200942929Y-66820828D01*
X201087665Y-66980519D01*
X201216052Y-67153628D01*
X201326852Y-67338488D01*
X201419000Y-67533318D01*
X201491607Y-67736241D01*
X201543975Y-67945305D01*
X201575599Y-68158494D01*
X201586174Y-68373757D01*
X201586174Y-111966242D01*
X201575599Y-112181505D01*
G37*
G36*
X200100935Y-69471116D02*
G01*
X200304400Y-69541231D01*
X200502639Y-69696608D01*
X200568719Y-69910325D01*
X200502639Y-70121065D01*
X200304400Y-70277037D01*
X200100935Y-70348475D01*
X199842967Y-70391337D01*
X199530494Y-70405625D01*
X199220667Y-70391337D01*
X198964285Y-70348475D01*
X198761350Y-70277037D01*
X198563111Y-70121065D01*
X198497031Y-69910325D01*
X198498504Y-69905562D01*
X199163781Y-69905562D01*
X199259031Y-70100825D01*
X199482869Y-70172262D01*
X199704325Y-70100825D01*
X199797194Y-69905562D01*
X199704325Y-69717443D01*
X199482869Y-69643625D01*
X199259031Y-69717443D01*
X199163781Y-69905562D01*
X198498504Y-69905562D01*
X198563111Y-69696608D01*
X198761350Y-69541231D01*
X198964285Y-69471116D01*
X199220667Y-69429048D01*
X199530494Y-69415025D01*
X199842967Y-69429048D01*
X200100935Y-69471116D01*
G37*
G36*
X200163906Y-93294795D02*
G01*
X200378219Y-93382306D01*
X200517522Y-93526967D01*
X200563956Y-93727587D01*
X200517522Y-93932970D01*
X200378219Y-94072868D01*
X200163906Y-94153236D01*
X199892444Y-94180025D01*
X199621577Y-94150854D01*
X199409050Y-94063343D01*
X199271533Y-93918683D01*
X199225694Y-93718062D01*
X199271533Y-93512679D01*
X199409050Y-93372781D01*
X199621577Y-93292414D01*
X199892444Y-93265625D01*
X200163906Y-93294795D01*
G37*
G36*
X200554431Y-103104950D02*
G01*
X200559194Y-103238300D01*
X200511569Y-103452017D01*
X200368694Y-103597868D01*
X200150809Y-103681808D01*
X199878156Y-103709787D01*
X199600741Y-103685975D01*
X199397144Y-103614537D01*
X199272128Y-103490712D01*
X199230456Y-103309737D01*
X199256650Y-103128762D01*
X199320944Y-102976362D01*
X200540144Y-102976362D01*
X200554431Y-103104950D01*
G37*
G36*
X199844819Y-108305600D02*
G01*
X199540019Y-108246068D01*
X199247125Y-108179393D01*
X198951850Y-108103193D01*
X198635144Y-108015087D01*
X198951850Y-107926981D01*
X199247125Y-107850781D01*
X199540019Y-107786487D01*
X199844819Y-107729337D01*
X199844819Y-108305600D01*
G37*
G36*
X200485375Y-86243318D02*
G01*
X200587769Y-86583837D01*
X200490138Y-86905306D01*
X200202006Y-87041037D01*
X199942450Y-86969600D01*
X199697181Y-86764812D01*
X199823388Y-86469537D01*
X199942450Y-86267131D01*
X200073419Y-86152831D01*
X200240106Y-86117112D01*
X200485375Y-86243318D01*
G37*
G36*
X199066150Y-86259987D02*
G01*
X199306656Y-86469537D01*
X199194737Y-86704090D01*
X199087581Y-86855300D01*
X198816119Y-86964837D01*
X198563706Y-86848156D01*
X198477981Y-86579075D01*
X198561325Y-86309993D01*
X198811356Y-86198075D01*
X199066150Y-86259987D01*
G37*
X156120000Y-63221252D02*
X156120000Y-61798748D01*
X158840000Y-63221252D02*
X158840000Y-61798748D01*
X191770000Y-46400000D02*
X194770000Y-46400000D01*
X191770000Y-47400000D02*
X191770000Y-46400000D01*
X196120000Y-128270000D02*
X196800000Y-128570000D01*
X195930000Y-136510000D02*
X187610000Y-136510000D01*
X187610000Y-136510000D02*
X187610000Y-41290000D01*
X194770000Y-46400000D02*
X194770000Y-131401000D01*
X194770000Y-131401000D02*
X191770000Y-131401000D01*
X195930000Y-41290000D02*
X195930000Y-136510000D01*
X188770000Y-47400000D02*
X191770000Y-47400000D01*
X196800000Y-127970000D02*
X196120000Y-128270000D01*
X191770000Y-130401000D02*
X188770000Y-130401000D01*
X188770000Y-130401000D02*
X188770000Y-47400000D01*
X196800000Y-128570000D02*
X196800000Y-127970000D01*
X191770000Y-131401000D02*
X191770000Y-130401000D01*
X187610000Y-41290000D02*
X195930000Y-41290000D01*
X171135000Y-126920000D02*
X174305000Y-126920000D01*
X174305000Y-126920000D02*
X174305000Y-122860000D01*
X171135000Y-122860000D02*
X171135000Y-126920000D01*
X153940000Y-86490000D02*
X153940000Y-83690000D01*
X153940000Y-83690000D02*
X155940000Y-83690000D01*
X155940000Y-86490000D02*
X153940000Y-86490000D01*
X155940000Y-83690000D02*
X155940000Y-86490000D01*
X165185000Y-107226263D02*
X165185000Y-108673737D01*
X162475000Y-107226263D02*
X162475000Y-108673737D01*
G36*
X137316369Y-129824383D02*
G01*
X137436225Y-129838670D01*
X137519569Y-129862483D01*
X137592792Y-129918442D01*
X137617200Y-130000595D01*
X137592792Y-130082749D01*
X137519569Y-130138708D01*
X137436225Y-130162520D01*
X137316369Y-130176808D01*
X137160000Y-130181570D01*
X137003631Y-130176808D01*
X136883775Y-130162520D01*
X136800431Y-130138708D01*
X136727208Y-130082749D01*
X136702800Y-130000595D01*
X136727208Y-129918442D01*
X136800431Y-129862483D01*
X136883775Y-129838670D01*
X137003631Y-129824383D01*
X137160000Y-129819620D01*
X137316369Y-129824383D01*
G37*
G36*
X137074077Y-130642541D02*
G01*
X137154444Y-130677664D01*
X137199092Y-130737394D01*
X137213975Y-130822920D01*
X137202863Y-130914995D01*
X136715500Y-130914995D01*
X136702800Y-130822920D01*
X136717484Y-130737394D01*
X136761537Y-130677664D01*
X136838531Y-130642541D01*
X136952037Y-130630833D01*
X137074077Y-130642541D01*
G37*
G36*
X136052057Y-129138715D02*
G01*
X137160000Y-128400087D01*
X138267943Y-129138715D01*
X138267943Y-133219913D01*
X136052057Y-133219913D01*
X136052057Y-132310408D01*
X136564687Y-132310408D01*
X136573741Y-132403426D01*
X136600902Y-132484041D01*
X136646171Y-132552254D01*
X136709547Y-132608064D01*
X136791030Y-132651472D01*
X136890621Y-132682478D01*
X137008319Y-132701082D01*
X137144125Y-132707283D01*
X137287372Y-132701007D01*
X137411520Y-132682181D01*
X137516567Y-132650803D01*
X137602516Y-132606874D01*
X137669364Y-132550393D01*
X137717113Y-132481362D01*
X137745763Y-132399779D01*
X137755313Y-132305645D01*
X137745391Y-132199680D01*
X137715625Y-132104033D01*
X137569575Y-132104033D01*
X137606484Y-132194520D01*
X137618788Y-132278658D01*
X137605602Y-132356269D01*
X137566047Y-132419769D01*
X137500122Y-132469158D01*
X137407826Y-132504436D01*
X137289161Y-132525602D01*
X137144125Y-132532658D01*
X137009761Y-132526264D01*
X136899826Y-132507082D01*
X136814322Y-132475111D01*
X136753247Y-132430352D01*
X136716602Y-132372806D01*
X136704387Y-132302470D01*
X136710737Y-132265958D01*
X136958387Y-132265958D01*
X136958387Y-132096095D01*
X136599612Y-132096095D01*
X136573419Y-132197299D01*
X136564687Y-132310408D01*
X136052057Y-132310408D01*
X136052057Y-131857970D01*
X136580562Y-131857970D01*
X136718675Y-131857970D01*
X136718675Y-131680170D01*
X137601325Y-131680170D01*
X137601325Y-131857970D01*
X137739438Y-131857970D01*
X137739438Y-131318220D01*
X137601325Y-131318220D01*
X137601325Y-131496020D01*
X136718675Y-131496020D01*
X136718675Y-131318220D01*
X136580562Y-131318220D01*
X136580562Y-131857970D01*
X136052057Y-131857970D01*
X136052057Y-130822920D01*
X136564687Y-130822920D01*
X136568215Y-130914290D01*
X136578799Y-131004248D01*
X136596437Y-131092795D01*
X137739438Y-131092795D01*
X137739438Y-130914995D01*
X137342563Y-130914995D01*
X137350500Y-130822920D01*
X137339917Y-130709767D01*
X137308167Y-130617957D01*
X137255250Y-130547489D01*
X137179226Y-130497659D01*
X137078156Y-130467761D01*
X136952037Y-130457795D01*
X136828124Y-130467497D01*
X136729435Y-130496601D01*
X136655969Y-130545108D01*
X136605257Y-130614782D01*
X136574830Y-130707386D01*
X136564687Y-130822920D01*
X136052057Y-130822920D01*
X136052057Y-130000595D01*
X136564687Y-130000595D01*
X136578181Y-130110927D01*
X136618662Y-130197445D01*
X136692084Y-130263128D01*
X136804400Y-130310952D01*
X136902472Y-130332559D01*
X137021006Y-130345524D01*
X137160000Y-130349845D01*
X137298994Y-130345524D01*
X137417528Y-130332559D01*
X137515600Y-130310952D01*
X137627916Y-130263128D01*
X137701338Y-130197445D01*
X137741819Y-130110927D01*
X137755313Y-130000595D01*
X137741819Y-129890264D01*
X137701338Y-129803745D01*
X137627916Y-129738063D01*
X137515600Y-129690239D01*
X137417528Y-129668632D01*
X137298994Y-129655667D01*
X137160000Y-129651345D01*
X137021006Y-129655667D01*
X136902472Y-129668632D01*
X136804400Y-129690239D01*
X136692084Y-129738063D01*
X136618662Y-129803745D01*
X136578181Y-129890264D01*
X136564687Y-130000595D01*
X136052057Y-130000595D01*
X136052057Y-129138715D01*
G37*
X130720000Y-63221252D02*
X130720000Y-61798748D01*
X133440000Y-63221252D02*
X133440000Y-61798748D01*
X163920000Y-63221252D02*
X163920000Y-61798748D01*
X161200000Y-63221252D02*
X161200000Y-61798748D01*
G36*
X149860000Y-128689585D02*
G01*
X150967943Y-129428214D01*
X150967943Y-133461786D01*
X149860000Y-134200415D01*
X148752057Y-133461786D01*
X148752057Y-132552281D01*
X149264687Y-132552281D01*
X149273741Y-132645299D01*
X149300902Y-132725914D01*
X149346171Y-132794127D01*
X149409547Y-132849938D01*
X149491030Y-132893346D01*
X149590621Y-132924352D01*
X149708319Y-132942955D01*
X149844125Y-132949156D01*
X149987372Y-132942881D01*
X150111520Y-132924054D01*
X150216567Y-132892676D01*
X150302516Y-132848747D01*
X150369364Y-132792267D01*
X150417113Y-132723235D01*
X150445763Y-132641653D01*
X150455313Y-132547519D01*
X150445391Y-132441553D01*
X150415625Y-132345906D01*
X150269575Y-132345906D01*
X150306484Y-132436394D01*
X150318788Y-132520531D01*
X150305602Y-132598142D01*
X150266047Y-132661642D01*
X150200122Y-132711031D01*
X150107826Y-132746309D01*
X149989161Y-132767476D01*
X149844125Y-132774531D01*
X149709761Y-132768137D01*
X149599826Y-132748955D01*
X149514322Y-132716984D01*
X149453247Y-132672226D01*
X149416602Y-132614679D01*
X149404387Y-132544344D01*
X149410737Y-132507831D01*
X149658387Y-132507831D01*
X149658387Y-132337969D01*
X149299612Y-132337969D01*
X149273419Y-132439172D01*
X149264687Y-132552281D01*
X148752057Y-132552281D01*
X148752057Y-131934744D01*
X149280562Y-131934744D01*
X150439438Y-132207794D01*
X150439438Y-132029994D01*
X150134638Y-131969669D01*
X150134638Y-131698206D01*
X150439438Y-131637881D01*
X150439438Y-131453731D01*
X149280562Y-131728369D01*
X149280562Y-131934744D01*
X148752057Y-131934744D01*
X148752057Y-131337844D01*
X149280562Y-131337844D01*
X150439438Y-131337844D01*
X150439438Y-131163219D01*
X149598062Y-131163219D01*
X149598062Y-131160044D01*
X150439438Y-130912394D01*
X150439438Y-130734594D01*
X149280562Y-130734594D01*
X149280562Y-130901281D01*
X150121938Y-130901281D01*
X150121938Y-130906044D01*
X149280562Y-131153694D01*
X149280562Y-131337844D01*
X148752057Y-131337844D01*
X148752057Y-130488531D01*
X149280562Y-130488531D01*
X150439438Y-130488531D01*
X150439438Y-129940844D01*
X150301325Y-129940844D01*
X150301325Y-130310731D01*
X149280562Y-130310731D01*
X149280562Y-130488531D01*
X148752057Y-130488531D01*
X148752057Y-129428214D01*
X149860000Y-128689585D01*
G37*
G36*
X149999700Y-131942681D02*
G01*
X149455187Y-131834731D01*
X149455187Y-131833144D01*
X149999700Y-131725194D01*
X149999700Y-131942681D01*
G37*
X133604000Y-112776000D02*
X173736000Y-112776000D01*
X173736000Y-112776000D02*
X173736000Y-115824000D01*
X173736000Y-115824000D02*
X133604000Y-115824000D01*
X133604000Y-115824000D02*
X133604000Y-112776000D01*
X176784000Y-112776000D02*
X173736000Y-112776000D01*
X173736000Y-112776000D02*
X173736000Y-72644000D01*
X173736000Y-72644000D02*
X176784000Y-72644000D01*
X176784000Y-72644000D02*
X176784000Y-112776000D01*
X133604000Y-72644000D02*
X135636000Y-72644000D01*
X135636000Y-72644000D02*
X135636000Y-77216000D01*
X135636000Y-77216000D02*
X133604000Y-77216000D01*
X133604000Y-77216000D02*
X133604000Y-72644000D01*
X130556000Y-72644000D02*
X133604000Y-72644000D01*
X133604000Y-72644000D02*
X133604000Y-112776000D01*
X133604000Y-112776000D02*
X130556000Y-112776000D01*
X130556000Y-112776000D02*
X130556000Y-72644000D01*
X173736000Y-72644000D02*
X133604000Y-72644000D01*
X133604000Y-72644000D02*
X133604000Y-69596000D01*
X133604000Y-69596000D02*
X173736000Y-69596000D01*
X173736000Y-69596000D02*
X173736000Y-72644000D01*
G36*
X167786226Y-131079169D02*
G01*
X167910581Y-131098484D01*
X167997188Y-131130675D01*
X168073388Y-131206280D01*
X168098788Y-131317206D01*
X168084500Y-131388644D01*
X167197087Y-131388644D01*
X167182800Y-131317206D01*
X167207406Y-131207272D01*
X167281225Y-131131469D01*
X167363069Y-131098837D01*
X167477369Y-131079258D01*
X167624125Y-131072731D01*
X167786226Y-131079169D01*
G37*
G36*
X168747943Y-127356923D02*
G01*
X168747943Y-133598311D01*
X166532057Y-134263077D01*
X166532057Y-133085681D01*
X167060562Y-133085681D01*
X168219438Y-133085681D01*
X168219438Y-132537994D01*
X168081325Y-132537994D01*
X168081325Y-132907881D01*
X167060562Y-132907881D01*
X167060562Y-133085681D01*
X166532057Y-133085681D01*
X166532057Y-132320506D01*
X167060562Y-132320506D01*
X168219438Y-132320506D01*
X168219438Y-131764881D01*
X168081325Y-131764881D01*
X168081325Y-132142706D01*
X167663813Y-132142706D01*
X167663813Y-131780756D01*
X167528875Y-131780756D01*
X167528875Y-132142706D01*
X167198675Y-132142706D01*
X167198675Y-131764881D01*
X167060562Y-131764881D01*
X167060562Y-132320506D01*
X166532057Y-132320506D01*
X166532057Y-131317206D01*
X167044687Y-131317206D01*
X167052625Y-131442222D01*
X167076437Y-131566444D01*
X168203563Y-131566444D01*
X168227375Y-131446984D01*
X168235313Y-131317206D01*
X168221620Y-131185444D01*
X168180544Y-131082256D01*
X168105733Y-131003873D01*
X167990838Y-130946525D01*
X167890119Y-130920508D01*
X167767882Y-130904897D01*
X167624125Y-130899694D01*
X167475743Y-130905796D01*
X167351273Y-130924102D01*
X167250715Y-130954611D01*
X167174069Y-130997325D01*
X167102190Y-131076259D01*
X167059063Y-131182886D01*
X167044687Y-131317206D01*
X166532057Y-131317206D01*
X166532057Y-129990056D01*
X167060562Y-129990056D01*
X167198675Y-129990056D01*
X167198675Y-129753519D01*
X168219438Y-129753519D01*
X168219438Y-129575719D01*
X167198675Y-129575719D01*
X167198675Y-129339181D01*
X167060562Y-129339181D01*
X167060562Y-129990056D01*
X166532057Y-129990056D01*
X166532057Y-129204244D01*
X167060562Y-129204244D01*
X167628887Y-128981994D01*
X168219438Y-129209006D01*
X168219438Y-129021681D01*
X167755888Y-128877219D01*
X167755888Y-128874044D01*
X168219438Y-128727994D01*
X168219438Y-128534319D01*
X167628887Y-128759744D01*
X167060562Y-128537494D01*
X167060562Y-128721644D01*
X167505062Y-128867694D01*
X167505062Y-128870869D01*
X167060562Y-129015331D01*
X167060562Y-129204244D01*
X166532057Y-129204244D01*
X166532057Y-128021689D01*
X168747943Y-127356923D01*
G37*
G36*
X147459700Y-131950619D02*
G01*
X146915187Y-131842669D01*
X146915187Y-131841081D01*
X147459700Y-131733131D01*
X147459700Y-131950619D01*
G37*
G36*
X147320000Y-128681648D02*
G01*
X148427943Y-129420276D01*
X148427943Y-133469724D01*
X147320000Y-134208352D01*
X146212057Y-133469724D01*
X146212057Y-132560219D01*
X146724687Y-132560219D01*
X146733741Y-132653236D01*
X146760902Y-132733852D01*
X146806171Y-132802064D01*
X146869547Y-132857875D01*
X146951030Y-132901283D01*
X147050621Y-132932289D01*
X147168319Y-132950893D01*
X147304125Y-132957094D01*
X147447372Y-132950818D01*
X147571520Y-132931991D01*
X147676567Y-132900613D01*
X147762516Y-132856684D01*
X147829364Y-132800204D01*
X147877113Y-132731173D01*
X147905763Y-132649590D01*
X147915313Y-132555456D01*
X147905391Y-132449491D01*
X147875625Y-132353844D01*
X147729575Y-132353844D01*
X147766484Y-132444331D01*
X147778788Y-132528469D01*
X147765602Y-132606080D01*
X147726047Y-132669580D01*
X147660122Y-132718969D01*
X147567826Y-132754247D01*
X147449161Y-132775413D01*
X147304125Y-132782469D01*
X147169761Y-132776075D01*
X147059826Y-132756892D01*
X146974322Y-132724922D01*
X146913247Y-132680163D01*
X146876602Y-132622616D01*
X146864387Y-132552281D01*
X146870737Y-132515769D01*
X147118387Y-132515769D01*
X147118387Y-132345906D01*
X146759612Y-132345906D01*
X146733419Y-132447109D01*
X146724687Y-132560219D01*
X146212057Y-132560219D01*
X146212057Y-131942681D01*
X146740562Y-131942681D01*
X147899438Y-132215731D01*
X147899438Y-132037931D01*
X147594638Y-131977606D01*
X147594638Y-131706144D01*
X147899438Y-131645819D01*
X147899438Y-131461669D01*
X146740562Y-131736306D01*
X146740562Y-131942681D01*
X146212057Y-131942681D01*
X146212057Y-131345781D01*
X146740562Y-131345781D01*
X147899438Y-131345781D01*
X147899438Y-131171156D01*
X147058062Y-131171156D01*
X147058062Y-131167981D01*
X147899438Y-130920331D01*
X147899438Y-130742531D01*
X146740562Y-130742531D01*
X146740562Y-130909219D01*
X147581938Y-130909219D01*
X147581938Y-130913981D01*
X146740562Y-131161631D01*
X146740562Y-131345781D01*
X146212057Y-131345781D01*
X146212057Y-129932906D01*
X146740562Y-129932906D01*
X146740562Y-130112294D01*
X147208875Y-130112294D01*
X147208875Y-130394869D01*
X146740562Y-130394869D01*
X146740562Y-130567906D01*
X147899438Y-130567906D01*
X147899438Y-130394869D01*
X147343813Y-130394869D01*
X147343813Y-130112294D01*
X147899438Y-130112294D01*
X147899438Y-129932906D01*
X146740562Y-129932906D01*
X146212057Y-129932906D01*
X146212057Y-129420276D01*
X147320000Y-128681648D01*
G37*
X158570000Y-96440000D02*
X158570000Y-91440000D01*
X171630000Y-94440000D02*
X171630000Y-88440000D01*
X151841252Y-96430000D02*
X150418748Y-96430000D01*
X151841252Y-99150000D02*
X150418748Y-99150000D01*
X140880000Y-63221252D02*
X140880000Y-61798748D01*
X143600000Y-63221252D02*
X143600000Y-61798748D01*
X156125000Y-79463737D02*
X156125000Y-78016263D01*
X158835000Y-79463737D02*
X158835000Y-78016263D01*
G36*
X142240000Y-133985154D02*
G01*
X141132057Y-133246526D01*
X141132057Y-132452776D01*
X141660562Y-132452776D01*
X142266988Y-132141626D01*
X142819438Y-132444838D01*
X142819438Y-132254338D01*
X142311438Y-131982876D01*
X142311438Y-131979701D01*
X142819438Y-131979701D01*
X142819438Y-131801901D01*
X141660562Y-131801901D01*
X141660562Y-131979701D01*
X142216187Y-131979701D01*
X142216187Y-131982876D01*
X141660562Y-132260688D01*
X141660562Y-132452776D01*
X141132057Y-132452776D01*
X141132057Y-131608226D01*
X141660562Y-131608226D01*
X141798675Y-131608226D01*
X141798675Y-131238338D01*
X142819438Y-131238338D01*
X142819438Y-131060538D01*
X141660562Y-131060538D01*
X141660562Y-131608226D01*
X141132057Y-131608226D01*
X141132057Y-130589051D01*
X141644687Y-130589051D01*
X141654609Y-130695016D01*
X141684375Y-130790663D01*
X141830425Y-130790663D01*
X141793516Y-130700176D01*
X141781212Y-130616038D01*
X141794398Y-130538427D01*
X141833953Y-130474927D01*
X141899878Y-130425538D01*
X141992174Y-130390261D01*
X142110839Y-130369094D01*
X142255875Y-130362038D01*
X142390239Y-130368432D01*
X142500174Y-130387615D01*
X142585678Y-130419585D01*
X142646753Y-130464344D01*
X142683398Y-130521891D01*
X142695613Y-130592226D01*
X142689263Y-130628738D01*
X142441613Y-130628738D01*
X142441613Y-130798601D01*
X142800388Y-130798601D01*
X142826581Y-130697398D01*
X142835313Y-130584288D01*
X142826259Y-130491271D01*
X142799098Y-130410656D01*
X142753829Y-130342443D01*
X142690453Y-130286632D01*
X142608970Y-130243224D01*
X142509379Y-130212218D01*
X142391681Y-130193615D01*
X142255875Y-130187413D01*
X142112628Y-130193689D01*
X141988480Y-130212516D01*
X141883433Y-130243894D01*
X141797484Y-130287823D01*
X141730636Y-130344303D01*
X141682887Y-130413334D01*
X141654237Y-130494917D01*
X141644687Y-130589051D01*
X141132057Y-130589051D01*
X141132057Y-129695288D01*
X141644687Y-129695288D01*
X141657387Y-129818161D01*
X141695487Y-129913728D01*
X141758987Y-129981991D01*
X141847887Y-130022948D01*
X141962187Y-130036601D01*
X142084822Y-130019535D01*
X142182850Y-129968338D01*
X142239471Y-129910306D01*
X142295033Y-129827227D01*
X142349538Y-129719101D01*
X142396986Y-129648545D01*
X142461015Y-129606212D01*
X142541625Y-129592101D01*
X142606713Y-129603213D01*
X142655925Y-129636551D01*
X142686881Y-129689335D01*
X142697200Y-129758788D01*
X142680134Y-129882216D01*
X142628938Y-130004851D01*
X142787688Y-130004851D01*
X142814146Y-129919479D01*
X142830021Y-129830579D01*
X142835313Y-129738151D01*
X142826493Y-129643342D01*
X142800035Y-129564231D01*
X142755938Y-129500820D01*
X142660688Y-129438312D01*
X142533688Y-129417476D01*
X142420975Y-129433946D01*
X142327313Y-129483357D01*
X142272279Y-129537949D01*
X142219362Y-129613885D01*
X142168562Y-129711163D01*
X142127684Y-129779227D01*
X142081250Y-129824670D01*
X142024894Y-129850268D01*
X141954250Y-129858801D01*
X141880233Y-129847688D01*
X141826456Y-129814351D01*
X141793714Y-129761170D01*
X141782800Y-129690526D01*
X141794265Y-129597569D01*
X141828661Y-129509198D01*
X141885987Y-129425413D01*
X141720887Y-129425413D01*
X141678554Y-129506905D01*
X141653154Y-129596863D01*
X141644687Y-129695288D01*
X141132057Y-129695288D01*
X141132057Y-128904846D01*
X143347943Y-128904846D01*
X143347943Y-133246526D01*
X142240000Y-133985154D01*
G37*
X156270000Y-103160000D02*
X145990000Y-103160000D01*
X156270000Y-104410000D02*
X156270000Y-103160000D01*
X145990000Y-107660000D02*
X156270000Y-107660000D01*
X145990000Y-103160000D02*
X145990000Y-107660000D01*
X156330000Y-110660000D02*
X156330000Y-100160000D01*
X156270000Y-107660000D02*
X156270000Y-106410000D01*
X145930000Y-110660000D02*
X156330000Y-110660000D01*
X156330000Y-100160000D02*
X145930000Y-100160000D01*
X145930000Y-100160000D02*
X145930000Y-110660000D01*
X156270000Y-104410000D02*
G75*
G03*
X156270000Y-106410000I0J-1000000D01*
G01*
G36*
X152400000Y-128681648D02*
G01*
X153507943Y-129420276D01*
X153507943Y-133469724D01*
X152400000Y-134208352D01*
X151292057Y-133469724D01*
X151292057Y-132560219D01*
X151804687Y-132560219D01*
X151813741Y-132653236D01*
X151840902Y-132733852D01*
X151886171Y-132802064D01*
X151949547Y-132857875D01*
X152031030Y-132901283D01*
X152130621Y-132932289D01*
X152248319Y-132950893D01*
X152384125Y-132957094D01*
X152527372Y-132950818D01*
X152651520Y-132931991D01*
X152756567Y-132900613D01*
X152842516Y-132856684D01*
X152909364Y-132800204D01*
X152957113Y-132731173D01*
X152985763Y-132649590D01*
X152995313Y-132555456D01*
X152985391Y-132449491D01*
X152955625Y-132353844D01*
X152809575Y-132353844D01*
X152846484Y-132444331D01*
X152858788Y-132528469D01*
X152845602Y-132606080D01*
X152806047Y-132669580D01*
X152740122Y-132718969D01*
X152647826Y-132754247D01*
X152529161Y-132775413D01*
X152384125Y-132782469D01*
X152249761Y-132776075D01*
X152139826Y-132756892D01*
X152054322Y-132724922D01*
X151993247Y-132680163D01*
X151956602Y-132622616D01*
X151944387Y-132552281D01*
X151950737Y-132515769D01*
X152198387Y-132515769D01*
X152198387Y-132345906D01*
X151839612Y-132345906D01*
X151813419Y-132447109D01*
X151804687Y-132560219D01*
X151292057Y-132560219D01*
X151292057Y-131942681D01*
X151820562Y-131942681D01*
X152979438Y-132215731D01*
X152979438Y-132037931D01*
X152674638Y-131977606D01*
X152674638Y-131706144D01*
X152979438Y-131645819D01*
X152979438Y-131461669D01*
X151820562Y-131736306D01*
X151820562Y-131942681D01*
X151292057Y-131942681D01*
X151292057Y-131345781D01*
X151820562Y-131345781D01*
X152979438Y-131345781D01*
X152979438Y-131171156D01*
X152138062Y-131171156D01*
X152138062Y-131167981D01*
X152979438Y-130920331D01*
X152979438Y-130742531D01*
X151820562Y-130742531D01*
X151820562Y-130909219D01*
X152661938Y-130909219D01*
X152661938Y-130913981D01*
X151820562Y-131161631D01*
X151820562Y-131345781D01*
X151292057Y-131345781D01*
X151292057Y-129932906D01*
X151820562Y-129932906D01*
X151820562Y-130112294D01*
X152288875Y-130112294D01*
X152288875Y-130394869D01*
X151820562Y-130394869D01*
X151820562Y-130567906D01*
X152979438Y-130567906D01*
X152979438Y-130394869D01*
X152423813Y-130394869D01*
X152423813Y-130112294D01*
X152979438Y-130112294D01*
X152979438Y-129932906D01*
X151820562Y-129932906D01*
X151292057Y-129932906D01*
X151292057Y-129420276D01*
X152400000Y-128681648D01*
G37*
G36*
X152539700Y-131950619D02*
G01*
X151995187Y-131842669D01*
X151995187Y-131841081D01*
X152539700Y-131733131D01*
X152539700Y-131950619D01*
G37*
G36*
X145070998Y-79569381D02*
G01*
X145129735Y-79623885D01*
X145149314Y-79714725D01*
X145136614Y-79798267D01*
X145098514Y-79855219D01*
X145033427Y-79887961D01*
X144939764Y-79898875D01*
X144893727Y-79898875D01*
X144893727Y-79563912D01*
X144973102Y-79551212D01*
X145070998Y-79569381D01*
G37*
G36*
X145928777Y-80460850D02*
G01*
X145824002Y-80481488D01*
X145708114Y-80444181D01*
X145666839Y-80338613D01*
X145679738Y-80266778D01*
X145718433Y-80216375D01*
X145785703Y-80186609D01*
X145884327Y-80176688D01*
X145928777Y-80176688D01*
X145928777Y-80460850D01*
G37*
G36*
X145058033Y-80046909D02*
G01*
X145125502Y-80086200D01*
X145164792Y-80154066D01*
X145177889Y-80252888D01*
X145165785Y-80350320D01*
X145129470Y-80417194D01*
X145068550Y-80455889D01*
X144982627Y-80468788D01*
X144893727Y-80456088D01*
X144893727Y-80033813D01*
X144960402Y-80033813D01*
X145058033Y-80046909D01*
G37*
G36*
X148201944Y-81117943D02*
G01*
X143366684Y-81117943D01*
X143003764Y-80573563D01*
X144715927Y-80573563D01*
X144803416Y-80591201D01*
X144892316Y-80601785D01*
X144982627Y-80605313D01*
X145095163Y-80595611D01*
X145187238Y-80566507D01*
X145258852Y-80518000D01*
X145310005Y-80450090D01*
X145340696Y-80362778D01*
X145343013Y-80338613D01*
X145498564Y-80338613D01*
X145519797Y-80451325D01*
X145583495Y-80535463D01*
X145647966Y-80574268D01*
X145728134Y-80597551D01*
X145824002Y-80605313D01*
X145920486Y-80599668D01*
X146013091Y-80582735D01*
X146101814Y-80554513D01*
X146101814Y-80062388D01*
X146095023Y-79951262D01*
X146088447Y-79924275D01*
X146292314Y-79924275D01*
X146455827Y-79924275D01*
X146455827Y-80351313D01*
X146469916Y-80474344D01*
X146512183Y-80551338D01*
X146590566Y-80591819D01*
X146713002Y-80605313D01*
X146800711Y-80600550D01*
X146879689Y-80586263D01*
X146879689Y-80441800D01*
X146811824Y-80459659D01*
X146744752Y-80465613D01*
X146649502Y-80439419D01*
X146628864Y-80319563D01*
X146628864Y-79924275D01*
X146895564Y-79924275D01*
X147086064Y-79924275D01*
X147249577Y-79924275D01*
X147249577Y-80351313D01*
X147263666Y-80474344D01*
X147305933Y-80551338D01*
X147384316Y-80591819D01*
X147506752Y-80605313D01*
X147594461Y-80600550D01*
X147673439Y-80586263D01*
X147673439Y-80441800D01*
X147605574Y-80459659D01*
X147538502Y-80465613D01*
X147443252Y-80439419D01*
X147422614Y-80319563D01*
X147422614Y-79924275D01*
X147689314Y-79924275D01*
X147689314Y-79795687D01*
X147422614Y-79795687D01*
X147422614Y-79494062D01*
X147249577Y-79494062D01*
X147249577Y-79795687D01*
X147086064Y-79795687D01*
X147086064Y-79924275D01*
X146895564Y-79924275D01*
X146895564Y-79795687D01*
X146628864Y-79795687D01*
X146628864Y-79494062D01*
X146455827Y-79494062D01*
X146455827Y-79795687D01*
X146292314Y-79795687D01*
X146292314Y-79924275D01*
X146088447Y-79924275D01*
X146074650Y-79867654D01*
X146040695Y-79811562D01*
X145951200Y-79763937D01*
X145804952Y-79748062D01*
X145719580Y-79753707D01*
X145630680Y-79770640D01*
X145538252Y-79798862D01*
X145538252Y-79935387D01*
X145630327Y-79903637D01*
X145716052Y-79884587D01*
X145795427Y-79878237D01*
X145904170Y-79907606D01*
X145928777Y-80030638D01*
X145928777Y-80057625D01*
X145884327Y-80057625D01*
X145766058Y-80065651D01*
X145669485Y-80089728D01*
X145594608Y-80129856D01*
X145522575Y-80218161D01*
X145498564Y-80338613D01*
X145343013Y-80338613D01*
X145350927Y-80256063D01*
X145335647Y-80149700D01*
X145289808Y-80059213D01*
X145220950Y-79992934D01*
X145136614Y-79959200D01*
X145136614Y-79957612D01*
X145211028Y-79925069D01*
X145269170Y-79868712D01*
X145306675Y-79793306D01*
X145319177Y-79703612D01*
X145305334Y-79599599D01*
X145263805Y-79518700D01*
X145194590Y-79460915D01*
X145097689Y-79426244D01*
X144973102Y-79414687D01*
X144842133Y-79422625D01*
X144715927Y-79446437D01*
X144715927Y-80573563D01*
X143003764Y-80573563D01*
X142739181Y-80176688D01*
X143879314Y-80176688D01*
X144136489Y-80176688D01*
X144136489Y-80510062D01*
X144306352Y-80510062D01*
X144306352Y-80176688D01*
X144561939Y-80176688D01*
X144561939Y-80044925D01*
X144306352Y-80044925D01*
X144306352Y-79716312D01*
X144136489Y-79716312D01*
X144136489Y-80044925D01*
X143879314Y-80044925D01*
X143879314Y-80176688D01*
X142739181Y-80176688D01*
X142628056Y-80010000D01*
X143366684Y-78902057D01*
X148201944Y-78902057D01*
X148201944Y-81117943D01*
G37*
G36*
X177939700Y-127939580D02*
G01*
X177395187Y-127831630D01*
X177395187Y-127830042D01*
X177939700Y-127722092D01*
X177939700Y-127939580D01*
G37*
G36*
X178907943Y-123802687D02*
G01*
X178907943Y-129458685D01*
X177800000Y-130197313D01*
X176692057Y-129458685D01*
X176692057Y-128549180D01*
X177204687Y-128549180D01*
X177213741Y-128642197D01*
X177240902Y-128722812D01*
X177286171Y-128791025D01*
X177349547Y-128846836D01*
X177431030Y-128890244D01*
X177530621Y-128921250D01*
X177648319Y-128939853D01*
X177784125Y-128946055D01*
X177927372Y-128939779D01*
X178051520Y-128920952D01*
X178156567Y-128889574D01*
X178242516Y-128845645D01*
X178309364Y-128789165D01*
X178357113Y-128720133D01*
X178385763Y-128638551D01*
X178395313Y-128544417D01*
X178385391Y-128438451D01*
X178355625Y-128342805D01*
X178209575Y-128342805D01*
X178246484Y-128433292D01*
X178258788Y-128517430D01*
X178245602Y-128595041D01*
X178206047Y-128658541D01*
X178140122Y-128707930D01*
X178047826Y-128743207D01*
X177929161Y-128764374D01*
X177784125Y-128771430D01*
X177649761Y-128765035D01*
X177539826Y-128745853D01*
X177454322Y-128713883D01*
X177393247Y-128669124D01*
X177356602Y-128611577D01*
X177344387Y-128541242D01*
X177350737Y-128504730D01*
X177598387Y-128504730D01*
X177598387Y-128334867D01*
X177239612Y-128334867D01*
X177213419Y-128436070D01*
X177204687Y-128549180D01*
X176692057Y-128549180D01*
X176692057Y-127931642D01*
X177220562Y-127931642D01*
X178379438Y-128204692D01*
X178379438Y-128026892D01*
X178074638Y-127966567D01*
X178074638Y-127695105D01*
X178379438Y-127634780D01*
X178379438Y-127450630D01*
X177220562Y-127725267D01*
X177220562Y-127931642D01*
X176692057Y-127931642D01*
X176692057Y-126898180D01*
X177220562Y-126898180D01*
X178061938Y-126898180D01*
X178061938Y-126902942D01*
X177220562Y-127150592D01*
X177220562Y-127334742D01*
X178379438Y-127334742D01*
X178379438Y-127160117D01*
X177538062Y-127160117D01*
X177538062Y-127156942D01*
X178379438Y-126909292D01*
X178379438Y-126731492D01*
X177220562Y-126731492D01*
X177220562Y-126898180D01*
X176692057Y-126898180D01*
X176692057Y-125482130D01*
X177204687Y-125482130D01*
X177208215Y-125573499D01*
X177218799Y-125663457D01*
X177236437Y-125752005D01*
X178379438Y-125752005D01*
X178379438Y-125574205D01*
X177898425Y-125574205D01*
X177898425Y-125512292D01*
X177929381Y-125416248D01*
X177974030Y-125385887D01*
X178046063Y-125359892D01*
X178379438Y-125267817D01*
X178379438Y-125085255D01*
X178055588Y-125183680D01*
X177930969Y-125234480D01*
X177852388Y-125294805D01*
X177849213Y-125294805D01*
X177803770Y-125217017D01*
X177738881Y-125161455D01*
X177654545Y-125128117D01*
X177550762Y-125117005D01*
X177441842Y-125126794D01*
X177354265Y-125156163D01*
X177288031Y-125205111D01*
X177241729Y-125275049D01*
X177213948Y-125367389D01*
X177204687Y-125482130D01*
X176692057Y-125482130D01*
X176692057Y-124985242D01*
X177220562Y-124985242D01*
X177788887Y-124762992D01*
X178379438Y-124990005D01*
X178379438Y-124802680D01*
X177915888Y-124658217D01*
X177915888Y-124655042D01*
X178379438Y-124508992D01*
X178379438Y-124315317D01*
X177788887Y-124540742D01*
X177220562Y-124318492D01*
X177220562Y-124502642D01*
X177665062Y-124648692D01*
X177665062Y-124651867D01*
X177220562Y-124796330D01*
X177220562Y-124985242D01*
X176692057Y-124985242D01*
X176692057Y-123802687D01*
X178907943Y-123802687D01*
G37*
G36*
X177648394Y-125302742D02*
G01*
X177712687Y-125340842D01*
X177748406Y-125409105D01*
X177760312Y-125512292D01*
X177760312Y-125574205D01*
X177355500Y-125574205D01*
X177342800Y-125482130D01*
X177355302Y-125397595D01*
X177392806Y-125337667D01*
X177457298Y-125301948D01*
X177550762Y-125290042D01*
X177648394Y-125302742D01*
G37*
X130495000Y-122000000D02*
X130495000Y-126060000D01*
X133665000Y-126060000D02*
X133665000Y-122000000D01*
X133665000Y-122000000D02*
X130495000Y-122000000D01*
G36*
X161516272Y-128747414D02*
G01*
X161597658Y-128775460D01*
X161676953Y-128837611D01*
X161703385Y-128923097D01*
X161676953Y-129007394D01*
X161597658Y-129069782D01*
X161516272Y-129098357D01*
X161413084Y-129115502D01*
X161288095Y-129121217D01*
X161164164Y-129115502D01*
X161061612Y-129098357D01*
X160980437Y-129069782D01*
X160901142Y-129007394D01*
X160874710Y-128923097D01*
X160875299Y-128921192D01*
X161141410Y-128921192D01*
X161179510Y-128999297D01*
X161269045Y-129027872D01*
X161357628Y-128999297D01*
X161394775Y-128921192D01*
X161357628Y-128845945D01*
X161269045Y-128816417D01*
X161179510Y-128845945D01*
X161141410Y-128921192D01*
X160875299Y-128921192D01*
X160901142Y-128837611D01*
X160980437Y-128775460D01*
X161061612Y-128747414D01*
X161164164Y-128730587D01*
X161288095Y-128724977D01*
X161413084Y-128730587D01*
X161516272Y-128747414D01*
G37*
G36*
X161205227Y-132647373D02*
G01*
X161240232Y-132717381D01*
X161251900Y-132820727D01*
X161251900Y-132872163D01*
X160897570Y-132872163D01*
X160892807Y-132834062D01*
X160891855Y-132801678D01*
X160902809Y-132717381D01*
X160935670Y-132651183D01*
X160991867Y-132608320D01*
X161072830Y-132594033D01*
X161205227Y-132647373D01*
G37*
G36*
X162417945Y-127324125D02*
G01*
X162417945Y-133619108D01*
X160162055Y-134295875D01*
X160162055Y-132801678D01*
X160688020Y-132801678D01*
X160689925Y-132868352D01*
X160694687Y-132948363D01*
X160704212Y-133031230D01*
X160718500Y-133106478D01*
X161880550Y-133106478D01*
X161880550Y-132872163D01*
X161446210Y-132872163D01*
X161446210Y-132750243D01*
X161554081Y-132685711D01*
X161660523Y-132625465D01*
X161768393Y-132570934D01*
X161880550Y-132523548D01*
X161880550Y-132277803D01*
X161755773Y-132332095D01*
X161624328Y-132397818D01*
X161498598Y-132468303D01*
X161389060Y-132536883D01*
X161335244Y-132453539D01*
X161261425Y-132397818D01*
X161172842Y-132366385D01*
X161074735Y-132355908D01*
X160982104Y-132363766D01*
X160902332Y-132387340D01*
X160781365Y-132477828D01*
X160739931Y-132542598D01*
X160710880Y-132618798D01*
X160693735Y-132705475D01*
X160688020Y-132801678D01*
X160162055Y-132801678D01*
X160162055Y-130824288D01*
X160701355Y-130824288D01*
X160775650Y-130906203D01*
X160844230Y-131007168D01*
X160903285Y-131113848D01*
X160947100Y-131212908D01*
X161141410Y-131136708D01*
X161094737Y-131020503D01*
X161027110Y-130898583D01*
X161686240Y-130898583D01*
X161686240Y-131146233D01*
X161880550Y-131146233D01*
X161880550Y-130429952D01*
X161686240Y-130429952D01*
X161686240Y-130664267D01*
X160701355Y-130664267D01*
X160701355Y-130824288D01*
X160162055Y-130824288D01*
X160162055Y-129894647D01*
X160674685Y-129894647D01*
X160684210Y-129993946D01*
X160712785Y-130093720D01*
X160761362Y-130187779D01*
X160830895Y-130269932D01*
X160994725Y-130153727D01*
X160905190Y-130033712D01*
X160878520Y-129917507D01*
X160917572Y-129807017D01*
X161029015Y-129763202D01*
X161129980Y-129798445D01*
X161232850Y-129887980D01*
X161287381Y-129944177D01*
X161344293Y-130004185D01*
X161404776Y-130064192D01*
X161470023Y-130120390D01*
X161540746Y-130169920D01*
X161617660Y-130209925D01*
X161701480Y-130236357D01*
X161792920Y-130245167D01*
X161832925Y-130246120D01*
X161880550Y-130241357D01*
X161880550Y-129471737D01*
X161686240Y-129471737D01*
X161686240Y-129978467D01*
X161623375Y-129958465D01*
X161555748Y-129909887D01*
X161490978Y-129848927D01*
X161436685Y-129791777D01*
X161341435Y-129694622D01*
X161238565Y-129608897D01*
X161129027Y-129547937D01*
X161011870Y-129525077D01*
X160864232Y-129555557D01*
X160758505Y-129637472D01*
X160695640Y-129755582D01*
X160674685Y-129894647D01*
X160162055Y-129894647D01*
X160162055Y-128923097D01*
X160674685Y-128923097D01*
X160691618Y-129043959D01*
X160742418Y-129144924D01*
X160827085Y-129225992D01*
X160913048Y-129272665D01*
X161018537Y-129306002D01*
X161143553Y-129326005D01*
X161288095Y-129332672D01*
X161434304Y-129326124D01*
X161560510Y-129306479D01*
X161666714Y-129273737D01*
X161752915Y-129227897D01*
X161837582Y-129147464D01*
X161888382Y-129045864D01*
X161905315Y-128923097D01*
X161888382Y-128800331D01*
X161837582Y-128698731D01*
X161752915Y-128618297D01*
X161666714Y-128572458D01*
X161560510Y-128539716D01*
X161434304Y-128520071D01*
X161288095Y-128513522D01*
X161142779Y-128520071D01*
X161017347Y-128539716D01*
X160911798Y-128572458D01*
X160826132Y-128618297D01*
X160741995Y-128698731D01*
X160691512Y-128800331D01*
X160674685Y-128923097D01*
X160162055Y-128923097D01*
X160162055Y-128000892D01*
X162417945Y-127324125D01*
G37*
X154080000Y-53340000D02*
G75*
G03*
X154080000Y-53340000I-1680000J0D01*
G01*
X138840000Y-53340000D02*
G75*
G03*
X138840000Y-53340000I-1680000J0D01*
G01*
X143920000Y-53340000D02*
G75*
G03*
X143920000Y-53340000I-1680000J0D01*
G01*
X149000000Y-53340000D02*
G75*
G03*
X149000000Y-53340000I-1680000J0D01*
G01*
X174400000Y-53340000D02*
G75*
G03*
X174400000Y-53340000I-1680000J0D01*
G01*
X133760000Y-53340000D02*
G75*
G03*
X133760000Y-53340000I-1680000J0D01*
G01*
X159160000Y-53340000D02*
G75*
G03*
X159160000Y-53340000I-1680000J0D01*
G01*
X164240000Y-53340000D02*
G75*
G03*
X164240000Y-53340000I-1680000J0D01*
G01*
X169320000Y-53340000D02*
G75*
G03*
X169320000Y-53340000I-1680000J0D01*
G01*
X177116000Y-54875000D02*
G75*
G03*
X178483042Y-54875427I684001J1534993D01*
G01*
X177800000Y-51660000D02*
G75*
G03*
X177116682Y-51805244I0J-1680000D01*
G01*
X178484000Y-51805000D02*
G75*
G03*
X177771195Y-51659747I-683999J-1535001D01*
G01*
X179335000Y-54024000D02*
G75*
G03*
X179335427Y-52656958I-1534993J684001D01*
G01*
X176264999Y-52656000D02*
G75*
G03*
X176264573Y-54023042I1535001J-684000D01*
G01*
X129480000Y-58601000D02*
X129480000Y-48680000D01*
X140965000Y-54409000D02*
X141012000Y-54363000D01*
X143274000Y-52101000D02*
X143309000Y-52066000D01*
X163594000Y-52101000D02*
X163629000Y-52066000D01*
X148547000Y-52317000D02*
X148594000Y-52271000D01*
X143467000Y-52317000D02*
X143514000Y-52271000D01*
X163787000Y-52317000D02*
X163834000Y-52271000D01*
X180400000Y-58601000D02*
X180400000Y-48680000D01*
X133114000Y-52101000D02*
X133149000Y-52066000D01*
X131010000Y-54615000D02*
X131045000Y-54579000D01*
X180400000Y-58601000D02*
X129480000Y-58601000D01*
X161490000Y-54615000D02*
X161525000Y-54579000D01*
X180640000Y-48440000D02*
X180140000Y-48440000D01*
X166570000Y-54615000D02*
X166605000Y-54579000D01*
X153434000Y-52101000D02*
X153469000Y-52066000D01*
X148354000Y-52101000D02*
X148389000Y-52066000D01*
X153627000Y-52317000D02*
X153674000Y-52271000D01*
X168867000Y-52317000D02*
X168914000Y-52271000D01*
X146045000Y-54409000D02*
X146092000Y-54363000D01*
X171445000Y-54409000D02*
X171492000Y-54363000D01*
X133307000Y-52317000D02*
X133354000Y-52271000D01*
X171650000Y-54615000D02*
X171685000Y-54579000D01*
X180640000Y-49180000D02*
X180640000Y-48440000D01*
X158707000Y-52317000D02*
X158754000Y-52271000D01*
X130805000Y-54409000D02*
X130852000Y-54363000D01*
X173754000Y-52101000D02*
X173789000Y-52066000D01*
X161285000Y-54409000D02*
X161332000Y-54363000D01*
X146250000Y-54615000D02*
X146285000Y-54579000D01*
X180400000Y-50740000D02*
X129480000Y-50740000D01*
X156205000Y-54409000D02*
X156252000Y-54363000D01*
X151330000Y-54615000D02*
X151365000Y-54579000D01*
X173947000Y-52317000D02*
X173994000Y-52271000D01*
X158514000Y-52101000D02*
X158549000Y-52066000D01*
X180400000Y-55641000D02*
X129480000Y-55641000D01*
X151125000Y-54409000D02*
X151172000Y-54363000D01*
X180400000Y-49240000D02*
X129480000Y-49240000D01*
X135885000Y-54409000D02*
X135932000Y-54363000D01*
X168674000Y-52101000D02*
X168709000Y-52066000D01*
X180400000Y-48680000D02*
X129480000Y-48680000D01*
X141170000Y-54615000D02*
X141205000Y-54579000D01*
X136090000Y-54615000D02*
X136125000Y-54579000D01*
X138194000Y-52101000D02*
X138229000Y-52066000D01*
X156410000Y-54615000D02*
X156445000Y-54579000D01*
X166365000Y-54409000D02*
X166412000Y-54363000D01*
X138387000Y-52317000D02*
X138434000Y-52271000D01*
X151040000Y-63221252D02*
X151040000Y-61798748D01*
X153760000Y-63221252D02*
X153760000Y-61798748D01*
X148860000Y-86490000D02*
X148860000Y-83690000D01*
X150860000Y-86490000D02*
X148860000Y-86490000D01*
X148860000Y-83690000D02*
X150860000Y-83690000D01*
X150860000Y-83690000D02*
X150860000Y-86490000D01*
X139910000Y-83160000D02*
X135580000Y-83160000D01*
X139910000Y-81940000D02*
X135580000Y-81940000D01*
X120103737Y-54525000D02*
X118656263Y-54525000D01*
X120103737Y-57235000D02*
X118656263Y-57235000D01*
X135805000Y-95973737D02*
X135805000Y-94526263D01*
X138515000Y-95973737D02*
X138515000Y-94526263D01*
X145960000Y-63221252D02*
X145960000Y-61798748D01*
X148680000Y-63221252D02*
X148680000Y-61798748D01*
G36*
X142608939Y-82550000D02*
G01*
X142614231Y-82542062D01*
X144550761Y-82542062D01*
X144556962Y-82683449D01*
X144575565Y-82805984D01*
X144606571Y-82909668D01*
X144649979Y-82994500D01*
X144705790Y-83060480D01*
X144774003Y-83107609D01*
X144854618Y-83135887D01*
X144947636Y-83145313D01*
X145042533Y-83139139D01*
X145089652Y-83129438D01*
X145384198Y-83129438D01*
X145558823Y-83129438D01*
X145558823Y-82288062D01*
X145561998Y-82288062D01*
X145809648Y-83129438D01*
X145987448Y-83129438D01*
X145987448Y-83113563D01*
X146165248Y-83113563D01*
X146284707Y-83137375D01*
X146414486Y-83145313D01*
X146546248Y-83131620D01*
X146649436Y-83090544D01*
X146727818Y-83015733D01*
X146785167Y-82900838D01*
X146811184Y-82800119D01*
X146826795Y-82677882D01*
X146831998Y-82534125D01*
X146825896Y-82385743D01*
X146807590Y-82261273D01*
X146777081Y-82160715D01*
X146734367Y-82084069D01*
X146655433Y-82012190D01*
X146548806Y-81969063D01*
X146414486Y-81954687D01*
X146289470Y-81962625D01*
X146165248Y-81986437D01*
X146165248Y-83113563D01*
X145987448Y-83113563D01*
X145987448Y-81970562D01*
X145820761Y-81970562D01*
X145820761Y-82811938D01*
X145815998Y-82811938D01*
X145568348Y-81970562D01*
X145384198Y-81970562D01*
X145384198Y-83129438D01*
X145089652Y-83129438D01*
X145132491Y-83120618D01*
X145217511Y-83089750D01*
X145217511Y-82438875D01*
X144847623Y-82438875D01*
X144847623Y-82573813D01*
X145047648Y-82573813D01*
X145047648Y-82989738D01*
X144952398Y-83008788D01*
X144855561Y-82981800D01*
X144784123Y-82900838D01*
X144751491Y-82812996D01*
X144731912Y-82693404D01*
X144725386Y-82542062D01*
X144732265Y-82394160D01*
X144752902Y-82278537D01*
X144787298Y-82195194D01*
X144866276Y-82119589D01*
X144979386Y-82094387D01*
X145076620Y-82103912D01*
X145177823Y-82132487D01*
X145177823Y-81989612D01*
X145080589Y-81963419D01*
X144979386Y-81954687D01*
X144848417Y-81970386D01*
X144741261Y-82017482D01*
X144657917Y-82095975D01*
X144611036Y-82176838D01*
X144577550Y-82278141D01*
X144557458Y-82399882D01*
X144550761Y-82542062D01*
X142614231Y-82542062D01*
X143347568Y-81442057D01*
X148221061Y-81442057D01*
X148221061Y-83657943D01*
X143347568Y-83657943D01*
X142726414Y-82726213D01*
X143860198Y-82726213D01*
X144336448Y-82726213D01*
X144336448Y-82594450D01*
X143860198Y-82594450D01*
X143860198Y-82726213D01*
X142726414Y-82726213D01*
X142608939Y-82550000D01*
G37*
G36*
X146524420Y-82117406D02*
G01*
X146600223Y-82191225D01*
X146632855Y-82273069D01*
X146652434Y-82387369D01*
X146658961Y-82534125D01*
X146652522Y-82696226D01*
X146633208Y-82820581D01*
X146601017Y-82907188D01*
X146525412Y-82983388D01*
X146414486Y-83008788D01*
X146343048Y-82994500D01*
X146343048Y-82107087D01*
X146414486Y-82092800D01*
X146524420Y-82117406D01*
G37*
X174080000Y-63221252D02*
X174080000Y-61798748D01*
X171360000Y-63221252D02*
X171360000Y-61798748D01*
X122989000Y-102875000D02*
X122943000Y-102828000D01*
X122989000Y-113035000D02*
X122943000Y-112988000D01*
X120681000Y-110726000D02*
X120646000Y-110691000D01*
X120681000Y-100566000D02*
X120646000Y-100531000D01*
X124221000Y-93920000D02*
X124221000Y-124520000D01*
X117020000Y-93680000D02*
X117020000Y-94180000D01*
X120681000Y-120886000D02*
X120646000Y-120851000D01*
X123195000Y-117910000D02*
X123159000Y-117875000D01*
X120897000Y-110533000D02*
X120851000Y-110486000D01*
X120897000Y-105453000D02*
X120851000Y-105406000D01*
X117820000Y-93920000D02*
X117820000Y-124520000D01*
X122989000Y-123195000D02*
X122943000Y-123148000D01*
X117260000Y-93920000D02*
X117260000Y-124520000D01*
X119320000Y-93920000D02*
X119320000Y-124520000D01*
X122989000Y-118115000D02*
X122943000Y-118068000D01*
X120897000Y-115613000D02*
X120851000Y-115566000D01*
X120681000Y-115806000D02*
X120646000Y-115771000D01*
X122989000Y-107955000D02*
X122943000Y-107908000D01*
X120897000Y-120693000D02*
X120851000Y-120646000D01*
X127181000Y-124520000D02*
X117260000Y-124520000D01*
X123195000Y-122990000D02*
X123159000Y-122955000D01*
X120897000Y-100373000D02*
X120851000Y-100326000D01*
X123195000Y-107750000D02*
X123159000Y-107715000D01*
X120681000Y-105646000D02*
X120646000Y-105611000D01*
X117760000Y-93680000D02*
X117020000Y-93680000D01*
X127181000Y-93920000D02*
X127181000Y-124520000D01*
X123195000Y-102670000D02*
X123159000Y-102635000D01*
X123195000Y-112830000D02*
X123159000Y-112795000D01*
X127181000Y-93920000D02*
X117260000Y-93920000D01*
X120240000Y-96520000D02*
G75*
G03*
X120385244Y-97203318I1680000J0D01*
G01*
X123455000Y-97204000D02*
G75*
G03*
X123455427Y-95836958I-1534993J684001D01*
G01*
X120385000Y-95836000D02*
G75*
G03*
X120239747Y-96548805I1535001J-683999D01*
G01*
X122604000Y-94985000D02*
G75*
G03*
X121236958Y-94984573I-684001J-1534993D01*
G01*
X121236000Y-98055001D02*
G75*
G03*
X122603042Y-98055427I684000J1535001D01*
G01*
X123600000Y-111760000D02*
G75*
G03*
X123600000Y-111760000I-1680000J0D01*
G01*
X123600000Y-101600000D02*
G75*
G03*
X123600000Y-101600000I-1680000J0D01*
G01*
X123600000Y-116840000D02*
G75*
G03*
X123600000Y-116840000I-1680000J0D01*
G01*
X123600000Y-106680000D02*
G75*
G03*
X123600000Y-106680000I-1680000J0D01*
G01*
X123600000Y-121920000D02*
G75*
G03*
X123600000Y-121920000I-1680000J0D01*
G01*
G36*
X132226226Y-131063294D02*
G01*
X132350581Y-131082609D01*
X132437188Y-131114800D01*
X132513388Y-131190405D01*
X132538788Y-131301331D01*
X132524500Y-131372769D01*
X131637087Y-131372769D01*
X131622800Y-131301331D01*
X131647406Y-131191397D01*
X131721225Y-131115594D01*
X131803069Y-131082962D01*
X131917369Y-131063383D01*
X132064125Y-131056856D01*
X132226226Y-131063294D01*
G37*
G36*
X132025849Y-128743869D02*
G01*
X132110515Y-128791494D01*
X132138738Y-128870869D01*
X132124847Y-128930995D01*
X132083175Y-128971675D01*
X132004197Y-128994892D01*
X131878387Y-129002631D01*
X131753967Y-128994694D01*
X131675981Y-128970881D01*
X131634905Y-128928416D01*
X131621212Y-128864519D01*
X131635897Y-128803797D01*
X131679950Y-128761331D01*
X131760516Y-128736328D01*
X131884737Y-128727994D01*
X132025849Y-128743869D01*
G37*
G36*
X130972057Y-134247202D02*
G01*
X130972057Y-133069806D01*
X131500562Y-133069806D01*
X132659438Y-133069806D01*
X132659438Y-132522119D01*
X132521325Y-132522119D01*
X132521325Y-132892006D01*
X131500562Y-132892006D01*
X131500562Y-133069806D01*
X130972057Y-133069806D01*
X130972057Y-132304631D01*
X131500562Y-132304631D01*
X132659438Y-132304631D01*
X132659438Y-131749006D01*
X132521325Y-131749006D01*
X132521325Y-132126831D01*
X132103813Y-132126831D01*
X132103813Y-131764881D01*
X131968875Y-131764881D01*
X131968875Y-132126831D01*
X131638675Y-132126831D01*
X131638675Y-131749006D01*
X131500562Y-131749006D01*
X131500562Y-132304631D01*
X130972057Y-132304631D01*
X130972057Y-131301331D01*
X131484687Y-131301331D01*
X131492625Y-131426347D01*
X131516437Y-131550569D01*
X132643563Y-131550569D01*
X132667375Y-131431109D01*
X132675313Y-131301331D01*
X132661620Y-131169569D01*
X132620544Y-131066381D01*
X132545733Y-130987998D01*
X132430838Y-130930650D01*
X132330119Y-130904633D01*
X132207882Y-130889022D01*
X132064125Y-130883819D01*
X131915743Y-130889921D01*
X131791273Y-130908227D01*
X131690715Y-130938736D01*
X131614069Y-130981450D01*
X131542190Y-131060384D01*
X131499063Y-131167011D01*
X131484687Y-131301331D01*
X130972057Y-131301331D01*
X130972057Y-129713831D01*
X131484687Y-129713831D01*
X131492625Y-129838847D01*
X131516437Y-129963069D01*
X132643563Y-129963069D01*
X132667375Y-129843609D01*
X132675313Y-129713831D01*
X132661620Y-129582069D01*
X132620544Y-129478881D01*
X132545733Y-129400498D01*
X132430838Y-129343150D01*
X132330119Y-129317133D01*
X132207882Y-129301522D01*
X132064125Y-129296319D01*
X131915743Y-129302421D01*
X131791273Y-129320727D01*
X131690715Y-129351236D01*
X131614069Y-129393950D01*
X131542190Y-129472884D01*
X131499063Y-129579511D01*
X131484687Y-129713831D01*
X130972057Y-129713831D01*
X130972057Y-128864519D01*
X131484687Y-128864519D01*
X131495183Y-128961268D01*
X131526668Y-129039849D01*
X131579144Y-129100262D01*
X131654374Y-129143037D01*
X131754122Y-129168701D01*
X131878387Y-129177256D01*
X132006005Y-129169583D01*
X132107340Y-129146565D01*
X132182394Y-129108200D01*
X132252045Y-129022277D01*
X132275263Y-128902619D01*
X132258197Y-128814116D01*
X132207000Y-128732756D01*
X132207000Y-128727994D01*
X132322182Y-128737431D01*
X132409494Y-128755158D01*
X132468938Y-128781175D01*
X132520134Y-128840508D01*
X132537200Y-128928019D01*
X132526088Y-129018506D01*
X132492750Y-129105819D01*
X132643563Y-129105819D01*
X132667375Y-129008584D01*
X132675313Y-128907381D01*
X132660827Y-128793280D01*
X132617369Y-128704975D01*
X132537200Y-128638498D01*
X132412581Y-128589881D01*
X132332264Y-128572518D01*
X132238155Y-128560116D01*
X132130254Y-128552674D01*
X132008562Y-128550194D01*
X131868366Y-128554559D01*
X131752578Y-128567656D01*
X131661198Y-128589484D01*
X131594225Y-128620044D01*
X131533371Y-128678252D01*
X131496858Y-128759744D01*
X131484687Y-128864519D01*
X130972057Y-128864519D01*
X130972057Y-128037564D01*
X133187943Y-127372798D01*
X133187943Y-133582436D01*
X130972057Y-134247202D01*
G37*
G36*
X132226226Y-129475794D02*
G01*
X132350581Y-129495109D01*
X132437188Y-129527300D01*
X132513388Y-129602905D01*
X132538788Y-129713831D01*
X132524500Y-129785269D01*
X131637087Y-129785269D01*
X131622800Y-129713831D01*
X131647406Y-129603897D01*
X131721225Y-129528094D01*
X131803069Y-129495462D01*
X131917369Y-129475883D01*
X132064125Y-129469356D01*
X132226226Y-129475794D01*
G37*
X153755000Y-79463737D02*
X153755000Y-78016263D01*
X151045000Y-79463737D02*
X151045000Y-78016263D01*
X139910000Y-80620000D02*
X135580000Y-80620000D01*
X139910000Y-79400000D02*
X135580000Y-79400000D01*
X138520000Y-63221252D02*
X138520000Y-61798748D01*
X135800000Y-63221252D02*
X135800000Y-61798748D01*
X158665000Y-107226263D02*
X158665000Y-108673737D01*
X161375000Y-107226263D02*
X161375000Y-108673737D01*
X158690000Y-125790000D02*
X158690000Y-124460000D01*
X163890000Y-125790000D02*
X163890000Y-123130000D01*
X160020000Y-125790000D02*
X158690000Y-125790000D01*
X161290000Y-123130000D02*
X163890000Y-123130000D01*
X161290000Y-125790000D02*
X161290000Y-123130000D01*
X161290000Y-125790000D02*
X163890000Y-125790000D01*
G36*
X154940000Y-128689585D02*
G01*
X156047943Y-129428214D01*
X156047943Y-133461786D01*
X154940000Y-134200415D01*
X153832057Y-133461786D01*
X153832057Y-132552281D01*
X154344687Y-132552281D01*
X154353741Y-132645299D01*
X154380902Y-132725914D01*
X154426171Y-132794127D01*
X154489547Y-132849938D01*
X154571030Y-132893346D01*
X154670621Y-132924352D01*
X154788319Y-132942955D01*
X154924125Y-132949156D01*
X155067372Y-132942881D01*
X155191520Y-132924054D01*
X155296567Y-132892676D01*
X155382516Y-132848747D01*
X155449364Y-132792267D01*
X155497113Y-132723235D01*
X155525763Y-132641653D01*
X155535313Y-132547519D01*
X155525391Y-132441553D01*
X155495625Y-132345906D01*
X155349575Y-132345906D01*
X155386484Y-132436394D01*
X155398788Y-132520531D01*
X155385602Y-132598142D01*
X155346047Y-132661642D01*
X155280122Y-132711031D01*
X155187826Y-132746309D01*
X155069161Y-132767476D01*
X154924125Y-132774531D01*
X154789761Y-132768137D01*
X154679826Y-132748955D01*
X154594322Y-132716984D01*
X154533247Y-132672226D01*
X154496602Y-132614679D01*
X154484387Y-132544344D01*
X154490737Y-132507831D01*
X154738387Y-132507831D01*
X154738387Y-132337969D01*
X154379612Y-132337969D01*
X154353419Y-132439172D01*
X154344687Y-132552281D01*
X153832057Y-132552281D01*
X153832057Y-131934744D01*
X154360562Y-131934744D01*
X155519438Y-132207794D01*
X155519438Y-132029994D01*
X155214638Y-131969669D01*
X155214638Y-131698206D01*
X155519438Y-131637881D01*
X155519438Y-131453731D01*
X154360562Y-131728369D01*
X154360562Y-131934744D01*
X153832057Y-131934744D01*
X153832057Y-131337844D01*
X154360562Y-131337844D01*
X155519438Y-131337844D01*
X155519438Y-131163219D01*
X154678062Y-131163219D01*
X154678062Y-131160044D01*
X155519438Y-130912394D01*
X155519438Y-130734594D01*
X154360562Y-130734594D01*
X154360562Y-130901281D01*
X155201938Y-130901281D01*
X155201938Y-130906044D01*
X154360562Y-131153694D01*
X154360562Y-131337844D01*
X153832057Y-131337844D01*
X153832057Y-130488531D01*
X154360562Y-130488531D01*
X155519438Y-130488531D01*
X155519438Y-129940844D01*
X155381325Y-129940844D01*
X155381325Y-130310731D01*
X154360562Y-130310731D01*
X154360562Y-130488531D01*
X153832057Y-130488531D01*
X153832057Y-129428214D01*
X154940000Y-128689585D01*
G37*
G36*
X155079700Y-131942681D02*
G01*
X154535187Y-131834731D01*
X154535187Y-131833144D01*
X155079700Y-131725194D01*
X155079700Y-131942681D01*
G37*
X169000000Y-63221252D02*
X169000000Y-61798748D01*
X166280000Y-63221252D02*
X166280000Y-61798748D01*
X155665000Y-92151252D02*
X155665000Y-90728748D01*
X152945000Y-92151252D02*
X152945000Y-90728748D01*
X166285000Y-107226263D02*
X166285000Y-108673737D01*
X168995000Y-107226263D02*
X168995000Y-108673737D01*
X121840000Y-52385000D02*
X121840000Y-49215000D01*
X117780000Y-52385000D02*
X121840000Y-52385000D01*
X121840000Y-49215000D02*
X117780000Y-49215000D01*
X120897000Y-77513000D02*
X120851000Y-77466000D01*
X117260000Y-60900000D02*
X117260000Y-91500000D01*
X122989000Y-74935000D02*
X122943000Y-74888000D01*
X117760000Y-60660000D02*
X117020000Y-60660000D01*
X123195000Y-79810000D02*
X123159000Y-79775000D01*
X122989000Y-85095000D02*
X122943000Y-85048000D01*
X119320000Y-60900000D02*
X119320000Y-91500000D01*
X124221000Y-60900000D02*
X124221000Y-91500000D01*
X123195000Y-74730000D02*
X123159000Y-74695000D01*
X123195000Y-89970000D02*
X123159000Y-89935000D01*
X120681000Y-72626000D02*
X120646000Y-72591000D01*
X123195000Y-69650000D02*
X123159000Y-69615000D01*
X127181000Y-91500000D02*
X117260000Y-91500000D01*
X123195000Y-84890000D02*
X123159000Y-84855000D01*
X120681000Y-67546000D02*
X120646000Y-67511000D01*
X122989000Y-90175000D02*
X122943000Y-90128000D01*
X120897000Y-82593000D02*
X120851000Y-82546000D01*
X120897000Y-87673000D02*
X120851000Y-87626000D01*
X120681000Y-82786000D02*
X120646000Y-82751000D01*
X127181000Y-60900000D02*
X127181000Y-91500000D01*
X122989000Y-80015000D02*
X122943000Y-79968000D01*
X120897000Y-67353000D02*
X120851000Y-67306000D01*
X122989000Y-69855000D02*
X122943000Y-69808000D01*
X117820000Y-60900000D02*
X117820000Y-91500000D01*
X120681000Y-77706000D02*
X120646000Y-77671000D01*
X120897000Y-72433000D02*
X120851000Y-72386000D01*
X120681000Y-87866000D02*
X120646000Y-87831000D01*
X117020000Y-60660000D02*
X117020000Y-61160000D01*
X127181000Y-60900000D02*
X117260000Y-60900000D01*
X120240000Y-63500000D02*
G75*
G03*
X120385244Y-64183318I1680000J0D01*
G01*
X122604000Y-61965000D02*
G75*
G03*
X121236958Y-61964573I-684001J-1534993D01*
G01*
X123455000Y-64184000D02*
G75*
G03*
X123455427Y-62816958I-1534993J684001D01*
G01*
X120385000Y-62816000D02*
G75*
G03*
X120239747Y-63528805I1535001J-683999D01*
G01*
X121236000Y-65035001D02*
G75*
G03*
X122603042Y-65035427I684000J1535001D01*
G01*
X123600000Y-88900000D02*
G75*
G03*
X123600000Y-88900000I-1680000J0D01*
G01*
X123600000Y-83820000D02*
G75*
G03*
X123600000Y-83820000I-1680000J0D01*
G01*
X123600000Y-78740000D02*
G75*
G03*
X123600000Y-78740000I-1680000J0D01*
G01*
X123600000Y-68580000D02*
G75*
G03*
X123600000Y-68580000I-1680000J0D01*
G01*
X123600000Y-73660000D02*
G75*
G03*
X123600000Y-73660000I-1680000J0D01*
G01*
G36*
X140807943Y-128636558D02*
G01*
X140807943Y-133514813D01*
X139700000Y-134253442D01*
X138592057Y-133514813D01*
X138592057Y-131728876D01*
X139104687Y-131728876D01*
X139113741Y-131821893D01*
X139140902Y-131902509D01*
X139186171Y-131970722D01*
X139249547Y-132026532D01*
X139331030Y-132069940D01*
X139430621Y-132100946D01*
X139548319Y-132119550D01*
X139684125Y-132125751D01*
X139827372Y-132119475D01*
X139951520Y-132100649D01*
X140056567Y-132069271D01*
X140142516Y-132025341D01*
X140209364Y-131968861D01*
X140257113Y-131899830D01*
X140285763Y-131818247D01*
X140295313Y-131724113D01*
X140285391Y-131618148D01*
X140255625Y-131522501D01*
X140109575Y-131522501D01*
X140146484Y-131612988D01*
X140158788Y-131697126D01*
X140145602Y-131774737D01*
X140106047Y-131838237D01*
X140040122Y-131887626D01*
X139947826Y-131922904D01*
X139829161Y-131944070D01*
X139684125Y-131951126D01*
X139549761Y-131944732D01*
X139439826Y-131925549D01*
X139354322Y-131893579D01*
X139293247Y-131848820D01*
X139256602Y-131791273D01*
X139244387Y-131720938D01*
X139250737Y-131684426D01*
X139498387Y-131684426D01*
X139498387Y-131514563D01*
X139139612Y-131514563D01*
X139113419Y-131615766D01*
X139104687Y-131728876D01*
X138592057Y-131728876D01*
X138592057Y-131006563D01*
X139104687Y-131006563D01*
X139118181Y-131116895D01*
X139158662Y-131203413D01*
X139232084Y-131269096D01*
X139344400Y-131316920D01*
X139442472Y-131338527D01*
X139561006Y-131351492D01*
X139700000Y-131355813D01*
X139838994Y-131351492D01*
X139957528Y-131338527D01*
X140055600Y-131316920D01*
X140167916Y-131269096D01*
X140241338Y-131203413D01*
X140281819Y-131116895D01*
X140295313Y-131006563D01*
X140281819Y-130896232D01*
X140241338Y-130809713D01*
X140167916Y-130744031D01*
X140055600Y-130696207D01*
X139957528Y-130674599D01*
X139838994Y-130661635D01*
X139700000Y-130657313D01*
X139561006Y-130661635D01*
X139442472Y-130674599D01*
X139344400Y-130696207D01*
X139232084Y-130744031D01*
X139158662Y-130809713D01*
X139118181Y-130896232D01*
X139104687Y-131006563D01*
X138592057Y-131006563D01*
X138592057Y-130241388D01*
X139104687Y-130241388D01*
X139108215Y-130332758D01*
X139118799Y-130422716D01*
X139136437Y-130511263D01*
X140279438Y-130511263D01*
X140279438Y-130333463D01*
X139882563Y-130333463D01*
X139890500Y-130241388D01*
X139879917Y-130128235D01*
X139848167Y-130036424D01*
X139795250Y-129965957D01*
X139719226Y-129916127D01*
X139618156Y-129886229D01*
X139492037Y-129876263D01*
X139368124Y-129885965D01*
X139269435Y-129915069D01*
X139195969Y-129963576D01*
X139145257Y-130033249D01*
X139114830Y-130125854D01*
X139104687Y-130241388D01*
X138592057Y-130241388D01*
X138592057Y-129688938D01*
X139120562Y-129688938D01*
X139258675Y-129688938D01*
X139258675Y-129511138D01*
X140141325Y-129511138D01*
X140141325Y-129688938D01*
X140279438Y-129688938D01*
X140279438Y-129149188D01*
X140141325Y-129149188D01*
X140141325Y-129326988D01*
X139258675Y-129326988D01*
X139258675Y-129149188D01*
X139120562Y-129149188D01*
X139120562Y-129688938D01*
X138592057Y-129688938D01*
X138592057Y-128636558D01*
X140807943Y-128636558D01*
G37*
G36*
X139856369Y-130830351D02*
G01*
X139976225Y-130844638D01*
X140059569Y-130868451D01*
X140132792Y-130924410D01*
X140157200Y-131006563D01*
X140132792Y-131088716D01*
X140059569Y-131144676D01*
X139976225Y-131168488D01*
X139856369Y-131182776D01*
X139700000Y-131187538D01*
X139543631Y-131182776D01*
X139423775Y-131168488D01*
X139340431Y-131144676D01*
X139267208Y-131088716D01*
X139242800Y-131006563D01*
X139267208Y-130924410D01*
X139340431Y-130868451D01*
X139423775Y-130844638D01*
X139543631Y-130830351D01*
X139700000Y-130825588D01*
X139856369Y-130830351D01*
G37*
G36*
X139614077Y-130061009D02*
G01*
X139694444Y-130096132D01*
X139739092Y-130155862D01*
X139753975Y-130241388D01*
X139742863Y-130333463D01*
X139255500Y-130333463D01*
X139242800Y-130241388D01*
X139257484Y-130155862D01*
X139301537Y-130096132D01*
X139378531Y-130061009D01*
X139492037Y-130049301D01*
X139614077Y-130061009D01*
G37*
G36*
X145911755Y-128824875D02*
G01*
X145911755Y-133310621D01*
X144780000Y-134065125D01*
X143648245Y-133310621D01*
X143648245Y-131193425D01*
X144176750Y-131193425D01*
X144176750Y-131345825D01*
X145399125Y-131855413D01*
X145399125Y-131703013D01*
X144176750Y-131193425D01*
X143648245Y-131193425D01*
X143648245Y-130658438D01*
X144160875Y-130658438D01*
X144169929Y-130751455D01*
X144197090Y-130832071D01*
X144242358Y-130900284D01*
X144305734Y-130956094D01*
X144387218Y-130999502D01*
X144486809Y-131030508D01*
X144604507Y-131049112D01*
X144740312Y-131055313D01*
X144883560Y-131049037D01*
X145007707Y-131030211D01*
X145112755Y-130998833D01*
X145198703Y-130954903D01*
X145265552Y-130898423D01*
X145313301Y-130829392D01*
X145341950Y-130747809D01*
X145351500Y-130653675D01*
X145341578Y-130547710D01*
X145311813Y-130452063D01*
X145165763Y-130452063D01*
X145202672Y-130542550D01*
X145214975Y-130626688D01*
X145201790Y-130704299D01*
X145162235Y-130767799D01*
X145096309Y-130817188D01*
X145004014Y-130852466D01*
X144885348Y-130873632D01*
X144740312Y-130880688D01*
X144605948Y-130874294D01*
X144496014Y-130855111D01*
X144410509Y-130823141D01*
X144349435Y-130778382D01*
X144312790Y-130720835D01*
X144300575Y-130650500D01*
X144306925Y-130613988D01*
X144554575Y-130613988D01*
X144554575Y-130444125D01*
X144195800Y-130444125D01*
X144169606Y-130545328D01*
X144160875Y-130658438D01*
X143648245Y-130658438D01*
X143648245Y-129917075D01*
X144160875Y-129917075D01*
X144169694Y-130011884D01*
X144196153Y-130090995D01*
X144240250Y-130154407D01*
X144335500Y-130216914D01*
X144462500Y-130237750D01*
X144575212Y-130221280D01*
X144668875Y-130171869D01*
X144723908Y-130117277D01*
X144776825Y-130041341D01*
X144827625Y-129944063D01*
X144868503Y-129875999D01*
X144914938Y-129830557D01*
X144971294Y-129804958D01*
X145041938Y-129796425D01*
X145115955Y-129807538D01*
X145169731Y-129840875D01*
X145202473Y-129894057D01*
X145213388Y-129964700D01*
X145201922Y-130057657D01*
X145167526Y-130146028D01*
X145110200Y-130229813D01*
X145275300Y-130229813D01*
X145317633Y-130148321D01*
X145343033Y-130058363D01*
X145351500Y-129959938D01*
X145338800Y-129837065D01*
X145300700Y-129741498D01*
X145237200Y-129673235D01*
X145148300Y-129632278D01*
X145034000Y-129618625D01*
X144911366Y-129635691D01*
X144813338Y-129686888D01*
X144756717Y-129744920D01*
X144701154Y-129827999D01*
X144646650Y-129936125D01*
X144599201Y-130006681D01*
X144535172Y-130049014D01*
X144454562Y-130063125D01*
X144389475Y-130052013D01*
X144340262Y-130018675D01*
X144309306Y-129965891D01*
X144298987Y-129896438D01*
X144316053Y-129773010D01*
X144367250Y-129650375D01*
X144208500Y-129650375D01*
X144182042Y-129735748D01*
X144166167Y-129824648D01*
X144160875Y-129917075D01*
X143648245Y-129917075D01*
X143648245Y-128824875D01*
X145911755Y-128824875D01*
G37*
G36*
X173827943Y-127356923D02*
G01*
X173827943Y-133598311D01*
X171612057Y-134263077D01*
X171612057Y-133085681D01*
X172140562Y-133085681D01*
X173299438Y-133085681D01*
X173299438Y-132537994D01*
X173161325Y-132537994D01*
X173161325Y-132907881D01*
X172140562Y-132907881D01*
X172140562Y-133085681D01*
X171612057Y-133085681D01*
X171612057Y-132320506D01*
X172140562Y-132320506D01*
X173299438Y-132320506D01*
X173299438Y-131764881D01*
X173161325Y-131764881D01*
X173161325Y-132142706D01*
X172743813Y-132142706D01*
X172743813Y-131780756D01*
X172608875Y-131780756D01*
X172608875Y-132142706D01*
X172278675Y-132142706D01*
X172278675Y-131764881D01*
X172140562Y-131764881D01*
X172140562Y-132320506D01*
X171612057Y-132320506D01*
X171612057Y-131317206D01*
X172124687Y-131317206D01*
X172132625Y-131442222D01*
X172156437Y-131566444D01*
X173283563Y-131566444D01*
X173307375Y-131446984D01*
X173315313Y-131317206D01*
X173301620Y-131185444D01*
X173260544Y-131082256D01*
X173185733Y-131003873D01*
X173070838Y-130946525D01*
X172970119Y-130920508D01*
X172847882Y-130904897D01*
X172704125Y-130899694D01*
X172555743Y-130905796D01*
X172431273Y-130924102D01*
X172330715Y-130954611D01*
X172254069Y-130997325D01*
X172182190Y-131076259D01*
X172139063Y-131182886D01*
X172124687Y-131317206D01*
X171612057Y-131317206D01*
X171612057Y-129701131D01*
X172124687Y-129701131D01*
X172128215Y-129792501D01*
X172138799Y-129882459D01*
X172156437Y-129971006D01*
X173299438Y-129971006D01*
X173299438Y-129793206D01*
X172818425Y-129793206D01*
X172818425Y-129731294D01*
X172849381Y-129635250D01*
X172894030Y-129604889D01*
X172966063Y-129578894D01*
X173299438Y-129486819D01*
X173299438Y-129304256D01*
X172975588Y-129402681D01*
X172850969Y-129453481D01*
X172772388Y-129513806D01*
X172769213Y-129513806D01*
X172723770Y-129436019D01*
X172658881Y-129380456D01*
X172574545Y-129347119D01*
X172470762Y-129336006D01*
X172361842Y-129345796D01*
X172274265Y-129375165D01*
X172208031Y-129424112D01*
X172161729Y-129494051D01*
X172133948Y-129586390D01*
X172124687Y-129701131D01*
X171612057Y-129701131D01*
X171612057Y-129204244D01*
X172140562Y-129204244D01*
X172708887Y-128981994D01*
X173299438Y-129209006D01*
X173299438Y-129021681D01*
X172835888Y-128877219D01*
X172835888Y-128874044D01*
X173299438Y-128727994D01*
X173299438Y-128534319D01*
X172708887Y-128759744D01*
X172140562Y-128537494D01*
X172140562Y-128721644D01*
X172585062Y-128867694D01*
X172585062Y-128870869D01*
X172140562Y-129015331D01*
X172140562Y-129204244D01*
X171612057Y-129204244D01*
X171612057Y-128021689D01*
X173827943Y-127356923D01*
G37*
G36*
X172866226Y-131079169D02*
G01*
X172990581Y-131098484D01*
X173077188Y-131130675D01*
X173153388Y-131206280D01*
X173178788Y-131317206D01*
X173164500Y-131388644D01*
X172277087Y-131388644D01*
X172262800Y-131317206D01*
X172287406Y-131207272D01*
X172361225Y-131131469D01*
X172443069Y-131098837D01*
X172557369Y-131079258D01*
X172704125Y-131072731D01*
X172866226Y-131079169D01*
G37*
G36*
X172568394Y-129521744D02*
G01*
X172632687Y-129559844D01*
X172668406Y-129628106D01*
X172680312Y-129731294D01*
X172680312Y-129793206D01*
X172275500Y-129793206D01*
X172262800Y-129701131D01*
X172275302Y-129616597D01*
X172312806Y-129556669D01*
X172377298Y-129520950D01*
X172470762Y-129509044D01*
X172568394Y-129521744D01*
G37*
X166055000Y-126920000D02*
X169225000Y-126920000D01*
X166055000Y-122860000D02*
X166055000Y-126920000D01*
X169225000Y-126920000D02*
X169225000Y-122860000D01*
%LPC*%
D12*
X137160000Y-124460000D03*
D13*
X139700000Y-124460000D03*
X142240000Y-124460000D03*
X144780000Y-124460000D03*
X147320000Y-124460000D03*
X149860000Y-124460000D03*
X152400000Y-124460000D03*
X154940000Y-124460000D03*
D14*
X157480000Y-60947500D03*
X157480000Y-64072500D03*
D15*
X190800000Y-43900000D03*
X190800000Y-133900000D03*
D16*
X193040000Y-128270000D03*
D17*
X193040000Y-125730000D03*
X193040000Y-123190000D03*
X193040000Y-120650000D03*
X193040000Y-118110000D03*
X193040000Y-115570000D03*
X193040000Y-113030000D03*
X193040000Y-110490000D03*
X193040000Y-107950000D03*
X193040000Y-105410000D03*
X193040000Y-102870000D03*
X193040000Y-100330000D03*
X193040000Y-97790000D03*
X193040000Y-95250000D03*
X193040000Y-92710000D03*
X193040000Y-90170000D03*
X193040000Y-87630000D03*
X193040000Y-85090000D03*
X193040000Y-82550000D03*
X193040000Y-80010000D03*
X193040000Y-77470000D03*
X193040000Y-74930000D03*
X193040000Y-72390000D03*
X193040000Y-69850000D03*
X193040000Y-67310000D03*
X193040000Y-64770000D03*
X193040000Y-62230000D03*
X193040000Y-59690000D03*
X193040000Y-57150000D03*
X193040000Y-54610000D03*
X193040000Y-52070000D03*
X193040000Y-49530000D03*
X190500000Y-128270000D03*
X190500000Y-125730000D03*
X190500000Y-123190000D03*
X190500000Y-120650000D03*
X190500000Y-118110000D03*
X190500000Y-115570000D03*
X190500000Y-113030000D03*
X190500000Y-110490000D03*
X190500000Y-107950000D03*
X190500000Y-105410000D03*
X190500000Y-102870000D03*
X190500000Y-100330000D03*
X190500000Y-97790000D03*
X190500000Y-95250000D03*
X190500000Y-92710000D03*
X190500000Y-90170000D03*
X190500000Y-87630000D03*
X190500000Y-85090000D03*
X190500000Y-82550000D03*
X190500000Y-80010000D03*
X190500000Y-77470000D03*
X190500000Y-74930000D03*
X190500000Y-72390000D03*
X190500000Y-69850000D03*
X190500000Y-67310000D03*
X190500000Y-64770000D03*
X190500000Y-62230000D03*
X190500000Y-59690000D03*
X190500000Y-57150000D03*
X190500000Y-54610000D03*
X190500000Y-52070000D03*
X190500000Y-49530000D03*
D18*
X172720000Y-125947500D03*
X172720000Y-122972500D03*
D19*
X154940000Y-84365000D03*
D20*
X154940000Y-85815000D03*
D21*
X163830000Y-106400000D03*
X163830000Y-109500000D03*
D14*
X132080000Y-60947500D03*
X132080000Y-64072500D03*
X162560000Y-60947500D03*
X162560000Y-64072500D03*
D22*
X110697944Y-53767056D03*
X112395000Y-54470000D03*
X109995000Y-52070000D03*
X114795000Y-52070000D03*
X114092056Y-50372944D03*
X112395000Y-49670000D03*
D23*
X112395000Y-52070000D03*
D22*
X110697944Y-50372944D03*
X114092056Y-53767056D03*
D24*
X127000000Y-53340000D03*
D25*
X132080000Y-73660000D03*
D26*
X132080000Y-76200000D03*
X132080000Y-78740000D03*
X132080000Y-81280000D03*
X132080000Y-83820000D03*
X132080000Y-86360000D03*
X132080000Y-88900000D03*
X132080000Y-91440000D03*
X132080000Y-93980000D03*
X132080000Y-96520000D03*
X132080000Y-99060000D03*
X132080000Y-101600000D03*
X132080000Y-104140000D03*
X132080000Y-106680000D03*
X132080000Y-109220000D03*
X132080000Y-111760000D03*
D27*
X134620000Y-114300000D03*
D28*
X137160000Y-114300000D03*
X139700000Y-114300000D03*
X142240000Y-114300000D03*
X144780000Y-114300000D03*
X147320000Y-114300000D03*
X149860000Y-114300000D03*
X152400000Y-114300000D03*
X154940000Y-114300000D03*
X157480000Y-114300000D03*
X160020000Y-114300000D03*
X162560000Y-114300000D03*
X165100000Y-114300000D03*
X167640000Y-114300000D03*
X170180000Y-114300000D03*
X172720000Y-114300000D03*
D25*
X175260000Y-111760000D03*
D26*
X175260000Y-109220000D03*
X175260000Y-106680000D03*
X175260000Y-104140000D03*
X175260000Y-101600000D03*
X175260000Y-99060000D03*
X175260000Y-96520000D03*
X175260000Y-93980000D03*
X175260000Y-91440000D03*
X175260000Y-88900000D03*
X175260000Y-86360000D03*
X175260000Y-83820000D03*
X175260000Y-81280000D03*
X175260000Y-78740000D03*
X175260000Y-76200000D03*
X175260000Y-73660000D03*
D27*
X172720000Y-71120000D03*
D28*
X170180000Y-71120000D03*
X167640000Y-71120000D03*
X165100000Y-71120000D03*
X162560000Y-71120000D03*
X160020000Y-71120000D03*
X157480000Y-71120000D03*
X154940000Y-71120000D03*
X152400000Y-71120000D03*
X149860000Y-71120000D03*
X147320000Y-71120000D03*
X144780000Y-71120000D03*
X142240000Y-71120000D03*
X139700000Y-71120000D03*
X137160000Y-71120000D03*
X134620000Y-71120000D03*
D29*
X134620000Y-73660000D03*
D30*
X134620000Y-76200000D03*
D22*
X198120000Y-127140000D03*
X196422944Y-131237056D03*
X198120000Y-131940000D03*
D23*
X198120000Y-129540000D03*
D22*
X200520000Y-129540000D03*
X196422944Y-127842944D03*
X199817056Y-127842944D03*
X199817056Y-131237056D03*
X195720000Y-129540000D03*
D31*
X177800000Y-132080000D03*
D32*
X159385000Y-96190000D03*
X160655000Y-96190000D03*
X161925000Y-96190000D03*
X163195000Y-96190000D03*
X164465000Y-96190000D03*
X165735000Y-96190000D03*
X167005000Y-96190000D03*
X168275000Y-96190000D03*
X169545000Y-96190000D03*
X170815000Y-96190000D03*
X170815000Y-86690000D03*
X169545000Y-86690000D03*
X168275000Y-86690000D03*
X167005000Y-86690000D03*
X165735000Y-86690000D03*
X164465000Y-86690000D03*
X163195000Y-86690000D03*
X161925000Y-86690000D03*
X160655000Y-86690000D03*
X159385000Y-86690000D03*
D33*
X152692500Y-97790000D03*
X149567500Y-97790000D03*
D14*
X142240000Y-60947500D03*
X142240000Y-64072500D03*
D34*
X157480000Y-80290000D03*
X157480000Y-77190000D03*
D27*
X154940000Y-101600000D03*
D28*
X152400000Y-101600000D03*
X149860000Y-101600000D03*
X147320000Y-101600000D03*
X147320000Y-109220000D03*
X149860000Y-109220000D03*
X152400000Y-109220000D03*
X154940000Y-109220000D03*
D35*
X132080000Y-122972500D03*
X132080000Y-125947500D03*
D36*
X132080000Y-53340000D03*
X137160000Y-53340000D03*
X142240000Y-53340000D03*
X147320000Y-53340000D03*
X152400000Y-53340000D03*
X157480000Y-53340000D03*
X162560000Y-53340000D03*
X167640000Y-53340000D03*
X172720000Y-53340000D03*
D37*
X177800000Y-53340000D03*
D14*
X152400000Y-60947500D03*
X152400000Y-64072500D03*
D24*
X180340000Y-119380000D03*
D19*
X149860000Y-84365000D03*
D20*
X149860000Y-85815000D03*
D38*
X128970000Y-82550000D03*
X134970000Y-82550000D03*
D39*
X140970000Y-82550000D03*
D40*
X120930000Y-55880000D03*
X117830000Y-55880000D03*
D34*
X137160000Y-96800000D03*
X137160000Y-93700000D03*
D24*
X180340000Y-114300000D03*
D14*
X147320000Y-60947500D03*
X147320000Y-64072500D03*
D22*
X198120000Y-47130000D03*
X199817056Y-51227056D03*
D23*
X198120000Y-49530000D03*
D22*
X196422944Y-51227056D03*
X195720000Y-49530000D03*
X196422944Y-47832944D03*
X199817056Y-47832944D03*
X200520000Y-49530000D03*
X198120000Y-51930000D03*
D14*
X172720000Y-60947500D03*
X172720000Y-64072500D03*
D37*
X121920000Y-96520000D03*
D36*
X121920000Y-101600000D03*
X121920000Y-106680000D03*
X121920000Y-111760000D03*
X121920000Y-116840000D03*
X121920000Y-121920000D03*
D34*
X152400000Y-80290000D03*
X152400000Y-77190000D03*
D38*
X128970000Y-80010000D03*
X134970000Y-80010000D03*
D39*
X140970000Y-80010000D03*
D14*
X137160000Y-60947500D03*
X137160000Y-64072500D03*
D21*
X160020000Y-106400000D03*
X160020000Y-109500000D03*
D41*
X160020000Y-124460000D03*
D42*
X162560000Y-124460000D03*
D14*
X167640000Y-60947500D03*
X167640000Y-64072500D03*
X154305000Y-93002500D03*
X154305000Y-89877500D03*
D21*
X167640000Y-106400000D03*
X167640000Y-109500000D03*
D43*
X117892500Y-50800000D03*
X120867500Y-50800000D03*
D37*
X121920000Y-63500000D03*
D36*
X121920000Y-68580000D03*
X121920000Y-73660000D03*
X121920000Y-78740000D03*
X121920000Y-83820000D03*
X121920000Y-88900000D03*
D22*
X114795000Y-125730000D03*
X110697944Y-124032944D03*
X110697944Y-127427056D03*
X114092056Y-124032944D03*
X114092056Y-127427056D03*
X109995000Y-125730000D03*
X112395000Y-128130000D03*
D23*
X112395000Y-125730000D03*
D22*
X112395000Y-123330000D03*
D18*
X167640000Y-125947500D03*
X167640000Y-122972500D03*
M02*
