%TF.GenerationSoftware,KiCad,Pcbnew,7.0.3-24-g09febce4ce*%
%TF.CreationDate,2023-05-24T00:27:39+02:00*%
%TF.ProjectId,CANduino128,43414e64-7569-46e6-9f31-32382e6b6963,rev?*%
%TF.SameCoordinates,Original*%
%TF.FileFunction,Drillmap*%
%TF.FilePolarity,Positive*%
%FSLAX45Y45*%
G04 Gerber Fmt 4.5, Leading zero omitted, Abs format (unit mm)*
G04 Created by KiCad (PCBNEW 7.0.3-24-g09febce4ce) date 2023-05-24 00:27:39*
%MOMM*%
%LPD*%
G01*
G04 APERTURE LIST*
%ADD10C,0.100000*%
%ADD11C,0.200000*%
G04 APERTURE END LIST*
D10*
X15968980Y-13366750D02*
G75*
G03*
X16064230Y-13462000I95250J0D01*
G01*
X19748500Y-4540250D02*
G75*
G03*
X19653250Y-4445000I-95250J0D01*
G01*
X16064230Y-13462000D02*
X19653250Y-13462000D01*
X15968980Y-13366750D02*
G75*
G03*
X15873730Y-13271500I-95250J0D01*
G01*
X10160000Y-13366750D02*
X10160000Y-9950450D01*
X19748500Y-9950450D02*
G75*
G03*
X19653250Y-9855200I-95250J0D01*
G01*
X10255250Y-9855200D02*
G75*
G03*
X10350500Y-9759950I0J95250D01*
G01*
X10255250Y-4445000D02*
X13844270Y-4445000D01*
X16064230Y-4445000D02*
G75*
G03*
X15968980Y-4540250I0J-95250D01*
G01*
X10350500Y-7918450D02*
G75*
G03*
X10255250Y-7823200I-95250J0D01*
G01*
X15873730Y-4635500D02*
G75*
G03*
X15968980Y-4540250I0J95250D01*
G01*
X19558000Y-9759950D02*
G75*
G03*
X19653250Y-9855200I95250J0D01*
G01*
X13844270Y-13462000D02*
G75*
G03*
X13939520Y-13366750I0J95250D01*
G01*
X14034770Y-4635500D02*
X15873730Y-4635500D01*
X10160000Y-7727950D02*
G75*
G03*
X10255250Y-7823200I95250J0D01*
G01*
X10255250Y-9855200D02*
G75*
G03*
X10160000Y-9950450I0J-95250D01*
G01*
X13939520Y-4540250D02*
G75*
G03*
X14034770Y-4635500I95250J0D01*
G01*
X19748500Y-7727950D02*
X19748500Y-4540250D01*
X10160000Y-7727950D02*
X10160000Y-4540250D01*
X16064230Y-4445000D02*
X19653250Y-4445000D01*
X19558000Y-9759950D02*
X19558000Y-7918450D01*
X19748500Y-13366750D02*
X19748500Y-9950450D01*
X10255250Y-4445000D02*
G75*
G03*
X10160000Y-4540250I0J-95250D01*
G01*
X14034770Y-13271500D02*
G75*
G03*
X13939520Y-13366750I0J-95250D01*
G01*
X10160000Y-13366750D02*
G75*
G03*
X10255250Y-13462000I95250J0D01*
G01*
X10255250Y-13462000D02*
X13844270Y-13462000D01*
X19653250Y-13462000D02*
G75*
G03*
X19748500Y-13366750I0J95250D01*
G01*
X19653250Y-7823200D02*
G75*
G03*
X19558000Y-7918450I0J-95250D01*
G01*
X10350500Y-9759950D02*
X10350500Y-7918450D01*
X14034770Y-13271500D02*
X15873730Y-13271500D01*
X19653250Y-7823200D02*
G75*
G03*
X19748500Y-7727950I0J95250D01*
G01*
X13939520Y-4540250D02*
G75*
G03*
X13844270Y-4445000I-95250J0D01*
G01*
D11*
X10415777Y-13778484D02*
X10415777Y-13578484D01*
X10415777Y-13578484D02*
X10463396Y-13578484D01*
X10463396Y-13578484D02*
X10491967Y-13588008D01*
X10491967Y-13588008D02*
X10511015Y-13607055D01*
X10511015Y-13607055D02*
X10520539Y-13626103D01*
X10520539Y-13626103D02*
X10530062Y-13664198D01*
X10530062Y-13664198D02*
X10530062Y-13692769D01*
X10530062Y-13692769D02*
X10520539Y-13730865D01*
X10520539Y-13730865D02*
X10511015Y-13749912D01*
X10511015Y-13749912D02*
X10491967Y-13768960D01*
X10491967Y-13768960D02*
X10463396Y-13778484D01*
X10463396Y-13778484D02*
X10415777Y-13778484D01*
X10615777Y-13778484D02*
X10615777Y-13645150D01*
X10615777Y-13683246D02*
X10625301Y-13664198D01*
X10625301Y-13664198D02*
X10634824Y-13654674D01*
X10634824Y-13654674D02*
X10653872Y-13645150D01*
X10653872Y-13645150D02*
X10672920Y-13645150D01*
X10739586Y-13778484D02*
X10739586Y-13645150D01*
X10739586Y-13578484D02*
X10730062Y-13588008D01*
X10730062Y-13588008D02*
X10739586Y-13597531D01*
X10739586Y-13597531D02*
X10749110Y-13588008D01*
X10749110Y-13588008D02*
X10739586Y-13578484D01*
X10739586Y-13578484D02*
X10739586Y-13597531D01*
X10863396Y-13778484D02*
X10844348Y-13768960D01*
X10844348Y-13768960D02*
X10834824Y-13749912D01*
X10834824Y-13749912D02*
X10834824Y-13578484D01*
X10968158Y-13778484D02*
X10949110Y-13768960D01*
X10949110Y-13768960D02*
X10939586Y-13749912D01*
X10939586Y-13749912D02*
X10939586Y-13578484D01*
X11196729Y-13778484D02*
X11196729Y-13578484D01*
X11196729Y-13578484D02*
X11263396Y-13721341D01*
X11263396Y-13721341D02*
X11330062Y-13578484D01*
X11330062Y-13578484D02*
X11330062Y-13778484D01*
X11511015Y-13778484D02*
X11511015Y-13673722D01*
X11511015Y-13673722D02*
X11501491Y-13654674D01*
X11501491Y-13654674D02*
X11482443Y-13645150D01*
X11482443Y-13645150D02*
X11444348Y-13645150D01*
X11444348Y-13645150D02*
X11425300Y-13654674D01*
X11511015Y-13768960D02*
X11491967Y-13778484D01*
X11491967Y-13778484D02*
X11444348Y-13778484D01*
X11444348Y-13778484D02*
X11425300Y-13768960D01*
X11425300Y-13768960D02*
X11415777Y-13749912D01*
X11415777Y-13749912D02*
X11415777Y-13730865D01*
X11415777Y-13730865D02*
X11425300Y-13711817D01*
X11425300Y-13711817D02*
X11444348Y-13702293D01*
X11444348Y-13702293D02*
X11491967Y-13702293D01*
X11491967Y-13702293D02*
X11511015Y-13692769D01*
X11606253Y-13645150D02*
X11606253Y-13845150D01*
X11606253Y-13654674D02*
X11625300Y-13645150D01*
X11625300Y-13645150D02*
X11663396Y-13645150D01*
X11663396Y-13645150D02*
X11682443Y-13654674D01*
X11682443Y-13654674D02*
X11691967Y-13664198D01*
X11691967Y-13664198D02*
X11701491Y-13683246D01*
X11701491Y-13683246D02*
X11701491Y-13740388D01*
X11701491Y-13740388D02*
X11691967Y-13759436D01*
X11691967Y-13759436D02*
X11682443Y-13768960D01*
X11682443Y-13768960D02*
X11663396Y-13778484D01*
X11663396Y-13778484D02*
X11625300Y-13778484D01*
X11625300Y-13778484D02*
X11606253Y-13768960D01*
X11787205Y-13759436D02*
X11796729Y-13768960D01*
X11796729Y-13768960D02*
X11787205Y-13778484D01*
X11787205Y-13778484D02*
X11777681Y-13768960D01*
X11777681Y-13768960D02*
X11787205Y-13759436D01*
X11787205Y-13759436D02*
X11787205Y-13778484D01*
X11787205Y-13654674D02*
X11796729Y-13664198D01*
X11796729Y-13664198D02*
X11787205Y-13673722D01*
X11787205Y-13673722D02*
X11777681Y-13664198D01*
X11777681Y-13664198D02*
X11787205Y-13654674D01*
X11787205Y-13654674D02*
X11787205Y-13673722D01*
M02*
