M48
; DRILL file {KiCad 7.0.1-117-g927b5ae707} date Sat Apr 29 20:04:54 2023
; FORMAT={-:-/ absolute / metric / decimal}
; #@! TF.CreationDate,2023-04-29T20:04:54+02:00
; #@! TF.GenerationSoftware,Kicad,Pcbnew,7.0.1-117-g927b5ae707
; #@! TF.FileFunction,Plated,1,2,PTH
FMAT,2
METRIC
; #@! TA.AperFunction,Plated,PTH,ViaDrill
T1C0.400
; #@! TA.AperFunction,Plated,PTH,ComponentDrill
T2C0.500
; #@! TA.AperFunction,Plated,PTH,ViaDrill
T3C0.600
; #@! TA.AperFunction,Plated,PTH,ComponentDrill
T4C0.600
; #@! TA.AperFunction,Plated,PTH,ComponentDrill
T5C0.800
; #@! TA.AperFunction,Plated,PTH,ComponentDrill
T6C1.000
; #@! TA.AperFunction,Plated,PTH,ComponentDrill
T7C1.100
; #@! TA.AperFunction,Plated,PTH,ComponentDrill
T8C1.300
; #@! TA.AperFunction,Plated,PTH,ComponentDrill
T9C3.200
%
G90
G05
T1
X114.3Y-84.455
X114.3Y-87.63
X116.84Y-97.79
X118.745Y-95.25
X119.38Y-83.909
X119.38Y-87.63
X120.015Y-92.71
X165.1Y-121.92
T2
X104.28Y-52.07
X104.28Y-125.73
X104.983Y-50.373
X104.983Y-53.767
X104.983Y-124.033
X104.983Y-127.427
X106.68Y-49.67
X106.68Y-54.47
X106.68Y-123.33
X106.68Y-128.13
X108.377Y-50.373
X108.377Y-53.767
X108.377Y-124.033
X108.377Y-127.427
X109.08Y-52.07
X109.08Y-125.73
X190.005Y-49.53
X190.005Y-129.54
X190.708Y-47.833
X190.708Y-51.227
X190.708Y-127.843
X190.708Y-131.237
X192.405Y-47.13
X192.405Y-51.93
X192.405Y-127.14
X192.405Y-131.94
X194.102Y-47.833
X194.102Y-51.227
X194.102Y-127.843
X194.102Y-131.237
X194.805Y-49.53
X194.805Y-129.54
T3
X151.13Y-81.28
X164.465Y-81.28
X164.465Y-95.885
T4
X124.46Y-132.715
T5
X127.0Y-71.12
X127.0Y-73.66
X127.0Y-76.2
X127.0Y-78.74
X127.0Y-81.28
X127.0Y-83.82
X127.0Y-86.36
X127.0Y-88.9
X127.0Y-91.44
X127.0Y-93.98
X127.0Y-96.52
X127.0Y-99.06
X127.0Y-101.6
X127.0Y-104.14
X127.0Y-106.68
X127.0Y-109.22
X129.54Y-68.58
X129.54Y-111.76
X132.08Y-68.58
X132.08Y-83.81
X132.08Y-86.35
X132.08Y-88.89
X132.08Y-91.43
X132.08Y-111.76
X134.62Y-68.58
X134.62Y-111.76
X137.16Y-68.58
X137.16Y-111.76
X139.7Y-68.58
X139.7Y-83.81
X139.7Y-86.35
X139.7Y-88.89
X139.7Y-91.43
X139.7Y-111.76
X142.24Y-68.58
X142.24Y-111.76
X144.78Y-68.58
X144.78Y-111.76
X147.32Y-68.58
X147.32Y-111.76
X149.86Y-68.58
X149.86Y-111.76
X152.4Y-68.58
X152.4Y-111.76
X154.94Y-68.58
X154.94Y-111.76
X157.48Y-68.58
X157.48Y-111.76
X160.02Y-68.58
X160.02Y-111.76
X162.56Y-68.58
X162.56Y-111.76
X165.1Y-68.58
X165.1Y-71.12
X165.1Y-111.76
X167.64Y-68.58
X167.64Y-71.12
X167.64Y-111.76
X170.18Y-71.12
X170.18Y-73.66
X170.18Y-76.2
X170.18Y-78.74
X170.18Y-81.28
X170.18Y-83.82
X170.18Y-86.36
X170.18Y-88.9
X170.18Y-91.44
X170.18Y-93.98
X170.18Y-96.52
X170.18Y-99.06
X170.18Y-101.6
X170.18Y-104.14
X170.18Y-106.68
X170.18Y-109.22
T6
X106.68Y-64.77
X106.68Y-67.31
X106.68Y-69.85
X106.68Y-72.39
X106.68Y-74.93
X106.68Y-77.47
X106.68Y-80.01
X106.68Y-86.36
X106.68Y-88.9
X106.68Y-91.44
X106.68Y-93.98
X106.68Y-96.52
X106.68Y-99.06
X106.68Y-101.6
X106.68Y-104.14
X106.68Y-106.68
X106.68Y-109.22
X106.68Y-111.76
X109.22Y-64.77
X109.22Y-67.31
X109.22Y-69.85
X109.22Y-72.39
X109.22Y-74.93
X109.22Y-77.47
X109.22Y-80.01
X109.22Y-86.36
X109.22Y-88.9
X109.22Y-91.44
X109.22Y-93.98
X109.22Y-96.52
X109.22Y-99.06
X109.22Y-101.6
X109.22Y-104.14
X109.22Y-106.68
X109.22Y-109.22
X109.22Y-111.76
X114.3Y-58.42
X114.3Y-60.96
X129.54Y-124.46
X129.54Y-127.0
X132.08Y-124.46
X132.08Y-127.0
X134.62Y-124.46
X134.62Y-127.0
X137.16Y-124.46
X137.16Y-127.0
X139.7Y-124.46
X139.7Y-127.0
X142.24Y-124.46
X142.24Y-127.0
X144.78Y-124.46
X144.78Y-127.0
X147.32Y-124.46
X147.32Y-127.0
X149.86Y-124.46
X149.86Y-127.0
X152.4Y-124.46
X152.4Y-127.0
X154.94Y-124.46
X154.94Y-127.0
X157.48Y-124.46
X157.48Y-127.0
X160.02Y-124.46
X160.02Y-127.0
X162.56Y-124.46
X162.56Y-127.0
T7
X116.84Y-127.0
X119.38Y-127.0
T8
X120.65Y-53.34
X125.73Y-53.34
X130.81Y-53.34
X135.89Y-53.34
X140.97Y-53.34
X146.05Y-53.34
X153.67Y-53.34
X158.75Y-53.34
X163.83Y-53.34
X168.91Y-53.34
X173.99Y-53.34
X179.07Y-53.34
X187.96Y-68.58
X187.96Y-73.66
X187.96Y-78.74
X187.96Y-83.82
X187.96Y-88.9
X187.96Y-93.98
X187.96Y-99.06
X187.96Y-104.14
X187.96Y-109.22
X187.96Y-114.3
T9
X106.68Y-52.07
X106.68Y-125.73
X192.405Y-49.53
X192.405Y-129.54
T0
M30
