G04 #@! TF.GenerationSoftware,KiCad,Pcbnew,(7.0.0-55-gb63d0a3138)*
G04 #@! TF.CreationDate,2023-04-02T20:52:40+02:00*
G04 #@! TF.ProjectId,CANduino128,43414e64-7569-46e6-9f31-32382e6b6963,rev?*
G04 #@! TF.SameCoordinates,Original*
G04 #@! TF.FileFunction,Legend,Bot*
G04 #@! TF.FilePolarity,Positive*
%FSLAX46Y46*%
G04 Gerber Fmt 4.6, Leading zero omitted, Abs format (unit mm)*
G04 Created by KiCad (PCBNEW (7.0.0-55-gb63d0a3138)) date 2023-04-02 20:52:40*
%MOMM*%
%LPD*%
G01*
G04 APERTURE LIST*
G04 Aperture macros list*
%AMRoundRect*
0 Rectangle with rounded corners*
0 $1 Rounding radius*
0 $2 $3 $4 $5 $6 $7 $8 $9 X,Y pos of 4 corners*
0 Add a 4 corners polygon primitive as box body*
4,1,4,$2,$3,$4,$5,$6,$7,$8,$9,$2,$3,0*
0 Add four circle primitives for the rounded corners*
1,1,$1+$1,$2,$3*
1,1,$1+$1,$4,$5*
1,1,$1+$1,$6,$7*
1,1,$1+$1,$8,$9*
0 Add four rect primitives between the rounded corners*
20,1,$1+$1,$2,$3,$4,$5,0*
20,1,$1+$1,$4,$5,$6,$7,0*
20,1,$1+$1,$6,$7,$8,$9,0*
20,1,$1+$1,$8,$9,$2,$3,0*%
%AMFreePoly0*
4,1,37,0.600000,0.836603,0.636603,0.800000,0.650000,0.750000,0.650000,-0.750000,0.636603,-0.800000,0.600000,-0.836603,0.550000,-0.850000,0.000000,-0.850000,-0.018993,-0.844911,-0.071157,-0.844911,-0.099330,-0.840860,-0.235881,-0.800765,-0.261772,-0.788941,-0.381494,-0.712000,-0.403005,-0.693361,-0.496202,-0.585806,-0.511590,-0.561861,-0.570709,-0.432407,-0.578728,-0.405098,-0.598982,-0.264232,
-0.600000,-0.250000,-0.600000,0.250000,-0.598982,0.264232,-0.578728,0.405098,-0.570709,0.432407,-0.511590,0.561861,-0.496202,0.585806,-0.403005,0.693361,-0.381494,0.712000,-0.261772,0.788941,-0.235881,0.800765,-0.099330,0.840860,-0.071157,0.844911,-0.018993,0.844911,0.000000,0.850000,0.550000,0.850000,0.600000,0.836603,0.600000,0.836603,$1*%
%AMFreePoly1*
4,1,37,0.018993,0.844911,0.071157,0.844911,0.099330,0.840860,0.235881,0.800765,0.261772,0.788941,0.381494,0.712000,0.403005,0.693361,0.496202,0.585806,0.511590,0.561861,0.570709,0.432407,0.578728,0.405098,0.598982,0.264232,0.600000,0.250000,0.600000,-0.250000,0.598982,-0.264232,0.578728,-0.405098,0.570709,-0.432407,0.511590,-0.561861,0.496202,-0.585806,0.403005,-0.693361,
0.381494,-0.712000,0.261772,-0.788941,0.235881,-0.800765,0.099330,-0.840860,0.071157,-0.844911,0.018993,-0.844911,0.000000,-0.850000,-0.550000,-0.850000,-0.600000,-0.836603,-0.636603,-0.800000,-0.650000,-0.750000,-0.650000,0.750000,-0.636603,0.800000,-0.600000,0.836603,-0.550000,0.850000,0.000000,0.850000,0.018993,0.844911,0.018993,0.844911,$1*%
G04 Aperture macros list end*
%ADD10C,0.150000*%
%ADD11C,0.300000*%
%ADD12C,0.120000*%
%ADD13RoundRect,0.100000X-0.850000X0.850000X-0.850000X-0.850000X0.850000X-0.850000X0.850000X0.850000X0*%
%ADD14C,1.900000*%
%ADD15O,1.900000X1.900000*%
%ADD16RoundRect,0.350000X-0.550000X0.550000X-0.550000X-0.550000X0.550000X-0.550000X0.550000X0.550000X0*%
%ADD17RoundRect,0.100000X1.300000X-1.300000X1.300000X1.300000X-1.300000X1.300000X-1.300000X-1.300000X0*%
%ADD18C,2.800000*%
%ADD19RoundRect,0.100000X0.850000X0.850000X-0.850000X0.850000X-0.850000X-0.850000X0.850000X-0.850000X0*%
%ADD20C,1.000000*%
%ADD21C,6.600000*%
%ADD22RoundRect,0.100000X1.300000X1.300000X-1.300000X1.300000X-1.300000X-1.300000X1.300000X-1.300000X0*%
%ADD23RoundRect,0.100000X0.800000X0.800000X-0.800000X0.800000X-0.800000X-0.800000X0.800000X-0.800000X0*%
%ADD24C,1.800000*%
%ADD25O,1.800000X1.800000*%
%ADD26RoundRect,0.100000X-0.800000X1.200000X-0.800000X-1.200000X0.800000X-1.200000X0.800000X1.200000X0*%
%ADD27O,1.800000X2.600000*%
%ADD28RoundRect,0.100000X-1.200000X-0.800000X1.200000X-0.800000X1.200000X0.800000X-1.200000X0.800000X0*%
%ADD29O,2.600000X1.800000*%
%ADD30RoundRect,0.100000X0.800000X-1.200000X0.800000X1.200000X-0.800000X1.200000X-0.800000X-1.200000X0*%
%ADD31RoundRect,0.100000X1.200000X0.800000X-1.200000X0.800000X-1.200000X-0.800000X1.200000X-0.800000X0*%
%ADD32RoundRect,0.100000X1.050000X1.050000X-1.050000X1.050000X-1.050000X-1.050000X1.050000X-1.050000X0*%
%ADD33C,2.300000*%
%ADD34RoundRect,0.350000X-0.400000X-1.075000X0.400000X-1.075000X0.400000X1.075000X-0.400000X1.075000X0*%
%ADD35FreePoly0,270.000000*%
%ADD36RoundRect,0.100000X-0.750000X0.500000X-0.750000X-0.500000X0.750000X-0.500000X0.750000X0.500000X0*%
%ADD37FreePoly1,270.000000*%
%ADD38RoundRect,0.350000X1.075000X-0.400000X1.075000X0.400000X-1.075000X0.400000X-1.075000X-0.400000X0*%
G04 APERTURE END LIST*
D10*
X148590000Y-55880000D02*
X118110000Y-55880000D01*
X117475000Y-113030000D02*
X117475000Y-85090000D01*
X181610000Y-55880000D02*
X151130000Y-55880000D01*
X117475000Y-81280000D02*
X117475000Y-63500000D01*
D11*
X147479377Y-62697428D02*
X147479377Y-62389237D01*
X147479377Y-62389237D02*
X147402330Y-62235142D01*
X147402330Y-62235142D02*
X147248234Y-62081047D01*
X147248234Y-62081047D02*
X146940044Y-62003999D01*
X146940044Y-62003999D02*
X146400710Y-62003999D01*
X146400710Y-62003999D02*
X146092520Y-62081047D01*
X146092520Y-62081047D02*
X145938425Y-62235142D01*
X145938425Y-62235142D02*
X145861377Y-62389237D01*
X145861377Y-62389237D02*
X145861377Y-62697428D01*
X145861377Y-62697428D02*
X145938425Y-62851523D01*
X145938425Y-62851523D02*
X146092520Y-63005618D01*
X146092520Y-63005618D02*
X146400710Y-63082666D01*
X146400710Y-63082666D02*
X146940044Y-63082666D01*
X146940044Y-63082666D02*
X147248234Y-63005618D01*
X147248234Y-63005618D02*
X147402330Y-62851523D01*
X147402330Y-62851523D02*
X147479377Y-62697428D01*
X146015472Y-60385999D02*
X145938425Y-60463047D01*
X145938425Y-60463047D02*
X145861377Y-60694189D01*
X145861377Y-60694189D02*
X145861377Y-60848285D01*
X145861377Y-60848285D02*
X145938425Y-61079428D01*
X145938425Y-61079428D02*
X146092520Y-61233523D01*
X146092520Y-61233523D02*
X146246615Y-61310570D01*
X146246615Y-61310570D02*
X146554806Y-61387618D01*
X146554806Y-61387618D02*
X146785949Y-61387618D01*
X146785949Y-61387618D02*
X147094139Y-61310570D01*
X147094139Y-61310570D02*
X147248234Y-61233523D01*
X147248234Y-61233523D02*
X147402330Y-61079428D01*
X147402330Y-61079428D02*
X147479377Y-60848285D01*
X147479377Y-60848285D02*
X147479377Y-60694189D01*
X147479377Y-60694189D02*
X147402330Y-60463047D01*
X147402330Y-60463047D02*
X147325282Y-60385999D01*
X145861377Y-58845047D02*
X145861377Y-59769618D01*
X145861377Y-59307332D02*
X147479377Y-59307332D01*
X147479377Y-59307332D02*
X147248234Y-59461428D01*
X147248234Y-59461428D02*
X147094139Y-59615523D01*
X147094139Y-59615523D02*
X147017091Y-59769618D01*
X146323663Y-58228666D02*
X146323663Y-57458190D01*
X145861377Y-58382761D02*
X147479377Y-57843428D01*
X147479377Y-57843428D02*
X145861377Y-57304095D01*
X142237057Y-62928571D02*
X142237057Y-62620380D01*
X142237057Y-62620380D02*
X142160010Y-62466285D01*
X142160010Y-62466285D02*
X142005914Y-62312190D01*
X142005914Y-62312190D02*
X141697724Y-62235142D01*
X141697724Y-62235142D02*
X141158390Y-62235142D01*
X141158390Y-62235142D02*
X140850200Y-62312190D01*
X140850200Y-62312190D02*
X140696105Y-62466285D01*
X140696105Y-62466285D02*
X140619057Y-62620380D01*
X140619057Y-62620380D02*
X140619057Y-62928571D01*
X140619057Y-62928571D02*
X140696105Y-63082666D01*
X140696105Y-63082666D02*
X140850200Y-63236761D01*
X140850200Y-63236761D02*
X141158390Y-63313809D01*
X141158390Y-63313809D02*
X141697724Y-63313809D01*
X141697724Y-63313809D02*
X142005914Y-63236761D01*
X142005914Y-63236761D02*
X142160010Y-63082666D01*
X142160010Y-63082666D02*
X142237057Y-62928571D01*
X140773152Y-60617142D02*
X140696105Y-60694190D01*
X140696105Y-60694190D02*
X140619057Y-60925332D01*
X140619057Y-60925332D02*
X140619057Y-61079428D01*
X140619057Y-61079428D02*
X140696105Y-61310571D01*
X140696105Y-61310571D02*
X140850200Y-61464666D01*
X140850200Y-61464666D02*
X141004295Y-61541713D01*
X141004295Y-61541713D02*
X141312486Y-61618761D01*
X141312486Y-61618761D02*
X141543629Y-61618761D01*
X141543629Y-61618761D02*
X141851819Y-61541713D01*
X141851819Y-61541713D02*
X142005914Y-61464666D01*
X142005914Y-61464666D02*
X142160010Y-61310571D01*
X142160010Y-61310571D02*
X142237057Y-61079428D01*
X142237057Y-61079428D02*
X142237057Y-60925332D01*
X142237057Y-60925332D02*
X142160010Y-60694190D01*
X142160010Y-60694190D02*
X142082962Y-60617142D01*
X140619057Y-59076190D02*
X140619057Y-60000761D01*
X140619057Y-59538475D02*
X142237057Y-59538475D01*
X142237057Y-59538475D02*
X142005914Y-59692571D01*
X142005914Y-59692571D02*
X141851819Y-59846666D01*
X141851819Y-59846666D02*
X141774771Y-60000761D01*
X141466581Y-57843428D02*
X141389533Y-57612285D01*
X141389533Y-57612285D02*
X141312486Y-57535238D01*
X141312486Y-57535238D02*
X141158390Y-57458190D01*
X141158390Y-57458190D02*
X140927248Y-57458190D01*
X140927248Y-57458190D02*
X140773152Y-57535238D01*
X140773152Y-57535238D02*
X140696105Y-57612285D01*
X140696105Y-57612285D02*
X140619057Y-57766380D01*
X140619057Y-57766380D02*
X140619057Y-58382761D01*
X140619057Y-58382761D02*
X142237057Y-58382761D01*
X142237057Y-58382761D02*
X142237057Y-57843428D01*
X142237057Y-57843428D02*
X142160010Y-57689333D01*
X142160010Y-57689333D02*
X142082962Y-57612285D01*
X142082962Y-57612285D02*
X141928867Y-57535238D01*
X141928867Y-57535238D02*
X141774771Y-57535238D01*
X141774771Y-57535238D02*
X141620676Y-57612285D01*
X141620676Y-57612285D02*
X141543629Y-57689333D01*
X141543629Y-57689333D02*
X141466581Y-57843428D01*
X141466581Y-57843428D02*
X141466581Y-58382761D01*
X136994737Y-62928571D02*
X136994737Y-62620380D01*
X136994737Y-62620380D02*
X136917690Y-62466285D01*
X136917690Y-62466285D02*
X136763594Y-62312190D01*
X136763594Y-62312190D02*
X136455404Y-62235142D01*
X136455404Y-62235142D02*
X135916070Y-62235142D01*
X135916070Y-62235142D02*
X135607880Y-62312190D01*
X135607880Y-62312190D02*
X135453785Y-62466285D01*
X135453785Y-62466285D02*
X135376737Y-62620380D01*
X135376737Y-62620380D02*
X135376737Y-62928571D01*
X135376737Y-62928571D02*
X135453785Y-63082666D01*
X135453785Y-63082666D02*
X135607880Y-63236761D01*
X135607880Y-63236761D02*
X135916070Y-63313809D01*
X135916070Y-63313809D02*
X136455404Y-63313809D01*
X136455404Y-63313809D02*
X136763594Y-63236761D01*
X136763594Y-63236761D02*
X136917690Y-63082666D01*
X136917690Y-63082666D02*
X136994737Y-62928571D01*
X135530832Y-60617142D02*
X135453785Y-60694190D01*
X135453785Y-60694190D02*
X135376737Y-60925332D01*
X135376737Y-60925332D02*
X135376737Y-61079428D01*
X135376737Y-61079428D02*
X135453785Y-61310571D01*
X135453785Y-61310571D02*
X135607880Y-61464666D01*
X135607880Y-61464666D02*
X135761975Y-61541713D01*
X135761975Y-61541713D02*
X136070166Y-61618761D01*
X136070166Y-61618761D02*
X136301309Y-61618761D01*
X136301309Y-61618761D02*
X136609499Y-61541713D01*
X136609499Y-61541713D02*
X136763594Y-61464666D01*
X136763594Y-61464666D02*
X136917690Y-61310571D01*
X136917690Y-61310571D02*
X136994737Y-61079428D01*
X136994737Y-61079428D02*
X136994737Y-60925332D01*
X136994737Y-60925332D02*
X136917690Y-60694190D01*
X136917690Y-60694190D02*
X136840642Y-60617142D01*
X135376737Y-59076190D02*
X135376737Y-60000761D01*
X135376737Y-59538475D02*
X136994737Y-59538475D01*
X136994737Y-59538475D02*
X136763594Y-59692571D01*
X136763594Y-59692571D02*
X136609499Y-59846666D01*
X136609499Y-59846666D02*
X136532451Y-60000761D01*
X135530832Y-57458190D02*
X135453785Y-57535238D01*
X135453785Y-57535238D02*
X135376737Y-57766380D01*
X135376737Y-57766380D02*
X135376737Y-57920476D01*
X135376737Y-57920476D02*
X135453785Y-58151619D01*
X135453785Y-58151619D02*
X135607880Y-58305714D01*
X135607880Y-58305714D02*
X135761975Y-58382761D01*
X135761975Y-58382761D02*
X136070166Y-58459809D01*
X136070166Y-58459809D02*
X136301309Y-58459809D01*
X136301309Y-58459809D02*
X136609499Y-58382761D01*
X136609499Y-58382761D02*
X136763594Y-58305714D01*
X136763594Y-58305714D02*
X136917690Y-58151619D01*
X136917690Y-58151619D02*
X136994737Y-57920476D01*
X136994737Y-57920476D02*
X136994737Y-57766380D01*
X136994737Y-57766380D02*
X136917690Y-57535238D01*
X136917690Y-57535238D02*
X136840642Y-57458190D01*
X130134417Y-61464665D02*
X131752417Y-61464665D01*
X131752417Y-61464665D02*
X131752417Y-61079427D01*
X131752417Y-61079427D02*
X131675370Y-60848284D01*
X131675370Y-60848284D02*
X131521274Y-60694189D01*
X131521274Y-60694189D02*
X131367179Y-60617142D01*
X131367179Y-60617142D02*
X131058989Y-60540094D01*
X131058989Y-60540094D02*
X130827846Y-60540094D01*
X130827846Y-60540094D02*
X130519655Y-60617142D01*
X130519655Y-60617142D02*
X130365560Y-60694189D01*
X130365560Y-60694189D02*
X130211465Y-60848284D01*
X130211465Y-60848284D02*
X130134417Y-61079427D01*
X130134417Y-61079427D02*
X130134417Y-61464665D01*
X131598322Y-59923713D02*
X131675370Y-59846665D01*
X131675370Y-59846665D02*
X131752417Y-59692570D01*
X131752417Y-59692570D02*
X131752417Y-59307332D01*
X131752417Y-59307332D02*
X131675370Y-59153237D01*
X131675370Y-59153237D02*
X131598322Y-59076189D01*
X131598322Y-59076189D02*
X131444227Y-58999142D01*
X131444227Y-58999142D02*
X131290131Y-58999142D01*
X131290131Y-58999142D02*
X131058989Y-59076189D01*
X131058989Y-59076189D02*
X130134417Y-60000761D01*
X130134417Y-60000761D02*
X130134417Y-58999142D01*
X131752417Y-57997523D02*
X131752417Y-57843428D01*
X131752417Y-57843428D02*
X131675370Y-57689332D01*
X131675370Y-57689332D02*
X131598322Y-57612285D01*
X131598322Y-57612285D02*
X131444227Y-57535237D01*
X131444227Y-57535237D02*
X131136036Y-57458190D01*
X131136036Y-57458190D02*
X130750798Y-57458190D01*
X130750798Y-57458190D02*
X130442608Y-57535237D01*
X130442608Y-57535237D02*
X130288512Y-57612285D01*
X130288512Y-57612285D02*
X130211465Y-57689332D01*
X130211465Y-57689332D02*
X130134417Y-57843428D01*
X130134417Y-57843428D02*
X130134417Y-57997523D01*
X130134417Y-57997523D02*
X130211465Y-58151618D01*
X130211465Y-58151618D02*
X130288512Y-58228666D01*
X130288512Y-58228666D02*
X130442608Y-58305713D01*
X130442608Y-58305713D02*
X130750798Y-58382761D01*
X130750798Y-58382761D02*
X131136036Y-58382761D01*
X131136036Y-58382761D02*
X131444227Y-58305713D01*
X131444227Y-58305713D02*
X131598322Y-58228666D01*
X131598322Y-58228666D02*
X131675370Y-58151618D01*
X131675370Y-58151618D02*
X131752417Y-57997523D01*
X124892097Y-61464665D02*
X126510097Y-61464665D01*
X126510097Y-61464665D02*
X126510097Y-61079427D01*
X126510097Y-61079427D02*
X126433050Y-60848284D01*
X126433050Y-60848284D02*
X126278954Y-60694189D01*
X126278954Y-60694189D02*
X126124859Y-60617142D01*
X126124859Y-60617142D02*
X125816669Y-60540094D01*
X125816669Y-60540094D02*
X125585526Y-60540094D01*
X125585526Y-60540094D02*
X125277335Y-60617142D01*
X125277335Y-60617142D02*
X125123240Y-60694189D01*
X125123240Y-60694189D02*
X124969145Y-60848284D01*
X124969145Y-60848284D02*
X124892097Y-61079427D01*
X124892097Y-61079427D02*
X124892097Y-61464665D01*
X126356002Y-59923713D02*
X126433050Y-59846665D01*
X126433050Y-59846665D02*
X126510097Y-59692570D01*
X126510097Y-59692570D02*
X126510097Y-59307332D01*
X126510097Y-59307332D02*
X126433050Y-59153237D01*
X126433050Y-59153237D02*
X126356002Y-59076189D01*
X126356002Y-59076189D02*
X126201907Y-58999142D01*
X126201907Y-58999142D02*
X126047811Y-58999142D01*
X126047811Y-58999142D02*
X125816669Y-59076189D01*
X125816669Y-59076189D02*
X124892097Y-60000761D01*
X124892097Y-60000761D02*
X124892097Y-58999142D01*
X124892097Y-57458190D02*
X124892097Y-58382761D01*
X124892097Y-57920475D02*
X126510097Y-57920475D01*
X126510097Y-57920475D02*
X126278954Y-58074571D01*
X126278954Y-58074571D02*
X126124859Y-58228666D01*
X126124859Y-58228666D02*
X126047811Y-58382761D01*
X119649777Y-61464665D02*
X121267777Y-61464665D01*
X121267777Y-61464665D02*
X121267777Y-61079427D01*
X121267777Y-61079427D02*
X121190730Y-60848284D01*
X121190730Y-60848284D02*
X121036634Y-60694189D01*
X121036634Y-60694189D02*
X120882539Y-60617142D01*
X120882539Y-60617142D02*
X120574349Y-60540094D01*
X120574349Y-60540094D02*
X120343206Y-60540094D01*
X120343206Y-60540094D02*
X120035015Y-60617142D01*
X120035015Y-60617142D02*
X119880920Y-60694189D01*
X119880920Y-60694189D02*
X119726825Y-60848284D01*
X119726825Y-60848284D02*
X119649777Y-61079427D01*
X119649777Y-61079427D02*
X119649777Y-61464665D01*
X121113682Y-59923713D02*
X121190730Y-59846665D01*
X121190730Y-59846665D02*
X121267777Y-59692570D01*
X121267777Y-59692570D02*
X121267777Y-59307332D01*
X121267777Y-59307332D02*
X121190730Y-59153237D01*
X121190730Y-59153237D02*
X121113682Y-59076189D01*
X121113682Y-59076189D02*
X120959587Y-58999142D01*
X120959587Y-58999142D02*
X120805491Y-58999142D01*
X120805491Y-58999142D02*
X120574349Y-59076189D01*
X120574349Y-59076189D02*
X119649777Y-60000761D01*
X119649777Y-60000761D02*
X119649777Y-58999142D01*
X121113682Y-58382761D02*
X121190730Y-58305713D01*
X121190730Y-58305713D02*
X121267777Y-58151618D01*
X121267777Y-58151618D02*
X121267777Y-57766380D01*
X121267777Y-57766380D02*
X121190730Y-57612285D01*
X121190730Y-57612285D02*
X121113682Y-57535237D01*
X121113682Y-57535237D02*
X120959587Y-57458190D01*
X120959587Y-57458190D02*
X120805491Y-57458190D01*
X120805491Y-57458190D02*
X120574349Y-57535237D01*
X120574349Y-57535237D02*
X119649777Y-58459809D01*
X119649777Y-58459809D02*
X119649777Y-57458190D01*
D10*
X116633094Y-88886428D02*
X115871190Y-88886428D01*
X116252142Y-89267380D02*
X116252142Y-88505476D01*
X115490237Y-88267380D02*
X114871190Y-88267380D01*
X114871190Y-88267380D02*
X115204523Y-88648333D01*
X115204523Y-88648333D02*
X115061666Y-88648333D01*
X115061666Y-88648333D02*
X114966428Y-88695952D01*
X114966428Y-88695952D02*
X114918809Y-88743571D01*
X114918809Y-88743571D02*
X114871190Y-88838809D01*
X114871190Y-88838809D02*
X114871190Y-89076904D01*
X114871190Y-89076904D02*
X114918809Y-89172142D01*
X114918809Y-89172142D02*
X114966428Y-89219761D01*
X114966428Y-89219761D02*
X115061666Y-89267380D01*
X115061666Y-89267380D02*
X115347380Y-89267380D01*
X115347380Y-89267380D02*
X115442618Y-89219761D01*
X115442618Y-89219761D02*
X115490237Y-89172142D01*
X114442618Y-89172142D02*
X114394999Y-89219761D01*
X114394999Y-89219761D02*
X114442618Y-89267380D01*
X114442618Y-89267380D02*
X114490237Y-89219761D01*
X114490237Y-89219761D02*
X114442618Y-89172142D01*
X114442618Y-89172142D02*
X114442618Y-89267380D01*
X114061666Y-88267380D02*
X113442619Y-88267380D01*
X113442619Y-88267380D02*
X113775952Y-88648333D01*
X113775952Y-88648333D02*
X113633095Y-88648333D01*
X113633095Y-88648333D02*
X113537857Y-88695952D01*
X113537857Y-88695952D02*
X113490238Y-88743571D01*
X113490238Y-88743571D02*
X113442619Y-88838809D01*
X113442619Y-88838809D02*
X113442619Y-89076904D01*
X113442619Y-89076904D02*
X113490238Y-89172142D01*
X113490238Y-89172142D02*
X113537857Y-89219761D01*
X113537857Y-89219761D02*
X113633095Y-89267380D01*
X113633095Y-89267380D02*
X113918809Y-89267380D01*
X113918809Y-89267380D02*
X114014047Y-89219761D01*
X114014047Y-89219761D02*
X114061666Y-89172142D01*
X113156904Y-88267380D02*
X112823571Y-89267380D01*
X112823571Y-89267380D02*
X112490238Y-88267380D01*
X122453333Y-69265000D02*
X122548571Y-69217380D01*
X122548571Y-69217380D02*
X122691428Y-69217380D01*
X122691428Y-69217380D02*
X122834285Y-69265000D01*
X122834285Y-69265000D02*
X122929523Y-69360238D01*
X122929523Y-69360238D02*
X122977142Y-69455476D01*
X122977142Y-69455476D02*
X123024761Y-69645952D01*
X123024761Y-69645952D02*
X123024761Y-69788809D01*
X123024761Y-69788809D02*
X122977142Y-69979285D01*
X122977142Y-69979285D02*
X122929523Y-70074523D01*
X122929523Y-70074523D02*
X122834285Y-70169761D01*
X122834285Y-70169761D02*
X122691428Y-70217380D01*
X122691428Y-70217380D02*
X122596190Y-70217380D01*
X122596190Y-70217380D02*
X122453333Y-70169761D01*
X122453333Y-70169761D02*
X122405714Y-70122142D01*
X122405714Y-70122142D02*
X122405714Y-69788809D01*
X122405714Y-69788809D02*
X122596190Y-69788809D01*
X121977142Y-70217380D02*
X121977142Y-69217380D01*
X121977142Y-69217380D02*
X121405714Y-70217380D01*
X121405714Y-70217380D02*
X121405714Y-69217380D01*
X120929523Y-70217380D02*
X120929523Y-69217380D01*
X120929523Y-69217380D02*
X120691428Y-69217380D01*
X120691428Y-69217380D02*
X120548571Y-69265000D01*
X120548571Y-69265000D02*
X120453333Y-69360238D01*
X120453333Y-69360238D02*
X120405714Y-69455476D01*
X120405714Y-69455476D02*
X120358095Y-69645952D01*
X120358095Y-69645952D02*
X120358095Y-69788809D01*
X120358095Y-69788809D02*
X120405714Y-69979285D01*
X120405714Y-69979285D02*
X120453333Y-70074523D01*
X120453333Y-70074523D02*
X120548571Y-70169761D01*
X120548571Y-70169761D02*
X120691428Y-70217380D01*
X120691428Y-70217380D02*
X120929523Y-70217380D01*
X122405714Y-80282142D02*
X122453333Y-80329761D01*
X122453333Y-80329761D02*
X122596190Y-80377380D01*
X122596190Y-80377380D02*
X122691428Y-80377380D01*
X122691428Y-80377380D02*
X122834285Y-80329761D01*
X122834285Y-80329761D02*
X122929523Y-80234523D01*
X122929523Y-80234523D02*
X122977142Y-80139285D01*
X122977142Y-80139285D02*
X123024761Y-79948809D01*
X123024761Y-79948809D02*
X123024761Y-79805952D01*
X123024761Y-79805952D02*
X122977142Y-79615476D01*
X122977142Y-79615476D02*
X122929523Y-79520238D01*
X122929523Y-79520238D02*
X122834285Y-79425000D01*
X122834285Y-79425000D02*
X122691428Y-79377380D01*
X122691428Y-79377380D02*
X122596190Y-79377380D01*
X122596190Y-79377380D02*
X122453333Y-79425000D01*
X122453333Y-79425000D02*
X122405714Y-79472619D01*
X121500952Y-80377380D02*
X121977142Y-80377380D01*
X121977142Y-80377380D02*
X121977142Y-79377380D01*
X121167618Y-80377380D02*
X121167618Y-79377380D01*
X120596190Y-80377380D02*
X121024761Y-79805952D01*
X120596190Y-79377380D02*
X121167618Y-79948809D01*
X119977142Y-79377380D02*
X119786666Y-79377380D01*
X119786666Y-79377380D02*
X119691428Y-79425000D01*
X119691428Y-79425000D02*
X119596190Y-79520238D01*
X119596190Y-79520238D02*
X119548571Y-79710714D01*
X119548571Y-79710714D02*
X119548571Y-80044047D01*
X119548571Y-80044047D02*
X119596190Y-80234523D01*
X119596190Y-80234523D02*
X119691428Y-80329761D01*
X119691428Y-80329761D02*
X119786666Y-80377380D01*
X119786666Y-80377380D02*
X119977142Y-80377380D01*
X119977142Y-80377380D02*
X120072380Y-80329761D01*
X120072380Y-80329761D02*
X120167618Y-80234523D01*
X120167618Y-80234523D02*
X120215237Y-80044047D01*
X120215237Y-80044047D02*
X120215237Y-79710714D01*
X120215237Y-79710714D02*
X120167618Y-79520238D01*
X120167618Y-79520238D02*
X120072380Y-79425000D01*
X120072380Y-79425000D02*
X119977142Y-79377380D01*
X114680714Y-111175000D02*
X114775952Y-111127380D01*
X114775952Y-111127380D02*
X114918809Y-111127380D01*
X114918809Y-111127380D02*
X115061666Y-111175000D01*
X115061666Y-111175000D02*
X115156904Y-111270238D01*
X115156904Y-111270238D02*
X115204523Y-111365476D01*
X115204523Y-111365476D02*
X115252142Y-111555952D01*
X115252142Y-111555952D02*
X115252142Y-111698809D01*
X115252142Y-111698809D02*
X115204523Y-111889285D01*
X115204523Y-111889285D02*
X115156904Y-111984523D01*
X115156904Y-111984523D02*
X115061666Y-112079761D01*
X115061666Y-112079761D02*
X114918809Y-112127380D01*
X114918809Y-112127380D02*
X114823571Y-112127380D01*
X114823571Y-112127380D02*
X114680714Y-112079761D01*
X114680714Y-112079761D02*
X114633095Y-112032142D01*
X114633095Y-112032142D02*
X114633095Y-111698809D01*
X114633095Y-111698809D02*
X114823571Y-111698809D01*
X114204523Y-112127380D02*
X114204523Y-111127380D01*
X114204523Y-111127380D02*
X113633095Y-112127380D01*
X113633095Y-112127380D02*
X113633095Y-111127380D01*
X113156904Y-112127380D02*
X113156904Y-111127380D01*
X113156904Y-111127380D02*
X112918809Y-111127380D01*
X112918809Y-111127380D02*
X112775952Y-111175000D01*
X112775952Y-111175000D02*
X112680714Y-111270238D01*
X112680714Y-111270238D02*
X112633095Y-111365476D01*
X112633095Y-111365476D02*
X112585476Y-111555952D01*
X112585476Y-111555952D02*
X112585476Y-111698809D01*
X112585476Y-111698809D02*
X112633095Y-111889285D01*
X112633095Y-111889285D02*
X112680714Y-111984523D01*
X112680714Y-111984523D02*
X112775952Y-112079761D01*
X112775952Y-112079761D02*
X112918809Y-112127380D01*
X112918809Y-112127380D02*
X113156904Y-112127380D01*
X115944047Y-76837380D02*
X115753571Y-76837380D01*
X115753571Y-76837380D02*
X115658333Y-76885000D01*
X115658333Y-76885000D02*
X115563095Y-76980238D01*
X115563095Y-76980238D02*
X115515476Y-77170714D01*
X115515476Y-77170714D02*
X115515476Y-77504047D01*
X115515476Y-77504047D02*
X115563095Y-77694523D01*
X115563095Y-77694523D02*
X115658333Y-77789761D01*
X115658333Y-77789761D02*
X115753571Y-77837380D01*
X115753571Y-77837380D02*
X115944047Y-77837380D01*
X115944047Y-77837380D02*
X116039285Y-77789761D01*
X116039285Y-77789761D02*
X116134523Y-77694523D01*
X116134523Y-77694523D02*
X116182142Y-77504047D01*
X116182142Y-77504047D02*
X116182142Y-77170714D01*
X116182142Y-77170714D02*
X116134523Y-76980238D01*
X116134523Y-76980238D02*
X116039285Y-76885000D01*
X116039285Y-76885000D02*
X115944047Y-76837380D01*
X115134523Y-77789761D02*
X114991666Y-77837380D01*
X114991666Y-77837380D02*
X114753571Y-77837380D01*
X114753571Y-77837380D02*
X114658333Y-77789761D01*
X114658333Y-77789761D02*
X114610714Y-77742142D01*
X114610714Y-77742142D02*
X114563095Y-77646904D01*
X114563095Y-77646904D02*
X114563095Y-77551666D01*
X114563095Y-77551666D02*
X114610714Y-77456428D01*
X114610714Y-77456428D02*
X114658333Y-77408809D01*
X114658333Y-77408809D02*
X114753571Y-77361190D01*
X114753571Y-77361190D02*
X114944047Y-77313571D01*
X114944047Y-77313571D02*
X115039285Y-77265952D01*
X115039285Y-77265952D02*
X115086904Y-77218333D01*
X115086904Y-77218333D02*
X115134523Y-77123095D01*
X115134523Y-77123095D02*
X115134523Y-77027857D01*
X115134523Y-77027857D02*
X115086904Y-76932619D01*
X115086904Y-76932619D02*
X115039285Y-76885000D01*
X115039285Y-76885000D02*
X114944047Y-76837380D01*
X114944047Y-76837380D02*
X114705952Y-76837380D01*
X114705952Y-76837380D02*
X114563095Y-76885000D01*
X113563095Y-77742142D02*
X113610714Y-77789761D01*
X113610714Y-77789761D02*
X113753571Y-77837380D01*
X113753571Y-77837380D02*
X113848809Y-77837380D01*
X113848809Y-77837380D02*
X113991666Y-77789761D01*
X113991666Y-77789761D02*
X114086904Y-77694523D01*
X114086904Y-77694523D02*
X114134523Y-77599285D01*
X114134523Y-77599285D02*
X114182142Y-77408809D01*
X114182142Y-77408809D02*
X114182142Y-77265952D01*
X114182142Y-77265952D02*
X114134523Y-77075476D01*
X114134523Y-77075476D02*
X114086904Y-76980238D01*
X114086904Y-76980238D02*
X113991666Y-76885000D01*
X113991666Y-76885000D02*
X113848809Y-76837380D01*
X113848809Y-76837380D02*
X113753571Y-76837380D01*
X113753571Y-76837380D02*
X113610714Y-76885000D01*
X113610714Y-76885000D02*
X113563095Y-76932619D01*
X112610714Y-77837380D02*
X113182142Y-77837380D01*
X112896428Y-77837380D02*
X112896428Y-76837380D01*
X112896428Y-76837380D02*
X112991666Y-76980238D01*
X112991666Y-76980238D02*
X113086904Y-77075476D01*
X113086904Y-77075476D02*
X113182142Y-77123095D01*
X122453333Y-66725000D02*
X122548571Y-66677380D01*
X122548571Y-66677380D02*
X122691428Y-66677380D01*
X122691428Y-66677380D02*
X122834285Y-66725000D01*
X122834285Y-66725000D02*
X122929523Y-66820238D01*
X122929523Y-66820238D02*
X122977142Y-66915476D01*
X122977142Y-66915476D02*
X123024761Y-67105952D01*
X123024761Y-67105952D02*
X123024761Y-67248809D01*
X123024761Y-67248809D02*
X122977142Y-67439285D01*
X122977142Y-67439285D02*
X122929523Y-67534523D01*
X122929523Y-67534523D02*
X122834285Y-67629761D01*
X122834285Y-67629761D02*
X122691428Y-67677380D01*
X122691428Y-67677380D02*
X122596190Y-67677380D01*
X122596190Y-67677380D02*
X122453333Y-67629761D01*
X122453333Y-67629761D02*
X122405714Y-67582142D01*
X122405714Y-67582142D02*
X122405714Y-67248809D01*
X122405714Y-67248809D02*
X122596190Y-67248809D01*
X121977142Y-67677380D02*
X121977142Y-66677380D01*
X121977142Y-66677380D02*
X121405714Y-67677380D01*
X121405714Y-67677380D02*
X121405714Y-66677380D01*
X120929523Y-67677380D02*
X120929523Y-66677380D01*
X120929523Y-66677380D02*
X120691428Y-66677380D01*
X120691428Y-66677380D02*
X120548571Y-66725000D01*
X120548571Y-66725000D02*
X120453333Y-66820238D01*
X120453333Y-66820238D02*
X120405714Y-66915476D01*
X120405714Y-66915476D02*
X120358095Y-67105952D01*
X120358095Y-67105952D02*
X120358095Y-67248809D01*
X120358095Y-67248809D02*
X120405714Y-67439285D01*
X120405714Y-67439285D02*
X120453333Y-67534523D01*
X120453333Y-67534523D02*
X120548571Y-67629761D01*
X120548571Y-67629761D02*
X120691428Y-67677380D01*
X120691428Y-67677380D02*
X120929523Y-67677380D01*
X114299762Y-86727380D02*
X114633095Y-86251190D01*
X114871190Y-86727380D02*
X114871190Y-85727380D01*
X114871190Y-85727380D02*
X114490238Y-85727380D01*
X114490238Y-85727380D02*
X114395000Y-85775000D01*
X114395000Y-85775000D02*
X114347381Y-85822619D01*
X114347381Y-85822619D02*
X114299762Y-85917857D01*
X114299762Y-85917857D02*
X114299762Y-86060714D01*
X114299762Y-86060714D02*
X114347381Y-86155952D01*
X114347381Y-86155952D02*
X114395000Y-86203571D01*
X114395000Y-86203571D02*
X114490238Y-86251190D01*
X114490238Y-86251190D02*
X114871190Y-86251190D01*
X113918809Y-86679761D02*
X113775952Y-86727380D01*
X113775952Y-86727380D02*
X113537857Y-86727380D01*
X113537857Y-86727380D02*
X113442619Y-86679761D01*
X113442619Y-86679761D02*
X113395000Y-86632142D01*
X113395000Y-86632142D02*
X113347381Y-86536904D01*
X113347381Y-86536904D02*
X113347381Y-86441666D01*
X113347381Y-86441666D02*
X113395000Y-86346428D01*
X113395000Y-86346428D02*
X113442619Y-86298809D01*
X113442619Y-86298809D02*
X113537857Y-86251190D01*
X113537857Y-86251190D02*
X113728333Y-86203571D01*
X113728333Y-86203571D02*
X113823571Y-86155952D01*
X113823571Y-86155952D02*
X113871190Y-86108333D01*
X113871190Y-86108333D02*
X113918809Y-86013095D01*
X113918809Y-86013095D02*
X113918809Y-85917857D01*
X113918809Y-85917857D02*
X113871190Y-85822619D01*
X113871190Y-85822619D02*
X113823571Y-85775000D01*
X113823571Y-85775000D02*
X113728333Y-85727380D01*
X113728333Y-85727380D02*
X113490238Y-85727380D01*
X113490238Y-85727380D02*
X113347381Y-85775000D01*
X113061666Y-85727380D02*
X112490238Y-85727380D01*
X112775952Y-86727380D02*
X112775952Y-85727380D01*
X115009286Y-85375000D02*
X112495000Y-85375000D01*
X122405714Y-75202142D02*
X122453333Y-75249761D01*
X122453333Y-75249761D02*
X122596190Y-75297380D01*
X122596190Y-75297380D02*
X122691428Y-75297380D01*
X122691428Y-75297380D02*
X122834285Y-75249761D01*
X122834285Y-75249761D02*
X122929523Y-75154523D01*
X122929523Y-75154523D02*
X122977142Y-75059285D01*
X122977142Y-75059285D02*
X123024761Y-74868809D01*
X123024761Y-74868809D02*
X123024761Y-74725952D01*
X123024761Y-74725952D02*
X122977142Y-74535476D01*
X122977142Y-74535476D02*
X122929523Y-74440238D01*
X122929523Y-74440238D02*
X122834285Y-74345000D01*
X122834285Y-74345000D02*
X122691428Y-74297380D01*
X122691428Y-74297380D02*
X122596190Y-74297380D01*
X122596190Y-74297380D02*
X122453333Y-74345000D01*
X122453333Y-74345000D02*
X122405714Y-74392619D01*
X122024761Y-75011666D02*
X121548571Y-75011666D01*
X122119999Y-75297380D02*
X121786666Y-74297380D01*
X121786666Y-74297380D02*
X121453333Y-75297380D01*
X121119999Y-75297380D02*
X121119999Y-74297380D01*
X121119999Y-74297380D02*
X120548571Y-75297380D01*
X120548571Y-75297380D02*
X120548571Y-74297380D01*
X119548571Y-75297380D02*
X120119999Y-75297380D01*
X119834285Y-75297380D02*
X119834285Y-74297380D01*
X119834285Y-74297380D02*
X119929523Y-74440238D01*
X119929523Y-74440238D02*
X120024761Y-74535476D01*
X120024761Y-74535476D02*
X120119999Y-74583095D01*
X119119999Y-75297380D02*
X119119999Y-74297380D01*
X119119999Y-74773571D02*
X118548571Y-74773571D01*
X118548571Y-75297380D02*
X118548571Y-74297380D01*
X115204523Y-106666428D02*
X114442619Y-106666428D01*
X114823571Y-107047380D02*
X114823571Y-106285476D01*
X113490238Y-106047380D02*
X113966428Y-106047380D01*
X113966428Y-106047380D02*
X114014047Y-106523571D01*
X114014047Y-106523571D02*
X113966428Y-106475952D01*
X113966428Y-106475952D02*
X113871190Y-106428333D01*
X113871190Y-106428333D02*
X113633095Y-106428333D01*
X113633095Y-106428333D02*
X113537857Y-106475952D01*
X113537857Y-106475952D02*
X113490238Y-106523571D01*
X113490238Y-106523571D02*
X113442619Y-106618809D01*
X113442619Y-106618809D02*
X113442619Y-106856904D01*
X113442619Y-106856904D02*
X113490238Y-106952142D01*
X113490238Y-106952142D02*
X113537857Y-106999761D01*
X113537857Y-106999761D02*
X113633095Y-107047380D01*
X113633095Y-107047380D02*
X113871190Y-107047380D01*
X113871190Y-107047380D02*
X113966428Y-106999761D01*
X113966428Y-106999761D02*
X114014047Y-106952142D01*
X113156904Y-106047380D02*
X112823571Y-107047380D01*
X112823571Y-107047380D02*
X112490238Y-106047380D01*
X116055714Y-70122142D02*
X116103333Y-70169761D01*
X116103333Y-70169761D02*
X116246190Y-70217380D01*
X116246190Y-70217380D02*
X116341428Y-70217380D01*
X116341428Y-70217380D02*
X116484285Y-70169761D01*
X116484285Y-70169761D02*
X116579523Y-70074523D01*
X116579523Y-70074523D02*
X116627142Y-69979285D01*
X116627142Y-69979285D02*
X116674761Y-69788809D01*
X116674761Y-69788809D02*
X116674761Y-69645952D01*
X116674761Y-69645952D02*
X116627142Y-69455476D01*
X116627142Y-69455476D02*
X116579523Y-69360238D01*
X116579523Y-69360238D02*
X116484285Y-69265000D01*
X116484285Y-69265000D02*
X116341428Y-69217380D01*
X116341428Y-69217380D02*
X116246190Y-69217380D01*
X116246190Y-69217380D02*
X116103333Y-69265000D01*
X116103333Y-69265000D02*
X116055714Y-69312619D01*
X115674761Y-69931666D02*
X115198571Y-69931666D01*
X115769999Y-70217380D02*
X115436666Y-69217380D01*
X115436666Y-69217380D02*
X115103333Y-70217380D01*
X114769999Y-70217380D02*
X114769999Y-69217380D01*
X114769999Y-69217380D02*
X114198571Y-70217380D01*
X114198571Y-70217380D02*
X114198571Y-69217380D01*
X113531904Y-69217380D02*
X113436666Y-69217380D01*
X113436666Y-69217380D02*
X113341428Y-69265000D01*
X113341428Y-69265000D02*
X113293809Y-69312619D01*
X113293809Y-69312619D02*
X113246190Y-69407857D01*
X113246190Y-69407857D02*
X113198571Y-69598333D01*
X113198571Y-69598333D02*
X113198571Y-69836428D01*
X113198571Y-69836428D02*
X113246190Y-70026904D01*
X113246190Y-70026904D02*
X113293809Y-70122142D01*
X113293809Y-70122142D02*
X113341428Y-70169761D01*
X113341428Y-70169761D02*
X113436666Y-70217380D01*
X113436666Y-70217380D02*
X113531904Y-70217380D01*
X113531904Y-70217380D02*
X113627142Y-70169761D01*
X113627142Y-70169761D02*
X113674761Y-70122142D01*
X113674761Y-70122142D02*
X113722380Y-70026904D01*
X113722380Y-70026904D02*
X113769999Y-69836428D01*
X113769999Y-69836428D02*
X113769999Y-69598333D01*
X113769999Y-69598333D02*
X113722380Y-69407857D01*
X113722380Y-69407857D02*
X113674761Y-69312619D01*
X113674761Y-69312619D02*
X113627142Y-69265000D01*
X113627142Y-69265000D02*
X113531904Y-69217380D01*
X112769999Y-70217380D02*
X112769999Y-69217380D01*
X112769999Y-69693571D02*
X112198571Y-69693571D01*
X112198571Y-70217380D02*
X112198571Y-69217380D01*
X114680714Y-103555000D02*
X114775952Y-103507380D01*
X114775952Y-103507380D02*
X114918809Y-103507380D01*
X114918809Y-103507380D02*
X115061666Y-103555000D01*
X115061666Y-103555000D02*
X115156904Y-103650238D01*
X115156904Y-103650238D02*
X115204523Y-103745476D01*
X115204523Y-103745476D02*
X115252142Y-103935952D01*
X115252142Y-103935952D02*
X115252142Y-104078809D01*
X115252142Y-104078809D02*
X115204523Y-104269285D01*
X115204523Y-104269285D02*
X115156904Y-104364523D01*
X115156904Y-104364523D02*
X115061666Y-104459761D01*
X115061666Y-104459761D02*
X114918809Y-104507380D01*
X114918809Y-104507380D02*
X114823571Y-104507380D01*
X114823571Y-104507380D02*
X114680714Y-104459761D01*
X114680714Y-104459761D02*
X114633095Y-104412142D01*
X114633095Y-104412142D02*
X114633095Y-104078809D01*
X114633095Y-104078809D02*
X114823571Y-104078809D01*
X114204523Y-104507380D02*
X114204523Y-103507380D01*
X114204523Y-103507380D02*
X113633095Y-104507380D01*
X113633095Y-104507380D02*
X113633095Y-103507380D01*
X113156904Y-104507380D02*
X113156904Y-103507380D01*
X113156904Y-103507380D02*
X112918809Y-103507380D01*
X112918809Y-103507380D02*
X112775952Y-103555000D01*
X112775952Y-103555000D02*
X112680714Y-103650238D01*
X112680714Y-103650238D02*
X112633095Y-103745476D01*
X112633095Y-103745476D02*
X112585476Y-103935952D01*
X112585476Y-103935952D02*
X112585476Y-104078809D01*
X112585476Y-104078809D02*
X112633095Y-104269285D01*
X112633095Y-104269285D02*
X112680714Y-104364523D01*
X112680714Y-104364523D02*
X112775952Y-104459761D01*
X112775952Y-104459761D02*
X112918809Y-104507380D01*
X112918809Y-104507380D02*
X113156904Y-104507380D01*
X122316904Y-111746428D02*
X121555000Y-111746428D01*
X121935952Y-112127380D02*
X121935952Y-111365476D01*
X120745476Y-111603571D02*
X120602619Y-111651190D01*
X120602619Y-111651190D02*
X120555000Y-111698809D01*
X120555000Y-111698809D02*
X120507381Y-111794047D01*
X120507381Y-111794047D02*
X120507381Y-111936904D01*
X120507381Y-111936904D02*
X120555000Y-112032142D01*
X120555000Y-112032142D02*
X120602619Y-112079761D01*
X120602619Y-112079761D02*
X120697857Y-112127380D01*
X120697857Y-112127380D02*
X121078809Y-112127380D01*
X121078809Y-112127380D02*
X121078809Y-111127380D01*
X121078809Y-111127380D02*
X120745476Y-111127380D01*
X120745476Y-111127380D02*
X120650238Y-111175000D01*
X120650238Y-111175000D02*
X120602619Y-111222619D01*
X120602619Y-111222619D02*
X120555000Y-111317857D01*
X120555000Y-111317857D02*
X120555000Y-111413095D01*
X120555000Y-111413095D02*
X120602619Y-111508333D01*
X120602619Y-111508333D02*
X120650238Y-111555952D01*
X120650238Y-111555952D02*
X120745476Y-111603571D01*
X120745476Y-111603571D02*
X121078809Y-111603571D01*
X119650238Y-112127380D02*
X119650238Y-111603571D01*
X119650238Y-111603571D02*
X119697857Y-111508333D01*
X119697857Y-111508333D02*
X119793095Y-111460714D01*
X119793095Y-111460714D02*
X119983571Y-111460714D01*
X119983571Y-111460714D02*
X120078809Y-111508333D01*
X119650238Y-112079761D02*
X119745476Y-112127380D01*
X119745476Y-112127380D02*
X119983571Y-112127380D01*
X119983571Y-112127380D02*
X120078809Y-112079761D01*
X120078809Y-112079761D02*
X120126428Y-111984523D01*
X120126428Y-111984523D02*
X120126428Y-111889285D01*
X120126428Y-111889285D02*
X120078809Y-111794047D01*
X120078809Y-111794047D02*
X119983571Y-111746428D01*
X119983571Y-111746428D02*
X119745476Y-111746428D01*
X119745476Y-111746428D02*
X119650238Y-111698809D01*
X119316904Y-111460714D02*
X118935952Y-111460714D01*
X119174047Y-111127380D02*
X119174047Y-111984523D01*
X119174047Y-111984523D02*
X119126428Y-112079761D01*
X119126428Y-112079761D02*
X119031190Y-112127380D01*
X119031190Y-112127380D02*
X118935952Y-112127380D01*
X118745475Y-111460714D02*
X118364523Y-111460714D01*
X118602618Y-111127380D02*
X118602618Y-111984523D01*
X118602618Y-111984523D02*
X118554999Y-112079761D01*
X118554999Y-112079761D02*
X118459761Y-112127380D01*
X118459761Y-112127380D02*
X118364523Y-112127380D01*
X114705952Y-79425000D02*
X114801190Y-79377380D01*
X114801190Y-79377380D02*
X114944047Y-79377380D01*
X114944047Y-79377380D02*
X115086904Y-79425000D01*
X115086904Y-79425000D02*
X115182142Y-79520238D01*
X115182142Y-79520238D02*
X115229761Y-79615476D01*
X115229761Y-79615476D02*
X115277380Y-79805952D01*
X115277380Y-79805952D02*
X115277380Y-79948809D01*
X115277380Y-79948809D02*
X115229761Y-80139285D01*
X115229761Y-80139285D02*
X115182142Y-80234523D01*
X115182142Y-80234523D02*
X115086904Y-80329761D01*
X115086904Y-80329761D02*
X114944047Y-80377380D01*
X114944047Y-80377380D02*
X114848809Y-80377380D01*
X114848809Y-80377380D02*
X114705952Y-80329761D01*
X114705952Y-80329761D02*
X114658333Y-80282142D01*
X114658333Y-80282142D02*
X114658333Y-79948809D01*
X114658333Y-79948809D02*
X114848809Y-79948809D01*
X114229761Y-80377380D02*
X114229761Y-79377380D01*
X114229761Y-79377380D02*
X113658333Y-80377380D01*
X113658333Y-80377380D02*
X113658333Y-79377380D01*
X113182142Y-80377380D02*
X113182142Y-79377380D01*
X113182142Y-79377380D02*
X112944047Y-79377380D01*
X112944047Y-79377380D02*
X112801190Y-79425000D01*
X112801190Y-79425000D02*
X112705952Y-79520238D01*
X112705952Y-79520238D02*
X112658333Y-79615476D01*
X112658333Y-79615476D02*
X112610714Y-79805952D01*
X112610714Y-79805952D02*
X112610714Y-79948809D01*
X112610714Y-79948809D02*
X112658333Y-80139285D01*
X112658333Y-80139285D02*
X112705952Y-80234523D01*
X112705952Y-80234523D02*
X112801190Y-80329761D01*
X112801190Y-80329761D02*
X112944047Y-80377380D01*
X112944047Y-80377380D02*
X113182142Y-80377380D01*
X121793095Y-103555000D02*
X121888333Y-103507380D01*
X121888333Y-103507380D02*
X122031190Y-103507380D01*
X122031190Y-103507380D02*
X122174047Y-103555000D01*
X122174047Y-103555000D02*
X122269285Y-103650238D01*
X122269285Y-103650238D02*
X122316904Y-103745476D01*
X122316904Y-103745476D02*
X122364523Y-103935952D01*
X122364523Y-103935952D02*
X122364523Y-104078809D01*
X122364523Y-104078809D02*
X122316904Y-104269285D01*
X122316904Y-104269285D02*
X122269285Y-104364523D01*
X122269285Y-104364523D02*
X122174047Y-104459761D01*
X122174047Y-104459761D02*
X122031190Y-104507380D01*
X122031190Y-104507380D02*
X121935952Y-104507380D01*
X121935952Y-104507380D02*
X121793095Y-104459761D01*
X121793095Y-104459761D02*
X121745476Y-104412142D01*
X121745476Y-104412142D02*
X121745476Y-104078809D01*
X121745476Y-104078809D02*
X121935952Y-104078809D01*
X121316904Y-104507380D02*
X121316904Y-103507380D01*
X121316904Y-103507380D02*
X120745476Y-104507380D01*
X120745476Y-104507380D02*
X120745476Y-103507380D01*
X120269285Y-104507380D02*
X120269285Y-103507380D01*
X120269285Y-103507380D02*
X120031190Y-103507380D01*
X120031190Y-103507380D02*
X119888333Y-103555000D01*
X119888333Y-103555000D02*
X119793095Y-103650238D01*
X119793095Y-103650238D02*
X119745476Y-103745476D01*
X119745476Y-103745476D02*
X119697857Y-103935952D01*
X119697857Y-103935952D02*
X119697857Y-104078809D01*
X119697857Y-104078809D02*
X119745476Y-104269285D01*
X119745476Y-104269285D02*
X119793095Y-104364523D01*
X119793095Y-104364523D02*
X119888333Y-104459761D01*
X119888333Y-104459761D02*
X120031190Y-104507380D01*
X120031190Y-104507380D02*
X120269285Y-104507380D01*
D11*
X180499377Y-62697428D02*
X180499377Y-62389237D01*
X180499377Y-62389237D02*
X180422330Y-62235142D01*
X180422330Y-62235142D02*
X180268234Y-62081047D01*
X180268234Y-62081047D02*
X179960044Y-62003999D01*
X179960044Y-62003999D02*
X179420710Y-62003999D01*
X179420710Y-62003999D02*
X179112520Y-62081047D01*
X179112520Y-62081047D02*
X178958425Y-62235142D01*
X178958425Y-62235142D02*
X178881377Y-62389237D01*
X178881377Y-62389237D02*
X178881377Y-62697428D01*
X178881377Y-62697428D02*
X178958425Y-62851523D01*
X178958425Y-62851523D02*
X179112520Y-63005618D01*
X179112520Y-63005618D02*
X179420710Y-63082666D01*
X179420710Y-63082666D02*
X179960044Y-63082666D01*
X179960044Y-63082666D02*
X180268234Y-63005618D01*
X180268234Y-63005618D02*
X180422330Y-62851523D01*
X180422330Y-62851523D02*
X180499377Y-62697428D01*
X179035472Y-60385999D02*
X178958425Y-60463047D01*
X178958425Y-60463047D02*
X178881377Y-60694189D01*
X178881377Y-60694189D02*
X178881377Y-60848285D01*
X178881377Y-60848285D02*
X178958425Y-61079428D01*
X178958425Y-61079428D02*
X179112520Y-61233523D01*
X179112520Y-61233523D02*
X179266615Y-61310570D01*
X179266615Y-61310570D02*
X179574806Y-61387618D01*
X179574806Y-61387618D02*
X179805949Y-61387618D01*
X179805949Y-61387618D02*
X180114139Y-61310570D01*
X180114139Y-61310570D02*
X180268234Y-61233523D01*
X180268234Y-61233523D02*
X180422330Y-61079428D01*
X180422330Y-61079428D02*
X180499377Y-60848285D01*
X180499377Y-60848285D02*
X180499377Y-60694189D01*
X180499377Y-60694189D02*
X180422330Y-60463047D01*
X180422330Y-60463047D02*
X180345282Y-60385999D01*
X180499377Y-59846666D02*
X180499377Y-58845047D01*
X180499377Y-58845047D02*
X179882996Y-59384380D01*
X179882996Y-59384380D02*
X179882996Y-59153237D01*
X179882996Y-59153237D02*
X179805949Y-58999142D01*
X179805949Y-58999142D02*
X179728901Y-58922094D01*
X179728901Y-58922094D02*
X179574806Y-58845047D01*
X179574806Y-58845047D02*
X179189568Y-58845047D01*
X179189568Y-58845047D02*
X179035472Y-58922094D01*
X179035472Y-58922094D02*
X178958425Y-58999142D01*
X178958425Y-58999142D02*
X178881377Y-59153237D01*
X178881377Y-59153237D02*
X178881377Y-59615523D01*
X178881377Y-59615523D02*
X178958425Y-59769618D01*
X178958425Y-59769618D02*
X179035472Y-59846666D01*
X179343663Y-58228666D02*
X179343663Y-57458190D01*
X178881377Y-58382761D02*
X180499377Y-57843428D01*
X180499377Y-57843428D02*
X178881377Y-57304095D01*
X175257057Y-62928571D02*
X175257057Y-62620380D01*
X175257057Y-62620380D02*
X175180010Y-62466285D01*
X175180010Y-62466285D02*
X175025914Y-62312190D01*
X175025914Y-62312190D02*
X174717724Y-62235142D01*
X174717724Y-62235142D02*
X174178390Y-62235142D01*
X174178390Y-62235142D02*
X173870200Y-62312190D01*
X173870200Y-62312190D02*
X173716105Y-62466285D01*
X173716105Y-62466285D02*
X173639057Y-62620380D01*
X173639057Y-62620380D02*
X173639057Y-62928571D01*
X173639057Y-62928571D02*
X173716105Y-63082666D01*
X173716105Y-63082666D02*
X173870200Y-63236761D01*
X173870200Y-63236761D02*
X174178390Y-63313809D01*
X174178390Y-63313809D02*
X174717724Y-63313809D01*
X174717724Y-63313809D02*
X175025914Y-63236761D01*
X175025914Y-63236761D02*
X175180010Y-63082666D01*
X175180010Y-63082666D02*
X175257057Y-62928571D01*
X173793152Y-60617142D02*
X173716105Y-60694190D01*
X173716105Y-60694190D02*
X173639057Y-60925332D01*
X173639057Y-60925332D02*
X173639057Y-61079428D01*
X173639057Y-61079428D02*
X173716105Y-61310571D01*
X173716105Y-61310571D02*
X173870200Y-61464666D01*
X173870200Y-61464666D02*
X174024295Y-61541713D01*
X174024295Y-61541713D02*
X174332486Y-61618761D01*
X174332486Y-61618761D02*
X174563629Y-61618761D01*
X174563629Y-61618761D02*
X174871819Y-61541713D01*
X174871819Y-61541713D02*
X175025914Y-61464666D01*
X175025914Y-61464666D02*
X175180010Y-61310571D01*
X175180010Y-61310571D02*
X175257057Y-61079428D01*
X175257057Y-61079428D02*
X175257057Y-60925332D01*
X175257057Y-60925332D02*
X175180010Y-60694190D01*
X175180010Y-60694190D02*
X175102962Y-60617142D01*
X175257057Y-60077809D02*
X175257057Y-59076190D01*
X175257057Y-59076190D02*
X174640676Y-59615523D01*
X174640676Y-59615523D02*
X174640676Y-59384380D01*
X174640676Y-59384380D02*
X174563629Y-59230285D01*
X174563629Y-59230285D02*
X174486581Y-59153237D01*
X174486581Y-59153237D02*
X174332486Y-59076190D01*
X174332486Y-59076190D02*
X173947248Y-59076190D01*
X173947248Y-59076190D02*
X173793152Y-59153237D01*
X173793152Y-59153237D02*
X173716105Y-59230285D01*
X173716105Y-59230285D02*
X173639057Y-59384380D01*
X173639057Y-59384380D02*
X173639057Y-59846666D01*
X173639057Y-59846666D02*
X173716105Y-60000761D01*
X173716105Y-60000761D02*
X173793152Y-60077809D01*
X174486581Y-57843428D02*
X174409533Y-57612285D01*
X174409533Y-57612285D02*
X174332486Y-57535238D01*
X174332486Y-57535238D02*
X174178390Y-57458190D01*
X174178390Y-57458190D02*
X173947248Y-57458190D01*
X173947248Y-57458190D02*
X173793152Y-57535238D01*
X173793152Y-57535238D02*
X173716105Y-57612285D01*
X173716105Y-57612285D02*
X173639057Y-57766380D01*
X173639057Y-57766380D02*
X173639057Y-58382761D01*
X173639057Y-58382761D02*
X175257057Y-58382761D01*
X175257057Y-58382761D02*
X175257057Y-57843428D01*
X175257057Y-57843428D02*
X175180010Y-57689333D01*
X175180010Y-57689333D02*
X175102962Y-57612285D01*
X175102962Y-57612285D02*
X174948867Y-57535238D01*
X174948867Y-57535238D02*
X174794771Y-57535238D01*
X174794771Y-57535238D02*
X174640676Y-57612285D01*
X174640676Y-57612285D02*
X174563629Y-57689333D01*
X174563629Y-57689333D02*
X174486581Y-57843428D01*
X174486581Y-57843428D02*
X174486581Y-58382761D01*
X170014737Y-62928571D02*
X170014737Y-62620380D01*
X170014737Y-62620380D02*
X169937690Y-62466285D01*
X169937690Y-62466285D02*
X169783594Y-62312190D01*
X169783594Y-62312190D02*
X169475404Y-62235142D01*
X169475404Y-62235142D02*
X168936070Y-62235142D01*
X168936070Y-62235142D02*
X168627880Y-62312190D01*
X168627880Y-62312190D02*
X168473785Y-62466285D01*
X168473785Y-62466285D02*
X168396737Y-62620380D01*
X168396737Y-62620380D02*
X168396737Y-62928571D01*
X168396737Y-62928571D02*
X168473785Y-63082666D01*
X168473785Y-63082666D02*
X168627880Y-63236761D01*
X168627880Y-63236761D02*
X168936070Y-63313809D01*
X168936070Y-63313809D02*
X169475404Y-63313809D01*
X169475404Y-63313809D02*
X169783594Y-63236761D01*
X169783594Y-63236761D02*
X169937690Y-63082666D01*
X169937690Y-63082666D02*
X170014737Y-62928571D01*
X168550832Y-60617142D02*
X168473785Y-60694190D01*
X168473785Y-60694190D02*
X168396737Y-60925332D01*
X168396737Y-60925332D02*
X168396737Y-61079428D01*
X168396737Y-61079428D02*
X168473785Y-61310571D01*
X168473785Y-61310571D02*
X168627880Y-61464666D01*
X168627880Y-61464666D02*
X168781975Y-61541713D01*
X168781975Y-61541713D02*
X169090166Y-61618761D01*
X169090166Y-61618761D02*
X169321309Y-61618761D01*
X169321309Y-61618761D02*
X169629499Y-61541713D01*
X169629499Y-61541713D02*
X169783594Y-61464666D01*
X169783594Y-61464666D02*
X169937690Y-61310571D01*
X169937690Y-61310571D02*
X170014737Y-61079428D01*
X170014737Y-61079428D02*
X170014737Y-60925332D01*
X170014737Y-60925332D02*
X169937690Y-60694190D01*
X169937690Y-60694190D02*
X169860642Y-60617142D01*
X170014737Y-60077809D02*
X170014737Y-59076190D01*
X170014737Y-59076190D02*
X169398356Y-59615523D01*
X169398356Y-59615523D02*
X169398356Y-59384380D01*
X169398356Y-59384380D02*
X169321309Y-59230285D01*
X169321309Y-59230285D02*
X169244261Y-59153237D01*
X169244261Y-59153237D02*
X169090166Y-59076190D01*
X169090166Y-59076190D02*
X168704928Y-59076190D01*
X168704928Y-59076190D02*
X168550832Y-59153237D01*
X168550832Y-59153237D02*
X168473785Y-59230285D01*
X168473785Y-59230285D02*
X168396737Y-59384380D01*
X168396737Y-59384380D02*
X168396737Y-59846666D01*
X168396737Y-59846666D02*
X168473785Y-60000761D01*
X168473785Y-60000761D02*
X168550832Y-60077809D01*
X168550832Y-57458190D02*
X168473785Y-57535238D01*
X168473785Y-57535238D02*
X168396737Y-57766380D01*
X168396737Y-57766380D02*
X168396737Y-57920476D01*
X168396737Y-57920476D02*
X168473785Y-58151619D01*
X168473785Y-58151619D02*
X168627880Y-58305714D01*
X168627880Y-58305714D02*
X168781975Y-58382761D01*
X168781975Y-58382761D02*
X169090166Y-58459809D01*
X169090166Y-58459809D02*
X169321309Y-58459809D01*
X169321309Y-58459809D02*
X169629499Y-58382761D01*
X169629499Y-58382761D02*
X169783594Y-58305714D01*
X169783594Y-58305714D02*
X169937690Y-58151619D01*
X169937690Y-58151619D02*
X170014737Y-57920476D01*
X170014737Y-57920476D02*
X170014737Y-57766380D01*
X170014737Y-57766380D02*
X169937690Y-57535238D01*
X169937690Y-57535238D02*
X169860642Y-57458190D01*
X163154417Y-59923713D02*
X164772417Y-59923713D01*
X164772417Y-59923713D02*
X164772417Y-59538475D01*
X164772417Y-59538475D02*
X164695370Y-59307332D01*
X164695370Y-59307332D02*
X164541274Y-59153237D01*
X164541274Y-59153237D02*
X164387179Y-59076190D01*
X164387179Y-59076190D02*
X164078989Y-58999142D01*
X164078989Y-58999142D02*
X163847846Y-58999142D01*
X163847846Y-58999142D02*
X163539655Y-59076190D01*
X163539655Y-59076190D02*
X163385560Y-59153237D01*
X163385560Y-59153237D02*
X163231465Y-59307332D01*
X163231465Y-59307332D02*
X163154417Y-59538475D01*
X163154417Y-59538475D02*
X163154417Y-59923713D01*
X164618322Y-58382761D02*
X164695370Y-58305713D01*
X164695370Y-58305713D02*
X164772417Y-58151618D01*
X164772417Y-58151618D02*
X164772417Y-57766380D01*
X164772417Y-57766380D02*
X164695370Y-57612285D01*
X164695370Y-57612285D02*
X164618322Y-57535237D01*
X164618322Y-57535237D02*
X164464227Y-57458190D01*
X164464227Y-57458190D02*
X164310131Y-57458190D01*
X164310131Y-57458190D02*
X164078989Y-57535237D01*
X164078989Y-57535237D02*
X163154417Y-58459809D01*
X163154417Y-58459809D02*
X163154417Y-57458190D01*
X157912097Y-59923713D02*
X159530097Y-59923713D01*
X159530097Y-59923713D02*
X159530097Y-59538475D01*
X159530097Y-59538475D02*
X159453050Y-59307332D01*
X159453050Y-59307332D02*
X159298954Y-59153237D01*
X159298954Y-59153237D02*
X159144859Y-59076190D01*
X159144859Y-59076190D02*
X158836669Y-58999142D01*
X158836669Y-58999142D02*
X158605526Y-58999142D01*
X158605526Y-58999142D02*
X158297335Y-59076190D01*
X158297335Y-59076190D02*
X158143240Y-59153237D01*
X158143240Y-59153237D02*
X157989145Y-59307332D01*
X157989145Y-59307332D02*
X157912097Y-59538475D01*
X157912097Y-59538475D02*
X157912097Y-59923713D01*
X159530097Y-57612285D02*
X159530097Y-57920475D01*
X159530097Y-57920475D02*
X159453050Y-58074571D01*
X159453050Y-58074571D02*
X159376002Y-58151618D01*
X159376002Y-58151618D02*
X159144859Y-58305713D01*
X159144859Y-58305713D02*
X158836669Y-58382761D01*
X158836669Y-58382761D02*
X158220288Y-58382761D01*
X158220288Y-58382761D02*
X158066192Y-58305713D01*
X158066192Y-58305713D02*
X157989145Y-58228666D01*
X157989145Y-58228666D02*
X157912097Y-58074571D01*
X157912097Y-58074571D02*
X157912097Y-57766380D01*
X157912097Y-57766380D02*
X157989145Y-57612285D01*
X157989145Y-57612285D02*
X158066192Y-57535237D01*
X158066192Y-57535237D02*
X158220288Y-57458190D01*
X158220288Y-57458190D02*
X158605526Y-57458190D01*
X158605526Y-57458190D02*
X158759621Y-57535237D01*
X158759621Y-57535237D02*
X158836669Y-57612285D01*
X158836669Y-57612285D02*
X158913716Y-57766380D01*
X158913716Y-57766380D02*
X158913716Y-58074571D01*
X158913716Y-58074571D02*
X158836669Y-58228666D01*
X158836669Y-58228666D02*
X158759621Y-58305713D01*
X158759621Y-58305713D02*
X158605526Y-58382761D01*
X152669777Y-59923713D02*
X154287777Y-59923713D01*
X154287777Y-59923713D02*
X154287777Y-59538475D01*
X154287777Y-59538475D02*
X154210730Y-59307332D01*
X154210730Y-59307332D02*
X154056634Y-59153237D01*
X154056634Y-59153237D02*
X153902539Y-59076190D01*
X153902539Y-59076190D02*
X153594349Y-58999142D01*
X153594349Y-58999142D02*
X153363206Y-58999142D01*
X153363206Y-58999142D02*
X153055015Y-59076190D01*
X153055015Y-59076190D02*
X152900920Y-59153237D01*
X152900920Y-59153237D02*
X152746825Y-59307332D01*
X152746825Y-59307332D02*
X152669777Y-59538475D01*
X152669777Y-59538475D02*
X152669777Y-59923713D01*
X154287777Y-58459809D02*
X154287777Y-57381142D01*
X154287777Y-57381142D02*
X152669777Y-58074571D01*
D10*
X114490238Y-94252142D02*
X114537857Y-94299761D01*
X114537857Y-94299761D02*
X114680714Y-94347380D01*
X114680714Y-94347380D02*
X114775952Y-94347380D01*
X114775952Y-94347380D02*
X114918809Y-94299761D01*
X114918809Y-94299761D02*
X115014047Y-94204523D01*
X115014047Y-94204523D02*
X115061666Y-94109285D01*
X115061666Y-94109285D02*
X115109285Y-93918809D01*
X115109285Y-93918809D02*
X115109285Y-93775952D01*
X115109285Y-93775952D02*
X115061666Y-93585476D01*
X115061666Y-93585476D02*
X115014047Y-93490238D01*
X115014047Y-93490238D02*
X114918809Y-93395000D01*
X114918809Y-93395000D02*
X114775952Y-93347380D01*
X114775952Y-93347380D02*
X114680714Y-93347380D01*
X114680714Y-93347380D02*
X114537857Y-93395000D01*
X114537857Y-93395000D02*
X114490238Y-93442619D01*
X114109285Y-94299761D02*
X113966428Y-94347380D01*
X113966428Y-94347380D02*
X113728333Y-94347380D01*
X113728333Y-94347380D02*
X113633095Y-94299761D01*
X113633095Y-94299761D02*
X113585476Y-94252142D01*
X113585476Y-94252142D02*
X113537857Y-94156904D01*
X113537857Y-94156904D02*
X113537857Y-94061666D01*
X113537857Y-94061666D02*
X113585476Y-93966428D01*
X113585476Y-93966428D02*
X113633095Y-93918809D01*
X113633095Y-93918809D02*
X113728333Y-93871190D01*
X113728333Y-93871190D02*
X113918809Y-93823571D01*
X113918809Y-93823571D02*
X114014047Y-93775952D01*
X114014047Y-93775952D02*
X114061666Y-93728333D01*
X114061666Y-93728333D02*
X114109285Y-93633095D01*
X114109285Y-93633095D02*
X114109285Y-93537857D01*
X114109285Y-93537857D02*
X114061666Y-93442619D01*
X114061666Y-93442619D02*
X114014047Y-93395000D01*
X114014047Y-93395000D02*
X113918809Y-93347380D01*
X113918809Y-93347380D02*
X113680714Y-93347380D01*
X113680714Y-93347380D02*
X113537857Y-93395000D01*
X112585476Y-94347380D02*
X113156904Y-94347380D01*
X112871190Y-94347380D02*
X112871190Y-93347380D01*
X112871190Y-93347380D02*
X112966428Y-93490238D01*
X112966428Y-93490238D02*
X113061666Y-93585476D01*
X113061666Y-93585476D02*
X113156904Y-93633095D01*
X115199762Y-92995000D02*
X112495000Y-92995000D01*
X122316904Y-93966428D02*
X121555000Y-93966428D01*
X121935952Y-94347380D02*
X121935952Y-93585476D01*
X121174047Y-93347380D02*
X120555000Y-93347380D01*
X120555000Y-93347380D02*
X120888333Y-93728333D01*
X120888333Y-93728333D02*
X120745476Y-93728333D01*
X120745476Y-93728333D02*
X120650238Y-93775952D01*
X120650238Y-93775952D02*
X120602619Y-93823571D01*
X120602619Y-93823571D02*
X120555000Y-93918809D01*
X120555000Y-93918809D02*
X120555000Y-94156904D01*
X120555000Y-94156904D02*
X120602619Y-94252142D01*
X120602619Y-94252142D02*
X120650238Y-94299761D01*
X120650238Y-94299761D02*
X120745476Y-94347380D01*
X120745476Y-94347380D02*
X121031190Y-94347380D01*
X121031190Y-94347380D02*
X121126428Y-94299761D01*
X121126428Y-94299761D02*
X121174047Y-94252142D01*
X120126428Y-94252142D02*
X120078809Y-94299761D01*
X120078809Y-94299761D02*
X120126428Y-94347380D01*
X120126428Y-94347380D02*
X120174047Y-94299761D01*
X120174047Y-94299761D02*
X120126428Y-94252142D01*
X120126428Y-94252142D02*
X120126428Y-94347380D01*
X119745476Y-93347380D02*
X119126429Y-93347380D01*
X119126429Y-93347380D02*
X119459762Y-93728333D01*
X119459762Y-93728333D02*
X119316905Y-93728333D01*
X119316905Y-93728333D02*
X119221667Y-93775952D01*
X119221667Y-93775952D02*
X119174048Y-93823571D01*
X119174048Y-93823571D02*
X119126429Y-93918809D01*
X119126429Y-93918809D02*
X119126429Y-94156904D01*
X119126429Y-94156904D02*
X119174048Y-94252142D01*
X119174048Y-94252142D02*
X119221667Y-94299761D01*
X119221667Y-94299761D02*
X119316905Y-94347380D01*
X119316905Y-94347380D02*
X119602619Y-94347380D01*
X119602619Y-94347380D02*
X119697857Y-94299761D01*
X119697857Y-94299761D02*
X119745476Y-94252142D01*
X118840714Y-93347380D02*
X118507381Y-94347380D01*
X118507381Y-94347380D02*
X118174048Y-93347380D01*
X122316904Y-88886428D02*
X121555000Y-88886428D01*
X121935952Y-89267380D02*
X121935952Y-88505476D01*
X121174047Y-88267380D02*
X120555000Y-88267380D01*
X120555000Y-88267380D02*
X120888333Y-88648333D01*
X120888333Y-88648333D02*
X120745476Y-88648333D01*
X120745476Y-88648333D02*
X120650238Y-88695952D01*
X120650238Y-88695952D02*
X120602619Y-88743571D01*
X120602619Y-88743571D02*
X120555000Y-88838809D01*
X120555000Y-88838809D02*
X120555000Y-89076904D01*
X120555000Y-89076904D02*
X120602619Y-89172142D01*
X120602619Y-89172142D02*
X120650238Y-89219761D01*
X120650238Y-89219761D02*
X120745476Y-89267380D01*
X120745476Y-89267380D02*
X121031190Y-89267380D01*
X121031190Y-89267380D02*
X121126428Y-89219761D01*
X121126428Y-89219761D02*
X121174047Y-89172142D01*
X120126428Y-89172142D02*
X120078809Y-89219761D01*
X120078809Y-89219761D02*
X120126428Y-89267380D01*
X120126428Y-89267380D02*
X120174047Y-89219761D01*
X120174047Y-89219761D02*
X120126428Y-89172142D01*
X120126428Y-89172142D02*
X120126428Y-89267380D01*
X119745476Y-88267380D02*
X119126429Y-88267380D01*
X119126429Y-88267380D02*
X119459762Y-88648333D01*
X119459762Y-88648333D02*
X119316905Y-88648333D01*
X119316905Y-88648333D02*
X119221667Y-88695952D01*
X119221667Y-88695952D02*
X119174048Y-88743571D01*
X119174048Y-88743571D02*
X119126429Y-88838809D01*
X119126429Y-88838809D02*
X119126429Y-89076904D01*
X119126429Y-89076904D02*
X119174048Y-89172142D01*
X119174048Y-89172142D02*
X119221667Y-89219761D01*
X119221667Y-89219761D02*
X119316905Y-89267380D01*
X119316905Y-89267380D02*
X119602619Y-89267380D01*
X119602619Y-89267380D02*
X119697857Y-89219761D01*
X119697857Y-89219761D02*
X119745476Y-89172142D01*
X118840714Y-88267380D02*
X118507381Y-89267380D01*
X118507381Y-89267380D02*
X118174048Y-88267380D01*
X114705952Y-71805000D02*
X114801190Y-71757380D01*
X114801190Y-71757380D02*
X114944047Y-71757380D01*
X114944047Y-71757380D02*
X115086904Y-71805000D01*
X115086904Y-71805000D02*
X115182142Y-71900238D01*
X115182142Y-71900238D02*
X115229761Y-71995476D01*
X115229761Y-71995476D02*
X115277380Y-72185952D01*
X115277380Y-72185952D02*
X115277380Y-72328809D01*
X115277380Y-72328809D02*
X115229761Y-72519285D01*
X115229761Y-72519285D02*
X115182142Y-72614523D01*
X115182142Y-72614523D02*
X115086904Y-72709761D01*
X115086904Y-72709761D02*
X114944047Y-72757380D01*
X114944047Y-72757380D02*
X114848809Y-72757380D01*
X114848809Y-72757380D02*
X114705952Y-72709761D01*
X114705952Y-72709761D02*
X114658333Y-72662142D01*
X114658333Y-72662142D02*
X114658333Y-72328809D01*
X114658333Y-72328809D02*
X114848809Y-72328809D01*
X114229761Y-72757380D02*
X114229761Y-71757380D01*
X114229761Y-71757380D02*
X113658333Y-72757380D01*
X113658333Y-72757380D02*
X113658333Y-71757380D01*
X113182142Y-72757380D02*
X113182142Y-71757380D01*
X113182142Y-71757380D02*
X112944047Y-71757380D01*
X112944047Y-71757380D02*
X112801190Y-71805000D01*
X112801190Y-71805000D02*
X112705952Y-71900238D01*
X112705952Y-71900238D02*
X112658333Y-71995476D01*
X112658333Y-71995476D02*
X112610714Y-72185952D01*
X112610714Y-72185952D02*
X112610714Y-72328809D01*
X112610714Y-72328809D02*
X112658333Y-72519285D01*
X112658333Y-72519285D02*
X112705952Y-72614523D01*
X112705952Y-72614523D02*
X112801190Y-72709761D01*
X112801190Y-72709761D02*
X112944047Y-72757380D01*
X112944047Y-72757380D02*
X113182142Y-72757380D01*
X116055714Y-67582142D02*
X116103333Y-67629761D01*
X116103333Y-67629761D02*
X116246190Y-67677380D01*
X116246190Y-67677380D02*
X116341428Y-67677380D01*
X116341428Y-67677380D02*
X116484285Y-67629761D01*
X116484285Y-67629761D02*
X116579523Y-67534523D01*
X116579523Y-67534523D02*
X116627142Y-67439285D01*
X116627142Y-67439285D02*
X116674761Y-67248809D01*
X116674761Y-67248809D02*
X116674761Y-67105952D01*
X116674761Y-67105952D02*
X116627142Y-66915476D01*
X116627142Y-66915476D02*
X116579523Y-66820238D01*
X116579523Y-66820238D02*
X116484285Y-66725000D01*
X116484285Y-66725000D02*
X116341428Y-66677380D01*
X116341428Y-66677380D02*
X116246190Y-66677380D01*
X116246190Y-66677380D02*
X116103333Y-66725000D01*
X116103333Y-66725000D02*
X116055714Y-66772619D01*
X115674761Y-67391666D02*
X115198571Y-67391666D01*
X115769999Y-67677380D02*
X115436666Y-66677380D01*
X115436666Y-66677380D02*
X115103333Y-67677380D01*
X114769999Y-67677380D02*
X114769999Y-66677380D01*
X114769999Y-66677380D02*
X114198571Y-67677380D01*
X114198571Y-67677380D02*
X114198571Y-66677380D01*
X113531904Y-66677380D02*
X113436666Y-66677380D01*
X113436666Y-66677380D02*
X113341428Y-66725000D01*
X113341428Y-66725000D02*
X113293809Y-66772619D01*
X113293809Y-66772619D02*
X113246190Y-66867857D01*
X113246190Y-66867857D02*
X113198571Y-67058333D01*
X113198571Y-67058333D02*
X113198571Y-67296428D01*
X113198571Y-67296428D02*
X113246190Y-67486904D01*
X113246190Y-67486904D02*
X113293809Y-67582142D01*
X113293809Y-67582142D02*
X113341428Y-67629761D01*
X113341428Y-67629761D02*
X113436666Y-67677380D01*
X113436666Y-67677380D02*
X113531904Y-67677380D01*
X113531904Y-67677380D02*
X113627142Y-67629761D01*
X113627142Y-67629761D02*
X113674761Y-67582142D01*
X113674761Y-67582142D02*
X113722380Y-67486904D01*
X113722380Y-67486904D02*
X113769999Y-67296428D01*
X113769999Y-67296428D02*
X113769999Y-67058333D01*
X113769999Y-67058333D02*
X113722380Y-66867857D01*
X113722380Y-66867857D02*
X113674761Y-66772619D01*
X113674761Y-66772619D02*
X113627142Y-66725000D01*
X113627142Y-66725000D02*
X113531904Y-66677380D01*
X112293809Y-67677380D02*
X112769999Y-67677380D01*
X112769999Y-67677380D02*
X112769999Y-66677380D01*
X122316904Y-109206428D02*
X121555000Y-109206428D01*
X121935952Y-109587380D02*
X121935952Y-108825476D01*
X120745476Y-109063571D02*
X120602619Y-109111190D01*
X120602619Y-109111190D02*
X120555000Y-109158809D01*
X120555000Y-109158809D02*
X120507381Y-109254047D01*
X120507381Y-109254047D02*
X120507381Y-109396904D01*
X120507381Y-109396904D02*
X120555000Y-109492142D01*
X120555000Y-109492142D02*
X120602619Y-109539761D01*
X120602619Y-109539761D02*
X120697857Y-109587380D01*
X120697857Y-109587380D02*
X121078809Y-109587380D01*
X121078809Y-109587380D02*
X121078809Y-108587380D01*
X121078809Y-108587380D02*
X120745476Y-108587380D01*
X120745476Y-108587380D02*
X120650238Y-108635000D01*
X120650238Y-108635000D02*
X120602619Y-108682619D01*
X120602619Y-108682619D02*
X120555000Y-108777857D01*
X120555000Y-108777857D02*
X120555000Y-108873095D01*
X120555000Y-108873095D02*
X120602619Y-108968333D01*
X120602619Y-108968333D02*
X120650238Y-109015952D01*
X120650238Y-109015952D02*
X120745476Y-109063571D01*
X120745476Y-109063571D02*
X121078809Y-109063571D01*
X119650238Y-109587380D02*
X119650238Y-109063571D01*
X119650238Y-109063571D02*
X119697857Y-108968333D01*
X119697857Y-108968333D02*
X119793095Y-108920714D01*
X119793095Y-108920714D02*
X119983571Y-108920714D01*
X119983571Y-108920714D02*
X120078809Y-108968333D01*
X119650238Y-109539761D02*
X119745476Y-109587380D01*
X119745476Y-109587380D02*
X119983571Y-109587380D01*
X119983571Y-109587380D02*
X120078809Y-109539761D01*
X120078809Y-109539761D02*
X120126428Y-109444523D01*
X120126428Y-109444523D02*
X120126428Y-109349285D01*
X120126428Y-109349285D02*
X120078809Y-109254047D01*
X120078809Y-109254047D02*
X119983571Y-109206428D01*
X119983571Y-109206428D02*
X119745476Y-109206428D01*
X119745476Y-109206428D02*
X119650238Y-109158809D01*
X119316904Y-108920714D02*
X118935952Y-108920714D01*
X119174047Y-108587380D02*
X119174047Y-109444523D01*
X119174047Y-109444523D02*
X119126428Y-109539761D01*
X119126428Y-109539761D02*
X119031190Y-109587380D01*
X119031190Y-109587380D02*
X118935952Y-109587380D01*
X118745475Y-108920714D02*
X118364523Y-108920714D01*
X118602618Y-108587380D02*
X118602618Y-109444523D01*
X118602618Y-109444523D02*
X118554999Y-109539761D01*
X118554999Y-109539761D02*
X118459761Y-109587380D01*
X118459761Y-109587380D02*
X118364523Y-109587380D01*
X122364523Y-101919761D02*
X122221666Y-101967380D01*
X122221666Y-101967380D02*
X121983571Y-101967380D01*
X121983571Y-101967380D02*
X121888333Y-101919761D01*
X121888333Y-101919761D02*
X121840714Y-101872142D01*
X121840714Y-101872142D02*
X121793095Y-101776904D01*
X121793095Y-101776904D02*
X121793095Y-101681666D01*
X121793095Y-101681666D02*
X121840714Y-101586428D01*
X121840714Y-101586428D02*
X121888333Y-101538809D01*
X121888333Y-101538809D02*
X121983571Y-101491190D01*
X121983571Y-101491190D02*
X122174047Y-101443571D01*
X122174047Y-101443571D02*
X122269285Y-101395952D01*
X122269285Y-101395952D02*
X122316904Y-101348333D01*
X122316904Y-101348333D02*
X122364523Y-101253095D01*
X122364523Y-101253095D02*
X122364523Y-101157857D01*
X122364523Y-101157857D02*
X122316904Y-101062619D01*
X122316904Y-101062619D02*
X122269285Y-101015000D01*
X122269285Y-101015000D02*
X122174047Y-100967380D01*
X122174047Y-100967380D02*
X121935952Y-100967380D01*
X121935952Y-100967380D02*
X121793095Y-101015000D01*
X120793095Y-101872142D02*
X120840714Y-101919761D01*
X120840714Y-101919761D02*
X120983571Y-101967380D01*
X120983571Y-101967380D02*
X121078809Y-101967380D01*
X121078809Y-101967380D02*
X121221666Y-101919761D01*
X121221666Y-101919761D02*
X121316904Y-101824523D01*
X121316904Y-101824523D02*
X121364523Y-101729285D01*
X121364523Y-101729285D02*
X121412142Y-101538809D01*
X121412142Y-101538809D02*
X121412142Y-101395952D01*
X121412142Y-101395952D02*
X121364523Y-101205476D01*
X121364523Y-101205476D02*
X121316904Y-101110238D01*
X121316904Y-101110238D02*
X121221666Y-101015000D01*
X121221666Y-101015000D02*
X121078809Y-100967380D01*
X121078809Y-100967380D02*
X120983571Y-100967380D01*
X120983571Y-100967380D02*
X120840714Y-101015000D01*
X120840714Y-101015000D02*
X120793095Y-101062619D01*
X119888333Y-101967380D02*
X120364523Y-101967380D01*
X120364523Y-101967380D02*
X120364523Y-100967380D01*
X114705952Y-64185000D02*
X114801190Y-64137380D01*
X114801190Y-64137380D02*
X114944047Y-64137380D01*
X114944047Y-64137380D02*
X115086904Y-64185000D01*
X115086904Y-64185000D02*
X115182142Y-64280238D01*
X115182142Y-64280238D02*
X115229761Y-64375476D01*
X115229761Y-64375476D02*
X115277380Y-64565952D01*
X115277380Y-64565952D02*
X115277380Y-64708809D01*
X115277380Y-64708809D02*
X115229761Y-64899285D01*
X115229761Y-64899285D02*
X115182142Y-64994523D01*
X115182142Y-64994523D02*
X115086904Y-65089761D01*
X115086904Y-65089761D02*
X114944047Y-65137380D01*
X114944047Y-65137380D02*
X114848809Y-65137380D01*
X114848809Y-65137380D02*
X114705952Y-65089761D01*
X114705952Y-65089761D02*
X114658333Y-65042142D01*
X114658333Y-65042142D02*
X114658333Y-64708809D01*
X114658333Y-64708809D02*
X114848809Y-64708809D01*
X114229761Y-65137380D02*
X114229761Y-64137380D01*
X114229761Y-64137380D02*
X113658333Y-65137380D01*
X113658333Y-65137380D02*
X113658333Y-64137380D01*
X113182142Y-65137380D02*
X113182142Y-64137380D01*
X113182142Y-64137380D02*
X112944047Y-64137380D01*
X112944047Y-64137380D02*
X112801190Y-64185000D01*
X112801190Y-64185000D02*
X112705952Y-64280238D01*
X112705952Y-64280238D02*
X112658333Y-64375476D01*
X112658333Y-64375476D02*
X112610714Y-64565952D01*
X112610714Y-64565952D02*
X112610714Y-64708809D01*
X112610714Y-64708809D02*
X112658333Y-64899285D01*
X112658333Y-64899285D02*
X112705952Y-64994523D01*
X112705952Y-64994523D02*
X112801190Y-65089761D01*
X112801190Y-65089761D02*
X112944047Y-65137380D01*
X112944047Y-65137380D02*
X113182142Y-65137380D01*
X115109285Y-99332142D02*
X115156904Y-99379761D01*
X115156904Y-99379761D02*
X115299761Y-99427380D01*
X115299761Y-99427380D02*
X115394999Y-99427380D01*
X115394999Y-99427380D02*
X115537856Y-99379761D01*
X115537856Y-99379761D02*
X115633094Y-99284523D01*
X115633094Y-99284523D02*
X115680713Y-99189285D01*
X115680713Y-99189285D02*
X115728332Y-98998809D01*
X115728332Y-98998809D02*
X115728332Y-98855952D01*
X115728332Y-98855952D02*
X115680713Y-98665476D01*
X115680713Y-98665476D02*
X115633094Y-98570238D01*
X115633094Y-98570238D02*
X115537856Y-98475000D01*
X115537856Y-98475000D02*
X115394999Y-98427380D01*
X115394999Y-98427380D02*
X115299761Y-98427380D01*
X115299761Y-98427380D02*
X115156904Y-98475000D01*
X115156904Y-98475000D02*
X115109285Y-98522619D01*
X114680713Y-99427380D02*
X114680713Y-98427380D01*
X114204523Y-99427380D02*
X114204523Y-98427380D01*
X114204523Y-98427380D02*
X113823571Y-98427380D01*
X113823571Y-98427380D02*
X113728333Y-98475000D01*
X113728333Y-98475000D02*
X113680714Y-98522619D01*
X113680714Y-98522619D02*
X113633095Y-98617857D01*
X113633095Y-98617857D02*
X113633095Y-98760714D01*
X113633095Y-98760714D02*
X113680714Y-98855952D01*
X113680714Y-98855952D02*
X113728333Y-98903571D01*
X113728333Y-98903571D02*
X113823571Y-98951190D01*
X113823571Y-98951190D02*
X114204523Y-98951190D01*
X113014047Y-98427380D02*
X112823571Y-98427380D01*
X112823571Y-98427380D02*
X112728333Y-98475000D01*
X112728333Y-98475000D02*
X112633095Y-98570238D01*
X112633095Y-98570238D02*
X112585476Y-98760714D01*
X112585476Y-98760714D02*
X112585476Y-99094047D01*
X112585476Y-99094047D02*
X112633095Y-99284523D01*
X112633095Y-99284523D02*
X112728333Y-99379761D01*
X112728333Y-99379761D02*
X112823571Y-99427380D01*
X112823571Y-99427380D02*
X113014047Y-99427380D01*
X113014047Y-99427380D02*
X113109285Y-99379761D01*
X113109285Y-99379761D02*
X113204523Y-99284523D01*
X113204523Y-99284523D02*
X113252142Y-99094047D01*
X113252142Y-99094047D02*
X113252142Y-98760714D01*
X113252142Y-98760714D02*
X113204523Y-98570238D01*
X113204523Y-98570238D02*
X113109285Y-98475000D01*
X113109285Y-98475000D02*
X113014047Y-98427380D01*
X122453333Y-76885000D02*
X122548571Y-76837380D01*
X122548571Y-76837380D02*
X122691428Y-76837380D01*
X122691428Y-76837380D02*
X122834285Y-76885000D01*
X122834285Y-76885000D02*
X122929523Y-76980238D01*
X122929523Y-76980238D02*
X122977142Y-77075476D01*
X122977142Y-77075476D02*
X123024761Y-77265952D01*
X123024761Y-77265952D02*
X123024761Y-77408809D01*
X123024761Y-77408809D02*
X122977142Y-77599285D01*
X122977142Y-77599285D02*
X122929523Y-77694523D01*
X122929523Y-77694523D02*
X122834285Y-77789761D01*
X122834285Y-77789761D02*
X122691428Y-77837380D01*
X122691428Y-77837380D02*
X122596190Y-77837380D01*
X122596190Y-77837380D02*
X122453333Y-77789761D01*
X122453333Y-77789761D02*
X122405714Y-77742142D01*
X122405714Y-77742142D02*
X122405714Y-77408809D01*
X122405714Y-77408809D02*
X122596190Y-77408809D01*
X121977142Y-77837380D02*
X121977142Y-76837380D01*
X121977142Y-76837380D02*
X121405714Y-77837380D01*
X121405714Y-77837380D02*
X121405714Y-76837380D01*
X120929523Y-77837380D02*
X120929523Y-76837380D01*
X120929523Y-76837380D02*
X120691428Y-76837380D01*
X120691428Y-76837380D02*
X120548571Y-76885000D01*
X120548571Y-76885000D02*
X120453333Y-76980238D01*
X120453333Y-76980238D02*
X120405714Y-77075476D01*
X120405714Y-77075476D02*
X120358095Y-77265952D01*
X120358095Y-77265952D02*
X120358095Y-77408809D01*
X120358095Y-77408809D02*
X120405714Y-77599285D01*
X120405714Y-77599285D02*
X120453333Y-77694523D01*
X120453333Y-77694523D02*
X120548571Y-77789761D01*
X120548571Y-77789761D02*
X120691428Y-77837380D01*
X120691428Y-77837380D02*
X120929523Y-77837380D01*
X122316904Y-106666428D02*
X121555000Y-106666428D01*
X121935952Y-107047380D02*
X121935952Y-106285476D01*
X120602619Y-106047380D02*
X121078809Y-106047380D01*
X121078809Y-106047380D02*
X121126428Y-106523571D01*
X121126428Y-106523571D02*
X121078809Y-106475952D01*
X121078809Y-106475952D02*
X120983571Y-106428333D01*
X120983571Y-106428333D02*
X120745476Y-106428333D01*
X120745476Y-106428333D02*
X120650238Y-106475952D01*
X120650238Y-106475952D02*
X120602619Y-106523571D01*
X120602619Y-106523571D02*
X120555000Y-106618809D01*
X120555000Y-106618809D02*
X120555000Y-106856904D01*
X120555000Y-106856904D02*
X120602619Y-106952142D01*
X120602619Y-106952142D02*
X120650238Y-106999761D01*
X120650238Y-106999761D02*
X120745476Y-107047380D01*
X120745476Y-107047380D02*
X120983571Y-107047380D01*
X120983571Y-107047380D02*
X121078809Y-106999761D01*
X121078809Y-106999761D02*
X121126428Y-106952142D01*
X120269285Y-106047380D02*
X119935952Y-107047380D01*
X119935952Y-107047380D02*
X119602619Y-106047380D01*
X115944047Y-74297380D02*
X115753571Y-74297380D01*
X115753571Y-74297380D02*
X115658333Y-74345000D01*
X115658333Y-74345000D02*
X115563095Y-74440238D01*
X115563095Y-74440238D02*
X115515476Y-74630714D01*
X115515476Y-74630714D02*
X115515476Y-74964047D01*
X115515476Y-74964047D02*
X115563095Y-75154523D01*
X115563095Y-75154523D02*
X115658333Y-75249761D01*
X115658333Y-75249761D02*
X115753571Y-75297380D01*
X115753571Y-75297380D02*
X115944047Y-75297380D01*
X115944047Y-75297380D02*
X116039285Y-75249761D01*
X116039285Y-75249761D02*
X116134523Y-75154523D01*
X116134523Y-75154523D02*
X116182142Y-74964047D01*
X116182142Y-74964047D02*
X116182142Y-74630714D01*
X116182142Y-74630714D02*
X116134523Y-74440238D01*
X116134523Y-74440238D02*
X116039285Y-74345000D01*
X116039285Y-74345000D02*
X115944047Y-74297380D01*
X115134523Y-75249761D02*
X114991666Y-75297380D01*
X114991666Y-75297380D02*
X114753571Y-75297380D01*
X114753571Y-75297380D02*
X114658333Y-75249761D01*
X114658333Y-75249761D02*
X114610714Y-75202142D01*
X114610714Y-75202142D02*
X114563095Y-75106904D01*
X114563095Y-75106904D02*
X114563095Y-75011666D01*
X114563095Y-75011666D02*
X114610714Y-74916428D01*
X114610714Y-74916428D02*
X114658333Y-74868809D01*
X114658333Y-74868809D02*
X114753571Y-74821190D01*
X114753571Y-74821190D02*
X114944047Y-74773571D01*
X114944047Y-74773571D02*
X115039285Y-74725952D01*
X115039285Y-74725952D02*
X115086904Y-74678333D01*
X115086904Y-74678333D02*
X115134523Y-74583095D01*
X115134523Y-74583095D02*
X115134523Y-74487857D01*
X115134523Y-74487857D02*
X115086904Y-74392619D01*
X115086904Y-74392619D02*
X115039285Y-74345000D01*
X115039285Y-74345000D02*
X114944047Y-74297380D01*
X114944047Y-74297380D02*
X114705952Y-74297380D01*
X114705952Y-74297380D02*
X114563095Y-74345000D01*
X113563095Y-75202142D02*
X113610714Y-75249761D01*
X113610714Y-75249761D02*
X113753571Y-75297380D01*
X113753571Y-75297380D02*
X113848809Y-75297380D01*
X113848809Y-75297380D02*
X113991666Y-75249761D01*
X113991666Y-75249761D02*
X114086904Y-75154523D01*
X114086904Y-75154523D02*
X114134523Y-75059285D01*
X114134523Y-75059285D02*
X114182142Y-74868809D01*
X114182142Y-74868809D02*
X114182142Y-74725952D01*
X114182142Y-74725952D02*
X114134523Y-74535476D01*
X114134523Y-74535476D02*
X114086904Y-74440238D01*
X114086904Y-74440238D02*
X113991666Y-74345000D01*
X113991666Y-74345000D02*
X113848809Y-74297380D01*
X113848809Y-74297380D02*
X113753571Y-74297380D01*
X113753571Y-74297380D02*
X113610714Y-74345000D01*
X113610714Y-74345000D02*
X113563095Y-74392619D01*
X113182142Y-74392619D02*
X113134523Y-74345000D01*
X113134523Y-74345000D02*
X113039285Y-74297380D01*
X113039285Y-74297380D02*
X112801190Y-74297380D01*
X112801190Y-74297380D02*
X112705952Y-74345000D01*
X112705952Y-74345000D02*
X112658333Y-74392619D01*
X112658333Y-74392619D02*
X112610714Y-74487857D01*
X112610714Y-74487857D02*
X112610714Y-74583095D01*
X112610714Y-74583095D02*
X112658333Y-74725952D01*
X112658333Y-74725952D02*
X113229761Y-75297380D01*
X113229761Y-75297380D02*
X112610714Y-75297380D01*
X121745476Y-91712142D02*
X121793095Y-91759761D01*
X121793095Y-91759761D02*
X121935952Y-91807380D01*
X121935952Y-91807380D02*
X122031190Y-91807380D01*
X122031190Y-91807380D02*
X122174047Y-91759761D01*
X122174047Y-91759761D02*
X122269285Y-91664523D01*
X122269285Y-91664523D02*
X122316904Y-91569285D01*
X122316904Y-91569285D02*
X122364523Y-91378809D01*
X122364523Y-91378809D02*
X122364523Y-91235952D01*
X122364523Y-91235952D02*
X122316904Y-91045476D01*
X122316904Y-91045476D02*
X122269285Y-90950238D01*
X122269285Y-90950238D02*
X122174047Y-90855000D01*
X122174047Y-90855000D02*
X122031190Y-90807380D01*
X122031190Y-90807380D02*
X121935952Y-90807380D01*
X121935952Y-90807380D02*
X121793095Y-90855000D01*
X121793095Y-90855000D02*
X121745476Y-90902619D01*
X121364523Y-91759761D02*
X121221666Y-91807380D01*
X121221666Y-91807380D02*
X120983571Y-91807380D01*
X120983571Y-91807380D02*
X120888333Y-91759761D01*
X120888333Y-91759761D02*
X120840714Y-91712142D01*
X120840714Y-91712142D02*
X120793095Y-91616904D01*
X120793095Y-91616904D02*
X120793095Y-91521666D01*
X120793095Y-91521666D02*
X120840714Y-91426428D01*
X120840714Y-91426428D02*
X120888333Y-91378809D01*
X120888333Y-91378809D02*
X120983571Y-91331190D01*
X120983571Y-91331190D02*
X121174047Y-91283571D01*
X121174047Y-91283571D02*
X121269285Y-91235952D01*
X121269285Y-91235952D02*
X121316904Y-91188333D01*
X121316904Y-91188333D02*
X121364523Y-91093095D01*
X121364523Y-91093095D02*
X121364523Y-90997857D01*
X121364523Y-90997857D02*
X121316904Y-90902619D01*
X121316904Y-90902619D02*
X121269285Y-90855000D01*
X121269285Y-90855000D02*
X121174047Y-90807380D01*
X121174047Y-90807380D02*
X120935952Y-90807380D01*
X120935952Y-90807380D02*
X120793095Y-90855000D01*
X120412142Y-90902619D02*
X120364523Y-90855000D01*
X120364523Y-90855000D02*
X120269285Y-90807380D01*
X120269285Y-90807380D02*
X120031190Y-90807380D01*
X120031190Y-90807380D02*
X119935952Y-90855000D01*
X119935952Y-90855000D02*
X119888333Y-90902619D01*
X119888333Y-90902619D02*
X119840714Y-90997857D01*
X119840714Y-90997857D02*
X119840714Y-91093095D01*
X119840714Y-91093095D02*
X119888333Y-91235952D01*
X119888333Y-91235952D02*
X120459761Y-91807380D01*
X120459761Y-91807380D02*
X119840714Y-91807380D01*
X122455000Y-90455000D02*
X119750238Y-90455000D01*
X116633094Y-91426428D02*
X115871190Y-91426428D01*
X116252142Y-91807380D02*
X116252142Y-91045476D01*
X115490237Y-90807380D02*
X114871190Y-90807380D01*
X114871190Y-90807380D02*
X115204523Y-91188333D01*
X115204523Y-91188333D02*
X115061666Y-91188333D01*
X115061666Y-91188333D02*
X114966428Y-91235952D01*
X114966428Y-91235952D02*
X114918809Y-91283571D01*
X114918809Y-91283571D02*
X114871190Y-91378809D01*
X114871190Y-91378809D02*
X114871190Y-91616904D01*
X114871190Y-91616904D02*
X114918809Y-91712142D01*
X114918809Y-91712142D02*
X114966428Y-91759761D01*
X114966428Y-91759761D02*
X115061666Y-91807380D01*
X115061666Y-91807380D02*
X115347380Y-91807380D01*
X115347380Y-91807380D02*
X115442618Y-91759761D01*
X115442618Y-91759761D02*
X115490237Y-91712142D01*
X114442618Y-91712142D02*
X114394999Y-91759761D01*
X114394999Y-91759761D02*
X114442618Y-91807380D01*
X114442618Y-91807380D02*
X114490237Y-91759761D01*
X114490237Y-91759761D02*
X114442618Y-91712142D01*
X114442618Y-91712142D02*
X114442618Y-91807380D01*
X114061666Y-90807380D02*
X113442619Y-90807380D01*
X113442619Y-90807380D02*
X113775952Y-91188333D01*
X113775952Y-91188333D02*
X113633095Y-91188333D01*
X113633095Y-91188333D02*
X113537857Y-91235952D01*
X113537857Y-91235952D02*
X113490238Y-91283571D01*
X113490238Y-91283571D02*
X113442619Y-91378809D01*
X113442619Y-91378809D02*
X113442619Y-91616904D01*
X113442619Y-91616904D02*
X113490238Y-91712142D01*
X113490238Y-91712142D02*
X113537857Y-91759761D01*
X113537857Y-91759761D02*
X113633095Y-91807380D01*
X113633095Y-91807380D02*
X113918809Y-91807380D01*
X113918809Y-91807380D02*
X114014047Y-91759761D01*
X114014047Y-91759761D02*
X114061666Y-91712142D01*
X113156904Y-90807380D02*
X112823571Y-91807380D01*
X112823571Y-91807380D02*
X112490238Y-90807380D01*
X116442619Y-109206428D02*
X115680715Y-109206428D01*
X116061667Y-109587380D02*
X116061667Y-108825476D01*
X114871191Y-109063571D02*
X114728334Y-109111190D01*
X114728334Y-109111190D02*
X114680715Y-109158809D01*
X114680715Y-109158809D02*
X114633096Y-109254047D01*
X114633096Y-109254047D02*
X114633096Y-109396904D01*
X114633096Y-109396904D02*
X114680715Y-109492142D01*
X114680715Y-109492142D02*
X114728334Y-109539761D01*
X114728334Y-109539761D02*
X114823572Y-109587380D01*
X114823572Y-109587380D02*
X115204524Y-109587380D01*
X115204524Y-109587380D02*
X115204524Y-108587380D01*
X115204524Y-108587380D02*
X114871191Y-108587380D01*
X114871191Y-108587380D02*
X114775953Y-108635000D01*
X114775953Y-108635000D02*
X114728334Y-108682619D01*
X114728334Y-108682619D02*
X114680715Y-108777857D01*
X114680715Y-108777857D02*
X114680715Y-108873095D01*
X114680715Y-108873095D02*
X114728334Y-108968333D01*
X114728334Y-108968333D02*
X114775953Y-109015952D01*
X114775953Y-109015952D02*
X114871191Y-109063571D01*
X114871191Y-109063571D02*
X115204524Y-109063571D01*
X113775953Y-109587380D02*
X113775953Y-109063571D01*
X113775953Y-109063571D02*
X113823572Y-108968333D01*
X113823572Y-108968333D02*
X113918810Y-108920714D01*
X113918810Y-108920714D02*
X114109286Y-108920714D01*
X114109286Y-108920714D02*
X114204524Y-108968333D01*
X113775953Y-109539761D02*
X113871191Y-109587380D01*
X113871191Y-109587380D02*
X114109286Y-109587380D01*
X114109286Y-109587380D02*
X114204524Y-109539761D01*
X114204524Y-109539761D02*
X114252143Y-109444523D01*
X114252143Y-109444523D02*
X114252143Y-109349285D01*
X114252143Y-109349285D02*
X114204524Y-109254047D01*
X114204524Y-109254047D02*
X114109286Y-109206428D01*
X114109286Y-109206428D02*
X113871191Y-109206428D01*
X113871191Y-109206428D02*
X113775953Y-109158809D01*
X113442619Y-108920714D02*
X113061667Y-108920714D01*
X113299762Y-108587380D02*
X113299762Y-109444523D01*
X113299762Y-109444523D02*
X113252143Y-109539761D01*
X113252143Y-109539761D02*
X113156905Y-109587380D01*
X113156905Y-109587380D02*
X113061667Y-109587380D01*
X112871190Y-108920714D02*
X112490238Y-108920714D01*
X112728333Y-108587380D02*
X112728333Y-109444523D01*
X112728333Y-109444523D02*
X112680714Y-109539761D01*
X112680714Y-109539761D02*
X112585476Y-109587380D01*
X112585476Y-109587380D02*
X112490238Y-109587380D01*
X122364523Y-99379761D02*
X122221666Y-99427380D01*
X122221666Y-99427380D02*
X121983571Y-99427380D01*
X121983571Y-99427380D02*
X121888333Y-99379761D01*
X121888333Y-99379761D02*
X121840714Y-99332142D01*
X121840714Y-99332142D02*
X121793095Y-99236904D01*
X121793095Y-99236904D02*
X121793095Y-99141666D01*
X121793095Y-99141666D02*
X121840714Y-99046428D01*
X121840714Y-99046428D02*
X121888333Y-98998809D01*
X121888333Y-98998809D02*
X121983571Y-98951190D01*
X121983571Y-98951190D02*
X122174047Y-98903571D01*
X122174047Y-98903571D02*
X122269285Y-98855952D01*
X122269285Y-98855952D02*
X122316904Y-98808333D01*
X122316904Y-98808333D02*
X122364523Y-98713095D01*
X122364523Y-98713095D02*
X122364523Y-98617857D01*
X122364523Y-98617857D02*
X122316904Y-98522619D01*
X122316904Y-98522619D02*
X122269285Y-98475000D01*
X122269285Y-98475000D02*
X122174047Y-98427380D01*
X122174047Y-98427380D02*
X121935952Y-98427380D01*
X121935952Y-98427380D02*
X121793095Y-98475000D01*
X121364523Y-99427380D02*
X121364523Y-98427380D01*
X121364523Y-98427380D02*
X121126428Y-98427380D01*
X121126428Y-98427380D02*
X120983571Y-98475000D01*
X120983571Y-98475000D02*
X120888333Y-98570238D01*
X120888333Y-98570238D02*
X120840714Y-98665476D01*
X120840714Y-98665476D02*
X120793095Y-98855952D01*
X120793095Y-98855952D02*
X120793095Y-98998809D01*
X120793095Y-98998809D02*
X120840714Y-99189285D01*
X120840714Y-99189285D02*
X120888333Y-99284523D01*
X120888333Y-99284523D02*
X120983571Y-99379761D01*
X120983571Y-99379761D02*
X121126428Y-99427380D01*
X121126428Y-99427380D02*
X121364523Y-99427380D01*
X120412142Y-99141666D02*
X119935952Y-99141666D01*
X120507380Y-99427380D02*
X120174047Y-98427380D01*
X120174047Y-98427380D02*
X119840714Y-99427380D01*
X121793095Y-95935000D02*
X121888333Y-95887380D01*
X121888333Y-95887380D02*
X122031190Y-95887380D01*
X122031190Y-95887380D02*
X122174047Y-95935000D01*
X122174047Y-95935000D02*
X122269285Y-96030238D01*
X122269285Y-96030238D02*
X122316904Y-96125476D01*
X122316904Y-96125476D02*
X122364523Y-96315952D01*
X122364523Y-96315952D02*
X122364523Y-96458809D01*
X122364523Y-96458809D02*
X122316904Y-96649285D01*
X122316904Y-96649285D02*
X122269285Y-96744523D01*
X122269285Y-96744523D02*
X122174047Y-96839761D01*
X122174047Y-96839761D02*
X122031190Y-96887380D01*
X122031190Y-96887380D02*
X121935952Y-96887380D01*
X121935952Y-96887380D02*
X121793095Y-96839761D01*
X121793095Y-96839761D02*
X121745476Y-96792142D01*
X121745476Y-96792142D02*
X121745476Y-96458809D01*
X121745476Y-96458809D02*
X121935952Y-96458809D01*
X121316904Y-96887380D02*
X121316904Y-95887380D01*
X121316904Y-95887380D02*
X120745476Y-96887380D01*
X120745476Y-96887380D02*
X120745476Y-95887380D01*
X120269285Y-96887380D02*
X120269285Y-95887380D01*
X120269285Y-95887380D02*
X120031190Y-95887380D01*
X120031190Y-95887380D02*
X119888333Y-95935000D01*
X119888333Y-95935000D02*
X119793095Y-96030238D01*
X119793095Y-96030238D02*
X119745476Y-96125476D01*
X119745476Y-96125476D02*
X119697857Y-96315952D01*
X119697857Y-96315952D02*
X119697857Y-96458809D01*
X119697857Y-96458809D02*
X119745476Y-96649285D01*
X119745476Y-96649285D02*
X119793095Y-96744523D01*
X119793095Y-96744523D02*
X119888333Y-96839761D01*
X119888333Y-96839761D02*
X120031190Y-96887380D01*
X120031190Y-96887380D02*
X120269285Y-96887380D01*
X115966428Y-101919761D02*
X115823571Y-101967380D01*
X115823571Y-101967380D02*
X115585476Y-101967380D01*
X115585476Y-101967380D02*
X115490238Y-101919761D01*
X115490238Y-101919761D02*
X115442619Y-101872142D01*
X115442619Y-101872142D02*
X115395000Y-101776904D01*
X115395000Y-101776904D02*
X115395000Y-101681666D01*
X115395000Y-101681666D02*
X115442619Y-101586428D01*
X115442619Y-101586428D02*
X115490238Y-101538809D01*
X115490238Y-101538809D02*
X115585476Y-101491190D01*
X115585476Y-101491190D02*
X115775952Y-101443571D01*
X115775952Y-101443571D02*
X115871190Y-101395952D01*
X115871190Y-101395952D02*
X115918809Y-101348333D01*
X115918809Y-101348333D02*
X115966428Y-101253095D01*
X115966428Y-101253095D02*
X115966428Y-101157857D01*
X115966428Y-101157857D02*
X115918809Y-101062619D01*
X115918809Y-101062619D02*
X115871190Y-101015000D01*
X115871190Y-101015000D02*
X115775952Y-100967380D01*
X115775952Y-100967380D02*
X115537857Y-100967380D01*
X115537857Y-100967380D02*
X115395000Y-101015000D01*
X114395000Y-101872142D02*
X114442619Y-101919761D01*
X114442619Y-101919761D02*
X114585476Y-101967380D01*
X114585476Y-101967380D02*
X114680714Y-101967380D01*
X114680714Y-101967380D02*
X114823571Y-101919761D01*
X114823571Y-101919761D02*
X114918809Y-101824523D01*
X114918809Y-101824523D02*
X114966428Y-101729285D01*
X114966428Y-101729285D02*
X115014047Y-101538809D01*
X115014047Y-101538809D02*
X115014047Y-101395952D01*
X115014047Y-101395952D02*
X114966428Y-101205476D01*
X114966428Y-101205476D02*
X114918809Y-101110238D01*
X114918809Y-101110238D02*
X114823571Y-101015000D01*
X114823571Y-101015000D02*
X114680714Y-100967380D01*
X114680714Y-100967380D02*
X114585476Y-100967380D01*
X114585476Y-100967380D02*
X114442619Y-101015000D01*
X114442619Y-101015000D02*
X114395000Y-101062619D01*
X113490238Y-101967380D02*
X113966428Y-101967380D01*
X113966428Y-101967380D02*
X113966428Y-100967380D01*
X113156904Y-101967380D02*
X113156904Y-100967380D01*
X112585476Y-101967380D02*
X113014047Y-101395952D01*
X112585476Y-100967380D02*
X113156904Y-101538809D01*
X115109285Y-96792142D02*
X115156904Y-96839761D01*
X115156904Y-96839761D02*
X115299761Y-96887380D01*
X115299761Y-96887380D02*
X115394999Y-96887380D01*
X115394999Y-96887380D02*
X115537856Y-96839761D01*
X115537856Y-96839761D02*
X115633094Y-96744523D01*
X115633094Y-96744523D02*
X115680713Y-96649285D01*
X115680713Y-96649285D02*
X115728332Y-96458809D01*
X115728332Y-96458809D02*
X115728332Y-96315952D01*
X115728332Y-96315952D02*
X115680713Y-96125476D01*
X115680713Y-96125476D02*
X115633094Y-96030238D01*
X115633094Y-96030238D02*
X115537856Y-95935000D01*
X115537856Y-95935000D02*
X115394999Y-95887380D01*
X115394999Y-95887380D02*
X115299761Y-95887380D01*
X115299761Y-95887380D02*
X115156904Y-95935000D01*
X115156904Y-95935000D02*
X115109285Y-95982619D01*
X114490237Y-95887380D02*
X114299761Y-95887380D01*
X114299761Y-95887380D02*
X114204523Y-95935000D01*
X114204523Y-95935000D02*
X114109285Y-96030238D01*
X114109285Y-96030238D02*
X114061666Y-96220714D01*
X114061666Y-96220714D02*
X114061666Y-96554047D01*
X114061666Y-96554047D02*
X114109285Y-96744523D01*
X114109285Y-96744523D02*
X114204523Y-96839761D01*
X114204523Y-96839761D02*
X114299761Y-96887380D01*
X114299761Y-96887380D02*
X114490237Y-96887380D01*
X114490237Y-96887380D02*
X114585475Y-96839761D01*
X114585475Y-96839761D02*
X114680713Y-96744523D01*
X114680713Y-96744523D02*
X114728332Y-96554047D01*
X114728332Y-96554047D02*
X114728332Y-96220714D01*
X114728332Y-96220714D02*
X114680713Y-96030238D01*
X114680713Y-96030238D02*
X114585475Y-95935000D01*
X114585475Y-95935000D02*
X114490237Y-95887380D01*
X113633094Y-96887380D02*
X113633094Y-95887380D01*
X113633094Y-95887380D02*
X113252142Y-95887380D01*
X113252142Y-95887380D02*
X113156904Y-95935000D01*
X113156904Y-95935000D02*
X113109285Y-95982619D01*
X113109285Y-95982619D02*
X113061666Y-96077857D01*
X113061666Y-96077857D02*
X113061666Y-96220714D01*
X113061666Y-96220714D02*
X113109285Y-96315952D01*
X113109285Y-96315952D02*
X113156904Y-96363571D01*
X113156904Y-96363571D02*
X113252142Y-96411190D01*
X113252142Y-96411190D02*
X113633094Y-96411190D01*
X112633094Y-96887380D02*
X112633094Y-95887380D01*
X122405714Y-72662142D02*
X122453333Y-72709761D01*
X122453333Y-72709761D02*
X122596190Y-72757380D01*
X122596190Y-72757380D02*
X122691428Y-72757380D01*
X122691428Y-72757380D02*
X122834285Y-72709761D01*
X122834285Y-72709761D02*
X122929523Y-72614523D01*
X122929523Y-72614523D02*
X122977142Y-72519285D01*
X122977142Y-72519285D02*
X123024761Y-72328809D01*
X123024761Y-72328809D02*
X123024761Y-72185952D01*
X123024761Y-72185952D02*
X122977142Y-71995476D01*
X122977142Y-71995476D02*
X122929523Y-71900238D01*
X122929523Y-71900238D02*
X122834285Y-71805000D01*
X122834285Y-71805000D02*
X122691428Y-71757380D01*
X122691428Y-71757380D02*
X122596190Y-71757380D01*
X122596190Y-71757380D02*
X122453333Y-71805000D01*
X122453333Y-71805000D02*
X122405714Y-71852619D01*
X122024761Y-72471666D02*
X121548571Y-72471666D01*
X122119999Y-72757380D02*
X121786666Y-71757380D01*
X121786666Y-71757380D02*
X121453333Y-72757380D01*
X121119999Y-72757380D02*
X121119999Y-71757380D01*
X121119999Y-71757380D02*
X120548571Y-72757380D01*
X120548571Y-72757380D02*
X120548571Y-71757380D01*
X119548571Y-72757380D02*
X120119999Y-72757380D01*
X119834285Y-72757380D02*
X119834285Y-71757380D01*
X119834285Y-71757380D02*
X119929523Y-71900238D01*
X119929523Y-71900238D02*
X120024761Y-71995476D01*
X120024761Y-71995476D02*
X120119999Y-72043095D01*
X118643809Y-72757380D02*
X119119999Y-72757380D01*
X119119999Y-72757380D02*
X119119999Y-71757380D01*
X121745476Y-86632142D02*
X121793095Y-86679761D01*
X121793095Y-86679761D02*
X121935952Y-86727380D01*
X121935952Y-86727380D02*
X122031190Y-86727380D01*
X122031190Y-86727380D02*
X122174047Y-86679761D01*
X122174047Y-86679761D02*
X122269285Y-86584523D01*
X122269285Y-86584523D02*
X122316904Y-86489285D01*
X122316904Y-86489285D02*
X122364523Y-86298809D01*
X122364523Y-86298809D02*
X122364523Y-86155952D01*
X122364523Y-86155952D02*
X122316904Y-85965476D01*
X122316904Y-85965476D02*
X122269285Y-85870238D01*
X122269285Y-85870238D02*
X122174047Y-85775000D01*
X122174047Y-85775000D02*
X122031190Y-85727380D01*
X122031190Y-85727380D02*
X121935952Y-85727380D01*
X121935952Y-85727380D02*
X121793095Y-85775000D01*
X121793095Y-85775000D02*
X121745476Y-85822619D01*
X121364523Y-86679761D02*
X121221666Y-86727380D01*
X121221666Y-86727380D02*
X120983571Y-86727380D01*
X120983571Y-86727380D02*
X120888333Y-86679761D01*
X120888333Y-86679761D02*
X120840714Y-86632142D01*
X120840714Y-86632142D02*
X120793095Y-86536904D01*
X120793095Y-86536904D02*
X120793095Y-86441666D01*
X120793095Y-86441666D02*
X120840714Y-86346428D01*
X120840714Y-86346428D02*
X120888333Y-86298809D01*
X120888333Y-86298809D02*
X120983571Y-86251190D01*
X120983571Y-86251190D02*
X121174047Y-86203571D01*
X121174047Y-86203571D02*
X121269285Y-86155952D01*
X121269285Y-86155952D02*
X121316904Y-86108333D01*
X121316904Y-86108333D02*
X121364523Y-86013095D01*
X121364523Y-86013095D02*
X121364523Y-85917857D01*
X121364523Y-85917857D02*
X121316904Y-85822619D01*
X121316904Y-85822619D02*
X121269285Y-85775000D01*
X121269285Y-85775000D02*
X121174047Y-85727380D01*
X121174047Y-85727380D02*
X120935952Y-85727380D01*
X120935952Y-85727380D02*
X120793095Y-85775000D01*
X120459761Y-85727380D02*
X119840714Y-85727380D01*
X119840714Y-85727380D02*
X120174047Y-86108333D01*
X120174047Y-86108333D02*
X120031190Y-86108333D01*
X120031190Y-86108333D02*
X119935952Y-86155952D01*
X119935952Y-86155952D02*
X119888333Y-86203571D01*
X119888333Y-86203571D02*
X119840714Y-86298809D01*
X119840714Y-86298809D02*
X119840714Y-86536904D01*
X119840714Y-86536904D02*
X119888333Y-86632142D01*
X119888333Y-86632142D02*
X119935952Y-86679761D01*
X119935952Y-86679761D02*
X120031190Y-86727380D01*
X120031190Y-86727380D02*
X120316904Y-86727380D01*
X120316904Y-86727380D02*
X120412142Y-86679761D01*
X120412142Y-86679761D02*
X120459761Y-86632142D01*
X122455000Y-85375000D02*
X119750238Y-85375000D01*
X122453333Y-64185000D02*
X122548571Y-64137380D01*
X122548571Y-64137380D02*
X122691428Y-64137380D01*
X122691428Y-64137380D02*
X122834285Y-64185000D01*
X122834285Y-64185000D02*
X122929523Y-64280238D01*
X122929523Y-64280238D02*
X122977142Y-64375476D01*
X122977142Y-64375476D02*
X123024761Y-64565952D01*
X123024761Y-64565952D02*
X123024761Y-64708809D01*
X123024761Y-64708809D02*
X122977142Y-64899285D01*
X122977142Y-64899285D02*
X122929523Y-64994523D01*
X122929523Y-64994523D02*
X122834285Y-65089761D01*
X122834285Y-65089761D02*
X122691428Y-65137380D01*
X122691428Y-65137380D02*
X122596190Y-65137380D01*
X122596190Y-65137380D02*
X122453333Y-65089761D01*
X122453333Y-65089761D02*
X122405714Y-65042142D01*
X122405714Y-65042142D02*
X122405714Y-64708809D01*
X122405714Y-64708809D02*
X122596190Y-64708809D01*
X121977142Y-65137380D02*
X121977142Y-64137380D01*
X121977142Y-64137380D02*
X121405714Y-65137380D01*
X121405714Y-65137380D02*
X121405714Y-64137380D01*
X120929523Y-65137380D02*
X120929523Y-64137380D01*
X120929523Y-64137380D02*
X120691428Y-64137380D01*
X120691428Y-64137380D02*
X120548571Y-64185000D01*
X120548571Y-64185000D02*
X120453333Y-64280238D01*
X120453333Y-64280238D02*
X120405714Y-64375476D01*
X120405714Y-64375476D02*
X120358095Y-64565952D01*
X120358095Y-64565952D02*
X120358095Y-64708809D01*
X120358095Y-64708809D02*
X120405714Y-64899285D01*
X120405714Y-64899285D02*
X120453333Y-64994523D01*
X120453333Y-64994523D02*
X120548571Y-65089761D01*
X120548571Y-65089761D02*
X120691428Y-65137380D01*
X120691428Y-65137380D02*
X120929523Y-65137380D01*
X180242381Y-91807380D02*
X180575714Y-91331190D01*
X180813809Y-91807380D02*
X180813809Y-90807380D01*
X180813809Y-90807380D02*
X180432857Y-90807380D01*
X180432857Y-90807380D02*
X180337619Y-90855000D01*
X180337619Y-90855000D02*
X180290000Y-90902619D01*
X180290000Y-90902619D02*
X180242381Y-90997857D01*
X180242381Y-90997857D02*
X180242381Y-91140714D01*
X180242381Y-91140714D02*
X180290000Y-91235952D01*
X180290000Y-91235952D02*
X180337619Y-91283571D01*
X180337619Y-91283571D02*
X180432857Y-91331190D01*
X180432857Y-91331190D02*
X180813809Y-91331190D01*
X179290000Y-91807380D02*
X179861428Y-91807380D01*
X179575714Y-91807380D02*
X179575714Y-90807380D01*
X179575714Y-90807380D02*
X179670952Y-90950238D01*
X179670952Y-90950238D02*
X179766190Y-91045476D01*
X179766190Y-91045476D02*
X179861428Y-91093095D01*
X179099524Y-91902619D02*
X178337619Y-91902619D01*
X178147142Y-91521666D02*
X177670952Y-91521666D01*
X178242380Y-91807380D02*
X177909047Y-90807380D01*
X177909047Y-90807380D02*
X177575714Y-91807380D01*
X176766190Y-90807380D02*
X177242380Y-90807380D01*
X177242380Y-90807380D02*
X177289999Y-91283571D01*
X177289999Y-91283571D02*
X177242380Y-91235952D01*
X177242380Y-91235952D02*
X177147142Y-91188333D01*
X177147142Y-91188333D02*
X176909047Y-91188333D01*
X176909047Y-91188333D02*
X176813809Y-91235952D01*
X176813809Y-91235952D02*
X176766190Y-91283571D01*
X176766190Y-91283571D02*
X176718571Y-91378809D01*
X176718571Y-91378809D02*
X176718571Y-91616904D01*
X176718571Y-91616904D02*
X176766190Y-91712142D01*
X176766190Y-91712142D02*
X176813809Y-91759761D01*
X176813809Y-91759761D02*
X176909047Y-91807380D01*
X176909047Y-91807380D02*
X177147142Y-91807380D01*
X177147142Y-91807380D02*
X177242380Y-91759761D01*
X177242380Y-91759761D02*
X177289999Y-91712142D01*
X180242381Y-101967380D02*
X180575714Y-101491190D01*
X180813809Y-101967380D02*
X180813809Y-100967380D01*
X180813809Y-100967380D02*
X180432857Y-100967380D01*
X180432857Y-100967380D02*
X180337619Y-101015000D01*
X180337619Y-101015000D02*
X180290000Y-101062619D01*
X180290000Y-101062619D02*
X180242381Y-101157857D01*
X180242381Y-101157857D02*
X180242381Y-101300714D01*
X180242381Y-101300714D02*
X180290000Y-101395952D01*
X180290000Y-101395952D02*
X180337619Y-101443571D01*
X180337619Y-101443571D02*
X180432857Y-101491190D01*
X180432857Y-101491190D02*
X180813809Y-101491190D01*
X179290000Y-101967380D02*
X179861428Y-101967380D01*
X179575714Y-101967380D02*
X179575714Y-100967380D01*
X179575714Y-100967380D02*
X179670952Y-101110238D01*
X179670952Y-101110238D02*
X179766190Y-101205476D01*
X179766190Y-101205476D02*
X179861428Y-101253095D01*
X179099524Y-102062619D02*
X178337619Y-102062619D01*
X178147142Y-101681666D02*
X177670952Y-101681666D01*
X178242380Y-101967380D02*
X177909047Y-100967380D01*
X177909047Y-100967380D02*
X177575714Y-101967380D01*
X177337618Y-100967380D02*
X176670952Y-100967380D01*
X176670952Y-100967380D02*
X177099523Y-101967380D01*
X180242381Y-76567380D02*
X180575714Y-76091190D01*
X180813809Y-76567380D02*
X180813809Y-75567380D01*
X180813809Y-75567380D02*
X180432857Y-75567380D01*
X180432857Y-75567380D02*
X180337619Y-75615000D01*
X180337619Y-75615000D02*
X180290000Y-75662619D01*
X180290000Y-75662619D02*
X180242381Y-75757857D01*
X180242381Y-75757857D02*
X180242381Y-75900714D01*
X180242381Y-75900714D02*
X180290000Y-75995952D01*
X180290000Y-75995952D02*
X180337619Y-76043571D01*
X180337619Y-76043571D02*
X180432857Y-76091190D01*
X180432857Y-76091190D02*
X180813809Y-76091190D01*
X179290000Y-76567380D02*
X179861428Y-76567380D01*
X179575714Y-76567380D02*
X179575714Y-75567380D01*
X179575714Y-75567380D02*
X179670952Y-75710238D01*
X179670952Y-75710238D02*
X179766190Y-75805476D01*
X179766190Y-75805476D02*
X179861428Y-75853095D01*
X179099524Y-76662619D02*
X178337619Y-76662619D01*
X178147142Y-76281666D02*
X177670952Y-76281666D01*
X178242380Y-76567380D02*
X177909047Y-75567380D01*
X177909047Y-75567380D02*
X177575714Y-76567380D01*
X177289999Y-75662619D02*
X177242380Y-75615000D01*
X177242380Y-75615000D02*
X177147142Y-75567380D01*
X177147142Y-75567380D02*
X176909047Y-75567380D01*
X176909047Y-75567380D02*
X176813809Y-75615000D01*
X176813809Y-75615000D02*
X176766190Y-75662619D01*
X176766190Y-75662619D02*
X176718571Y-75757857D01*
X176718571Y-75757857D02*
X176718571Y-75853095D01*
X176718571Y-75853095D02*
X176766190Y-75995952D01*
X176766190Y-75995952D02*
X177337618Y-76567380D01*
X177337618Y-76567380D02*
X176718571Y-76567380D01*
X106412380Y-58189999D02*
X105936190Y-57856666D01*
X106412380Y-57618571D02*
X105412380Y-57618571D01*
X105412380Y-57618571D02*
X105412380Y-57999523D01*
X105412380Y-57999523D02*
X105460000Y-58094761D01*
X105460000Y-58094761D02*
X105507619Y-58142380D01*
X105507619Y-58142380D02*
X105602857Y-58189999D01*
X105602857Y-58189999D02*
X105745714Y-58189999D01*
X105745714Y-58189999D02*
X105840952Y-58142380D01*
X105840952Y-58142380D02*
X105888571Y-58094761D01*
X105888571Y-58094761D02*
X105936190Y-57999523D01*
X105936190Y-57999523D02*
X105936190Y-57618571D01*
X106507619Y-58380476D02*
X106507619Y-59142380D01*
X106412380Y-59904285D02*
X106412380Y-59332857D01*
X106412380Y-59618571D02*
X105412380Y-59618571D01*
X105412380Y-59618571D02*
X105555238Y-59523333D01*
X105555238Y-59523333D02*
X105650476Y-59428095D01*
X105650476Y-59428095D02*
X105698095Y-59332857D01*
X106412380Y-60856666D02*
X106412380Y-60285238D01*
X106412380Y-60570952D02*
X105412380Y-60570952D01*
X105412380Y-60570952D02*
X105555238Y-60475714D01*
X105555238Y-60475714D02*
X105650476Y-60380476D01*
X105650476Y-60380476D02*
X105698095Y-60285238D01*
X105412380Y-61475714D02*
X105412380Y-61570952D01*
X105412380Y-61570952D02*
X105460000Y-61666190D01*
X105460000Y-61666190D02*
X105507619Y-61713809D01*
X105507619Y-61713809D02*
X105602857Y-61761428D01*
X105602857Y-61761428D02*
X105793333Y-61809047D01*
X105793333Y-61809047D02*
X106031428Y-61809047D01*
X106031428Y-61809047D02*
X106221904Y-61761428D01*
X106221904Y-61761428D02*
X106317142Y-61713809D01*
X106317142Y-61713809D02*
X106364761Y-61666190D01*
X106364761Y-61666190D02*
X106412380Y-61570952D01*
X106412380Y-61570952D02*
X106412380Y-61475714D01*
X106412380Y-61475714D02*
X106364761Y-61380476D01*
X106364761Y-61380476D02*
X106317142Y-61332857D01*
X106317142Y-61332857D02*
X106221904Y-61285238D01*
X106221904Y-61285238D02*
X106031428Y-61237619D01*
X106031428Y-61237619D02*
X105793333Y-61237619D01*
X105793333Y-61237619D02*
X105602857Y-61285238D01*
X105602857Y-61285238D02*
X105507619Y-61332857D01*
X105507619Y-61332857D02*
X105460000Y-61380476D01*
X105460000Y-61380476D02*
X105412380Y-61475714D01*
X180242381Y-71487380D02*
X180575714Y-71011190D01*
X180813809Y-71487380D02*
X180813809Y-70487380D01*
X180813809Y-70487380D02*
X180432857Y-70487380D01*
X180432857Y-70487380D02*
X180337619Y-70535000D01*
X180337619Y-70535000D02*
X180290000Y-70582619D01*
X180290000Y-70582619D02*
X180242381Y-70677857D01*
X180242381Y-70677857D02*
X180242381Y-70820714D01*
X180242381Y-70820714D02*
X180290000Y-70915952D01*
X180290000Y-70915952D02*
X180337619Y-70963571D01*
X180337619Y-70963571D02*
X180432857Y-71011190D01*
X180432857Y-71011190D02*
X180813809Y-71011190D01*
X179290000Y-71487380D02*
X179861428Y-71487380D01*
X179575714Y-71487380D02*
X179575714Y-70487380D01*
X179575714Y-70487380D02*
X179670952Y-70630238D01*
X179670952Y-70630238D02*
X179766190Y-70725476D01*
X179766190Y-70725476D02*
X179861428Y-70773095D01*
X179099524Y-71582619D02*
X178337619Y-71582619D01*
X178147142Y-71201666D02*
X177670952Y-71201666D01*
X178242380Y-71487380D02*
X177909047Y-70487380D01*
X177909047Y-70487380D02*
X177575714Y-71487380D01*
X176718571Y-71487380D02*
X177289999Y-71487380D01*
X177004285Y-71487380D02*
X177004285Y-70487380D01*
X177004285Y-70487380D02*
X177099523Y-70630238D01*
X177099523Y-70630238D02*
X177194761Y-70725476D01*
X177194761Y-70725476D02*
X177289999Y-70773095D01*
X180522381Y-107047380D02*
X180855714Y-106571190D01*
X181093809Y-107047380D02*
X181093809Y-106047380D01*
X181093809Y-106047380D02*
X180712857Y-106047380D01*
X180712857Y-106047380D02*
X180617619Y-106095000D01*
X180617619Y-106095000D02*
X180570000Y-106142619D01*
X180570000Y-106142619D02*
X180522381Y-106237857D01*
X180522381Y-106237857D02*
X180522381Y-106380714D01*
X180522381Y-106380714D02*
X180570000Y-106475952D01*
X180570000Y-106475952D02*
X180617619Y-106523571D01*
X180617619Y-106523571D02*
X180712857Y-106571190D01*
X180712857Y-106571190D02*
X181093809Y-106571190D01*
X179570000Y-107047380D02*
X180141428Y-107047380D01*
X179855714Y-107047380D02*
X179855714Y-106047380D01*
X179855714Y-106047380D02*
X179950952Y-106190238D01*
X179950952Y-106190238D02*
X180046190Y-106285476D01*
X180046190Y-106285476D02*
X180141428Y-106333095D01*
X179379524Y-107142619D02*
X178617619Y-107142619D01*
X178427142Y-106761666D02*
X177950952Y-106761666D01*
X178522380Y-107047380D02*
X178189047Y-106047380D01*
X178189047Y-106047380D02*
X177855714Y-107047380D01*
X177379523Y-106475952D02*
X177474761Y-106428333D01*
X177474761Y-106428333D02*
X177522380Y-106380714D01*
X177522380Y-106380714D02*
X177569999Y-106285476D01*
X177569999Y-106285476D02*
X177569999Y-106237857D01*
X177569999Y-106237857D02*
X177522380Y-106142619D01*
X177522380Y-106142619D02*
X177474761Y-106095000D01*
X177474761Y-106095000D02*
X177379523Y-106047380D01*
X177379523Y-106047380D02*
X177189047Y-106047380D01*
X177189047Y-106047380D02*
X177093809Y-106095000D01*
X177093809Y-106095000D02*
X177046190Y-106142619D01*
X177046190Y-106142619D02*
X176998571Y-106237857D01*
X176998571Y-106237857D02*
X176998571Y-106285476D01*
X176998571Y-106285476D02*
X177046190Y-106380714D01*
X177046190Y-106380714D02*
X177093809Y-106428333D01*
X177093809Y-106428333D02*
X177189047Y-106475952D01*
X177189047Y-106475952D02*
X177379523Y-106475952D01*
X177379523Y-106475952D02*
X177474761Y-106523571D01*
X177474761Y-106523571D02*
X177522380Y-106571190D01*
X177522380Y-106571190D02*
X177569999Y-106666428D01*
X177569999Y-106666428D02*
X177569999Y-106856904D01*
X177569999Y-106856904D02*
X177522380Y-106952142D01*
X177522380Y-106952142D02*
X177474761Y-106999761D01*
X177474761Y-106999761D02*
X177379523Y-107047380D01*
X177379523Y-107047380D02*
X177189047Y-107047380D01*
X177189047Y-107047380D02*
X177093809Y-106999761D01*
X177093809Y-106999761D02*
X177046190Y-106952142D01*
X177046190Y-106952142D02*
X176998571Y-106856904D01*
X176998571Y-106856904D02*
X176998571Y-106666428D01*
X176998571Y-106666428D02*
X177046190Y-106571190D01*
X177046190Y-106571190D02*
X177093809Y-106523571D01*
X177093809Y-106523571D02*
X177189047Y-106475952D01*
X180242381Y-81647380D02*
X180575714Y-81171190D01*
X180813809Y-81647380D02*
X180813809Y-80647380D01*
X180813809Y-80647380D02*
X180432857Y-80647380D01*
X180432857Y-80647380D02*
X180337619Y-80695000D01*
X180337619Y-80695000D02*
X180290000Y-80742619D01*
X180290000Y-80742619D02*
X180242381Y-80837857D01*
X180242381Y-80837857D02*
X180242381Y-80980714D01*
X180242381Y-80980714D02*
X180290000Y-81075952D01*
X180290000Y-81075952D02*
X180337619Y-81123571D01*
X180337619Y-81123571D02*
X180432857Y-81171190D01*
X180432857Y-81171190D02*
X180813809Y-81171190D01*
X179290000Y-81647380D02*
X179861428Y-81647380D01*
X179575714Y-81647380D02*
X179575714Y-80647380D01*
X179575714Y-80647380D02*
X179670952Y-80790238D01*
X179670952Y-80790238D02*
X179766190Y-80885476D01*
X179766190Y-80885476D02*
X179861428Y-80933095D01*
X179099524Y-81742619D02*
X178337619Y-81742619D01*
X178147142Y-81361666D02*
X177670952Y-81361666D01*
X178242380Y-81647380D02*
X177909047Y-80647380D01*
X177909047Y-80647380D02*
X177575714Y-81647380D01*
X177337618Y-80647380D02*
X176718571Y-80647380D01*
X176718571Y-80647380D02*
X177051904Y-81028333D01*
X177051904Y-81028333D02*
X176909047Y-81028333D01*
X176909047Y-81028333D02*
X176813809Y-81075952D01*
X176813809Y-81075952D02*
X176766190Y-81123571D01*
X176766190Y-81123571D02*
X176718571Y-81218809D01*
X176718571Y-81218809D02*
X176718571Y-81456904D01*
X176718571Y-81456904D02*
X176766190Y-81552142D01*
X176766190Y-81552142D02*
X176813809Y-81599761D01*
X176813809Y-81599761D02*
X176909047Y-81647380D01*
X176909047Y-81647380D02*
X177194761Y-81647380D01*
X177194761Y-81647380D02*
X177289999Y-81599761D01*
X177289999Y-81599761D02*
X177337618Y-81552142D01*
X180242381Y-86727380D02*
X180575714Y-86251190D01*
X180813809Y-86727380D02*
X180813809Y-85727380D01*
X180813809Y-85727380D02*
X180432857Y-85727380D01*
X180432857Y-85727380D02*
X180337619Y-85775000D01*
X180337619Y-85775000D02*
X180290000Y-85822619D01*
X180290000Y-85822619D02*
X180242381Y-85917857D01*
X180242381Y-85917857D02*
X180242381Y-86060714D01*
X180242381Y-86060714D02*
X180290000Y-86155952D01*
X180290000Y-86155952D02*
X180337619Y-86203571D01*
X180337619Y-86203571D02*
X180432857Y-86251190D01*
X180432857Y-86251190D02*
X180813809Y-86251190D01*
X179290000Y-86727380D02*
X179861428Y-86727380D01*
X179575714Y-86727380D02*
X179575714Y-85727380D01*
X179575714Y-85727380D02*
X179670952Y-85870238D01*
X179670952Y-85870238D02*
X179766190Y-85965476D01*
X179766190Y-85965476D02*
X179861428Y-86013095D01*
X179099524Y-86822619D02*
X178337619Y-86822619D01*
X178147142Y-86441666D02*
X177670952Y-86441666D01*
X178242380Y-86727380D02*
X177909047Y-85727380D01*
X177909047Y-85727380D02*
X177575714Y-86727380D01*
X176813809Y-86060714D02*
X176813809Y-86727380D01*
X177051904Y-85679761D02*
X177289999Y-86394047D01*
X177289999Y-86394047D02*
X176670952Y-86394047D01*
X180242381Y-96887380D02*
X180575714Y-96411190D01*
X180813809Y-96887380D02*
X180813809Y-95887380D01*
X180813809Y-95887380D02*
X180432857Y-95887380D01*
X180432857Y-95887380D02*
X180337619Y-95935000D01*
X180337619Y-95935000D02*
X180290000Y-95982619D01*
X180290000Y-95982619D02*
X180242381Y-96077857D01*
X180242381Y-96077857D02*
X180242381Y-96220714D01*
X180242381Y-96220714D02*
X180290000Y-96315952D01*
X180290000Y-96315952D02*
X180337619Y-96363571D01*
X180337619Y-96363571D02*
X180432857Y-96411190D01*
X180432857Y-96411190D02*
X180813809Y-96411190D01*
X179290000Y-96887380D02*
X179861428Y-96887380D01*
X179575714Y-96887380D02*
X179575714Y-95887380D01*
X179575714Y-95887380D02*
X179670952Y-96030238D01*
X179670952Y-96030238D02*
X179766190Y-96125476D01*
X179766190Y-96125476D02*
X179861428Y-96173095D01*
X179099524Y-96982619D02*
X178337619Y-96982619D01*
X178147142Y-96601666D02*
X177670952Y-96601666D01*
X178242380Y-96887380D02*
X177909047Y-95887380D01*
X177909047Y-95887380D02*
X177575714Y-96887380D01*
X176813809Y-95887380D02*
X177004285Y-95887380D01*
X177004285Y-95887380D02*
X177099523Y-95935000D01*
X177099523Y-95935000D02*
X177147142Y-95982619D01*
X177147142Y-95982619D02*
X177242380Y-96125476D01*
X177242380Y-96125476D02*
X177289999Y-96315952D01*
X177289999Y-96315952D02*
X177289999Y-96696904D01*
X177289999Y-96696904D02*
X177242380Y-96792142D01*
X177242380Y-96792142D02*
X177194761Y-96839761D01*
X177194761Y-96839761D02*
X177099523Y-96887380D01*
X177099523Y-96887380D02*
X176909047Y-96887380D01*
X176909047Y-96887380D02*
X176813809Y-96839761D01*
X176813809Y-96839761D02*
X176766190Y-96792142D01*
X176766190Y-96792142D02*
X176718571Y-96696904D01*
X176718571Y-96696904D02*
X176718571Y-96458809D01*
X176718571Y-96458809D02*
X176766190Y-96363571D01*
X176766190Y-96363571D02*
X176813809Y-96315952D01*
X176813809Y-96315952D02*
X176909047Y-96268333D01*
X176909047Y-96268333D02*
X177099523Y-96268333D01*
X177099523Y-96268333D02*
X177194761Y-96315952D01*
X177194761Y-96315952D02*
X177242380Y-96363571D01*
X177242380Y-96363571D02*
X177289999Y-96458809D01*
D12*
X157480000Y-81280000D02*
X139700000Y-81280000D01*
X139700000Y-81280000D02*
X139700000Y-99060000D01*
X139700000Y-99060000D02*
X157480000Y-99060000D01*
X157480000Y-99060000D02*
X157480000Y-81280000D01*
X178066263Y-92625000D02*
X179513737Y-92625000D01*
X178066263Y-95335000D02*
X179513737Y-95335000D01*
G36*
X124599700Y-125539280D02*
G01*
X124055187Y-125431330D01*
X124055187Y-125429742D01*
X124599700Y-125321792D01*
X124599700Y-125539280D01*
G37*
G36*
X124420312Y-127749080D02*
G01*
X124408406Y-127852267D01*
X124372687Y-127920530D01*
X124308394Y-127958630D01*
X124210762Y-127971330D01*
X124117298Y-127959423D01*
X124052806Y-127923705D01*
X124015302Y-127863776D01*
X124002800Y-127779242D01*
X124015500Y-127687167D01*
X124420312Y-127687167D01*
X124420312Y-127749080D01*
G37*
G36*
X123352057Y-124315317D02*
G01*
X123352057Y-123587713D01*
X125567943Y-123587713D01*
X125567943Y-124315317D01*
X125567943Y-128946055D01*
X125567943Y-129673659D01*
X124460000Y-130412287D01*
X123352057Y-129673659D01*
X123352057Y-128946055D01*
X123352057Y-128942880D01*
X123880562Y-128942880D01*
X124448887Y-128720630D01*
X125039438Y-128946055D01*
X125039438Y-128752380D01*
X124575888Y-128606330D01*
X124575888Y-128603155D01*
X125039438Y-128458692D01*
X125039438Y-128271367D01*
X124448887Y-128498380D01*
X123880562Y-128276130D01*
X123880562Y-128465042D01*
X124325062Y-128609505D01*
X124325062Y-128612680D01*
X123880562Y-128758730D01*
X123880562Y-128942880D01*
X123352057Y-128942880D01*
X123352057Y-127779242D01*
X123864687Y-127779242D01*
X123873948Y-127893983D01*
X123901729Y-127986323D01*
X123948031Y-128056261D01*
X124014265Y-128105209D01*
X124101842Y-128134577D01*
X124210762Y-128144367D01*
X124314545Y-128133255D01*
X124398881Y-128099917D01*
X124463770Y-128044355D01*
X124509213Y-127966567D01*
X124512388Y-127966567D01*
X124590969Y-128026892D01*
X124715588Y-128077692D01*
X125039438Y-128176117D01*
X125039438Y-127993555D01*
X124706063Y-127901480D01*
X124634030Y-127875484D01*
X124589381Y-127845123D01*
X124558425Y-127749080D01*
X124558425Y-127687167D01*
X125039438Y-127687167D01*
X125039438Y-127509367D01*
X123896437Y-127509367D01*
X123878799Y-127597914D01*
X123868215Y-127687873D01*
X123864687Y-127779242D01*
X123352057Y-127779242D01*
X123352057Y-126529880D01*
X123880562Y-126529880D01*
X125039438Y-126529880D01*
X125039438Y-126352080D01*
X124198062Y-126104430D01*
X124198062Y-126101255D01*
X125039438Y-126101255D01*
X125039438Y-125926630D01*
X123880562Y-125926630D01*
X123880562Y-126110780D01*
X124721938Y-126358430D01*
X124721938Y-126363192D01*
X123880562Y-126363192D01*
X123880562Y-126529880D01*
X123352057Y-126529880D01*
X123352057Y-125536105D01*
X123880562Y-125536105D01*
X125039438Y-125810742D01*
X125039438Y-125626592D01*
X124734638Y-125566267D01*
X124734638Y-125294805D01*
X125039438Y-125234480D01*
X125039438Y-125056680D01*
X123880562Y-125329730D01*
X123880562Y-125536105D01*
X123352057Y-125536105D01*
X123352057Y-124712192D01*
X123864687Y-124712192D01*
X123873419Y-124825301D01*
X123899612Y-124926505D01*
X124258387Y-124926505D01*
X124258387Y-124756642D01*
X124010737Y-124756642D01*
X124004387Y-124720130D01*
X124016602Y-124649794D01*
X124053247Y-124592248D01*
X124114322Y-124547489D01*
X124199826Y-124515518D01*
X124309761Y-124496336D01*
X124444125Y-124489942D01*
X124589161Y-124496998D01*
X124707826Y-124518164D01*
X124800122Y-124553442D01*
X124866047Y-124602831D01*
X124905602Y-124666331D01*
X124918788Y-124743942D01*
X124906484Y-124828080D01*
X124869575Y-124918567D01*
X125015625Y-124918567D01*
X125045391Y-124822920D01*
X125055313Y-124716955D01*
X125045763Y-124622821D01*
X125017113Y-124541238D01*
X124969364Y-124472207D01*
X124902516Y-124415726D01*
X124816567Y-124371797D01*
X124711520Y-124340419D01*
X124587372Y-124321593D01*
X124444125Y-124315317D01*
X124308319Y-124321518D01*
X124190621Y-124340122D01*
X124091030Y-124371128D01*
X124009547Y-124414536D01*
X123946171Y-124470346D01*
X123900902Y-124538559D01*
X123873741Y-124619174D01*
X123864687Y-124712192D01*
X123352057Y-124712192D01*
X123352057Y-124315317D01*
G37*
G36*
X192540511Y-89039700D02*
G01*
X192323023Y-89039700D01*
X192430973Y-88495187D01*
X192432561Y-88495187D01*
X192540511Y-89039700D01*
G37*
G36*
X193358073Y-88457087D02*
G01*
X193358073Y-89344500D01*
X193286636Y-89358788D01*
X193175709Y-89333388D01*
X193100105Y-89257188D01*
X193067914Y-89170581D01*
X193048599Y-89046226D01*
X193042161Y-88884125D01*
X193048687Y-88737369D01*
X193068266Y-88623069D01*
X193100898Y-88541225D01*
X193176701Y-88467406D01*
X193286636Y-88442800D01*
X193358073Y-88457087D01*
G37*
G36*
X193535873Y-87792057D02*
G01*
X194048503Y-87792057D01*
X194787132Y-88900000D01*
X194048503Y-90007943D01*
X193535873Y-90007943D01*
X190535498Y-90007943D01*
X190022868Y-90007943D01*
X190022868Y-89146063D01*
X190535498Y-89146063D01*
X190545420Y-89252778D01*
X190575186Y-89340090D01*
X190624795Y-89408000D01*
X190694248Y-89456507D01*
X190783545Y-89485611D01*
X190892686Y-89495313D01*
X191022067Y-89482613D01*
X191146686Y-89444513D01*
X191146686Y-89341325D01*
X191364173Y-89341325D01*
X191364173Y-89479438D01*
X191903923Y-89479438D01*
X192051561Y-89479438D01*
X192235711Y-89479438D01*
X192296036Y-89174638D01*
X192567498Y-89174638D01*
X192627823Y-89479438D01*
X192805623Y-89479438D01*
X192665358Y-88884125D01*
X192869123Y-88884125D01*
X192874327Y-89027882D01*
X192889937Y-89150119D01*
X192915955Y-89250838D01*
X192973303Y-89365733D01*
X193051686Y-89440544D01*
X193154873Y-89481620D01*
X193286636Y-89495313D01*
X193416414Y-89487375D01*
X193535873Y-89463563D01*
X193535873Y-88336437D01*
X193411651Y-88312625D01*
X193286636Y-88304687D01*
X193152316Y-88319063D01*
X193045689Y-88362190D01*
X192966755Y-88434069D01*
X192924041Y-88510715D01*
X192893531Y-88611273D01*
X192875225Y-88735743D01*
X192869123Y-88884125D01*
X192665358Y-88884125D01*
X192532573Y-88320562D01*
X192326198Y-88320562D01*
X192051561Y-89479438D01*
X191903923Y-89479438D01*
X191903923Y-89341325D01*
X191726123Y-89341325D01*
X191726123Y-88458675D01*
X191903923Y-88458675D01*
X191903923Y-88320562D01*
X191364173Y-88320562D01*
X191364173Y-88458675D01*
X191541973Y-88458675D01*
X191541973Y-89341325D01*
X191364173Y-89341325D01*
X191146686Y-89341325D01*
X191146686Y-89292113D01*
X191031195Y-89340928D01*
X190913323Y-89357200D01*
X190825812Y-89343508D01*
X190763305Y-89302431D01*
X190725800Y-89233970D01*
X190713298Y-89138125D01*
X190727586Y-89043867D01*
X190770448Y-88980169D01*
X190848236Y-88943855D01*
X190967298Y-88931750D01*
X190999048Y-88931750D01*
X190999048Y-88792050D01*
X190967298Y-88792050D01*
X190856570Y-88780144D01*
X190781561Y-88744425D01*
X190738698Y-88682909D01*
X190724411Y-88593612D01*
X190742755Y-88508946D01*
X190797789Y-88458146D01*
X190889511Y-88441212D01*
X191001430Y-88457881D01*
X191124461Y-88507887D01*
X191124461Y-88360250D01*
X191032739Y-88329382D01*
X190943839Y-88310861D01*
X190857761Y-88304687D01*
X190727189Y-88322348D01*
X190630748Y-88375331D01*
X190571217Y-88459667D01*
X190551373Y-88571387D01*
X190563280Y-88673087D01*
X190598998Y-88754347D01*
X190658530Y-88815168D01*
X190741873Y-88855550D01*
X190741873Y-88857137D01*
X190651584Y-88890078D01*
X190587092Y-88949213D01*
X190548397Y-89034541D01*
X190535498Y-89146063D01*
X190022868Y-89146063D01*
X190022868Y-87792057D01*
X190535498Y-87792057D01*
X193535873Y-87792057D01*
G37*
G36*
X191698562Y-113969006D02*
G01*
X191727137Y-113972975D01*
X191727137Y-114633375D01*
X191709675Y-114634963D01*
X191692212Y-114634963D01*
X191580294Y-114609563D01*
X191507269Y-114539713D01*
X191467581Y-114434144D01*
X191458652Y-114370048D01*
X191455675Y-114300000D01*
X191465200Y-114176175D01*
X191498537Y-114069812D01*
X191563625Y-113995994D01*
X191669987Y-113968212D01*
X191698562Y-113969006D01*
G37*
G36*
X193552763Y-113274607D02*
G01*
X194065393Y-113274607D01*
X194748988Y-114300000D01*
X194065393Y-115325393D01*
X193552763Y-115325393D01*
X191257237Y-115325393D01*
X190744607Y-115325393D01*
X190061012Y-114300000D01*
X191257237Y-114300000D01*
X191265770Y-114426405D01*
X191291369Y-114532569D01*
X191332048Y-114619683D01*
X191385825Y-114688938D01*
X191451905Y-114741127D01*
X191529494Y-114777044D01*
X191617005Y-114797880D01*
X191712850Y-114804825D01*
X191815244Y-114799269D01*
X191857177Y-114792125D01*
X192081150Y-114792125D01*
X192238312Y-114792125D01*
X192284085Y-114683205D01*
X192332504Y-114574461D01*
X192383569Y-114465894D01*
X192437279Y-114357326D01*
X192493635Y-114248583D01*
X192552638Y-114139662D01*
X192552638Y-114792125D01*
X192728850Y-114792125D01*
X192728850Y-113858675D01*
X192859025Y-113858675D01*
X192909825Y-114014250D01*
X192995550Y-113974562D01*
X193100325Y-113957100D01*
X193217800Y-113982500D01*
X193296381Y-114053144D01*
X193340831Y-114161094D01*
X193350952Y-114227173D01*
X193354325Y-114300000D01*
X193348151Y-114407156D01*
X193329631Y-114493675D01*
X193298763Y-114559556D01*
X193230103Y-114622064D01*
X193135250Y-114642900D01*
X193097150Y-114641313D01*
X193059050Y-114636550D01*
X193059050Y-114277775D01*
X192863788Y-114277775D01*
X192863788Y-114768313D01*
X192972531Y-114796888D01*
X193054089Y-114808794D01*
X193151125Y-114812763D01*
X193238636Y-114804627D01*
X193317019Y-114780219D01*
X193385480Y-114739738D01*
X193443225Y-114683381D01*
X193489659Y-114611150D01*
X193524188Y-114523044D01*
X193545619Y-114419261D01*
X193552763Y-114300000D01*
X193544428Y-114181930D01*
X193519425Y-114078544D01*
X193480134Y-113990239D01*
X193428938Y-113917412D01*
X193366628Y-113860461D01*
X193294000Y-113819781D01*
X193213434Y-113795373D01*
X193127313Y-113787237D01*
X193024919Y-113795969D01*
X192946338Y-113815812D01*
X192891569Y-113839625D01*
X192859025Y-113858675D01*
X192728850Y-113858675D01*
X192728850Y-113809462D01*
X192571688Y-113809462D01*
X192527238Y-113882289D01*
X192482788Y-113961069D01*
X192438933Y-114042627D01*
X192396269Y-114123787D01*
X192355787Y-114203559D01*
X192318481Y-114280950D01*
X192285342Y-114352388D01*
X192257362Y-114414300D01*
X192257362Y-113809462D01*
X192081150Y-113809462D01*
X192081150Y-114792125D01*
X191857177Y-114792125D01*
X191922400Y-114781013D01*
X191922400Y-113822162D01*
X191796987Y-113803112D01*
X191687450Y-113798350D01*
X191594780Y-113805494D01*
X191510444Y-113826925D01*
X191436427Y-113863636D01*
X191374712Y-113916619D01*
X191325302Y-113986072D01*
X191288194Y-114072194D01*
X191264977Y-114176373D01*
X191257237Y-114300000D01*
X190061012Y-114300000D01*
X190744607Y-113274607D01*
X191257237Y-113274607D01*
X193552763Y-113274607D01*
G37*
G36*
X131832350Y-117750431D02*
G01*
X132010943Y-118009987D01*
X132180012Y-118283831D01*
X132322887Y-118555294D01*
X131656137Y-118555294D01*
X131656137Y-117517069D01*
X131832350Y-117750431D01*
G37*
G36*
X165253193Y-117671850D02*
G01*
X165329393Y-117967125D01*
X165396068Y-118260019D01*
X165455600Y-118564819D01*
X164879337Y-118564819D01*
X164936487Y-118260019D01*
X165000781Y-117967125D01*
X165076981Y-117671850D01*
X165165087Y-117355144D01*
X165253193Y-117671850D01*
G37*
G36*
X143998156Y-117283706D02*
G01*
X144114837Y-117536119D01*
X144005300Y-117807581D01*
X143854090Y-117914737D01*
X143619537Y-118026656D01*
X143409987Y-117786150D01*
X143348075Y-117531356D01*
X143459993Y-117281325D01*
X143729075Y-117197981D01*
X143998156Y-117283706D01*
G37*
G36*
X144119600Y-118662450D02*
G01*
X144191037Y-118922006D01*
X144055306Y-119210138D01*
X143733837Y-119307769D01*
X143393318Y-119205375D01*
X143267112Y-118960106D01*
X143302831Y-118793419D01*
X143417131Y-118662450D01*
X143619537Y-118543388D01*
X143914812Y-118417181D01*
X144119600Y-118662450D01*
G37*
G36*
X160640712Y-117992128D02*
G01*
X160764537Y-118117144D01*
X160835975Y-118320741D01*
X160859787Y-118598156D01*
X160831808Y-118870809D01*
X160747868Y-119088694D01*
X160602017Y-119231569D01*
X160388300Y-119279194D01*
X160254950Y-119274431D01*
X160126362Y-119260144D01*
X160126362Y-118040944D01*
X160278762Y-117976650D01*
X160459737Y-117950456D01*
X160640712Y-117992128D01*
G37*
G36*
X151068683Y-117991533D02*
G01*
X151213343Y-118129050D01*
X151300854Y-118341577D01*
X151330025Y-118612444D01*
X151303236Y-118883906D01*
X151222868Y-119098219D01*
X151082970Y-119237522D01*
X150877587Y-119283956D01*
X150676967Y-119237522D01*
X150532306Y-119098219D01*
X150444795Y-118883906D01*
X150415625Y-118612444D01*
X150442414Y-118341577D01*
X150522781Y-118129050D01*
X150662679Y-117991533D01*
X150868062Y-117945694D01*
X151068683Y-117991533D01*
G37*
G36*
X126579048Y-117940667D02*
G01*
X126621116Y-117684285D01*
X126691231Y-117481350D01*
X126846608Y-117283111D01*
X127060325Y-117217031D01*
X127271065Y-117283111D01*
X127427037Y-117481350D01*
X127498475Y-117684285D01*
X127541337Y-117940667D01*
X127555625Y-118250494D01*
X127541337Y-118562967D01*
X127498475Y-118820935D01*
X127427037Y-119024400D01*
X127271065Y-119222639D01*
X127060325Y-119288719D01*
X126846608Y-119222639D01*
X126691231Y-119024400D01*
X126621116Y-118820935D01*
X126579048Y-118562967D01*
X126565025Y-118250494D01*
X126567181Y-118202869D01*
X126793625Y-118202869D01*
X126867443Y-118424325D01*
X127055562Y-118517194D01*
X127250825Y-118424325D01*
X127322262Y-118202869D01*
X127250825Y-117979031D01*
X127055562Y-117883781D01*
X126867443Y-117979031D01*
X126793625Y-118202869D01*
X126567181Y-118202869D01*
X126579048Y-117940667D01*
G37*
G36*
X123970828Y-116557071D02*
G01*
X124130519Y-116412335D01*
X124303628Y-116283948D01*
X124488488Y-116173148D01*
X124683318Y-116081000D01*
X124886241Y-116008393D01*
X125095305Y-115956025D01*
X125308494Y-115924401D01*
X125523757Y-115913826D01*
X126036387Y-115913826D01*
X168603612Y-115913826D01*
X169116242Y-115913826D01*
X169331505Y-115924401D01*
X169544695Y-115956025D01*
X169753758Y-116008393D01*
X169956682Y-116081000D01*
X170151512Y-116173147D01*
X170336371Y-116283948D01*
X170509480Y-116412335D01*
X170669172Y-116557071D01*
X170813908Y-116716762D01*
X170942294Y-116889871D01*
X171053095Y-117074731D01*
X171145243Y-117269561D01*
X171217850Y-117472484D01*
X171270218Y-117681548D01*
X171301841Y-117894737D01*
X171312416Y-118110000D01*
X171301841Y-118325263D01*
X171270218Y-118538452D01*
X171217850Y-118747516D01*
X171145243Y-118950439D01*
X171053095Y-119145269D01*
X170942294Y-119330129D01*
X170813908Y-119503238D01*
X170669172Y-119662929D01*
X170509480Y-119807665D01*
X170336371Y-119936052D01*
X170151512Y-120046853D01*
X169956682Y-120139000D01*
X169753758Y-120211607D01*
X169544695Y-120263975D01*
X169331505Y-120295599D01*
X169116242Y-120306174D01*
X168603612Y-120306174D01*
X126036387Y-120306174D01*
X125523757Y-120306174D01*
X125308494Y-120295599D01*
X125095305Y-120263975D01*
X124886241Y-120211607D01*
X124683318Y-120139000D01*
X124488488Y-120046852D01*
X124303628Y-119936052D01*
X124130519Y-119807665D01*
X123970828Y-119662929D01*
X123826092Y-119503238D01*
X123697706Y-119330129D01*
X123586905Y-119145269D01*
X123494757Y-118950439D01*
X123422150Y-118747516D01*
X123369782Y-118538452D01*
X123338159Y-118325263D01*
X123334486Y-118250494D01*
X126036387Y-118250494D01*
X126052758Y-118616016D01*
X126101872Y-118931531D01*
X126183727Y-119197041D01*
X126298325Y-119412544D01*
X126499408Y-119624210D01*
X126753408Y-119751210D01*
X127060325Y-119793544D01*
X127367241Y-119751210D01*
X127621241Y-119624210D01*
X127822325Y-119412544D01*
X127852715Y-119355394D01*
X129012950Y-119355394D01*
X129141537Y-119674481D01*
X129436812Y-119784019D01*
X129598737Y-119755444D01*
X129734468Y-119672100D01*
X129829718Y-119538750D01*
X129865437Y-119355394D01*
X129829718Y-119176800D01*
X129734468Y-119045831D01*
X129718500Y-119036306D01*
X130751262Y-119036306D01*
X131070350Y-119036306D01*
X131070350Y-119731631D01*
X131656137Y-119731631D01*
X131656137Y-119036306D01*
X132884862Y-119036306D01*
X132884862Y-118607681D01*
X132781278Y-118409442D01*
X132651500Y-118186200D01*
X132501481Y-117947480D01*
X132337175Y-117702806D01*
X132186989Y-117493256D01*
X133080125Y-117493256D01*
X133182816Y-117824696D01*
X133290865Y-118142742D01*
X133404272Y-118447393D01*
X133523037Y-118738650D01*
X133681787Y-119101923D01*
X133834187Y-119432917D01*
X133980237Y-119731631D01*
X134470775Y-119731631D01*
X134614443Y-119432917D01*
X134759700Y-119101923D01*
X134813175Y-118969631D01*
X142714662Y-118969631D01*
X142769431Y-119260144D01*
X142945643Y-119524463D01*
X143262350Y-119717344D01*
X143480234Y-119774494D01*
X143743362Y-119793544D01*
X143957079Y-119779852D01*
X144150556Y-119738775D01*
X144164844Y-119731631D01*
X145100675Y-119731631D01*
X147024725Y-119731631D01*
X147496212Y-119731631D01*
X149286912Y-119731631D01*
X149286912Y-119245856D01*
X148667787Y-119245856D01*
X148667787Y-118607681D01*
X149815550Y-118607681D01*
X149834600Y-118861880D01*
X149891750Y-119091075D01*
X149983428Y-119292886D01*
X150106062Y-119464931D01*
X150257867Y-119604234D01*
X150437056Y-119707819D01*
X150641248Y-119772113D01*
X150868062Y-119793544D01*
X151094876Y-119772113D01*
X151223443Y-119731631D01*
X152344437Y-119731631D01*
X152930225Y-119731631D01*
X152930225Y-118545769D01*
X152948084Y-118275497D01*
X153001662Y-118093331D01*
X153292175Y-117955219D01*
X153423143Y-117959981D01*
X153558875Y-117974269D01*
X153558875Y-119731631D01*
X154144662Y-119731631D01*
X154144662Y-119636381D01*
X154601862Y-119636381D01*
X154942381Y-119753063D01*
X155235275Y-119784019D01*
X155445420Y-119767350D01*
X155618656Y-119717344D01*
X155698149Y-119655431D01*
X157121225Y-119655431D01*
X157300414Y-119698294D01*
X157514131Y-119741156D01*
X157755233Y-119773303D01*
X158016575Y-119784019D01*
X158267797Y-119764969D01*
X158469012Y-119707819D01*
X158524121Y-119664956D01*
X159540575Y-119664956D01*
X159720359Y-119712581D01*
X159935862Y-119750681D01*
X160166843Y-119775684D01*
X160393062Y-119784019D01*
X160714002Y-119749623D01*
X160760089Y-119731631D01*
X161807525Y-119731631D01*
X162279012Y-119731631D01*
X162416331Y-119404871D01*
X162561587Y-119078640D01*
X162714781Y-118752938D01*
X162875912Y-118427235D01*
X163044981Y-118101004D01*
X163221987Y-117774244D01*
X163221987Y-119731631D01*
X163750625Y-119731631D01*
X164012562Y-119731631D01*
X164641212Y-119731631D01*
X164779325Y-119050594D01*
X165565137Y-119050594D01*
X165698487Y-119731631D01*
X166308087Y-119731631D01*
X166273034Y-119588756D01*
X166498587Y-119588756D01*
X166834343Y-119729250D01*
X167062348Y-119777470D01*
X167322500Y-119793544D01*
X167705616Y-119749094D01*
X168023116Y-119615744D01*
X168275000Y-119393494D01*
X168418768Y-119172335D01*
X168521459Y-118908909D01*
X168583074Y-118603216D01*
X168603612Y-118255256D01*
X168578609Y-117908784D01*
X168503600Y-117602794D01*
X168383942Y-117339070D01*
X168224993Y-117119400D01*
X168029731Y-116945569D01*
X167801131Y-116819362D01*
X167544551Y-116742567D01*
X167265350Y-116716969D01*
X166981981Y-116743162D01*
X166760525Y-116802694D01*
X166600981Y-116874131D01*
X166503350Y-116931281D01*
X166655750Y-117398006D01*
X166920068Y-117276562D01*
X167274875Y-117226556D01*
X167543956Y-117276562D01*
X167777318Y-117443250D01*
X167944006Y-117755194D01*
X167992226Y-117974269D01*
X168008300Y-118240969D01*
X167988985Y-118551325D01*
X167931041Y-118809294D01*
X167834468Y-119014875D01*
X167605273Y-119216686D01*
X167265350Y-119283956D01*
X166886731Y-119231569D01*
X166646225Y-119126794D01*
X166498587Y-119588756D01*
X166273034Y-119588756D01*
X166224077Y-119389208D01*
X166139685Y-119059166D01*
X166054913Y-118741508D01*
X165969759Y-118436231D01*
X165884225Y-118143338D01*
X165777961Y-117789573D01*
X165673484Y-117445036D01*
X165570793Y-117109726D01*
X165469887Y-116783644D01*
X164831712Y-116783644D01*
X164727086Y-117112405D01*
X164622758Y-117450989D01*
X164518727Y-117799396D01*
X164414993Y-118157625D01*
X164332602Y-118452995D01*
X164251163Y-118758081D01*
X164170677Y-119072882D01*
X164091143Y-119397399D01*
X164012562Y-119731631D01*
X163750625Y-119731631D01*
X163750625Y-116783644D01*
X163279137Y-116783644D01*
X163145787Y-117002123D01*
X163012437Y-117238462D01*
X162880873Y-117483136D01*
X162752881Y-117726619D01*
X162631437Y-117965934D01*
X162519518Y-118198106D01*
X162420101Y-118412419D01*
X162336162Y-118598156D01*
X162336162Y-116783644D01*
X161807525Y-116783644D01*
X161807525Y-119731631D01*
X160760089Y-119731631D01*
X160978321Y-119646435D01*
X161186018Y-119474456D01*
X161335508Y-119242681D01*
X161425202Y-118960106D01*
X161455100Y-118626731D01*
X161429964Y-118287271D01*
X161354558Y-117999140D01*
X161228881Y-117762337D01*
X161053991Y-117586390D01*
X160830948Y-117480821D01*
X160559750Y-117445631D01*
X160326387Y-117471825D01*
X160126362Y-117545644D01*
X160126362Y-116526469D01*
X159540575Y-116426456D01*
X159540575Y-119664956D01*
X158524121Y-119664956D01*
X158747618Y-119491125D01*
X158888112Y-119160131D01*
X158916687Y-118960106D01*
X158926212Y-118741031D01*
X158926212Y-117493256D01*
X158340425Y-117493256D01*
X158340425Y-118664831D01*
X158321970Y-118934508D01*
X158266606Y-119124412D01*
X157978475Y-119274431D01*
X157711775Y-119250619D01*
X157711775Y-117493256D01*
X157121225Y-117493256D01*
X157121225Y-119655431D01*
X155698149Y-119655431D01*
X155866306Y-119524463D01*
X155997275Y-119217281D01*
X156025850Y-119023209D01*
X156035375Y-118802944D01*
X156035375Y-117979031D01*
X156654500Y-117979031D01*
X156654500Y-117493256D01*
X155449587Y-117493256D01*
X155449587Y-118879144D01*
X155375768Y-119176800D01*
X155130500Y-119274431D01*
X154935237Y-119253000D01*
X154678062Y-119164894D01*
X154601862Y-119636381D01*
X154144662Y-119636381D01*
X154144662Y-117564694D01*
X153969045Y-117523022D01*
X153756518Y-117483731D01*
X153515417Y-117455156D01*
X153254075Y-117445631D01*
X153009997Y-117464086D01*
X152811162Y-117519450D01*
X152532556Y-117729000D01*
X152387300Y-118052850D01*
X152355153Y-118251089D01*
X152344437Y-118469569D01*
X152344437Y-119731631D01*
X151223443Y-119731631D01*
X151299068Y-119707819D01*
X151478853Y-119604234D01*
X151632443Y-119464931D01*
X151756864Y-119292886D01*
X151849137Y-119091075D01*
X151906287Y-118861880D01*
X151925337Y-118607681D01*
X151905692Y-118357055D01*
X151846756Y-118129050D01*
X151752697Y-117927834D01*
X151627681Y-117757575D01*
X151473495Y-117620653D01*
X151291925Y-117519450D01*
X151088328Y-117456942D01*
X150868062Y-117436106D01*
X150644820Y-117456942D01*
X150441818Y-117519450D01*
X150262034Y-117620653D01*
X150108443Y-117757575D01*
X149984023Y-117927834D01*
X149891750Y-118129050D01*
X149834600Y-118357055D01*
X149815550Y-118607681D01*
X148667787Y-118607681D01*
X148667787Y-117598031D01*
X148972587Y-117767100D01*
X149263100Y-117883781D01*
X149453600Y-117398006D01*
X149205950Y-117288469D01*
X148939250Y-117140831D01*
X148686837Y-116969381D01*
X148555563Y-116850319D01*
X155473400Y-116850319D01*
X155582937Y-117121781D01*
X155844875Y-117221794D01*
X156104431Y-117121781D01*
X156211587Y-116850319D01*
X156104431Y-116574094D01*
X155844875Y-116474081D01*
X155582937Y-116574094D01*
X155473400Y-116850319D01*
X148555563Y-116850319D01*
X148482050Y-116783644D01*
X148082000Y-116783644D01*
X148082000Y-119245856D01*
X147496212Y-119245856D01*
X147496212Y-119731631D01*
X147024725Y-119731631D01*
X147036631Y-119612569D01*
X147034250Y-119512556D01*
X147012223Y-119283956D01*
X146946143Y-119074406D01*
X146846131Y-118882120D01*
X146722306Y-118705313D01*
X146581812Y-118542197D01*
X146431793Y-118390988D01*
X146281775Y-118248708D01*
X146141281Y-118112381D01*
X145917443Y-117855206D01*
X145829337Y-117602794D01*
X145938875Y-117324187D01*
X146215100Y-117226556D01*
X146505612Y-117293231D01*
X146805650Y-117517069D01*
X147096162Y-117107494D01*
X146890779Y-116933662D01*
X146655631Y-116812219D01*
X146406195Y-116740781D01*
X146157950Y-116716969D01*
X145810287Y-116769356D01*
X145515012Y-116926519D01*
X145310225Y-117190837D01*
X145234025Y-117559931D01*
X145291175Y-117852825D01*
X145443575Y-118126669D01*
X145657887Y-118383844D01*
X145900775Y-118621969D01*
X146043650Y-118757700D01*
X146196050Y-118919625D01*
X146317493Y-119088694D01*
X146367500Y-119245856D01*
X145100675Y-119245856D01*
X145100675Y-119731631D01*
X144164844Y-119731631D01*
X144464881Y-119581613D01*
X144667287Y-119329200D01*
X144738725Y-118993444D01*
X144712531Y-118776155D01*
X144633950Y-118571963D01*
X144499409Y-118385630D01*
X144305337Y-118221919D01*
X144481550Y-118074281D01*
X144591087Y-117917119D01*
X144667287Y-117574219D01*
X144617281Y-117276562D01*
X144457737Y-116997956D01*
X144167225Y-116793169D01*
X143964818Y-116732447D01*
X143719550Y-116712206D01*
X143339145Y-116764594D01*
X143045656Y-116921756D01*
X142858133Y-117167025D01*
X142795625Y-117483731D01*
X142820628Y-117686733D01*
X142895637Y-117886162D01*
X143024225Y-118067733D01*
X143209962Y-118217156D01*
X142978386Y-118381463D01*
X142826581Y-118560056D01*
X142742642Y-118755319D01*
X142714662Y-118969631D01*
X134813175Y-118969631D01*
X134882479Y-118798181D01*
X138314112Y-118798181D01*
X139619037Y-118798181D01*
X139619037Y-118221919D01*
X138314112Y-118221919D01*
X138314112Y-118798181D01*
X134882479Y-118798181D01*
X134906543Y-118738650D01*
X135015932Y-118447393D01*
X135122642Y-118142742D01*
X135226673Y-117824696D01*
X135328025Y-117493256D01*
X134713662Y-117493256D01*
X134666633Y-117680184D01*
X134611268Y-117879019D01*
X134549951Y-118084402D01*
X134485062Y-118290975D01*
X134417792Y-118495167D01*
X134349331Y-118693406D01*
X134218362Y-119050594D01*
X134080250Y-118693406D01*
X134004645Y-118495167D01*
X133930231Y-118290975D01*
X133857603Y-118084402D01*
X133787356Y-117879019D01*
X133724848Y-117680184D01*
X133675437Y-117493256D01*
X133080125Y-117493256D01*
X132186989Y-117493256D01*
X132160962Y-117456942D01*
X131975225Y-117214650D01*
X131784725Y-116986645D01*
X131594225Y-116783644D01*
X131070350Y-116783644D01*
X131070350Y-118555294D01*
X130751262Y-118555294D01*
X130751262Y-119036306D01*
X129718500Y-119036306D01*
X129598737Y-118964869D01*
X129436812Y-118936294D01*
X129141537Y-119045831D01*
X129012950Y-119355394D01*
X127852715Y-119355394D01*
X127936922Y-119197041D01*
X128018778Y-118931531D01*
X128067891Y-118616016D01*
X128084262Y-118250494D01*
X128067593Y-117889139D01*
X128017587Y-117576600D01*
X127934243Y-117312877D01*
X127817562Y-117097969D01*
X127614891Y-116886302D01*
X127362479Y-116759302D01*
X127060325Y-116716969D01*
X126753408Y-116759037D01*
X126499408Y-116885244D01*
X126298325Y-117095588D01*
X126183727Y-117309751D01*
X126101872Y-117573623D01*
X126052758Y-117887204D01*
X126036387Y-118250494D01*
X123334486Y-118250494D01*
X123327584Y-118110000D01*
X123338159Y-117894737D01*
X123369782Y-117681548D01*
X123422150Y-117472484D01*
X123494757Y-117269561D01*
X123586905Y-117074731D01*
X123697706Y-116889871D01*
X123826092Y-116716762D01*
X123970828Y-116557071D01*
G37*
X184450000Y-102090000D02*
X183850000Y-102090000D01*
X185650000Y-102640000D02*
X185650000Y-103240000D01*
X183150000Y-102740000D02*
X183150000Y-105540000D01*
X185350000Y-102940000D02*
X185650000Y-102640000D01*
X185350000Y-102940000D02*
X185650000Y-103240000D01*
X185150000Y-105540000D02*
X185150000Y-102740000D01*
X183850000Y-106190000D02*
X184450000Y-106190000D01*
X185150000Y-102790000D02*
G75*
G03*
X184450000Y-102090000I-699999J1D01*
G01*
X183850000Y-102090000D02*
G75*
G03*
X183150000Y-102790000I-1J-699999D01*
G01*
X184450000Y-106190000D02*
G75*
G03*
X185150000Y-105490000I0J700000D01*
G01*
X183150000Y-105490000D02*
G75*
G03*
X183850000Y-106190000I700000J0D01*
G01*
G36*
X192474630Y-78879700D02*
G01*
X192257142Y-78879700D01*
X192365092Y-78335187D01*
X192366680Y-78335187D01*
X192474630Y-78879700D01*
G37*
G36*
X193292192Y-78297087D02*
G01*
X193292192Y-79184500D01*
X193220755Y-79198788D01*
X193109828Y-79173388D01*
X193034223Y-79097188D01*
X193002032Y-79010581D01*
X192982718Y-78886226D01*
X192976280Y-78724125D01*
X192982806Y-78577369D01*
X193002385Y-78463069D01*
X193035017Y-78381225D01*
X193110820Y-78307406D01*
X193220755Y-78282800D01*
X193292192Y-78297087D01*
G37*
G36*
X193469992Y-77632057D02*
G01*
X193982622Y-77632057D01*
X194721251Y-78740000D01*
X193982622Y-79847943D01*
X193469992Y-79847943D01*
X190601380Y-79847943D01*
X190088749Y-79847943D01*
X190088749Y-79319438D01*
X190601380Y-79319438D01*
X190779180Y-79319438D01*
X190779180Y-79181325D01*
X191298292Y-79181325D01*
X191298292Y-79319438D01*
X191838042Y-79319438D01*
X191985680Y-79319438D01*
X192169830Y-79319438D01*
X192230155Y-79014638D01*
X192501617Y-79014638D01*
X192561942Y-79319438D01*
X192739742Y-79319438D01*
X192599477Y-78724125D01*
X192803242Y-78724125D01*
X192808445Y-78867882D01*
X192824056Y-78990119D01*
X192850073Y-79090838D01*
X192907422Y-79205733D01*
X192985805Y-79280544D01*
X193088992Y-79321620D01*
X193220755Y-79335313D01*
X193350533Y-79327375D01*
X193469992Y-79303563D01*
X193469992Y-78176437D01*
X193345770Y-78152625D01*
X193220755Y-78144687D01*
X193086434Y-78159063D01*
X192979807Y-78202190D01*
X192900873Y-78274069D01*
X192858160Y-78350715D01*
X192827650Y-78451273D01*
X192809344Y-78575743D01*
X192803242Y-78724125D01*
X192599477Y-78724125D01*
X192466692Y-78160562D01*
X192260317Y-78160562D01*
X191985680Y-79319438D01*
X191838042Y-79319438D01*
X191838042Y-79181325D01*
X191660242Y-79181325D01*
X191660242Y-78298675D01*
X191838042Y-78298675D01*
X191838042Y-78160562D01*
X191298292Y-78160562D01*
X191298292Y-78298675D01*
X191476092Y-78298675D01*
X191476092Y-79181325D01*
X191298292Y-79181325D01*
X190779180Y-79181325D01*
X190779180Y-78327250D01*
X190782355Y-78325662D01*
X191055405Y-78478062D01*
X191055405Y-78322487D01*
X190777592Y-78160562D01*
X190601380Y-78160562D01*
X190601380Y-79319438D01*
X190088749Y-79319438D01*
X190088749Y-77632057D01*
X190601380Y-77632057D01*
X193469992Y-77632057D01*
G37*
G36*
X192562736Y-94119700D02*
G01*
X192345248Y-94119700D01*
X192453198Y-93575187D01*
X192454786Y-93575187D01*
X192562736Y-94119700D01*
G37*
G36*
X191072073Y-94160975D02*
G01*
X191072073Y-94165738D01*
X190818073Y-94165738D01*
X190818073Y-93646625D01*
X190821248Y-93646625D01*
X191072073Y-94160975D01*
G37*
G36*
X193380298Y-93537087D02*
G01*
X193380298Y-94424500D01*
X193308861Y-94438788D01*
X193197934Y-94413388D01*
X193122330Y-94337188D01*
X193090139Y-94250581D01*
X193070824Y-94126226D01*
X193064386Y-93964125D01*
X193070912Y-93817369D01*
X193090491Y-93703069D01*
X193123123Y-93621225D01*
X193198926Y-93547406D01*
X193308861Y-93522800D01*
X193380298Y-93537087D01*
G37*
G36*
X193558098Y-92872057D02*
G01*
X194070728Y-92872057D01*
X194809357Y-93980000D01*
X194070728Y-95087943D01*
X193558098Y-95087943D01*
X190513273Y-95087943D01*
X190000643Y-95087943D01*
X190000643Y-94165738D01*
X190513273Y-94165738D01*
X190513273Y-94302263D01*
X190643448Y-94302263D01*
X190643448Y-94559438D01*
X190818073Y-94559438D01*
X190818073Y-94421325D01*
X191386398Y-94421325D01*
X191386398Y-94559438D01*
X191926148Y-94559438D01*
X192073786Y-94559438D01*
X192257936Y-94559438D01*
X192318261Y-94254638D01*
X192589723Y-94254638D01*
X192650048Y-94559438D01*
X192827848Y-94559438D01*
X192687583Y-93964125D01*
X192891348Y-93964125D01*
X192896552Y-94107882D01*
X192912162Y-94230119D01*
X192938180Y-94330838D01*
X192995528Y-94445733D01*
X193073911Y-94520544D01*
X193177098Y-94561620D01*
X193308861Y-94575313D01*
X193438639Y-94567375D01*
X193558098Y-94543563D01*
X193558098Y-93416437D01*
X193433876Y-93392625D01*
X193308861Y-93384687D01*
X193174541Y-93399063D01*
X193067914Y-93442190D01*
X192988980Y-93514069D01*
X192946266Y-93590715D01*
X192915756Y-93691273D01*
X192897450Y-93815743D01*
X192891348Y-93964125D01*
X192687583Y-93964125D01*
X192554798Y-93400562D01*
X192348423Y-93400562D01*
X192073786Y-94559438D01*
X191926148Y-94559438D01*
X191926148Y-94421325D01*
X191748348Y-94421325D01*
X191748348Y-93538675D01*
X191926148Y-93538675D01*
X191926148Y-93400562D01*
X191386398Y-93400562D01*
X191386398Y-93538675D01*
X191564198Y-93538675D01*
X191564198Y-94421325D01*
X191386398Y-94421325D01*
X190818073Y-94421325D01*
X190818073Y-94302263D01*
X191211773Y-94302263D01*
X191211773Y-94165738D01*
X190835536Y-93400562D01*
X190643448Y-93400562D01*
X190643448Y-94165738D01*
X190513273Y-94165738D01*
X190000643Y-94165738D01*
X190000643Y-92872057D01*
X190513273Y-92872057D01*
X193558098Y-92872057D01*
G37*
X178066263Y-102785000D02*
X179513737Y-102785000D01*
X178066263Y-105495000D02*
X179513737Y-105495000D01*
X184450000Y-76690000D02*
X183850000Y-76690000D01*
X185650000Y-77240000D02*
X185650000Y-77840000D01*
X183150000Y-77340000D02*
X183150000Y-80140000D01*
X185350000Y-77540000D02*
X185650000Y-77240000D01*
X185350000Y-77540000D02*
X185650000Y-77840000D01*
X185150000Y-80140000D02*
X185150000Y-77340000D01*
X183850000Y-80790000D02*
X184450000Y-80790000D01*
X185150000Y-77390000D02*
G75*
G03*
X184450000Y-76690000I-699999J1D01*
G01*
X183850000Y-76690000D02*
G75*
G03*
X183150000Y-77390000I-1J-699999D01*
G01*
X184450000Y-80790000D02*
G75*
G03*
X185150000Y-80090000I0J700000D01*
G01*
X183150000Y-80090000D02*
G75*
G03*
X183850000Y-80790000I700000J0D01*
G01*
X184450000Y-91930000D02*
X183850000Y-91930000D01*
X185650000Y-92480000D02*
X185650000Y-93080000D01*
X183150000Y-92580000D02*
X183150000Y-95380000D01*
X185350000Y-92780000D02*
X185650000Y-92480000D01*
X185350000Y-92780000D02*
X185650000Y-93080000D01*
X185150000Y-95380000D02*
X185150000Y-92580000D01*
X183850000Y-96030000D02*
X184450000Y-96030000D01*
X185150000Y-92630000D02*
G75*
G03*
X184450000Y-91930000I-699999J1D01*
G01*
X183850000Y-91930000D02*
G75*
G03*
X183150000Y-92630000I-1J-699999D01*
G01*
X184450000Y-96030000D02*
G75*
G03*
X185150000Y-95330000I0J700000D01*
G01*
X183150000Y-95330000D02*
G75*
G03*
X183850000Y-96030000I700000J0D01*
G01*
X178066263Y-77385000D02*
X179513737Y-77385000D01*
X178066263Y-80095000D02*
X179513737Y-80095000D01*
G36*
X192548448Y-104279700D02*
G01*
X192330961Y-104279700D01*
X192438911Y-103735187D01*
X192440498Y-103735187D01*
X192548448Y-104279700D01*
G37*
G36*
X193366011Y-103697087D02*
G01*
X193366011Y-104584500D01*
X193294573Y-104598788D01*
X193183647Y-104573388D01*
X193108042Y-104497188D01*
X193075851Y-104410581D01*
X193056536Y-104286226D01*
X193050098Y-104124125D01*
X193056625Y-103977369D01*
X193076204Y-103863069D01*
X193108836Y-103781225D01*
X193184639Y-103707406D01*
X193294573Y-103682800D01*
X193366011Y-103697087D01*
G37*
G36*
X190896059Y-104094955D02*
G01*
X190941105Y-104136031D01*
X190967894Y-104209255D01*
X190976823Y-104319388D01*
X190968687Y-104452539D01*
X190944280Y-104537669D01*
X190902409Y-104583508D01*
X190841886Y-104598788D01*
X190777790Y-104584698D01*
X190734730Y-104542431D01*
X190710322Y-104460080D01*
X190702186Y-104325738D01*
X190709528Y-104205881D01*
X190731555Y-104132062D01*
X190832361Y-104081262D01*
X190896059Y-104094955D01*
G37*
G36*
X193543811Y-103032057D02*
G01*
X194056441Y-103032057D01*
X194795069Y-104140000D01*
X194056441Y-105247943D01*
X193543811Y-105247943D01*
X190527561Y-105247943D01*
X190014931Y-105247943D01*
X190014931Y-104325738D01*
X190527561Y-104325738D01*
X190536116Y-104458823D01*
X190561780Y-104563863D01*
X190604555Y-104640856D01*
X190665144Y-104693332D01*
X190744255Y-104724817D01*
X190841886Y-104735313D01*
X190941700Y-104724200D01*
X191018892Y-104690863D01*
X191077034Y-104628553D01*
X191097589Y-104581325D01*
X191372111Y-104581325D01*
X191372111Y-104719438D01*
X191911861Y-104719438D01*
X192059498Y-104719438D01*
X192243648Y-104719438D01*
X192303973Y-104414638D01*
X192575436Y-104414638D01*
X192635761Y-104719438D01*
X192813561Y-104719438D01*
X192673296Y-104124125D01*
X192877061Y-104124125D01*
X192882264Y-104267882D01*
X192897875Y-104390119D01*
X192923892Y-104490838D01*
X192981240Y-104605733D01*
X193059623Y-104680544D01*
X193162811Y-104721620D01*
X193294573Y-104735313D01*
X193424351Y-104727375D01*
X193543811Y-104703563D01*
X193543811Y-103576437D01*
X193419589Y-103552625D01*
X193294573Y-103544687D01*
X193160253Y-103559063D01*
X193053626Y-103602190D01*
X192974692Y-103674069D01*
X192931978Y-103750715D01*
X192901469Y-103851273D01*
X192883163Y-103975743D01*
X192877061Y-104124125D01*
X192673296Y-104124125D01*
X192540511Y-103560562D01*
X192334136Y-103560562D01*
X192059498Y-104719438D01*
X191911861Y-104719438D01*
X191911861Y-104581325D01*
X191734061Y-104581325D01*
X191734061Y-103698675D01*
X191911861Y-103698675D01*
X191911861Y-103560562D01*
X191372111Y-103560562D01*
X191372111Y-103698675D01*
X191549911Y-103698675D01*
X191549911Y-104581325D01*
X191372111Y-104581325D01*
X191097589Y-104581325D01*
X191119698Y-104530525D01*
X191139101Y-104443565D01*
X191150743Y-104337203D01*
X191154623Y-104211438D01*
X191152143Y-104091085D01*
X191144701Y-103984028D01*
X191132299Y-103890266D01*
X191114936Y-103809800D01*
X191066120Y-103684387D01*
X190999048Y-103603425D01*
X190910545Y-103559372D01*
X190797436Y-103544687D01*
X190696233Y-103552625D01*
X190598998Y-103576437D01*
X190598998Y-103727250D01*
X190686708Y-103693912D01*
X190778386Y-103682800D01*
X190865500Y-103699866D01*
X190923642Y-103751062D01*
X190948777Y-103810506D01*
X190965975Y-103897818D01*
X190975236Y-104013000D01*
X190972061Y-104013000D01*
X190890305Y-103961803D01*
X190800611Y-103944737D01*
X190677183Y-103966566D01*
X190592648Y-104032050D01*
X190556489Y-104103487D01*
X190534793Y-104201383D01*
X190527561Y-104325738D01*
X190014931Y-104325738D01*
X190014931Y-103032057D01*
X190527561Y-103032057D01*
X193543811Y-103032057D01*
G37*
X107865000Y-60413737D02*
X107865000Y-58966263D01*
X110575000Y-60413737D02*
X110575000Y-58966263D01*
X184450000Y-97010000D02*
X183850000Y-97010000D01*
X185650000Y-97560000D02*
X185650000Y-98160000D01*
X183150000Y-97660000D02*
X183150000Y-100460000D01*
X185350000Y-97860000D02*
X185650000Y-97560000D01*
X185350000Y-97860000D02*
X185650000Y-98160000D01*
X185150000Y-100460000D02*
X185150000Y-97660000D01*
X183850000Y-101110000D02*
X184450000Y-101110000D01*
X185150000Y-97710000D02*
G75*
G03*
X184450000Y-97010000I-699999J1D01*
G01*
X183850000Y-97010000D02*
G75*
G03*
X183150000Y-97710000I-1J-699999D01*
G01*
X184450000Y-101110000D02*
G75*
G03*
X185150000Y-100410000I0J700000D01*
G01*
X183150000Y-100410000D02*
G75*
G03*
X183850000Y-101110000I700000J0D01*
G01*
X178066263Y-72305000D02*
X179513737Y-72305000D01*
X178066263Y-75015000D02*
X179513737Y-75015000D01*
X184450000Y-107170000D02*
X183850000Y-107170000D01*
X185650000Y-107720000D02*
X185650000Y-108320000D01*
X183150000Y-107820000D02*
X183150000Y-110620000D01*
X185350000Y-108020000D02*
X185650000Y-107720000D01*
X185350000Y-108020000D02*
X185650000Y-108320000D01*
X185150000Y-110620000D02*
X185150000Y-107820000D01*
X183850000Y-111270000D02*
X184450000Y-111270000D01*
X185150000Y-107870000D02*
G75*
G03*
X184450000Y-107170000I-699999J1D01*
G01*
X183850000Y-107170000D02*
G75*
G03*
X183150000Y-107870000I-1J-699999D01*
G01*
X184450000Y-111270000D02*
G75*
G03*
X185150000Y-110570000I0J700000D01*
G01*
X183150000Y-110570000D02*
G75*
G03*
X183850000Y-111270000I700000J0D01*
G01*
X184450000Y-86850000D02*
X183850000Y-86850000D01*
X185650000Y-87400000D02*
X185650000Y-88000000D01*
X183150000Y-87500000D02*
X183150000Y-90300000D01*
X185350000Y-87700000D02*
X185650000Y-87400000D01*
X185350000Y-87700000D02*
X185650000Y-88000000D01*
X185150000Y-90300000D02*
X185150000Y-87500000D01*
X183850000Y-90950000D02*
X184450000Y-90950000D01*
X185150000Y-87550000D02*
G75*
G03*
X184450000Y-86850000I-699999J1D01*
G01*
X183850000Y-86850000D02*
G75*
G03*
X183150000Y-87550000I-1J-699999D01*
G01*
X184450000Y-90950000D02*
G75*
G03*
X185150000Y-90250000I0J700000D01*
G01*
X183150000Y-90250000D02*
G75*
G03*
X183850000Y-90950000I700000J0D01*
G01*
G36*
X192546861Y-73799700D02*
G01*
X192329373Y-73799700D01*
X192437323Y-73255187D01*
X192438911Y-73255187D01*
X192546861Y-73799700D01*
G37*
G36*
X190929992Y-73234550D02*
G01*
X190957972Y-73287731D01*
X190979998Y-73374250D01*
X190990582Y-73451861D01*
X190996932Y-73547111D01*
X190999048Y-73660000D01*
X190995873Y-73791763D01*
X190724411Y-73320275D01*
X190772036Y-73225819D01*
X190846648Y-73198037D01*
X190929992Y-73234550D01*
G37*
G36*
X190975236Y-73977500D02*
G01*
X190926023Y-74089419D01*
X190846648Y-74121963D01*
X190763305Y-74085450D01*
X190735325Y-74032269D01*
X190713298Y-73945750D01*
X190702715Y-73868139D01*
X190696365Y-73772889D01*
X190694248Y-73660000D01*
X190695439Y-73573878D01*
X190699011Y-73499662D01*
X190975236Y-73977500D01*
G37*
G36*
X193364423Y-73217087D02*
G01*
X193364423Y-74104500D01*
X193292986Y-74118788D01*
X193182059Y-74093388D01*
X193106455Y-74017188D01*
X193074264Y-73930581D01*
X193054949Y-73806226D01*
X193048511Y-73644125D01*
X193055037Y-73497369D01*
X193074616Y-73383069D01*
X193107248Y-73301225D01*
X193183051Y-73227406D01*
X193292986Y-73202800D01*
X193364423Y-73217087D01*
G37*
G36*
X193542223Y-72552057D02*
G01*
X194054853Y-72552057D01*
X194793482Y-73660000D01*
X194054853Y-74767943D01*
X193542223Y-74767943D01*
X190529148Y-74767943D01*
X190016518Y-74767943D01*
X190016518Y-73660000D01*
X190529148Y-73660000D01*
X190533293Y-73800847D01*
X190545729Y-73920703D01*
X190566455Y-74019569D01*
X190611103Y-74131884D01*
X190670436Y-74203719D01*
X190747826Y-74242414D01*
X190846648Y-74255313D01*
X190945470Y-74242414D01*
X191022861Y-74203719D01*
X191082194Y-74131884D01*
X191094342Y-74101325D01*
X191370523Y-74101325D01*
X191370523Y-74239438D01*
X191910273Y-74239438D01*
X192057911Y-74239438D01*
X192242061Y-74239438D01*
X192302386Y-73934638D01*
X192573848Y-73934638D01*
X192634173Y-74239438D01*
X192811973Y-74239438D01*
X192671708Y-73644125D01*
X192875473Y-73644125D01*
X192880677Y-73787882D01*
X192896287Y-73910119D01*
X192922305Y-74010838D01*
X192979653Y-74125733D01*
X193058036Y-74200544D01*
X193161223Y-74241620D01*
X193292986Y-74255313D01*
X193422764Y-74247375D01*
X193542223Y-74223563D01*
X193542223Y-73096437D01*
X193418001Y-73072625D01*
X193292986Y-73064687D01*
X193158666Y-73079063D01*
X193052039Y-73122190D01*
X192973105Y-73194069D01*
X192930391Y-73270715D01*
X192899881Y-73371273D01*
X192881575Y-73495743D01*
X192875473Y-73644125D01*
X192671708Y-73644125D01*
X192538923Y-73080562D01*
X192332548Y-73080562D01*
X192057911Y-74239438D01*
X191910273Y-74239438D01*
X191910273Y-74101325D01*
X191732473Y-74101325D01*
X191732473Y-73218675D01*
X191910273Y-73218675D01*
X191910273Y-73080562D01*
X191370523Y-73080562D01*
X191370523Y-73218675D01*
X191548323Y-73218675D01*
X191548323Y-74101325D01*
X191370523Y-74101325D01*
X191094342Y-74101325D01*
X191126842Y-74019569D01*
X191147568Y-73920703D01*
X191160003Y-73800847D01*
X191164148Y-73660000D01*
X191160003Y-73519153D01*
X191147568Y-73399297D01*
X191126842Y-73300431D01*
X191082194Y-73188116D01*
X191022861Y-73116281D01*
X190945470Y-73077586D01*
X190846648Y-73064687D01*
X190747826Y-73077586D01*
X190670436Y-73116281D01*
X190611103Y-73188116D01*
X190566455Y-73300431D01*
X190545729Y-73399297D01*
X190533293Y-73519153D01*
X190529148Y-73660000D01*
X190016518Y-73660000D01*
X190016518Y-72552057D01*
X190529148Y-72552057D01*
X193542223Y-72552057D01*
G37*
X184450000Y-71610000D02*
X183850000Y-71610000D01*
X185650000Y-72160000D02*
X185650000Y-72760000D01*
X183150000Y-72260000D02*
X183150000Y-75060000D01*
X185350000Y-72460000D02*
X185650000Y-72160000D01*
X185350000Y-72460000D02*
X185650000Y-72760000D01*
X185150000Y-75060000D02*
X185150000Y-72260000D01*
X183850000Y-75710000D02*
X184450000Y-75710000D01*
X185150000Y-72310000D02*
G75*
G03*
X184450000Y-71610000I-699999J1D01*
G01*
X183850000Y-71610000D02*
G75*
G03*
X183150000Y-72310000I-1J-699999D01*
G01*
X184450000Y-75710000D02*
G75*
G03*
X185150000Y-75010000I0J700000D01*
G01*
X183150000Y-75010000D02*
G75*
G03*
X183850000Y-75710000I700000J0D01*
G01*
G36*
X192534955Y-109359700D02*
G01*
X192317467Y-109359700D01*
X192425417Y-108815187D01*
X192427005Y-108815187D01*
X192534955Y-109359700D01*
G37*
G36*
X193352517Y-108777087D02*
G01*
X193352517Y-109664500D01*
X193281080Y-109678788D01*
X193170153Y-109653388D01*
X193094548Y-109577188D01*
X193062357Y-109490581D01*
X193043043Y-109366226D01*
X193036605Y-109204125D01*
X193043131Y-109057369D01*
X193062710Y-108943069D01*
X193095342Y-108861225D01*
X193171145Y-108787406D01*
X193281080Y-108762800D01*
X193352517Y-108777087D01*
G37*
G36*
X193530317Y-108112057D02*
G01*
X194042947Y-108112057D01*
X194781576Y-109220000D01*
X194042947Y-110327943D01*
X193530317Y-110327943D01*
X190541055Y-110327943D01*
X190028424Y-110327943D01*
X190028424Y-108778675D01*
X190541055Y-108778675D01*
X190582075Y-108878452D01*
X190621880Y-108981640D01*
X190660470Y-109088237D01*
X190697845Y-109198245D01*
X190734004Y-109311663D01*
X190768949Y-109428492D01*
X190802678Y-109548730D01*
X190835193Y-109672379D01*
X190866492Y-109799438D01*
X191052230Y-109799438D01*
X191019598Y-109677122D01*
X191015070Y-109661325D01*
X191358617Y-109661325D01*
X191358617Y-109799438D01*
X191898367Y-109799438D01*
X192046005Y-109799438D01*
X192230155Y-109799438D01*
X192290480Y-109494638D01*
X192561942Y-109494638D01*
X192622267Y-109799438D01*
X192800067Y-109799438D01*
X192659802Y-109204125D01*
X192863567Y-109204125D01*
X192868770Y-109347882D01*
X192884381Y-109470119D01*
X192910398Y-109570838D01*
X192967747Y-109685733D01*
X193046130Y-109760544D01*
X193149317Y-109801620D01*
X193281080Y-109815313D01*
X193410858Y-109807375D01*
X193530317Y-109783563D01*
X193530317Y-108656437D01*
X193406095Y-108632625D01*
X193281080Y-108624687D01*
X193146759Y-108639063D01*
X193040132Y-108682190D01*
X192961198Y-108754069D01*
X192918485Y-108830715D01*
X192887975Y-108931273D01*
X192869669Y-109055743D01*
X192863567Y-109204125D01*
X192659802Y-109204125D01*
X192527017Y-108640562D01*
X192320642Y-108640562D01*
X192046005Y-109799438D01*
X191898367Y-109799438D01*
X191898367Y-109661325D01*
X191720567Y-109661325D01*
X191720567Y-108778675D01*
X191898367Y-108778675D01*
X191898367Y-108640562D01*
X191358617Y-108640562D01*
X191358617Y-108778675D01*
X191536417Y-108778675D01*
X191536417Y-109661325D01*
X191358617Y-109661325D01*
X191015070Y-109661325D01*
X190985202Y-109557118D01*
X190949042Y-109439428D01*
X190911118Y-109324050D01*
X190871431Y-109210985D01*
X190829980Y-109100232D01*
X190786764Y-108991792D01*
X190741785Y-108885665D01*
X190695042Y-108781850D01*
X190695042Y-108778675D01*
X191128430Y-108778675D01*
X191128430Y-108640562D01*
X190541055Y-108640562D01*
X190541055Y-108778675D01*
X190028424Y-108778675D01*
X190028424Y-108112057D01*
X190541055Y-108112057D01*
X193530317Y-108112057D01*
G37*
G36*
X193294573Y-68719700D02*
G01*
X193077086Y-68719700D01*
X193185036Y-68175187D01*
X193186623Y-68175187D01*
X193294573Y-68719700D01*
G37*
G36*
X191650320Y-68456572D02*
G01*
X191694373Y-68495862D01*
X191722155Y-68568887D01*
X191735648Y-68683188D01*
X191453073Y-68683188D01*
X191462598Y-68571864D01*
X191487998Y-68498244D01*
X191588011Y-68443475D01*
X191650320Y-68456572D01*
G37*
G36*
X192516698Y-68135500D02*
G01*
X192516698Y-68540312D01*
X192454786Y-68540312D01*
X192351598Y-68528406D01*
X192283336Y-68492687D01*
X192245236Y-68428394D01*
X192232536Y-68330762D01*
X192244442Y-68237298D01*
X192280161Y-68172806D01*
X192340089Y-68135302D01*
X192424623Y-68122800D01*
X192516698Y-68135500D01*
G37*
G36*
X189999056Y-69687943D02*
G01*
X189999056Y-68494275D01*
X190511686Y-68494275D01*
X190741873Y-68494275D01*
X190741873Y-69159438D01*
X190916498Y-69159438D01*
X190916498Y-68743513D01*
X191281623Y-68743513D01*
X191284798Y-68807013D01*
X191735648Y-68807013D01*
X191717194Y-68918336D01*
X191677705Y-68991956D01*
X191615990Y-69033033D01*
X191530861Y-69046725D01*
X191433230Y-69036009D01*
X191324486Y-69003863D01*
X191324486Y-69135625D01*
X191440770Y-69165391D01*
X191551498Y-69175313D01*
X191648368Y-69166565D01*
X191670629Y-69159438D01*
X192027748Y-69159438D01*
X192210311Y-69159438D01*
X192302386Y-68826063D01*
X192328381Y-68754030D01*
X192358742Y-68709381D01*
X192454786Y-68678425D01*
X192516698Y-68678425D01*
X192516698Y-69159438D01*
X192694498Y-69159438D01*
X192805623Y-69159438D01*
X192989773Y-69159438D01*
X193050098Y-68854638D01*
X193321561Y-68854638D01*
X193381886Y-69159438D01*
X193559686Y-69159438D01*
X193286636Y-68000562D01*
X193080261Y-68000562D01*
X192805623Y-69159438D01*
X192694498Y-69159438D01*
X192694498Y-68016437D01*
X192605951Y-67998799D01*
X192515993Y-67988215D01*
X192424623Y-67984687D01*
X192309882Y-67993948D01*
X192217543Y-68021729D01*
X192147605Y-68068031D01*
X192098657Y-68134265D01*
X192069288Y-68221842D01*
X192059498Y-68330762D01*
X192070611Y-68434545D01*
X192103948Y-68518881D01*
X192159511Y-68583770D01*
X192237298Y-68629213D01*
X192237298Y-68632388D01*
X192176973Y-68710969D01*
X192126173Y-68835588D01*
X192027748Y-69159438D01*
X191670629Y-69159438D01*
X191730335Y-69140323D01*
X191797399Y-69096585D01*
X191849559Y-69035353D01*
X191886817Y-68956626D01*
X191909172Y-68860404D01*
X191916623Y-68746688D01*
X191907363Y-68615719D01*
X191879582Y-68508562D01*
X191833280Y-68425219D01*
X191768457Y-68365687D01*
X191685113Y-68329969D01*
X191583248Y-68318062D01*
X191490291Y-68329263D01*
X191414620Y-68362865D01*
X191356236Y-68418869D01*
X191314784Y-68499743D01*
X191289914Y-68607958D01*
X191281623Y-68743513D01*
X190916498Y-68743513D01*
X190916498Y-68494275D01*
X191091123Y-68494275D01*
X191091123Y-68365687D01*
X190916498Y-68365687D01*
X190916498Y-68273612D01*
X190902608Y-68136294D01*
X190860936Y-68048187D01*
X190785530Y-68000562D01*
X190670436Y-67984687D01*
X190587092Y-67989450D01*
X190511686Y-68003737D01*
X190511686Y-68133912D01*
X190635511Y-68111687D01*
X190705361Y-68124387D01*
X190733936Y-68177569D01*
X190739889Y-68232139D01*
X190741873Y-68314887D01*
X190741873Y-68365687D01*
X190511686Y-68365687D01*
X190511686Y-68494275D01*
X189999056Y-68494275D01*
X189999056Y-67472057D01*
X190511686Y-67472057D01*
X193559686Y-67472057D01*
X194072316Y-67472057D01*
X194810944Y-68580000D01*
X194072316Y-69687943D01*
X193559686Y-69687943D01*
X190511686Y-69687943D01*
X189999056Y-69687943D01*
G37*
X184450000Y-81770000D02*
X183850000Y-81770000D01*
X185650000Y-82320000D02*
X185650000Y-82920000D01*
X183150000Y-82420000D02*
X183150000Y-85220000D01*
X185350000Y-82620000D02*
X185650000Y-82320000D01*
X185350000Y-82620000D02*
X185650000Y-82920000D01*
X185150000Y-85220000D02*
X185150000Y-82420000D01*
X183850000Y-85870000D02*
X184450000Y-85870000D01*
X185150000Y-82470000D02*
G75*
G03*
X184450000Y-81770000I-699999J1D01*
G01*
X183850000Y-81770000D02*
G75*
G03*
X183150000Y-82470000I-1J-699999D01*
G01*
X184450000Y-85870000D02*
G75*
G03*
X185150000Y-85170000I0J700000D01*
G01*
X183150000Y-85170000D02*
G75*
G03*
X183850000Y-85870000I700000J0D01*
G01*
X178066263Y-107865000D02*
X179513737Y-107865000D01*
X178066263Y-110575000D02*
X179513737Y-110575000D01*
G36*
X192536542Y-99199700D02*
G01*
X192319055Y-99199700D01*
X192427005Y-98655187D01*
X192428592Y-98655187D01*
X192536542Y-99199700D01*
G37*
G36*
X193354105Y-98617087D02*
G01*
X193354105Y-99504500D01*
X193282667Y-99518788D01*
X193171740Y-99493388D01*
X193096136Y-99417188D01*
X193063945Y-99330581D01*
X193044630Y-99206226D01*
X193038192Y-99044125D01*
X193044718Y-98897369D01*
X193064298Y-98783069D01*
X193096930Y-98701225D01*
X193172733Y-98627406D01*
X193282667Y-98602800D01*
X193354105Y-98617087D01*
G37*
G36*
X193531905Y-97952057D02*
G01*
X194044535Y-97952057D01*
X194783163Y-99060000D01*
X194044535Y-100167943D01*
X193531905Y-100167943D01*
X190539467Y-100167943D01*
X190026837Y-100167943D01*
X190026837Y-99271138D01*
X190539467Y-99271138D01*
X190548639Y-99395668D01*
X190576156Y-99494093D01*
X190622017Y-99566413D01*
X190687810Y-99615801D01*
X190775123Y-99645435D01*
X190883955Y-99655313D01*
X191001826Y-99643406D01*
X191110967Y-99607688D01*
X191110967Y-99501325D01*
X191360205Y-99501325D01*
X191360205Y-99639438D01*
X191899955Y-99639438D01*
X192047592Y-99639438D01*
X192231742Y-99639438D01*
X192292067Y-99334638D01*
X192563530Y-99334638D01*
X192623855Y-99639438D01*
X192801655Y-99639438D01*
X192661390Y-99044125D01*
X192865155Y-99044125D01*
X192870358Y-99187882D01*
X192885968Y-99310119D01*
X192911986Y-99410838D01*
X192969334Y-99525733D01*
X193047717Y-99600544D01*
X193150905Y-99641620D01*
X193282667Y-99655313D01*
X193412445Y-99647375D01*
X193531905Y-99623563D01*
X193531905Y-98496437D01*
X193407683Y-98472625D01*
X193282667Y-98464687D01*
X193148347Y-98479063D01*
X193041720Y-98522190D01*
X192962786Y-98594069D01*
X192920072Y-98670715D01*
X192889562Y-98771273D01*
X192871256Y-98895743D01*
X192865155Y-99044125D01*
X192661390Y-99044125D01*
X192528605Y-98480562D01*
X192322230Y-98480562D01*
X192047592Y-99639438D01*
X191899955Y-99639438D01*
X191899955Y-99501325D01*
X191722155Y-99501325D01*
X191722155Y-98618675D01*
X191899955Y-98618675D01*
X191899955Y-98480562D01*
X191360205Y-98480562D01*
X191360205Y-98618675D01*
X191538005Y-98618675D01*
X191538005Y-99501325D01*
X191360205Y-99501325D01*
X191110967Y-99501325D01*
X191110967Y-99456875D01*
X191002620Y-99502119D01*
X190896655Y-99517200D01*
X190815692Y-99503508D01*
X190760130Y-99462431D01*
X190727983Y-99387223D01*
X190717267Y-99271138D01*
X190724808Y-99161005D01*
X190747430Y-99087781D01*
X190841092Y-99033012D01*
X190901814Y-99048887D01*
X190956980Y-99096513D01*
X191103030Y-99096513D01*
X191087155Y-98480562D01*
X190571217Y-98480562D01*
X190571217Y-98617087D01*
X190925230Y-98617087D01*
X190936342Y-98937762D01*
X190933167Y-98937762D01*
X190868873Y-98907997D01*
X190793467Y-98898075D01*
X190702027Y-98912997D01*
X190630907Y-98957765D01*
X190580107Y-99032377D01*
X190549627Y-99136835D01*
X190539467Y-99271138D01*
X190026837Y-99271138D01*
X190026837Y-97952057D01*
X190539467Y-97952057D01*
X193531905Y-97952057D01*
G37*
X178066263Y-82465000D02*
X179513737Y-82465000D01*
X178066263Y-85175000D02*
X179513737Y-85175000D01*
X178066263Y-87545000D02*
X179513737Y-87545000D01*
X178066263Y-90255000D02*
X179513737Y-90255000D01*
G36*
X192530986Y-83959700D02*
G01*
X192313498Y-83959700D01*
X192421448Y-83415187D01*
X192423036Y-83415187D01*
X192530986Y-83959700D01*
G37*
G36*
X193348548Y-83377087D02*
G01*
X193348548Y-84264500D01*
X193277111Y-84278788D01*
X193166184Y-84253388D01*
X193090580Y-84177188D01*
X193058389Y-84090581D01*
X193039074Y-83966226D01*
X193032636Y-83804125D01*
X193039162Y-83657369D01*
X193058741Y-83543069D01*
X193091373Y-83461225D01*
X193167176Y-83387406D01*
X193277111Y-83362800D01*
X193348548Y-83377087D01*
G37*
G36*
X193526348Y-82712057D02*
G01*
X194038978Y-82712057D01*
X194777607Y-83820000D01*
X194038978Y-84927943D01*
X193526348Y-84927943D01*
X190545023Y-84927943D01*
X190032393Y-84927943D01*
X190032393Y-84261325D01*
X190545023Y-84261325D01*
X190545023Y-84399438D01*
X191116523Y-84399438D01*
X191116523Y-84261325D01*
X191354648Y-84261325D01*
X191354648Y-84399438D01*
X191894398Y-84399438D01*
X192042036Y-84399438D01*
X192226186Y-84399438D01*
X192286511Y-84094638D01*
X192557973Y-84094638D01*
X192618298Y-84399438D01*
X192796098Y-84399438D01*
X192655833Y-83804125D01*
X192859598Y-83804125D01*
X192864802Y-83947882D01*
X192880412Y-84070119D01*
X192906430Y-84170838D01*
X192963778Y-84285733D01*
X193042161Y-84360544D01*
X193145348Y-84401620D01*
X193277111Y-84415313D01*
X193406889Y-84407375D01*
X193526348Y-84383563D01*
X193526348Y-83256437D01*
X193402126Y-83232625D01*
X193277111Y-83224687D01*
X193142791Y-83239063D01*
X193036164Y-83282190D01*
X192957230Y-83354069D01*
X192914516Y-83430715D01*
X192884006Y-83531273D01*
X192865700Y-83655743D01*
X192859598Y-83804125D01*
X192655833Y-83804125D01*
X192523048Y-83240562D01*
X192316673Y-83240562D01*
X192042036Y-84399438D01*
X191894398Y-84399438D01*
X191894398Y-84261325D01*
X191716598Y-84261325D01*
X191716598Y-83378675D01*
X191894398Y-83378675D01*
X191894398Y-83240562D01*
X191354648Y-83240562D01*
X191354648Y-83378675D01*
X191532448Y-83378675D01*
X191532448Y-84261325D01*
X191354648Y-84261325D01*
X191116523Y-84261325D01*
X191014599Y-84142846D01*
X190928356Y-84029615D01*
X190857793Y-83921632D01*
X190802911Y-83818898D01*
X190763709Y-83721413D01*
X190740189Y-83629176D01*
X190732348Y-83542187D01*
X190740881Y-83461225D01*
X190766480Y-83405662D01*
X190870461Y-83362800D01*
X190945073Y-83373207D01*
X191027094Y-83404428D01*
X191116523Y-83456462D01*
X191116523Y-83307237D01*
X191028682Y-83261376D01*
X190934490Y-83233860D01*
X190833948Y-83224687D01*
X190713497Y-83244333D01*
X190625192Y-83303269D01*
X190571019Y-83400305D01*
X190552961Y-83534250D01*
X190562927Y-83634792D01*
X190592825Y-83741683D01*
X190642655Y-83854925D01*
X190694397Y-83945611D01*
X190759931Y-84043044D01*
X190839256Y-84147223D01*
X190932373Y-84258150D01*
X190932373Y-84261325D01*
X190545023Y-84261325D01*
X190032393Y-84261325D01*
X190032393Y-82712057D01*
X190545023Y-82712057D01*
X193526348Y-82712057D01*
G37*
X178066263Y-97705000D02*
X179513737Y-97705000D01*
X178066263Y-100415000D02*
X179513737Y-100415000D01*
%LPC*%
D13*
X162560000Y-124460000D03*
D14*
X162560000Y-127000000D03*
D15*
X160019999Y-124459999D03*
X160019999Y-126999999D03*
X157479999Y-124459999D03*
X157479999Y-126999999D03*
X154939999Y-124459999D03*
X154939999Y-126999999D03*
X152399999Y-124459999D03*
X152399999Y-126999999D03*
X149859999Y-124459999D03*
X149859999Y-126999999D03*
X147319999Y-124459999D03*
X147319999Y-126999999D03*
X144779999Y-124459999D03*
X144779999Y-126999999D03*
X142239999Y-124459999D03*
X142239999Y-126999999D03*
X139699999Y-124459999D03*
X139699999Y-126999999D03*
X137159999Y-124459999D03*
X137159999Y-126999999D03*
X134619999Y-124459999D03*
X134619999Y-126999999D03*
X132079999Y-124459999D03*
X132079999Y-126999999D03*
X129539999Y-124459999D03*
X129539999Y-126999999D03*
D16*
X124460000Y-132715000D03*
D17*
X187960000Y-114300000D03*
D18*
X187960000Y-109220000D03*
X187960000Y-104140000D03*
X187960000Y-99060000D03*
X187960000Y-93980000D03*
X187960000Y-88900000D03*
X187960000Y-83820000D03*
X187960000Y-78740000D03*
X187960000Y-73660000D03*
X187960000Y-68580000D03*
D19*
X109220000Y-111760000D03*
D14*
X106680000Y-111760000D03*
X109220000Y-109220000D03*
X106680000Y-109220000D03*
X109220000Y-106680000D03*
X106680000Y-106680000D03*
X109220000Y-104140000D03*
X106680000Y-104140000D03*
X109220000Y-101600000D03*
X106680000Y-101600000D03*
X109220000Y-99060000D03*
X106680000Y-99060000D03*
X109220000Y-96520000D03*
X106680000Y-96520000D03*
X109220000Y-93980000D03*
X106680000Y-93980000D03*
X109220000Y-91440000D03*
X106680000Y-91440000D03*
X109220000Y-88900000D03*
X106680000Y-88900000D03*
X109220000Y-86360000D03*
X106680000Y-86360000D03*
D20*
X190005000Y-129540000D03*
X190707944Y-127842944D03*
X190707944Y-131237056D03*
X192405000Y-127140000D03*
D21*
X192405000Y-129540000D03*
D20*
X192405000Y-131940000D03*
X194102056Y-127842944D03*
X194102056Y-131237056D03*
X194805000Y-129540000D03*
D19*
X109220000Y-80010000D03*
D14*
X106680000Y-80010000D03*
X109220000Y-77470000D03*
X106680000Y-77470000D03*
X109220000Y-74930000D03*
X106680000Y-74930000D03*
X109220000Y-72390000D03*
X106680000Y-72390000D03*
X109220000Y-69850000D03*
X106680000Y-69850000D03*
X109220000Y-67310000D03*
X106680000Y-67310000D03*
X109220000Y-64770000D03*
X106680000Y-64770000D03*
D22*
X146050000Y-53340000D03*
D18*
X140970000Y-53340000D03*
X135890000Y-53340000D03*
X130810000Y-53340000D03*
X125730000Y-53340000D03*
X120650000Y-53340000D03*
D23*
X139700000Y-91430000D03*
D24*
X139700000Y-88890000D03*
D25*
X139699999Y-86349999D03*
X139699999Y-83809999D03*
X132079999Y-83809999D03*
X132079999Y-86349999D03*
X132079999Y-88889999D03*
X132079999Y-91429999D03*
D19*
X114300000Y-60960000D03*
D15*
X114299999Y-58419999D03*
D20*
X104280000Y-125730000D03*
X104982944Y-124032944D03*
X104982944Y-127427056D03*
X106680000Y-123330000D03*
D21*
X106680000Y-125730000D03*
D20*
X106680000Y-128130000D03*
X108377056Y-124032944D03*
X108377056Y-127427056D03*
X109080000Y-125730000D03*
D22*
X179070000Y-53340000D03*
D18*
X173990000Y-53340000D03*
X168910000Y-53340000D03*
X163830000Y-53340000D03*
X158750000Y-53340000D03*
X153670000Y-53340000D03*
D20*
X190005000Y-49530000D03*
X190707944Y-47832944D03*
X190707944Y-51227056D03*
X192405000Y-47130000D03*
D21*
X192405000Y-49530000D03*
D20*
X192405000Y-51930000D03*
X194102056Y-47832944D03*
X194102056Y-51227056D03*
X194805000Y-49530000D03*
X104280000Y-52070000D03*
X104982944Y-50372944D03*
X104982944Y-53767056D03*
X106680000Y-49670000D03*
D21*
X106680000Y-52070000D03*
D20*
X106680000Y-54470000D03*
X108377056Y-50372944D03*
X108377056Y-53767056D03*
X109080000Y-52070000D03*
D26*
X167640000Y-68580000D03*
D27*
X165099999Y-68579999D03*
X162559999Y-68579999D03*
X160019999Y-68579999D03*
X157479999Y-68579999D03*
X154939999Y-68579999D03*
X152399999Y-68579999D03*
X149859999Y-68579999D03*
X147319999Y-68579999D03*
X144779999Y-68579999D03*
X142239999Y-68579999D03*
X139699999Y-68579999D03*
X137159999Y-68579999D03*
X134619999Y-68579999D03*
X132079999Y-68579999D03*
X129539999Y-68579999D03*
D28*
X127000000Y-71120000D03*
D29*
X126999999Y-73659999D03*
X126999999Y-76199999D03*
X126999999Y-78739999D03*
X126999999Y-81279999D03*
X126999999Y-83819999D03*
X126999999Y-86359999D03*
X126999999Y-88899999D03*
X126999999Y-91439999D03*
X126999999Y-93979999D03*
X126999999Y-96519999D03*
X126999999Y-99059999D03*
X126999999Y-101599999D03*
X126999999Y-104139999D03*
X126999999Y-106679999D03*
X126999999Y-109219999D03*
D30*
X129540000Y-111760000D03*
D27*
X132079999Y-111759999D03*
X134619999Y-111759999D03*
X137159999Y-111759999D03*
X139699999Y-111759999D03*
X142239999Y-111759999D03*
X144779999Y-111759999D03*
X147319999Y-111759999D03*
X149859999Y-111759999D03*
X152399999Y-111759999D03*
X154939999Y-111759999D03*
X157479999Y-111759999D03*
X160019999Y-111759999D03*
X162559999Y-111759999D03*
X165099999Y-111759999D03*
X167639999Y-111759999D03*
D31*
X170180000Y-109220000D03*
D29*
X170179999Y-106679999D03*
X170179999Y-104139999D03*
X170179999Y-101599999D03*
X170179999Y-99059999D03*
X170179999Y-96519999D03*
X170179999Y-93979999D03*
X170179999Y-91439999D03*
X170179999Y-88899999D03*
X170179999Y-86359999D03*
X170179999Y-83819999D03*
X170179999Y-81279999D03*
X170179999Y-78739999D03*
X170179999Y-76199999D03*
X170179999Y-73659999D03*
X170179999Y-71119999D03*
D24*
X167640000Y-71120000D03*
D23*
X165100000Y-71120000D03*
D32*
X119380000Y-127000000D03*
D33*
X116840000Y-127000000D03*
D34*
X177240000Y-93980000D03*
X180340000Y-93980000D03*
D35*
X184150000Y-102840000D03*
D36*
X184150000Y-104140000D03*
D37*
X184150000Y-105440000D03*
D34*
X177240000Y-104140000D03*
X180340000Y-104140000D03*
D35*
X184150000Y-77440000D03*
D36*
X184150000Y-78740000D03*
D37*
X184150000Y-80040000D03*
D35*
X184150000Y-92680000D03*
D36*
X184150000Y-93980000D03*
D37*
X184150000Y-95280000D03*
D34*
X177240000Y-78740000D03*
X180340000Y-78740000D03*
D38*
X109220000Y-61240000D03*
X109220000Y-58140000D03*
D35*
X184150000Y-97760000D03*
D36*
X184150000Y-99060000D03*
D37*
X184150000Y-100360000D03*
D34*
X177240000Y-73660000D03*
X180340000Y-73660000D03*
D35*
X184150000Y-107920000D03*
D36*
X184150000Y-109220000D03*
D37*
X184150000Y-110520000D03*
D35*
X184150000Y-87600000D03*
D36*
X184150000Y-88900000D03*
D37*
X184150000Y-90200000D03*
D35*
X184150000Y-72360000D03*
D36*
X184150000Y-73660000D03*
D37*
X184150000Y-74960000D03*
D35*
X184150000Y-82520000D03*
D36*
X184150000Y-83820000D03*
D37*
X184150000Y-85120000D03*
D34*
X177240000Y-109220000D03*
X180340000Y-109220000D03*
X177240000Y-83820000D03*
X180340000Y-83820000D03*
X177240000Y-88900000D03*
X180340000Y-88900000D03*
X177240000Y-99060000D03*
X180340000Y-99060000D03*
M02*
