M48
; DRILL file {KiCad (6.0.6-33-g9052b063de)} date Tue Aug 23 21:51:56 2022
; FORMAT={-:-/ absolute / metric / decimal}
; #@! TF.CreationDate,2022-08-23T21:51:56+02:00
; #@! TF.GenerationSoftware,Kicad,Pcbnew,(6.0.6-33-g9052b063de)
; #@! TF.FileFunction,Plated,1,2,PTH
FMAT,2
METRIC
; #@! TA.AperFunction,Plated,PTH,ViaDrill
T1C0.400
; #@! TA.AperFunction,Plated,PTH,ComponentDrill
T2C0.500
; #@! TA.AperFunction,Plated,PTH,ComponentDrill
T3C0.600
; #@! TA.AperFunction,Plated,PTH,ComponentDrill
T4C0.800
; #@! TA.AperFunction,Plated,PTH,ComponentDrill
T5C1.000
; #@! TA.AperFunction,Plated,PTH,ComponentDrill
T6C1.100
; #@! TA.AperFunction,Plated,PTH,ComponentDrill
T7C1.300
; #@! TA.AperFunction,Plated,PTH,ComponentDrill
T8C3.200
%
G90
G05
T1
X143.51Y-122.555
X161.925Y-93.98
X163.195Y-88.9
X163.195Y-92.71
X167.005Y-93.98
X168.275Y-92.71
X171.45Y-107.95
X175.895Y-114.935
X177.8Y-106.68
X179.07Y-104.14
X179.705Y-101.6
X180.34Y-99.06
X180.975Y-96.52
X181.61Y-93.98
X181.7Y-90.17
X182.79Y-88.9
X194.945Y-71.12
T2
X109.995Y-52.07
X109.995Y-125.73
X110.698Y-50.373
X110.698Y-53.767
X110.698Y-124.033
X110.698Y-127.427
X112.395Y-49.67
X112.395Y-54.47
X112.395Y-123.33
X112.395Y-128.13
X114.092Y-50.373
X114.092Y-53.767
X114.092Y-124.033
X114.092Y-127.427
X114.795Y-52.07
X114.795Y-125.73
T3
X140.97Y-80.01
X140.97Y-82.55
X176.53Y-132.08
T4
X132.08Y-73.66
X132.08Y-76.2
X132.08Y-78.74
X132.08Y-81.28
X132.08Y-83.82
X132.08Y-86.36
X132.08Y-88.9
X132.08Y-91.44
X132.08Y-93.98
X132.08Y-96.52
X132.08Y-99.06
X132.08Y-101.6
X132.08Y-104.14
X132.08Y-106.68
X132.08Y-109.22
X132.08Y-111.76
X134.62Y-71.12
X134.62Y-73.66
X134.62Y-76.2
X134.62Y-114.3
X137.16Y-71.12
X137.16Y-114.3
X139.7Y-71.12
X139.7Y-114.3
X142.24Y-71.12
X142.24Y-114.3
X144.78Y-71.12
X144.78Y-114.3
X147.32Y-71.12
X147.32Y-101.6
X147.32Y-109.22
X147.32Y-114.3
X149.86Y-71.12
X149.86Y-101.6
X149.86Y-109.22
X149.86Y-114.3
X152.4Y-71.12
X152.4Y-101.6
X152.4Y-109.22
X152.4Y-114.3
X154.94Y-71.12
X154.94Y-101.6
X154.94Y-109.22
X154.94Y-114.3
X157.48Y-71.12
X157.48Y-114.3
X160.02Y-71.12
X160.02Y-114.3
X162.56Y-71.12
X162.56Y-114.3
X165.1Y-71.12
X165.1Y-114.3
X167.64Y-71.12
X167.64Y-114.3
X170.18Y-71.12
X170.18Y-114.3
X172.72Y-71.12
X172.72Y-114.3
X175.26Y-73.66
X175.26Y-76.2
X175.26Y-78.74
X175.26Y-81.28
X175.26Y-83.82
X175.26Y-86.36
X175.26Y-88.9
X175.26Y-91.44
X175.26Y-93.98
X175.26Y-96.52
X175.26Y-99.06
X175.26Y-101.6
X175.26Y-104.14
X175.26Y-106.68
X175.26Y-109.22
X175.26Y-111.76
T5
X160.02Y-121.92
X160.02Y-124.46
X190.5Y-49.53
X190.5Y-52.07
X190.5Y-54.61
X190.5Y-57.15
X190.5Y-59.69
X190.5Y-62.23
X190.5Y-64.77
X190.5Y-67.31
X190.5Y-69.85
X190.5Y-72.39
X190.5Y-74.93
X190.5Y-77.47
X190.5Y-80.01
X190.5Y-82.55
X190.5Y-85.09
X190.5Y-87.63
X190.5Y-90.17
X190.5Y-92.71
X190.5Y-95.25
X190.5Y-97.79
X190.5Y-100.33
X190.5Y-102.87
X190.5Y-105.41
X190.5Y-107.95
X190.5Y-110.49
X190.5Y-113.03
X190.5Y-115.57
X190.5Y-118.11
X190.5Y-120.65
X190.5Y-123.19
X190.5Y-125.73
X190.5Y-128.27
X193.04Y-49.53
X193.04Y-52.07
X193.04Y-54.61
X193.04Y-57.15
X193.04Y-59.69
X193.04Y-62.23
X193.04Y-64.77
X193.04Y-67.31
X193.04Y-69.85
X193.04Y-72.39
X193.04Y-74.93
X193.04Y-77.47
X193.04Y-80.01
X193.04Y-82.55
X193.04Y-85.09
X193.04Y-87.63
X193.04Y-90.17
X193.04Y-92.71
X193.04Y-95.25
X193.04Y-97.79
X193.04Y-100.33
X193.04Y-102.87
X193.04Y-105.41
X193.04Y-107.95
X193.04Y-110.49
X193.04Y-113.03
X193.04Y-115.57
X193.04Y-118.11
X193.04Y-120.65
X193.04Y-123.19
X193.04Y-125.73
X193.04Y-128.27
T6
X127.0Y-53.34
X137.16Y-124.46
X139.7Y-124.46
X142.24Y-124.46
X144.78Y-124.46
X147.32Y-124.46
X149.86Y-124.46
X152.4Y-124.46
X154.94Y-124.46
X180.34Y-124.46
X180.34Y-129.54
T7
X116.84Y-59.69
X116.84Y-64.77
X116.84Y-69.85
X116.84Y-74.93
X116.84Y-80.01
X116.84Y-85.09
X116.84Y-92.71
X116.84Y-97.79
X116.84Y-102.87
X116.84Y-107.95
X116.84Y-113.03
X116.84Y-118.11
X132.08Y-53.34
X137.16Y-53.34
X142.24Y-53.34
X147.32Y-53.34
X152.4Y-53.34
X157.48Y-53.34
X162.56Y-53.34
X167.64Y-53.34
X172.72Y-53.34
X177.8Y-53.34
T8
X112.395Y-52.07
X112.395Y-125.73
X198.12Y-49.53
X198.12Y-129.54
T0
M30
