%TF.GenerationSoftware,KiCad,Pcbnew,(6.0.6-33-g9052b063de)*%
%TF.CreationDate,2022-08-12T20:48:31+02:00*%
%TF.ProjectId,CANduino128,43414e64-7569-46e6-9f31-32382e6b6963,rev?*%
%TF.SameCoordinates,Original*%
%TF.FileFunction,Drillmap*%
%TF.FilePolarity,Positive*%
%FSLAX45Y45*%
G04 Gerber Fmt 4.5, Leading zero omitted, Abs format (unit mm)*
G04 Created by KiCad (PCBNEW (6.0.6-33-g9052b063de)) date 2022-08-12 20:48:31*
%MOMM*%
%LPD*%
G01*
G04 APERTURE LIST*
%ADD10C,0.100000*%
%ADD11C,0.200000*%
%ADD12C,0.150000*%
G04 APERTURE END LIST*
D10*
X10731500Y-12954000D02*
G75*
G03*
X11239500Y-13462000I508000J0D01*
G01*
X19812000Y-13462000D02*
G75*
G03*
X20320000Y-12954000I0J508000D01*
G01*
X11239500Y-4445000D02*
X19812000Y-4445000D01*
X19812000Y-13462000D02*
X11239500Y-13462000D01*
X11239500Y-4445000D02*
G75*
G03*
X10731500Y-4953000I0J-508000D01*
G01*
X10731500Y-12954000D02*
X10731500Y-4953000D01*
X20320000Y-4953000D02*
G75*
G03*
X19812000Y-4445000I-508000J0D01*
G01*
X20320000Y-12954000D02*
X20320000Y-4953000D01*
D11*
D12*
X12822000Y-7926000D02*
X12972000Y-8076000D01*
X12972000Y-7926000D02*
X12822000Y-8076000D01*
X12822000Y-8180000D02*
X12972000Y-8330000D01*
X12972000Y-8180000D02*
X12822000Y-8330000D01*
X13422000Y-7926000D02*
X13572000Y-8076000D01*
X13572000Y-7926000D02*
X13422000Y-8076000D01*
X13422000Y-8180000D02*
X13572000Y-8330000D01*
X13572000Y-8180000D02*
X13422000Y-8330000D01*
D11*
X10984119Y-13777476D02*
X10984119Y-13577476D01*
X11031738Y-13577476D01*
X11060310Y-13587000D01*
X11079357Y-13606048D01*
X11088881Y-13625095D01*
X11098405Y-13663190D01*
X11098405Y-13691762D01*
X11088881Y-13729857D01*
X11079357Y-13748905D01*
X11060310Y-13767952D01*
X11031738Y-13777476D01*
X10984119Y-13777476D01*
X11184119Y-13777476D02*
X11184119Y-13644143D01*
X11184119Y-13682238D02*
X11193643Y-13663190D01*
X11203167Y-13653667D01*
X11222214Y-13644143D01*
X11241262Y-13644143D01*
X11307928Y-13777476D02*
X11307928Y-13644143D01*
X11307928Y-13577476D02*
X11298405Y-13587000D01*
X11307928Y-13596524D01*
X11317452Y-13587000D01*
X11307928Y-13577476D01*
X11307928Y-13596524D01*
X11431738Y-13777476D02*
X11412690Y-13767952D01*
X11403167Y-13748905D01*
X11403167Y-13577476D01*
X11536500Y-13777476D02*
X11517452Y-13767952D01*
X11507928Y-13748905D01*
X11507928Y-13577476D01*
X11765071Y-13777476D02*
X11765071Y-13577476D01*
X11831738Y-13720333D01*
X11898405Y-13577476D01*
X11898405Y-13777476D01*
X12079357Y-13777476D02*
X12079357Y-13672714D01*
X12069833Y-13653667D01*
X12050786Y-13644143D01*
X12012690Y-13644143D01*
X11993643Y-13653667D01*
X12079357Y-13767952D02*
X12060309Y-13777476D01*
X12012690Y-13777476D01*
X11993643Y-13767952D01*
X11984119Y-13748905D01*
X11984119Y-13729857D01*
X11993643Y-13710809D01*
X12012690Y-13701286D01*
X12060309Y-13701286D01*
X12079357Y-13691762D01*
X12174595Y-13644143D02*
X12174595Y-13844143D01*
X12174595Y-13653667D02*
X12193643Y-13644143D01*
X12231738Y-13644143D01*
X12250786Y-13653667D01*
X12260309Y-13663190D01*
X12269833Y-13682238D01*
X12269833Y-13739381D01*
X12260309Y-13758428D01*
X12250786Y-13767952D01*
X12231738Y-13777476D01*
X12193643Y-13777476D01*
X12174595Y-13767952D01*
X12355548Y-13758428D02*
X12365071Y-13767952D01*
X12355548Y-13777476D01*
X12346024Y-13767952D01*
X12355548Y-13758428D01*
X12355548Y-13777476D01*
X12355548Y-13653667D02*
X12365071Y-13663190D01*
X12355548Y-13672714D01*
X12346024Y-13663190D01*
X12355548Y-13653667D01*
X12355548Y-13672714D01*
D12*
X10576500Y-14032000D02*
X10726500Y-14182000D01*
X10726500Y-14032000D02*
X10576500Y-14182000D01*
D11*
X11088881Y-14197476D02*
X10974595Y-14197476D01*
X11031738Y-14197476D02*
X11031738Y-13997476D01*
X11012690Y-14026048D01*
X10993643Y-14045095D01*
X10974595Y-14054619D01*
X11174595Y-14178428D02*
X11184119Y-14187952D01*
X11174595Y-14197476D01*
X11165071Y-14187952D01*
X11174595Y-14178428D01*
X11174595Y-14197476D01*
X11365071Y-13997476D02*
X11269833Y-13997476D01*
X11260309Y-14092714D01*
X11269833Y-14083190D01*
X11288881Y-14073667D01*
X11336500Y-14073667D01*
X11355548Y-14083190D01*
X11365071Y-14092714D01*
X11374595Y-14111762D01*
X11374595Y-14159381D01*
X11365071Y-14178428D01*
X11355548Y-14187952D01*
X11336500Y-14197476D01*
X11288881Y-14197476D01*
X11269833Y-14187952D01*
X11260309Y-14178428D01*
X11498405Y-13997476D02*
X11517452Y-13997476D01*
X11536500Y-14007000D01*
X11546024Y-14016524D01*
X11555548Y-14035571D01*
X11565071Y-14073667D01*
X11565071Y-14121286D01*
X11555548Y-14159381D01*
X11546024Y-14178428D01*
X11536500Y-14187952D01*
X11517452Y-14197476D01*
X11498405Y-14197476D01*
X11479357Y-14187952D01*
X11469833Y-14178428D01*
X11460309Y-14159381D01*
X11450786Y-14121286D01*
X11450786Y-14073667D01*
X11460309Y-14035571D01*
X11469833Y-14016524D01*
X11479357Y-14007000D01*
X11498405Y-13997476D01*
X11688881Y-13997476D02*
X11707928Y-13997476D01*
X11726976Y-14007000D01*
X11736500Y-14016524D01*
X11746024Y-14035571D01*
X11755548Y-14073667D01*
X11755548Y-14121286D01*
X11746024Y-14159381D01*
X11736500Y-14178428D01*
X11726976Y-14187952D01*
X11707928Y-14197476D01*
X11688881Y-14197476D01*
X11669833Y-14187952D01*
X11660309Y-14178428D01*
X11650786Y-14159381D01*
X11641262Y-14121286D01*
X11641262Y-14073667D01*
X11650786Y-14035571D01*
X11660309Y-14016524D01*
X11669833Y-14007000D01*
X11688881Y-13997476D01*
X11841262Y-14197476D02*
X11841262Y-14064143D01*
X11841262Y-14083190D02*
X11850786Y-14073667D01*
X11869833Y-14064143D01*
X11898405Y-14064143D01*
X11917452Y-14073667D01*
X11926976Y-14092714D01*
X11926976Y-14197476D01*
X11926976Y-14092714D02*
X11936500Y-14073667D01*
X11955548Y-14064143D01*
X11984119Y-14064143D01*
X12003167Y-14073667D01*
X12012690Y-14092714D01*
X12012690Y-14197476D01*
X12107928Y-14197476D02*
X12107928Y-14064143D01*
X12107928Y-14083190D02*
X12117452Y-14073667D01*
X12136500Y-14064143D01*
X12165071Y-14064143D01*
X12184119Y-14073667D01*
X12193643Y-14092714D01*
X12193643Y-14197476D01*
X12193643Y-14092714D02*
X12203167Y-14073667D01*
X12222214Y-14064143D01*
X12250786Y-14064143D01*
X12269833Y-14073667D01*
X12279357Y-14092714D01*
X12279357Y-14197476D01*
X12669833Y-13987952D02*
X12498405Y-14245095D01*
X12926976Y-13997476D02*
X12946024Y-13997476D01*
X12965071Y-14007000D01*
X12974595Y-14016524D01*
X12984119Y-14035571D01*
X12993643Y-14073667D01*
X12993643Y-14121286D01*
X12984119Y-14159381D01*
X12974595Y-14178428D01*
X12965071Y-14187952D01*
X12946024Y-14197476D01*
X12926976Y-14197476D01*
X12907928Y-14187952D01*
X12898405Y-14178428D01*
X12888881Y-14159381D01*
X12879357Y-14121286D01*
X12879357Y-14073667D01*
X12888881Y-14035571D01*
X12898405Y-14016524D01*
X12907928Y-14007000D01*
X12926976Y-13997476D01*
X13079357Y-14178428D02*
X13088881Y-14187952D01*
X13079357Y-14197476D01*
X13069833Y-14187952D01*
X13079357Y-14178428D01*
X13079357Y-14197476D01*
X13212690Y-13997476D02*
X13231738Y-13997476D01*
X13250786Y-14007000D01*
X13260309Y-14016524D01*
X13269833Y-14035571D01*
X13279357Y-14073667D01*
X13279357Y-14121286D01*
X13269833Y-14159381D01*
X13260309Y-14178428D01*
X13250786Y-14187952D01*
X13231738Y-14197476D01*
X13212690Y-14197476D01*
X13193643Y-14187952D01*
X13184119Y-14178428D01*
X13174595Y-14159381D01*
X13165071Y-14121286D01*
X13165071Y-14073667D01*
X13174595Y-14035571D01*
X13184119Y-14016524D01*
X13193643Y-14007000D01*
X13212690Y-13997476D01*
X13460309Y-13997476D02*
X13365071Y-13997476D01*
X13355548Y-14092714D01*
X13365071Y-14083190D01*
X13384119Y-14073667D01*
X13431738Y-14073667D01*
X13450786Y-14083190D01*
X13460309Y-14092714D01*
X13469833Y-14111762D01*
X13469833Y-14159381D01*
X13460309Y-14178428D01*
X13450786Y-14187952D01*
X13431738Y-14197476D01*
X13384119Y-14197476D01*
X13365071Y-14187952D01*
X13355548Y-14178428D01*
X13565071Y-14197476D02*
X13603167Y-14197476D01*
X13622214Y-14187952D01*
X13631738Y-14178428D01*
X13650786Y-14149857D01*
X13660309Y-14111762D01*
X13660309Y-14035571D01*
X13650786Y-14016524D01*
X13641262Y-14007000D01*
X13622214Y-13997476D01*
X13584119Y-13997476D01*
X13565071Y-14007000D01*
X13555548Y-14016524D01*
X13546024Y-14035571D01*
X13546024Y-14083190D01*
X13555548Y-14102238D01*
X13565071Y-14111762D01*
X13584119Y-14121286D01*
X13622214Y-14121286D01*
X13641262Y-14111762D01*
X13650786Y-14102238D01*
X13660309Y-14083190D01*
X13850786Y-14197476D02*
X13736500Y-14197476D01*
X13793643Y-14197476D02*
X13793643Y-13997476D01*
X13774595Y-14026048D01*
X13755548Y-14045095D01*
X13736500Y-14054619D01*
X13926976Y-13997476D02*
X13926976Y-14035571D01*
X14003167Y-13997476D02*
X14003167Y-14035571D01*
X14298405Y-14273667D02*
X14288881Y-14264143D01*
X14269833Y-14235571D01*
X14260309Y-14216524D01*
X14250786Y-14187952D01*
X14241262Y-14140333D01*
X14241262Y-14102238D01*
X14250786Y-14054619D01*
X14260309Y-14026048D01*
X14269833Y-14007000D01*
X14288881Y-13978428D01*
X14298405Y-13968905D01*
X14460309Y-14064143D02*
X14460309Y-14197476D01*
X14412690Y-13987952D02*
X14365071Y-14130809D01*
X14488881Y-14130809D01*
X14717452Y-14197476D02*
X14717452Y-13997476D01*
X14803167Y-14197476D02*
X14803167Y-14092714D01*
X14793643Y-14073667D01*
X14774595Y-14064143D01*
X14746024Y-14064143D01*
X14726976Y-14073667D01*
X14717452Y-14083190D01*
X14926976Y-14197476D02*
X14907928Y-14187952D01*
X14898405Y-14178428D01*
X14888881Y-14159381D01*
X14888881Y-14102238D01*
X14898405Y-14083190D01*
X14907928Y-14073667D01*
X14926976Y-14064143D01*
X14955548Y-14064143D01*
X14974595Y-14073667D01*
X14984119Y-14083190D01*
X14993643Y-14102238D01*
X14993643Y-14159381D01*
X14984119Y-14178428D01*
X14974595Y-14187952D01*
X14955548Y-14197476D01*
X14926976Y-14197476D01*
X15107928Y-14197476D02*
X15088881Y-14187952D01*
X15079357Y-14168905D01*
X15079357Y-13997476D01*
X15260309Y-14187952D02*
X15241262Y-14197476D01*
X15203167Y-14197476D01*
X15184119Y-14187952D01*
X15174595Y-14168905D01*
X15174595Y-14092714D01*
X15184119Y-14073667D01*
X15203167Y-14064143D01*
X15241262Y-14064143D01*
X15260309Y-14073667D01*
X15269833Y-14092714D01*
X15269833Y-14111762D01*
X15174595Y-14130809D01*
X15346024Y-14187952D02*
X15365071Y-14197476D01*
X15403167Y-14197476D01*
X15422214Y-14187952D01*
X15431738Y-14168905D01*
X15431738Y-14159381D01*
X15422214Y-14140333D01*
X15403167Y-14130809D01*
X15374595Y-14130809D01*
X15355548Y-14121286D01*
X15346024Y-14102238D01*
X15346024Y-14092714D01*
X15355548Y-14073667D01*
X15374595Y-14064143D01*
X15403167Y-14064143D01*
X15422214Y-14073667D01*
X15498405Y-14273667D02*
X15507928Y-14264143D01*
X15526976Y-14235571D01*
X15536500Y-14216524D01*
X15546024Y-14187952D01*
X15555548Y-14140333D01*
X15555548Y-14102238D01*
X15546024Y-14054619D01*
X15536500Y-14026048D01*
X15526976Y-14007000D01*
X15507928Y-13978428D01*
X15498405Y-13968905D01*
X15860309Y-14273667D02*
X15850786Y-14264143D01*
X15831738Y-14235571D01*
X15822214Y-14216524D01*
X15812690Y-14187952D01*
X15803167Y-14140333D01*
X15803167Y-14102238D01*
X15812690Y-14054619D01*
X15822214Y-14026048D01*
X15831738Y-14007000D01*
X15850786Y-13978428D01*
X15860309Y-13968905D01*
X15936500Y-14064143D02*
X15936500Y-14197476D01*
X15936500Y-14083190D02*
X15946024Y-14073667D01*
X15965071Y-14064143D01*
X15993643Y-14064143D01*
X16012690Y-14073667D01*
X16022214Y-14092714D01*
X16022214Y-14197476D01*
X16146024Y-14197476D02*
X16126976Y-14187952D01*
X16117452Y-14178428D01*
X16107928Y-14159381D01*
X16107928Y-14102238D01*
X16117452Y-14083190D01*
X16126976Y-14073667D01*
X16146024Y-14064143D01*
X16174595Y-14064143D01*
X16193643Y-14073667D01*
X16203167Y-14083190D01*
X16212690Y-14102238D01*
X16212690Y-14159381D01*
X16203167Y-14178428D01*
X16193643Y-14187952D01*
X16174595Y-14197476D01*
X16146024Y-14197476D01*
X16269833Y-14064143D02*
X16346024Y-14064143D01*
X16298405Y-13997476D02*
X16298405Y-14168905D01*
X16307928Y-14187952D01*
X16326976Y-14197476D01*
X16346024Y-14197476D01*
X16565071Y-14064143D02*
X16565071Y-14264143D01*
X16565071Y-14073667D02*
X16584119Y-14064143D01*
X16622214Y-14064143D01*
X16641262Y-14073667D01*
X16650786Y-14083190D01*
X16660309Y-14102238D01*
X16660309Y-14159381D01*
X16650786Y-14178428D01*
X16641262Y-14187952D01*
X16622214Y-14197476D01*
X16584119Y-14197476D01*
X16565071Y-14187952D01*
X16774595Y-14197476D02*
X16755548Y-14187952D01*
X16746024Y-14168905D01*
X16746024Y-13997476D01*
X16936500Y-14197476D02*
X16936500Y-14092714D01*
X16926976Y-14073667D01*
X16907929Y-14064143D01*
X16869833Y-14064143D01*
X16850786Y-14073667D01*
X16936500Y-14187952D02*
X16917452Y-14197476D01*
X16869833Y-14197476D01*
X16850786Y-14187952D01*
X16841262Y-14168905D01*
X16841262Y-14149857D01*
X16850786Y-14130809D01*
X16869833Y-14121286D01*
X16917452Y-14121286D01*
X16936500Y-14111762D01*
X17003167Y-14064143D02*
X17079357Y-14064143D01*
X17031738Y-13997476D02*
X17031738Y-14168905D01*
X17041262Y-14187952D01*
X17060310Y-14197476D01*
X17079357Y-14197476D01*
X17222214Y-14187952D02*
X17203167Y-14197476D01*
X17165071Y-14197476D01*
X17146024Y-14187952D01*
X17136500Y-14168905D01*
X17136500Y-14092714D01*
X17146024Y-14073667D01*
X17165071Y-14064143D01*
X17203167Y-14064143D01*
X17222214Y-14073667D01*
X17231738Y-14092714D01*
X17231738Y-14111762D01*
X17136500Y-14130809D01*
X17403167Y-14197476D02*
X17403167Y-13997476D01*
X17403167Y-14187952D02*
X17384119Y-14197476D01*
X17346024Y-14197476D01*
X17326976Y-14187952D01*
X17317452Y-14178428D01*
X17307929Y-14159381D01*
X17307929Y-14102238D01*
X17317452Y-14083190D01*
X17326976Y-14073667D01*
X17346024Y-14064143D01*
X17384119Y-14064143D01*
X17403167Y-14073667D01*
X17479357Y-14273667D02*
X17488881Y-14264143D01*
X17507929Y-14235571D01*
X17517452Y-14216524D01*
X17526976Y-14187952D01*
X17536500Y-14140333D01*
X17536500Y-14102238D01*
X17526976Y-14054619D01*
X17517452Y-14026048D01*
X17507929Y-14007000D01*
X17488881Y-13978428D01*
X17479357Y-13968905D01*
M02*
