%TF.GenerationSoftware,KiCad,Pcbnew,7.0.1-117-g927b5ae707*%
%TF.CreationDate,2023-04-17T19:07:16+02:00*%
%TF.ProjectId,CANduino128,43414e64-7569-46e6-9f31-32382e6b6963,rev?*%
%TF.SameCoordinates,Original*%
%TF.FileFunction,Drillmap*%
%TF.FilePolarity,Positive*%
%FSLAX45Y45*%
G04 Gerber Fmt 4.5, Leading zero omitted, Abs format (unit mm)*
G04 Created by KiCad (PCBNEW 7.0.1-117-g927b5ae707) date 2023-04-17 19:07:16*
%MOMM*%
%LPD*%
G01*
G04 APERTURE LIST*
%ADD10C,0.100000*%
%ADD11C,0.200000*%
G04 APERTURE END LIST*
D10*
X15968980Y-13366750D02*
G75*
G03*
X16064230Y-13462000I95250J0D01*
G01*
X19748500Y-4540250D02*
G75*
G03*
X19653250Y-4445000I-95250J0D01*
G01*
X16064230Y-13462000D02*
X19653250Y-13462000D01*
X15968980Y-13366750D02*
G75*
G03*
X15873730Y-13271500I-95250J0D01*
G01*
X10160000Y-13366750D02*
X10160000Y-9950450D01*
X19748500Y-9950450D02*
G75*
G03*
X19653250Y-9855200I-95250J0D01*
G01*
X10255250Y-9855200D02*
G75*
G03*
X10350500Y-9759950I0J95250D01*
G01*
X10255250Y-4445000D02*
X13844270Y-4445000D01*
X16064230Y-4445000D02*
G75*
G03*
X15968980Y-4540250I0J-95250D01*
G01*
X10350500Y-7918450D02*
G75*
G03*
X10255250Y-7823200I-95250J0D01*
G01*
X15873730Y-4635500D02*
G75*
G03*
X15968980Y-4540250I0J95250D01*
G01*
X19558000Y-9759950D02*
G75*
G03*
X19653250Y-9855200I95250J0D01*
G01*
X13844270Y-13462000D02*
G75*
G03*
X13939520Y-13366750I0J95250D01*
G01*
X14034770Y-4635500D02*
X15873730Y-4635500D01*
X10160000Y-7727950D02*
G75*
G03*
X10255250Y-7823200I95250J0D01*
G01*
X10255250Y-9855200D02*
G75*
G03*
X10160000Y-9950450I0J-95250D01*
G01*
X13939520Y-4540250D02*
G75*
G03*
X14034770Y-4635500I95250J0D01*
G01*
X19748500Y-7727950D02*
X19748500Y-4540250D01*
X10160000Y-7727950D02*
X10160000Y-4540250D01*
X16064230Y-4445000D02*
X19653250Y-4445000D01*
X19558000Y-9759950D02*
X19558000Y-7918450D01*
X19748500Y-13366750D02*
X19748500Y-9950450D01*
X10255250Y-4445000D02*
G75*
G03*
X10160000Y-4540250I0J-95250D01*
G01*
X14034770Y-13271500D02*
G75*
G03*
X13939520Y-13366750I0J-95250D01*
G01*
X10160000Y-13366750D02*
G75*
G03*
X10255250Y-13462000I95250J0D01*
G01*
X10255250Y-13462000D02*
X13844270Y-13462000D01*
X19653250Y-13462000D02*
G75*
G03*
X19748500Y-13366750I0J95250D01*
G01*
X19653250Y-7823200D02*
G75*
G03*
X19558000Y-7918450I0J-95250D01*
G01*
X10350500Y-9759950D02*
X10350500Y-7918450D01*
X14034770Y-13271500D02*
X15873730Y-13271500D01*
X19653250Y-7823200D02*
G75*
G03*
X19748500Y-7727950I0J95250D01*
G01*
X13939520Y-4540250D02*
G75*
G03*
X13844270Y-4445000I-95250J0D01*
G01*
D11*
X10402619Y-13779524D02*
X10402619Y-13579524D01*
X10402619Y-13579524D02*
X10450238Y-13579524D01*
X10450238Y-13579524D02*
X10478809Y-13589048D01*
X10478809Y-13589048D02*
X10497857Y-13608095D01*
X10497857Y-13608095D02*
X10507381Y-13627143D01*
X10507381Y-13627143D02*
X10516905Y-13665238D01*
X10516905Y-13665238D02*
X10516905Y-13693809D01*
X10516905Y-13693809D02*
X10507381Y-13731905D01*
X10507381Y-13731905D02*
X10497857Y-13750952D01*
X10497857Y-13750952D02*
X10478809Y-13770000D01*
X10478809Y-13770000D02*
X10450238Y-13779524D01*
X10450238Y-13779524D02*
X10402619Y-13779524D01*
X10602619Y-13779524D02*
X10602619Y-13646190D01*
X10602619Y-13684286D02*
X10612143Y-13665238D01*
X10612143Y-13665238D02*
X10621667Y-13655714D01*
X10621667Y-13655714D02*
X10640714Y-13646190D01*
X10640714Y-13646190D02*
X10659762Y-13646190D01*
X10726428Y-13779524D02*
X10726428Y-13646190D01*
X10726428Y-13579524D02*
X10716905Y-13589048D01*
X10716905Y-13589048D02*
X10726428Y-13598571D01*
X10726428Y-13598571D02*
X10735952Y-13589048D01*
X10735952Y-13589048D02*
X10726428Y-13579524D01*
X10726428Y-13579524D02*
X10726428Y-13598571D01*
X10850238Y-13779524D02*
X10831190Y-13770000D01*
X10831190Y-13770000D02*
X10821667Y-13750952D01*
X10821667Y-13750952D02*
X10821667Y-13579524D01*
X10955000Y-13779524D02*
X10935952Y-13770000D01*
X10935952Y-13770000D02*
X10926428Y-13750952D01*
X10926428Y-13750952D02*
X10926428Y-13579524D01*
X11183571Y-13779524D02*
X11183571Y-13579524D01*
X11183571Y-13579524D02*
X11250238Y-13722381D01*
X11250238Y-13722381D02*
X11316905Y-13579524D01*
X11316905Y-13579524D02*
X11316905Y-13779524D01*
X11497857Y-13779524D02*
X11497857Y-13674762D01*
X11497857Y-13674762D02*
X11488333Y-13655714D01*
X11488333Y-13655714D02*
X11469286Y-13646190D01*
X11469286Y-13646190D02*
X11431190Y-13646190D01*
X11431190Y-13646190D02*
X11412143Y-13655714D01*
X11497857Y-13770000D02*
X11478809Y-13779524D01*
X11478809Y-13779524D02*
X11431190Y-13779524D01*
X11431190Y-13779524D02*
X11412143Y-13770000D01*
X11412143Y-13770000D02*
X11402619Y-13750952D01*
X11402619Y-13750952D02*
X11402619Y-13731905D01*
X11402619Y-13731905D02*
X11412143Y-13712857D01*
X11412143Y-13712857D02*
X11431190Y-13703333D01*
X11431190Y-13703333D02*
X11478809Y-13703333D01*
X11478809Y-13703333D02*
X11497857Y-13693809D01*
X11593095Y-13646190D02*
X11593095Y-13846190D01*
X11593095Y-13655714D02*
X11612143Y-13646190D01*
X11612143Y-13646190D02*
X11650238Y-13646190D01*
X11650238Y-13646190D02*
X11669286Y-13655714D01*
X11669286Y-13655714D02*
X11678809Y-13665238D01*
X11678809Y-13665238D02*
X11688333Y-13684286D01*
X11688333Y-13684286D02*
X11688333Y-13741428D01*
X11688333Y-13741428D02*
X11678809Y-13760476D01*
X11678809Y-13760476D02*
X11669286Y-13770000D01*
X11669286Y-13770000D02*
X11650238Y-13779524D01*
X11650238Y-13779524D02*
X11612143Y-13779524D01*
X11612143Y-13779524D02*
X11593095Y-13770000D01*
X11774047Y-13760476D02*
X11783571Y-13770000D01*
X11783571Y-13770000D02*
X11774047Y-13779524D01*
X11774047Y-13779524D02*
X11764524Y-13770000D01*
X11764524Y-13770000D02*
X11774047Y-13760476D01*
X11774047Y-13760476D02*
X11774047Y-13779524D01*
X11774047Y-13655714D02*
X11783571Y-13665238D01*
X11783571Y-13665238D02*
X11774047Y-13674762D01*
X11774047Y-13674762D02*
X11764524Y-13665238D01*
X11764524Y-13665238D02*
X11774047Y-13655714D01*
X11774047Y-13655714D02*
X11774047Y-13674762D01*
M02*
